<?xml version="1.0" encoding="utf-8" standalone="no"?>
<!DOCTYPE svg PUBLIC "-//W3C//DTD SVG 1.1//EN"
  "http://www.w3.org/Graphics/SVG/1.1/DTD/svg11.dtd">
<svg height="285.19625pt" version="1.1" viewBox="0 0 568.690625 285.19625" width="568.690625pt" xmlns="http://www.w3.org/2000/svg" xmlns:xlink="http://www.w3.org/1999/xlink">
 <metadata>
  <rdf:RDF xmlns:cc="http://creativecommons.org/ns#" xmlns:dc="http://purl.org/dc/elements/1.1/" xmlns:rdf="http://www.w3.org/1999/02/22-rdf-syntax-ns#">
   <cc:Work>
    <dc:type rdf:resource="http://purl.org/dc/dcmitype/StillImage"/>
    <dc:date>2022-03-18T14:18:53.184437</dc:date>
    <dc:format>image/svg+xml</dc:format>
    <dc:creator>
     <cc:Agent>
      <dc:title>Matplotlib v3.4.2, https://matplotlib.org/</dc:title>
     </cc:Agent>
    </dc:creator>
   </cc:Work>
  </rdf:RDF>
 </metadata>
 <defs>
  <style type="text/css">*{stroke-linecap:butt;stroke-linejoin:round;}</style>
 </defs>
 <g id="figure_1">
  <g id="patch_1">
   <path d="M 0 285.19625 
L 568.690625 285.19625 
L 568.690625 0 
L 0 0 
z
" style="fill:none;"/>
  </g>
  <g id="axes_1">
   <g id="patch_2">
    <path d="M 46.965625 247.64 
L 278.828125 247.64 
L 278.828125 80.04 
L 46.965625 80.04 
z
" style="fill:#ffffff;"/>
   </g>
   <g id="patch_3">
    <path clip-path="url(#pcc17877dac)" d="M 57.50483 247.64 
L 63.189574 247.64 
L 63.189574 246.162046 
L 57.50483 246.162046 
z
" style="fill:#1f77b4;fill-opacity:0.75;stroke:#000000;stroke-linejoin:miter;stroke-width:0.527037;"/>
   </g>
   <g id="patch_4">
    <path clip-path="url(#pcc17877dac)" d="M 63.189574 247.64 
L 68.874319 247.64 
L 68.874319 240.250229 
L 63.189574 240.250229 
z
" style="fill:#1f77b4;fill-opacity:0.75;stroke:#000000;stroke-linejoin:miter;stroke-width:0.527037;"/>
   </g>
   <g id="patch_5">
    <path clip-path="url(#pcc17877dac)" d="M 68.874319 247.64 
L 74.559063 247.64 
L 74.559063 238.772275 
L 68.874319 238.772275 
z
" style="fill:#1f77b4;fill-opacity:0.75;stroke:#000000;stroke-linejoin:miter;stroke-width:0.527037;"/>
   </g>
   <g id="patch_6">
    <path clip-path="url(#pcc17877dac)" d="M 74.559063 247.64 
L 80.243808 247.64 
L 80.243808 229.90455 
L 74.559063 229.90455 
z
" style="fill:#1f77b4;fill-opacity:0.75;stroke:#000000;stroke-linejoin:miter;stroke-width:0.527037;"/>
   </g>
   <g id="patch_7">
    <path clip-path="url(#pcc17877dac)" d="M 80.243808 247.64 
L 85.928552 247.64 
L 85.928552 216.602963 
L 80.243808 216.602963 
z
" style="fill:#1f77b4;fill-opacity:0.75;stroke:#000000;stroke-linejoin:miter;stroke-width:0.527037;"/>
   </g>
   <g id="patch_8">
    <path clip-path="url(#pcc17877dac)" d="M 85.928552 247.64 
L 91.613297 247.64 
L 91.613297 212.169101 
L 85.928552 212.169101 
z
" style="fill:#1f77b4;fill-opacity:0.75;stroke:#000000;stroke-linejoin:miter;stroke-width:0.527037;"/>
   </g>
   <g id="patch_9">
    <path clip-path="url(#pcc17877dac)" d="M 91.613297 247.64 
L 97.298041 247.64 
L 97.298041 203.301376 
L 91.613297 203.301376 
z
" style="fill:#1f77b4;fill-opacity:0.75;stroke:#000000;stroke-linejoin:miter;stroke-width:0.527037;"/>
   </g>
   <g id="patch_10">
    <path clip-path="url(#pcc17877dac)" d="M 97.298041 247.64 
L 102.982786 247.64 
L 102.982786 189.999788 
L 97.298041 189.999788 
z
" style="fill:#1f77b4;fill-opacity:0.75;stroke:#000000;stroke-linejoin:miter;stroke-width:0.527037;"/>
   </g>
   <g id="patch_11">
    <path clip-path="url(#pcc17877dac)" d="M 102.982786 247.64 
L 108.667531 247.64 
L 108.667531 178.176155 
L 102.982786 178.176155 
z
" style="fill:#1f77b4;fill-opacity:0.75;stroke:#000000;stroke-linejoin:miter;stroke-width:0.527037;"/>
   </g>
   <g id="patch_12">
    <path clip-path="url(#pcc17877dac)" d="M 108.667531 247.64 
L 114.352275 247.64 
L 114.352275 201.823422 
L 108.667531 201.823422 
z
" style="fill:#1f77b4;fill-opacity:0.75;stroke:#000000;stroke-linejoin:miter;stroke-width:0.527037;"/>
   </g>
   <g id="patch_13">
    <path clip-path="url(#pcc17877dac)" d="M 114.352275 247.64 
L 120.03702 247.64 
L 120.03702 188.521834 
L 114.352275 188.521834 
z
" style="fill:#1f77b4;fill-opacity:0.75;stroke:#000000;stroke-linejoin:miter;stroke-width:0.527037;"/>
   </g>
   <g id="patch_14">
    <path clip-path="url(#pcc17877dac)" d="M 120.03702 247.64 
L 125.721764 247.64 
L 125.721764 170.786384 
L 120.03702 170.786384 
z
" style="fill:#1f77b4;fill-opacity:0.75;stroke:#000000;stroke-linejoin:miter;stroke-width:0.527037;"/>
   </g>
   <g id="patch_15">
    <path clip-path="url(#pcc17877dac)" d="M 125.721764 247.64 
L 131.406509 247.64 
L 131.406509 163.396614 
L 125.721764 163.396614 
z
" style="fill:#1f77b4;fill-opacity:0.75;stroke:#000000;stroke-linejoin:miter;stroke-width:0.527037;"/>
   </g>
   <g id="patch_16">
    <path clip-path="url(#pcc17877dac)" d="M 131.406509 247.64 
L 137.091253 247.64 
L 137.091253 147.139118 
L 131.406509 147.139118 
z
" style="fill:#1f77b4;fill-opacity:0.75;stroke:#000000;stroke-linejoin:miter;stroke-width:0.527037;"/>
   </g>
   <g id="patch_17">
    <path clip-path="url(#pcc17877dac)" d="M 137.091253 247.64 
L 142.775998 247.64 
L 142.775998 105.756402 
L 137.091253 105.756402 
z
" style="fill:#1f77b4;fill-opacity:0.75;stroke:#000000;stroke-linejoin:miter;stroke-width:0.527037;"/>
   </g>
   <g id="patch_18">
    <path clip-path="url(#pcc17877dac)" d="M 142.775998 247.64 
L 148.460742 247.64 
L 148.460742 90.976861 
L 142.775998 90.976861 
z
" style="fill:#1f77b4;fill-opacity:0.75;stroke:#000000;stroke-linejoin:miter;stroke-width:0.527037;"/>
   </g>
   <g id="patch_19">
    <path clip-path="url(#pcc17877dac)" d="M 148.460742 247.64 
L 154.145487 247.64 
L 154.145487 95.410723 
L 148.460742 95.410723 
z
" style="fill:#1f77b4;fill-opacity:0.75;stroke:#000000;stroke-linejoin:miter;stroke-width:0.527037;"/>
   </g>
   <g id="patch_20">
    <path clip-path="url(#pcc17877dac)" d="M 154.145487 247.64 
L 159.830232 247.64 
L 159.830232 89.498907 
L 154.145487 89.498907 
z
" style="fill:#1f77b4;fill-opacity:0.75;stroke:#000000;stroke-linejoin:miter;stroke-width:0.527037;"/>
   </g>
   <g id="patch_21">
    <path clip-path="url(#pcc17877dac)" d="M 159.830232 247.64 
L 165.514976 247.64 
L 165.514976 88.020952 
L 159.830232 88.020952 
z
" style="fill:#1f77b4;fill-opacity:0.75;stroke:#000000;stroke-linejoin:miter;stroke-width:0.527037;"/>
   </g>
   <g id="patch_22">
    <path clip-path="url(#pcc17877dac)" d="M 165.514976 247.64 
L 171.199721 247.64 
L 171.199721 129.403668 
L 165.514976 129.403668 
z
" style="fill:#1f77b4;fill-opacity:0.75;stroke:#000000;stroke-linejoin:miter;stroke-width:0.527037;"/>
   </g>
   <g id="patch_23">
    <path clip-path="url(#pcc17877dac)" d="M 171.199721 247.64 
L 176.884465 247.64 
L 176.884465 122.013898 
L 171.199721 122.013898 
z
" style="fill:#1f77b4;fill-opacity:0.75;stroke:#000000;stroke-linejoin:miter;stroke-width:0.527037;"/>
   </g>
   <g id="patch_24">
    <path clip-path="url(#pcc17877dac)" d="M 176.884465 247.64 
L 182.56921 247.64 
L 182.56921 130.881623 
L 176.884465 130.881623 
z
" style="fill:#1f77b4;fill-opacity:0.75;stroke:#000000;stroke-linejoin:miter;stroke-width:0.527037;"/>
   </g>
   <g id="patch_25">
    <path clip-path="url(#pcc17877dac)" d="M 182.56921 247.64 
L 188.253954 247.64 
L 188.253954 173.742293 
L 182.56921 173.742293 
z
" style="fill:#1f77b4;fill-opacity:0.75;stroke:#000000;stroke-linejoin:miter;stroke-width:0.527037;"/>
   </g>
   <g id="patch_26">
    <path clip-path="url(#pcc17877dac)" d="M 188.253954 247.64 
L 193.938699 247.64 
L 193.938699 187.04388 
L 188.253954 187.04388 
z
" style="fill:#1f77b4;fill-opacity:0.75;stroke:#000000;stroke-linejoin:miter;stroke-width:0.527037;"/>
   </g>
   <g id="patch_27">
    <path clip-path="url(#pcc17877dac)" d="M 193.938699 247.64 
L 199.623444 247.64 
L 199.623444 187.04388 
L 193.938699 187.04388 
z
" style="fill:#1f77b4;fill-opacity:0.75;stroke:#000000;stroke-linejoin:miter;stroke-width:0.527037;"/>
   </g>
   <g id="patch_28">
    <path clip-path="url(#pcc17877dac)" d="M 199.623444 247.64 
L 205.308188 247.64 
L 205.308188 203.301376 
L 199.623444 203.301376 
z
" style="fill:#1f77b4;fill-opacity:0.75;stroke:#000000;stroke-linejoin:miter;stroke-width:0.527037;"/>
   </g>
   <g id="patch_29">
    <path clip-path="url(#pcc17877dac)" d="M 205.308188 247.64 
L 210.992933 247.64 
L 210.992933 200.345467 
L 205.308188 200.345467 
z
" style="fill:#1f77b4;fill-opacity:0.75;stroke:#000000;stroke-linejoin:miter;stroke-width:0.527037;"/>
   </g>
   <g id="patch_30">
    <path clip-path="url(#pcc17877dac)" d="M 210.992933 247.64 
L 216.677677 247.64 
L 216.677677 207.735238 
L 210.992933 207.735238 
z
" style="fill:#1f77b4;fill-opacity:0.75;stroke:#000000;stroke-linejoin:miter;stroke-width:0.527037;"/>
   </g>
   <g id="patch_31">
    <path clip-path="url(#pcc17877dac)" d="M 216.677677 247.64 
L 222.362422 247.64 
L 222.362422 215.125009 
L 216.677677 215.125009 
z
" style="fill:#1f77b4;fill-opacity:0.75;stroke:#000000;stroke-linejoin:miter;stroke-width:0.527037;"/>
   </g>
   <g id="patch_32">
    <path clip-path="url(#pcc17877dac)" d="M 222.362422 247.64 
L 228.047166 247.64 
L 228.047166 226.948642 
L 222.362422 226.948642 
z
" style="fill:#1f77b4;fill-opacity:0.75;stroke:#000000;stroke-linejoin:miter;stroke-width:0.527037;"/>
   </g>
   <g id="patch_33">
    <path clip-path="url(#pcc17877dac)" d="M 228.047166 247.64 
L 233.731911 247.64 
L 233.731911 228.426596 
L 228.047166 228.426596 
z
" style="fill:#1f77b4;fill-opacity:0.75;stroke:#000000;stroke-linejoin:miter;stroke-width:0.527037;"/>
   </g>
   <g id="patch_34">
    <path clip-path="url(#pcc17877dac)" d="M 233.731911 247.64 
L 239.416655 247.64 
L 239.416655 240.250229 
L 233.731911 240.250229 
z
" style="fill:#1f77b4;fill-opacity:0.75;stroke:#000000;stroke-linejoin:miter;stroke-width:0.527037;"/>
   </g>
   <g id="patch_35">
    <path clip-path="url(#pcc17877dac)" d="M 239.416655 247.64 
L 245.1014 247.64 
L 245.1014 241.728183 
L 239.416655 241.728183 
z
" style="fill:#1f77b4;fill-opacity:0.75;stroke:#000000;stroke-linejoin:miter;stroke-width:0.527037;"/>
   </g>
   <g id="patch_36">
    <path clip-path="url(#pcc17877dac)" d="M 245.1014 247.64 
L 250.786145 247.64 
L 250.786145 237.294321 
L 245.1014 237.294321 
z
" style="fill:#1f77b4;fill-opacity:0.75;stroke:#000000;stroke-linejoin:miter;stroke-width:0.527037;"/>
   </g>
   <g id="patch_37">
    <path clip-path="url(#pcc17877dac)" d="M 250.786145 247.64 
L 256.470889 247.64 
L 256.470889 241.728183 
L 250.786145 241.728183 
z
" style="fill:#1f77b4;fill-opacity:0.75;stroke:#000000;stroke-linejoin:miter;stroke-width:0.527037;"/>
   </g>
   <g id="matplotlib.axis_1">
    <g id="xtick_1">
     <g id="line2d_1">
      <defs>
       <path d="M 0 0 
L 0 3.5 
" id="macbca92c29" style="stroke:#000000;stroke-width:0.8;"/>
      </defs>
      <g>
       <use style="stroke:#000000;stroke-width:0.8;" x="77.001251" xlink:href="#macbca92c29" y="247.64"/>
      </g>
     </g>
     <g id="text_1">
      <!-- 0 -->
      <g transform="translate(73.820001 262.238437)scale(0.1 -0.1)">
       <defs>
        <path d="M 2034 4250 
Q 1547 4250 1301 3770 
Q 1056 3291 1056 2328 
Q 1056 1369 1301 889 
Q 1547 409 2034 409 
Q 2525 409 2770 889 
Q 3016 1369 3016 2328 
Q 3016 3291 2770 3770 
Q 2525 4250 2034 4250 
z
M 2034 4750 
Q 2819 4750 3233 4129 
Q 3647 3509 3647 2328 
Q 3647 1150 3233 529 
Q 2819 -91 2034 -91 
Q 1250 -91 836 529 
Q 422 1150 422 2328 
Q 422 3509 836 4129 
Q 1250 4750 2034 4750 
z
" id="DejaVuSans-30" transform="scale(0.015625)"/>
       </defs>
       <use xlink:href="#DejaVuSans-30"/>
      </g>
     </g>
    </g>
    <g id="xtick_2">
     <g id="line2d_2">
      <g>
       <use style="stroke:#000000;stroke-width:0.8;" x="139.66946" xlink:href="#macbca92c29" y="247.64"/>
      </g>
     </g>
     <g id="text_2">
      <!-- 5 -->
      <g transform="translate(136.48821 262.238437)scale(0.1 -0.1)">
       <defs>
        <path d="M 691 4666 
L 3169 4666 
L 3169 4134 
L 1269 4134 
L 1269 2991 
Q 1406 3038 1543 3061 
Q 1681 3084 1819 3084 
Q 2600 3084 3056 2656 
Q 3513 2228 3513 1497 
Q 3513 744 3044 326 
Q 2575 -91 1722 -91 
Q 1428 -91 1123 -41 
Q 819 9 494 109 
L 494 744 
Q 775 591 1075 516 
Q 1375 441 1709 441 
Q 2250 441 2565 725 
Q 2881 1009 2881 1497 
Q 2881 1984 2565 2268 
Q 2250 2553 1709 2553 
Q 1456 2553 1204 2497 
Q 953 2441 691 2322 
L 691 4666 
z
" id="DejaVuSans-35" transform="scale(0.015625)"/>
       </defs>
       <use xlink:href="#DejaVuSans-35"/>
      </g>
     </g>
    </g>
    <g id="xtick_3">
     <g id="line2d_3">
      <g>
       <use style="stroke:#000000;stroke-width:0.8;" x="202.33767" xlink:href="#macbca92c29" y="247.64"/>
      </g>
     </g>
     <g id="text_3">
      <!-- 10 -->
      <g transform="translate(195.97517 262.238437)scale(0.1 -0.1)">
       <defs>
        <path d="M 794 531 
L 1825 531 
L 1825 4091 
L 703 3866 
L 703 4441 
L 1819 4666 
L 2450 4666 
L 2450 531 
L 3481 531 
L 3481 0 
L 794 0 
L 794 531 
z
" id="DejaVuSans-31" transform="scale(0.015625)"/>
       </defs>
       <use xlink:href="#DejaVuSans-31"/>
       <use x="63.623047" xlink:href="#DejaVuSans-30"/>
      </g>
     </g>
    </g>
    <g id="xtick_4">
     <g id="line2d_4">
      <g>
       <use style="stroke:#000000;stroke-width:0.8;" x="265.005879" xlink:href="#macbca92c29" y="247.64"/>
      </g>
     </g>
     <g id="text_4">
      <!-- 15 -->
      <g transform="translate(258.643379 262.238437)scale(0.1 -0.1)">
       <use xlink:href="#DejaVuSans-31"/>
       <use x="63.623047" xlink:href="#DejaVuSans-35"/>
      </g>
     </g>
    </g>
    <g id="text_5">
     <!-- blankratio -->
     <g transform="translate(137.677344 275.916562)scale(0.1 -0.1)">
      <defs>
       <path d="M 3116 1747 
Q 3116 2381 2855 2742 
Q 2594 3103 2138 3103 
Q 1681 3103 1420 2742 
Q 1159 2381 1159 1747 
Q 1159 1113 1420 752 
Q 1681 391 2138 391 
Q 2594 391 2855 752 
Q 3116 1113 3116 1747 
z
M 1159 2969 
Q 1341 3281 1617 3432 
Q 1894 3584 2278 3584 
Q 2916 3584 3314 3078 
Q 3713 2572 3713 1747 
Q 3713 922 3314 415 
Q 2916 -91 2278 -91 
Q 1894 -91 1617 61 
Q 1341 213 1159 525 
L 1159 0 
L 581 0 
L 581 4863 
L 1159 4863 
L 1159 2969 
z
" id="DejaVuSans-62" transform="scale(0.015625)"/>
       <path d="M 603 4863 
L 1178 4863 
L 1178 0 
L 603 0 
L 603 4863 
z
" id="DejaVuSans-6c" transform="scale(0.015625)"/>
       <path d="M 2194 1759 
Q 1497 1759 1228 1600 
Q 959 1441 959 1056 
Q 959 750 1161 570 
Q 1363 391 1709 391 
Q 2188 391 2477 730 
Q 2766 1069 2766 1631 
L 2766 1759 
L 2194 1759 
z
M 3341 1997 
L 3341 0 
L 2766 0 
L 2766 531 
Q 2569 213 2275 61 
Q 1981 -91 1556 -91 
Q 1019 -91 701 211 
Q 384 513 384 1019 
Q 384 1609 779 1909 
Q 1175 2209 1959 2209 
L 2766 2209 
L 2766 2266 
Q 2766 2663 2505 2880 
Q 2244 3097 1772 3097 
Q 1472 3097 1187 3025 
Q 903 2953 641 2809 
L 641 3341 
Q 956 3463 1253 3523 
Q 1550 3584 1831 3584 
Q 2591 3584 2966 3190 
Q 3341 2797 3341 1997 
z
" id="DejaVuSans-61" transform="scale(0.015625)"/>
       <path d="M 3513 2113 
L 3513 0 
L 2938 0 
L 2938 2094 
Q 2938 2591 2744 2837 
Q 2550 3084 2163 3084 
Q 1697 3084 1428 2787 
Q 1159 2491 1159 1978 
L 1159 0 
L 581 0 
L 581 3500 
L 1159 3500 
L 1159 2956 
Q 1366 3272 1645 3428 
Q 1925 3584 2291 3584 
Q 2894 3584 3203 3211 
Q 3513 2838 3513 2113 
z
" id="DejaVuSans-6e" transform="scale(0.015625)"/>
       <path d="M 581 4863 
L 1159 4863 
L 1159 1991 
L 2875 3500 
L 3609 3500 
L 1753 1863 
L 3688 0 
L 2938 0 
L 1159 1709 
L 1159 0 
L 581 0 
L 581 4863 
z
" id="DejaVuSans-6b" transform="scale(0.015625)"/>
       <path d="M 2631 2963 
Q 2534 3019 2420 3045 
Q 2306 3072 2169 3072 
Q 1681 3072 1420 2755 
Q 1159 2438 1159 1844 
L 1159 0 
L 581 0 
L 581 3500 
L 1159 3500 
L 1159 2956 
Q 1341 3275 1631 3429 
Q 1922 3584 2338 3584 
Q 2397 3584 2469 3576 
Q 2541 3569 2628 3553 
L 2631 2963 
z
" id="DejaVuSans-72" transform="scale(0.015625)"/>
       <path d="M 1172 4494 
L 1172 3500 
L 2356 3500 
L 2356 3053 
L 1172 3053 
L 1172 1153 
Q 1172 725 1289 603 
Q 1406 481 1766 481 
L 2356 481 
L 2356 0 
L 1766 0 
Q 1100 0 847 248 
Q 594 497 594 1153 
L 594 3053 
L 172 3053 
L 172 3500 
L 594 3500 
L 594 4494 
L 1172 4494 
z
" id="DejaVuSans-74" transform="scale(0.015625)"/>
       <path d="M 603 3500 
L 1178 3500 
L 1178 0 
L 603 0 
L 603 3500 
z
M 603 4863 
L 1178 4863 
L 1178 4134 
L 603 4134 
L 603 4863 
z
" id="DejaVuSans-69" transform="scale(0.015625)"/>
       <path d="M 1959 3097 
Q 1497 3097 1228 2736 
Q 959 2375 959 1747 
Q 959 1119 1226 758 
Q 1494 397 1959 397 
Q 2419 397 2687 759 
Q 2956 1122 2956 1747 
Q 2956 2369 2687 2733 
Q 2419 3097 1959 3097 
z
M 1959 3584 
Q 2709 3584 3137 3096 
Q 3566 2609 3566 1747 
Q 3566 888 3137 398 
Q 2709 -91 1959 -91 
Q 1206 -91 779 398 
Q 353 888 353 1747 
Q 353 2609 779 3096 
Q 1206 3584 1959 3584 
z
" id="DejaVuSans-6f" transform="scale(0.015625)"/>
      </defs>
      <use xlink:href="#DejaVuSans-62"/>
      <use x="63.476562" xlink:href="#DejaVuSans-6c"/>
      <use x="91.259766" xlink:href="#DejaVuSans-61"/>
      <use x="152.539062" xlink:href="#DejaVuSans-6e"/>
      <use x="215.917969" xlink:href="#DejaVuSans-6b"/>
      <use x="273.828125" xlink:href="#DejaVuSans-72"/>
      <use x="314.941406" xlink:href="#DejaVuSans-61"/>
      <use x="376.220703" xlink:href="#DejaVuSans-74"/>
      <use x="415.429688" xlink:href="#DejaVuSans-69"/>
      <use x="443.212891" xlink:href="#DejaVuSans-6f"/>
     </g>
    </g>
   </g>
   <g id="matplotlib.axis_2">
    <g id="ytick_1">
     <g id="line2d_5">
      <defs>
       <path d="M 0 0 
L -3.5 0 
" id="mb8d3b3c9e5" style="stroke:#000000;stroke-width:0.8;"/>
      </defs>
      <g>
       <use style="stroke:#000000;stroke-width:0.8;" x="46.965625" xlink:href="#mb8d3b3c9e5" y="247.64"/>
      </g>
     </g>
     <g id="text_6">
      <!-- 0 -->
      <g transform="translate(33.603125 251.439219)scale(0.1 -0.1)">
       <use xlink:href="#DejaVuSans-30"/>
      </g>
     </g>
    </g>
    <g id="ytick_2">
     <g id="line2d_6">
      <g>
       <use style="stroke:#000000;stroke-width:0.8;" x="46.965625" xlink:href="#mb8d3b3c9e5" y="218.080917"/>
      </g>
     </g>
     <g id="text_7">
      <!-- 20 -->
      <g transform="translate(27.240625 221.880136)scale(0.1 -0.1)">
       <defs>
        <path d="M 1228 531 
L 3431 531 
L 3431 0 
L 469 0 
L 469 531 
Q 828 903 1448 1529 
Q 2069 2156 2228 2338 
Q 2531 2678 2651 2914 
Q 2772 3150 2772 3378 
Q 2772 3750 2511 3984 
Q 2250 4219 1831 4219 
Q 1534 4219 1204 4116 
Q 875 4013 500 3803 
L 500 4441 
Q 881 4594 1212 4672 
Q 1544 4750 1819 4750 
Q 2544 4750 2975 4387 
Q 3406 4025 3406 3419 
Q 3406 3131 3298 2873 
Q 3191 2616 2906 2266 
Q 2828 2175 2409 1742 
Q 1991 1309 1228 531 
z
" id="DejaVuSans-32" transform="scale(0.015625)"/>
       </defs>
       <use xlink:href="#DejaVuSans-32"/>
       <use x="63.623047" xlink:href="#DejaVuSans-30"/>
      </g>
     </g>
    </g>
    <g id="ytick_3">
     <g id="line2d_7">
      <g>
       <use style="stroke:#000000;stroke-width:0.8;" x="46.965625" xlink:href="#mb8d3b3c9e5" y="188.521834"/>
      </g>
     </g>
     <g id="text_8">
      <!-- 40 -->
      <g transform="translate(27.240625 192.321053)scale(0.1 -0.1)">
       <defs>
        <path d="M 2419 4116 
L 825 1625 
L 2419 1625 
L 2419 4116 
z
M 2253 4666 
L 3047 4666 
L 3047 1625 
L 3713 1625 
L 3713 1100 
L 3047 1100 
L 3047 0 
L 2419 0 
L 2419 1100 
L 313 1100 
L 313 1709 
L 2253 4666 
z
" id="DejaVuSans-34" transform="scale(0.015625)"/>
       </defs>
       <use xlink:href="#DejaVuSans-34"/>
       <use x="63.623047" xlink:href="#DejaVuSans-30"/>
      </g>
     </g>
    </g>
    <g id="ytick_4">
     <g id="line2d_8">
      <g>
       <use style="stroke:#000000;stroke-width:0.8;" x="46.965625" xlink:href="#mb8d3b3c9e5" y="158.962751"/>
      </g>
     </g>
     <g id="text_9">
      <!-- 60 -->
      <g transform="translate(27.240625 162.76197)scale(0.1 -0.1)">
       <defs>
        <path d="M 2113 2584 
Q 1688 2584 1439 2293 
Q 1191 2003 1191 1497 
Q 1191 994 1439 701 
Q 1688 409 2113 409 
Q 2538 409 2786 701 
Q 3034 994 3034 1497 
Q 3034 2003 2786 2293 
Q 2538 2584 2113 2584 
z
M 3366 4563 
L 3366 3988 
Q 3128 4100 2886 4159 
Q 2644 4219 2406 4219 
Q 1781 4219 1451 3797 
Q 1122 3375 1075 2522 
Q 1259 2794 1537 2939 
Q 1816 3084 2150 3084 
Q 2853 3084 3261 2657 
Q 3669 2231 3669 1497 
Q 3669 778 3244 343 
Q 2819 -91 2113 -91 
Q 1303 -91 875 529 
Q 447 1150 447 2328 
Q 447 3434 972 4092 
Q 1497 4750 2381 4750 
Q 2619 4750 2861 4703 
Q 3103 4656 3366 4563 
z
" id="DejaVuSans-36" transform="scale(0.015625)"/>
       </defs>
       <use xlink:href="#DejaVuSans-36"/>
       <use x="63.623047" xlink:href="#DejaVuSans-30"/>
      </g>
     </g>
    </g>
    <g id="ytick_5">
     <g id="line2d_9">
      <g>
       <use style="stroke:#000000;stroke-width:0.8;" x="46.965625" xlink:href="#mb8d3b3c9e5" y="129.403668"/>
      </g>
     </g>
     <g id="text_10">
      <!-- 80 -->
      <g transform="translate(27.240625 133.202887)scale(0.1 -0.1)">
       <defs>
        <path d="M 2034 2216 
Q 1584 2216 1326 1975 
Q 1069 1734 1069 1313 
Q 1069 891 1326 650 
Q 1584 409 2034 409 
Q 2484 409 2743 651 
Q 3003 894 3003 1313 
Q 3003 1734 2745 1975 
Q 2488 2216 2034 2216 
z
M 1403 2484 
Q 997 2584 770 2862 
Q 544 3141 544 3541 
Q 544 4100 942 4425 
Q 1341 4750 2034 4750 
Q 2731 4750 3128 4425 
Q 3525 4100 3525 3541 
Q 3525 3141 3298 2862 
Q 3072 2584 2669 2484 
Q 3125 2378 3379 2068 
Q 3634 1759 3634 1313 
Q 3634 634 3220 271 
Q 2806 -91 2034 -91 
Q 1263 -91 848 271 
Q 434 634 434 1313 
Q 434 1759 690 2068 
Q 947 2378 1403 2484 
z
M 1172 3481 
Q 1172 3119 1398 2916 
Q 1625 2713 2034 2713 
Q 2441 2713 2670 2916 
Q 2900 3119 2900 3481 
Q 2900 3844 2670 4047 
Q 2441 4250 2034 4250 
Q 1625 4250 1398 4047 
Q 1172 3844 1172 3481 
z
" id="DejaVuSans-38" transform="scale(0.015625)"/>
       </defs>
       <use xlink:href="#DejaVuSans-38"/>
       <use x="63.623047" xlink:href="#DejaVuSans-30"/>
      </g>
     </g>
    </g>
    <g id="ytick_6">
     <g id="line2d_10">
      <g>
       <use style="stroke:#000000;stroke-width:0.8;" x="46.965625" xlink:href="#mb8d3b3c9e5" y="99.844586"/>
      </g>
     </g>
     <g id="text_11">
      <!-- 100 -->
      <g transform="translate(20.878125 103.643804)scale(0.1 -0.1)">
       <use xlink:href="#DejaVuSans-31"/>
       <use x="63.623047" xlink:href="#DejaVuSans-30"/>
       <use x="127.246094" xlink:href="#DejaVuSans-30"/>
      </g>
     </g>
    </g>
    <g id="text_12">
     <!-- Count -->
     <g transform="translate(14.798438 178.688437)rotate(-90)scale(0.1 -0.1)">
      <defs>
       <path d="M 4122 4306 
L 4122 3641 
Q 3803 3938 3442 4084 
Q 3081 4231 2675 4231 
Q 1875 4231 1450 3742 
Q 1025 3253 1025 2328 
Q 1025 1406 1450 917 
Q 1875 428 2675 428 
Q 3081 428 3442 575 
Q 3803 722 4122 1019 
L 4122 359 
Q 3791 134 3420 21 
Q 3050 -91 2638 -91 
Q 1578 -91 968 557 
Q 359 1206 359 2328 
Q 359 3453 968 4101 
Q 1578 4750 2638 4750 
Q 3056 4750 3426 4639 
Q 3797 4528 4122 4306 
z
" id="DejaVuSans-43" transform="scale(0.015625)"/>
       <path d="M 544 1381 
L 544 3500 
L 1119 3500 
L 1119 1403 
Q 1119 906 1312 657 
Q 1506 409 1894 409 
Q 2359 409 2629 706 
Q 2900 1003 2900 1516 
L 2900 3500 
L 3475 3500 
L 3475 0 
L 2900 0 
L 2900 538 
Q 2691 219 2414 64 
Q 2138 -91 1772 -91 
Q 1169 -91 856 284 
Q 544 659 544 1381 
z
M 1991 3584 
L 1991 3584 
z
" id="DejaVuSans-75" transform="scale(0.015625)"/>
      </defs>
      <use xlink:href="#DejaVuSans-43"/>
      <use x="69.824219" xlink:href="#DejaVuSans-6f"/>
      <use x="131.005859" xlink:href="#DejaVuSans-75"/>
      <use x="194.384766" xlink:href="#DejaVuSans-6e"/>
      <use x="257.763672" xlink:href="#DejaVuSans-74"/>
     </g>
    </g>
   </g>
   <g id="line2d_11">
    <path clip-path="url(#pcc17877dac)" d="M 114.602176 247.64 
L 114.602176 80.04 
" style="fill:none;stroke:#ff8c00;stroke-linecap:square;stroke-width:1.5;"/>
   </g>
   <g id="patch_38">
    <path d="M 46.965625 247.64 
L 46.965625 80.04 
" style="fill:none;stroke:#000000;stroke-linecap:square;stroke-linejoin:miter;stroke-width:0.8;"/>
   </g>
   <g id="patch_39">
    <path d="M 46.965625 247.64 
L 278.828125 247.64 
" style="fill:none;stroke:#000000;stroke-linecap:square;stroke-linejoin:miter;stroke-width:0.8;"/>
   </g>
   <g id="text_13">
    <!-- CD 3.1 -->
    <g transform="translate(142.638438 74.04)scale(0.12 -0.12)">
     <defs>
      <path d="M 1259 4147 
L 1259 519 
L 2022 519 
Q 2988 519 3436 956 
Q 3884 1394 3884 2338 
Q 3884 3275 3436 3711 
Q 2988 4147 2022 4147 
L 1259 4147 
z
M 628 4666 
L 1925 4666 
Q 3281 4666 3915 4102 
Q 4550 3538 4550 2338 
Q 4550 1131 3912 565 
Q 3275 0 1925 0 
L 628 0 
L 628 4666 
z
" id="DejaVuSans-44" transform="scale(0.015625)"/>
      <path id="DejaVuSans-20" transform="scale(0.015625)"/>
      <path d="M 2597 2516 
Q 3050 2419 3304 2112 
Q 3559 1806 3559 1356 
Q 3559 666 3084 287 
Q 2609 -91 1734 -91 
Q 1441 -91 1130 -33 
Q 819 25 488 141 
L 488 750 
Q 750 597 1062 519 
Q 1375 441 1716 441 
Q 2309 441 2620 675 
Q 2931 909 2931 1356 
Q 2931 1769 2642 2001 
Q 2353 2234 1838 2234 
L 1294 2234 
L 1294 2753 
L 1863 2753 
Q 2328 2753 2575 2939 
Q 2822 3125 2822 3475 
Q 2822 3834 2567 4026 
Q 2313 4219 1838 4219 
Q 1578 4219 1281 4162 
Q 984 4106 628 3988 
L 628 4550 
Q 988 4650 1302 4700 
Q 1616 4750 1894 4750 
Q 2613 4750 3031 4423 
Q 3450 4097 3450 3541 
Q 3450 3153 3228 2886 
Q 3006 2619 2597 2516 
z
" id="DejaVuSans-33" transform="scale(0.015625)"/>
      <path d="M 684 794 
L 1344 794 
L 1344 0 
L 684 0 
L 684 794 
z
" id="DejaVuSans-2e" transform="scale(0.015625)"/>
     </defs>
     <use xlink:href="#DejaVuSans-43"/>
     <use x="69.824219" xlink:href="#DejaVuSans-44"/>
     <use x="146.826172" xlink:href="#DejaVuSans-20"/>
     <use x="178.613281" xlink:href="#DejaVuSans-33"/>
     <use x="242.236328" xlink:href="#DejaVuSans-2e"/>
     <use x="274.023438" xlink:href="#DejaVuSans-31"/>
    </g>
   </g>
  </g>
  <g id="axes_2">
   <g id="patch_40">
    <path d="M 329.628125 247.64 
L 561.490625 247.64 
L 561.490625 80.04 
L 329.628125 80.04 
z
" style="fill:#ffffff;"/>
   </g>
   <g id="patch_41">
    <path clip-path="url(#p402fe0138a)" d="M 343.865307 247.64 
L 349.782054 247.64 
L 349.782054 243.746852 
L 343.865307 243.746852 
z
" style="fill:#1f77b4;fill-opacity:0.75;stroke:#000000;stroke-linejoin:miter;stroke-width:0.51779;"/>
   </g>
   <g id="patch_42">
    <path clip-path="url(#p402fe0138a)" d="M 349.782054 247.64 
L 355.6988 247.64 
L 355.6988 239.853705 
L 349.782054 239.853705 
z
" style="fill:#1f77b4;fill-opacity:0.75;stroke:#000000;stroke-linejoin:miter;stroke-width:0.51779;"/>
   </g>
   <g id="patch_43">
    <path clip-path="url(#p402fe0138a)" d="M 355.6988 247.64 
L 361.615546 247.64 
L 361.615546 233.735902 
L 355.6988 233.735902 
z
" style="fill:#1f77b4;fill-opacity:0.75;stroke:#000000;stroke-linejoin:miter;stroke-width:0.51779;"/>
   </g>
   <g id="patch_44">
    <path clip-path="url(#p402fe0138a)" d="M 361.615546 247.64 
L 367.532292 247.64 
L 367.532292 212.601672 
L 361.615546 212.601672 
z
" style="fill:#1f77b4;fill-opacity:0.75;stroke:#000000;stroke-linejoin:miter;stroke-width:0.51779;"/>
   </g>
   <g id="patch_45">
    <path clip-path="url(#p402fe0138a)" d="M 367.532292 247.64 
L 373.449038 247.64 
L 373.449038 194.804427 
L 367.532292 194.804427 
z
" style="fill:#1f77b4;fill-opacity:0.75;stroke:#000000;stroke-linejoin:miter;stroke-width:0.51779;"/>
   </g>
   <g id="patch_46">
    <path clip-path="url(#p402fe0138a)" d="M 373.449038 247.64 
L 379.365784 247.64 
L 379.365784 169.77705 
L 373.449038 169.77705 
z
" style="fill:#1f77b4;fill-opacity:0.75;stroke:#000000;stroke-linejoin:miter;stroke-width:0.51779;"/>
   </g>
   <g id="patch_47">
    <path clip-path="url(#p402fe0138a)" d="M 379.365784 247.64 
L 385.28253 247.64 
L 385.28253 124.727772 
L 379.365784 124.727772 
z
" style="fill:#1f77b4;fill-opacity:0.75;stroke:#000000;stroke-linejoin:miter;stroke-width:0.51779;"/>
   </g>
   <g id="patch_48">
    <path clip-path="url(#p402fe0138a)" d="M 385.28253 247.64 
L 391.199276 247.64 
L 391.199276 115.272985 
L 385.28253 115.272985 
z
" style="fill:#1f77b4;fill-opacity:0.75;stroke:#000000;stroke-linejoin:miter;stroke-width:0.51779;"/>
   </g>
   <g id="patch_49">
    <path clip-path="url(#p402fe0138a)" d="M 391.199276 247.64 
L 397.116022 247.64 
L 397.116022 120.834624 
L 391.199276 120.834624 
z
" style="fill:#1f77b4;fill-opacity:0.75;stroke:#000000;stroke-linejoin:miter;stroke-width:0.51779;"/>
   </g>
   <g id="patch_50">
    <path clip-path="url(#p402fe0138a)" d="M 397.116022 247.64 
L 403.032768 247.64 
L 403.032768 113.048329 
L 397.116022 113.048329 
z
" style="fill:#1f77b4;fill-opacity:0.75;stroke:#000000;stroke-linejoin:miter;stroke-width:0.51779;"/>
   </g>
   <g id="patch_51">
    <path clip-path="url(#p402fe0138a)" d="M 403.032768 247.64 
L 408.949514 247.64 
L 408.949514 106.374362 
L 403.032768 106.374362 
z
" style="fill:#1f77b4;fill-opacity:0.75;stroke:#000000;stroke-linejoin:miter;stroke-width:0.51779;"/>
   </g>
   <g id="patch_52">
    <path clip-path="url(#p402fe0138a)" d="M 408.949514 247.64 
L 414.866261 247.64 
L 414.866261 88.020952 
L 408.949514 88.020952 
z
" style="fill:#1f77b4;fill-opacity:0.75;stroke:#000000;stroke-linejoin:miter;stroke-width:0.51779;"/>
   </g>
   <g id="patch_53">
    <path clip-path="url(#p402fe0138a)" d="M 414.866261 247.64 
L 420.783007 247.64 
L 420.783007 115.829149 
L 414.866261 115.829149 
z
" style="fill:#1f77b4;fill-opacity:0.75;stroke:#000000;stroke-linejoin:miter;stroke-width:0.51779;"/>
   </g>
   <g id="patch_54">
    <path clip-path="url(#p402fe0138a)" d="M 420.783007 247.64 
L 426.699753 247.64 
L 426.699753 122.503116 
L 420.783007 122.503116 
z
" style="fill:#1f77b4;fill-opacity:0.75;stroke:#000000;stroke-linejoin:miter;stroke-width:0.51779;"/>
   </g>
   <g id="patch_55">
    <path clip-path="url(#p402fe0138a)" d="M 426.699753 247.64 
L 432.616499 247.64 
L 432.616499 127.508591 
L 426.699753 127.508591 
z
" style="fill:#1f77b4;fill-opacity:0.75;stroke:#000000;stroke-linejoin:miter;stroke-width:0.51779;"/>
   </g>
   <g id="patch_56">
    <path clip-path="url(#p402fe0138a)" d="M 432.616499 247.64 
L 438.533245 247.64 
L 438.533245 154.760624 
L 432.616499 154.760624 
z
" style="fill:#1f77b4;fill-opacity:0.75;stroke:#000000;stroke-linejoin:miter;stroke-width:0.51779;"/>
   </g>
   <g id="patch_57">
    <path clip-path="url(#p402fe0138a)" d="M 438.533245 247.64 
L 444.449991 247.64 
L 444.449991 153.092132 
L 438.533245 153.092132 
z
" style="fill:#1f77b4;fill-opacity:0.75;stroke:#000000;stroke-linejoin:miter;stroke-width:0.51779;"/>
   </g>
   <g id="patch_58">
    <path clip-path="url(#p402fe0138a)" d="M 444.449991 247.64 
L 450.366737 247.64 
L 450.366737 179.231837 
L 444.449991 179.231837 
z
" style="fill:#1f77b4;fill-opacity:0.75;stroke:#000000;stroke-linejoin:miter;stroke-width:0.51779;"/>
   </g>
   <g id="patch_59">
    <path clip-path="url(#p402fe0138a)" d="M 450.366737 247.64 
L 456.283483 247.64 
L 456.283483 183.124984 
L 450.366737 183.124984 
z
" style="fill:#1f77b4;fill-opacity:0.75;stroke:#000000;stroke-linejoin:miter;stroke-width:0.51779;"/>
   </g>
   <g id="patch_60">
    <path clip-path="url(#p402fe0138a)" d="M 456.283483 247.64 
L 462.200229 247.64 
L 462.200229 189.242787 
L 456.283483 189.242787 
z
" style="fill:#1f77b4;fill-opacity:0.75;stroke:#000000;stroke-linejoin:miter;stroke-width:0.51779;"/>
   </g>
   <g id="patch_61">
    <path clip-path="url(#p402fe0138a)" d="M 462.200229 247.64 
L 468.116975 247.64 
L 468.116975 200.366066 
L 462.200229 200.366066 
z
" style="fill:#1f77b4;fill-opacity:0.75;stroke:#000000;stroke-linejoin:miter;stroke-width:0.51779;"/>
   </g>
   <g id="patch_62">
    <path clip-path="url(#p402fe0138a)" d="M 468.116975 247.64 
L 474.033721 247.64 
L 474.033721 208.708525 
L 468.116975 208.708525 
z
" style="fill:#1f77b4;fill-opacity:0.75;stroke:#000000;stroke-linejoin:miter;stroke-width:0.51779;"/>
   </g>
   <g id="patch_63">
    <path clip-path="url(#p402fe0138a)" d="M 474.033721 247.64 
L 479.950467 247.64 
L 479.950467 223.724951 
L 474.033721 223.724951 
z
" style="fill:#1f77b4;fill-opacity:0.75;stroke:#000000;stroke-linejoin:miter;stroke-width:0.51779;"/>
   </g>
   <g id="patch_64">
    <path clip-path="url(#p402fe0138a)" d="M 479.950467 247.64 
L 485.867214 247.64 
L 485.867214 225.949607 
L 479.950467 225.949607 
z
" style="fill:#1f77b4;fill-opacity:0.75;stroke:#000000;stroke-linejoin:miter;stroke-width:0.51779;"/>
   </g>
   <g id="patch_65">
    <path clip-path="url(#p402fe0138a)" d="M 485.867214 247.64 
L 491.78396 247.64 
L 491.78396 226.505771 
L 485.867214 226.505771 
z
" style="fill:#1f77b4;fill-opacity:0.75;stroke:#000000;stroke-linejoin:miter;stroke-width:0.51779;"/>
   </g>
   <g id="patch_66">
    <path clip-path="url(#p402fe0138a)" d="M 491.78396 247.64 
L 497.700706 247.64 
L 497.700706 230.398918 
L 491.78396 230.398918 
z
" style="fill:#1f77b4;fill-opacity:0.75;stroke:#000000;stroke-linejoin:miter;stroke-width:0.51779;"/>
   </g>
   <g id="patch_67">
    <path clip-path="url(#p402fe0138a)" d="M 497.700706 247.64 
L 503.617452 247.64 
L 503.617452 234.292066 
L 497.700706 234.292066 
z
" style="fill:#1f77b4;fill-opacity:0.75;stroke:#000000;stroke-linejoin:miter;stroke-width:0.51779;"/>
   </g>
   <g id="patch_68">
    <path clip-path="url(#p402fe0138a)" d="M 503.617452 247.64 
L 509.534198 247.64 
L 509.534198 239.297541 
L 503.617452 239.297541 
z
" style="fill:#1f77b4;fill-opacity:0.75;stroke:#000000;stroke-linejoin:miter;stroke-width:0.51779;"/>
   </g>
   <g id="patch_69">
    <path clip-path="url(#p402fe0138a)" d="M 509.534198 247.64 
L 515.450944 247.64 
L 515.450944 238.741377 
L 509.534198 238.741377 
z
" style="fill:#1f77b4;fill-opacity:0.75;stroke:#000000;stroke-linejoin:miter;stroke-width:0.51779;"/>
   </g>
   <g id="patch_70">
    <path clip-path="url(#p402fe0138a)" d="M 515.450944 247.64 
L 521.36769 247.64 
L 521.36769 245.415344 
L 515.450944 245.415344 
z
" style="fill:#1f77b4;fill-opacity:0.75;stroke:#000000;stroke-linejoin:miter;stroke-width:0.51779;"/>
   </g>
   <g id="patch_71">
    <path clip-path="url(#p402fe0138a)" d="M 521.36769 247.64 
L 527.284436 247.64 
L 527.284436 245.971508 
L 521.36769 245.971508 
z
" style="fill:#1f77b4;fill-opacity:0.75;stroke:#000000;stroke-linejoin:miter;stroke-width:0.51779;"/>
   </g>
   <g id="patch_72">
    <path clip-path="url(#p402fe0138a)" d="M 527.284436 247.64 
L 533.201182 247.64 
L 533.201182 244.85918 
L 527.284436 244.85918 
z
" style="fill:#1f77b4;fill-opacity:0.75;stroke:#000000;stroke-linejoin:miter;stroke-width:0.51779;"/>
   </g>
   <g id="patch_73">
    <path clip-path="url(#p402fe0138a)" d="M 533.201182 247.64 
L 539.117928 247.64 
L 539.117928 245.415344 
L 533.201182 245.415344 
z
" style="fill:#1f77b4;fill-opacity:0.75;stroke:#000000;stroke-linejoin:miter;stroke-width:0.51779;"/>
   </g>
   <g id="patch_74">
    <path clip-path="url(#p402fe0138a)" d="M 539.117928 247.64 
L 545.034674 247.64 
L 545.034674 247.083836 
L 539.117928 247.083836 
z
" style="fill:#1f77b4;fill-opacity:0.75;stroke:#000000;stroke-linejoin:miter;stroke-width:0.51779;"/>
   </g>
   <g id="patch_75">
    <path clip-path="url(#p402fe0138a)" d="M 545.034674 247.64 
L 550.95142 247.64 
L 550.95142 247.083836 
L 545.034674 247.083836 
z
" style="fill:#1f77b4;fill-opacity:0.75;stroke:#000000;stroke-linejoin:miter;stroke-width:0.51779;"/>
   </g>
   <g id="matplotlib.axis_3">
    <g id="xtick_5">
     <g id="line2d_12">
      <g>
       <use style="stroke:#000000;stroke-width:0.8;" x="359.663751" xlink:href="#macbca92c29" y="247.64"/>
      </g>
     </g>
     <g id="text_14">
      <!-- 0 -->
      <g transform="translate(356.482501 262.238437)scale(0.1 -0.1)">
       <use xlink:href="#DejaVuSans-30"/>
      </g>
     </g>
    </g>
    <g id="xtick_6">
     <g id="line2d_13">
      <g>
       <use style="stroke:#000000;stroke-width:0.8;" x="422.33196" xlink:href="#macbca92c29" y="247.64"/>
      </g>
     </g>
     <g id="text_15">
      <!-- 5 -->
      <g transform="translate(419.15071 262.238437)scale(0.1 -0.1)">
       <use xlink:href="#DejaVuSans-35"/>
      </g>
     </g>
    </g>
    <g id="xtick_7">
     <g id="line2d_14">
      <g>
       <use style="stroke:#000000;stroke-width:0.8;" x="485.00017" xlink:href="#macbca92c29" y="247.64"/>
      </g>
     </g>
     <g id="text_16">
      <!-- 10 -->
      <g transform="translate(478.63767 262.238437)scale(0.1 -0.1)">
       <use xlink:href="#DejaVuSans-31"/>
       <use x="63.623047" xlink:href="#DejaVuSans-30"/>
      </g>
     </g>
    </g>
    <g id="xtick_8">
     <g id="line2d_15">
      <g>
       <use style="stroke:#000000;stroke-width:0.8;" x="547.668379" xlink:href="#macbca92c29" y="247.64"/>
      </g>
     </g>
     <g id="text_17">
      <!-- 15 -->
      <g transform="translate(541.305879 262.238437)scale(0.1 -0.1)">
       <use xlink:href="#DejaVuSans-31"/>
       <use x="63.623047" xlink:href="#DejaVuSans-35"/>
      </g>
     </g>
    </g>
    <g id="text_18">
     <!-- blankratio -->
     <g transform="translate(420.339844 275.916562)scale(0.1 -0.1)">
      <use xlink:href="#DejaVuSans-62"/>
      <use x="63.476562" xlink:href="#DejaVuSans-6c"/>
      <use x="91.259766" xlink:href="#DejaVuSans-61"/>
      <use x="152.539062" xlink:href="#DejaVuSans-6e"/>
      <use x="215.917969" xlink:href="#DejaVuSans-6b"/>
      <use x="273.828125" xlink:href="#DejaVuSans-72"/>
      <use x="314.941406" xlink:href="#DejaVuSans-61"/>
      <use x="376.220703" xlink:href="#DejaVuSans-74"/>
      <use x="415.429688" xlink:href="#DejaVuSans-69"/>
      <use x="443.212891" xlink:href="#DejaVuSans-6f"/>
     </g>
    </g>
   </g>
   <g id="matplotlib.axis_4">
    <g id="ytick_7">
     <g id="line2d_16">
      <g>
       <use style="stroke:#000000;stroke-width:0.8;" x="329.628125" xlink:href="#mb8d3b3c9e5" y="247.64"/>
      </g>
     </g>
     <g id="text_19">
      <!-- 0 -->
      <g transform="translate(316.265625 251.439219)scale(0.1 -0.1)">
       <use xlink:href="#DejaVuSans-30"/>
      </g>
     </g>
    </g>
    <g id="ytick_8">
     <g id="line2d_17">
      <g>
       <use style="stroke:#000000;stroke-width:0.8;" x="329.628125" xlink:href="#mb8d3b3c9e5" y="219.831804"/>
      </g>
     </g>
     <g id="text_20">
      <!-- 50 -->
      <g transform="translate(309.903125 223.631022)scale(0.1 -0.1)">
       <use xlink:href="#DejaVuSans-35"/>
       <use x="63.623047" xlink:href="#DejaVuSans-30"/>
      </g>
     </g>
    </g>
    <g id="ytick_9">
     <g id="line2d_18">
      <g>
       <use style="stroke:#000000;stroke-width:0.8;" x="329.628125" xlink:href="#mb8d3b3c9e5" y="192.023607"/>
      </g>
     </g>
     <g id="text_21">
      <!-- 100 -->
      <g transform="translate(303.540625 195.822826)scale(0.1 -0.1)">
       <use xlink:href="#DejaVuSans-31"/>
       <use x="63.623047" xlink:href="#DejaVuSans-30"/>
       <use x="127.246094" xlink:href="#DejaVuSans-30"/>
      </g>
     </g>
    </g>
    <g id="ytick_10">
     <g id="line2d_19">
      <g>
       <use style="stroke:#000000;stroke-width:0.8;" x="329.628125" xlink:href="#mb8d3b3c9e5" y="164.215411"/>
      </g>
     </g>
     <g id="text_22">
      <!-- 150 -->
      <g transform="translate(303.540625 168.014629)scale(0.1 -0.1)">
       <use xlink:href="#DejaVuSans-31"/>
       <use x="63.623047" xlink:href="#DejaVuSans-35"/>
       <use x="127.246094" xlink:href="#DejaVuSans-30"/>
      </g>
     </g>
    </g>
    <g id="ytick_11">
     <g id="line2d_20">
      <g>
       <use style="stroke:#000000;stroke-width:0.8;" x="329.628125" xlink:href="#mb8d3b3c9e5" y="136.407214"/>
      </g>
     </g>
     <g id="text_23">
      <!-- 200 -->
      <g transform="translate(303.540625 140.206433)scale(0.1 -0.1)">
       <use xlink:href="#DejaVuSans-32"/>
       <use x="63.623047" xlink:href="#DejaVuSans-30"/>
       <use x="127.246094" xlink:href="#DejaVuSans-30"/>
      </g>
     </g>
    </g>
    <g id="ytick_12">
     <g id="line2d_21">
      <g>
       <use style="stroke:#000000;stroke-width:0.8;" x="329.628125" xlink:href="#mb8d3b3c9e5" y="108.599018"/>
      </g>
     </g>
     <g id="text_24">
      <!-- 250 -->
      <g transform="translate(303.540625 112.398237)scale(0.1 -0.1)">
       <use xlink:href="#DejaVuSans-32"/>
       <use x="63.623047" xlink:href="#DejaVuSans-35"/>
       <use x="127.246094" xlink:href="#DejaVuSans-30"/>
      </g>
     </g>
    </g>
    <g id="ytick_13">
     <g id="line2d_22">
      <g>
       <use style="stroke:#000000;stroke-width:0.8;" x="329.628125" xlink:href="#mb8d3b3c9e5" y="80.790821"/>
      </g>
     </g>
     <g id="text_25">
      <!-- 300 -->
      <g transform="translate(303.540625 84.59004)scale(0.1 -0.1)">
       <use xlink:href="#DejaVuSans-33"/>
       <use x="63.623047" xlink:href="#DejaVuSans-30"/>
       <use x="127.246094" xlink:href="#DejaVuSans-30"/>
      </g>
     </g>
    </g>
    <g id="text_26">
     <!-- Count -->
     <g transform="translate(297.460938 178.688437)rotate(-90)scale(0.1 -0.1)">
      <use xlink:href="#DejaVuSans-43"/>
      <use x="69.824219" xlink:href="#DejaVuSans-6f"/>
      <use x="131.005859" xlink:href="#DejaVuSans-75"/>
      <use x="194.384766" xlink:href="#DejaVuSans-6e"/>
      <use x="257.763672" xlink:href="#DejaVuSans-74"/>
     </g>
    </g>
   </g>
   <g id="line2d_23">
    <path clip-path="url(#p402fe0138a)" d="M 397.264676 247.64 
L 397.264676 80.04 
" style="fill:none;stroke:#ff8c00;stroke-linecap:square;stroke-width:1.5;"/>
   </g>
   <g id="patch_76">
    <path d="M 329.628125 247.64 
L 329.628125 80.04 
" style="fill:none;stroke:#000000;stroke-linecap:square;stroke-linejoin:miter;stroke-width:0.8;"/>
   </g>
   <g id="patch_77">
    <path d="M 329.628125 247.64 
L 561.490625 247.64 
" style="fill:none;stroke:#000000;stroke-linecap:square;stroke-linejoin:miter;stroke-width:0.8;"/>
   </g>
   <g id="text_27">
    <!-- CD 3.3 -->
    <g transform="translate(425.300937 74.04)scale(0.12 -0.12)">
     <use xlink:href="#DejaVuSans-43"/>
     <use x="69.824219" xlink:href="#DejaVuSans-44"/>
     <use x="146.826172" xlink:href="#DejaVuSans-20"/>
     <use x="178.613281" xlink:href="#DejaVuSans-33"/>
     <use x="242.236328" xlink:href="#DejaVuSans-2e"/>
     <use x="274.023438" xlink:href="#DejaVuSans-33"/>
    </g>
   </g>
  </g>
  <g id="text_28">
   <!-- Ratio of average feature quant : blank -->
   <g transform="translate(93.051563 22.396875)scale(0.2 -0.2)">
    <defs>
     <path d="M 2841 2188 
Q 3044 2119 3236 1894 
Q 3428 1669 3622 1275 
L 4263 0 
L 3584 0 
L 2988 1197 
Q 2756 1666 2539 1819 
Q 2322 1972 1947 1972 
L 1259 1972 
L 1259 0 
L 628 0 
L 628 4666 
L 2053 4666 
Q 2853 4666 3247 4331 
Q 3641 3997 3641 3322 
Q 3641 2881 3436 2590 
Q 3231 2300 2841 2188 
z
M 1259 4147 
L 1259 2491 
L 2053 2491 
Q 2509 2491 2742 2702 
Q 2975 2913 2975 3322 
Q 2975 3731 2742 3939 
Q 2509 4147 2053 4147 
L 1259 4147 
z
" id="DejaVuSans-52" transform="scale(0.015625)"/>
     <path d="M 2375 4863 
L 2375 4384 
L 1825 4384 
Q 1516 4384 1395 4259 
Q 1275 4134 1275 3809 
L 1275 3500 
L 2222 3500 
L 2222 3053 
L 1275 3053 
L 1275 0 
L 697 0 
L 697 3053 
L 147 3053 
L 147 3500 
L 697 3500 
L 697 3744 
Q 697 4328 969 4595 
Q 1241 4863 1831 4863 
L 2375 4863 
z
" id="DejaVuSans-66" transform="scale(0.015625)"/>
     <path d="M 191 3500 
L 800 3500 
L 1894 563 
L 2988 3500 
L 3597 3500 
L 2284 0 
L 1503 0 
L 191 3500 
z
" id="DejaVuSans-76" transform="scale(0.015625)"/>
     <path d="M 3597 1894 
L 3597 1613 
L 953 1613 
Q 991 1019 1311 708 
Q 1631 397 2203 397 
Q 2534 397 2845 478 
Q 3156 559 3463 722 
L 3463 178 
Q 3153 47 2828 -22 
Q 2503 -91 2169 -91 
Q 1331 -91 842 396 
Q 353 884 353 1716 
Q 353 2575 817 3079 
Q 1281 3584 2069 3584 
Q 2775 3584 3186 3129 
Q 3597 2675 3597 1894 
z
M 3022 2063 
Q 3016 2534 2758 2815 
Q 2500 3097 2075 3097 
Q 1594 3097 1305 2825 
Q 1016 2553 972 2059 
L 3022 2063 
z
" id="DejaVuSans-65" transform="scale(0.015625)"/>
     <path d="M 2906 1791 
Q 2906 2416 2648 2759 
Q 2391 3103 1925 3103 
Q 1463 3103 1205 2759 
Q 947 2416 947 1791 
Q 947 1169 1205 825 
Q 1463 481 1925 481 
Q 2391 481 2648 825 
Q 2906 1169 2906 1791 
z
M 3481 434 
Q 3481 -459 3084 -895 
Q 2688 -1331 1869 -1331 
Q 1566 -1331 1297 -1286 
Q 1028 -1241 775 -1147 
L 775 -588 
Q 1028 -725 1275 -790 
Q 1522 -856 1778 -856 
Q 2344 -856 2625 -561 
Q 2906 -266 2906 331 
L 2906 616 
Q 2728 306 2450 153 
Q 2172 0 1784 0 
Q 1141 0 747 490 
Q 353 981 353 1791 
Q 353 2603 747 3093 
Q 1141 3584 1784 3584 
Q 2172 3584 2450 3431 
Q 2728 3278 2906 2969 
L 2906 3500 
L 3481 3500 
L 3481 434 
z
" id="DejaVuSans-67" transform="scale(0.015625)"/>
     <path d="M 947 1747 
Q 947 1113 1208 752 
Q 1469 391 1925 391 
Q 2381 391 2643 752 
Q 2906 1113 2906 1747 
Q 2906 2381 2643 2742 
Q 2381 3103 1925 3103 
Q 1469 3103 1208 2742 
Q 947 2381 947 1747 
z
M 2906 525 
Q 2725 213 2448 61 
Q 2172 -91 1784 -91 
Q 1150 -91 751 415 
Q 353 922 353 1747 
Q 353 2572 751 3078 
Q 1150 3584 1784 3584 
Q 2172 3584 2448 3432 
Q 2725 3281 2906 2969 
L 2906 3500 
L 3481 3500 
L 3481 -1331 
L 2906 -1331 
L 2906 525 
z
" id="DejaVuSans-71" transform="scale(0.015625)"/>
     <path d="M 750 794 
L 1409 794 
L 1409 0 
L 750 0 
L 750 794 
z
M 750 3309 
L 1409 3309 
L 1409 2516 
L 750 2516 
L 750 3309 
z
" id="DejaVuSans-3a" transform="scale(0.015625)"/>
    </defs>
    <use xlink:href="#DejaVuSans-52"/>
    <use x="67.232422" xlink:href="#DejaVuSans-61"/>
    <use x="128.511719" xlink:href="#DejaVuSans-74"/>
    <use x="167.720703" xlink:href="#DejaVuSans-69"/>
    <use x="195.503906" xlink:href="#DejaVuSans-6f"/>
    <use x="256.685547" xlink:href="#DejaVuSans-20"/>
    <use x="288.472656" xlink:href="#DejaVuSans-6f"/>
    <use x="349.654297" xlink:href="#DejaVuSans-66"/>
    <use x="384.859375" xlink:href="#DejaVuSans-20"/>
    <use x="416.646484" xlink:href="#DejaVuSans-61"/>
    <use x="477.925781" xlink:href="#DejaVuSans-76"/>
    <use x="537.105469" xlink:href="#DejaVuSans-65"/>
    <use x="598.628906" xlink:href="#DejaVuSans-72"/>
    <use x="639.742188" xlink:href="#DejaVuSans-61"/>
    <use x="701.021484" xlink:href="#DejaVuSans-67"/>
    <use x="764.498047" xlink:href="#DejaVuSans-65"/>
    <use x="826.021484" xlink:href="#DejaVuSans-20"/>
    <use x="857.808594" xlink:href="#DejaVuSans-66"/>
    <use x="893.013672" xlink:href="#DejaVuSans-65"/>
    <use x="954.537109" xlink:href="#DejaVuSans-61"/>
    <use x="1015.816406" xlink:href="#DejaVuSans-74"/>
    <use x="1055.025391" xlink:href="#DejaVuSans-75"/>
    <use x="1118.404297" xlink:href="#DejaVuSans-72"/>
    <use x="1157.267578" xlink:href="#DejaVuSans-65"/>
    <use x="1218.791016" xlink:href="#DejaVuSans-20"/>
    <use x="1250.578125" xlink:href="#DejaVuSans-71"/>
    <use x="1314.054688" xlink:href="#DejaVuSans-75"/>
    <use x="1377.433594" xlink:href="#DejaVuSans-61"/>
    <use x="1438.712891" xlink:href="#DejaVuSans-6e"/>
    <use x="1502.091797" xlink:href="#DejaVuSans-74"/>
    <use x="1541.300781" xlink:href="#DejaVuSans-20"/>
    <use x="1573.087891" xlink:href="#DejaVuSans-3a"/>
    <use x="1606.779297" xlink:href="#DejaVuSans-20"/>
    <use x="1638.566406" xlink:href="#DejaVuSans-62"/>
    <use x="1702.042969" xlink:href="#DejaVuSans-6c"/>
    <use x="1729.826172" xlink:href="#DejaVuSans-61"/>
    <use x="1791.105469" xlink:href="#DejaVuSans-6e"/>
    <use x="1854.484375" xlink:href="#DejaVuSans-6b"/>
   </g>
   <!-- Line = 3x cut-off -->
   <g transform="translate(200.54375 44.7925)scale(0.2 -0.2)">
    <defs>
     <path d="M 628 4666 
L 1259 4666 
L 1259 531 
L 3531 531 
L 3531 0 
L 628 0 
L 628 4666 
z
" id="DejaVuSans-4c" transform="scale(0.015625)"/>
     <path d="M 678 2906 
L 4684 2906 
L 4684 2381 
L 678 2381 
L 678 2906 
z
M 678 1631 
L 4684 1631 
L 4684 1100 
L 678 1100 
L 678 1631 
z
" id="DejaVuSans-3d" transform="scale(0.015625)"/>
     <path d="M 3513 3500 
L 2247 1797 
L 3578 0 
L 2900 0 
L 1881 1375 
L 863 0 
L 184 0 
L 1544 1831 
L 300 3500 
L 978 3500 
L 1906 2253 
L 2834 3500 
L 3513 3500 
z
" id="DejaVuSans-78" transform="scale(0.015625)"/>
     <path d="M 3122 3366 
L 3122 2828 
Q 2878 2963 2633 3030 
Q 2388 3097 2138 3097 
Q 1578 3097 1268 2742 
Q 959 2388 959 1747 
Q 959 1106 1268 751 
Q 1578 397 2138 397 
Q 2388 397 2633 464 
Q 2878 531 3122 666 
L 3122 134 
Q 2881 22 2623 -34 
Q 2366 -91 2075 -91 
Q 1284 -91 818 406 
Q 353 903 353 1747 
Q 353 2603 823 3093 
Q 1294 3584 2113 3584 
Q 2378 3584 2631 3529 
Q 2884 3475 3122 3366 
z
" id="DejaVuSans-63" transform="scale(0.015625)"/>
     <path d="M 313 2009 
L 1997 2009 
L 1997 1497 
L 313 1497 
L 313 2009 
z
" id="DejaVuSans-2d" transform="scale(0.015625)"/>
    </defs>
    <use xlink:href="#DejaVuSans-4c"/>
    <use x="55.712891" xlink:href="#DejaVuSans-69"/>
    <use x="83.496094" xlink:href="#DejaVuSans-6e"/>
    <use x="146.875" xlink:href="#DejaVuSans-65"/>
    <use x="208.398438" xlink:href="#DejaVuSans-20"/>
    <use x="240.185547" xlink:href="#DejaVuSans-3d"/>
    <use x="323.974609" xlink:href="#DejaVuSans-20"/>
    <use x="355.761719" xlink:href="#DejaVuSans-33"/>
    <use x="419.384766" xlink:href="#DejaVuSans-78"/>
    <use x="478.564453" xlink:href="#DejaVuSans-20"/>
    <use x="510.351562" xlink:href="#DejaVuSans-63"/>
    <use x="565.332031" xlink:href="#DejaVuSans-75"/>
    <use x="628.710938" xlink:href="#DejaVuSans-74"/>
    <use x="667.919922" xlink:href="#DejaVuSans-2d"/>
    <use x="705.878906" xlink:href="#DejaVuSans-6f"/>
    <use x="767.060547" xlink:href="#DejaVuSans-66"/>
    <use x="802.265625" xlink:href="#DejaVuSans-66"/>
   </g>
  </g>
 </g>
 <defs>
  <clipPath id="pcc17877dac">
   <rect height="167.6" width="231.8625" x="46.965625" y="80.04"/>
  </clipPath>
  <clipPath id="p402fe0138a">
   <rect height="167.6" width="231.8625" x="329.628125" y="80.04"/>
  </clipPath>
 </defs>
</svg>
