<?xml version="1.0" encoding="utf-8" standalone="no"?>
<!DOCTYPE svg PUBLIC "-//W3C//DTD SVG 1.1//EN"
  "http://www.w3.org/Graphics/SVG/1.1/DTD/svg11.dtd">
<svg height="279.553906pt" version="1.1" viewBox="0 0 424.690625 279.553906" width="424.690625pt" xmlns="http://www.w3.org/2000/svg" xmlns:xlink="http://www.w3.org/1999/xlink">
 <metadata>
  <rdf:RDF xmlns:cc="http://creativecommons.org/ns#" xmlns:dc="http://purl.org/dc/elements/1.1/" xmlns:rdf="http://www.w3.org/1999/02/22-rdf-syntax-ns#">
   <cc:Work>
    <dc:type rdf:resource="http://purl.org/dc/dcmitype/StillImage"/>
    <dc:date>2022-03-18T14:24:42.785002</dc:date>
    <dc:format>image/svg+xml</dc:format>
    <dc:creator>
     <cc:Agent>
      <dc:title>Matplotlib v3.4.2, https://matplotlib.org/</dc:title>
     </cc:Agent>
    </dc:creator>
   </cc:Work>
  </rdf:RDF>
 </metadata>
 <defs>
  <style type="text/css">*{stroke-linecap:butt;stroke-linejoin:round;}</style>
 </defs>
 <g id="figure_1">
  <g id="patch_1">
   <path d="M -0 279.553906 
L 424.690625 279.553906 
L 424.690625 0 
L -0 0 
z
" style="fill:none;"/>
  </g>
  <g id="axes_1">
   <g id="patch_2">
    <path d="M 46.965625 241.997656 
L 417.490625 241.997656 
L 417.490625 24.597656 
L 46.965625 24.597656 
z
" style="fill:#ffffff;"/>
   </g>
   <g id="patch_3">
    <path clip-path="url(#p036150614d)" d="M 63.80767 241.997656 
L 76.28326 241.997656 
L 76.28326 239.180682 
L 63.80767 239.180682 
z
" style="fill:#ff8c00;fill-opacity:0.8;stroke:#000000;stroke-linejoin:miter;"/>
   </g>
   <g id="patch_4">
    <path clip-path="url(#p036150614d)" d="M 76.28326 241.997656 
L 88.758849 241.997656 
L 88.758849 237.772195 
L 76.28326 237.772195 
z
" style="fill:#ff8c00;fill-opacity:0.8;stroke:#000000;stroke-linejoin:miter;"/>
   </g>
   <g id="patch_5">
    <path clip-path="url(#p036150614d)" d="M 88.758849 241.997656 
L 101.234438 241.997656 
L 101.234438 234.95522 
L 88.758849 234.95522 
z
" style="fill:#ff8c00;fill-opacity:0.8;stroke:#000000;stroke-linejoin:miter;"/>
   </g>
   <g id="patch_6">
    <path clip-path="url(#p036150614d)" d="M 101.234438 241.997656 
L 113.710027 241.997656 
L 113.710027 218.053374 
L 101.234438 218.053374 
z
" style="fill:#ff8c00;fill-opacity:0.8;stroke:#000000;stroke-linejoin:miter;"/>
   </g>
   <g id="patch_7">
    <path clip-path="url(#p036150614d)" d="M 113.710027 241.997656 
L 126.185617 241.997656 
L 126.185617 193.639596 
L 113.710027 193.639596 
z
" style="fill:#ff8c00;fill-opacity:0.8;stroke:#000000;stroke-linejoin:miter;"/>
   </g>
   <g id="patch_8">
    <path clip-path="url(#p036150614d)" d="M 126.185617 241.997656 
L 138.661206 241.997656 
L 138.661206 152.793467 
L 126.185617 152.793467 
z
" style="fill:#ff8c00;fill-opacity:0.8;stroke:#000000;stroke-linejoin:miter;"/>
   </g>
   <g id="patch_9">
    <path clip-path="url(#p036150614d)" d="M 138.661206 241.997656 
L 151.136795 241.997656 
L 151.136795 97.39297 
L 138.661206 97.39297 
z
" style="fill:#ff8c00;fill-opacity:0.8;stroke:#000000;stroke-linejoin:miter;"/>
   </g>
   <g id="patch_10">
    <path clip-path="url(#p036150614d)" d="M 151.136795 241.997656 
L 163.612384 241.997656 
L 163.612384 58.424824 
L 151.136795 58.424824 
z
" style="fill:#ff8c00;fill-opacity:0.8;stroke:#000000;stroke-linejoin:miter;"/>
   </g>
   <g id="patch_11">
    <path clip-path="url(#p036150614d)" d="M 163.612384 241.997656 
L 176.087973 241.997656 
L 176.087973 34.950037 
L 163.612384 34.950037 
z
" style="fill:#ff8c00;fill-opacity:0.8;stroke:#000000;stroke-linejoin:miter;"/>
   </g>
   <g id="patch_12">
    <path clip-path="url(#p036150614d)" d="M 176.087973 241.997656 
L 188.563563 241.997656 
L 188.563563 37.297516 
L 176.087973 37.297516 
z
" style="fill:#ff8c00;fill-opacity:0.8;stroke:#000000;stroke-linejoin:miter;"/>
   </g>
   <g id="patch_13">
    <path clip-path="url(#p036150614d)" d="M 188.563563 241.997656 
L 201.039152 241.997656 
L 201.039152 53.729867 
L 188.563563 53.729867 
z
" style="fill:#ff8c00;fill-opacity:0.8;stroke:#000000;stroke-linejoin:miter;"/>
   </g>
   <g id="patch_14">
    <path clip-path="url(#p036150614d)" d="M 201.039152 241.997656 
L 213.514741 241.997656 
L 213.514741 82.838602 
L 201.039152 82.838602 
z
" style="fill:#ff8c00;fill-opacity:0.8;stroke:#000000;stroke-linejoin:miter;"/>
   </g>
   <g id="patch_15">
    <path clip-path="url(#p036150614d)" d="M 213.514741 241.997656 
L 225.99033 241.997656 
L 225.99033 126.501705 
L 213.514741 126.501705 
z
" style="fill:#ff8c00;fill-opacity:0.8;stroke:#000000;stroke-linejoin:miter;"/>
   </g>
   <g id="patch_16">
    <path clip-path="url(#p036150614d)" d="M 225.99033 241.997656 
L 238.46592 241.997656 
L 238.46592 146.690022 
L 225.99033 146.690022 
z
" style="fill:#ff8c00;fill-opacity:0.8;stroke:#000000;stroke-linejoin:miter;"/>
   </g>
   <g id="patch_17">
    <path clip-path="url(#p036150614d)" d="M 238.46592 241.997656 
L 250.941509 241.997656 
L 250.941509 181.432706 
L 238.46592 181.432706 
z
" style="fill:#ff8c00;fill-opacity:0.8;stroke:#000000;stroke-linejoin:miter;"/>
   </g>
   <g id="patch_18">
    <path clip-path="url(#p036150614d)" d="M 250.941509 241.997656 
L 263.417098 241.997656 
L 263.417098 195.517579 
L 250.941509 195.517579 
z
" style="fill:#ff8c00;fill-opacity:0.8;stroke:#000000;stroke-linejoin:miter;"/>
   </g>
   <g id="patch_19">
    <path clip-path="url(#p036150614d)" d="M 263.417098 241.997656 
L 275.892687 241.997656 
L 275.892687 213.827912 
L 263.417098 213.827912 
z
" style="fill:#ff8c00;fill-opacity:0.8;stroke:#000000;stroke-linejoin:miter;"/>
   </g>
   <g id="patch_20">
    <path clip-path="url(#p036150614d)" d="M 275.892687 241.997656 
L 288.368277 241.997656 
L 288.368277 220.400852 
L 275.892687 220.400852 
z
" style="fill:#ff8c00;fill-opacity:0.8;stroke:#000000;stroke-linejoin:miter;"/>
   </g>
   <g id="patch_21">
    <path clip-path="url(#p036150614d)" d="M 288.368277 241.997656 
L 300.843866 241.997656 
L 300.843866 226.034801 
L 288.368277 226.034801 
z
" style="fill:#ff8c00;fill-opacity:0.8;stroke:#000000;stroke-linejoin:miter;"/>
   </g>
   <g id="patch_22">
    <path clip-path="url(#p036150614d)" d="M 300.843866 241.997656 
L 313.319455 241.997656 
L 313.319455 234.485724 
L 300.843866 234.485724 
z
" style="fill:#ff8c00;fill-opacity:0.8;stroke:#000000;stroke-linejoin:miter;"/>
   </g>
   <g id="patch_23">
    <path clip-path="url(#p036150614d)" d="M 313.319455 241.997656 
L 325.795044 241.997656 
L 325.795044 235.894212 
L 313.319455 235.894212 
z
" style="fill:#ff8c00;fill-opacity:0.8;stroke:#000000;stroke-linejoin:miter;"/>
   </g>
   <g id="patch_24">
    <path clip-path="url(#p036150614d)" d="M 325.795044 241.997656 
L 338.270633 241.997656 
L 338.270633 237.302699 
L 325.795044 237.302699 
z
" style="fill:#ff8c00;fill-opacity:0.8;stroke:#000000;stroke-linejoin:miter;"/>
   </g>
   <g id="patch_25">
    <path clip-path="url(#p036150614d)" d="M 338.270633 241.997656 
L 350.746223 241.997656 
L 350.746223 241.058665 
L 338.270633 241.058665 
z
" style="fill:#ff8c00;fill-opacity:0.8;stroke:#000000;stroke-linejoin:miter;"/>
   </g>
   <g id="patch_26">
    <path clip-path="url(#p036150614d)" d="M 350.746223 241.997656 
L 363.221812 241.997656 
L 363.221812 241.528161 
L 350.746223 241.528161 
z
" style="fill:#ff8c00;fill-opacity:0.8;stroke:#000000;stroke-linejoin:miter;"/>
   </g>
   <g id="patch_27">
    <path clip-path="url(#p036150614d)" d="M 363.221812 241.997656 
L 375.697401 241.997656 
L 375.697401 240.589169 
L 363.221812 240.589169 
z
" style="fill:#ff8c00;fill-opacity:0.8;stroke:#000000;stroke-linejoin:miter;"/>
   </g>
   <g id="patch_28">
    <path clip-path="url(#p036150614d)" d="M 375.697401 241.997656 
L 388.17299 241.997656 
L 388.17299 241.997656 
L 375.697401 241.997656 
z
" style="fill:#ff8c00;fill-opacity:0.8;stroke:#000000;stroke-linejoin:miter;"/>
   </g>
   <g id="patch_29">
    <path clip-path="url(#p036150614d)" d="M 388.17299 241.997656 
L 400.64858 241.997656 
L 400.64858 241.997656 
L 388.17299 241.997656 
z
" style="fill:#ff8c00;fill-opacity:0.8;stroke:#000000;stroke-linejoin:miter;"/>
   </g>
   <g id="patch_30">
    <path clip-path="url(#p036150614d)" d="M 63.80767 241.997656 
L 76.28326 241.997656 
L 76.28326 241.997656 
L 63.80767 241.997656 
z
" style="fill:#1f77b4;fill-opacity:0.7;stroke:#000000;stroke-linejoin:miter;"/>
   </g>
   <g id="patch_31">
    <path clip-path="url(#p036150614d)" d="M 76.28326 241.997656 
L 88.758849 241.997656 
L 88.758849 241.997656 
L 76.28326 241.997656 
z
" style="fill:#1f77b4;fill-opacity:0.7;stroke:#000000;stroke-linejoin:miter;"/>
   </g>
   <g id="patch_32">
    <path clip-path="url(#p036150614d)" d="M 88.758849 241.997656 
L 101.234438 241.997656 
L 101.234438 241.058665 
L 88.758849 241.058665 
z
" style="fill:#1f77b4;fill-opacity:0.7;stroke:#000000;stroke-linejoin:miter;"/>
   </g>
   <g id="patch_33">
    <path clip-path="url(#p036150614d)" d="M 101.234438 241.997656 
L 113.710027 241.997656 
L 113.710027 238.24169 
L 101.234438 238.24169 
z
" style="fill:#1f77b4;fill-opacity:0.7;stroke:#000000;stroke-linejoin:miter;"/>
   </g>
   <g id="patch_34">
    <path clip-path="url(#p036150614d)" d="M 113.710027 241.997656 
L 126.185617 241.997656 
L 126.185617 231.66875 
L 113.710027 231.66875 
z
" style="fill:#1f77b4;fill-opacity:0.7;stroke:#000000;stroke-linejoin:miter;"/>
   </g>
   <g id="patch_35">
    <path clip-path="url(#p036150614d)" d="M 126.185617 241.997656 
L 138.661206 241.997656 
L 138.661206 234.016229 
L 126.185617 234.016229 
z
" style="fill:#1f77b4;fill-opacity:0.7;stroke:#000000;stroke-linejoin:miter;"/>
   </g>
   <g id="patch_36">
    <path clip-path="url(#p036150614d)" d="M 138.661206 241.997656 
L 151.136795 241.997656 
L 151.136795 216.644887 
L 138.661206 216.644887 
z
" style="fill:#1f77b4;fill-opacity:0.7;stroke:#000000;stroke-linejoin:miter;"/>
   </g>
   <g id="patch_37">
    <path clip-path="url(#p036150614d)" d="M 151.136795 241.997656 
L 163.612384 241.997656 
L 163.612384 218.053374 
L 151.136795 218.053374 
z
" style="fill:#1f77b4;fill-opacity:0.7;stroke:#000000;stroke-linejoin:miter;"/>
   </g>
   <g id="patch_38">
    <path clip-path="url(#p036150614d)" d="M 163.612384 241.997656 
L 176.087973 241.997656 
L 176.087973 200.682032 
L 163.612384 200.682032 
z
" style="fill:#1f77b4;fill-opacity:0.7;stroke:#000000;stroke-linejoin:miter;"/>
   </g>
   <g id="patch_39">
    <path clip-path="url(#p036150614d)" d="M 176.087973 241.997656 
L 188.563563 241.997656 
L 188.563563 177.207245 
L 176.087973 177.207245 
z
" style="fill:#1f77b4;fill-opacity:0.7;stroke:#000000;stroke-linejoin:miter;"/>
   </g>
   <g id="patch_40">
    <path clip-path="url(#p036150614d)" d="M 188.563563 241.997656 
L 201.039152 241.997656 
L 201.039152 145.751031 
L 188.563563 145.751031 
z
" style="fill:#1f77b4;fill-opacity:0.7;stroke:#000000;stroke-linejoin:miter;"/>
   </g>
   <g id="patch_41">
    <path clip-path="url(#p036150614d)" d="M 201.039152 241.997656 
L 213.514741 241.997656 
L 213.514741 152.323971 
L 201.039152 152.323971 
z
" style="fill:#1f77b4;fill-opacity:0.7;stroke:#000000;stroke-linejoin:miter;"/>
   </g>
   <g id="patch_42">
    <path clip-path="url(#p036150614d)" d="M 213.514741 241.997656 
L 225.99033 241.997656 
L 225.99033 159.366407 
L 213.514741 159.366407 
z
" style="fill:#1f77b4;fill-opacity:0.7;stroke:#000000;stroke-linejoin:miter;"/>
   </g>
   <g id="patch_43">
    <path clip-path="url(#p036150614d)" d="M 225.99033 241.997656 
L 238.46592 241.997656 
L 238.46592 176.737749 
L 225.99033 176.737749 
z
" style="fill:#1f77b4;fill-opacity:0.7;stroke:#000000;stroke-linejoin:miter;"/>
   </g>
   <g id="patch_44">
    <path clip-path="url(#p036150614d)" d="M 238.46592 241.997656 
L 250.941509 241.997656 
L 250.941509 187.066655 
L 238.46592 187.066655 
z
" style="fill:#1f77b4;fill-opacity:0.7;stroke:#000000;stroke-linejoin:miter;"/>
   </g>
   <g id="patch_45">
    <path clip-path="url(#p036150614d)" d="M 250.941509 241.997656 
L 263.417098 241.997656 
L 263.417098 203.968502 
L 250.941509 203.968502 
z
" style="fill:#1f77b4;fill-opacity:0.7;stroke:#000000;stroke-linejoin:miter;"/>
   </g>
   <g id="patch_46">
    <path clip-path="url(#p036150614d)" d="M 263.417098 241.997656 
L 275.892687 241.997656 
L 275.892687 212.419425 
L 263.417098 212.419425 
z
" style="fill:#1f77b4;fill-opacity:0.7;stroke:#000000;stroke-linejoin:miter;"/>
   </g>
   <g id="patch_47">
    <path clip-path="url(#p036150614d)" d="M 275.892687 241.997656 
L 288.368277 241.997656 
L 288.368277 222.278835 
L 275.892687 222.278835 
z
" style="fill:#1f77b4;fill-opacity:0.7;stroke:#000000;stroke-linejoin:miter;"/>
   </g>
   <g id="patch_48">
    <path clip-path="url(#p036150614d)" d="M 288.368277 241.997656 
L 300.843866 241.997656 
L 300.843866 231.66875 
L 288.368277 231.66875 
z
" style="fill:#1f77b4;fill-opacity:0.7;stroke:#000000;stroke-linejoin:miter;"/>
   </g>
   <g id="patch_49">
    <path clip-path="url(#p036150614d)" d="M 300.843866 241.997656 
L 313.319455 241.997656 
L 313.319455 227.912784 
L 300.843866 227.912784 
z
" style="fill:#1f77b4;fill-opacity:0.7;stroke:#000000;stroke-linejoin:miter;"/>
   </g>
   <g id="patch_50">
    <path clip-path="url(#p036150614d)" d="M 313.319455 241.997656 
L 325.795044 241.997656 
L 325.795044 234.016229 
L 313.319455 234.016229 
z
" style="fill:#1f77b4;fill-opacity:0.7;stroke:#000000;stroke-linejoin:miter;"/>
   </g>
   <g id="patch_51">
    <path clip-path="url(#p036150614d)" d="M 325.795044 241.997656 
L 338.270633 241.997656 
L 338.270633 236.833203 
L 325.795044 236.833203 
z
" style="fill:#1f77b4;fill-opacity:0.7;stroke:#000000;stroke-linejoin:miter;"/>
   </g>
   <g id="patch_52">
    <path clip-path="url(#p036150614d)" d="M 338.270633 241.997656 
L 350.746223 241.997656 
L 350.746223 239.180682 
L 338.270633 239.180682 
z
" style="fill:#1f77b4;fill-opacity:0.7;stroke:#000000;stroke-linejoin:miter;"/>
   </g>
   <g id="patch_53">
    <path clip-path="url(#p036150614d)" d="M 350.746223 241.997656 
L 363.221812 241.997656 
L 363.221812 240.119673 
L 350.746223 240.119673 
z
" style="fill:#1f77b4;fill-opacity:0.7;stroke:#000000;stroke-linejoin:miter;"/>
   </g>
   <g id="patch_54">
    <path clip-path="url(#p036150614d)" d="M 363.221812 241.997656 
L 375.697401 241.997656 
L 375.697401 241.528161 
L 363.221812 241.528161 
z
" style="fill:#1f77b4;fill-opacity:0.7;stroke:#000000;stroke-linejoin:miter;"/>
   </g>
   <g id="patch_55">
    <path clip-path="url(#p036150614d)" d="M 375.697401 241.997656 
L 388.17299 241.997656 
L 388.17299 241.058665 
L 375.697401 241.058665 
z
" style="fill:#1f77b4;fill-opacity:0.7;stroke:#000000;stroke-linejoin:miter;"/>
   </g>
   <g id="patch_56">
    <path clip-path="url(#p036150614d)" d="M 388.17299 241.997656 
L 400.64858 241.997656 
L 400.64858 241.997656 
L 388.17299 241.997656 
z
" style="fill:#1f77b4;fill-opacity:0.7;stroke:#000000;stroke-linejoin:miter;"/>
   </g>
   <g id="matplotlib.axis_1">
    <g id="xtick_1">
     <g id="line2d_1">
      <defs>
       <path d="M 0 0 
L 0 3.5 
" id="m8d68939a3f" style="stroke:#000000;stroke-width:0.8;"/>
      </defs>
      <g>
       <use style="stroke:#000000;stroke-width:0.8;" x="72.12473" xlink:href="#m8d68939a3f" y="241.997656"/>
      </g>
     </g>
     <g id="text_1">
      <!-- 12.5 -->
      <g transform="translate(60.991917 256.596094)scale(0.1 -0.1)">
       <defs>
        <path d="M 794 531 
L 1825 531 
L 1825 4091 
L 703 3866 
L 703 4441 
L 1819 4666 
L 2450 4666 
L 2450 531 
L 3481 531 
L 3481 0 
L 794 0 
L 794 531 
z
" id="DejaVuSans-31" transform="scale(0.015625)"/>
        <path d="M 1228 531 
L 3431 531 
L 3431 0 
L 469 0 
L 469 531 
Q 828 903 1448 1529 
Q 2069 2156 2228 2338 
Q 2531 2678 2651 2914 
Q 2772 3150 2772 3378 
Q 2772 3750 2511 3984 
Q 2250 4219 1831 4219 
Q 1534 4219 1204 4116 
Q 875 4013 500 3803 
L 500 4441 
Q 881 4594 1212 4672 
Q 1544 4750 1819 4750 
Q 2544 4750 2975 4387 
Q 3406 4025 3406 3419 
Q 3406 3131 3298 2873 
Q 3191 2616 2906 2266 
Q 2828 2175 2409 1742 
Q 1991 1309 1228 531 
z
" id="DejaVuSans-32" transform="scale(0.015625)"/>
        <path d="M 684 794 
L 1344 794 
L 1344 0 
L 684 0 
L 684 794 
z
" id="DejaVuSans-2e" transform="scale(0.015625)"/>
        <path d="M 691 4666 
L 3169 4666 
L 3169 4134 
L 1269 4134 
L 1269 2991 
Q 1406 3038 1543 3061 
Q 1681 3084 1819 3084 
Q 2600 3084 3056 2656 
Q 3513 2228 3513 1497 
Q 3513 744 3044 326 
Q 2575 -91 1722 -91 
Q 1428 -91 1123 -41 
Q 819 9 494 109 
L 494 744 
Q 775 591 1075 516 
Q 1375 441 1709 441 
Q 2250 441 2565 725 
Q 2881 1009 2881 1497 
Q 2881 1984 2565 2268 
Q 2250 2553 1709 2553 
Q 1456 2553 1204 2497 
Q 953 2441 691 2322 
L 691 4666 
z
" id="DejaVuSans-35" transform="scale(0.015625)"/>
       </defs>
       <use xlink:href="#DejaVuSans-31"/>
       <use x="63.623047" xlink:href="#DejaVuSans-32"/>
       <use x="127.246094" xlink:href="#DejaVuSans-2e"/>
       <use x="159.033203" xlink:href="#DejaVuSans-35"/>
      </g>
     </g>
    </g>
    <g id="xtick_2">
     <g id="line2d_2">
      <g>
       <use style="stroke:#000000;stroke-width:0.8;" x="113.710027" xlink:href="#m8d68939a3f" y="241.997656"/>
      </g>
     </g>
     <g id="text_2">
      <!-- 15.0 -->
      <g transform="translate(102.577215 256.596094)scale(0.1 -0.1)">
       <defs>
        <path d="M 2034 4250 
Q 1547 4250 1301 3770 
Q 1056 3291 1056 2328 
Q 1056 1369 1301 889 
Q 1547 409 2034 409 
Q 2525 409 2770 889 
Q 3016 1369 3016 2328 
Q 3016 3291 2770 3770 
Q 2525 4250 2034 4250 
z
M 2034 4750 
Q 2819 4750 3233 4129 
Q 3647 3509 3647 2328 
Q 3647 1150 3233 529 
Q 2819 -91 2034 -91 
Q 1250 -91 836 529 
Q 422 1150 422 2328 
Q 422 3509 836 4129 
Q 1250 4750 2034 4750 
z
" id="DejaVuSans-30" transform="scale(0.015625)"/>
       </defs>
       <use xlink:href="#DejaVuSans-31"/>
       <use x="63.623047" xlink:href="#DejaVuSans-35"/>
       <use x="127.246094" xlink:href="#DejaVuSans-2e"/>
       <use x="159.033203" xlink:href="#DejaVuSans-30"/>
      </g>
     </g>
    </g>
    <g id="xtick_3">
     <g id="line2d_3">
      <g>
       <use style="stroke:#000000;stroke-width:0.8;" x="155.295325" xlink:href="#m8d68939a3f" y="241.997656"/>
      </g>
     </g>
     <g id="text_3">
      <!-- 17.5 -->
      <g transform="translate(144.162512 256.596094)scale(0.1 -0.1)">
       <defs>
        <path d="M 525 4666 
L 3525 4666 
L 3525 4397 
L 1831 0 
L 1172 0 
L 2766 4134 
L 525 4134 
L 525 4666 
z
" id="DejaVuSans-37" transform="scale(0.015625)"/>
       </defs>
       <use xlink:href="#DejaVuSans-31"/>
       <use x="63.623047" xlink:href="#DejaVuSans-37"/>
       <use x="127.246094" xlink:href="#DejaVuSans-2e"/>
       <use x="159.033203" xlink:href="#DejaVuSans-35"/>
      </g>
     </g>
    </g>
    <g id="xtick_4">
     <g id="line2d_4">
      <g>
       <use style="stroke:#000000;stroke-width:0.8;" x="196.880622" xlink:href="#m8d68939a3f" y="241.997656"/>
      </g>
     </g>
     <g id="text_4">
      <!-- 20.0 -->
      <g transform="translate(185.74781 256.596094)scale(0.1 -0.1)">
       <use xlink:href="#DejaVuSans-32"/>
       <use x="63.623047" xlink:href="#DejaVuSans-30"/>
       <use x="127.246094" xlink:href="#DejaVuSans-2e"/>
       <use x="159.033203" xlink:href="#DejaVuSans-30"/>
      </g>
     </g>
    </g>
    <g id="xtick_5">
     <g id="line2d_5">
      <g>
       <use style="stroke:#000000;stroke-width:0.8;" x="238.46592" xlink:href="#m8d68939a3f" y="241.997656"/>
      </g>
     </g>
     <g id="text_5">
      <!-- 22.5 -->
      <g transform="translate(227.333107 256.596094)scale(0.1 -0.1)">
       <use xlink:href="#DejaVuSans-32"/>
       <use x="63.623047" xlink:href="#DejaVuSans-32"/>
       <use x="127.246094" xlink:href="#DejaVuSans-2e"/>
       <use x="159.033203" xlink:href="#DejaVuSans-35"/>
      </g>
     </g>
    </g>
    <g id="xtick_6">
     <g id="line2d_6">
      <g>
       <use style="stroke:#000000;stroke-width:0.8;" x="280.051217" xlink:href="#m8d68939a3f" y="241.997656"/>
      </g>
     </g>
     <g id="text_6">
      <!-- 25.0 -->
      <g transform="translate(268.918405 256.596094)scale(0.1 -0.1)">
       <use xlink:href="#DejaVuSans-32"/>
       <use x="63.623047" xlink:href="#DejaVuSans-35"/>
       <use x="127.246094" xlink:href="#DejaVuSans-2e"/>
       <use x="159.033203" xlink:href="#DejaVuSans-30"/>
      </g>
     </g>
    </g>
    <g id="xtick_7">
     <g id="line2d_7">
      <g>
       <use style="stroke:#000000;stroke-width:0.8;" x="321.636514" xlink:href="#m8d68939a3f" y="241.997656"/>
      </g>
     </g>
     <g id="text_7">
      <!-- 27.5 -->
      <g transform="translate(310.503702 256.596094)scale(0.1 -0.1)">
       <use xlink:href="#DejaVuSans-32"/>
       <use x="63.623047" xlink:href="#DejaVuSans-37"/>
       <use x="127.246094" xlink:href="#DejaVuSans-2e"/>
       <use x="159.033203" xlink:href="#DejaVuSans-35"/>
      </g>
     </g>
    </g>
    <g id="xtick_8">
     <g id="line2d_8">
      <g>
       <use style="stroke:#000000;stroke-width:0.8;" x="363.221812" xlink:href="#m8d68939a3f" y="241.997656"/>
      </g>
     </g>
     <g id="text_8">
      <!-- 30.0 -->
      <g transform="translate(352.088999 256.596094)scale(0.1 -0.1)">
       <defs>
        <path d="M 2597 2516 
Q 3050 2419 3304 2112 
Q 3559 1806 3559 1356 
Q 3559 666 3084 287 
Q 2609 -91 1734 -91 
Q 1441 -91 1130 -33 
Q 819 25 488 141 
L 488 750 
Q 750 597 1062 519 
Q 1375 441 1716 441 
Q 2309 441 2620 675 
Q 2931 909 2931 1356 
Q 2931 1769 2642 2001 
Q 2353 2234 1838 2234 
L 1294 2234 
L 1294 2753 
L 1863 2753 
Q 2328 2753 2575 2939 
Q 2822 3125 2822 3475 
Q 2822 3834 2567 4026 
Q 2313 4219 1838 4219 
Q 1578 4219 1281 4162 
Q 984 4106 628 3988 
L 628 4550 
Q 988 4650 1302 4700 
Q 1616 4750 1894 4750 
Q 2613 4750 3031 4423 
Q 3450 4097 3450 3541 
Q 3450 3153 3228 2886 
Q 3006 2619 2597 2516 
z
" id="DejaVuSans-33" transform="scale(0.015625)"/>
       </defs>
       <use xlink:href="#DejaVuSans-33"/>
       <use x="63.623047" xlink:href="#DejaVuSans-30"/>
       <use x="127.246094" xlink:href="#DejaVuSans-2e"/>
       <use x="159.033203" xlink:href="#DejaVuSans-30"/>
      </g>
     </g>
    </g>
    <g id="xtick_9">
     <g id="line2d_9">
      <g>
       <use style="stroke:#000000;stroke-width:0.8;" x="404.807109" xlink:href="#m8d68939a3f" y="241.997656"/>
      </g>
     </g>
     <g id="text_9">
      <!-- 32.5 -->
      <g transform="translate(393.674297 256.596094)scale(0.1 -0.1)">
       <use xlink:href="#DejaVuSans-33"/>
       <use x="63.623047" xlink:href="#DejaVuSans-32"/>
       <use x="127.246094" xlink:href="#DejaVuSans-2e"/>
       <use x="159.033203" xlink:href="#DejaVuSans-35"/>
      </g>
     </g>
    </g>
    <g id="text_10">
     <!-- mean -->
     <g transform="translate(218.048438 270.274219)scale(0.1 -0.1)">
      <defs>
       <path d="M 3328 2828 
Q 3544 3216 3844 3400 
Q 4144 3584 4550 3584 
Q 5097 3584 5394 3201 
Q 5691 2819 5691 2113 
L 5691 0 
L 5113 0 
L 5113 2094 
Q 5113 2597 4934 2840 
Q 4756 3084 4391 3084 
Q 3944 3084 3684 2787 
Q 3425 2491 3425 1978 
L 3425 0 
L 2847 0 
L 2847 2094 
Q 2847 2600 2669 2842 
Q 2491 3084 2119 3084 
Q 1678 3084 1418 2786 
Q 1159 2488 1159 1978 
L 1159 0 
L 581 0 
L 581 3500 
L 1159 3500 
L 1159 2956 
Q 1356 3278 1631 3431 
Q 1906 3584 2284 3584 
Q 2666 3584 2933 3390 
Q 3200 3197 3328 2828 
z
" id="DejaVuSans-6d" transform="scale(0.015625)"/>
       <path d="M 3597 1894 
L 3597 1613 
L 953 1613 
Q 991 1019 1311 708 
Q 1631 397 2203 397 
Q 2534 397 2845 478 
Q 3156 559 3463 722 
L 3463 178 
Q 3153 47 2828 -22 
Q 2503 -91 2169 -91 
Q 1331 -91 842 396 
Q 353 884 353 1716 
Q 353 2575 817 3079 
Q 1281 3584 2069 3584 
Q 2775 3584 3186 3129 
Q 3597 2675 3597 1894 
z
M 3022 2063 
Q 3016 2534 2758 2815 
Q 2500 3097 2075 3097 
Q 1594 3097 1305 2825 
Q 1016 2553 972 2059 
L 3022 2063 
z
" id="DejaVuSans-65" transform="scale(0.015625)"/>
       <path d="M 2194 1759 
Q 1497 1759 1228 1600 
Q 959 1441 959 1056 
Q 959 750 1161 570 
Q 1363 391 1709 391 
Q 2188 391 2477 730 
Q 2766 1069 2766 1631 
L 2766 1759 
L 2194 1759 
z
M 3341 1997 
L 3341 0 
L 2766 0 
L 2766 531 
Q 2569 213 2275 61 
Q 1981 -91 1556 -91 
Q 1019 -91 701 211 
Q 384 513 384 1019 
Q 384 1609 779 1909 
Q 1175 2209 1959 2209 
L 2766 2209 
L 2766 2266 
Q 2766 2663 2505 2880 
Q 2244 3097 1772 3097 
Q 1472 3097 1187 3025 
Q 903 2953 641 2809 
L 641 3341 
Q 956 3463 1253 3523 
Q 1550 3584 1831 3584 
Q 2591 3584 2966 3190 
Q 3341 2797 3341 1997 
z
" id="DejaVuSans-61" transform="scale(0.015625)"/>
       <path d="M 3513 2113 
L 3513 0 
L 2938 0 
L 2938 2094 
Q 2938 2591 2744 2837 
Q 2550 3084 2163 3084 
Q 1697 3084 1428 2787 
Q 1159 2491 1159 1978 
L 1159 0 
L 581 0 
L 581 3500 
L 1159 3500 
L 1159 2956 
Q 1366 3272 1645 3428 
Q 1925 3584 2291 3584 
Q 2894 3584 3203 3211 
Q 3513 2838 3513 2113 
z
" id="DejaVuSans-6e" transform="scale(0.015625)"/>
      </defs>
      <use xlink:href="#DejaVuSans-6d"/>
      <use x="97.412109" xlink:href="#DejaVuSans-65"/>
      <use x="158.935547" xlink:href="#DejaVuSans-61"/>
      <use x="220.214844" xlink:href="#DejaVuSans-6e"/>
     </g>
    </g>
   </g>
   <g id="matplotlib.axis_2">
    <g id="ytick_1">
     <g id="line2d_10">
      <defs>
       <path d="M 0 0 
L -3.5 0 
" id="m70eeeec47b" style="stroke:#000000;stroke-width:0.8;"/>
      </defs>
      <g>
       <use style="stroke:#000000;stroke-width:0.8;" x="46.965625" xlink:href="#m70eeeec47b" y="241.997656"/>
      </g>
     </g>
     <g id="text_11">
      <!-- 0 -->
      <g transform="translate(33.603125 245.796875)scale(0.1 -0.1)">
       <use xlink:href="#DejaVuSans-30"/>
      </g>
     </g>
    </g>
    <g id="ytick_2">
     <g id="line2d_11">
      <g>
       <use style="stroke:#000000;stroke-width:0.8;" x="46.965625" xlink:href="#m70eeeec47b" y="195.048083"/>
      </g>
     </g>
     <g id="text_12">
      <!-- 100 -->
      <g transform="translate(20.878125 198.847302)scale(0.1 -0.1)">
       <use xlink:href="#DejaVuSans-31"/>
       <use x="63.623047" xlink:href="#DejaVuSans-30"/>
       <use x="127.246094" xlink:href="#DejaVuSans-30"/>
      </g>
     </g>
    </g>
    <g id="ytick_3">
     <g id="line2d_12">
      <g>
       <use style="stroke:#000000;stroke-width:0.8;" x="46.965625" xlink:href="#m70eeeec47b" y="148.098509"/>
      </g>
     </g>
     <g id="text_13">
      <!-- 200 -->
      <g transform="translate(20.878125 151.897728)scale(0.1 -0.1)">
       <use xlink:href="#DejaVuSans-32"/>
       <use x="63.623047" xlink:href="#DejaVuSans-30"/>
       <use x="127.246094" xlink:href="#DejaVuSans-30"/>
      </g>
     </g>
    </g>
    <g id="ytick_4">
     <g id="line2d_13">
      <g>
       <use style="stroke:#000000;stroke-width:0.8;" x="46.965625" xlink:href="#m70eeeec47b" y="101.148936"/>
      </g>
     </g>
     <g id="text_14">
      <!-- 300 -->
      <g transform="translate(20.878125 104.948155)scale(0.1 -0.1)">
       <use xlink:href="#DejaVuSans-33"/>
       <use x="63.623047" xlink:href="#DejaVuSans-30"/>
       <use x="127.246094" xlink:href="#DejaVuSans-30"/>
      </g>
     </g>
    </g>
    <g id="ytick_5">
     <g id="line2d_14">
      <g>
       <use style="stroke:#000000;stroke-width:0.8;" x="46.965625" xlink:href="#m70eeeec47b" y="54.199362"/>
      </g>
     </g>
     <g id="text_15">
      <!-- 400 -->
      <g transform="translate(20.878125 57.998581)scale(0.1 -0.1)">
       <defs>
        <path d="M 2419 4116 
L 825 1625 
L 2419 1625 
L 2419 4116 
z
M 2253 4666 
L 3047 4666 
L 3047 1625 
L 3713 1625 
L 3713 1100 
L 3047 1100 
L 3047 0 
L 2419 0 
L 2419 1100 
L 313 1100 
L 313 1709 
L 2253 4666 
z
" id="DejaVuSans-34" transform="scale(0.015625)"/>
       </defs>
       <use xlink:href="#DejaVuSans-34"/>
       <use x="63.623047" xlink:href="#DejaVuSans-30"/>
       <use x="127.246094" xlink:href="#DejaVuSans-30"/>
      </g>
     </g>
    </g>
    <g id="text_16">
     <!-- Count -->
     <g transform="translate(14.798438 148.146094)rotate(-90)scale(0.1 -0.1)">
      <defs>
       <path d="M 4122 4306 
L 4122 3641 
Q 3803 3938 3442 4084 
Q 3081 4231 2675 4231 
Q 1875 4231 1450 3742 
Q 1025 3253 1025 2328 
Q 1025 1406 1450 917 
Q 1875 428 2675 428 
Q 3081 428 3442 575 
Q 3803 722 4122 1019 
L 4122 359 
Q 3791 134 3420 21 
Q 3050 -91 2638 -91 
Q 1578 -91 968 557 
Q 359 1206 359 2328 
Q 359 3453 968 4101 
Q 1578 4750 2638 4750 
Q 3056 4750 3426 4639 
Q 3797 4528 4122 4306 
z
" id="DejaVuSans-43" transform="scale(0.015625)"/>
       <path d="M 1959 3097 
Q 1497 3097 1228 2736 
Q 959 2375 959 1747 
Q 959 1119 1226 758 
Q 1494 397 1959 397 
Q 2419 397 2687 759 
Q 2956 1122 2956 1747 
Q 2956 2369 2687 2733 
Q 2419 3097 1959 3097 
z
M 1959 3584 
Q 2709 3584 3137 3096 
Q 3566 2609 3566 1747 
Q 3566 888 3137 398 
Q 2709 -91 1959 -91 
Q 1206 -91 779 398 
Q 353 888 353 1747 
Q 353 2609 779 3096 
Q 1206 3584 1959 3584 
z
" id="DejaVuSans-6f" transform="scale(0.015625)"/>
       <path d="M 544 1381 
L 544 3500 
L 1119 3500 
L 1119 1403 
Q 1119 906 1312 657 
Q 1506 409 1894 409 
Q 2359 409 2629 706 
Q 2900 1003 2900 1516 
L 2900 3500 
L 3475 3500 
L 3475 0 
L 2900 0 
L 2900 538 
Q 2691 219 2414 64 
Q 2138 -91 1772 -91 
Q 1169 -91 856 284 
Q 544 659 544 1381 
z
M 1991 3584 
L 1991 3584 
z
" id="DejaVuSans-75" transform="scale(0.015625)"/>
       <path d="M 1172 4494 
L 1172 3500 
L 2356 3500 
L 2356 3053 
L 1172 3053 
L 1172 1153 
Q 1172 725 1289 603 
Q 1406 481 1766 481 
L 2356 481 
L 2356 0 
L 1766 0 
Q 1100 0 847 248 
Q 594 497 594 1153 
L 594 3053 
L 172 3053 
L 172 3500 
L 594 3500 
L 594 4494 
L 1172 4494 
z
" id="DejaVuSans-74" transform="scale(0.015625)"/>
      </defs>
      <use xlink:href="#DejaVuSans-43"/>
      <use x="69.824219" xlink:href="#DejaVuSans-6f"/>
      <use x="131.005859" xlink:href="#DejaVuSans-75"/>
      <use x="194.384766" xlink:href="#DejaVuSans-6e"/>
      <use x="257.763672" xlink:href="#DejaVuSans-74"/>
     </g>
    </g>
   </g>
   <g id="patch_57">
    <path d="M 46.965625 241.997656 
L 46.965625 24.597656 
" style="fill:none;stroke:#000000;stroke-linecap:square;stroke-linejoin:miter;stroke-width:0.8;"/>
   </g>
   <g id="patch_58">
    <path d="M 46.965625 241.997656 
L 417.490625 241.997656 
" style="fill:none;stroke:#000000;stroke-linecap:square;stroke-linejoin:miter;stroke-width:0.8;"/>
   </g>
   <g id="text_17">
    <!-- Distribution of feature quants -->
    <g transform="translate(121.310156 18.597656)scale(0.15 -0.15)">
     <defs>
      <path d="M 1259 4147 
L 1259 519 
L 2022 519 
Q 2988 519 3436 956 
Q 3884 1394 3884 2338 
Q 3884 3275 3436 3711 
Q 2988 4147 2022 4147 
L 1259 4147 
z
M 628 4666 
L 1925 4666 
Q 3281 4666 3915 4102 
Q 4550 3538 4550 2338 
Q 4550 1131 3912 565 
Q 3275 0 1925 0 
L 628 0 
L 628 4666 
z
" id="DejaVuSans-44" transform="scale(0.015625)"/>
      <path d="M 603 3500 
L 1178 3500 
L 1178 0 
L 603 0 
L 603 3500 
z
M 603 4863 
L 1178 4863 
L 1178 4134 
L 603 4134 
L 603 4863 
z
" id="DejaVuSans-69" transform="scale(0.015625)"/>
      <path d="M 2834 3397 
L 2834 2853 
Q 2591 2978 2328 3040 
Q 2066 3103 1784 3103 
Q 1356 3103 1142 2972 
Q 928 2841 928 2578 
Q 928 2378 1081 2264 
Q 1234 2150 1697 2047 
L 1894 2003 
Q 2506 1872 2764 1633 
Q 3022 1394 3022 966 
Q 3022 478 2636 193 
Q 2250 -91 1575 -91 
Q 1294 -91 989 -36 
Q 684 19 347 128 
L 347 722 
Q 666 556 975 473 
Q 1284 391 1588 391 
Q 1994 391 2212 530 
Q 2431 669 2431 922 
Q 2431 1156 2273 1281 
Q 2116 1406 1581 1522 
L 1381 1569 
Q 847 1681 609 1914 
Q 372 2147 372 2553 
Q 372 3047 722 3315 
Q 1072 3584 1716 3584 
Q 2034 3584 2315 3537 
Q 2597 3491 2834 3397 
z
" id="DejaVuSans-73" transform="scale(0.015625)"/>
      <path d="M 2631 2963 
Q 2534 3019 2420 3045 
Q 2306 3072 2169 3072 
Q 1681 3072 1420 2755 
Q 1159 2438 1159 1844 
L 1159 0 
L 581 0 
L 581 3500 
L 1159 3500 
L 1159 2956 
Q 1341 3275 1631 3429 
Q 1922 3584 2338 3584 
Q 2397 3584 2469 3576 
Q 2541 3569 2628 3553 
L 2631 2963 
z
" id="DejaVuSans-72" transform="scale(0.015625)"/>
      <path d="M 3116 1747 
Q 3116 2381 2855 2742 
Q 2594 3103 2138 3103 
Q 1681 3103 1420 2742 
Q 1159 2381 1159 1747 
Q 1159 1113 1420 752 
Q 1681 391 2138 391 
Q 2594 391 2855 752 
Q 3116 1113 3116 1747 
z
M 1159 2969 
Q 1341 3281 1617 3432 
Q 1894 3584 2278 3584 
Q 2916 3584 3314 3078 
Q 3713 2572 3713 1747 
Q 3713 922 3314 415 
Q 2916 -91 2278 -91 
Q 1894 -91 1617 61 
Q 1341 213 1159 525 
L 1159 0 
L 581 0 
L 581 4863 
L 1159 4863 
L 1159 2969 
z
" id="DejaVuSans-62" transform="scale(0.015625)"/>
      <path id="DejaVuSans-20" transform="scale(0.015625)"/>
      <path d="M 2375 4863 
L 2375 4384 
L 1825 4384 
Q 1516 4384 1395 4259 
Q 1275 4134 1275 3809 
L 1275 3500 
L 2222 3500 
L 2222 3053 
L 1275 3053 
L 1275 0 
L 697 0 
L 697 3053 
L 147 3053 
L 147 3500 
L 697 3500 
L 697 3744 
Q 697 4328 969 4595 
Q 1241 4863 1831 4863 
L 2375 4863 
z
" id="DejaVuSans-66" transform="scale(0.015625)"/>
      <path d="M 947 1747 
Q 947 1113 1208 752 
Q 1469 391 1925 391 
Q 2381 391 2643 752 
Q 2906 1113 2906 1747 
Q 2906 2381 2643 2742 
Q 2381 3103 1925 3103 
Q 1469 3103 1208 2742 
Q 947 2381 947 1747 
z
M 2906 525 
Q 2725 213 2448 61 
Q 2172 -91 1784 -91 
Q 1150 -91 751 415 
Q 353 922 353 1747 
Q 353 2572 751 3078 
Q 1150 3584 1784 3584 
Q 2172 3584 2448 3432 
Q 2725 3281 2906 2969 
L 2906 3500 
L 3481 3500 
L 3481 -1331 
L 2906 -1331 
L 2906 525 
z
" id="DejaVuSans-71" transform="scale(0.015625)"/>
     </defs>
     <use xlink:href="#DejaVuSans-44"/>
     <use x="77.001953" xlink:href="#DejaVuSans-69"/>
     <use x="104.785156" xlink:href="#DejaVuSans-73"/>
     <use x="156.884766" xlink:href="#DejaVuSans-74"/>
     <use x="196.09375" xlink:href="#DejaVuSans-72"/>
     <use x="237.207031" xlink:href="#DejaVuSans-69"/>
     <use x="264.990234" xlink:href="#DejaVuSans-62"/>
     <use x="328.466797" xlink:href="#DejaVuSans-75"/>
     <use x="391.845703" xlink:href="#DejaVuSans-74"/>
     <use x="431.054688" xlink:href="#DejaVuSans-69"/>
     <use x="458.837891" xlink:href="#DejaVuSans-6f"/>
     <use x="520.019531" xlink:href="#DejaVuSans-6e"/>
     <use x="583.398438" xlink:href="#DejaVuSans-20"/>
     <use x="615.185547" xlink:href="#DejaVuSans-6f"/>
     <use x="676.367188" xlink:href="#DejaVuSans-66"/>
     <use x="711.572266" xlink:href="#DejaVuSans-20"/>
     <use x="743.359375" xlink:href="#DejaVuSans-66"/>
     <use x="778.564453" xlink:href="#DejaVuSans-65"/>
     <use x="840.087891" xlink:href="#DejaVuSans-61"/>
     <use x="901.367188" xlink:href="#DejaVuSans-74"/>
     <use x="940.576172" xlink:href="#DejaVuSans-75"/>
     <use x="1003.955078" xlink:href="#DejaVuSans-72"/>
     <use x="1042.818359" xlink:href="#DejaVuSans-65"/>
     <use x="1104.341797" xlink:href="#DejaVuSans-20"/>
     <use x="1136.128906" xlink:href="#DejaVuSans-71"/>
     <use x="1199.605469" xlink:href="#DejaVuSans-75"/>
     <use x="1262.984375" xlink:href="#DejaVuSans-61"/>
     <use x="1324.263672" xlink:href="#DejaVuSans-6e"/>
     <use x="1387.642578" xlink:href="#DejaVuSans-74"/>
     <use x="1426.851562" xlink:href="#DejaVuSans-73"/>
    </g>
   </g>
   <g id="legend_1">
    <g id="patch_59">
     <path d="M 308.344531 80.632031 
L 406.990625 80.632031 
Q 409.990625 80.632031 409.990625 77.632031 
L 409.990625 35.097656 
Q 409.990625 32.097656 406.990625 32.097656 
L 308.344531 32.097656 
Q 305.344531 32.097656 305.344531 35.097656 
L 305.344531 77.632031 
Q 305.344531 80.632031 308.344531 80.632031 
z
" style="fill:#ffffff;opacity:0.8;stroke:#cccccc;stroke-linejoin:miter;"/>
    </g>
    <g id="patch_60">
     <path d="M 311.344531 49.495312 
L 341.344531 49.495312 
L 341.344531 38.995312 
L 311.344531 38.995312 
z
" style="fill:#ff8c00;fill-opacity:0.8;stroke:#000000;stroke-linejoin:miter;"/>
    </g>
    <g id="text_18">
     <!-- CD 3.3 -->
     <g transform="translate(353.344531 49.495312)scale(0.15 -0.15)">
      <use xlink:href="#DejaVuSans-43"/>
      <use x="69.824219" xlink:href="#DejaVuSans-44"/>
      <use x="146.826172" xlink:href="#DejaVuSans-20"/>
      <use x="178.613281" xlink:href="#DejaVuSans-33"/>
      <use x="242.236328" xlink:href="#DejaVuSans-2e"/>
      <use x="274.023438" xlink:href="#DejaVuSans-33"/>
     </g>
    </g>
    <g id="patch_61">
     <path d="M 311.344531 71.5125 
L 341.344531 71.5125 
L 341.344531 61.0125 
L 311.344531 61.0125 
z
" style="fill:#1f77b4;fill-opacity:0.7;stroke:#000000;stroke-linejoin:miter;"/>
    </g>
    <g id="text_19">
     <!-- CD 3.1 -->
     <g transform="translate(353.344531 71.5125)scale(0.15 -0.15)">
      <use xlink:href="#DejaVuSans-43"/>
      <use x="69.824219" xlink:href="#DejaVuSans-44"/>
      <use x="146.826172" xlink:href="#DejaVuSans-20"/>
      <use x="178.613281" xlink:href="#DejaVuSans-33"/>
      <use x="242.236328" xlink:href="#DejaVuSans-2e"/>
      <use x="274.023438" xlink:href="#DejaVuSans-31"/>
     </g>
    </g>
   </g>
  </g>
 </g>
 <defs>
  <clipPath id="p036150614d">
   <rect height="217.4" width="370.525" x="46.965625" y="24.597656"/>
  </clipPath>
 </defs>
</svg>
