<?xml version="1.0" encoding="utf-8" standalone="no"?>
<!DOCTYPE svg PUBLIC "-//W3C//DTD SVG 1.1//EN"
  "http://www.w3.org/Graphics/SVG/1.1/DTD/svg11.dtd">
<svg height="285.19625pt" version="1.1" viewBox="0 0 567.901825 285.19625" width="567.901825pt" xmlns="http://www.w3.org/2000/svg" xmlns:xlink="http://www.w3.org/1999/xlink">
 <metadata>
  <rdf:RDF xmlns:cc="http://creativecommons.org/ns#" xmlns:dc="http://purl.org/dc/elements/1.1/" xmlns:rdf="http://www.w3.org/1999/02/22-rdf-syntax-ns#">
   <cc:Work>
    <dc:type rdf:resource="http://purl.org/dc/dcmitype/StillImage"/>
    <dc:date>2022-03-18T14:20:17.013382</dc:date>
    <dc:format>image/svg+xml</dc:format>
    <dc:creator>
     <cc:Agent>
      <dc:title>Matplotlib v3.4.2, https://matplotlib.org/</dc:title>
     </cc:Agent>
    </dc:creator>
   </cc:Work>
  </rdf:RDF>
 </metadata>
 <defs>
  <style type="text/css">*{stroke-linecap:butt;stroke-linejoin:round;}</style>
 </defs>
 <g id="figure_1">
  <g id="patch_1">
   <path d="M 0 285.19625 
L 567.901825 285.19625 
L 567.901825 0 
L 0 0 
z
" style="fill:none;"/>
  </g>
  <g id="axes_1">
   <g id="patch_2">
    <path d="M 46.965625 247.64 
L 273.902531 247.64 
L 273.902531 54.04 
L 46.965625 54.04 
z
" style="fill:#ffffff;"/>
   </g>
   <g id="patch_3">
    <path clip-path="url(#pf117fef155)" d="M 59.941099 247.64 
L 66.729303 247.64 
L 66.729303 172.211429 
L 59.941099 172.211429 
z
" style="fill:#1f77b4;fill-opacity:0.75;stroke:#000000;stroke-linejoin:miter;stroke-width:0.614876;"/>
   </g>
   <g id="patch_4">
    <path clip-path="url(#pf117fef155)" d="M 66.729303 247.64 
L 73.517507 247.64 
L 73.517507 63.259048 
L 66.729303 63.259048 
z
" style="fill:#1f77b4;fill-opacity:0.75;stroke:#000000;stroke-linejoin:miter;stroke-width:0.614876;"/>
   </g>
   <g id="patch_5">
    <path clip-path="url(#pf117fef155)" d="M 73.517507 247.64 
L 80.305711 247.64 
L 80.305711 85.049524 
L 73.517507 85.049524 
z
" style="fill:#1f77b4;fill-opacity:0.75;stroke:#000000;stroke-linejoin:miter;stroke-width:0.614876;"/>
   </g>
   <g id="patch_6">
    <path clip-path="url(#pf117fef155)" d="M 80.305711 247.64 
L 87.093915 247.64 
L 87.093915 129.468571 
L 80.305711 129.468571 
z
" style="fill:#1f77b4;fill-opacity:0.75;stroke:#000000;stroke-linejoin:miter;stroke-width:0.614876;"/>
   </g>
   <g id="patch_7">
    <path clip-path="url(#pf117fef155)" d="M 87.093915 247.64 
L 93.882119 247.64 
L 93.882119 125.278095 
L 87.093915 125.278095 
z
" style="fill:#1f77b4;fill-opacity:0.75;stroke:#000000;stroke-linejoin:miter;stroke-width:0.614876;"/>
   </g>
   <g id="patch_8">
    <path clip-path="url(#pf117fef155)" d="M 93.882119 247.64 
L 100.670322 247.64 
L 100.670322 142.04 
L 93.882119 142.04 
z
" style="fill:#1f77b4;fill-opacity:0.75;stroke:#000000;stroke-linejoin:miter;stroke-width:0.614876;"/>
   </g>
   <g id="patch_9">
    <path clip-path="url(#pf117fef155)" d="M 100.670322 247.64 
L 107.458526 247.64 
L 107.458526 158.801905 
L 100.670322 158.801905 
z
" style="fill:#1f77b4;fill-opacity:0.75;stroke:#000000;stroke-linejoin:miter;stroke-width:0.614876;"/>
   </g>
   <g id="patch_10">
    <path clip-path="url(#pf117fef155)" d="M 107.458526 247.64 
L 114.24673 247.64 
L 114.24673 171.373333 
L 107.458526 171.373333 
z
" style="fill:#1f77b4;fill-opacity:0.75;stroke:#000000;stroke-linejoin:miter;stroke-width:0.614876;"/>
   </g>
   <g id="patch_11">
    <path clip-path="url(#pf117fef155)" d="M 114.24673 247.64 
L 121.034934 247.64 
L 121.034934 194.84 
L 114.24673 194.84 
z
" style="fill:#1f77b4;fill-opacity:0.75;stroke:#000000;stroke-linejoin:miter;stroke-width:0.614876;"/>
   </g>
   <g id="patch_12">
    <path clip-path="url(#pf117fef155)" d="M 121.034934 247.64 
L 127.823138 247.64 
L 127.823138 189.811429 
L 121.034934 189.811429 
z
" style="fill:#1f77b4;fill-opacity:0.75;stroke:#000000;stroke-linejoin:miter;stroke-width:0.614876;"/>
   </g>
   <g id="patch_13">
    <path clip-path="url(#pf117fef155)" d="M 127.823138 247.64 
L 134.611342 247.64 
L 134.611342 201.544762 
L 127.823138 201.544762 
z
" style="fill:#1f77b4;fill-opacity:0.75;stroke:#000000;stroke-linejoin:miter;stroke-width:0.614876;"/>
   </g>
   <g id="patch_14">
    <path clip-path="url(#pf117fef155)" d="M 134.611342 247.64 
L 141.399546 247.64 
L 141.399546 221.659048 
L 134.611342 221.659048 
z
" style="fill:#1f77b4;fill-opacity:0.75;stroke:#000000;stroke-linejoin:miter;stroke-width:0.614876;"/>
   </g>
   <g id="patch_15">
    <path clip-path="url(#pf117fef155)" d="M 141.399546 247.64 
L 148.18775 247.64 
L 148.18775 216.630476 
L 141.399546 216.630476 
z
" style="fill:#1f77b4;fill-opacity:0.75;stroke:#000000;stroke-linejoin:miter;stroke-width:0.614876;"/>
   </g>
   <g id="patch_16">
    <path clip-path="url(#pf117fef155)" d="M 148.18775 247.64 
L 154.975954 247.64 
L 154.975954 230.878095 
L 148.18775 230.878095 
z
" style="fill:#1f77b4;fill-opacity:0.75;stroke:#000000;stroke-linejoin:miter;stroke-width:0.614876;"/>
   </g>
   <g id="patch_17">
    <path clip-path="url(#pf117fef155)" d="M 154.975954 247.64 
L 161.764158 247.64 
L 161.764158 227.525714 
L 154.975954 227.525714 
z
" style="fill:#1f77b4;fill-opacity:0.75;stroke:#000000;stroke-linejoin:miter;stroke-width:0.614876;"/>
   </g>
   <g id="patch_18">
    <path clip-path="url(#pf117fef155)" d="M 161.764158 247.64 
L 168.552362 247.64 
L 168.552362 239.259048 
L 161.764158 239.259048 
z
" style="fill:#1f77b4;fill-opacity:0.75;stroke:#000000;stroke-linejoin:miter;stroke-width:0.614876;"/>
   </g>
   <g id="patch_19">
    <path clip-path="url(#pf117fef155)" d="M 168.552362 247.64 
L 175.340566 247.64 
L 175.340566 236.744762 
L 168.552362 236.744762 
z
" style="fill:#1f77b4;fill-opacity:0.75;stroke:#000000;stroke-linejoin:miter;stroke-width:0.614876;"/>
   </g>
   <g id="patch_20">
    <path clip-path="url(#pf117fef155)" d="M 175.340566 247.64 
L 182.12877 247.64 
L 182.12877 235.906667 
L 175.340566 235.906667 
z
" style="fill:#1f77b4;fill-opacity:0.75;stroke:#000000;stroke-linejoin:miter;stroke-width:0.614876;"/>
   </g>
   <g id="patch_21">
    <path clip-path="url(#pf117fef155)" d="M 182.12877 247.64 
L 188.916974 247.64 
L 188.916974 240.935238 
L 182.12877 240.935238 
z
" style="fill:#1f77b4;fill-opacity:0.75;stroke:#000000;stroke-linejoin:miter;stroke-width:0.614876;"/>
   </g>
   <g id="patch_22">
    <path clip-path="url(#pf117fef155)" d="M 188.916974 247.64 
L 195.705178 247.64 
L 195.705178 235.906667 
L 188.916974 235.906667 
z
" style="fill:#1f77b4;fill-opacity:0.75;stroke:#000000;stroke-linejoin:miter;stroke-width:0.614876;"/>
   </g>
   <g id="patch_23">
    <path clip-path="url(#pf117fef155)" d="M 195.705178 247.64 
L 202.493382 247.64 
L 202.493382 240.935238 
L 195.705178 240.935238 
z
" style="fill:#1f77b4;fill-opacity:0.75;stroke:#000000;stroke-linejoin:miter;stroke-width:0.614876;"/>
   </g>
   <g id="patch_24">
    <path clip-path="url(#pf117fef155)" d="M 202.493382 247.64 
L 209.281586 247.64 
L 209.281586 244.287619 
L 202.493382 244.287619 
z
" style="fill:#1f77b4;fill-opacity:0.75;stroke:#000000;stroke-linejoin:miter;stroke-width:0.614876;"/>
   </g>
   <g id="patch_25">
    <path clip-path="url(#pf117fef155)" d="M 209.281586 247.64 
L 216.069789 247.64 
L 216.069789 246.801905 
L 209.281586 246.801905 
z
" style="fill:#1f77b4;fill-opacity:0.75;stroke:#000000;stroke-linejoin:miter;stroke-width:0.614876;"/>
   </g>
   <g id="patch_26">
    <path clip-path="url(#pf117fef155)" d="M 216.069789 247.64 
L 222.857993 247.64 
L 222.857993 246.801905 
L 216.069789 246.801905 
z
" style="fill:#1f77b4;fill-opacity:0.75;stroke:#000000;stroke-linejoin:miter;stroke-width:0.614876;"/>
   </g>
   <g id="patch_27">
    <path clip-path="url(#pf117fef155)" d="M 222.857993 247.64 
L 229.646197 247.64 
L 229.646197 247.64 
L 222.857993 247.64 
z
" style="fill:#1f77b4;fill-opacity:0.75;stroke:#000000;stroke-linejoin:miter;stroke-width:0.614876;"/>
   </g>
   <g id="patch_28">
    <path clip-path="url(#pf117fef155)" d="M 229.646197 247.64 
L 236.434401 247.64 
L 236.434401 247.64 
L 229.646197 247.64 
z
" style="fill:#1f77b4;fill-opacity:0.75;stroke:#000000;stroke-linejoin:miter;stroke-width:0.614876;"/>
   </g>
   <g id="patch_29">
    <path clip-path="url(#pf117fef155)" d="M 236.434401 247.64 
L 243.222605 247.64 
L 243.222605 247.64 
L 236.434401 247.64 
z
" style="fill:#1f77b4;fill-opacity:0.75;stroke:#000000;stroke-linejoin:miter;stroke-width:0.614876;"/>
   </g>
   <g id="patch_30">
    <path clip-path="url(#pf117fef155)" d="M 243.222605 247.64 
L 250.010809 247.64 
L 250.010809 247.64 
L 243.222605 247.64 
z
" style="fill:#1f77b4;fill-opacity:0.75;stroke:#000000;stroke-linejoin:miter;stroke-width:0.614876;"/>
   </g>
   <g id="patch_31">
    <path clip-path="url(#pf117fef155)" d="M 250.010809 247.64 
L 256.799013 247.64 
L 256.799013 247.64 
L 250.010809 247.64 
z
" style="fill:#1f77b4;fill-opacity:0.75;stroke:#000000;stroke-linejoin:miter;stroke-width:0.614876;"/>
   </g>
   <g id="patch_32">
    <path clip-path="url(#pf117fef155)" d="M 256.799013 247.64 
L 263.587217 247.64 
L 263.587217 246.801905 
L 256.799013 246.801905 
z
" style="fill:#1f77b4;fill-opacity:0.75;stroke:#000000;stroke-linejoin:miter;stroke-width:0.614876;"/>
   </g>
   <g id="matplotlib.axis_1">
    <g id="xtick_1">
     <g id="line2d_1">
      <defs>
       <path d="M 0 0 
L 0 3.5 
" id="m607a43ea68" style="stroke:#000000;stroke-width:0.8;"/>
      </defs>
      <g>
       <use style="stroke:#000000;stroke-width:0.8;" x="48.384857" xlink:href="#m607a43ea68" y="247.64"/>
      </g>
     </g>
     <g id="text_1">
      <!-- 0.00 -->
      <g transform="translate(37.252045 262.238437)scale(0.1 -0.1)">
       <defs>
        <path d="M 2034 4250 
Q 1547 4250 1301 3770 
Q 1056 3291 1056 2328 
Q 1056 1369 1301 889 
Q 1547 409 2034 409 
Q 2525 409 2770 889 
Q 3016 1369 3016 2328 
Q 3016 3291 2770 3770 
Q 2525 4250 2034 4250 
z
M 2034 4750 
Q 2819 4750 3233 4129 
Q 3647 3509 3647 2328 
Q 3647 1150 3233 529 
Q 2819 -91 2034 -91 
Q 1250 -91 836 529 
Q 422 1150 422 2328 
Q 422 3509 836 4129 
Q 1250 4750 2034 4750 
z
" id="DejaVuSans-30" transform="scale(0.015625)"/>
        <path d="M 684 794 
L 1344 794 
L 1344 0 
L 684 0 
L 684 794 
z
" id="DejaVuSans-2e" transform="scale(0.015625)"/>
       </defs>
       <use xlink:href="#DejaVuSans-30"/>
       <use x="63.623047" xlink:href="#DejaVuSans-2e"/>
       <use x="95.410156" xlink:href="#DejaVuSans-30"/>
       <use x="159.033203" xlink:href="#DejaVuSans-30"/>
      </g>
     </g>
    </g>
    <g id="xtick_2">
     <g id="line2d_2">
      <g>
       <use style="stroke:#000000;stroke-width:0.8;" x="103.030896" xlink:href="#m607a43ea68" y="247.64"/>
      </g>
     </g>
     <g id="text_2">
      <!-- 0.05 -->
      <g transform="translate(91.898083 262.238437)scale(0.1 -0.1)">
       <defs>
        <path d="M 691 4666 
L 3169 4666 
L 3169 4134 
L 1269 4134 
L 1269 2991 
Q 1406 3038 1543 3061 
Q 1681 3084 1819 3084 
Q 2600 3084 3056 2656 
Q 3513 2228 3513 1497 
Q 3513 744 3044 326 
Q 2575 -91 1722 -91 
Q 1428 -91 1123 -41 
Q 819 9 494 109 
L 494 744 
Q 775 591 1075 516 
Q 1375 441 1709 441 
Q 2250 441 2565 725 
Q 2881 1009 2881 1497 
Q 2881 1984 2565 2268 
Q 2250 2553 1709 2553 
Q 1456 2553 1204 2497 
Q 953 2441 691 2322 
L 691 4666 
z
" id="DejaVuSans-35" transform="scale(0.015625)"/>
       </defs>
       <use xlink:href="#DejaVuSans-30"/>
       <use x="63.623047" xlink:href="#DejaVuSans-2e"/>
       <use x="95.410156" xlink:href="#DejaVuSans-30"/>
       <use x="159.033203" xlink:href="#DejaVuSans-35"/>
      </g>
     </g>
    </g>
    <g id="xtick_3">
     <g id="line2d_3">
      <g>
       <use style="stroke:#000000;stroke-width:0.8;" x="157.676935" xlink:href="#m607a43ea68" y="247.64"/>
      </g>
     </g>
     <g id="text_3">
      <!-- 0.10 -->
      <g transform="translate(146.544122 262.238437)scale(0.1 -0.1)">
       <defs>
        <path d="M 794 531 
L 1825 531 
L 1825 4091 
L 703 3866 
L 703 4441 
L 1819 4666 
L 2450 4666 
L 2450 531 
L 3481 531 
L 3481 0 
L 794 0 
L 794 531 
z
" id="DejaVuSans-31" transform="scale(0.015625)"/>
       </defs>
       <use xlink:href="#DejaVuSans-30"/>
       <use x="63.623047" xlink:href="#DejaVuSans-2e"/>
       <use x="95.410156" xlink:href="#DejaVuSans-31"/>
       <use x="159.033203" xlink:href="#DejaVuSans-30"/>
      </g>
     </g>
    </g>
    <g id="xtick_4">
     <g id="line2d_4">
      <g>
       <use style="stroke:#000000;stroke-width:0.8;" x="212.322973" xlink:href="#m607a43ea68" y="247.64"/>
      </g>
     </g>
     <g id="text_4">
      <!-- 0.15 -->
      <g transform="translate(201.190161 262.238437)scale(0.1 -0.1)">
       <use xlink:href="#DejaVuSans-30"/>
       <use x="63.623047" xlink:href="#DejaVuSans-2e"/>
       <use x="95.410156" xlink:href="#DejaVuSans-31"/>
       <use x="159.033203" xlink:href="#DejaVuSans-35"/>
      </g>
     </g>
    </g>
    <g id="xtick_5">
     <g id="line2d_5">
      <g>
       <use style="stroke:#000000;stroke-width:0.8;" x="266.969012" xlink:href="#m607a43ea68" y="247.64"/>
      </g>
     </g>
     <g id="text_5">
      <!-- 0.20 -->
      <g transform="translate(255.8362 262.238437)scale(0.1 -0.1)">
       <defs>
        <path d="M 1228 531 
L 3431 531 
L 3431 0 
L 469 0 
L 469 531 
Q 828 903 1448 1529 
Q 2069 2156 2228 2338 
Q 2531 2678 2651 2914 
Q 2772 3150 2772 3378 
Q 2772 3750 2511 3984 
Q 2250 4219 1831 4219 
Q 1534 4219 1204 4116 
Q 875 4013 500 3803 
L 500 4441 
Q 881 4594 1212 4672 
Q 1544 4750 1819 4750 
Q 2544 4750 2975 4387 
Q 3406 4025 3406 3419 
Q 3406 3131 3298 2873 
Q 3191 2616 2906 2266 
Q 2828 2175 2409 1742 
Q 1991 1309 1228 531 
z
" id="DejaVuSans-32" transform="scale(0.015625)"/>
       </defs>
       <use xlink:href="#DejaVuSans-30"/>
       <use x="63.623047" xlink:href="#DejaVuSans-2e"/>
       <use x="95.410156" xlink:href="#DejaVuSans-32"/>
       <use x="159.033203" xlink:href="#DejaVuSans-30"/>
      </g>
     </g>
    </g>
    <g id="text_6">
     <!-- rsd -->
     <g transform="translate(152.599703 275.916562)scale(0.1 -0.1)">
      <defs>
       <path d="M 2631 2963 
Q 2534 3019 2420 3045 
Q 2306 3072 2169 3072 
Q 1681 3072 1420 2755 
Q 1159 2438 1159 1844 
L 1159 0 
L 581 0 
L 581 3500 
L 1159 3500 
L 1159 2956 
Q 1341 3275 1631 3429 
Q 1922 3584 2338 3584 
Q 2397 3584 2469 3576 
Q 2541 3569 2628 3553 
L 2631 2963 
z
" id="DejaVuSans-72" transform="scale(0.015625)"/>
       <path d="M 2834 3397 
L 2834 2853 
Q 2591 2978 2328 3040 
Q 2066 3103 1784 3103 
Q 1356 3103 1142 2972 
Q 928 2841 928 2578 
Q 928 2378 1081 2264 
Q 1234 2150 1697 2047 
L 1894 2003 
Q 2506 1872 2764 1633 
Q 3022 1394 3022 966 
Q 3022 478 2636 193 
Q 2250 -91 1575 -91 
Q 1294 -91 989 -36 
Q 684 19 347 128 
L 347 722 
Q 666 556 975 473 
Q 1284 391 1588 391 
Q 1994 391 2212 530 
Q 2431 669 2431 922 
Q 2431 1156 2273 1281 
Q 2116 1406 1581 1522 
L 1381 1569 
Q 847 1681 609 1914 
Q 372 2147 372 2553 
Q 372 3047 722 3315 
Q 1072 3584 1716 3584 
Q 2034 3584 2315 3537 
Q 2597 3491 2834 3397 
z
" id="DejaVuSans-73" transform="scale(0.015625)"/>
       <path d="M 2906 2969 
L 2906 4863 
L 3481 4863 
L 3481 0 
L 2906 0 
L 2906 525 
Q 2725 213 2448 61 
Q 2172 -91 1784 -91 
Q 1150 -91 751 415 
Q 353 922 353 1747 
Q 353 2572 751 3078 
Q 1150 3584 1784 3584 
Q 2172 3584 2448 3432 
Q 2725 3281 2906 2969 
z
M 947 1747 
Q 947 1113 1208 752 
Q 1469 391 1925 391 
Q 2381 391 2643 752 
Q 2906 1113 2906 1747 
Q 2906 2381 2643 2742 
Q 2381 3103 1925 3103 
Q 1469 3103 1208 2742 
Q 947 2381 947 1747 
z
" id="DejaVuSans-64" transform="scale(0.015625)"/>
      </defs>
      <use xlink:href="#DejaVuSans-72"/>
      <use x="41.113281" xlink:href="#DejaVuSans-73"/>
      <use x="93.212891" xlink:href="#DejaVuSans-64"/>
     </g>
    </g>
   </g>
   <g id="matplotlib.axis_2">
    <g id="ytick_1">
     <g id="line2d_6">
      <defs>
       <path d="M 0 0 
L -3.5 0 
" id="m30af75ba49" style="stroke:#000000;stroke-width:0.8;"/>
      </defs>
      <g>
       <use style="stroke:#000000;stroke-width:0.8;" x="46.965625" xlink:href="#m30af75ba49" y="247.64"/>
      </g>
     </g>
     <g id="text_7">
      <!-- 0 -->
      <g transform="translate(33.603125 251.439219)scale(0.1 -0.1)">
       <use xlink:href="#DejaVuSans-30"/>
      </g>
     </g>
    </g>
    <g id="ytick_2">
     <g id="line2d_7">
      <g>
       <use style="stroke:#000000;stroke-width:0.8;" x="46.965625" xlink:href="#m30af75ba49" y="205.735238"/>
      </g>
     </g>
     <g id="text_8">
      <!-- 50 -->
      <g transform="translate(27.240625 209.534457)scale(0.1 -0.1)">
       <use xlink:href="#DejaVuSans-35"/>
       <use x="63.623047" xlink:href="#DejaVuSans-30"/>
      </g>
     </g>
    </g>
    <g id="ytick_3">
     <g id="line2d_8">
      <g>
       <use style="stroke:#000000;stroke-width:0.8;" x="46.965625" xlink:href="#m30af75ba49" y="163.830476"/>
      </g>
     </g>
     <g id="text_9">
      <!-- 100 -->
      <g transform="translate(20.878125 167.629695)scale(0.1 -0.1)">
       <use xlink:href="#DejaVuSans-31"/>
       <use x="63.623047" xlink:href="#DejaVuSans-30"/>
       <use x="127.246094" xlink:href="#DejaVuSans-30"/>
      </g>
     </g>
    </g>
    <g id="ytick_4">
     <g id="line2d_9">
      <g>
       <use style="stroke:#000000;stroke-width:0.8;" x="46.965625" xlink:href="#m30af75ba49" y="121.925714"/>
      </g>
     </g>
     <g id="text_10">
      <!-- 150 -->
      <g transform="translate(20.878125 125.724933)scale(0.1 -0.1)">
       <use xlink:href="#DejaVuSans-31"/>
       <use x="63.623047" xlink:href="#DejaVuSans-35"/>
       <use x="127.246094" xlink:href="#DejaVuSans-30"/>
      </g>
     </g>
    </g>
    <g id="ytick_5">
     <g id="line2d_10">
      <g>
       <use style="stroke:#000000;stroke-width:0.8;" x="46.965625" xlink:href="#m30af75ba49" y="80.020952"/>
      </g>
     </g>
     <g id="text_11">
      <!-- 200 -->
      <g transform="translate(20.878125 83.820171)scale(0.1 -0.1)">
       <use xlink:href="#DejaVuSans-32"/>
       <use x="63.623047" xlink:href="#DejaVuSans-30"/>
       <use x="127.246094" xlink:href="#DejaVuSans-30"/>
      </g>
     </g>
    </g>
    <g id="text_12">
     <!-- Count -->
     <g transform="translate(14.798437 165.688437)rotate(-90)scale(0.1 -0.1)">
      <defs>
       <path d="M 4122 4306 
L 4122 3641 
Q 3803 3938 3442 4084 
Q 3081 4231 2675 4231 
Q 1875 4231 1450 3742 
Q 1025 3253 1025 2328 
Q 1025 1406 1450 917 
Q 1875 428 2675 428 
Q 3081 428 3442 575 
Q 3803 722 4122 1019 
L 4122 359 
Q 3791 134 3420 21 
Q 3050 -91 2638 -91 
Q 1578 -91 968 557 
Q 359 1206 359 2328 
Q 359 3453 968 4101 
Q 1578 4750 2638 4750 
Q 3056 4750 3426 4639 
Q 3797 4528 4122 4306 
z
" id="DejaVuSans-43" transform="scale(0.015625)"/>
       <path d="M 1959 3097 
Q 1497 3097 1228 2736 
Q 959 2375 959 1747 
Q 959 1119 1226 758 
Q 1494 397 1959 397 
Q 2419 397 2687 759 
Q 2956 1122 2956 1747 
Q 2956 2369 2687 2733 
Q 2419 3097 1959 3097 
z
M 1959 3584 
Q 2709 3584 3137 3096 
Q 3566 2609 3566 1747 
Q 3566 888 3137 398 
Q 2709 -91 1959 -91 
Q 1206 -91 779 398 
Q 353 888 353 1747 
Q 353 2609 779 3096 
Q 1206 3584 1959 3584 
z
" id="DejaVuSans-6f" transform="scale(0.015625)"/>
       <path d="M 544 1381 
L 544 3500 
L 1119 3500 
L 1119 1403 
Q 1119 906 1312 657 
Q 1506 409 1894 409 
Q 2359 409 2629 706 
Q 2900 1003 2900 1516 
L 2900 3500 
L 3475 3500 
L 3475 0 
L 2900 0 
L 2900 538 
Q 2691 219 2414 64 
Q 2138 -91 1772 -91 
Q 1169 -91 856 284 
Q 544 659 544 1381 
z
M 1991 3584 
L 1991 3584 
z
" id="DejaVuSans-75" transform="scale(0.015625)"/>
       <path d="M 3513 2113 
L 3513 0 
L 2938 0 
L 2938 2094 
Q 2938 2591 2744 2837 
Q 2550 3084 2163 3084 
Q 1697 3084 1428 2787 
Q 1159 2491 1159 1978 
L 1159 0 
L 581 0 
L 581 3500 
L 1159 3500 
L 1159 2956 
Q 1366 3272 1645 3428 
Q 1925 3584 2291 3584 
Q 2894 3584 3203 3211 
Q 3513 2838 3513 2113 
z
" id="DejaVuSans-6e" transform="scale(0.015625)"/>
       <path d="M 1172 4494 
L 1172 3500 
L 2356 3500 
L 2356 3053 
L 1172 3053 
L 1172 1153 
Q 1172 725 1289 603 
Q 1406 481 1766 481 
L 2356 481 
L 2356 0 
L 1766 0 
Q 1100 0 847 248 
Q 594 497 594 1153 
L 594 3053 
L 172 3053 
L 172 3500 
L 594 3500 
L 594 4494 
L 1172 4494 
z
" id="DejaVuSans-74" transform="scale(0.015625)"/>
      </defs>
      <use xlink:href="#DejaVuSans-43"/>
      <use x="69.824219" xlink:href="#DejaVuSans-6f"/>
      <use x="131.005859" xlink:href="#DejaVuSans-75"/>
      <use x="194.384766" xlink:href="#DejaVuSans-6e"/>
      <use x="257.763672" xlink:href="#DejaVuSans-74"/>
     </g>
    </g>
   </g>
   <g id="patch_33">
    <path d="M 46.965625 247.64 
L 46.965625 54.04 
" style="fill:none;stroke:#000000;stroke-linecap:square;stroke-linejoin:miter;stroke-width:0.8;"/>
   </g>
   <g id="patch_34">
    <path d="M 46.965625 247.64 
L 273.902531 247.64 
" style="fill:none;stroke:#000000;stroke-linecap:square;stroke-linejoin:miter;stroke-width:0.8;"/>
   </g>
   <g id="text_13">
    <!-- CD 3.1 -->
    <g transform="translate(140.17564 48.04)scale(0.12 -0.12)">
     <defs>
      <path d="M 1259 4147 
L 1259 519 
L 2022 519 
Q 2988 519 3436 956 
Q 3884 1394 3884 2338 
Q 3884 3275 3436 3711 
Q 2988 4147 2022 4147 
L 1259 4147 
z
M 628 4666 
L 1925 4666 
Q 3281 4666 3915 4102 
Q 4550 3538 4550 2338 
Q 4550 1131 3912 565 
Q 3275 0 1925 0 
L 628 0 
L 628 4666 
z
" id="DejaVuSans-44" transform="scale(0.015625)"/>
      <path id="DejaVuSans-20" transform="scale(0.015625)"/>
      <path d="M 2597 2516 
Q 3050 2419 3304 2112 
Q 3559 1806 3559 1356 
Q 3559 666 3084 287 
Q 2609 -91 1734 -91 
Q 1441 -91 1130 -33 
Q 819 25 488 141 
L 488 750 
Q 750 597 1062 519 
Q 1375 441 1716 441 
Q 2309 441 2620 675 
Q 2931 909 2931 1356 
Q 2931 1769 2642 2001 
Q 2353 2234 1838 2234 
L 1294 2234 
L 1294 2753 
L 1863 2753 
Q 2328 2753 2575 2939 
Q 2822 3125 2822 3475 
Q 2822 3834 2567 4026 
Q 2313 4219 1838 4219 
Q 1578 4219 1281 4162 
Q 984 4106 628 3988 
L 628 4550 
Q 988 4650 1302 4700 
Q 1616 4750 1894 4750 
Q 2613 4750 3031 4423 
Q 3450 4097 3450 3541 
Q 3450 3153 3228 2886 
Q 3006 2619 2597 2516 
z
" id="DejaVuSans-33" transform="scale(0.015625)"/>
     </defs>
     <use xlink:href="#DejaVuSans-43"/>
     <use x="69.824219" xlink:href="#DejaVuSans-44"/>
     <use x="146.826172" xlink:href="#DejaVuSans-20"/>
     <use x="178.613281" xlink:href="#DejaVuSans-33"/>
     <use x="242.236328" xlink:href="#DejaVuSans-2e"/>
     <use x="274.023438" xlink:href="#DejaVuSans-31"/>
    </g>
   </g>
  </g>
  <g id="axes_2">
   <g id="patch_35">
    <path d="M 329.565625 247.64 
L 556.502531 247.64 
L 556.502531 54.04 
L 329.565625 54.04 
z
" style="fill:#ffffff;"/>
   </g>
   <g id="patch_36">
    <path clip-path="url(#p1278a29c7e)" d="M 339.880939 247.64 
L 346.706566 247.64 
L 346.706566 223.590311 
L 339.880939 223.590311 
z
" style="fill:#1f77b4;fill-opacity:0.75;stroke:#000000;stroke-linejoin:miter;stroke-width:0.610294;"/>
   </g>
   <g id="patch_37">
    <path clip-path="url(#p1278a29c7e)" d="M 346.706566 247.64 
L 353.532192 247.64 
L 353.532192 119.37499 
L 346.706566 119.37499 
z
" style="fill:#1f77b4;fill-opacity:0.75;stroke:#000000;stroke-linejoin:miter;stroke-width:0.610294;"/>
   </g>
   <g id="patch_38">
    <path clip-path="url(#p1278a29c7e)" d="M 353.532192 247.64 
L 360.357819 247.64 
L 360.357819 63.259048 
L 353.532192 63.259048 
z
" style="fill:#1f77b4;fill-opacity:0.75;stroke:#000000;stroke-linejoin:miter;stroke-width:0.610294;"/>
   </g>
   <g id="patch_39">
    <path clip-path="url(#p1278a29c7e)" d="M 360.357819 247.64 
L 367.183445 247.64 
L 367.183445 71.747173 
L 360.357819 71.747173 
z
" style="fill:#1f77b4;fill-opacity:0.75;stroke:#000000;stroke-linejoin:miter;stroke-width:0.610294;"/>
   </g>
   <g id="patch_40">
    <path clip-path="url(#p1278a29c7e)" d="M 367.183445 247.64 
L 374.009072 247.64 
L 374.009072 72.690298 
L 367.183445 72.690298 
z
" style="fill:#1f77b4;fill-opacity:0.75;stroke:#000000;stroke-linejoin:miter;stroke-width:0.610294;"/>
   </g>
   <g id="patch_41">
    <path clip-path="url(#p1278a29c7e)" d="M 374.009072 247.64 
L 380.834699 247.64 
L 380.834699 96.268425 
L 374.009072 96.268425 
z
" style="fill:#1f77b4;fill-opacity:0.75;stroke:#000000;stroke-linejoin:miter;stroke-width:0.610294;"/>
   </g>
   <g id="patch_42">
    <path clip-path="url(#p1278a29c7e)" d="M 380.834699 247.64 
L 387.660325 247.64 
L 387.660325 97.21155 
L 380.834699 97.21155 
z
" style="fill:#1f77b4;fill-opacity:0.75;stroke:#000000;stroke-linejoin:miter;stroke-width:0.610294;"/>
   </g>
   <g id="patch_43">
    <path clip-path="url(#p1278a29c7e)" d="M 387.660325 247.64 
L 394.485952 247.64 
L 394.485952 95.3253 
L 387.660325 95.3253 
z
" style="fill:#1f77b4;fill-opacity:0.75;stroke:#000000;stroke-linejoin:miter;stroke-width:0.610294;"/>
   </g>
   <g id="patch_44">
    <path clip-path="url(#p1278a29c7e)" d="M 394.485952 247.64 
L 401.311579 247.64 
L 401.311579 126.91999 
L 394.485952 126.91999 
z
" style="fill:#1f77b4;fill-opacity:0.75;stroke:#000000;stroke-linejoin:miter;stroke-width:0.610294;"/>
   </g>
   <g id="patch_45">
    <path clip-path="url(#p1278a29c7e)" d="M 401.311579 247.64 
L 408.137205 247.64 
L 408.137205 139.652179 
L 401.311579 139.652179 
z
" style="fill:#1f77b4;fill-opacity:0.75;stroke:#000000;stroke-linejoin:miter;stroke-width:0.610294;"/>
   </g>
   <g id="patch_46">
    <path clip-path="url(#p1278a29c7e)" d="M 408.137205 247.64 
L 414.962832 247.64 
L 414.962832 182.092807 
L 408.137205 182.092807 
z
" style="fill:#1f77b4;fill-opacity:0.75;stroke:#000000;stroke-linejoin:miter;stroke-width:0.610294;"/>
   </g>
   <g id="patch_47">
    <path clip-path="url(#p1278a29c7e)" d="M 414.962832 247.64 
L 421.788459 247.64 
L 421.788459 185.393745 
L 414.962832 185.393745 
z
" style="fill:#1f77b4;fill-opacity:0.75;stroke:#000000;stroke-linejoin:miter;stroke-width:0.610294;"/>
   </g>
   <g id="patch_48">
    <path clip-path="url(#p1278a29c7e)" d="M 421.788459 247.64 
L 428.614085 247.64 
L 428.614085 208.500309 
L 421.788459 208.500309 
z
" style="fill:#1f77b4;fill-opacity:0.75;stroke:#000000;stroke-linejoin:miter;stroke-width:0.610294;"/>
   </g>
   <g id="patch_49">
    <path clip-path="url(#p1278a29c7e)" d="M 428.614085 247.64 
L 435.439712 247.64 
L 435.439712 216.988435 
L 428.614085 216.988435 
z
" style="fill:#1f77b4;fill-opacity:0.75;stroke:#000000;stroke-linejoin:miter;stroke-width:0.610294;"/>
   </g>
   <g id="patch_50">
    <path clip-path="url(#p1278a29c7e)" d="M 435.439712 247.64 
L 442.265338 247.64 
L 442.265338 225.004998 
L 435.439712 225.004998 
z
" style="fill:#1f77b4;fill-opacity:0.75;stroke:#000000;stroke-linejoin:miter;stroke-width:0.610294;"/>
   </g>
   <g id="patch_51">
    <path clip-path="url(#p1278a29c7e)" d="M 442.265338 247.64 
L 449.090965 247.64 
L 449.090965 224.061873 
L 442.265338 224.061873 
z
" style="fill:#1f77b4;fill-opacity:0.75;stroke:#000000;stroke-linejoin:miter;stroke-width:0.610294;"/>
   </g>
   <g id="patch_52">
    <path clip-path="url(#p1278a29c7e)" d="M 449.090965 247.64 
L 455.916592 247.64 
L 455.916592 230.192186 
L 449.090965 230.192186 
z
" style="fill:#1f77b4;fill-opacity:0.75;stroke:#000000;stroke-linejoin:miter;stroke-width:0.610294;"/>
   </g>
   <g id="patch_53">
    <path clip-path="url(#p1278a29c7e)" d="M 455.916592 247.64 
L 462.742218 247.64 
L 462.742218 232.549999 
L 455.916592 232.549999 
z
" style="fill:#1f77b4;fill-opacity:0.75;stroke:#000000;stroke-linejoin:miter;stroke-width:0.610294;"/>
   </g>
   <g id="patch_54">
    <path clip-path="url(#p1278a29c7e)" d="M 462.742218 247.64 
L 469.567845 247.64 
L 469.567845 241.98125 
L 462.742218 241.98125 
z
" style="fill:#1f77b4;fill-opacity:0.75;stroke:#000000;stroke-linejoin:miter;stroke-width:0.610294;"/>
   </g>
   <g id="patch_55">
    <path clip-path="url(#p1278a29c7e)" d="M 469.567845 247.64 
L 476.393472 247.64 
L 476.393472 240.094999 
L 469.567845 240.094999 
z
" style="fill:#1f77b4;fill-opacity:0.75;stroke:#000000;stroke-linejoin:miter;stroke-width:0.610294;"/>
   </g>
   <g id="patch_56">
    <path clip-path="url(#p1278a29c7e)" d="M 476.393472 247.64 
L 483.219098 247.64 
L 483.219098 243.395937 
L 476.393472 243.395937 
z
" style="fill:#1f77b4;fill-opacity:0.75;stroke:#000000;stroke-linejoin:miter;stroke-width:0.610294;"/>
   </g>
   <g id="patch_57">
    <path clip-path="url(#p1278a29c7e)" d="M 483.219098 247.64 
L 490.044725 247.64 
L 490.044725 245.75375 
L 483.219098 245.75375 
z
" style="fill:#1f77b4;fill-opacity:0.75;stroke:#000000;stroke-linejoin:miter;stroke-width:0.610294;"/>
   </g>
   <g id="patch_58">
    <path clip-path="url(#p1278a29c7e)" d="M 490.044725 247.64 
L 496.870351 247.64 
L 496.870351 244.810625 
L 490.044725 244.810625 
z
" style="fill:#1f77b4;fill-opacity:0.75;stroke:#000000;stroke-linejoin:miter;stroke-width:0.610294;"/>
   </g>
   <g id="patch_59">
    <path clip-path="url(#p1278a29c7e)" d="M 496.870351 247.64 
L 503.695978 247.64 
L 503.695978 247.168437 
L 496.870351 247.168437 
z
" style="fill:#1f77b4;fill-opacity:0.75;stroke:#000000;stroke-linejoin:miter;stroke-width:0.610294;"/>
   </g>
   <g id="patch_60">
    <path clip-path="url(#p1278a29c7e)" d="M 503.695978 247.64 
L 510.521605 247.64 
L 510.521605 246.696875 
L 503.695978 246.696875 
z
" style="fill:#1f77b4;fill-opacity:0.75;stroke:#000000;stroke-linejoin:miter;stroke-width:0.610294;"/>
   </g>
   <g id="patch_61">
    <path clip-path="url(#p1278a29c7e)" d="M 510.521605 247.64 
L 517.347231 247.64 
L 517.347231 247.168437 
L 510.521605 247.168437 
z
" style="fill:#1f77b4;fill-opacity:0.75;stroke:#000000;stroke-linejoin:miter;stroke-width:0.610294;"/>
   </g>
   <g id="patch_62">
    <path clip-path="url(#p1278a29c7e)" d="M 517.347231 247.64 
L 524.172858 247.64 
L 524.172858 245.282187 
L 517.347231 245.282187 
z
" style="fill:#1f77b4;fill-opacity:0.75;stroke:#000000;stroke-linejoin:miter;stroke-width:0.610294;"/>
   </g>
   <g id="patch_63">
    <path clip-path="url(#p1278a29c7e)" d="M 524.172858 247.64 
L 530.998485 247.64 
L 530.998485 247.168437 
L 524.172858 247.168437 
z
" style="fill:#1f77b4;fill-opacity:0.75;stroke:#000000;stroke-linejoin:miter;stroke-width:0.610294;"/>
   </g>
   <g id="patch_64">
    <path clip-path="url(#p1278a29c7e)" d="M 530.998485 247.64 
L 537.824111 247.64 
L 537.824111 246.696875 
L 530.998485 246.696875 
z
" style="fill:#1f77b4;fill-opacity:0.75;stroke:#000000;stroke-linejoin:miter;stroke-width:0.610294;"/>
   </g>
   <g id="patch_65">
    <path clip-path="url(#p1278a29c7e)" d="M 537.824111 247.64 
L 544.649738 247.64 
L 544.649738 247.168437 
L 537.824111 247.168437 
z
" style="fill:#1f77b4;fill-opacity:0.75;stroke:#000000;stroke-linejoin:miter;stroke-width:0.610294;"/>
   </g>
   <g id="matplotlib.axis_3">
    <g id="xtick_6">
     <g id="line2d_11">
      <g>
       <use style="stroke:#000000;stroke-width:0.8;" x="330.984857" xlink:href="#m607a43ea68" y="247.64"/>
      </g>
     </g>
     <g id="text_14">
      <!-- 0.00 -->
      <g transform="translate(319.852045 262.238437)scale(0.1 -0.1)">
       <use xlink:href="#DejaVuSans-30"/>
       <use x="63.623047" xlink:href="#DejaVuSans-2e"/>
       <use x="95.410156" xlink:href="#DejaVuSans-30"/>
       <use x="159.033203" xlink:href="#DejaVuSans-30"/>
      </g>
     </g>
    </g>
    <g id="xtick_7">
     <g id="line2d_12">
      <g>
       <use style="stroke:#000000;stroke-width:0.8;" x="385.630896" xlink:href="#m607a43ea68" y="247.64"/>
      </g>
     </g>
     <g id="text_15">
      <!-- 0.05 -->
      <g transform="translate(374.498083 262.238437)scale(0.1 -0.1)">
       <use xlink:href="#DejaVuSans-30"/>
       <use x="63.623047" xlink:href="#DejaVuSans-2e"/>
       <use x="95.410156" xlink:href="#DejaVuSans-30"/>
       <use x="159.033203" xlink:href="#DejaVuSans-35"/>
      </g>
     </g>
    </g>
    <g id="xtick_8">
     <g id="line2d_13">
      <g>
       <use style="stroke:#000000;stroke-width:0.8;" x="440.276935" xlink:href="#m607a43ea68" y="247.64"/>
      </g>
     </g>
     <g id="text_16">
      <!-- 0.10 -->
      <g transform="translate(429.144122 262.238437)scale(0.1 -0.1)">
       <use xlink:href="#DejaVuSans-30"/>
       <use x="63.623047" xlink:href="#DejaVuSans-2e"/>
       <use x="95.410156" xlink:href="#DejaVuSans-31"/>
       <use x="159.033203" xlink:href="#DejaVuSans-30"/>
      </g>
     </g>
    </g>
    <g id="xtick_9">
     <g id="line2d_14">
      <g>
       <use style="stroke:#000000;stroke-width:0.8;" x="494.922973" xlink:href="#m607a43ea68" y="247.64"/>
      </g>
     </g>
     <g id="text_17">
      <!-- 0.15 -->
      <g transform="translate(483.790161 262.238437)scale(0.1 -0.1)">
       <use xlink:href="#DejaVuSans-30"/>
       <use x="63.623047" xlink:href="#DejaVuSans-2e"/>
       <use x="95.410156" xlink:href="#DejaVuSans-31"/>
       <use x="159.033203" xlink:href="#DejaVuSans-35"/>
      </g>
     </g>
    </g>
    <g id="xtick_10">
     <g id="line2d_15">
      <g>
       <use style="stroke:#000000;stroke-width:0.8;" x="549.569012" xlink:href="#m607a43ea68" y="247.64"/>
      </g>
     </g>
     <g id="text_18">
      <!-- 0.20 -->
      <g transform="translate(538.4362 262.238437)scale(0.1 -0.1)">
       <use xlink:href="#DejaVuSans-30"/>
       <use x="63.623047" xlink:href="#DejaVuSans-2e"/>
       <use x="95.410156" xlink:href="#DejaVuSans-32"/>
       <use x="159.033203" xlink:href="#DejaVuSans-30"/>
      </g>
     </g>
    </g>
    <g id="text_19">
     <!-- rsd -->
     <g transform="translate(435.199703 275.916562)scale(0.1 -0.1)">
      <use xlink:href="#DejaVuSans-72"/>
      <use x="41.113281" xlink:href="#DejaVuSans-73"/>
      <use x="93.212891" xlink:href="#DejaVuSans-64"/>
     </g>
    </g>
   </g>
   <g id="matplotlib.axis_4">
    <g id="ytick_6">
     <g id="line2d_16">
      <g>
       <use style="stroke:#000000;stroke-width:0.8;" x="329.565625" xlink:href="#m30af75ba49" y="247.64"/>
      </g>
     </g>
     <g id="text_20">
      <!-- 0 -->
      <g transform="translate(316.203125 251.439219)scale(0.1 -0.1)">
       <use xlink:href="#DejaVuSans-30"/>
      </g>
     </g>
    </g>
    <g id="ytick_7">
     <g id="line2d_17">
      <g>
       <use style="stroke:#000000;stroke-width:0.8;" x="329.565625" xlink:href="#m30af75ba49" y="224.061873"/>
      </g>
     </g>
     <g id="text_21">
      <!-- 50 -->
      <g transform="translate(309.840625 227.861092)scale(0.1 -0.1)">
       <use xlink:href="#DejaVuSans-35"/>
       <use x="63.623047" xlink:href="#DejaVuSans-30"/>
      </g>
     </g>
    </g>
    <g id="ytick_8">
     <g id="line2d_18">
      <g>
       <use style="stroke:#000000;stroke-width:0.8;" x="329.565625" xlink:href="#m30af75ba49" y="200.483746"/>
      </g>
     </g>
     <g id="text_22">
      <!-- 100 -->
      <g transform="translate(303.478125 204.282965)scale(0.1 -0.1)">
       <use xlink:href="#DejaVuSans-31"/>
       <use x="63.623047" xlink:href="#DejaVuSans-30"/>
       <use x="127.246094" xlink:href="#DejaVuSans-30"/>
      </g>
     </g>
    </g>
    <g id="ytick_9">
     <g id="line2d_19">
      <g>
       <use style="stroke:#000000;stroke-width:0.8;" x="329.565625" xlink:href="#m30af75ba49" y="176.905619"/>
      </g>
     </g>
     <g id="text_23">
      <!-- 150 -->
      <g transform="translate(303.478125 180.704838)scale(0.1 -0.1)">
       <use xlink:href="#DejaVuSans-31"/>
       <use x="63.623047" xlink:href="#DejaVuSans-35"/>
       <use x="127.246094" xlink:href="#DejaVuSans-30"/>
      </g>
     </g>
    </g>
    <g id="ytick_10">
     <g id="line2d_20">
      <g>
       <use style="stroke:#000000;stroke-width:0.8;" x="329.565625" xlink:href="#m30af75ba49" y="153.327492"/>
      </g>
     </g>
     <g id="text_24">
      <!-- 200 -->
      <g transform="translate(303.478125 157.126711)scale(0.1 -0.1)">
       <use xlink:href="#DejaVuSans-32"/>
       <use x="63.623047" xlink:href="#DejaVuSans-30"/>
       <use x="127.246094" xlink:href="#DejaVuSans-30"/>
      </g>
     </g>
    </g>
    <g id="ytick_11">
     <g id="line2d_21">
      <g>
       <use style="stroke:#000000;stroke-width:0.8;" x="329.565625" xlink:href="#m30af75ba49" y="129.749365"/>
      </g>
     </g>
     <g id="text_25">
      <!-- 250 -->
      <g transform="translate(303.478125 133.548584)scale(0.1 -0.1)">
       <use xlink:href="#DejaVuSans-32"/>
       <use x="63.623047" xlink:href="#DejaVuSans-35"/>
       <use x="127.246094" xlink:href="#DejaVuSans-30"/>
      </g>
     </g>
    </g>
    <g id="ytick_12">
     <g id="line2d_22">
      <g>
       <use style="stroke:#000000;stroke-width:0.8;" x="329.565625" xlink:href="#m30af75ba49" y="106.171239"/>
      </g>
     </g>
     <g id="text_26">
      <!-- 300 -->
      <g transform="translate(303.478125 109.970457)scale(0.1 -0.1)">
       <use xlink:href="#DejaVuSans-33"/>
       <use x="63.623047" xlink:href="#DejaVuSans-30"/>
       <use x="127.246094" xlink:href="#DejaVuSans-30"/>
      </g>
     </g>
    </g>
    <g id="ytick_13">
     <g id="line2d_23">
      <g>
       <use style="stroke:#000000;stroke-width:0.8;" x="329.565625" xlink:href="#m30af75ba49" y="82.593112"/>
      </g>
     </g>
     <g id="text_27">
      <!-- 350 -->
      <g transform="translate(303.478125 86.39233)scale(0.1 -0.1)">
       <use xlink:href="#DejaVuSans-33"/>
       <use x="63.623047" xlink:href="#DejaVuSans-35"/>
       <use x="127.246094" xlink:href="#DejaVuSans-30"/>
      </g>
     </g>
    </g>
    <g id="ytick_14">
     <g id="line2d_24">
      <g>
       <use style="stroke:#000000;stroke-width:0.8;" x="329.565625" xlink:href="#m30af75ba49" y="59.014985"/>
      </g>
     </g>
     <g id="text_28">
      <!-- 400 -->
      <g transform="translate(303.478125 62.814204)scale(0.1 -0.1)">
       <defs>
        <path d="M 2419 4116 
L 825 1625 
L 2419 1625 
L 2419 4116 
z
M 2253 4666 
L 3047 4666 
L 3047 1625 
L 3713 1625 
L 3713 1100 
L 3047 1100 
L 3047 0 
L 2419 0 
L 2419 1100 
L 313 1100 
L 313 1709 
L 2253 4666 
z
" id="DejaVuSans-34" transform="scale(0.015625)"/>
       </defs>
       <use xlink:href="#DejaVuSans-34"/>
       <use x="63.623047" xlink:href="#DejaVuSans-30"/>
       <use x="127.246094" xlink:href="#DejaVuSans-30"/>
      </g>
     </g>
    </g>
    <g id="text_29">
     <!-- Count -->
     <g transform="translate(297.398437 165.688437)rotate(-90)scale(0.1 -0.1)">
      <use xlink:href="#DejaVuSans-43"/>
      <use x="69.824219" xlink:href="#DejaVuSans-6f"/>
      <use x="131.005859" xlink:href="#DejaVuSans-75"/>
      <use x="194.384766" xlink:href="#DejaVuSans-6e"/>
      <use x="257.763672" xlink:href="#DejaVuSans-74"/>
     </g>
    </g>
   </g>
   <g id="patch_66">
    <path d="M 329.565625 247.64 
L 329.565625 54.04 
" style="fill:none;stroke:#000000;stroke-linecap:square;stroke-linejoin:miter;stroke-width:0.8;"/>
   </g>
   <g id="patch_67">
    <path d="M 329.565625 247.64 
L 556.502531 247.64 
" style="fill:none;stroke:#000000;stroke-linecap:square;stroke-linejoin:miter;stroke-width:0.8;"/>
   </g>
   <g id="text_30">
    <!-- CD 3.3 -->
    <g transform="translate(422.77564 48.04)scale(0.12 -0.12)">
     <use xlink:href="#DejaVuSans-43"/>
     <use x="69.824219" xlink:href="#DejaVuSans-44"/>
     <use x="146.826172" xlink:href="#DejaVuSans-20"/>
     <use x="178.613281" xlink:href="#DejaVuSans-33"/>
     <use x="242.236328" xlink:href="#DejaVuSans-2e"/>
     <use x="274.023438" xlink:href="#DejaVuSans-33"/>
    </g>
   </g>
  </g>
  <g id="text_31">
   <!-- RSD distributions -->
   <g transform="translate(215.069375 19.3575)scale(0.16 -0.16)">
    <defs>
     <path d="M 2841 2188 
Q 3044 2119 3236 1894 
Q 3428 1669 3622 1275 
L 4263 0 
L 3584 0 
L 2988 1197 
Q 2756 1666 2539 1819 
Q 2322 1972 1947 1972 
L 1259 1972 
L 1259 0 
L 628 0 
L 628 4666 
L 2053 4666 
Q 2853 4666 3247 4331 
Q 3641 3997 3641 3322 
Q 3641 2881 3436 2590 
Q 3231 2300 2841 2188 
z
M 1259 4147 
L 1259 2491 
L 2053 2491 
Q 2509 2491 2742 2702 
Q 2975 2913 2975 3322 
Q 2975 3731 2742 3939 
Q 2509 4147 2053 4147 
L 1259 4147 
z
" id="DejaVuSans-52" transform="scale(0.015625)"/>
     <path d="M 3425 4513 
L 3425 3897 
Q 3066 4069 2747 4153 
Q 2428 4238 2131 4238 
Q 1616 4238 1336 4038 
Q 1056 3838 1056 3469 
Q 1056 3159 1242 3001 
Q 1428 2844 1947 2747 
L 2328 2669 
Q 3034 2534 3370 2195 
Q 3706 1856 3706 1288 
Q 3706 609 3251 259 
Q 2797 -91 1919 -91 
Q 1588 -91 1214 -16 
Q 841 59 441 206 
L 441 856 
Q 825 641 1194 531 
Q 1563 422 1919 422 
Q 2459 422 2753 634 
Q 3047 847 3047 1241 
Q 3047 1584 2836 1778 
Q 2625 1972 2144 2069 
L 1759 2144 
Q 1053 2284 737 2584 
Q 422 2884 422 3419 
Q 422 4038 858 4394 
Q 1294 4750 2059 4750 
Q 2388 4750 2728 4690 
Q 3069 4631 3425 4513 
z
" id="DejaVuSans-53" transform="scale(0.015625)"/>
     <path d="M 603 3500 
L 1178 3500 
L 1178 0 
L 603 0 
L 603 3500 
z
M 603 4863 
L 1178 4863 
L 1178 4134 
L 603 4134 
L 603 4863 
z
" id="DejaVuSans-69" transform="scale(0.015625)"/>
     <path d="M 3116 1747 
Q 3116 2381 2855 2742 
Q 2594 3103 2138 3103 
Q 1681 3103 1420 2742 
Q 1159 2381 1159 1747 
Q 1159 1113 1420 752 
Q 1681 391 2138 391 
Q 2594 391 2855 752 
Q 3116 1113 3116 1747 
z
M 1159 2969 
Q 1341 3281 1617 3432 
Q 1894 3584 2278 3584 
Q 2916 3584 3314 3078 
Q 3713 2572 3713 1747 
Q 3713 922 3314 415 
Q 2916 -91 2278 -91 
Q 1894 -91 1617 61 
Q 1341 213 1159 525 
L 1159 0 
L 581 0 
L 581 4863 
L 1159 4863 
L 1159 2969 
z
" id="DejaVuSans-62" transform="scale(0.015625)"/>
    </defs>
    <use xlink:href="#DejaVuSans-52"/>
    <use x="69.482422" xlink:href="#DejaVuSans-53"/>
    <use x="132.958984" xlink:href="#DejaVuSans-44"/>
    <use x="209.960938" xlink:href="#DejaVuSans-20"/>
    <use x="241.748047" xlink:href="#DejaVuSans-64"/>
    <use x="305.224609" xlink:href="#DejaVuSans-69"/>
    <use x="333.007812" xlink:href="#DejaVuSans-73"/>
    <use x="385.107422" xlink:href="#DejaVuSans-74"/>
    <use x="424.316406" xlink:href="#DejaVuSans-72"/>
    <use x="465.429688" xlink:href="#DejaVuSans-69"/>
    <use x="493.212891" xlink:href="#DejaVuSans-62"/>
    <use x="556.689453" xlink:href="#DejaVuSans-75"/>
    <use x="620.068359" xlink:href="#DejaVuSans-74"/>
    <use x="659.277344" xlink:href="#DejaVuSans-69"/>
    <use x="687.060547" xlink:href="#DejaVuSans-6f"/>
    <use x="748.242188" xlink:href="#DejaVuSans-6e"/>
    <use x="811.621094" xlink:href="#DejaVuSans-73"/>
   </g>
  </g>
 </g>
 <defs>
  <clipPath id="pf117fef155">
   <rect height="193.6" width="226.936906" x="46.965625" y="54.04"/>
  </clipPath>
  <clipPath id="p1278a29c7e">
   <rect height="193.6" width="226.936906" x="329.565625" y="54.04"/>
  </clipPath>
 </defs>
</svg>
