<?xml version="1.0" encoding="utf-8" standalone="no"?>
<!DOCTYPE svg PUBLIC "-//W3C//DTD SVG 1.1//EN"
  "http://www.w3.org/Graphics/SVG/1.1/DTD/svg11.dtd">
<svg height="360pt" version="1.1" viewBox="0 0 360 360" width="360pt" xmlns="http://www.w3.org/2000/svg" xmlns:xlink="http://www.w3.org/1999/xlink">
 <metadata>
  <rdf:RDF xmlns:cc="http://creativecommons.org/ns#" xmlns:dc="http://purl.org/dc/elements/1.1/" xmlns:rdf="http://www.w3.org/1999/02/22-rdf-syntax-ns#">
   <cc:Work>
    <dc:type rdf:resource="http://purl.org/dc/dcmitype/StillImage"/>
    <dc:date>2022-02-21T10:04:38.030423</dc:date>
    <dc:format>image/svg+xml</dc:format>
    <dc:creator>
     <cc:Agent>
      <dc:title>Matplotlib v3.4.2, https://matplotlib.org/</dc:title>
     </cc:Agent>
    </dc:creator>
   </cc:Work>
  </rdf:RDF>
 </metadata>
 <defs>
  <style type="text/css">*{stroke-linecap:butt;stroke-linejoin:round;}</style>
 </defs>
 <g id="figure_1">
  <g id="patch_1">
   <path d="M 0 360 
L 360 360 
L 360 0 
L 0 0 
z
" style="fill:#ffffff;"/>
  </g>
  <g id="axes_1">
   <g id="matplotlib.axis_1"/>
   <g id="matplotlib.axis_2"/>
   <g id="patch_2">
    <path d="M 308.787419 181.441788 
C 308.787419 164.617195 305.431906 147.960326 298.917663 132.448022 
C 292.403419 116.935717 282.860328 102.877262 270.848041 91.097113 
C 258.835754 79.316964 244.593774 70.049993 228.957318 63.839662 
C 213.320863 57.62933 196.601693 54.59946 179.780303 54.927736 
C 162.958912 55.256012 146.370686 58.935891 130.988439 65.751565 
C 115.606191 72.56724 101.736615 82.382819 90.193088 94.62267 
C 78.649562 106.86252 69.662241 121.282604 63.758185 137.037257 
C 57.85413 152.791909 55.151055 169.567014 55.807483 186.378797 
L 119.02838 183.910293 
C 118.700166 175.504401 120.051704 167.116849 123.003731 159.239523 
C 125.955759 151.362196 130.449419 144.152154 136.221183 138.032229 
C 141.992946 131.912304 148.927734 127.004514 156.618858 123.596677 
C 164.309982 120.18884 172.604095 118.3489 181.01479 118.184762 
C 189.425485 118.020624 197.78507 119.535559 205.603298 122.640725 
C 213.421525 125.745891 220.542516 130.379376 226.548659 136.269451 
C 232.554803 142.159525 237.326348 149.188753 240.58347 156.944905 
C 243.840591 164.701057 245.518348 173.029492 245.518348 181.441788 
L 308.787419 181.441788 
z
" style="fill:#092436;opacity:0.5;stroke:#092436;stroke-linejoin:miter;"/>
   </g>
   <g id="patch_3">
    <path d="M 55.807483 186.378797 
C 56.671324 208.502622 63.326811 230.017072 75.106362 248.764125 
C 86.885913 267.511178 103.382051 282.84234 122.940119 293.219806 
C 142.498187 303.597271 164.441636 308.662066 186.569411 307.906162 
C 208.697186 307.150258 230.243848 300.599803 249.048142 288.911845 
L 215.648709 235.176817 
C 206.246562 241.020796 195.473232 244.296023 184.409344 244.673975 
C 173.345457 245.051927 162.373732 242.51953 152.594698 237.330797 
C 142.815664 232.142064 134.567595 224.476483 128.67782 215.102957 
C 122.788044 205.72943 119.4603 194.972205 119.02838 183.910293 
L 55.807483 186.378797 
z
" style="fill:#4c2604;opacity:0.5;stroke:#4c2604;stroke-linejoin:miter;"/>
   </g>
   <g id="patch_4">
    <path d="M 249.048142 288.911845 
C 259.552135 282.383005 269.042428 274.349323 277.215894 265.067401 
C 285.38936 255.785478 292.158042 245.355202 297.305742 234.109723 
L 239.777509 207.775756 
C 237.203659 213.398495 233.819319 218.613633 229.732586 223.254595 
C 225.645853 227.895556 220.900706 231.912397 215.648709 235.176817 
L 249.048142 288.911845 
z
" style="fill:#0d300d;opacity:0.5;stroke:#0d300d;stroke-linejoin:miter;"/>
   </g>
   <g id="patch_5">
    <path d="M 297.305742 234.109723 
C 300.390849 227.370108 302.877824 220.372435 304.737963 213.197467 
C 306.598102 206.022498 307.824222 198.697943 308.402171 191.308338 
L 245.325724 186.375063 
C 245.03675 190.069866 244.42369 193.732143 243.49362 197.319628 
C 242.563551 200.907112 241.320063 204.405948 239.777509 207.775756 
L 297.305742 234.109723 
z
" style="fill:#400c0c;opacity:0.5;stroke:#400c0c;stroke-linejoin:miter;"/>
   </g>
   <g id="patch_6">
    <path d="M 308.402171 191.308338 
C 308.530525 189.667205 308.626843 188.023724 308.69107 186.378833 
C 308.755296 184.733942 308.787419 183.087954 308.787419 181.441809 
L 245.518348 181.441799 
C 245.518348 182.264871 245.502287 183.087865 245.470174 183.910311 
C 245.43806 184.732756 245.389901 185.554497 245.325724 186.375063 
L 308.402171 191.308338 
z
" style="fill:#2c1f39;opacity:0.5;stroke:#2c1f39;stroke-linejoin:miter;"/>
   </g>
   <g id="patch_7">
    <path d="M 311.318182 178.911026 
C 311.318182 162.086432 307.962668 145.429563 301.448425 129.917259 
C 294.934182 114.404954 285.391091 100.346499 273.378804 88.56635 
C 261.366517 76.786201 247.124537 67.51923 231.488081 61.308899 
C 215.851626 55.098567 199.132456 52.068697 182.311066 52.396973 
C 165.489675 52.72525 148.901449 56.405128 133.519201 63.220802 
C 118.136954 70.036477 104.267378 79.852056 92.723851 92.091907 
C 81.180325 104.331758 72.193003 118.751841 66.288948 134.506494 
C 60.384893 150.261147 57.681818 167.036251 58.338246 183.848034 
L 121.559143 181.37953 
C 121.230929 172.973638 122.582466 164.586086 125.534494 156.70876 
C 128.486522 148.831433 132.980182 141.621392 138.751946 135.501466 
C 144.523709 129.381541 151.458497 124.473751 159.149621 121.065914 
C 166.840744 117.658077 175.134857 115.818138 183.545553 115.653999 
C 191.956248 115.489861 200.315833 117.004797 208.134061 120.109962 
C 215.952288 123.215128 223.073279 127.848613 229.079422 133.738688 
C 235.085565 139.628763 239.857111 146.65799 243.114233 154.414142 
C 246.371354 162.170294 248.049111 170.498729 248.049111 178.911026 
L 311.318182 178.911026 
z
" style="fill:#2ca02c;stroke:#ffffff;stroke-linejoin:miter;"/>
   </g>
   <g id="patch_8">
    <path d="M 58.338246 183.848034 
C 59.202086 205.971859 65.857574 227.486309 77.637125 246.233362 
C 89.416676 264.980416 105.912814 280.311577 125.470882 290.689043 
C 145.02895 301.066509 166.972399 306.131303 189.100174 305.375399 
C 211.227949 304.619495 232.774611 298.06904 251.578904 286.381082 
L 218.179472 232.646054 
C 208.777325 238.490033 198.003995 241.76526 186.940107 242.143212 
C 175.876219 242.521164 164.904495 239.988767 155.125461 234.800034 
C 145.346427 229.611301 137.098358 221.945721 131.208582 212.572194 
C 125.318807 203.198667 121.991063 192.441442 121.559143 181.37953 
L 58.338246 183.848034 
z
" style="fill:#9467bd;stroke:#ffffff;stroke-linejoin:miter;"/>
   </g>
   <g id="patch_9">
    <path d="M 251.578904 286.381082 
C 262.082898 279.852242 271.573191 271.81856 279.746657 262.536638 
C 287.920123 253.254715 294.688804 242.82444 299.836505 231.57896 
L 242.308272 205.244993 
C 239.734422 210.867733 236.350082 216.082871 232.263348 220.723832 
C 228.176615 225.364793 223.431469 229.381634 218.179472 232.646054 
L 251.578904 286.381082 
z
" style="fill:#ff7f0e;stroke:#ffffff;stroke-linejoin:miter;"/>
   </g>
   <g id="patch_10">
    <path d="M 299.836505 231.57896 
C 302.921612 224.839345 305.408587 217.841672 307.268726 210.666704 
C 309.128865 203.491735 310.354985 196.167181 310.932933 188.777575 
L 247.856487 183.8443 
C 247.567512 187.539103 246.954453 191.20138 246.024383 194.788865 
C 245.094314 198.376349 243.850826 201.875185 242.308272 205.244993 
L 299.836505 231.57896 
z
" style="fill:#d62728;stroke:#ffffff;stroke-linejoin:miter;"/>
   </g>
   <g id="patch_11">
    <path d="M 310.932933 188.777575 
C 311.061288 187.136442 311.157606 185.492961 311.221833 183.84807 
C 311.286059 182.203179 311.318182 180.557191 311.318182 178.911046 
L 248.049111 178.911036 
C 248.049111 179.734108 248.03305 180.557102 248.000936 181.379548 
C 247.968823 182.201993 247.920664 183.023734 247.856487 183.8443 
L 310.932933 188.777575 
z
" style="fill:#1f77b4;stroke:#ffffff;stroke-linejoin:miter;"/>
   </g>
   <g id="text_1">
    <text style="fill:#262626;font-family:Arial;font-size:15px;font-stretch:normal;font-style:normal;font-weight:normal;text-anchor:end;" transform="rotate(-0, 181.446925, 11.994789)" x="181.446925" y="11.994789">Phospholipid</text>
   </g>
   <g id="text_2">
    <text style="fill:#262626;font-family:Arial;font-size:15px;font-stretch:normal;font-style:normal;font-weight:normal;text-anchor:middle;" transform="rotate(-0, 181.940719, 37.2976)" x="181.940719" y="37.2976">163</text>
   </g>
   <g id="text_3">
    <text style="fill:#262626;font-family:Arial;font-size:15px;font-stretch:normal;font-style:normal;font-weight:normal;text-anchor:end;" transform="rotate(-0, 104.712677, 333.692599)" x="104.712677" y="333.692599">Glycerolipid</text>
   </g>
   <g id="text_4">
    <text style="fill:#262626;font-family:Arial;font-size:15px;font-stretch:normal;font-style:normal;font-weight:normal;text-anchor:middle;" transform="rotate(-0, 116.574508, 311.33348)" x="116.574508" y="311.33348">107</text>
   </g>
   <g id="text_5">
    <text style="fill:#262626;font-family:Arial;font-size:15px;font-stretch:normal;font-style:normal;font-weight:normal;text-anchor:start;" transform="rotate(-0, 312.984973, 295.686852)" x="312.984973" y="295.686852">Sphingolipid</text>
   </g>
   <g id="text_6">
    <text style="fill:#262626;font-family:Arial;font-size:15px;font-stretch:normal;font-style:normal;font-weight:normal;text-anchor:middle;" transform="rotate(-0, 293.991649, 278.958214)" x="293.991649" y="278.958214">30</text>
   </g>
   <g id="text_7">
    <text style="fill:#262626;font-family:Arial;font-size:15px;font-stretch:normal;font-style:normal;font-weight:normal;text-anchor:start;" transform="rotate(-0, 350.139766, 225.571035)" x="350.139766" y="225.571035">Fatty Acyl</text>
   </g>
   <g id="text_8">
    <text style="fill:#262626;font-family:Arial;font-size:15px;font-stretch:normal;font-style:normal;font-weight:normal;text-anchor:middle;" transform="rotate(-0, 325.642029, 219.30779)" x="325.642029" y="219.30779">18</text>
   </g>
   <g id="text_9">
    <text style="fill:#262626;font-family:Arial;font-size:15px;font-stretch:normal;font-style:normal;font-weight:normal;text-anchor:start;" transform="rotate(-0, 355.47646, 189.545176)" x="355.47646" y="189.545176">Sterol Lipid</text>
   </g>
   <g id="text_10">
    <text style="fill:#262626;font-family:Arial;font-size:15px;font-stretch:normal;font-style:normal;font-weight:normal;text-anchor:middle;" transform="rotate(-0, 330.188102, 188.466361)" x="330.188102" y="188.466361">4</text>
   </g>
  </g>
 </g>
</svg>
