<?xml version="1.0" encoding="utf-8" standalone="no"?>
<!DOCTYPE svg PUBLIC "-//W3C//DTD SVG 1.1//EN"
  "http://www.w3.org/Graphics/SVG/1.1/DTD/svg11.dtd">
<svg height="360pt" version="1.1" viewBox="0 0 360 360" width="360pt" xmlns="http://www.w3.org/2000/svg" xmlns:xlink="http://www.w3.org/1999/xlink">
 <metadata>
  <rdf:RDF xmlns:cc="http://creativecommons.org/ns#" xmlns:dc="http://purl.org/dc/elements/1.1/" xmlns:rdf="http://www.w3.org/1999/02/22-rdf-syntax-ns#">
   <cc:Work>
    <dc:type rdf:resource="http://purl.org/dc/dcmitype/StillImage"/>
    <dc:date>2022-02-01T11:15:14.504652</dc:date>
    <dc:format>image/svg+xml</dc:format>
    <dc:creator>
     <cc:Agent>
      <dc:title>Matplotlib v3.4.2, https://matplotlib.org/</dc:title>
     </cc:Agent>
    </dc:creator>
   </cc:Work>
  </rdf:RDF>
 </metadata>
 <defs>
  <style type="text/css">*{stroke-linecap:butt;stroke-linejoin:round;}</style>
 </defs>
 <g id="figure_1">
  <g id="patch_1">
   <path d="M 0 360 
L 360 360 
L 360 0 
L 0 0 
z
" style="fill:#ffffff;"/>
  </g>
  <g id="axes_1">
   <g id="matplotlib.axis_1"/>
   <g id="matplotlib.axis_2"/>
   <g id="patch_2">
    <path d="M 291.0456 181.2744 
C 291.0456 166.818918 288.162585 152.507543 282.565628 139.179564 
C 276.968671 125.851585 268.769365 113.772735 258.448558 103.651377 
C 248.12775 93.530019 235.891217 85.567953 222.456569 80.232113 
C 209.021921 74.896273 194.657018 72.293046 180.204288 72.575097 
C 165.751558 72.857148 151.49916 76.018854 138.282924 81.874797 
C 125.066688 87.73074 113.15012 96.164164 103.232066 106.680491 
C 93.314011 117.196819 85.592216 129.586376 80.519525 143.122578 
C 75.446834 156.65878 73.124386 171.071741 73.688381 185.516217 
L 128.00699 183.395308 
C 127.724993 176.173071 128.886217 168.96659 131.422563 162.198489 
C 133.958908 155.430388 137.819805 149.23561 142.778833 143.977446 
C 147.73786 138.719282 153.696144 134.50257 160.304262 131.574598 
C 166.91238 128.646627 174.038579 127.065774 181.264944 126.924749 
C 188.491309 126.783723 195.67376 128.085337 202.391084 130.753257 
C 209.108409 133.421176 215.226675 137.402209 220.387079 142.462888 
C 225.547483 147.523567 229.647136 153.562992 232.445614 160.226982 
C 235.244092 166.890972 236.6856 174.046659 236.6856 181.2744 
L 291.0456 181.2744 
z
" style="fill:#092436;opacity:0.5;stroke:#092436;stroke-linejoin:miter;"/>
   </g>
   <g id="patch_3">
    <path d="M 73.688381 185.516217 
C 74.430582 204.524732 80.148894 223.00968 90.269738 239.116916 
C 100.390582 255.224151 114.563859 268.396494 131.367908 277.312684 
C 148.171957 286.228874 167.025496 290.580483 186.037405 289.931019 
C 205.049315 289.281556 223.561939 283.653486 239.718355 273.611338 
L 211.021977 227.442869 
C 202.943769 232.463943 193.687457 235.277978 184.181503 235.60271 
C 174.675548 235.927441 165.248779 233.751637 156.846754 229.293542 
C 148.444729 224.835447 141.358091 218.249275 136.297669 210.195658 
C 131.237247 202.14204 128.378091 192.899566 128.00699 183.395308 
L 73.688381 185.516217 
z
" style="fill:#4c2604;opacity:0.5;stroke:#4c2604;stroke-linejoin:miter;"/>
   </g>
   <g id="patch_4">
    <path d="M 239.718355 273.611338 
C 248.743255 268.001839 256.897197 261.0994 263.919738 253.124487 
C 270.942279 245.149575 276.757845 236.188012 281.180686 226.526035 
L 231.753143 203.900217 
C 229.541723 208.731206 226.633939 213.211988 223.122669 217.199444 
C 219.611399 221.1869 215.534428 224.63812 211.021977 227.442869 
L 239.718355 273.611338 
z
" style="fill:#0d300d;opacity:0.5;stroke:#0d300d;stroke-linejoin:miter;"/>
   </g>
   <g id="patch_5">
    <path d="M 281.180686 226.526035 
C 283.831372 220.735442 285.96815 214.723128 287.566358 208.558484 
C 289.164566 202.39384 290.218033 196.100674 290.714599 189.751617 
L 236.5201 185.513008 
C 236.271817 188.687537 235.745083 191.83412 234.945979 194.916442 
C 234.146875 197.998764 233.078486 201.004921 231.753143 203.900217 
L 281.180686 226.526035 
z
" style="fill:#400c0c;opacity:0.5;stroke:#400c0c;stroke-linejoin:miter;"/>
   </g>
   <g id="patch_6">
    <path d="M 290.714599 189.751617 
C 290.82488 188.341576 290.907635 186.929517 290.962818 185.516247 
C 291.018001 184.102977 291.0456 182.688765 291.0456 181.274418 
L 236.6856 181.274409 
C 236.6856 181.981582 236.6718 182.688689 236.644209 183.395324 
C 236.616618 184.101959 236.57524 184.807988 236.5201 185.513008 
L 290.714599 189.751617 
z
" style="fill:#2c1f39;opacity:0.5;stroke:#2c1f39;stroke-linejoin:miter;"/>
   </g>
   <g id="patch_7">
    <path d="M 293.22 179.1 
C 293.22 164.644518 290.336985 150.333143 284.740028 137.005164 
C 279.143071 123.677185 270.943765 111.598335 260.622958 101.476977 
C 250.30215 91.355619 238.065617 83.393553 224.630969 78.057713 
C 211.196321 72.721873 196.831418 70.118646 182.378688 70.400697 
C 167.925958 70.682748 153.67356 73.844454 140.457324 79.700397 
C 127.241088 85.55634 115.32452 93.989764 105.406466 104.506091 
C 95.488411 115.022419 87.766616 127.411976 82.693925 140.948178 
C 77.621234 154.48438 75.298786 168.897341 75.862781 183.341817 
L 130.18139 181.220908 
C 129.899393 173.998671 131.060617 166.79219 133.596963 160.024089 
C 136.133308 153.255988 139.994205 147.06121 144.953233 141.803046 
C 149.91226 136.544882 155.870544 132.32817 162.478662 129.400198 
C 169.08678 126.472227 176.212979 124.891374 183.439344 124.750349 
C 190.665709 124.609323 197.84816 125.910937 204.565484 128.578857 
C 211.282809 131.246776 217.401075 135.227809 222.561479 140.288488 
C 227.721883 145.349167 231.821536 151.388592 234.620014 158.052582 
C 237.418492 164.716572 238.86 171.872259 238.86 179.1 
L 293.22 179.1 
z
" style="fill:#1f77b4;stroke:#ffffff;stroke-linejoin:miter;"/>
   </g>
   <g id="patch_8">
    <path d="M 75.862781 183.341817 
C 76.604982 202.350332 82.323294 220.83528 92.444138 236.942516 
C 102.564982 253.049751 116.738259 266.222094 133.542308 275.138284 
C 150.346357 284.054474 169.199896 288.406083 188.211805 287.756619 
C 207.223715 287.107156 225.736339 281.479086 241.892755 271.436938 
L 213.196377 225.268469 
C 205.118169 230.289543 195.861857 233.103578 186.355903 233.42831 
C 176.849948 233.753041 167.423179 231.577237 159.021154 227.119142 
C 150.619129 222.661047 143.532491 216.074875 138.472069 208.021258 
C 133.411647 199.96764 130.552491 190.725166 130.18139 181.220908 
L 75.862781 183.341817 
z
" style="fill:#ff7f0e;stroke:#ffffff;stroke-linejoin:miter;"/>
   </g>
   <g id="patch_9">
    <path d="M 241.892755 271.436938 
C 250.917655 265.827439 259.071597 258.925 266.094138 250.950087 
C 273.116679 242.975175 278.932245 234.013612 283.355086 224.351635 
L 233.927543 201.725817 
C 231.716123 206.556806 228.808339 211.037588 225.297069 215.025044 
C 221.785799 219.0125 217.708828 222.46372 213.196377 225.268469 
L 241.892755 271.436938 
z
" style="fill:#2ca02c;stroke:#ffffff;stroke-linejoin:miter;"/>
   </g>
   <g id="patch_10">
    <path d="M 283.355086 224.351635 
C 286.005772 218.561042 288.14255 212.548728 289.740758 206.384084 
C 291.338966 200.21944 292.392433 193.926274 292.888999 187.577217 
L 238.6945 183.338608 
C 238.446217 186.513137 237.919483 189.65972 237.120379 192.742042 
C 236.321275 195.824364 235.252886 198.830521 233.927543 201.725817 
L 283.355086 224.351635 
z
" style="fill:#d62728;stroke:#ffffff;stroke-linejoin:miter;"/>
   </g>
   <g id="patch_11">
    <path d="M 292.888999 187.577217 
C 292.99928 186.167176 293.082035 184.755117 293.137218 183.341847 
C 293.192401 181.928577 293.22 180.514365 293.22 179.100018 
L 238.86 179.100009 
C 238.86 179.807182 238.8462 180.514289 238.818609 181.220924 
C 238.791018 181.927559 238.74964 182.633588 238.6945 183.338608 
L 292.888999 187.577217 
z
" style="fill:#9467bd;stroke:#ffffff;stroke-linejoin:miter;"/>
   </g>
   <g id="text_1">
    <text style="fill:#262626;font-family:Arial;font-size:15px;font-stretch:normal;font-style:normal;font-weight:normal;text-anchor:end;" transform="rotate(-0, 181.636229, 36.233676)" x="181.636229" y="36.233676">Phospholipid</text>
   </g>
   <g id="text_2">
    <text style="fill:#262626;font-family:Arial;font-size:15px;font-stretch:normal;font-style:normal;font-weight:normal;text-anchor:middle;" transform="rotate(-0, 182.060491, 57.973536)" x="182.060491" y="57.973536">50.6%</text>
   </g>
   <g id="text_3">
    <text style="fill:#262626;font-family:Arial;font-size:15px;font-stretch:normal;font-style:normal;font-weight:normal;text-anchor:end;" transform="rotate(-0, 115.707116, 312.632934)" x="115.707116" y="312.632934">Glycerolipid</text>
   </g>
   <g id="text_4">
    <text style="fill:#262626;font-family:Arial;font-size:15px;font-stretch:normal;font-style:normal;font-weight:normal;text-anchor:middle;" transform="rotate(-0, 125.898654, 293.421761)" x="125.898654" y="293.421761">33.2%</text>
   </g>
   <g id="text_5">
    <text style="fill:#262626;font-family:Arial;font-size:15px;font-stretch:normal;font-style:normal;font-weight:normal;text-anchor:start;" transform="rotate(-0, 294.652086, 279.978868)" x="294.652086" y="279.978868">Sphingolipid</text>
   </g>
   <g id="text_6">
    <text style="fill:#262626;font-family:Arial;font-size:15px;font-stretch:normal;font-style:normal;font-weight:normal;text-anchor:middle;" transform="rotate(-0, 278.333259, 265.605335)" x="278.333259" y="265.605335">9.3%</text>
   </g>
   <g id="text_7">
    <text style="fill:#262626;font-family:Arial;font-size:15px;font-stretch:normal;font-style:normal;font-weight:normal;text-anchor:start;" transform="rotate(-0, 326.575023, 219.723358)" x="326.575023" y="219.723358">Fatty Acyl</text>
   </g>
   <g id="text_8">
    <text style="fill:#262626;font-family:Arial;font-size:15px;font-stretch:normal;font-style:normal;font-weight:normal;text-anchor:middle;" transform="rotate(-0, 305.526872, 214.354431)" x="305.526872" y="214.354431">5.6%</text>
   </g>
   <g id="text_9">
    <text style="fill:#262626;font-family:Arial;font-size:15px;font-stretch:normal;font-style:normal;font-weight:normal;text-anchor:start;" transform="rotate(-0, 331.160244, 188.795634)" x="331.160244" y="188.795634">Sterol Lipid</text>
   </g>
   <g id="text_10">
    <text style="fill:#262626;font-family:Arial;font-size:15px;font-stretch:normal;font-style:normal;font-weight:normal;text-anchor:middle;" transform="rotate(-0, 309.432801, 187.855859)" x="309.432801" y="187.855859">1.2%</text>
   </g>
  </g>
 </g>
</svg>
