<?xml version="1.0" encoding="utf-8" standalone="no"?>
<!DOCTYPE svg PUBLIC "-//W3C//DTD SVG 1.1//EN"
  "http://www.w3.org/Graphics/SVG/1.1/DTD/svg11.dtd">
<svg height="360pt" version="1.1" viewBox="0 0 360 360" width="360pt" xmlns="http://www.w3.org/2000/svg" xmlns:xlink="http://www.w3.org/1999/xlink">
 <metadata>
  <rdf:RDF xmlns:cc="http://creativecommons.org/ns#" xmlns:dc="http://purl.org/dc/elements/1.1/" xmlns:rdf="http://www.w3.org/1999/02/22-rdf-syntax-ns#">
   <cc:Work>
    <dc:type rdf:resource="http://purl.org/dc/dcmitype/StillImage"/>
    <dc:date>2022-02-21T10:04:41.291664</dc:date>
    <dc:format>image/svg+xml</dc:format>
    <dc:creator>
     <cc:Agent>
      <dc:title>Matplotlib v3.4.2, https://matplotlib.org/</dc:title>
     </cc:Agent>
    </dc:creator>
   </cc:Work>
  </rdf:RDF>
 </metadata>
 <defs>
  <style type="text/css">*{stroke-linecap:butt;stroke-linejoin:round;}</style>
 </defs>
 <g id="figure_1">
  <g id="patch_1">
   <path d="M 0 360 
L 360 360 
L 360 0 
L 0 0 
z
" style="fill:#ffffff;"/>
  </g>
  <g id="axes_1">
   <g id="matplotlib.axis_1"/>
   <g id="matplotlib.axis_2"/>
   <g id="patch_2">
    <path d="M 308.810388 181.707834 
C 308.810388 154.868626 300.193135 128.725617 284.233651 107.14697 
C 268.274168 85.568324 245.80042 69.673524 220.137662 61.814392 
C 194.474904 53.955261 166.9545 54.539523 141.648416 63.480731 
C 116.342331 72.421939 94.563428 89.256229 79.534147 111.492772 
L 131.477427 146.600303 
C 138.992067 135.482032 149.881519 127.064887 162.534561 122.594283 
C 175.187603 118.123679 188.947805 117.831547 201.779184 121.761113 
C 214.610563 125.690679 225.847437 133.638079 233.827179 144.427402 
C 241.806921 155.216725 246.115547 168.28823 246.115547 181.707834 
L 308.810388 181.707834 
z
" style="fill:#092436;opacity:0.5;stroke:#092436;stroke-linejoin:miter;"/>
   </g>
   <g id="patch_3">
    <path d="M 79.534147 111.492772 
C 62.461266 136.75292 55.174025 167.392841 59.046627 197.634555 
C 62.919229 227.876268 77.691919 255.691305 100.57891 275.834392 
L 141.999808 228.771113 
C 130.556313 218.69957 123.169968 204.792051 121.233667 189.671194 
C 119.297366 174.550337 122.940987 159.230377 131.477427 146.600303 
L 79.534147 111.492772 
z
" style="fill:#4c2604;opacity:0.5;stroke:#4c2604;stroke-linejoin:miter;"/>
   </g>
   <g id="patch_4">
    <path d="M 100.57891 275.834392 
C 119.363253 292.366694 142.673299 302.9035 167.493981 306.081914 
C 192.314662 309.260327 217.527606 304.937133 239.871611 293.671523 
L 211.646159 237.689679 
C 200.474156 243.322484 187.867684 245.48408 175.457344 243.894874 
C 163.047003 242.305667 151.39198 237.037264 141.999808 228.771113 
L 100.57891 275.834392 
z
" style="fill:#0d300d;opacity:0.5;stroke:#0d300d;stroke-linejoin:miter;"/>
   </g>
   <g id="patch_5">
    <path d="M 239.871611 293.671523 
C 260.599053 283.220967 278.022956 267.217059 290.193674 247.450557 
C 302.364392 227.684056 308.810388 204.920782 308.810388 181.707834 
L 246.115547 181.707834 
C 246.115547 193.314308 242.892549 204.695945 236.80719 214.579196 
C 230.721832 224.462447 222.00988 232.464401 211.646159 237.689679 
L 239.871611 293.671523 
z
" style="fill:#400c0c;opacity:0.5;stroke:#400c0c;stroke-linejoin:miter;"/>
   </g>
   <g id="patch_6">
    <path d="M 311.318182 179.200041 
C 311.318182 152.360832 302.700928 126.217823 286.741445 104.639177 
C 270.781961 83.06053 248.308214 67.16573 222.645456 59.306599 
C 196.982697 51.447467 169.462294 52.031729 144.156209 60.972937 
C 118.850125 69.914145 97.071221 86.748436 82.041941 108.984978 
L 133.985221 144.092509 
C 141.499861 132.974238 152.389313 124.557093 165.042355 120.086489 
C 177.695397 115.615885 191.455599 115.323754 204.286978 119.25332 
C 217.118357 123.182885 228.355231 131.130285 236.334973 141.919609 
C 244.314714 152.708932 248.623341 165.780436 248.623341 179.200041 
L 311.318182 179.200041 
z
" style="fill:#e377c2;stroke:#ffffff;stroke-linejoin:miter;"/>
   </g>
   <g id="patch_7">
    <path d="M 82.041941 108.984978 
C 64.96906 134.245126 57.681818 164.885047 61.55442 195.126761 
C 65.427022 225.368475 80.199713 253.183512 103.086704 273.326599 
L 144.507602 226.26332 
C 133.064107 216.191776 125.677761 202.284258 123.74146 187.163401 
C 121.805159 172.042544 125.44878 156.722583 133.985221 144.092509 
L 82.041941 108.984978 
z
" style="fill:#bcbd22;stroke:#ffffff;stroke-linejoin:miter;"/>
   </g>
   <g id="patch_8">
    <path d="M 103.086704 273.326599 
C 121.871046 289.858901 145.181093 300.395707 170.001774 303.57412 
C 194.822456 306.752533 220.0354 302.42934 242.379405 291.163729 
L 214.153953 235.181885 
C 202.98195 240.81469 190.375478 242.976287 177.965137 241.38708 
C 165.554796 239.797874 153.899773 234.529471 144.507602 226.26332 
L 103.086704 273.326599 
z
" style="fill:#983550;stroke:#ffffff;stroke-linejoin:miter;"/>
   </g>
   <g id="patch_9">
    <path d="M 242.379405 291.163729 
C 263.106846 280.713173 280.53075 264.709265 292.701468 244.942764 
C 304.872185 225.176262 311.318182 202.412989 311.318182 179.200041 
L 248.623341 179.200041 
C 248.623341 190.806515 245.400343 202.188151 239.314984 212.071402 
C 233.229625 221.954653 224.517673 229.956607 214.153953 235.181885 
L 242.379405 291.163729 
z
" style="fill:#8c564b;stroke:#ffffff;stroke-linejoin:miter;"/>
   </g>
   <g id="text_1">
    <text style="fill:#262626;font-family:Arial;font-size:15px;font-stretch:normal;font-style:normal;font-weight:normal;text-anchor:start;" transform="rotate(-0, 226.317151, 51.194989)" x="226.317151" y="51.194989">Amino Acid</text>
   </g>
   <g id="text_2">
    <text style="fill:#262626;font-family:Arial;font-size:15px;font-stretch:normal;font-style:normal;font-weight:normal;text-anchor:middle;" transform="rotate(-0, 213.466217, 93.157693)" x="213.466217" y="93.157693">30</text>
   </g>
   <g id="text_3">
    <text style="fill:#262626;font-family:Arial;font-size:15px;font-stretch:normal;font-style:normal;font-weight:normal;text-anchor:end;" transform="rotate(-0, 49.117012, 200.600683)" x="49.117012" y="200.600683">Amine/Amide/Ammonium/N-heterocycle</text>
   </g>
   <g id="text_4">
    <text style="fill:#262626;font-family:Arial;font-size:15px;font-stretch:normal;font-style:normal;font-weight:normal;text-anchor:middle;" transform="rotate(-0, 92.64794, 195.022815)" x="92.64794" y="195.022815">17</text>
   </g>
   <g id="text_5">
    <text style="fill:#262626;font-family:Arial;font-size:15px;font-stretch:normal;font-style:normal;font-weight:normal;text-anchor:end;" transform="rotate(-0, 168.409102, 319.889262)" x="168.409102" y="319.889262">Other Metabolite</text>
   </g>
   <g id="text_6">
    <text style="fill:#262626;font-family:Arial;font-size:15px;font-stretch:normal;font-style:normal;font-weight:normal;text-anchor:middle;" transform="rotate(-0, 173.983456, 276.358334)" x="173.983456" y="276.358334">14</text>
   </g>
   <g id="text_7">
    <text style="fill:#262626;font-family:Arial;font-size:15px;font-stretch:normal;font-style:normal;font-weight:normal;text-anchor:start;" transform="rotate(-0, 303.378765, 255.398286)" x="303.378765" y="255.398286">Carboxylic Acid</text>
   </g>
   <g id="text_8">
    <text style="fill:#262626;font-family:Arial;font-size:15px;font-stretch:normal;font-style:normal;font-weight:normal;text-anchor:middle;" transform="rotate(-0, 266.008226, 232.384817)" x="266.008226" y="232.384817">13</text>
   </g>
  </g>
 </g>
</svg>
