<?xml version="1.0" encoding="utf-8" standalone="no"?>
<!DOCTYPE svg PUBLIC "-//W3C//DTD SVG 1.1//EN"
  "http://www.w3.org/Graphics/SVG/1.1/DTD/svg11.dtd">
<svg height="360pt" version="1.1" viewBox="0 0 360 360" width="360pt" xmlns="http://www.w3.org/2000/svg" xmlns:xlink="http://www.w3.org/1999/xlink">
 <metadata>
  <rdf:RDF xmlns:cc="http://creativecommons.org/ns#" xmlns:dc="http://purl.org/dc/elements/1.1/" xmlns:rdf="http://www.w3.org/1999/02/22-rdf-syntax-ns#">
   <cc:Work>
    <dc:type rdf:resource="http://purl.org/dc/dcmitype/StillImage"/>
    <dc:date>2022-02-01T11:15:19.438421</dc:date>
    <dc:format>image/svg+xml</dc:format>
    <dc:creator>
     <cc:Agent>
      <dc:title>Matplotlib v3.4.2, https://matplotlib.org/</dc:title>
     </cc:Agent>
    </dc:creator>
   </cc:Work>
  </rdf:RDF>
 </metadata>
 <defs>
  <style type="text/css">*{stroke-linecap:butt;stroke-linejoin:round;}</style>
 </defs>
 <g id="figure_1">
  <g id="patch_1">
   <path d="M 0 360 
L 360 360 
L 360 0 
L 0 0 
z
" style="fill:#ffffff;"/>
  </g>
  <g id="axes_1">
   <g id="matplotlib.axis_1"/>
   <g id="matplotlib.axis_2"/>
   <g id="patch_2">
    <path d="M 291.0456 181.2744 
C 291.0456 158.003277 283.57395 135.335798 269.736168 116.625882 
C 255.898386 97.915965 236.412367 84.134268 214.161293 77.319953 
C 191.910219 70.505638 168.04846 71.012227 146.106643 78.764764 
C 124.164826 86.5173 105.281275 101.11359 92.250032 120.393939 
L 137.287816 150.83417 
C 143.803437 141.193995 153.245213 133.89585 164.216122 130.019582 
C 175.18703 126.143313 187.117909 125.890019 198.243446 129.297176 
C 209.368983 132.704334 219.111993 139.595183 226.030884 148.950141 
C 232.949775 158.305099 236.6856 169.638838 236.6856 181.2744 
L 291.0456 181.2744 
z
" style="fill:#092436;opacity:0.5;stroke:#092436;stroke-linejoin:miter;"/>
   </g>
   <g id="patch_3">
    <path d="M 92.250032 120.393939 
C 77.446872 142.295927 71.128418 168.862485 74.486184 195.083774 
C 77.843951 221.305064 90.652715 245.422286 110.497041 262.88749 
L 146.41132 222.080945 
C 136.489158 213.348343 130.084775 201.289732 128.405892 188.179087 
C 126.727009 175.068442 129.886236 161.785163 137.287816 150.83417 
L 92.250032 120.393939 
z
" style="fill:#4c2604;opacity:0.5;stroke:#4c2604;stroke-linejoin:miter;"/>
   </g>
   <g id="patch_4">
    <path d="M 110.497041 262.88749 
C 126.784137 277.221939 146.995275 286.35795 168.516221 289.113815 
C 190.037166 291.86968 211.898225 288.121225 231.271751 278.353299 
L 206.798676 229.81385 
C 197.111913 234.697813 186.181383 236.57204 175.42091 235.194108 
C 164.660438 233.816175 154.554868 229.248169 146.41132 222.080945 
L 110.497041 262.88749 
z
" style="fill:#0d300d;opacity:0.5;stroke:#0d300d;stroke-linejoin:miter;"/>
   </g>
   <g id="patch_5">
    <path d="M 231.271751 278.353299 
C 249.243624 269.292071 264.351142 255.415771 274.903848 238.277088 
C 285.456554 221.138404 291.0456 201.401349 291.0456 181.2744 
L 236.6856 181.2744 
C 236.6856 191.337874 233.891077 201.206402 228.614724 209.775744 
C 223.338371 218.345086 215.784612 225.283236 206.798676 229.81385 
L 231.271751 278.353299 
z
" style="fill:#400c0c;opacity:0.5;stroke:#400c0c;stroke-linejoin:miter;"/>
   </g>
   <g id="patch_6">
    <path d="M 293.22 179.1 
C 293.22 155.828877 285.74835 133.161398 271.910568 114.451482 
C 258.072786 95.741565 238.586767 81.959868 216.335693 75.145553 
C 194.084619 68.331238 170.22286 68.837827 148.281043 76.590364 
C 126.339226 84.3429 107.455675 98.93919 94.424432 118.219539 
L 139.462216 148.65977 
C 145.977837 139.019595 155.419613 131.72145 166.390522 127.845182 
C 177.36143 123.968913 189.292309 123.715619 200.417846 127.122776 
C 211.543383 130.529934 221.286393 137.420783 228.205284 146.775741 
C 235.124175 156.130699 238.86 167.464438 238.86 179.1 
L 293.22 179.1 
z
" style="fill:#1f77b4;stroke:#ffffff;stroke-linejoin:miter;"/>
   </g>
   <g id="patch_7">
    <path d="M 94.424432 118.219539 
C 79.621272 140.121527 73.302818 166.688085 76.660584 192.909374 
C 80.018351 219.130664 92.827115 243.247886 112.671441 260.71309 
L 148.58572 219.906545 
C 138.663558 211.173943 132.259175 199.115332 130.580292 186.004687 
C 128.901409 172.894042 132.060636 159.610763 139.462216 148.65977 
L 94.424432 118.219539 
z
" style="fill:#ff7f0e;stroke:#ffffff;stroke-linejoin:miter;"/>
   </g>
   <g id="patch_8">
    <path d="M 112.671441 260.71309 
C 128.958537 275.047539 149.169675 284.18355 170.690621 286.939415 
C 192.211566 289.69528 214.072625 285.946825 233.446151 276.178899 
L 208.973076 227.63945 
C 199.286313 232.523413 188.355783 234.39764 177.59531 233.019708 
C 166.834838 231.641775 156.729268 227.073769 148.58572 219.906545 
L 112.671441 260.71309 
z
" style="fill:#2ca02c;stroke:#ffffff;stroke-linejoin:miter;"/>
   </g>
   <g id="patch_9">
    <path d="M 233.446151 276.178899 
C 251.418024 267.117671 266.525542 253.241371 277.078248 236.102688 
C 287.630954 218.964004 293.22 199.226949 293.22 179.1 
L 238.86 179.1 
C 238.86 189.163474 236.065477 199.032002 230.789124 207.601344 
C 225.512771 216.170686 217.959012 223.108836 208.973076 227.63945 
L 233.446151 276.178899 
z
" style="fill:#d62728;stroke:#ffffff;stroke-linejoin:miter;"/>
   </g>
   <g id="text_1">
    <text style="fill:#262626;font-family:Arial;font-size:15px;font-stretch:normal;font-style:normal;font-weight:normal;text-anchor:start;" transform="rotate(-0, 219.519262, 68.627843)" x="219.519262" y="68.627843">Amino Acid</text>
   </g>
   <g id="text_2">
    <text style="fill:#262626;font-family:Arial;font-size:15px;font-stretch:normal;font-style:normal;font-weight:normal;text-anchor:middle;" transform="rotate(-0, 208.37677, 105.011899)" x="208.37677" y="105.011899">40.5%</text>
   </g>
   <g id="text_3">
    <text style="fill:#262626;font-family:Arial;font-size:15px;font-stretch:normal;font-style:normal;font-weight:normal;text-anchor:end;" transform="rotate(-0, 65.876643, 198.171562)" x="65.876643" y="198.171562">Amine/Amide/Ammonium/N-heterocycle</text>
   </g>
   <g id="text_4">
    <text style="fill:#262626;font-family:Arial;font-size:15px;font-stretch:normal;font-style:normal;font-weight:normal;text-anchor:middle;" transform="rotate(-0, 103.620438, 193.334765)" x="103.620438" y="193.334765">23.0%</text>
   </g>
   <g id="text_5">
    <text style="fill:#262626;font-family:Arial;font-size:15px;font-stretch:normal;font-style:normal;font-weight:normal;text-anchor:end;" transform="rotate(-0, 169.309683, 301.601091)" x="169.309683" y="301.601091">Other Metabolite</text>
   </g>
   <g id="text_6">
    <text style="fill:#262626;font-family:Arial;font-size:15px;font-stretch:normal;font-style:normal;font-weight:normal;text-anchor:middle;" transform="rotate(-0, 174.142966, 263.857296)" x="174.142966" y="263.857296">18.9%</text>
   </g>
   <g id="text_7">
    <text style="fill:#262626;font-family:Arial;font-size:15px;font-stretch:normal;font-style:normal;font-weight:normal;text-anchor:start;" transform="rotate(-0, 286.336073, 245.684207)" x="286.336073" y="245.684207">Carboxylic Acid</text>
   </g>
   <g id="text_8">
    <text style="fill:#262626;font-family:Arial;font-size:15px;font-stretch:normal;font-style:normal;font-weight:normal;text-anchor:middle;" transform="rotate(-0, 253.933686, 225.72975)" x="253.933686" y="225.72975">17.6%</text>
   </g>
  </g>
 </g>
</svg>
