<?xml version="1.0" encoding="utf-8" standalone="no"?>
<!DOCTYPE svg PUBLIC "-//W3C//DTD SVG 1.1//EN"
  "http://www.w3.org/Graphics/SVG/1.1/DTD/svg11.dtd">
<svg xmlns:xlink="http://www.w3.org/1999/xlink" width="737.685156pt" height="422.381pt" viewBox="0 0 737.685156 422.381" xmlns="http://www.w3.org/2000/svg" version="1.1">
 <metadata>
  <rdf:RDF xmlns:dc="http://purl.org/dc/elements/1.1/" xmlns:cc="http://creativecommons.org/ns#" xmlns:rdf="http://www.w3.org/1999/02/22-rdf-syntax-ns#">
   <cc:Work>
    <dc:type rdf:resource="http://purl.org/dc/dcmitype/StillImage"/>
    <dc:date>2022-10-11T11:06:10.441028</dc:date>
    <dc:format>image/svg+xml</dc:format>
    <dc:creator>
     <cc:Agent>
      <dc:title>Matplotlib v3.5.2, https://matplotlib.org/</dc:title>
     </cc:Agent>
    </dc:creator>
   </cc:Work>
  </rdf:RDF>
 </metadata>
 <defs>
  <style type="text/css">*{stroke-linejoin: round; stroke-linecap: butt}</style>
 </defs>
 <g id="figure_1">
  <g id="patch_1">
   <path d="M 0 422.381 
L 737.685156 422.381 
L 737.685156 0 
L 0 0 
z
" style="fill: #ffffff"/>
  </g>
  <g id="axes_1">
   <g id="patch_2">
    <path d="M 229.869531 381.014375 
L 676.269531 381.014375 
L 676.269531 27.674375 
L 229.869531 27.674375 
z
" style="fill: #ffffff"/>
   </g>
   <g id="line2d_1">
    <path d="M 425.643512 102.734542 
L 425.643512 43.735284 
" clip-path="url(#p036e1f9c3e)" style="fill: none; stroke-dasharray: 1.85,0.8; stroke-dashoffset: 0; stroke: #bbbbbb; stroke-width: 0.5"/>
   </g>
   <g id="line2d_2">
    <path d="M 522.920696 135.511907 
L 522.920696 76.51265 
" clip-path="url(#p036e1f9c3e)" style="fill: none; stroke-dasharray: 1.85,0.8; stroke-dashoffset: 0; stroke: #bbbbbb; stroke-width: 0.5"/>
   </g>
   <g id="line2d_3">
    <path d="M 604.462276 168.289273 
L 604.462276 109.290015 
" clip-path="url(#p036e1f9c3e)" style="fill: none; stroke-dasharray: 1.85,0.8; stroke-dashoffset: 0; stroke: #bbbbbb; stroke-width: 0.5"/>
   </g>
   <g id="line2d_4">
    <path d="M 672.101464 201.066638 
L 672.101464 142.067381 
" clip-path="url(#p036e1f9c3e)" style="fill: none; stroke-dasharray: 1.85,0.8; stroke-dashoffset: 0; stroke: #bbbbbb; stroke-width: 0.5"/>
   </g>
   <g id="line2d_5">
    <path d="M 636.174596 233.844004 
L 636.174596 174.844746 
" clip-path="url(#p036e1f9c3e)" style="fill: none; stroke-dasharray: 1.85,0.8; stroke-dashoffset: 0; stroke: #bbbbbb; stroke-width: 0.5"/>
   </g>
   <g id="line2d_6">
    <path d="M 663.041736 266.621369 
L 663.041736 207.622112 
" clip-path="url(#p036e1f9c3e)" style="fill: none; stroke-dasharray: 1.85,0.8; stroke-dashoffset: 0; stroke: #bbbbbb; stroke-width: 0.5"/>
   </g>
   <g id="line2d_7">
    <path d="M 229.869531 351.84252 
L 676.269531 351.84252 
" clip-path="url(#p036e1f9c3e)" style="fill: none; stroke-dasharray: 0.5,2.5; stroke-dashoffset: 0; stroke: #cccccc; stroke-width: 0.5"/>
   </g>
   <g id="line2d_8">
    <path d="M 229.869531 319.065154 
L 676.269531 319.065154 
" clip-path="url(#p036e1f9c3e)" style="fill: none; stroke-dasharray: 0.5,2.5; stroke-dashoffset: 0; stroke: #cccccc; stroke-width: 0.5"/>
   </g>
   <g id="line2d_9">
    <path d="M 229.869531 286.287789 
L 676.269531 286.287789 
" clip-path="url(#p036e1f9c3e)" style="fill: none; stroke-dasharray: 0.5,2.5; stroke-dashoffset: 0; stroke: #cccccc; stroke-width: 0.5"/>
   </g>
   <g id="line2d_10">
    <path d="M 229.869531 253.510423 
L 676.269531 253.510423 
" clip-path="url(#p036e1f9c3e)" style="fill: none; stroke-dasharray: 0.5,2.5; stroke-dashoffset: 0; stroke: #cccccc; stroke-width: 0.5"/>
   </g>
   <g id="line2d_11">
    <path d="M 229.869531 220.733058 
L 676.269531 220.733058 
" clip-path="url(#p036e1f9c3e)" style="fill: none; stroke-dasharray: 0.5,2.5; stroke-dashoffset: 0; stroke: #cccccc; stroke-width: 0.5"/>
   </g>
   <g id="line2d_12">
    <path d="M 229.869531 187.955692 
L 676.269531 187.955692 
" clip-path="url(#p036e1f9c3e)" style="fill: none; stroke-dasharray: 0.5,2.5; stroke-dashoffset: 0; stroke: #cccccc; stroke-width: 0.5"/>
   </g>
   <g id="line2d_13">
    <path d="M 229.869531 155.178327 
L 676.269531 155.178327 
" clip-path="url(#p036e1f9c3e)" style="fill: none; stroke-dasharray: 0.5,2.5; stroke-dashoffset: 0; stroke: #cccccc; stroke-width: 0.5"/>
   </g>
   <g id="line2d_14">
    <path d="M 229.869531 122.400961 
L 676.269531 122.400961 
" clip-path="url(#p036e1f9c3e)" style="fill: none; stroke-dasharray: 0.5,2.5; stroke-dashoffset: 0; stroke: #cccccc; stroke-width: 0.5"/>
   </g>
   <g id="line2d_15">
    <path d="M 229.869531 89.623596 
L 676.269531 89.623596 
" clip-path="url(#p036e1f9c3e)" style="fill: none; stroke-dasharray: 0.5,2.5; stroke-dashoffset: 0; stroke: #cccccc; stroke-width: 0.5"/>
   </g>
   <g id="line2d_16">
    <path d="M 229.869531 56.84623 
L 676.269531 56.84623 
" clip-path="url(#p036e1f9c3e)" style="fill: none; stroke-dasharray: 0.5,2.5; stroke-dashoffset: 0; stroke: #cccccc; stroke-width: 0.5"/>
   </g>
   <g id="line2d_17">
    <path d="M 640.718656 381.014375 
L 640.718656 345.680375 
" clip-path="url(#p036e1f9c3e)" style="fill: none; stroke-dasharray: 1.85,0.8; stroke-dashoffset: 0; stroke: #bbbbbb; stroke-width: 0.5"/>
   </g>
   <g id="line2d_18">
    <path d="M 255.294741 381.014375 
L 255.294741 27.674375 
" clip-path="url(#p036e1f9c3e)" style="fill: none; stroke-dasharray: 1.85,0.8; stroke-dashoffset: 0; stroke: #bbbbbb; stroke-width: 0.5"/>
   </g>
   <g id="matplotlib.axis_1">
    <g id="xtick_1">
     <g id="line2d_19">
      <defs>
       <path id="mdf947bbe18" d="M 0 0 
L 0 6 
" style="stroke: #262626; stroke-width: 0.8"/>
      </defs>
      <g>
       <use xlink:href="#mdf947bbe18" x="270.959781" y="381.014375" style="fill: #262626; stroke: #262626; stroke-width: 0.8"/>
      </g>
     </g>
     <g id="text_1">
      <text style="fill: #262626; font: 13px 'sans-serif'; text-anchor: middle" x="270.959781" y="399.819531" transform="rotate(-0, 270.959781, 399.819531)">20000</text>
     </g>
    </g>
    <g id="xtick_2">
     <g id="line2d_20">
      <g>
       <use xlink:href="#mdf947bbe18" x="353.447372" y="381.014375" style="fill: #262626; stroke: #262626; stroke-width: 0.8"/>
      </g>
     </g>
     <g id="text_2">
      <text style="fill: #262626; font: 13px 'sans-serif'; text-anchor: middle" x="353.447372" y="399.819531" transform="rotate(-0, 353.447372, 399.819531)">25000</text>
     </g>
    </g>
    <g id="xtick_3">
     <g id="line2d_21">
      <g>
       <use xlink:href="#mdf947bbe18" x="435.934963" y="381.014375" style="fill: #262626; stroke: #262626; stroke-width: 0.8"/>
      </g>
     </g>
     <g id="text_3">
      <text style="fill: #262626; font: 13px 'sans-serif'; text-anchor: middle" x="435.934963" y="399.819531" transform="rotate(-0, 435.934963, 399.819531)">30000</text>
     </g>
    </g>
    <g id="xtick_4">
     <g id="line2d_22">
      <g>
       <use xlink:href="#mdf947bbe18" x="518.422553" y="381.014375" style="fill: #262626; stroke: #262626; stroke-width: 0.8"/>
      </g>
     </g>
     <g id="text_4">
      <text style="fill: #262626; font: 13px 'sans-serif'; text-anchor: middle" x="518.422553" y="399.819531" transform="rotate(-0, 518.422553, 399.819531)">35000</text>
     </g>
    </g>
    <g id="xtick_5">
     <g id="line2d_23">
      <g>
       <use xlink:href="#mdf947bbe18" x="600.910144" y="381.014375" style="fill: #262626; stroke: #262626; stroke-width: 0.8"/>
      </g>
     </g>
     <g id="text_5">
      <text style="fill: #262626; font: 13px 'sans-serif'; text-anchor: middle" x="600.910144" y="399.819531" transform="rotate(-0, 600.910144, 399.819531)">40000</text>
     </g>
    </g>
   </g>
   <g id="matplotlib.axis_2">
    <g id="ytick_1">
     <g id="text_6">
      <text style="fill: #999999; font: 13px 'sans-serif'; text-anchor: end" x="220.369531" y="356.574317" transform="rotate(-0, 220.369531, 356.574317)">−1.498 = TG 20:5_22:6_22:6</text>
     </g>
    </g>
    <g id="ytick_2">
     <g id="text_7">
      <text style="fill: #999999; font: 13px 'sans-serif'; text-anchor: end" x="220.369531" y="323.717732" transform="rotate(-0, 220.369531, 323.717732)">−0.516 = PC 38:7</text>
     </g>
    </g>
    <g id="ytick_3">
     <g id="text_8">
      <text style="fill: #999999; font: 13px 'sans-serif'; text-anchor: end" x="220.369531" y="291.019586" transform="rotate(-0, 220.369531, 291.019586)">−2.36 = TG 18:1_22:6_22:6</text>
     </g>
    </g>
    <g id="ytick_4">
     <g id="text_9">
      <text style="fill: #999999; font: 13px 'sans-serif'; text-anchor: end" x="220.369531" y="258.163001" transform="rotate(-0, 220.369531, 258.163001)">−0.361 = FA 18:0</text>
     </g>
    </g>
    <g id="ytick_5">
     <g id="text_10">
      <text style="fill: #999999; font: 13px 'sans-serif'; text-anchor: end" x="220.369531" y="225.464855" transform="rotate(-0, 220.369531, 225.464855)">−0.902 = 4-Guanidinobutyric acid</text>
     </g>
    </g>
    <g id="ytick_6">
     <g id="text_11">
      <text style="fill: #999999; font: 13px 'sans-serif'; text-anchor: end" x="220.369531" y="192.60827" transform="rotate(-0, 220.369531, 192.60827)">−1.305 = CE 18:1</text>
     </g>
    </g>
    <g id="ytick_7">
     <g id="text_12">
      <text style="fill: #999999; font: 13px 'sans-serif'; text-anchor: end" x="220.369531" y="159.830905" transform="rotate(-0, 220.369531, 159.830905)">−2.327 = PC 36:3</text>
     </g>
    </g>
    <g id="ytick_8">
     <g id="text_13">
      <text style="fill: #999999; font: 13px 'sans-serif'; text-anchor: end" x="220.369531" y="127.053539" transform="rotate(-0, 220.369531, 127.053539)">−2.44 = SM d37:1</text>
     </g>
    </g>
    <g id="ytick_9">
     <g id="text_14">
      <text style="fill: #999999; font: 13px 'sans-serif'; text-anchor: end" x="220.369531" y="94.359455" transform="rotate(-0, 220.369531, 94.359455)">−2.259 = Plasmanyl-PC O-20:0_20:4</text>
     </g>
    </g>
    <g id="ytick_10">
     <g id="text_15">
      <text style="fill: #999999; font: 13px 'sans-serif'; text-anchor: end" x="220.369531" y="61.578027" transform="rotate(-0, 220.369531, 61.578027)">−1.978 = TG 22:6_22:6_22:6</text>
     </g>
    </g>
    <g id="ytick_11">
     <g id="text_16">
      <text style="fill: #262626; font: 13px 'sans-serif'; text-anchor: end" x="220.369531" y="356.574316" transform="rotate(-0, 220.369531, 356.574316)"> TG 20:5_22:6_22:6</text>
     </g>
    </g>
    <g id="ytick_12">
     <g id="text_17">
      <text style="fill: #262626; font: 13px 'sans-serif'; text-anchor: end" x="220.369531" y="323.717732" transform="rotate(-0, 220.369531, 323.717732)"> PC 38:7</text>
     </g>
    </g>
    <g id="ytick_13">
     <g id="text_18">
      <text style="fill: #262626; font: 13px 'sans-serif'; text-anchor: end" x="220.369531" y="291.019585" transform="rotate(-0, 220.369531, 291.019585)"> TG 18:1_22:6_22:6</text>
     </g>
    </g>
    <g id="ytick_14">
     <g id="text_19">
      <text style="fill: #262626; font: 13px 'sans-serif'; text-anchor: end" x="220.369531" y="258.163001" transform="rotate(-0, 220.369531, 258.163001)"> FA 18:0</text>
     </g>
    </g>
    <g id="ytick_15">
     <g id="text_20">
      <text style="fill: #262626; font: 13px 'sans-serif'; text-anchor: end" x="220.369531" y="225.464854" transform="rotate(-0, 220.369531, 225.464854)"> 4-Guanidinobutyric acid</text>
     </g>
    </g>
    <g id="ytick_16">
     <g id="text_21">
      <text style="fill: #262626; font: 13px 'sans-serif'; text-anchor: end" x="220.369531" y="192.60827" transform="rotate(-0, 220.369531, 192.60827)"> CE 18:1</text>
     </g>
    </g>
    <g id="ytick_17">
     <g id="text_22">
      <text style="fill: #262626; font: 13px 'sans-serif'; text-anchor: end" x="220.369531" y="159.830905" transform="rotate(-0, 220.369531, 159.830905)"> PC 36:3</text>
     </g>
    </g>
    <g id="ytick_18">
     <g id="text_23">
      <text style="fill: #262626; font: 13px 'sans-serif'; text-anchor: end" x="220.369531" y="127.053539" transform="rotate(-0, 220.369531, 127.053539)"> SM d37:1</text>
     </g>
    </g>
    <g id="ytick_19">
     <g id="text_24">
      <text style="fill: #262626; font: 13px 'sans-serif'; text-anchor: end" x="220.369531" y="94.359455" transform="rotate(-0, 220.369531, 94.359455)"> Plasmanyl-PC O-20:0_20:4</text>
     </g>
    </g>
    <g id="ytick_20">
     <g id="text_25">
      <text style="fill: #262626; font: 13px 'sans-serif'; text-anchor: end" x="220.369531" y="61.578027" transform="rotate(-0, 220.369531, 61.578027)"> TG 22:6_22:6_22:6</text>
     </g>
    </g>
   </g>
   <g id="patch_3">
    <path d="M 632.006529 201.066638 
L 676.269531 201.066638 
L 676.269531 174.844746 
L 632.006529 174.844746 
L 632.006529 201.066638 
z
" clip-path="url(#p036e1f9c3e)" style="fill: none; opacity: 0"/>
   </g>
   <g id="patch_4">
    <path d="M 645.109591 266.621369 
L 667.209804 266.621369 
L 667.209804 240.399477 
L 645.109591 240.399477 
L 645.109591 266.621369 
z
" clip-path="url(#p036e1f9c3e)" style="fill: none; opacity: 0"/>
   </g>
   <g id="patch_5">
    <path d="M 646.911929 332.1761 
L 666.934698 332.1761 
L 666.934698 305.954208 
L 646.911929 305.954208 
L 646.911929 332.1761 
z
" clip-path="url(#p036e1f9c3e)" style="fill: none; opacity: 0"/>
   </g>
   <g id="patch_6">
    <path d="M 636.550588 364.953466 
L 655.248064 364.953466 
L 655.248064 338.731574 
L 636.550588 338.731574 
L 636.550588 364.953466 
z
" clip-path="url(#p036e1f9c3e)" style="fill: none; opacity: 0"/>
   </g>
   <g id="patch_7">
    <path d="M 429.811579 69.957176 
L 251.126674 69.957176 
L 251.126674 43.735284 
L 429.811579 43.735284 
L 429.811579 69.957176 
z
" clip-path="url(#p036e1f9c3e)" style="fill: none; opacity: 0"/>
   </g>
   <g id="patch_8">
    <path d="M 527.088764 102.734542 
L 421.475444 102.734542 
L 421.475444 76.51265 
L 527.088764 76.51265 
L 527.088764 102.734542 
z
" clip-path="url(#p036e1f9c3e)" style="fill: none; opacity: 0"/>
   </g>
   <g id="patch_9">
    <path d="M 608.630343 135.511907 
L 518.752629 135.511907 
L 518.752629 109.290015 
L 608.630343 109.290015 
L 608.630343 135.511907 
z
" clip-path="url(#p036e1f9c3e)" style="fill: none; opacity: 0"/>
   </g>
   <g id="patch_10">
    <path d="M 676.269531 168.289273 
L 600.294209 168.289273 
L 600.294209 142.067381 
L 676.269531 142.067381 
L 676.269531 168.289273 
z
" clip-path="url(#p036e1f9c3e)" style="fill: none; opacity: 0"/>
   </g>
   <g id="patch_11">
    <path d="M 667.209804 233.844004 
L 632.006529 233.844004 
L 632.006529 207.622112 
L 667.209804 207.622112 
L 667.209804 233.844004 
z
" clip-path="url(#p036e1f9c3e)" style="fill: none; opacity: 0"/>
   </g>
   <g id="patch_12">
    <path d="M 666.934698 299.398735 
L 645.109591 299.398735 
L 645.109591 273.176843 
L 666.934698 273.176843 
L 666.934698 299.398735 
z
" clip-path="url(#p036e1f9c3e)" style="fill: none; opacity: 0"/>
   </g>
   <g id="patch_13">
    <path d="M 672.101464 187.955692 
L 666.341464 201.066638 
L 666.341464 201.066638 
L 636.174596 201.066638 
L 636.174596 174.844746 
L 666.341464 174.844746 
L 666.341464 174.844746 
z
" clip-path="url(#p036e1f9c3e)" style="fill: #ff0051; stroke: #ff0051; stroke-linejoin: miter"/>
   </g>
   <g id="patch_14">
    <path d="M 663.041736 253.510423 
L 657.281736 266.621369 
L 657.281736 266.621369 
L 649.277659 266.621369 
L 649.277659 240.399477 
L 657.281736 240.399477 
L 657.281736 240.399477 
z
" clip-path="url(#p036e1f9c3e)" style="fill: #ff0051; stroke: #ff0051; stroke-linejoin: miter"/>
   </g>
   <g id="patch_15">
    <path d="M 662.766631 319.065154 
L 657.006631 332.1761 
L 657.006631 332.1761 
L 651.079996 332.1761 
L 651.079996 305.954208 
L 657.006631 305.954208 
L 657.006631 305.954208 
z
" clip-path="url(#p036e1f9c3e)" style="fill: #ff0051; stroke: #ff0051; stroke-linejoin: miter"/>
   </g>
   <g id="patch_16">
    <path d="M 651.079996 351.84252 
L 645.319996 364.953466 
L 645.319996 364.953466 
L 640.718656 364.953466 
L 640.718656 338.731574 
L 645.319996 338.731574 
L 645.319996 338.731574 
z
" clip-path="url(#p036e1f9c3e)" style="fill: #ff0051; stroke: #ff0051; stroke-linejoin: miter"/>
   </g>
   <g id="patch_17">
    <path d="M 255.294741 56.84623 
L 261.054741 43.735284 
L 261.054741 43.735284 
L 425.643512 43.735284 
L 425.643512 69.957176 
L 261.054741 69.957176 
L 261.054741 69.957176 
z
" clip-path="url(#p036e1f9c3e)" style="fill: #008bfb; stroke: #008bfb; stroke-linejoin: miter"/>
   </g>
   <g id="patch_18">
    <path d="M 425.643512 89.623596 
L 431.403512 76.51265 
L 431.403512 76.51265 
L 522.920696 76.51265 
L 522.920696 102.734542 
L 431.403512 102.734542 
L 431.403512 102.734542 
z
" clip-path="url(#p036e1f9c3e)" style="fill: #008bfb; stroke: #008bfb; stroke-linejoin: miter"/>
   </g>
   <g id="patch_19">
    <path d="M 522.920696 122.400961 
L 528.680696 109.290015 
L 528.680696 109.290015 
L 604.462276 109.290015 
L 604.462276 135.511907 
L 528.680696 135.511907 
L 528.680696 135.511907 
z
" clip-path="url(#p036e1f9c3e)" style="fill: #008bfb; stroke: #008bfb; stroke-linejoin: miter"/>
   </g>
   <g id="patch_20">
    <path d="M 604.462276 155.178327 
L 610.222276 142.067381 
L 610.222276 142.067381 
L 672.101464 142.067381 
L 672.101464 168.289273 
L 610.222276 168.289273 
L 610.222276 168.289273 
z
" clip-path="url(#p036e1f9c3e)" style="fill: #008bfb; stroke: #008bfb; stroke-linejoin: miter"/>
   </g>
   <g id="patch_21">
    <path d="M 636.174596 220.733058 
L 641.934596 207.622112 
L 641.934596 207.622112 
L 663.041736 207.622112 
L 663.041736 233.844004 
L 641.934596 233.844004 
L 641.934596 233.844004 
z
" clip-path="url(#p036e1f9c3e)" style="fill: #008bfb; stroke: #008bfb; stroke-linejoin: miter"/>
   </g>
   <g id="patch_22">
    <path d="M 649.277659 286.287789 
L 655.037659 273.176843 
L 655.037659 273.176843 
L 662.766631 273.176843 
L 662.766631 299.398735 
L 655.037659 299.398735 
L 655.037659 299.398735 
z
" clip-path="url(#p036e1f9c3e)" style="fill: #008bfb; stroke: #008bfb; stroke-linejoin: miter"/>
   </g>
   <g id="patch_23">
    <path d="M 229.869531 381.014375 
L 676.269531 381.014375 
" style="fill: none; stroke: #262626; stroke-width: 1.25; stroke-linejoin: miter; stroke-linecap: square"/>
   </g>
   <g id="text_26">
    <text style="fill: #ff0051; font: 12px 'sans-serif'; text-anchor: start" x="677.101464" y="191.05788" transform="rotate(-0, 677.101464, 191.05788)">+2177.71</text>
   </g>
   <g id="text_27">
    <text style="fill: #ff0051; font: 12px 'sans-serif'; text-anchor: start" x="668.041736" y="256.612611" transform="rotate(-0, 668.041736, 256.612611)">+834.31</text>
   </g>
   <g id="text_28">
    <text style="fill: #ff0051; font: 12px 'sans-serif'; text-anchor: start" x="667.766631" y="322.167342" transform="rotate(-0, 667.766631, 322.167342)">+708.39</text>
   </g>
   <g id="text_29">
    <text style="fill: #ff0051; font: 12px 'sans-serif'; text-anchor: start" x="656.079996" y="354.944707" transform="rotate(-0, 656.079996, 354.944707)">+628.05</text>
   </g>
   <g id="text_30">
    <text style="fill: #ffffff; font: 12px 'sans-serif'; text-anchor: middle" x="340.469127" y="59.948418" transform="rotate(-0, 340.469127, 59.948418)">−10325.72</text>
   </g>
   <g id="text_31">
    <text style="fill: #ffffff; font: 12px 'sans-serif'; text-anchor: middle" x="474.282104" y="92.725783" transform="rotate(-0, 474.282104, 92.725783)">−5896.47</text>
   </g>
   <g id="text_32">
    <text style="fill: #ffffff; font: 12px 'sans-serif'; text-anchor: middle" x="563.691486" y="125.503149" transform="rotate(-0, 563.691486, 125.503149)">−4942.66</text>
   </g>
   <g id="text_33">
    <text style="fill: #ffffff; font: 12px 'sans-serif'; text-anchor: middle" x="638.28187" y="158.280514" transform="rotate(-0, 638.28187, 158.280514)">−4099.96</text>
   </g>
   <g id="text_34">
    <text style="fill: #008bfb; font: 12px 'sans-serif'; text-anchor: end" x="631.174596" y="223.835245" transform="rotate(-0, 631.174596, 223.835245)">−1628.56</text>
   </g>
   <g id="text_35">
    <text style="fill: #008bfb; font: 12px 'sans-serif'; text-anchor: end" x="644.277659" y="289.389976" transform="rotate(-0, 644.277659, 289.389976)">−817.64</text>
   </g>
  </g>
  <g id="axes_2">
   <g id="matplotlib.axis_3">
    <g id="xtick_6">
     <g id="line2d_24">
      <g>
       <use xlink:href="#mdf947bbe18" x="640.718656" y="381.014375" style="fill: #262626; stroke: #262626; stroke-width: 0.8"/>
      </g>
     </g>
     <g id="text_36">
      <text style="fill: #262626; font: 12px 'sans-serif'" transform="translate(620.718656 399.10375)"/>
      <!-- $E[f(X)]$ -->
      <g style="fill: #262626" transform="translate(620.718656 411.796)">
       <text>
        <tspan style="font: oblique 12px 'DejaVu Sans'" x="0 12.263672 21.169922" y="-0.875">EfX</tspan>
        <tspan style="font: 12px 'DejaVu Sans'" x="7.582031 16.488281 29.390625 34.072266" y="-0.875">[()]</tspan>
       </text>
      </g>
     </g>
    </g>
    <g id="xtick_7">
     <g id="line2d_25">
      <g>
       <use xlink:href="#mdf947bbe18" x="640.718656" y="381.014375" style="fill: #262626; stroke: #262626; stroke-width: 0.8"/>
      </g>
     </g>
     <g id="text_37">
      <text style="fill: #999999; font: 12px 'sans-serif'" transform="translate(662.718656 400.10375)"/>
      <!-- $ = 42413$ -->
      <g style="fill: #999999" transform="translate(662.718656 412.796)">
       <text>
        <tspan style="font: 12px 'DejaVu Sans'" x="2.337891 14.730469 22.365234 30 37.634766 45.269531" y="-0.09375">=42413</tspan>
       </text>
      </g>
     </g>
    </g>
   </g>
   <g id="patch_24">
    <path d="M 229.869531 381.014375 
L 676.269531 381.014375 
" style="fill: none; stroke: #262626; stroke-width: 1.25; stroke-linejoin: miter; stroke-linecap: square"/>
   </g>
  </g>
  <g id="axes_3">
   <g id="matplotlib.axis_4">
    <g id="xtick_8">
     <g id="line2d_26">
      <defs>
       <path id="m2ac8647018" d="M 0 0 
L 0 -6 
" style="stroke: #262626; stroke-width: 0.8"/>
      </defs>
      <g>
       <use xlink:href="#m2ac8647018" x="255.294741" y="27.674375" style="fill: #262626; stroke: #262626; stroke-width: 0.8"/>
      </g>
     </g>
     <g id="text_38">
      <!-- $f(x)$ -->
      <g style="fill: #262626" transform="translate(245.294741 15.789375)">
       <text>
        <tspan style="font: oblique 12px 'DejaVu Sans'" x="0 8.90625" y="-0.875">fx</tspan>
        <tspan style="font: 12px 'DejaVu Sans'" x="4.224609 16.007812" y="-0.875">()</tspan>
       </text>
      </g>
     </g>
    </g>
    <g id="xtick_9">
     <g id="line2d_27">
      <g>
       <use xlink:href="#m2ac8647018" x="255.294741" y="27.674375" style="fill: #262626; stroke: #262626; stroke-width: 0.8"/>
      </g>
     </g>
     <g id="text_39">
      <!-- $ = 19050.461$ -->
      <g style="fill: #999999" transform="translate(267.294741 15.789375)">
       <text>
        <tspan style="font: 12px 'DejaVu Sans'" x="2.337891 14.730469 22.365234 30 37.634766 45.269531 52.904297 56.71875 64.353516 71.988281" y="-0.09375">=19050.461</tspan>
       </text>
      </g>
     </g>
    </g>
   </g>
   <g id="patch_25">
    <path d="M 229.869531 381.014375 
L 676.269531 381.014375 
" style="fill: none; stroke: #262626; stroke-width: 1.25; stroke-linejoin: miter; stroke-linecap: square"/>
   </g>
   <g id="text_40">
    <text style="fill: #262626; font: 15px 'sans-serif'; text-anchor: start" x="676.269531" y="60.027125" transform="rotate(-0, 676.269531, 60.027125)">19060.0</text>
   </g>
  </g>
 </g>
 <defs>
  <clipPath id="p036e1f9c3e">
   <rect x="229.869531" y="27.674375" width="446.4" height="353.34"/>
  </clipPath>
 </defs>
</svg>
