<?xml version="1.0" encoding="utf-8" standalone="no"?>
<!DOCTYPE svg PUBLIC "-//W3C//DTD SVG 1.1//EN"
  "http://www.w3.org/Graphics/SVG/1.1/DTD/svg11.dtd">
<svg xmlns:xlink="http://www.w3.org/1999/xlink" width="459.26293pt" height="302.325375pt" viewBox="0 0 459.26293 302.325375" xmlns="http://www.w3.org/2000/svg" version="1.1">
 <metadata>
  <rdf:RDF xmlns:dc="http://purl.org/dc/elements/1.1/" xmlns:cc="http://creativecommons.org/ns#" xmlns:rdf="http://www.w3.org/1999/02/22-rdf-syntax-ns#">
   <cc:Work>
    <dc:type rdf:resource="http://purl.org/dc/dcmitype/StillImage"/>
    <dc:date>2022-07-01T13:01:04.529775</dc:date>
    <dc:format>image/svg+xml</dc:format>
    <dc:creator>
     <cc:Agent>
      <dc:title>Matplotlib v3.5.2, https://matplotlib.org/</dc:title>
     </cc:Agent>
    </dc:creator>
   </cc:Work>
  </rdf:RDF>
 </metadata>
 <defs>
  <style type="text/css">*{stroke-linejoin: round; stroke-linecap: butt}</style>
 </defs>
 <g id="figure_1">
  <g id="patch_1">
   <path d="M 0 302.325375 
L 459.26293 302.325375 
L 459.26293 0 
L 0 0 
z
" style="fill: #ffffff"/>
  </g>
  <g id="axes_1">
   <g id="patch_2">
    <path d="M 20.71868 240.831562 
L 355.51868 240.831562 
L 355.51868 23.391562 
L 20.71868 23.391562 
z
" style="fill: #ffffff"/>
   </g>
   <g id="matplotlib.axis_1">
    <g id="xtick_1">
     <g id="line2d_1">
      <defs>
       <path id="ma9a777632a" d="M 0 0 
L 0 6 
" style="stroke: #262626; stroke-width: 0.8"/>
      </defs>
      <g>
       <use xlink:href="#ma9a777632a" x="39.88125" y="240.831562" style="fill: #262626; stroke: #262626; stroke-width: 0.8"/>
      </g>
     </g>
     <g id="text_1">
      <text style="fill: #262626; font: 14px 'sans-serif'; text-anchor: middle" x="39.88125" y="260.3525" transform="rotate(-0, 39.88125, 260.3525)">−0.5</text>
     </g>
    </g>
    <g id="xtick_2">
     <g id="line2d_2">
      <g>
       <use xlink:href="#ma9a777632a" x="113.032273" y="240.831562" style="fill: #262626; stroke: #262626; stroke-width: 0.8"/>
      </g>
     </g>
     <g id="text_2">
      <text style="fill: #262626; font: 14px 'sans-serif'; text-anchor: middle" x="113.032273" y="260.3525" transform="rotate(-0, 113.032273, 260.3525)">0.0</text>
     </g>
    </g>
    <g id="xtick_3">
     <g id="line2d_3">
      <g>
       <use xlink:href="#ma9a777632a" x="186.183296" y="240.831562" style="fill: #262626; stroke: #262626; stroke-width: 0.8"/>
      </g>
     </g>
     <g id="text_3">
      <text style="fill: #262626; font: 14px 'sans-serif'; text-anchor: middle" x="186.183296" y="260.3525" transform="rotate(-0, 186.183296, 260.3525)">0.5</text>
     </g>
    </g>
    <g id="xtick_4">
     <g id="line2d_4">
      <g>
       <use xlink:href="#ma9a777632a" x="259.334318" y="240.831562" style="fill: #262626; stroke: #262626; stroke-width: 0.8"/>
      </g>
     </g>
     <g id="text_4">
      <text style="fill: #262626; font: 14px 'sans-serif'; text-anchor: middle" x="259.334318" y="260.3525" transform="rotate(-0, 259.334318, 260.3525)">1.0</text>
     </g>
    </g>
    <g id="xtick_5">
     <g id="line2d_5">
      <g>
       <use xlink:href="#ma9a777632a" x="332.485341" y="240.831562" style="fill: #262626; stroke: #262626; stroke-width: 0.8"/>
      </g>
     </g>
     <g id="text_5">
      <text style="fill: #262626; font: 14px 'sans-serif'; text-anchor: middle" x="332.485341" y="260.3525" transform="rotate(-0, 332.485341, 260.3525)">1.5</text>
     </g>
    </g>
    <g id="text_6">
     <text style="fill: #262626; font: 14px 'sans-serif'" transform="translate(155.170555 277.155937)">Coefficient</text>
     <text style="fill: #262626; font: 14px 'sans-serif'" transform="translate(100.336492 292.178812)">[log2(quant.) / OGTT (AUC)]</text>
    </g>
    <g id="text_7">
     <text style="fill: #262626; font: 10px 'sans-serif'; text-anchor: end" x="355.51868" y="273.292812" transform="rotate(-0, 355.51868, 273.292812)">1e−4</text>
    </g>
   </g>
   <g id="matplotlib.axis_2"/>
   <g id="patch_3">
    <path d="M 113.032273 150.231562 
L 113.032273 150.231562 
L 113.032273 150.231562 
L 113.032273 150.231562 
z
" clip-path="url(#p3fce137074)" style="fill: #3274a1; stroke: #3f3f3f; stroke-width: 0.75; stroke-linejoin: miter"/>
   </g>
   <g id="PolyCollection_1">
    <defs>
     <path id="m1565302d9f" d="M 118.681142 -152.093813 
L 118.681142 -151.881647 
L 120.919721 -151.778458 
L 123.158301 -151.64485 
L 125.39688 -151.481371 
L 127.635459 -151.292807 
L 129.874039 -151.088276 
L 132.112618 -150.87991 
L 134.351197 -150.679881 
L 136.589777 -150.495874 
L 138.828356 -150.325624 
L 141.066935 -150.151525 
L 143.305515 -149.936553 
L 145.544094 -149.622705 
L 147.782673 -149.132889 
L 150.021253 -148.376706 
L 152.259832 -147.259914 
L 154.498412 -145.696605 
L 156.736991 -143.622336 
L 158.97557 -141.005749 
L 161.21415 -137.855926 
L 163.452729 -134.223076 
L 165.691308 -130.191475 
L 167.929888 -125.865594 
L 170.168467 -121.352718 
L 172.407046 -116.747013 
L 174.645626 -112.120214 
L 176.884205 -107.52237 
L 179.122784 -102.992666 
L 181.361364 -98.576552 
L 183.599943 -94.342645 
L 185.838522 -90.392429 
L 188.077102 -86.858142 
L 190.315681 -83.888357 
L 192.55426 -81.62519 
L 194.79284 -80.179894 
L 197.031419 -79.613813 
L 199.269999 -79.929405 
L 201.508578 -81.072349 
L 203.747157 -82.942298 
L 205.985737 -85.407939 
L 208.224316 -88.322043 
L 210.462895 -91.533884 
L 212.701475 -94.898597 
L 214.940054 -98.284688 
L 217.178633 -101.581221 
L 219.417213 -104.70527 
L 221.655792 -107.608549 
L 223.894371 -110.280829 
L 226.132951 -112.747655 
L 228.37153 -115.061205 
L 230.610109 -117.285565 
L 232.848689 -119.480001 
L 235.087268 -121.68499 
L 237.325848 -123.914977 
L 239.564427 -126.159477 
L 241.803006 -128.390988 
L 244.041586 -130.575901 
L 246.280165 -132.683924 
L 248.518744 -134.692892 
L 250.757324 -136.588332 
L 252.995903 -138.359587 
L 255.234482 -139.995563 
L 257.473062 -141.482783 
L 259.711641 -142.806875 
L 261.95022 -143.956665 
L 264.1888 -144.928874 
L 266.427379 -145.731216 
L 268.665958 -146.382644 
L 270.904538 -146.910738 
L 273.143117 -147.347328 
L 275.381696 -147.723839 
L 277.620276 -148.067551 
L 279.858855 -148.39932 
L 282.097435 -148.732662 
L 284.336014 -149.073747 
L 286.574593 -149.421883 
L 288.813173 -149.770308 
L 291.051752 -150.107308 
L 293.290331 -150.417817 
L 295.528911 -150.68552 
L 297.76749 -150.895334 
L 300.006069 -151.035968 
L 302.244649 -151.102167 
L 304.483228 -151.096262 
L 306.721807 -151.028716 
L 308.960387 -150.917441 
L 311.198966 -150.785837 
L 313.437545 -150.65971 
L 315.676125 -150.563521 
L 317.914704 -150.516619 
L 320.153284 -150.530287 
L 322.391863 -150.606269 
L 324.630442 -150.737155 
L 326.869022 -150.908479 
L 329.107601 -151.101972 
L 331.34618 -151.299116 
L 333.58476 -151.484162 
L 335.823339 -151.646036 
L 338.061918 -151.778942 
L 340.300498 -151.881836 
L 340.300498 -152.093813 
L 340.300498 -152.093813 
L 338.061918 -152.093813 
L 335.823339 -152.093813 
L 333.58476 -152.093813 
L 331.34618 -152.093813 
L 329.107601 -152.093813 
L 326.869022 -152.093813 
L 324.630442 -152.093813 
L 322.391863 -152.093813 
L 320.153284 -152.093813 
L 317.914704 -152.093813 
L 315.676125 -152.093813 
L 313.437545 -152.093813 
L 311.198966 -152.093813 
L 308.960387 -152.093813 
L 306.721807 -152.093813 
L 304.483228 -152.093813 
L 302.244649 -152.093813 
L 300.006069 -152.093813 
L 297.76749 -152.093813 
L 295.528911 -152.093813 
L 293.290331 -152.093813 
L 291.051752 -152.093813 
L 288.813173 -152.093813 
L 286.574593 -152.093813 
L 284.336014 -152.093813 
L 282.097435 -152.093813 
L 279.858855 -152.093813 
L 277.620276 -152.093813 
L 275.381696 -152.093813 
L 273.143117 -152.093813 
L 270.904538 -152.093813 
L 268.665958 -152.093813 
L 266.427379 -152.093813 
L 264.1888 -152.093813 
L 261.95022 -152.093813 
L 259.711641 -152.093813 
L 257.473062 -152.093813 
L 255.234482 -152.093813 
L 252.995903 -152.093813 
L 250.757324 -152.093813 
L 248.518744 -152.093813 
L 246.280165 -152.093813 
L 244.041586 -152.093813 
L 241.803006 -152.093813 
L 239.564427 -152.093813 
L 237.325848 -152.093813 
L 235.087268 -152.093813 
L 232.848689 -152.093813 
L 230.610109 -152.093813 
L 228.37153 -152.093813 
L 226.132951 -152.093813 
L 223.894371 -152.093813 
L 221.655792 -152.093813 
L 219.417213 -152.093813 
L 217.178633 -152.093813 
L 214.940054 -152.093813 
L 212.701475 -152.093813 
L 210.462895 -152.093813 
L 208.224316 -152.093813 
L 205.985737 -152.093813 
L 203.747157 -152.093813 
L 201.508578 -152.093813 
L 199.269999 -152.093813 
L 197.031419 -152.093813 
L 194.79284 -152.093813 
L 192.55426 -152.093813 
L 190.315681 -152.093813 
L 188.077102 -152.093813 
L 185.838522 -152.093813 
L 183.599943 -152.093813 
L 181.361364 -152.093813 
L 179.122784 -152.093813 
L 176.884205 -152.093813 
L 174.645626 -152.093813 
L 172.407046 -152.093813 
L 170.168467 -152.093813 
L 167.929888 -152.093813 
L 165.691308 -152.093813 
L 163.452729 -152.093813 
L 161.21415 -152.093813 
L 158.97557 -152.093813 
L 156.736991 -152.093813 
L 154.498412 -152.093813 
L 152.259832 -152.093813 
L 150.021253 -152.093813 
L 147.782673 -152.093813 
L 145.544094 -152.093813 
L 143.305515 -152.093813 
L 141.066935 -152.093813 
L 138.828356 -152.093813 
L 136.589777 -152.093813 
L 134.351197 -152.093813 
L 132.112618 -152.093813 
L 129.874039 -152.093813 
L 127.635459 -152.093813 
L 125.39688 -152.093813 
L 123.158301 -152.093813 
L 120.919721 -152.093813 
L 118.681142 -152.093813 
z
" style="stroke: #3f3f3f; stroke-width: 1.5"/>
    </defs>
    <g clip-path="url(#p3fce137074)">
     <use xlink:href="#m1565302d9f" x="0" y="302.325375" style="fill: #3274a1; stroke: #3f3f3f; stroke-width: 1.5"/>
    </g>
   </g>
   <g id="patch_4">
    <path d="M 113.032273 150.231562 
L 113.032273 150.231562 
L 113.032273 150.231562 
L 113.032273 150.231562 
z
" clip-path="url(#p3fce137074)" style="fill: #e1812c; stroke: #3f3f3f; stroke-width: 0.75; stroke-linejoin: miter"/>
   </g>
   <g id="PolyCollection_2">
    <defs>
     <path id="m1c17d7b85a" d="M 35.936861 -152.467012 
L 35.936861 -152.093813 
L 37.663901 -152.093813 
L 39.39094 -152.093813 
L 41.11798 -152.093813 
L 42.845019 -152.093813 
L 44.572058 -152.093813 
L 46.299098 -152.093813 
L 48.026137 -152.093813 
L 49.753177 -152.093813 
L 51.480216 -152.093813 
L 53.207256 -152.093813 
L 54.934295 -152.093813 
L 56.661335 -152.093813 
L 58.388374 -152.093813 
L 60.115413 -152.093813 
L 61.842453 -152.093813 
L 63.569492 -152.093813 
L 65.296532 -152.093813 
L 67.023571 -152.093813 
L 68.750611 -152.093813 
L 70.47765 -152.093813 
L 72.204689 -152.093813 
L 73.931729 -152.093813 
L 75.658768 -152.093813 
L 77.385808 -152.093813 
L 79.112847 -152.093813 
L 80.839887 -152.093813 
L 82.566926 -152.093813 
L 84.293965 -152.093813 
L 86.021005 -152.093813 
L 87.748044 -152.093813 
L 89.475084 -152.093813 
L 91.202123 -152.093813 
L 92.929163 -152.093813 
L 94.656202 -152.093813 
L 96.383241 -152.093813 
L 98.110281 -152.093813 
L 99.83732 -152.093813 
L 101.56436 -152.093813 
L 103.291399 -152.093813 
L 105.018439 -152.093813 
L 106.745478 -152.093813 
L 108.472517 -152.093813 
L 110.199557 -152.093813 
L 111.926596 -152.093813 
L 113.653636 -152.093813 
L 115.380675 -152.093813 
L 117.107715 -152.093813 
L 118.834754 -152.093813 
L 120.561793 -152.093813 
L 122.288833 -152.093813 
L 124.015872 -152.093813 
L 125.742912 -152.093813 
L 127.469951 -152.093813 
L 129.196991 -152.093813 
L 130.92403 -152.093813 
L 132.65107 -152.093813 
L 134.378109 -152.093813 
L 136.105148 -152.093813 
L 137.832188 -152.093813 
L 139.559227 -152.093813 
L 141.286267 -152.093813 
L 143.013306 -152.093813 
L 144.740346 -152.093813 
L 146.467385 -152.093813 
L 148.194424 -152.093813 
L 149.921464 -152.093813 
L 151.648503 -152.093813 
L 153.375543 -152.093813 
L 155.102582 -152.093813 
L 156.829622 -152.093813 
L 158.556661 -152.093813 
L 160.2837 -152.093813 
L 162.01074 -152.093813 
L 163.737779 -152.093813 
L 165.464819 -152.093813 
L 167.191858 -152.093813 
L 168.918898 -152.093813 
L 170.645937 -152.093813 
L 172.372976 -152.093813 
L 174.100016 -152.093813 
L 175.827055 -152.093813 
L 177.554095 -152.093813 
L 179.281134 -152.093813 
L 181.008174 -152.093813 
L 182.735213 -152.093813 
L 184.462252 -152.093813 
L 186.189292 -152.093813 
L 187.916331 -152.093813 
L 189.643371 -152.093813 
L 191.37041 -152.093813 
L 193.09745 -152.093813 
L 194.824489 -152.093813 
L 196.551529 -152.093813 
L 198.278568 -152.093813 
L 200.005607 -152.093813 
L 201.732647 -152.093813 
L 203.459686 -152.093813 
L 205.186726 -152.093813 
L 206.913765 -152.093813 
L 206.913765 -152.351942 
L 206.913765 -152.351942 
L 205.186726 -152.466044 
L 203.459686 -152.614131 
L 201.732647 -152.799482 
L 200.005607 -153.023413 
L 198.278568 -153.284903 
L 196.551529 -153.5806 
L 194.824489 -153.905255 
L 193.09745 -154.252524 
L 191.37041 -154.61596 
L 189.643371 -154.989993 
L 187.916331 -155.370724 
L 186.189292 -155.756509 
L 184.462252 -156.148481 
L 182.735213 -156.551264 
L 181.008174 -156.974151 
L 179.281134 -157.432841 
L 177.554095 -157.951533 
L 175.827055 -158.564843 
L 174.100016 -159.318801 
L 172.372976 -160.270153 
L 170.645937 -161.48343 
L 168.918898 -163.025703 
L 167.191858 -164.959413 
L 165.464819 -167.334123 
L 163.737779 -170.178304 
L 162.01074 -173.492294 
L 160.2837 -177.243483 
L 158.556661 -181.364524 
L 156.829622 -185.755111 
L 155.102582 -190.287552 
L 153.375543 -194.81599 
L 151.648503 -199.188691 
L 149.921464 -203.262254 
L 148.194424 -206.916118 
L 146.467385 -210.065345 
L 144.740346 -212.669635 
L 143.013306 -214.736855 
L 141.286267 -216.320185 
L 139.559227 -217.509014 
L 137.832188 -218.414848 
L 136.105148 -219.1544 
L 134.378109 -219.832451 
L 132.65107 -220.527053 
L 130.92403 -221.279081 
L 129.196991 -222.087291 
L 127.469951 -222.909207 
L 125.742912 -223.667355 
L 124.015872 -224.259824 
L 122.288833 -224.573813 
L 120.561793 -224.500542 
L 118.834754 -223.949759 
L 117.107715 -222.861992 
L 115.380675 -221.216795 
L 113.653636 -219.035675 
L 111.926596 -216.379141 
L 110.199557 -213.338321 
L 108.472517 -210.022639 
L 106.745478 -206.545793 
L 105.018439 -203.012566 
L 103.291399 -199.508691 
L 101.56436 -196.095246 
L 99.83732 -192.807966 
L 98.110281 -189.660883 
L 96.383241 -186.652889 
L 94.656202 -183.775442 
L 92.929163 -181.019655 
L 91.202123 -178.381414 
L 89.475084 -175.863768 
L 87.748044 -173.476567 
L 86.021005 -171.233958 
L 84.293965 -169.150783 
L 82.566926 -167.239075 
L 80.839887 -165.505674 
L 79.112847 -163.95152 
L 77.385808 -162.572622 
L 75.658768 -161.362114 
L 73.931729 -160.312489 
L 72.204689 -159.417084 
L 70.47765 -158.670176 
L 68.750611 -158.065596 
L 67.023571 -157.594341 
L 65.296532 -157.242081 
L 63.569492 -156.987571 
L 61.842453 -156.80276 
L 60.115413 -156.65488 
L 58.388374 -156.510193 
L 56.661335 -156.338569 
L 54.934295 -156.11777 
L 53.207256 -155.836431 
L 51.480216 -155.495035 
L 49.753177 -155.104738 
L 48.026137 -154.684438 
L 46.299098 -154.256834 
L 44.572058 -153.844402 
L 42.845019 -153.466072 
L 41.11798 -153.135122 
L 39.39094 -152.858441 
L 37.663901 -152.636977 
L 35.936861 -152.467012 
z
" style="stroke: #3f3f3f; stroke-width: 1.5"/>
    </defs>
    <g clip-path="url(#p3fce137074)">
     <use xlink:href="#m1c17d7b85a" x="0" y="302.325375" style="fill: #e1812c; stroke: #3f3f3f; stroke-width: 1.5"/>
    </g>
   </g>
   <g id="line2d_6">
    <path d="M 20.71868 150.231562 
L 355.51868 150.231562 
" clip-path="url(#p3fce137074)" style="fill: none; stroke: #000000; stroke-width: 2; stroke-linecap: round"/>
   </g>
   <g id="line2d_7">
    <path d="M 113.032273 240.831562 
L 113.032273 66.879562 
" clip-path="url(#p3fce137074)" style="fill: none; stroke: #000000; stroke-width: 1.5; stroke-linecap: round"/>
   </g>
   <g id="patch_5">
    <path d="M 20.71868 240.831562 
L 355.51868 240.831562 
" style="fill: none; stroke: #262626; stroke-width: 1.25; stroke-linejoin: miter; stroke-linecap: square"/>
   </g>
   <g id="text_8">
    <text style="fill: #262626; font: 14px 'sans-serif'" transform="translate(104.084304 44.823937)">No</text>
    <text style="fill: #262626; font: 14px 'sans-serif'" transform="translate(80.352117 59.631562)">correlation</text>
   </g>
   <g id="text_9">
    <text style="fill: #262626; font: 14px 'sans-serif'" transform="translate(288.28998 117.139875)">Positively</text>
    <text style="fill: #262626; font: 14px 'sans-serif'" transform="translate(286.730293 132.111562)">correlated</text>
   </g>
   <g id="text_10">
    <text style="fill: #262626; font: 14px 'sans-serif'" transform="translate(7.2 117.139875)">Negatively</text>
    <text style="fill: #262626; font: 14px 'sans-serif'" transform="translate(8.756406 132.111562)">correlated</text>
   </g>
   <g id="text_11">
    <text style="fill: #262626; font: 14px 'sans-serif'; text-anchor: middle" x="188.11868" y="17.391562" transform="rotate(-0, 188.11868, 17.391562)">Distribution of TG Linear regression coefficients</text>
   </g>
   <g id="legend_1">
    <g id="patch_6">
     <path d="M 364.46668 125.669625 
L 392.46668 125.669625 
L 392.46668 115.869625 
L 364.46668 115.869625 
z
" style="fill: #3274a1; stroke: #3f3f3f; stroke-width: 0.75; stroke-linejoin: miter"/>
    </g>
    <g id="text_12">
     <text style="fill: #262626; font: 14px 'sans-serif'; text-anchor: start" x="403.66668" y="125.669625" transform="rotate(-0, 403.66668, 125.669625)">Fed</text>
    </g>
    <g id="patch_7">
     <path d="M 364.46668 145.473062 
L 392.46668 145.473062 
L 392.46668 135.673062 
L 364.46668 135.673062 
z
" style="fill: #e1812c; stroke: #3f3f3f; stroke-width: 0.75; stroke-linejoin: miter"/>
    </g>
    <g id="text_13">
     <text style="fill: #262626; font: 14px 'sans-serif'; text-anchor: start" x="403.66668" y="145.473062" transform="rotate(-0, 403.66668, 145.473062)">Fasted</text>
    </g>
   </g>
  </g>
 </g>
 <defs>
  <clipPath id="p3fce137074">
   <rect x="20.71868" y="23.391562" width="334.8" height="217.44"/>
  </clipPath>
 </defs>
</svg>
