<?xml version="1.0" encoding="utf-8" standalone="no"?>
<!DOCTYPE svg PUBLIC "-//W3C//DTD SVG 1.1//EN"
  "http://www.w3.org/Graphics/SVG/1.1/DTD/svg11.dtd">
<svg xmlns:xlink="http://www.w3.org/1999/xlink" width="730.455938pt" height="422.381pt" viewBox="0 0 730.455938 422.381" xmlns="http://www.w3.org/2000/svg" version="1.1">
 <metadata>
  <rdf:RDF xmlns:dc="http://purl.org/dc/elements/1.1/" xmlns:cc="http://creativecommons.org/ns#" xmlns:rdf="http://www.w3.org/1999/02/22-rdf-syntax-ns#">
   <cc:Work>
    <dc:type rdf:resource="http://purl.org/dc/dcmitype/StillImage"/>
    <dc:date>2022-10-11T11:06:20.310925</dc:date>
    <dc:format>image/svg+xml</dc:format>
    <dc:creator>
     <cc:Agent>
      <dc:title>Matplotlib v3.5.2, https://matplotlib.org/</dc:title>
     </cc:Agent>
    </dc:creator>
   </cc:Work>
  </rdf:RDF>
 </metadata>
 <defs>
  <style type="text/css">*{stroke-linejoin: round; stroke-linecap: butt}</style>
 </defs>
 <g id="figure_1">
  <g id="patch_1">
   <path d="M 0 422.381 
L 730.455938 422.381 
L 730.455938 0 
L 0 0 
z
" style="fill: #ffffff"/>
  </g>
  <g id="axes_1">
   <g id="patch_2">
    <path d="M 222.640312 381.014375 
L 669.040313 381.014375 
L 669.040313 27.674375 
L 222.640312 27.674375 
z
" style="fill: #ffffff"/>
   </g>
   <g id="line2d_1">
    <path d="M 528.616578 102.734542 
L 528.616578 43.735284 
" clip-path="url(#p80d1561ee0)" style="fill: none; stroke-dasharray: 1.85,0.8; stroke-dashoffset: 0; stroke: #bbbbbb; stroke-width: 0.5"/>
   </g>
   <g id="line2d_2">
    <path d="M 342.460078 135.511907 
L 342.460078 76.51265 
" clip-path="url(#p80d1561ee0)" style="fill: none; stroke-dasharray: 1.85,0.8; stroke-dashoffset: 0; stroke: #bbbbbb; stroke-width: 0.5"/>
   </g>
   <g id="line2d_3">
    <path d="M 466.64125 168.289273 
L 466.64125 109.290015 
" clip-path="url(#p80d1561ee0)" style="fill: none; stroke-dasharray: 1.85,0.8; stroke-dashoffset: 0; stroke: #bbbbbb; stroke-width: 0.5"/>
   </g>
   <g id="line2d_4">
    <path d="M 543.313849 201.066638 
L 543.313849 142.067381 
" clip-path="url(#p80d1561ee0)" style="fill: none; stroke-dasharray: 1.85,0.8; stroke-dashoffset: 0; stroke: #bbbbbb; stroke-width: 0.5"/>
   </g>
   <g id="line2d_5">
    <path d="M 605.437832 233.844004 
L 605.437832 174.844746 
" clip-path="url(#p80d1561ee0)" style="fill: none; stroke-dasharray: 1.85,0.8; stroke-dashoffset: 0; stroke: #bbbbbb; stroke-width: 0.5"/>
   </g>
   <g id="line2d_6">
    <path d="M 664.872245 266.621369 
L 664.872245 207.622112 
" clip-path="url(#p80d1561ee0)" style="fill: none; stroke-dasharray: 1.85,0.8; stroke-dashoffset: 0; stroke: #bbbbbb; stroke-width: 0.5"/>
   </g>
   <g id="line2d_7">
    <path d="M 222.640312 351.84252 
L 669.040313 351.84252 
" clip-path="url(#p80d1561ee0)" style="fill: none; stroke-dasharray: 0.5,2.5; stroke-dashoffset: 0; stroke: #cccccc; stroke-width: 0.5"/>
   </g>
   <g id="line2d_8">
    <path d="M 222.640312 319.065154 
L 669.040313 319.065154 
" clip-path="url(#p80d1561ee0)" style="fill: none; stroke-dasharray: 0.5,2.5; stroke-dashoffset: 0; stroke: #cccccc; stroke-width: 0.5"/>
   </g>
   <g id="line2d_9">
    <path d="M 222.640312 286.287789 
L 669.040313 286.287789 
" clip-path="url(#p80d1561ee0)" style="fill: none; stroke-dasharray: 0.5,2.5; stroke-dashoffset: 0; stroke: #cccccc; stroke-width: 0.5"/>
   </g>
   <g id="line2d_10">
    <path d="M 222.640312 253.510423 
L 669.040313 253.510423 
" clip-path="url(#p80d1561ee0)" style="fill: none; stroke-dasharray: 0.5,2.5; stroke-dashoffset: 0; stroke: #cccccc; stroke-width: 0.5"/>
   </g>
   <g id="line2d_11">
    <path d="M 222.640312 220.733058 
L 669.040313 220.733058 
" clip-path="url(#p80d1561ee0)" style="fill: none; stroke-dasharray: 0.5,2.5; stroke-dashoffset: 0; stroke: #cccccc; stroke-width: 0.5"/>
   </g>
   <g id="line2d_12">
    <path d="M 222.640312 187.955692 
L 669.040313 187.955692 
" clip-path="url(#p80d1561ee0)" style="fill: none; stroke-dasharray: 0.5,2.5; stroke-dashoffset: 0; stroke: #cccccc; stroke-width: 0.5"/>
   </g>
   <g id="line2d_13">
    <path d="M 222.640312 155.178327 
L 669.040313 155.178327 
" clip-path="url(#p80d1561ee0)" style="fill: none; stroke-dasharray: 0.5,2.5; stroke-dashoffset: 0; stroke: #cccccc; stroke-width: 0.5"/>
   </g>
   <g id="line2d_14">
    <path d="M 222.640312 122.400961 
L 669.040313 122.400961 
" clip-path="url(#p80d1561ee0)" style="fill: none; stroke-dasharray: 0.5,2.5; stroke-dashoffset: 0; stroke: #cccccc; stroke-width: 0.5"/>
   </g>
   <g id="line2d_15">
    <path d="M 222.640312 89.623596 
L 669.040313 89.623596 
" clip-path="url(#p80d1561ee0)" style="fill: none; stroke-dasharray: 0.5,2.5; stroke-dashoffset: 0; stroke: #cccccc; stroke-width: 0.5"/>
   </g>
   <g id="line2d_16">
    <path d="M 222.640312 56.84623 
L 669.040313 56.84623 
" clip-path="url(#p80d1561ee0)" style="fill: none; stroke-dasharray: 0.5,2.5; stroke-dashoffset: 0; stroke: #cccccc; stroke-width: 0.5"/>
   </g>
   <g id="line2d_17">
    <path d="M 632.460872 381.014375 
L 632.460872 345.680375 
" clip-path="url(#p80d1561ee0)" style="fill: none; stroke-dasharray: 1.85,0.8; stroke-dashoffset: 0; stroke: #bbbbbb; stroke-width: 0.5"/>
   </g>
   <g id="line2d_18">
    <path d="M 248.065523 381.014375 
L 248.065523 27.674375 
" clip-path="url(#p80d1561ee0)" style="fill: none; stroke-dasharray: 1.85,0.8; stroke-dashoffset: 0; stroke: #bbbbbb; stroke-width: 0.5"/>
   </g>
   <g id="matplotlib.axis_1">
    <g id="xtick_1">
     <g id="line2d_19">
      <defs>
       <path id="mcaa8b67eb4" d="M 0 0 
L 0 6 
" style="stroke: #262626; stroke-width: 0.8"/>
      </defs>
      <g>
       <use xlink:href="#mcaa8b67eb4" x="240.616715" y="381.014375" style="fill: #262626; stroke: #262626; stroke-width: 0.8"/>
      </g>
     </g>
     <g id="text_1">
      <text style="fill: #262626; font: 13px 'sans-serif'; text-anchor: middle" x="240.616715" y="399.819531" transform="rotate(-0, 240.616715, 399.819531)">30000</text>
     </g>
    </g>
    <g id="xtick_2">
     <g id="line2d_20">
      <g>
       <use xlink:href="#mcaa8b67eb4" x="303.751196" y="381.014375" style="fill: #262626; stroke: #262626; stroke-width: 0.8"/>
      </g>
     </g>
     <g id="text_2">
      <text style="fill: #262626; font: 13px 'sans-serif'; text-anchor: middle" x="303.751196" y="399.819531" transform="rotate(-0, 303.751196, 399.819531)">32000</text>
     </g>
    </g>
    <g id="xtick_3">
     <g id="line2d_21">
      <g>
       <use xlink:href="#mcaa8b67eb4" x="366.885677" y="381.014375" style="fill: #262626; stroke: #262626; stroke-width: 0.8"/>
      </g>
     </g>
     <g id="text_3">
      <text style="fill: #262626; font: 13px 'sans-serif'; text-anchor: middle" x="366.885677" y="399.819531" transform="rotate(-0, 366.885677, 399.819531)">34000</text>
     </g>
    </g>
    <g id="xtick_4">
     <g id="line2d_22">
      <g>
       <use xlink:href="#mcaa8b67eb4" x="430.020158" y="381.014375" style="fill: #262626; stroke: #262626; stroke-width: 0.8"/>
      </g>
     </g>
     <g id="text_4">
      <text style="fill: #262626; font: 13px 'sans-serif'; text-anchor: middle" x="430.020158" y="399.819531" transform="rotate(-0, 430.020158, 399.819531)">36000</text>
     </g>
    </g>
    <g id="xtick_5">
     <g id="line2d_23">
      <g>
       <use xlink:href="#mcaa8b67eb4" x="493.154639" y="381.014375" style="fill: #262626; stroke: #262626; stroke-width: 0.8"/>
      </g>
     </g>
     <g id="text_5">
      <text style="fill: #262626; font: 13px 'sans-serif'; text-anchor: middle" x="493.154639" y="399.819531" transform="rotate(-0, 493.154639, 399.819531)">38000</text>
     </g>
    </g>
    <g id="xtick_6">
     <g id="line2d_24">
      <g>
       <use xlink:href="#mcaa8b67eb4" x="556.28912" y="381.014375" style="fill: #262626; stroke: #262626; stroke-width: 0.8"/>
      </g>
     </g>
     <g id="text_6">
      <text style="fill: #262626; font: 13px 'sans-serif'; text-anchor: middle" x="556.28912" y="399.819531" transform="rotate(-0, 556.28912, 399.819531)">40000</text>
     </g>
    </g>
    <g id="xtick_7">
     <g id="line2d_25">
      <g>
       <use xlink:href="#mcaa8b67eb4" x="619.423601" y="381.014375" style="fill: #262626; stroke: #262626; stroke-width: 0.8"/>
      </g>
     </g>
     <g id="text_7">
      <text style="fill: #262626; font: 13px 'sans-serif'; text-anchor: middle" x="619.423601" y="399.819531" transform="rotate(-0, 619.423601, 399.819531)">42000</text>
     </g>
    </g>
   </g>
   <g id="matplotlib.axis_2">
    <g id="ytick_1">
     <g id="text_8">
      <text style="fill: #999999; font: 13px 'sans-serif'; text-anchor: end" x="213.140312" y="356.495098" transform="rotate(-0, 213.140312, 356.495098)">−0.006 = PC 38:7</text>
     </g>
    </g>
    <g id="ytick_2">
     <g id="text_9">
      <text style="fill: #999999; font: 13px 'sans-serif'; text-anchor: end" x="213.140312" y="323.796951" transform="rotate(-0, 213.140312, 323.796951)">−1.654 = TG 18:1_22:6_22:6</text>
     </g>
    </g>
    <g id="ytick_3">
     <g id="text_10">
      <text style="fill: #999999; font: 13px 'sans-serif'; text-anchor: end" x="213.140312" y="291.019586" transform="rotate(-0, 213.140312, 291.019586)">−1.82 = TG 20:5_22:6_22:6</text>
     </g>
    </g>
    <g id="ytick_4">
     <g id="text_11">
      <text style="fill: #999999; font: 13px 'sans-serif'; text-anchor: end" x="213.140312" y="258.163001" transform="rotate(-0, 213.140312, 258.163001)">−0.496 = CE 18:1</text>
     </g>
    </g>
    <g id="ytick_5">
     <g id="text_12">
      <text style="fill: #999999; font: 13px 'sans-serif'; text-anchor: end" x="213.140312" y="225.385636" transform="rotate(-0, 213.140312, 225.385636)">−1.068 = PC 36:3</text>
     </g>
    </g>
    <g id="ytick_6">
     <g id="text_13">
      <text style="fill: #999999; font: 13px 'sans-serif'; text-anchor: end" x="213.140312" y="192.60827" transform="rotate(-0, 213.140312, 192.60827)">−0.972 = SM d37:1</text>
     </g>
    </g>
    <g id="ytick_7">
     <g id="text_14">
      <text style="fill: #999999; font: 13px 'sans-serif'; text-anchor: end" x="213.140312" y="159.914186" transform="rotate(-0, 213.140312, 159.914186)">−0.93 = Plasmanyl-PC O-20:0_20:4</text>
     </g>
    </g>
    <g id="ytick_8">
     <g id="text_15">
      <text style="fill: #999999; font: 13px 'sans-serif'; text-anchor: end" x="213.140312" y="127.132758" transform="rotate(-0, 213.140312, 127.132758)">−2.179 = 4-Guanidinobutyric acid</text>
     </g>
    </g>
    <g id="ytick_9">
     <g id="text_16">
      <text style="fill: #999999; font: 13px 'sans-serif'; text-anchor: end" x="213.140312" y="94.276174" transform="rotate(-0, 213.140312, 94.276174)">−2.553 = FA 18:0</text>
     </g>
    </g>
    <g id="ytick_10">
     <g id="text_17">
      <text style="fill: #999999; font: 13px 'sans-serif'; text-anchor: end" x="213.140312" y="61.578027" transform="rotate(-0, 213.140312, 61.578027)">−1.703 = TG 22:6_22:6_22:6</text>
     </g>
    </g>
    <g id="ytick_11">
     <g id="text_18">
      <text style="fill: #262626; font: 13px 'sans-serif'; text-anchor: end" x="213.140312" y="356.495098" transform="rotate(-0, 213.140312, 356.495098)"> PC 38:7</text>
     </g>
    </g>
    <g id="ytick_12">
     <g id="text_19">
      <text style="fill: #262626; font: 13px 'sans-serif'; text-anchor: end" x="213.140312" y="323.796951" transform="rotate(-0, 213.140312, 323.796951)"> TG 18:1_22:6_22:6</text>
     </g>
    </g>
    <g id="ytick_13">
     <g id="text_20">
      <text style="fill: #262626; font: 13px 'sans-serif'; text-anchor: end" x="213.140312" y="291.019585" transform="rotate(-0, 213.140312, 291.019585)"> TG 20:5_22:6_22:6</text>
     </g>
    </g>
    <g id="ytick_14">
     <g id="text_21">
      <text style="fill: #262626; font: 13px 'sans-serif'; text-anchor: end" x="213.140312" y="258.163001" transform="rotate(-0, 213.140312, 258.163001)"> CE 18:1</text>
     </g>
    </g>
    <g id="ytick_15">
     <g id="text_22">
      <text style="fill: #262626; font: 13px 'sans-serif'; text-anchor: end" x="213.140312" y="225.385636" transform="rotate(-0, 213.140312, 225.385636)"> PC 36:3</text>
     </g>
    </g>
    <g id="ytick_16">
     <g id="text_23">
      <text style="fill: #262626; font: 13px 'sans-serif'; text-anchor: end" x="213.140312" y="192.60827" transform="rotate(-0, 213.140312, 192.60827)"> SM d37:1</text>
     </g>
    </g>
    <g id="ytick_17">
     <g id="text_24">
      <text style="fill: #262626; font: 13px 'sans-serif'; text-anchor: end" x="213.140312" y="159.914186" transform="rotate(-0, 213.140312, 159.914186)"> Plasmanyl-PC O-20:0_20:4</text>
     </g>
    </g>
    <g id="ytick_18">
     <g id="text_25">
      <text style="fill: #262626; font: 13px 'sans-serif'; text-anchor: end" x="213.140312" y="127.132758" transform="rotate(-0, 213.140312, 127.132758)"> 4-Guanidinobutyric acid</text>
     </g>
    </g>
    <g id="ytick_19">
     <g id="text_26">
      <text style="fill: #262626; font: 13px 'sans-serif'; text-anchor: end" x="213.140312" y="94.276174" transform="rotate(-0, 213.140312, 94.276174)"> FA 18:0</text>
     </g>
    </g>
    <g id="ytick_20">
     <g id="text_27">
      <text style="fill: #262626; font: 13px 'sans-serif'; text-anchor: end" x="213.140312" y="61.578027" transform="rotate(-0, 213.140312, 61.578027)"> TG 22:6_22:6_22:6</text>
     </g>
    </g>
   </g>
   <g id="patch_3">
    <path d="M 338.292011 102.734542 
L 532.784645 102.734542 
L 532.784645 76.51265 
L 338.292011 76.51265 
L 338.292011 102.734542 
z
" clip-path="url(#p80d1561ee0)" style="fill: none; opacity: 0"/>
   </g>
   <g id="patch_4">
    <path d="M 634.572432 266.621369 
L 669.040313 266.621369 
L 669.040313 240.399477 
L 634.572432 240.399477 
L 634.572432 266.621369 
z
" clip-path="url(#p80d1561ee0)" style="fill: none; opacity: 0"/>
   </g>
   <g id="patch_5">
    <path d="M 610.48194 299.398735 
L 642.908566 299.398735 
L 642.908566 273.176843 
L 610.48194 273.176843 
L 610.48194 299.398735 
z
" clip-path="url(#p80d1561ee0)" style="fill: none; opacity: 0"/>
   </g>
   <g id="patch_6">
    <path d="M 628.292805 364.953466 
L 636.908939 364.953466 
L 636.908939 338.731574 
L 628.292805 338.731574 
L 628.292805 364.953466 
z
" clip-path="url(#p80d1561ee0)" style="fill: none; opacity: 0"/>
   </g>
   <g id="patch_7">
    <path d="M 532.784645 69.957176 
L 243.897455 69.957176 
L 243.897455 43.735284 
L 532.784645 43.735284 
L 532.784645 69.957176 
z
" clip-path="url(#p80d1561ee0)" style="fill: none; opacity: 0"/>
   </g>
   <g id="patch_8">
    <path d="M 470.809317 135.511907 
L 338.292011 135.511907 
L 338.292011 109.290015 
L 470.809317 109.290015 
L 470.809317 135.511907 
z
" clip-path="url(#p80d1561ee0)" style="fill: none; opacity: 0"/>
   </g>
   <g id="patch_9">
    <path d="M 547.481916 168.289273 
L 462.473182 168.289273 
L 462.473182 142.067381 
L 547.481916 142.067381 
L 547.481916 168.289273 
z
" clip-path="url(#p80d1561ee0)" style="fill: none; opacity: 0"/>
   </g>
   <g id="patch_10">
    <path d="M 609.605899 201.066638 
L 539.145781 201.066638 
L 539.145781 174.844746 
L 609.605899 174.844746 
L 609.605899 201.066638 
z
" clip-path="url(#p80d1561ee0)" style="fill: none; opacity: 0"/>
   </g>
   <g id="patch_11">
    <path d="M 669.040313 233.844004 
L 601.269765 233.844004 
L 601.269765 207.622112 
L 669.040313 207.622112 
L 669.040313 233.844004 
z
" clip-path="url(#p80d1561ee0)" style="fill: none; opacity: 0"/>
   </g>
   <g id="patch_12">
    <path d="M 636.908939 332.1761 
L 610.48194 332.1761 
L 610.48194 305.954208 
L 636.908939 305.954208 
L 636.908939 332.1761 
z
" clip-path="url(#p80d1561ee0)" style="fill: none; opacity: 0"/>
   </g>
   <g id="patch_13">
    <path d="M 528.616578 89.623596 
L 522.856578 102.734542 
L 522.856578 102.734542 
L 342.460078 102.734542 
L 342.460078 76.51265 
L 522.856578 76.51265 
L 522.856578 76.51265 
z
" clip-path="url(#p80d1561ee0)" style="fill: #ff0051; stroke: #ff0051; stroke-linejoin: miter"/>
   </g>
   <g id="patch_14">
    <path d="M 664.872245 253.510423 
L 659.112245 266.621369 
L 659.112245 266.621369 
L 638.740499 266.621369 
L 638.740499 240.399477 
L 659.112245 240.399477 
L 659.112245 240.399477 
z
" clip-path="url(#p80d1561ee0)" style="fill: #ff0051; stroke: #ff0051; stroke-linejoin: miter"/>
   </g>
   <g id="patch_15">
    <path d="M 638.740499 286.287789 
L 632.980499 299.398735 
L 632.980499 299.398735 
L 614.650007 299.398735 
L 614.650007 273.176843 
L 632.980499 273.176843 
L 632.980499 273.176843 
z
" clip-path="url(#p80d1561ee0)" style="fill: #ff0051; stroke: #ff0051; stroke-linejoin: miter"/>
   </g>
   <g id="patch_16">
    <path d="M 632.740872 351.84252 
L 632.460872 364.953466 
L 632.460872 364.953466 
L 632.460872 364.953466 
L 632.460872 338.731574 
L 632.460872 338.731574 
L 632.460872 338.731574 
z
" clip-path="url(#p80d1561ee0)" style="fill: #ff0051; stroke: #ff0051; stroke-linejoin: miter"/>
   </g>
   <g id="patch_17">
    <path d="M 248.065523 56.84623 
L 253.825523 43.735284 
L 253.825523 43.735284 
L 528.616578 43.735284 
L 528.616578 69.957176 
L 253.825523 69.957176 
L 253.825523 69.957176 
z
" clip-path="url(#p80d1561ee0)" style="fill: #008bfb; stroke: #008bfb; stroke-linejoin: miter"/>
   </g>
   <g id="patch_18">
    <path d="M 342.460078 122.400961 
L 348.220078 109.290015 
L 348.220078 109.290015 
L 466.64125 109.290015 
L 466.64125 135.511907 
L 348.220078 135.511907 
L 348.220078 135.511907 
z
" clip-path="url(#p80d1561ee0)" style="fill: #008bfb; stroke: #008bfb; stroke-linejoin: miter"/>
   </g>
   <g id="patch_19">
    <path d="M 466.64125 155.178327 
L 472.40125 142.067381 
L 472.40125 142.067381 
L 543.313849 142.067381 
L 543.313849 168.289273 
L 472.40125 168.289273 
L 472.40125 168.289273 
z
" clip-path="url(#p80d1561ee0)" style="fill: #008bfb; stroke: #008bfb; stroke-linejoin: miter"/>
   </g>
   <g id="patch_20">
    <path d="M 543.313849 187.955692 
L 549.073849 174.844746 
L 549.073849 174.844746 
L 605.437832 174.844746 
L 605.437832 201.066638 
L 549.073849 201.066638 
L 549.073849 201.066638 
z
" clip-path="url(#p80d1561ee0)" style="fill: #008bfb; stroke: #008bfb; stroke-linejoin: miter"/>
   </g>
   <g id="patch_21">
    <path d="M 605.437832 220.733058 
L 611.197832 207.622112 
L 611.197832 207.622112 
L 664.872245 207.622112 
L 664.872245 233.844004 
L 611.197832 233.844004 
L 611.197832 233.844004 
z
" clip-path="url(#p80d1561ee0)" style="fill: #008bfb; stroke: #008bfb; stroke-linejoin: miter"/>
   </g>
   <g id="patch_22">
    <path d="M 614.650007 319.065154 
L 620.410007 305.954208 
L 620.410007 305.954208 
L 632.740872 305.954208 
L 632.740872 332.1761 
L 620.410007 332.1761 
L 620.410007 332.1761 
z
" clip-path="url(#p80d1561ee0)" style="fill: #008bfb; stroke: #008bfb; stroke-linejoin: miter"/>
   </g>
   <g id="patch_23">
    <path d="M 222.640313 381.014375 
L 669.040313 381.014375 
" style="fill: none; stroke: #262626; stroke-width: 1.25; stroke-linejoin: miter; stroke-linecap: square"/>
   </g>
   <g id="text_28">
    <text style="fill: #ffffff; font: 12px 'sans-serif'; text-anchor: middle" x="435.538328" y="92.725783" transform="rotate(-0, 435.538328, 92.725783)">+5897.14</text>
   </g>
   <g id="text_29">
    <text style="fill: #ff0051; font: 12px 'sans-serif'; text-anchor: start" x="669.872245" y="256.612611" transform="rotate(-0, 669.872245, 256.612611)">+827.81</text>
   </g>
   <g id="text_30">
    <text style="fill: #ff0051; font: 12px 'sans-serif'; text-anchor: start" x="643.740499" y="289.389976" transform="rotate(-0, 643.740499, 289.389976)">+763.15</text>
   </g>
   <g id="text_31">
    <text style="fill: #ff0051; font: 12px 'sans-serif'; text-anchor: start" x="637.740872" y="354.944707" transform="rotate(-0, 637.740872, 354.944707)">+8.87</text>
   </g>
   <g id="text_32">
    <text style="fill: #ffffff; font: 12px 'sans-serif'; text-anchor: middle" x="388.34105" y="59.948418" transform="rotate(-0, 388.34105, 59.948418)">−8887.41</text>
   </g>
   <g id="text_33">
    <text style="fill: #ffffff; font: 12px 'sans-serif'; text-anchor: middle" x="404.550664" y="125.503149" transform="rotate(-0, 404.550664, 125.503149)">−3933.86</text>
   </g>
   <g id="text_34">
    <text style="fill: #ffffff; font: 12px 'sans-serif'; text-anchor: middle" x="504.977549" y="158.280514" transform="rotate(-0, 504.977549, 158.280514)">−2428.87</text>
   </g>
   <g id="text_35">
    <text style="fill: #ffffff; font: 12px 'sans-serif'; text-anchor: middle" x="574.37584" y="191.05788" transform="rotate(-0, 574.37584, 191.05788)">−1967.99</text>
   </g>
   <g id="text_36">
    <text style="fill: #ffffff; font: 12px 'sans-serif'; text-anchor: middle" x="635.155039" y="223.835245" transform="rotate(-0, 635.155039, 223.835245)">−1882.79</text>
   </g>
   <g id="text_37">
    <text style="fill: #008bfb; font: 12px 'sans-serif'; text-anchor: end" x="609.650007" y="322.167342" transform="rotate(-0, 609.650007, 322.167342)">−573.09</text>
   </g>
  </g>
  <g id="axes_2">
   <g id="matplotlib.axis_3">
    <g id="xtick_8">
     <g id="line2d_26">
      <g>
       <use xlink:href="#mcaa8b67eb4" x="632.460872" y="381.014375" style="fill: #262626; stroke: #262626; stroke-width: 0.8"/>
      </g>
     </g>
     <g id="text_38">
      <text style="fill: #262626; font: 12px 'sans-serif'" transform="translate(612.460872 399.10375)"/>
      <!-- $E[f(X)]$ -->
      <g style="fill: #262626" transform="translate(612.460872 411.796)">
       <text>
        <tspan style="font: oblique 12px 'DejaVu Sans'" x="0 12.263672 21.169922" y="-0.875">EfX</tspan>
        <tspan style="font: 12px 'DejaVu Sans'" x="7.582031 16.488281 29.390625 34.072266" y="-0.875">[()]</tspan>
       </text>
      </g>
     </g>
    </g>
    <g id="xtick_9">
     <g id="line2d_27">
      <g>
       <use xlink:href="#mcaa8b67eb4" x="632.460872" y="381.014375" style="fill: #262626; stroke: #262626; stroke-width: 0.8"/>
      </g>
     </g>
     <g id="text_39">
      <text style="fill: #999999; font: 12px 'sans-serif'" transform="translate(654.460872 400.10375)"/>
      <!-- $ = 42413$ -->
      <g style="fill: #999999" transform="translate(654.460872 412.796)">
       <text>
        <tspan style="font: 12px 'DejaVu Sans'" x="2.337891 14.730469 22.365234 30 37.634766 45.269531" y="-0.09375">=42413</tspan>
       </text>
      </g>
     </g>
    </g>
   </g>
   <g id="patch_24">
    <path d="M 222.640313 381.014375 
L 669.040313 381.014375 
" style="fill: none; stroke: #262626; stroke-width: 1.25; stroke-linejoin: miter; stroke-linecap: square"/>
   </g>
  </g>
  <g id="axes_3">
   <g id="matplotlib.axis_4">
    <g id="xtick_10">
     <g id="line2d_28">
      <defs>
       <path id="m529533c7a5" d="M 0 0 
L 0 -6 
" style="stroke: #262626; stroke-width: 0.8"/>
      </defs>
      <g>
       <use xlink:href="#m529533c7a5" x="248.065523" y="27.674375" style="fill: #262626; stroke: #262626; stroke-width: 0.8"/>
      </g>
     </g>
     <g id="text_40">
      <!-- $f(x)$ -->
      <g style="fill: #262626" transform="translate(238.065523 15.789375)">
       <text>
        <tspan style="font: oblique 12px 'DejaVu Sans'" x="0 8.90625" y="-0.875">fx</tspan>
        <tspan style="font: 12px 'DejaVu Sans'" x="4.224609 16.007812" y="-0.875">()</tspan>
       </text>
      </g>
     </g>
    </g>
    <g id="xtick_11">
     <g id="line2d_29">
      <g>
       <use xlink:href="#m529533c7a5" x="248.065523" y="27.674375" style="fill: #262626; stroke: #262626; stroke-width: 0.8"/>
      </g>
     </g>
     <g id="text_41">
      <!-- $ = 30235.966$ -->
      <g style="fill: #999999" transform="translate(260.065523 15.789375)">
       <text>
        <tspan style="font: 12px 'DejaVu Sans'" x="2.337891 14.730469 22.365234 30 37.634766 45.269531 52.904297 56.71875 64.353516 71.988281" y="-0.09375">=30235.966</tspan>
       </text>
      </g>
     </g>
    </g>
   </g>
   <g id="patch_25">
    <path d="M 222.640313 381.014375 
L 669.040313 381.014375 
" style="fill: none; stroke: #262626; stroke-width: 1.25; stroke-linejoin: miter; stroke-linecap: square"/>
   </g>
   <g id="text_42">
    <text style="fill: #262626; font: 15px 'sans-serif'; text-anchor: start" x="669.040313" y="60.027125" transform="rotate(-0, 669.040313, 60.027125)">34022.5</text>
   </g>
  </g>
 </g>
 <defs>
  <clipPath id="p80d1561ee0">
   <rect x="222.640312" y="27.674375" width="446.4" height="353.34"/>
  </clipPath>
 </defs>
</svg>
