<?xml version="1.0" encoding="utf-8" standalone="no"?>
<!DOCTYPE svg PUBLIC "-//W3C//DTD SVG 1.1//EN"
  "http://www.w3.org/Graphics/SVG/1.1/DTD/svg11.dtd">
<svg xmlns:xlink="http://www.w3.org/1999/xlink" width="742.131509pt" height="422.381pt" viewBox="0 0 742.131509 422.381" xmlns="http://www.w3.org/2000/svg" version="1.1">
 <metadata>
  <rdf:RDF xmlns:dc="http://purl.org/dc/elements/1.1/" xmlns:cc="http://creativecommons.org/ns#" xmlns:rdf="http://www.w3.org/1999/02/22-rdf-syntax-ns#">
   <cc:Work>
    <dc:type rdf:resource="http://purl.org/dc/dcmitype/StillImage"/>
    <dc:date>2022-10-11T11:06:21.684003</dc:date>
    <dc:format>image/svg+xml</dc:format>
    <dc:creator>
     <cc:Agent>
      <dc:title>Matplotlib v3.5.2, https://matplotlib.org/</dc:title>
     </cc:Agent>
    </dc:creator>
   </cc:Work>
  </rdf:RDF>
 </metadata>
 <defs>
  <style type="text/css">*{stroke-linejoin: round; stroke-linecap: butt}</style>
 </defs>
 <g id="figure_1">
  <g id="patch_1">
   <path d="M 0 422.381 
L 742.131509 422.381 
L 742.131509 0 
L 0 0 
z
" style="fill: #ffffff"/>
  </g>
  <g id="axes_1">
   <g id="patch_2">
    <path d="M 222.276719 381.014375 
L 668.676719 381.014375 
L 668.676719 27.674375 
L 222.276719 27.674375 
z
" style="fill: #ffffff"/>
   </g>
   <g id="line2d_1">
    <path d="M 226.444786 102.734542 
L 226.444786 43.735284 
" clip-path="url(#p6f42f2e309)" style="fill: none; stroke-dasharray: 1.85,0.8; stroke-dashoffset: 0; stroke: #bbbbbb; stroke-width: 0.5"/>
   </g>
   <g id="line2d_2">
    <path d="M 524.694236 135.511907 
L 524.694236 76.51265 
" clip-path="url(#p6f42f2e309)" style="fill: none; stroke-dasharray: 1.85,0.8; stroke-dashoffset: 0; stroke: #bbbbbb; stroke-width: 0.5"/>
   </g>
   <g id="line2d_3">
    <path d="M 227.640652 168.289273 
L 227.640652 109.290015 
" clip-path="url(#p6f42f2e309)" style="fill: none; stroke-dasharray: 1.85,0.8; stroke-dashoffset: 0; stroke: #bbbbbb; stroke-width: 0.5"/>
   </g>
   <g id="line2d_4">
    <path d="M 297.830176 201.066638 
L 297.830176 142.067381 
" clip-path="url(#p6f42f2e309)" style="fill: none; stroke-dasharray: 1.85,0.8; stroke-dashoffset: 0; stroke: #bbbbbb; stroke-width: 0.5"/>
   </g>
   <g id="line2d_5">
    <path d="M 366.984119 233.844004 
L 366.984119 174.844746 
" clip-path="url(#p6f42f2e309)" style="fill: none; stroke-dasharray: 1.85,0.8; stroke-dashoffset: 0; stroke: #bbbbbb; stroke-width: 0.5"/>
   </g>
   <g id="line2d_6">
    <path d="M 314.433904 266.621369 
L 314.433904 207.622112 
" clip-path="url(#p6f42f2e309)" style="fill: none; stroke-dasharray: 1.85,0.8; stroke-dashoffset: 0; stroke: #bbbbbb; stroke-width: 0.5"/>
   </g>
   <g id="line2d_7">
    <path d="M 222.276719 351.84252 
L 668.676719 351.84252 
" clip-path="url(#p6f42f2e309)" style="fill: none; stroke-dasharray: 0.5,2.5; stroke-dashoffset: 0; stroke: #cccccc; stroke-width: 0.5"/>
   </g>
   <g id="line2d_8">
    <path d="M 222.276719 319.065154 
L 668.676719 319.065154 
" clip-path="url(#p6f42f2e309)" style="fill: none; stroke-dasharray: 0.5,2.5; stroke-dashoffset: 0; stroke: #cccccc; stroke-width: 0.5"/>
   </g>
   <g id="line2d_9">
    <path d="M 222.276719 286.287789 
L 668.676719 286.287789 
" clip-path="url(#p6f42f2e309)" style="fill: none; stroke-dasharray: 0.5,2.5; stroke-dashoffset: 0; stroke: #cccccc; stroke-width: 0.5"/>
   </g>
   <g id="line2d_10">
    <path d="M 222.276719 253.510423 
L 668.676719 253.510423 
" clip-path="url(#p6f42f2e309)" style="fill: none; stroke-dasharray: 0.5,2.5; stroke-dashoffset: 0; stroke: #cccccc; stroke-width: 0.5"/>
   </g>
   <g id="line2d_11">
    <path d="M 222.276719 220.733058 
L 668.676719 220.733058 
" clip-path="url(#p6f42f2e309)" style="fill: none; stroke-dasharray: 0.5,2.5; stroke-dashoffset: 0; stroke: #cccccc; stroke-width: 0.5"/>
   </g>
   <g id="line2d_12">
    <path d="M 222.276719 187.955692 
L 668.676719 187.955692 
" clip-path="url(#p6f42f2e309)" style="fill: none; stroke-dasharray: 0.5,2.5; stroke-dashoffset: 0; stroke: #cccccc; stroke-width: 0.5"/>
   </g>
   <g id="line2d_13">
    <path d="M 222.276719 155.178327 
L 668.676719 155.178327 
" clip-path="url(#p6f42f2e309)" style="fill: none; stroke-dasharray: 0.5,2.5; stroke-dashoffset: 0; stroke: #cccccc; stroke-width: 0.5"/>
   </g>
   <g id="line2d_14">
    <path d="M 222.276719 122.400961 
L 668.676719 122.400961 
" clip-path="url(#p6f42f2e309)" style="fill: none; stroke-dasharray: 0.5,2.5; stroke-dashoffset: 0; stroke: #cccccc; stroke-width: 0.5"/>
   </g>
   <g id="line2d_15">
    <path d="M 222.276719 89.623596 
L 668.676719 89.623596 
" clip-path="url(#p6f42f2e309)" style="fill: none; stroke-dasharray: 0.5,2.5; stroke-dashoffset: 0; stroke: #cccccc; stroke-width: 0.5"/>
   </g>
   <g id="line2d_16">
    <path d="M 222.276719 56.84623 
L 668.676719 56.84623 
" clip-path="url(#p6f42f2e309)" style="fill: none; stroke-dasharray: 0.5,2.5; stroke-dashoffset: 0; stroke: #cccccc; stroke-width: 0.5"/>
   </g>
   <g id="line2d_17">
    <path d="M 310.636741 381.014375 
L 310.636741 345.680375 
" clip-path="url(#p6f42f2e309)" style="fill: none; stroke-dasharray: 1.85,0.8; stroke-dashoffset: 0; stroke: #bbbbbb; stroke-width: 0.5"/>
   </g>
   <g id="line2d_18">
    <path d="M 643.251509 381.014375 
L 643.251509 27.674375 
" clip-path="url(#p6f42f2e309)" style="fill: none; stroke-dasharray: 1.85,0.8; stroke-dashoffset: 0; stroke: #bbbbbb; stroke-width: 0.5"/>
   </g>
   <g id="matplotlib.axis_1">
    <g id="xtick_1">
     <g id="line2d_19">
      <defs>
       <path id="m0543878889" d="M 0 0 
L 0 6 
" style="stroke: #262626; stroke-width: 0.8"/>
      </defs>
      <g>
       <use xlink:href="#m0543878889" x="235.213424" y="381.014375" style="fill: #262626; stroke: #262626; stroke-width: 0.8"/>
      </g>
     </g>
     <g id="text_1">
      <text style="fill: #262626; font: 13px 'sans-serif'; text-anchor: middle" x="235.213424" y="399.819531" transform="rotate(-0, 235.213424, 399.819531)">42000</text>
     </g>
    </g>
    <g id="xtick_2">
     <g id="line2d_20">
      <g>
       <use xlink:href="#m0543878889" x="326.524946" y="381.014375" style="fill: #262626; stroke: #262626; stroke-width: 0.8"/>
      </g>
     </g>
     <g id="text_2">
      <text style="fill: #262626; font: 13px 'sans-serif'; text-anchor: middle" x="326.524946" y="399.819531" transform="rotate(-0, 326.524946, 399.819531)">42500</text>
     </g>
    </g>
    <g id="xtick_3">
     <g id="line2d_21">
      <g>
       <use xlink:href="#m0543878889" x="417.836467" y="381.014375" style="fill: #262626; stroke: #262626; stroke-width: 0.8"/>
      </g>
     </g>
     <g id="text_3">
      <text style="fill: #262626; font: 13px 'sans-serif'; text-anchor: middle" x="417.836467" y="399.819531" transform="rotate(-0, 417.836467, 399.819531)">43000</text>
     </g>
    </g>
    <g id="xtick_4">
     <g id="line2d_22">
      <g>
       <use xlink:href="#m0543878889" x="509.147989" y="381.014375" style="fill: #262626; stroke: #262626; stroke-width: 0.8"/>
      </g>
     </g>
     <g id="text_4">
      <text style="fill: #262626; font: 13px 'sans-serif'; text-anchor: middle" x="509.147989" y="399.819531" transform="rotate(-0, 509.147989, 399.819531)">43500</text>
     </g>
    </g>
    <g id="xtick_5">
     <g id="line2d_23">
      <g>
       <use xlink:href="#m0543878889" x="600.45951" y="381.014375" style="fill: #262626; stroke: #262626; stroke-width: 0.8"/>
      </g>
     </g>
     <g id="text_5">
      <text style="fill: #262626; font: 13px 'sans-serif'; text-anchor: middle" x="600.45951" y="399.819531" transform="rotate(-0, 600.45951, 399.819531)">44000</text>
     </g>
    </g>
   </g>
   <g id="matplotlib.axis_2">
    <g id="ytick_1">
     <g id="text_6">
      <text style="fill: #999999; font: 13px 'sans-serif'; text-anchor: end" x="212.776719" y="356.574317" transform="rotate(-0, 212.776719, 356.574317)">0.028 = TG 18:1_22:6_22:6</text>
     </g>
    </g>
    <g id="ytick_2">
     <g id="text_7">
      <text style="fill: #999999; font: 13px 'sans-serif'; text-anchor: end" x="212.776719" y="323.796951" transform="rotate(-0, 212.776719, 323.796951)">−0.033 = TG 20:5_22:6_22:6</text>
     </g>
    </g>
    <g id="ytick_3">
     <g id="text_8">
      <text style="fill: #999999; font: 13px 'sans-serif'; text-anchor: end" x="212.776719" y="291.019586" transform="rotate(-0, 212.776719, 291.019586)">0.051 = 4-Guanidinobutyric acid</text>
     </g>
    </g>
    <g id="ytick_4">
     <g id="text_9">
      <text style="fill: #999999; font: 13px 'sans-serif'; text-anchor: end" x="212.776719" y="258.163001" transform="rotate(-0, 212.776719, 258.163001)">0.057 = CE 18:1</text>
     </g>
    </g>
    <g id="ytick_5">
     <g id="text_10">
      <text style="fill: #999999; font: 13px 'sans-serif'; text-anchor: end" x="212.776719" y="225.464855" transform="rotate(-0, 212.776719, 225.464855)">0.055 = TG 22:6_22:6_22:6</text>
     </g>
    </g>
    <g id="ytick_6">
     <g id="text_11">
      <text style="fill: #999999; font: 13px 'sans-serif'; text-anchor: end" x="212.776719" y="192.60827" transform="rotate(-0, 212.776719, 192.60827)">0.276 = PC 38:7</text>
     </g>
    </g>
    <g id="ytick_7">
     <g id="text_12">
      <text style="fill: #999999; font: 13px 'sans-serif'; text-anchor: end" x="212.776719" y="159.830905" transform="rotate(-0, 212.776719, 159.830905)">−0.19 = SM d37:1</text>
     </g>
    </g>
    <g id="ytick_8">
     <g id="text_13">
      <text style="fill: #999999; font: 13px 'sans-serif'; text-anchor: end" x="212.776719" y="127.053539" transform="rotate(-0, 212.776719, 127.053539)">0.923 = PC 36:3</text>
     </g>
    </g>
    <g id="ytick_9">
     <g id="text_14">
      <text style="fill: #999999; font: 13px 'sans-serif'; text-anchor: end" x="212.776719" y="94.276174" transform="rotate(-0, 212.776719, 94.276174)">0.707 = FA 18:0</text>
     </g>
    </g>
    <g id="ytick_10">
     <g id="text_15">
      <text style="fill: #999999; font: 13px 'sans-serif'; text-anchor: end" x="212.776719" y="61.58209" transform="rotate(-0, 212.776719, 61.58209)">0.874 = Plasmanyl-PC O-20:0_20:4</text>
     </g>
    </g>
    <g id="ytick_11">
     <g id="text_16">
      <text style="fill: #262626; font: 13px 'sans-serif'; text-anchor: end" x="212.776719" y="356.574316" transform="rotate(-0, 212.776719, 356.574316)"> TG 18:1_22:6_22:6</text>
     </g>
    </g>
    <g id="ytick_12">
     <g id="text_17">
      <text style="fill: #262626; font: 13px 'sans-serif'; text-anchor: end" x="212.776719" y="323.796951" transform="rotate(-0, 212.776719, 323.796951)"> TG 20:5_22:6_22:6</text>
     </g>
    </g>
    <g id="ytick_13">
     <g id="text_18">
      <text style="fill: #262626; font: 13px 'sans-serif'; text-anchor: end" x="212.776719" y="291.019585" transform="rotate(-0, 212.776719, 291.019585)"> 4-Guanidinobutyric acid</text>
     </g>
    </g>
    <g id="ytick_14">
     <g id="text_19">
      <text style="fill: #262626; font: 13px 'sans-serif'; text-anchor: end" x="212.776719" y="258.163001" transform="rotate(-0, 212.776719, 258.163001)"> CE 18:1</text>
     </g>
    </g>
    <g id="ytick_15">
     <g id="text_20">
      <text style="fill: #262626; font: 13px 'sans-serif'; text-anchor: end" x="212.776719" y="225.464854" transform="rotate(-0, 212.776719, 225.464854)"> TG 22:6_22:6_22:6</text>
     </g>
    </g>
    <g id="ytick_16">
     <g id="text_21">
      <text style="fill: #262626; font: 13px 'sans-serif'; text-anchor: end" x="212.776719" y="192.60827" transform="rotate(-0, 212.776719, 192.60827)"> PC 38:7</text>
     </g>
    </g>
    <g id="ytick_17">
     <g id="text_22">
      <text style="fill: #262626; font: 13px 'sans-serif'; text-anchor: end" x="212.776719" y="159.830905" transform="rotate(-0, 212.776719, 159.830905)"> SM d37:1</text>
     </g>
    </g>
    <g id="ytick_18">
     <g id="text_23">
      <text style="fill: #262626; font: 13px 'sans-serif'; text-anchor: end" x="212.776719" y="127.053539" transform="rotate(-0, 212.776719, 127.053539)"> PC 36:3</text>
     </g>
    </g>
    <g id="ytick_19">
     <g id="text_24">
      <text style="fill: #262626; font: 13px 'sans-serif'; text-anchor: end" x="212.776719" y="94.276174" transform="rotate(-0, 212.776719, 94.276174)"> FA 18:0</text>
     </g>
    </g>
    <g id="ytick_20">
     <g id="text_25">
      <text style="fill: #262626; font: 13px 'sans-serif'; text-anchor: end" x="212.776719" y="61.582089" transform="rotate(-0, 212.776719, 61.582089)"> Plasmanyl-PC O-20:0_20:4</text>
     </g>
    </g>
   </g>
   <g id="patch_3">
    <path d="M 222.276719 69.957176 
L 647.419576 69.957176 
L 647.419576 43.735284 
L 222.276719 43.735284 
L 222.276719 69.957176 
z
" clip-path="url(#p6f42f2e309)" style="fill: none; opacity: 0"/>
   </g>
   <g id="patch_4">
    <path d="M 223.472585 135.511907 
L 528.862303 135.511907 
L 528.862303 109.290015 
L 223.472585 109.290015 
L 223.472585 135.511907 
z
" clip-path="url(#p6f42f2e309)" style="fill: none; opacity: 0"/>
   </g>
   <g id="patch_5">
    <path d="M 310.265837 233.844004 
L 371.152186 233.844004 
L 371.152186 207.622112 
L 310.265837 207.622112 
L 310.265837 233.844004 
z
" clip-path="url(#p6f42f2e309)" style="fill: none; opacity: 0"/>
   </g>
   <g id="patch_6">
    <path d="M 310.805059 299.398735 
L 335.949083 299.398735 
L 335.949083 273.176843 
L 310.805059 273.176843 
L 310.805059 299.398735 
z
" clip-path="url(#p6f42f2e309)" style="fill: none; opacity: 0"/>
   </g>
   <g id="patch_7">
    <path d="M 308.248025 332.1761 
L 319.141193 332.1761 
L 319.141193 305.954208 
L 308.248025 305.954208 
L 308.248025 332.1761 
z
" clip-path="url(#p6f42f2e309)" style="fill: none; opacity: 0"/>
   </g>
   <g id="patch_8">
    <path d="M 306.468674 364.953466 
L 316.58416 364.953466 
L 316.58416 338.731574 
L 306.468674 338.731574 
L 306.468674 364.953466 
z
" clip-path="url(#p6f42f2e309)" style="fill: none; opacity: 0"/>
   </g>
   <g id="patch_9">
    <path d="M 528.862303 102.734542 
L 222.276719 102.734542 
L 222.276719 76.51265 
L 528.862303 76.51265 
L 528.862303 102.734542 
z
" clip-path="url(#p6f42f2e309)" style="fill: none; opacity: 0"/>
   </g>
   <g id="patch_10">
    <path d="M 301.998243 168.289273 
L 223.472585 168.289273 
L 223.472585 142.067381 
L 301.998243 142.067381 
L 301.998243 168.289273 
z
" clip-path="url(#p6f42f2e309)" style="fill: none; opacity: 0"/>
   </g>
   <g id="patch_11">
    <path d="M 371.152186 201.066638 
L 293.662109 201.066638 
L 293.662109 174.844746 
L 371.152186 174.844746 
L 371.152186 201.066638 
z
" clip-path="url(#p6f42f2e309)" style="fill: none; opacity: 0"/>
   </g>
   <g id="patch_12">
    <path d="M 335.949083 266.621369 
L 310.265837 266.621369 
L 310.265837 240.399477 
L 335.949083 240.399477 
L 335.949083 266.621369 
z
" clip-path="url(#p6f42f2e309)" style="fill: none; opacity: 0"/>
   </g>
   <g id="patch_13">
    <path d="M 643.251509 56.84623 
L 637.491509 69.957176 
L 637.491509 69.957176 
L 226.444786 69.957176 
L 226.444786 43.735284 
L 637.491509 43.735284 
L 637.491509 43.735284 
z
" clip-path="url(#p6f42f2e309)" style="fill: #ff0051; stroke: #ff0051; stroke-linejoin: miter"/>
   </g>
   <g id="patch_14">
    <path d="M 524.694236 122.400961 
L 518.934236 135.511907 
L 518.934236 135.511907 
L 227.640652 135.511907 
L 227.640652 109.290015 
L 518.934236 109.290015 
L 518.934236 109.290015 
z
" clip-path="url(#p6f42f2e309)" style="fill: #ff0051; stroke: #ff0051; stroke-linejoin: miter"/>
   </g>
   <g id="patch_15">
    <path d="M 366.984119 220.733058 
L 361.224119 233.844004 
L 361.224119 233.844004 
L 314.433904 233.844004 
L 314.433904 207.622112 
L 361.224119 207.622112 
L 361.224119 207.622112 
z
" clip-path="url(#p6f42f2e309)" style="fill: #ff0051; stroke: #ff0051; stroke-linejoin: miter"/>
   </g>
   <g id="patch_16">
    <path d="M 331.781016 286.287789 
L 326.021016 299.398735 
L 326.021016 299.398735 
L 314.973126 299.398735 
L 314.973126 273.176843 
L 326.021016 273.176843 
L 326.021016 273.176843 
z
" clip-path="url(#p6f42f2e309)" style="fill: #ff0051; stroke: #ff0051; stroke-linejoin: miter"/>
   </g>
   <g id="patch_17">
    <path d="M 314.973126 319.065154 
L 312.416093 332.1761 
L 312.416093 332.1761 
L 312.416093 332.1761 
L 312.416093 305.954208 
L 312.416093 305.954208 
L 312.416093 305.954208 
z
" clip-path="url(#p6f42f2e309)" style="fill: #ff0051; stroke: #ff0051; stroke-linejoin: miter"/>
   </g>
   <g id="patch_18">
    <path d="M 312.416093 351.84252 
L 310.636741 364.953466 
L 310.636741 364.953466 
L 310.636741 364.953466 
L 310.636741 338.731574 
L 310.636741 338.731574 
L 310.636741 338.731574 
z
" clip-path="url(#p6f42f2e309)" style="fill: #ff0051; stroke: #ff0051; stroke-linejoin: miter"/>
   </g>
   <g id="patch_19">
    <path d="M 226.444786 89.623596 
L 232.204786 76.51265 
L 232.204786 76.51265 
L 524.694236 76.51265 
L 524.694236 102.734542 
L 232.204786 102.734542 
L 232.204786 102.734542 
z
" clip-path="url(#p6f42f2e309)" style="fill: #008bfb; stroke: #008bfb; stroke-linejoin: miter"/>
   </g>
   <g id="patch_20">
    <path d="M 227.640652 155.178327 
L 233.400652 142.067381 
L 233.400652 142.067381 
L 297.830176 142.067381 
L 297.830176 168.289273 
L 233.400652 168.289273 
L 233.400652 168.289273 
z
" clip-path="url(#p6f42f2e309)" style="fill: #008bfb; stroke: #008bfb; stroke-linejoin: miter"/>
   </g>
   <g id="patch_21">
    <path d="M 297.830176 187.955692 
L 303.590176 174.844746 
L 303.590176 174.844746 
L 366.984119 174.844746 
L 366.984119 201.066638 
L 303.590176 201.066638 
L 303.590176 201.066638 
z
" clip-path="url(#p6f42f2e309)" style="fill: #008bfb; stroke: #008bfb; stroke-linejoin: miter"/>
   </g>
   <g id="patch_22">
    <path d="M 314.433904 253.510423 
L 320.193904 240.399477 
L 320.193904 240.399477 
L 331.781016 240.399477 
L 331.781016 266.621369 
L 320.193904 266.621369 
L 320.193904 266.621369 
z
" clip-path="url(#p6f42f2e309)" style="fill: #008bfb; stroke: #008bfb; stroke-linejoin: miter"/>
   </g>
   <g id="patch_23">
    <path d="M 222.276719 381.014375 
L 668.676719 381.014375 
" style="fill: none; stroke: #262626; stroke-width: 1.25; stroke-linejoin: miter; stroke-linecap: square"/>
   </g>
   <g id="text_26">
    <text style="fill: #ffffff; font: 12px 'sans-serif'; text-anchor: middle" x="434.848147" y="59.948418" transform="rotate(-0, 434.848147, 59.948418)">+2282.33</text>
   </g>
   <g id="text_27">
    <text style="fill: #ffffff; font: 12px 'sans-serif'; text-anchor: middle" x="376.167444" y="125.503149" transform="rotate(-0, 376.167444, 125.503149)">+1626.59</text>
   </g>
   <g id="text_28">
    <text style="fill: #ffffff; font: 12px 'sans-serif'; text-anchor: middle" x="340.709011" y="223.835245" transform="rotate(-0, 340.709011, 223.835245)">+287.75</text>
   </g>
   <g id="text_29">
    <text style="fill: #ff0051; font: 12px 'sans-serif'; text-anchor: start" x="336.781016" y="289.389976" transform="rotate(-0, 336.781016, 289.389976)">+92.04</text>
   </g>
   <g id="text_30">
    <text style="fill: #ff0051; font: 12px 'sans-serif'; text-anchor: start" x="319.973126" y="322.167342" transform="rotate(-0, 319.973126, 322.167342)">+14</text>
   </g>
   <g id="text_31">
    <text style="fill: #ff0051; font: 12px 'sans-serif'; text-anchor: start" x="317.416093" y="354.944707" transform="rotate(-0, 317.416093, 354.944707)">+9.74</text>
   </g>
   <g id="text_32">
    <text style="fill: #ffffff; font: 12px 'sans-serif'; text-anchor: middle" x="375.569511" y="92.725783" transform="rotate(-0, 375.569511, 92.725783)">−1633.14</text>
   </g>
   <g id="text_33">
    <text style="fill: #ffffff; font: 12px 'sans-serif'; text-anchor: middle" x="262.735414" y="158.280514" transform="rotate(-0, 262.735414, 158.280514)">−384.34</text>
   </g>
   <g id="text_34">
    <text style="fill: #ffffff; font: 12px 'sans-serif'; text-anchor: middle" x="332.407147" y="191.05788" transform="rotate(-0, 332.407147, 191.05788)">−378.67</text>
   </g>
   <g id="text_35">
    <text style="fill: #008bfb; font: 12px 'sans-serif'; text-anchor: end" x="309.433904" y="256.612611" transform="rotate(-0, 309.433904, 256.612611)">−94.99</text>
   </g>
  </g>
  <g id="axes_2">
   <g id="matplotlib.axis_3">
    <g id="xtick_6">
     <g id="line2d_24">
      <g>
       <use xlink:href="#m0543878889" x="310.636741" y="381.014375" style="fill: #262626; stroke: #262626; stroke-width: 0.8"/>
      </g>
     </g>
     <g id="text_36">
      <text style="fill: #262626; font: 12px 'sans-serif'" transform="translate(290.636741 399.10375)"/>
      <!-- $E[f(X)]$ -->
      <g style="fill: #262626" transform="translate(290.636741 411.796)">
       <text>
        <tspan style="font: oblique 12px 'DejaVu Sans'" x="0 12.263672 21.169922" y="-0.875">EfX</tspan>
        <tspan style="font: 12px 'DejaVu Sans'" x="7.582031 16.488281 29.390625 34.072266" y="-0.875">[()]</tspan>
       </text>
      </g>
     </g>
    </g>
    <g id="xtick_7">
     <g id="line2d_25">
      <g>
       <use xlink:href="#m0543878889" x="310.636741" y="381.014375" style="fill: #262626; stroke: #262626; stroke-width: 0.8"/>
      </g>
     </g>
     <g id="text_37">
      <text style="fill: #999999; font: 12px 'sans-serif'" transform="translate(332.636741 400.10375)"/>
      <!-- $ = 42413$ -->
      <g style="fill: #999999" transform="translate(332.636741 412.796)">
       <text>
        <tspan style="font: 12px 'DejaVu Sans'" x="2.337891 14.730469 22.365234 30 37.634766 45.269531" y="-0.09375">=42413</tspan>
       </text>
      </g>
     </g>
    </g>
   </g>
   <g id="patch_24">
    <path d="M 222.276719 381.014375 
L 668.676719 381.014375 
" style="fill: none; stroke: #262626; stroke-width: 1.25; stroke-linejoin: miter; stroke-linecap: square"/>
   </g>
  </g>
  <g id="axes_3">
   <g id="matplotlib.axis_4">
    <g id="xtick_8">
     <g id="line2d_26">
      <defs>
       <path id="m0814e3f54e" d="M 0 0 
L 0 -6 
" style="stroke: #262626; stroke-width: 0.8"/>
      </defs>
      <g>
       <use xlink:href="#m0814e3f54e" x="643.251509" y="27.674375" style="fill: #262626; stroke: #262626; stroke-width: 0.8"/>
      </g>
     </g>
     <g id="text_38">
      <!-- $f(x)$ -->
      <g style="fill: #262626" transform="translate(633.251509 15.789375)">
       <text>
        <tspan style="font: oblique 12px 'DejaVu Sans'" x="0 8.90625" y="-0.875">fx</tspan>
        <tspan style="font: 12px 'DejaVu Sans'" x="4.224609 16.007812" y="-0.875">()</tspan>
       </text>
      </g>
     </g>
    </g>
    <g id="xtick_9">
     <g id="line2d_27">
      <g>
       <use xlink:href="#m0814e3f54e" x="643.251509" y="27.674375" style="fill: #262626; stroke: #262626; stroke-width: 0.8"/>
      </g>
     </g>
     <g id="text_39">
      <!-- $ = 44234.319$ -->
      <g style="fill: #999999" transform="translate(655.251509 15.789375)">
       <text>
        <tspan style="font: 12px 'DejaVu Sans'" x="2.337891 14.730469 22.365234 30 37.634766 45.269531 52.904297 56.71875 64.353516 71.988281" y="-0.09375">=44234.319</tspan>
       </text>
      </g>
     </g>
    </g>
   </g>
   <g id="patch_25">
    <path d="M 222.276719 381.014375 
L 668.676719 381.014375 
" style="fill: none; stroke: #262626; stroke-width: 1.25; stroke-linejoin: miter; stroke-linecap: square"/>
   </g>
   <g id="text_40">
    <text style="fill: #262626; font: 15px 'sans-serif'; text-anchor: start" x="668.676719" y="60.027125" transform="rotate(-0, 668.676719, 60.027125)">46565.0</text>
   </g>
  </g>
 </g>
 <defs>
  <clipPath id="p6f42f2e309">
   <rect x="222.276719" y="27.674375" width="446.4" height="353.34"/>
  </clipPath>
 </defs>
</svg>
