<?xml version="1.0" encoding="utf-8" standalone="no"?>
<!DOCTYPE svg PUBLIC "-//W3C//DTD SVG 1.1//EN"
  "http://www.w3.org/Graphics/SVG/1.1/DTD/svg11.dtd">
<svg xmlns:xlink="http://www.w3.org/1999/xlink" width="749.724321pt" height="422.381pt" viewBox="0 0 749.724321 422.381" xmlns="http://www.w3.org/2000/svg" version="1.1">
 <metadata>
  <rdf:RDF xmlns:dc="http://purl.org/dc/elements/1.1/" xmlns:cc="http://creativecommons.org/ns#" xmlns:rdf="http://www.w3.org/1999/02/22-rdf-syntax-ns#">
   <cc:Work>
    <dc:type rdf:resource="http://purl.org/dc/dcmitype/StillImage"/>
    <dc:date>2022-10-11T11:06:13.085432</dc:date>
    <dc:format>image/svg+xml</dc:format>
    <dc:creator>
     <cc:Agent>
      <dc:title>Matplotlib v3.5.2, https://matplotlib.org/</dc:title>
     </cc:Agent>
    </dc:creator>
   </cc:Work>
  </rdf:RDF>
 </metadata>
 <defs>
  <style type="text/css">*{stroke-linejoin: round; stroke-linecap: butt}</style>
 </defs>
 <g id="figure_1">
  <g id="patch_1">
   <path d="M 0 422.381 
L 749.724321 422.381 
L 749.724321 0 
L 0 0 
z
" style="fill: #ffffff"/>
  </g>
  <g id="axes_1">
   <g id="patch_2">
    <path d="M 229.869531 381.014375 
L 676.269531 381.014375 
L 676.269531 27.674375 
L 229.869531 27.674375 
z
" style="fill: #ffffff"/>
   </g>
   <g id="line2d_1">
    <path d="M 501.295416 102.734542 
L 501.295416 43.735284 
" clip-path="url(#pe64688b248)" style="fill: none; stroke-dasharray: 1.85,0.8; stroke-dashoffset: 0; stroke: #bbbbbb; stroke-width: 0.5"/>
   </g>
   <g id="line2d_2">
    <path d="M 383.030233 135.511907 
L 383.030233 76.51265 
" clip-path="url(#pe64688b248)" style="fill: none; stroke-dasharray: 1.85,0.8; stroke-dashoffset: 0; stroke: #bbbbbb; stroke-width: 0.5"/>
   </g>
   <g id="line2d_3">
    <path d="M 300.26597 168.289273 
L 300.26597 109.290015 
" clip-path="url(#pe64688b248)" style="fill: none; stroke-dasharray: 1.85,0.8; stroke-dashoffset: 0; stroke: #bbbbbb; stroke-width: 0.5"/>
   </g>
   <g id="line2d_4">
    <path d="M 234.037598 201.066638 
L 234.037598 142.067381 
" clip-path="url(#pe64688b248)" style="fill: none; stroke-dasharray: 1.85,0.8; stroke-dashoffset: 0; stroke: #bbbbbb; stroke-width: 0.5"/>
   </g>
   <g id="line2d_5">
    <path d="M 276.604522 233.844004 
L 276.604522 174.844746 
" clip-path="url(#pe64688b248)" style="fill: none; stroke-dasharray: 1.85,0.8; stroke-dashoffset: 0; stroke: #bbbbbb; stroke-width: 0.5"/>
   </g>
   <g id="line2d_6">
    <path d="M 304.9561 266.621369 
L 304.9561 207.622112 
" clip-path="url(#pe64688b248)" style="fill: none; stroke-dasharray: 1.85,0.8; stroke-dashoffset: 0; stroke: #bbbbbb; stroke-width: 0.5"/>
   </g>
   <g id="line2d_7">
    <path d="M 229.869531 351.84252 
L 676.269531 351.84252 
" clip-path="url(#pe64688b248)" style="fill: none; stroke-dasharray: 0.5,2.5; stroke-dashoffset: 0; stroke: #cccccc; stroke-width: 0.5"/>
   </g>
   <g id="line2d_8">
    <path d="M 229.869531 319.065154 
L 676.269531 319.065154 
" clip-path="url(#pe64688b248)" style="fill: none; stroke-dasharray: 0.5,2.5; stroke-dashoffset: 0; stroke: #cccccc; stroke-width: 0.5"/>
   </g>
   <g id="line2d_9">
    <path d="M 229.869531 286.287789 
L 676.269531 286.287789 
" clip-path="url(#pe64688b248)" style="fill: none; stroke-dasharray: 0.5,2.5; stroke-dashoffset: 0; stroke: #cccccc; stroke-width: 0.5"/>
   </g>
   <g id="line2d_10">
    <path d="M 229.869531 253.510423 
L 676.269531 253.510423 
" clip-path="url(#pe64688b248)" style="fill: none; stroke-dasharray: 0.5,2.5; stroke-dashoffset: 0; stroke: #cccccc; stroke-width: 0.5"/>
   </g>
   <g id="line2d_11">
    <path d="M 229.869531 220.733058 
L 676.269531 220.733058 
" clip-path="url(#pe64688b248)" style="fill: none; stroke-dasharray: 0.5,2.5; stroke-dashoffset: 0; stroke: #cccccc; stroke-width: 0.5"/>
   </g>
   <g id="line2d_12">
    <path d="M 229.869531 187.955692 
L 676.269531 187.955692 
" clip-path="url(#pe64688b248)" style="fill: none; stroke-dasharray: 0.5,2.5; stroke-dashoffset: 0; stroke: #cccccc; stroke-width: 0.5"/>
   </g>
   <g id="line2d_13">
    <path d="M 229.869531 155.178327 
L 676.269531 155.178327 
" clip-path="url(#pe64688b248)" style="fill: none; stroke-dasharray: 0.5,2.5; stroke-dashoffset: 0; stroke: #cccccc; stroke-width: 0.5"/>
   </g>
   <g id="line2d_14">
    <path d="M 229.869531 122.400961 
L 676.269531 122.400961 
" clip-path="url(#pe64688b248)" style="fill: none; stroke-dasharray: 0.5,2.5; stroke-dashoffset: 0; stroke: #cccccc; stroke-width: 0.5"/>
   </g>
   <g id="line2d_15">
    <path d="M 229.869531 89.623596 
L 676.269531 89.623596 
" clip-path="url(#pe64688b248)" style="fill: none; stroke-dasharray: 0.5,2.5; stroke-dashoffset: 0; stroke: #cccccc; stroke-width: 0.5"/>
   </g>
   <g id="line2d_16">
    <path d="M 229.869531 56.84623 
L 676.269531 56.84623 
" clip-path="url(#pe64688b248)" style="fill: none; stroke-dasharray: 0.5,2.5; stroke-dashoffset: 0; stroke: #cccccc; stroke-width: 0.5"/>
   </g>
   <g id="line2d_17">
    <path d="M 272.920967 381.014375 
L 272.920967 345.680375 
" clip-path="url(#pe64688b248)" style="fill: none; stroke-dasharray: 1.85,0.8; stroke-dashoffset: 0; stroke: #bbbbbb; stroke-width: 0.5"/>
   </g>
   <g id="line2d_18">
    <path d="M 650.844321 381.014375 
L 650.844321 27.674375 
" clip-path="url(#pe64688b248)" style="fill: none; stroke-dasharray: 1.85,0.8; stroke-dashoffset: 0; stroke: #bbbbbb; stroke-width: 0.5"/>
   </g>
   <g id="matplotlib.axis_1">
    <g id="xtick_1">
     <g id="line2d_19">
      <defs>
       <path id="m21960e2185" d="M 0 0 
L 0 6 
" style="stroke: #262626; stroke-width: 0.8"/>
      </defs>
      <g>
       <use xlink:href="#m21960e2185" x="255.794738" y="381.014375" style="fill: #262626; stroke: #262626; stroke-width: 0.8"/>
      </g>
     </g>
     <g id="text_1">
      <text style="fill: #262626; font: 13px 'sans-serif'; text-anchor: middle" x="255.794738" y="399.819531" transform="rotate(-0, 255.794738, 399.819531)">42000</text>
     </g>
    </g>
    <g id="xtick_2">
     <g id="line2d_20">
      <g>
       <use xlink:href="#m21960e2185" x="338.730469" y="381.014375" style="fill: #262626; stroke: #262626; stroke-width: 0.8"/>
      </g>
     </g>
     <g id="text_2">
      <text style="fill: #262626; font: 13px 'sans-serif'; text-anchor: middle" x="338.730469" y="399.819531" transform="rotate(-0, 338.730469, 399.819531)">44000</text>
     </g>
    </g>
    <g id="xtick_3">
     <g id="line2d_21">
      <g>
       <use xlink:href="#m21960e2185" x="421.6662" y="381.014375" style="fill: #262626; stroke: #262626; stroke-width: 0.8"/>
      </g>
     </g>
     <g id="text_3">
      <text style="fill: #262626; font: 13px 'sans-serif'; text-anchor: middle" x="421.6662" y="399.819531" transform="rotate(-0, 421.6662, 399.819531)">46000</text>
     </g>
    </g>
    <g id="xtick_4">
     <g id="line2d_22">
      <g>
       <use xlink:href="#m21960e2185" x="504.601931" y="381.014375" style="fill: #262626; stroke: #262626; stroke-width: 0.8"/>
      </g>
     </g>
     <g id="text_4">
      <text style="fill: #262626; font: 13px 'sans-serif'; text-anchor: middle" x="504.601931" y="399.819531" transform="rotate(-0, 504.601931, 399.819531)">48000</text>
     </g>
    </g>
    <g id="xtick_5">
     <g id="line2d_23">
      <g>
       <use xlink:href="#m21960e2185" x="587.537662" y="381.014375" style="fill: #262626; stroke: #262626; stroke-width: 0.8"/>
      </g>
     </g>
     <g id="text_5">
      <text style="fill: #262626; font: 13px 'sans-serif'; text-anchor: middle" x="587.537662" y="399.819531" transform="rotate(-0, 587.537662, 399.819531)">50000</text>
     </g>
    </g>
    <g id="xtick_6">
     <g id="line2d_24">
      <g>
       <use xlink:href="#m21960e2185" x="670.473393" y="381.014375" style="fill: #262626; stroke: #262626; stroke-width: 0.8"/>
      </g>
     </g>
     <g id="text_6">
      <text style="fill: #262626; font: 13px 'sans-serif'; text-anchor: middle" x="670.473393" y="399.819531" transform="rotate(-0, 670.473393, 399.819531)">52000</text>
     </g>
    </g>
   </g>
   <g id="matplotlib.axis_2">
    <g id="ytick_1">
     <g id="text_7">
      <text style="fill: #999999; font: 13px 'sans-serif'; text-anchor: end" x="220.369531" y="356.574317" transform="rotate(-0, 220.369531, 356.574317)">0.799 = TG 18:1_22:6_22:6</text>
     </g>
    </g>
    <g id="ytick_2">
     <g id="text_8">
      <text style="fill: #999999; font: 13px 'sans-serif'; text-anchor: end" x="220.369531" y="323.717732" transform="rotate(-0, 220.369531, 323.717732)">−0.254 = PC 38:7</text>
     </g>
    </g>
    <g id="ytick_3">
     <g id="text_9">
      <text style="fill: #999999; font: 13px 'sans-serif'; text-anchor: end" x="220.369531" y="291.019586" transform="rotate(-0, 220.369531, 291.019586)">0.847 = TG 20:5_22:6_22:6</text>
     </g>
    </g>
    <g id="ytick_4">
     <g id="text_10">
      <text style="fill: #999999; font: 13px 'sans-serif'; text-anchor: end" x="220.369531" y="258.163001" transform="rotate(-0, 220.369531, 258.163001)">0.285 = PC 36:3</text>
     </g>
    </g>
    <g id="ytick_5">
     <g id="text_11">
      <text style="fill: #999999; font: 13px 'sans-serif'; text-anchor: end" x="220.369531" y="225.385636" transform="rotate(-0, 220.369531, 225.385636)">−0.338 = SM d37:1</text>
     </g>
    </g>
    <g id="ytick_6">
     <g id="text_12">
      <text style="fill: #999999; font: 13px 'sans-serif'; text-anchor: end" x="220.369531" y="192.691552" transform="rotate(-0, 220.369531, 192.691552)">−0.393 = Plasmanyl-PC O-20:0_20:4</text>
     </g>
    </g>
    <g id="ytick_7">
     <g id="text_13">
      <text style="fill: #999999; font: 13px 'sans-serif'; text-anchor: end" x="220.369531" y="159.830905" transform="rotate(-0, 220.369531, 159.830905)">−0.957 = CE 18:1</text>
     </g>
    </g>
    <g id="ytick_8">
     <g id="text_14">
      <text style="fill: #999999; font: 13px 'sans-serif'; text-anchor: end" x="220.369531" y="127.053539" transform="rotate(-0, 220.369531, 127.053539)">−0.864 = FA 18:0</text>
     </g>
    </g>
    <g id="ytick_9">
     <g id="text_15">
      <text style="fill: #999999; font: 13px 'sans-serif'; text-anchor: end" x="220.369531" y="94.355393" transform="rotate(-0, 220.369531, 94.355393)">1.579 = 4-Guanidinobutyric acid</text>
     </g>
    </g>
    <g id="ytick_10">
     <g id="text_16">
      <text style="fill: #999999; font: 13px 'sans-serif'; text-anchor: end" x="220.369531" y="61.578027" transform="rotate(-0, 220.369531, 61.578027)">0.691 = TG 22:6_22:6_22:6</text>
     </g>
    </g>
    <g id="ytick_11">
     <g id="text_17">
      <text style="fill: #262626; font: 13px 'sans-serif'; text-anchor: end" x="220.369531" y="356.574316" transform="rotate(-0, 220.369531, 356.574316)"> TG 18:1_22:6_22:6</text>
     </g>
    </g>
    <g id="ytick_12">
     <g id="text_18">
      <text style="fill: #262626; font: 13px 'sans-serif'; text-anchor: end" x="220.369531" y="323.717732" transform="rotate(-0, 220.369531, 323.717732)"> PC 38:7</text>
     </g>
    </g>
    <g id="ytick_13">
     <g id="text_19">
      <text style="fill: #262626; font: 13px 'sans-serif'; text-anchor: end" x="220.369531" y="291.019585" transform="rotate(-0, 220.369531, 291.019585)"> TG 20:5_22:6_22:6</text>
     </g>
    </g>
    <g id="ytick_14">
     <g id="text_20">
      <text style="fill: #262626; font: 13px 'sans-serif'; text-anchor: end" x="220.369531" y="258.163001" transform="rotate(-0, 220.369531, 258.163001)"> PC 36:3</text>
     </g>
    </g>
    <g id="ytick_15">
     <g id="text_21">
      <text style="fill: #262626; font: 13px 'sans-serif'; text-anchor: end" x="220.369531" y="225.385636" transform="rotate(-0, 220.369531, 225.385636)"> SM d37:1</text>
     </g>
    </g>
    <g id="ytick_16">
     <g id="text_22">
      <text style="fill: #262626; font: 13px 'sans-serif'; text-anchor: end" x="220.369531" y="192.691551" transform="rotate(-0, 220.369531, 192.691551)"> Plasmanyl-PC O-20:0_20:4</text>
     </g>
    </g>
    <g id="ytick_17">
     <g id="text_23">
      <text style="fill: #262626; font: 13px 'sans-serif'; text-anchor: end" x="220.369531" y="159.830905" transform="rotate(-0, 220.369531, 159.830905)"> CE 18:1</text>
     </g>
    </g>
    <g id="ytick_18">
     <g id="text_24">
      <text style="fill: #262626; font: 13px 'sans-serif'; text-anchor: end" x="220.369531" y="127.053539" transform="rotate(-0, 220.369531, 127.053539)"> FA 18:0</text>
     </g>
    </g>
    <g id="ytick_19">
     <g id="text_25">
      <text style="fill: #262626; font: 13px 'sans-serif'; text-anchor: end" x="220.369531" y="94.355392" transform="rotate(-0, 220.369531, 94.355392)"> 4-Guanidinobutyric acid</text>
     </g>
    </g>
    <g id="ytick_20">
     <g id="text_26">
      <text style="fill: #262626; font: 13px 'sans-serif'; text-anchor: end" x="220.369531" y="61.578027" transform="rotate(-0, 220.369531, 61.578027)"> TG 22:6_22:6_22:6</text>
     </g>
    </g>
   </g>
   <g id="patch_3">
    <path d="M 497.127349 69.957176 
L 655.012388 69.957176 
L 655.012388 43.735284 
L 497.127349 43.735284 
L 497.127349 69.957176 
z
" clip-path="url(#pe64688b248)" style="fill: none; opacity: 0"/>
   </g>
   <g id="patch_4">
    <path d="M 378.862166 102.734542 
L 505.463483 102.734542 
L 505.463483 76.51265 
L 378.862166 76.51265 
L 378.862166 102.734542 
z
" clip-path="url(#pe64688b248)" style="fill: none; opacity: 0"/>
   </g>
   <g id="patch_5">
    <path d="M 296.097903 135.511907 
L 387.1983 135.511907 
L 387.1983 109.290015 
L 296.097903 109.290015 
L 296.097903 135.511907 
z
" clip-path="url(#pe64688b248)" style="fill: none; opacity: 0"/>
   </g>
   <g id="patch_6">
    <path d="M 229.869531 168.289273 
L 304.434037 168.289273 
L 304.434037 142.067381 
L 229.869531 142.067381 
L 229.869531 168.289273 
z
" clip-path="url(#pe64688b248)" style="fill: none; opacity: 0"/>
   </g>
   <g id="patch_7">
    <path d="M 279.972895 266.621369 
L 309.124167 266.621369 
L 309.124167 240.399477 
L 279.972895 240.399477 
L 279.972895 266.621369 
z
" clip-path="url(#pe64688b248)" style="fill: none; opacity: 0"/>
   </g>
   <g id="patch_8">
    <path d="M 280.230689 332.1761 
L 303.04289 332.1761 
L 303.04289 305.954208 
L 280.230689 305.954208 
L 280.230689 332.1761 
z
" clip-path="url(#pe64688b248)" style="fill: none; opacity: 0"/>
   </g>
   <g id="patch_9">
    <path d="M 268.7529 364.953466 
L 288.566824 364.953466 
L 288.566824 338.731574 
L 268.7529 338.731574 
L 268.7529 364.953466 
z
" clip-path="url(#pe64688b248)" style="fill: none; opacity: 0"/>
   </g>
   <g id="patch_10">
    <path d="M 280.772589 201.066638 
L 229.869531 201.066638 
L 229.869531 174.844746 
L 280.772589 174.844746 
L 280.772589 201.066638 
z
" clip-path="url(#pe64688b248)" style="fill: none; opacity: 0"/>
   </g>
   <g id="patch_11">
    <path d="M 309.124167 233.844004 
L 272.436454 233.844004 
L 272.436454 207.622112 
L 309.124167 207.622112 
L 309.124167 233.844004 
z
" clip-path="url(#pe64688b248)" style="fill: none; opacity: 0"/>
   </g>
   <g id="patch_12">
    <path d="M 303.04289 299.398735 
L 279.972895 299.398735 
L 279.972895 273.176843 
L 303.04289 273.176843 
L 303.04289 299.398735 
z
" clip-path="url(#pe64688b248)" style="fill: none; opacity: 0"/>
   </g>
   <g id="patch_13">
    <path d="M 650.844321 56.84623 
L 645.084321 69.957176 
L 645.084321 69.957176 
L 501.295416 69.957176 
L 501.295416 43.735284 
L 645.084321 43.735284 
L 645.084321 43.735284 
z
" clip-path="url(#pe64688b248)" style="fill: #ff0051; stroke: #ff0051; stroke-linejoin: miter"/>
   </g>
   <g id="patch_14">
    <path d="M 501.295416 89.623596 
L 495.535416 102.734542 
L 495.535416 102.734542 
L 383.030233 102.734542 
L 383.030233 76.51265 
L 495.535416 76.51265 
L 495.535416 76.51265 
z
" clip-path="url(#pe64688b248)" style="fill: #ff0051; stroke: #ff0051; stroke-linejoin: miter"/>
   </g>
   <g id="patch_15">
    <path d="M 383.030233 122.400961 
L 377.270233 135.511907 
L 377.270233 135.511907 
L 300.26597 135.511907 
L 300.26597 109.290015 
L 377.270233 109.290015 
L 377.270233 109.290015 
z
" clip-path="url(#pe64688b248)" style="fill: #ff0051; stroke: #ff0051; stroke-linejoin: miter"/>
   </g>
   <g id="patch_16">
    <path d="M 300.26597 155.178327 
L 294.50597 168.289273 
L 294.50597 168.289273 
L 234.037598 168.289273 
L 234.037598 142.067381 
L 294.50597 142.067381 
L 294.50597 142.067381 
z
" clip-path="url(#pe64688b248)" style="fill: #ff0051; stroke: #ff0051; stroke-linejoin: miter"/>
   </g>
   <g id="patch_17">
    <path d="M 304.9561 253.510423 
L 299.1961 266.621369 
L 299.1961 266.621369 
L 284.140962 266.621369 
L 284.140962 240.399477 
L 299.1961 240.399477 
L 299.1961 240.399477 
z
" clip-path="url(#pe64688b248)" style="fill: #ff0051; stroke: #ff0051; stroke-linejoin: miter"/>
   </g>
   <g id="patch_18">
    <path d="M 298.874823 319.065154 
L 293.114823 332.1761 
L 293.114823 332.1761 
L 284.398757 332.1761 
L 284.398757 305.954208 
L 293.114823 305.954208 
L 293.114823 305.954208 
z
" clip-path="url(#pe64688b248)" style="fill: #ff0051; stroke: #ff0051; stroke-linejoin: miter"/>
   </g>
   <g id="patch_19">
    <path d="M 284.398757 351.84252 
L 278.638757 364.953466 
L 278.638757 364.953466 
L 272.920967 364.953466 
L 272.920967 338.731574 
L 278.638757 338.731574 
L 278.638757 338.731574 
z
" clip-path="url(#pe64688b248)" style="fill: #ff0051; stroke: #ff0051; stroke-linejoin: miter"/>
   </g>
   <g id="patch_20">
    <path d="M 234.037598 187.955692 
L 239.797598 174.844746 
L 239.797598 174.844746 
L 276.604522 174.844746 
L 276.604522 201.066638 
L 239.797598 201.066638 
L 239.797598 201.066638 
z
" clip-path="url(#pe64688b248)" style="fill: #008bfb; stroke: #008bfb; stroke-linejoin: miter"/>
   </g>
   <g id="patch_21">
    <path d="M 276.604522 220.733058 
L 282.364522 207.622112 
L 282.364522 207.622112 
L 304.9561 207.622112 
L 304.9561 233.844004 
L 282.364522 233.844004 
L 282.364522 233.844004 
z
" clip-path="url(#pe64688b248)" style="fill: #008bfb; stroke: #008bfb; stroke-linejoin: miter"/>
   </g>
   <g id="patch_22">
    <path d="M 284.140962 286.287789 
L 289.900962 273.176843 
L 289.900962 273.176843 
L 298.874823 273.176843 
L 298.874823 299.398735 
L 289.900962 299.398735 
L 289.900962 299.398735 
z
" clip-path="url(#pe64688b248)" style="fill: #008bfb; stroke: #008bfb; stroke-linejoin: miter"/>
   </g>
   <g id="patch_23">
    <path d="M 229.869531 381.014375 
L 676.269531 381.014375 
" style="fill: none; stroke: #262626; stroke-width: 1.25; stroke-linejoin: miter; stroke-linecap: square"/>
   </g>
   <g id="text_27">
    <text style="fill: #ffffff; font: 12px 'sans-serif'; text-anchor: middle" x="576.069869" y="59.948418" transform="rotate(-0, 576.069869, 59.948418)">+3606.38</text>
   </g>
   <g id="text_28">
    <text style="fill: #ffffff; font: 12px 'sans-serif'; text-anchor: middle" x="442.162825" y="92.725783" transform="rotate(-0, 442.162825, 92.725783)">+2851.97</text>
   </g>
   <g id="text_29">
    <text style="fill: #ffffff; font: 12px 'sans-serif'; text-anchor: middle" x="341.648102" y="125.503149" transform="rotate(-0, 341.648102, 125.503149)">+1995.87</text>
   </g>
   <g id="text_30">
    <text style="fill: #ffffff; font: 12px 'sans-serif'; text-anchor: middle" x="267.151784" y="158.280514" transform="rotate(-0, 267.151784, 158.280514)">+1597.1</text>
   </g>
   <g id="text_31">
    <text style="fill: #ff0051; font: 12px 'sans-serif'; text-anchor: start" x="309.9561" y="256.612611" transform="rotate(-0, 309.9561, 256.612611)">+501.96</text>
   </g>
   <g id="text_32">
    <text style="fill: #ff0051; font: 12px 'sans-serif'; text-anchor: start" x="303.874823" y="322.167342" transform="rotate(-0, 303.874823, 322.167342)">+349.09</text>
   </g>
   <g id="text_33">
    <text style="fill: #ff0051; font: 12px 'sans-serif'; text-anchor: start" x="289.398757" y="354.944707" transform="rotate(-0, 289.398757, 354.944707)">+276.79</text>
   </g>
   <g id="text_34">
    <text style="fill: #008bfb; font: 12px 'sans-serif'; text-anchor: end" x="229.037598" y="191.05788" transform="rotate(-0, 229.037598, 191.05788)">−1026.5</text>
   </g>
   <g id="text_35">
    <text style="fill: #008bfb; font: 12px 'sans-serif'; text-anchor: end" x="271.604522" y="223.835245" transform="rotate(-0, 271.604522, 223.835245)">−683.7</text>
   </g>
   <g id="text_36">
    <text style="fill: #008bfb; font: 12px 'sans-serif'; text-anchor: end" x="279.140962" y="289.389976" transform="rotate(-0, 279.140962, 289.389976)">−355.31</text>
   </g>
  </g>
  <g id="axes_2">
   <g id="matplotlib.axis_3">
    <g id="xtick_7">
     <g id="line2d_25">
      <g>
       <use xlink:href="#m21960e2185" x="272.920967" y="381.014375" style="fill: #262626; stroke: #262626; stroke-width: 0.8"/>
      </g>
     </g>
     <g id="text_37">
      <text style="fill: #262626; font: 12px 'sans-serif'" transform="translate(252.920967 399.10375)"/>
      <!-- $E[f(X)]$ -->
      <g style="fill: #262626" transform="translate(252.920967 411.796)">
       <text>
        <tspan style="font: oblique 12px 'DejaVu Sans'" x="0 12.263672 21.169922" y="-0.875">EfX</tspan>
        <tspan style="font: 12px 'DejaVu Sans'" x="7.582031 16.488281 29.390625 34.072266" y="-0.875">[()]</tspan>
       </text>
      </g>
     </g>
    </g>
    <g id="xtick_8">
     <g id="line2d_26">
      <g>
       <use xlink:href="#m21960e2185" x="272.920967" y="381.014375" style="fill: #262626; stroke: #262626; stroke-width: 0.8"/>
      </g>
     </g>
     <g id="text_38">
      <text style="fill: #999999; font: 12px 'sans-serif'" transform="translate(294.920967 400.10375)"/>
      <!-- $ = 42413$ -->
      <g style="fill: #999999" transform="translate(294.920967 412.796)">
       <text>
        <tspan style="font: 12px 'DejaVu Sans'" x="2.337891 14.730469 22.365234 30 37.634766 45.269531" y="-0.09375">=42413</tspan>
       </text>
      </g>
     </g>
    </g>
   </g>
   <g id="patch_24">
    <path d="M 229.869531 381.014375 
L 676.269531 381.014375 
" style="fill: none; stroke: #262626; stroke-width: 1.25; stroke-linejoin: miter; stroke-linecap: square"/>
   </g>
  </g>
  <g id="axes_3">
   <g id="matplotlib.axis_4">
    <g id="xtick_9">
     <g id="line2d_27">
      <defs>
       <path id="m09baf3a987" d="M 0 0 
L 0 -6 
" style="stroke: #262626; stroke-width: 0.8"/>
      </defs>
      <g>
       <use xlink:href="#m09baf3a987" x="650.844321" y="27.674375" style="fill: #262626; stroke: #262626; stroke-width: 0.8"/>
      </g>
     </g>
     <g id="text_39">
      <!-- $f(x)$ -->
      <g style="fill: #262626" transform="translate(640.844321 15.789375)">
       <text>
        <tspan style="font: oblique 12px 'DejaVu Sans'" x="0 8.90625" y="-0.875">fx</tspan>
        <tspan style="font: 12px 'DejaVu Sans'" x="4.224609 16.007812" y="-0.875">()</tspan>
       </text>
      </g>
     </g>
    </g>
    <g id="xtick_10">
     <g id="line2d_28">
      <g>
       <use xlink:href="#m09baf3a987" x="650.844321" y="27.674375" style="fill: #262626; stroke: #262626; stroke-width: 0.8"/>
      </g>
     </g>
     <g id="text_40">
      <!-- $ = 51526.644$ -->
      <g style="fill: #999999" transform="translate(662.844321 15.789375)">
       <text>
        <tspan style="font: 12px 'DejaVu Sans'" x="2.337891 14.730469 22.365234 30 37.634766 45.269531 52.904297 56.71875 64.353516 71.988281" y="-0.09375">=51526.644</tspan>
       </text>
      </g>
     </g>
    </g>
   </g>
   <g id="patch_25">
    <path d="M 229.869531 381.014375 
L 676.269531 381.014375 
" style="fill: none; stroke: #262626; stroke-width: 1.25; stroke-linejoin: miter; stroke-linecap: square"/>
   </g>
   <g id="text_41">
    <text style="fill: #262626; font: 15px 'sans-serif'; text-anchor: start" x="676.269531" y="60.027125" transform="rotate(-0, 676.269531, 60.027125)">48742.5</text>
   </g>
  </g>
 </g>
 <defs>
  <clipPath id="pe64688b248">
   <rect x="229.869531" y="27.674375" width="446.4" height="353.34"/>
  </clipPath>
 </defs>
</svg>
