<?xml version="1.0" encoding="utf-8" standalone="no"?>
<!DOCTYPE svg PUBLIC "-//W3C//DTD SVG 1.1//EN"
  "http://www.w3.org/Graphics/SVG/1.1/DTD/svg11.dtd">
<svg xmlns:xlink="http://www.w3.org/1999/xlink" width="742.131509pt" height="422.381pt" viewBox="0 0 742.131509 422.381" xmlns="http://www.w3.org/2000/svg" version="1.1">
 <metadata>
  <rdf:RDF xmlns:dc="http://purl.org/dc/elements/1.1/" xmlns:cc="http://creativecommons.org/ns#" xmlns:rdf="http://www.w3.org/1999/02/22-rdf-syntax-ns#">
   <cc:Work>
    <dc:type rdf:resource="http://purl.org/dc/dcmitype/StillImage"/>
    <dc:date>2022-10-11T11:06:13.734990</dc:date>
    <dc:format>image/svg+xml</dc:format>
    <dc:creator>
     <cc:Agent>
      <dc:title>Matplotlib v3.5.2, https://matplotlib.org/</dc:title>
     </cc:Agent>
    </dc:creator>
   </cc:Work>
  </rdf:RDF>
 </metadata>
 <defs>
  <style type="text/css">*{stroke-linejoin: round; stroke-linecap: butt}</style>
 </defs>
 <g id="figure_1">
  <g id="patch_1">
   <path d="M 0 422.381 
L 742.131509 422.381 
L 742.131509 0 
L 0 0 
z
" style="fill: #ffffff"/>
  </g>
  <g id="axes_1">
   <g id="patch_2">
    <path d="M 222.276719 381.014375 
L 668.676719 381.014375 
L 668.676719 27.674375 
L 222.276719 27.674375 
z
" style="fill: #ffffff"/>
   </g>
   <g id="line2d_1">
    <path d="M 528.341265 102.734542 
L 528.341265 43.735284 
" clip-path="url(#p8c874bd511)" style="fill: none; stroke-dasharray: 1.85,0.8; stroke-dashoffset: 0; stroke: #bbbbbb; stroke-width: 0.5"/>
   </g>
   <g id="line2d_2">
    <path d="M 432.337993 135.511907 
L 432.337993 76.51265 
" clip-path="url(#p8c874bd511)" style="fill: none; stroke-dasharray: 1.85,0.8; stroke-dashoffset: 0; stroke: #bbbbbb; stroke-width: 0.5"/>
   </g>
   <g id="line2d_3">
    <path d="M 344.578453 168.289273 
L 344.578453 109.290015 
" clip-path="url(#p8c874bd511)" style="fill: none; stroke-dasharray: 1.85,0.8; stroke-dashoffset: 0; stroke: #bbbbbb; stroke-width: 0.5"/>
   </g>
   <g id="line2d_4">
    <path d="M 300.734644 201.066638 
L 300.734644 142.067381 
" clip-path="url(#p8c874bd511)" style="fill: none; stroke-dasharray: 1.85,0.8; stroke-dashoffset: 0; stroke: #bbbbbb; stroke-width: 0.5"/>
   </g>
   <g id="line2d_5">
    <path d="M 261.33954 233.844004 
L 261.33954 174.844746 
" clip-path="url(#p8c874bd511)" style="fill: none; stroke-dasharray: 1.85,0.8; stroke-dashoffset: 0; stroke: #bbbbbb; stroke-width: 0.5"/>
   </g>
   <g id="line2d_6">
    <path d="M 226.444786 266.621369 
L 226.444786 207.622112 
" clip-path="url(#p8c874bd511)" style="fill: none; stroke-dasharray: 1.85,0.8; stroke-dashoffset: 0; stroke: #bbbbbb; stroke-width: 0.5"/>
   </g>
   <g id="line2d_7">
    <path d="M 222.276719 351.84252 
L 668.676719 351.84252 
" clip-path="url(#p8c874bd511)" style="fill: none; stroke-dasharray: 0.5,2.5; stroke-dashoffset: 0; stroke: #cccccc; stroke-width: 0.5"/>
   </g>
   <g id="line2d_8">
    <path d="M 222.276719 319.065154 
L 668.676719 319.065154 
" clip-path="url(#p8c874bd511)" style="fill: none; stroke-dasharray: 0.5,2.5; stroke-dashoffset: 0; stroke: #cccccc; stroke-width: 0.5"/>
   </g>
   <g id="line2d_9">
    <path d="M 222.276719 286.287789 
L 668.676719 286.287789 
" clip-path="url(#p8c874bd511)" style="fill: none; stroke-dasharray: 0.5,2.5; stroke-dashoffset: 0; stroke: #cccccc; stroke-width: 0.5"/>
   </g>
   <g id="line2d_10">
    <path d="M 222.276719 253.510423 
L 668.676719 253.510423 
" clip-path="url(#p8c874bd511)" style="fill: none; stroke-dasharray: 0.5,2.5; stroke-dashoffset: 0; stroke: #cccccc; stroke-width: 0.5"/>
   </g>
   <g id="line2d_11">
    <path d="M 222.276719 220.733058 
L 668.676719 220.733058 
" clip-path="url(#p8c874bd511)" style="fill: none; stroke-dasharray: 0.5,2.5; stroke-dashoffset: 0; stroke: #cccccc; stroke-width: 0.5"/>
   </g>
   <g id="line2d_12">
    <path d="M 222.276719 187.955692 
L 668.676719 187.955692 
" clip-path="url(#p8c874bd511)" style="fill: none; stroke-dasharray: 0.5,2.5; stroke-dashoffset: 0; stroke: #cccccc; stroke-width: 0.5"/>
   </g>
   <g id="line2d_13">
    <path d="M 222.276719 155.178327 
L 668.676719 155.178327 
" clip-path="url(#p8c874bd511)" style="fill: none; stroke-dasharray: 0.5,2.5; stroke-dashoffset: 0; stroke: #cccccc; stroke-width: 0.5"/>
   </g>
   <g id="line2d_14">
    <path d="M 222.276719 122.400961 
L 668.676719 122.400961 
" clip-path="url(#p8c874bd511)" style="fill: none; stroke-dasharray: 0.5,2.5; stroke-dashoffset: 0; stroke: #cccccc; stroke-width: 0.5"/>
   </g>
   <g id="line2d_15">
    <path d="M 222.276719 89.623596 
L 668.676719 89.623596 
" clip-path="url(#p8c874bd511)" style="fill: none; stroke-dasharray: 0.5,2.5; stroke-dashoffset: 0; stroke: #cccccc; stroke-width: 0.5"/>
   </g>
   <g id="line2d_16">
    <path d="M 222.276719 56.84623 
L 668.676719 56.84623 
" clip-path="url(#p8c874bd511)" style="fill: none; stroke-dasharray: 0.5,2.5; stroke-dashoffset: 0; stroke: #cccccc; stroke-width: 0.5"/>
   </g>
   <g id="line2d_17">
    <path d="M 234.724381 381.014375 
L 234.724381 345.680375 
" clip-path="url(#p8c874bd511)" style="fill: none; stroke-dasharray: 1.85,0.8; stroke-dashoffset: 0; stroke: #bbbbbb; stroke-width: 0.5"/>
   </g>
   <g id="line2d_18">
    <path d="M 643.251509 381.014375 
L 643.251509 27.674375 
" clip-path="url(#p8c874bd511)" style="fill: none; stroke-dasharray: 1.85,0.8; stroke-dashoffset: 0; stroke: #bbbbbb; stroke-width: 0.5"/>
   </g>
   <g id="matplotlib.axis_1">
    <g id="xtick_1">
     <g id="line2d_19">
      <defs>
       <path id="m172a42968d" d="M 0 0 
L 0 6 
" style="stroke: #262626; stroke-width: 0.8"/>
      </defs>
      <g>
       <use xlink:href="#m172a42968d" x="289.198448" y="381.014375" style="fill: #262626; stroke: #262626; stroke-width: 0.8"/>
      </g>
     </g>
     <g id="text_1">
      <text style="fill: #262626; font: 13px 'sans-serif'; text-anchor: middle" x="289.198448" y="399.819531" transform="rotate(-0, 289.198448, 399.819531)">44000</text>
     </g>
    </g>
    <g id="xtick_2">
     <g id="line2d_20">
      <g>
       <use xlink:href="#m172a42968d" x="357.848816" y="381.014375" style="fill: #262626; stroke: #262626; stroke-width: 0.8"/>
      </g>
     </g>
     <g id="text_2">
      <text style="fill: #262626; font: 13px 'sans-serif'; text-anchor: middle" x="357.848816" y="399.819531" transform="rotate(-0, 357.848816, 399.819531)">46000</text>
     </g>
    </g>
    <g id="xtick_3">
     <g id="line2d_21">
      <g>
       <use xlink:href="#m172a42968d" x="426.499185" y="381.014375" style="fill: #262626; stroke: #262626; stroke-width: 0.8"/>
      </g>
     </g>
     <g id="text_3">
      <text style="fill: #262626; font: 13px 'sans-serif'; text-anchor: middle" x="426.499185" y="399.819531" transform="rotate(-0, 426.499185, 399.819531)">48000</text>
     </g>
    </g>
    <g id="xtick_4">
     <g id="line2d_22">
      <g>
       <use xlink:href="#m172a42968d" x="495.149553" y="381.014375" style="fill: #262626; stroke: #262626; stroke-width: 0.8"/>
      </g>
     </g>
     <g id="text_4">
      <text style="fill: #262626; font: 13px 'sans-serif'; text-anchor: middle" x="495.149553" y="399.819531" transform="rotate(-0, 495.149553, 399.819531)">50000</text>
     </g>
    </g>
    <g id="xtick_5">
     <g id="line2d_23">
      <g>
       <use xlink:href="#m172a42968d" x="563.799921" y="381.014375" style="fill: #262626; stroke: #262626; stroke-width: 0.8"/>
      </g>
     </g>
     <g id="text_5">
      <text style="fill: #262626; font: 13px 'sans-serif'; text-anchor: middle" x="563.799921" y="399.819531" transform="rotate(-0, 563.799921, 399.819531)">52000</text>
     </g>
    </g>
    <g id="xtick_6">
     <g id="line2d_24">
      <g>
       <use xlink:href="#m172a42968d" x="632.45029" y="381.014375" style="fill: #262626; stroke: #262626; stroke-width: 0.8"/>
      </g>
     </g>
     <g id="text_6">
      <text style="fill: #262626; font: 13px 'sans-serif'; text-anchor: middle" x="632.45029" y="399.819531" transform="rotate(-0, 632.45029, 399.819531)">54000</text>
     </g>
    </g>
   </g>
   <g id="matplotlib.axis_2">
    <g id="ytick_1">
     <g id="text_7">
      <text style="fill: #999999; font: 13px 'sans-serif'; text-anchor: end" x="212.776719" y="356.495098" transform="rotate(-0, 212.776719, 356.495098)">−0.055 = CE 18:1</text>
     </g>
    </g>
    <g id="ytick_2">
     <g id="text_8">
      <text style="fill: #999999; font: 13px 'sans-serif'; text-anchor: end" x="212.776719" y="323.796951" transform="rotate(-0, 212.776719, 323.796951)">0.754 = TG 20:5_22:6_22:6</text>
     </g>
    </g>
    <g id="ytick_3">
     <g id="text_9">
      <text style="fill: #999999; font: 13px 'sans-serif'; text-anchor: end" x="212.776719" y="291.019586" transform="rotate(-0, 212.776719, 291.019586)">0.994 = TG 18:1_22:6_22:6</text>
     </g>
    </g>
    <g id="ytick_4">
     <g id="text_10">
      <text style="fill: #999999; font: 13px 'sans-serif'; text-anchor: end" x="212.776719" y="258.163001" transform="rotate(-0, 212.776719, 258.163001)">0.263 = PC 38:7</text>
     </g>
    </g>
    <g id="ytick_5">
     <g id="text_11">
      <text style="fill: #999999; font: 13px 'sans-serif'; text-anchor: end" x="212.776719" y="225.468917" transform="rotate(-0, 212.776719, 225.468917)">0.389 = Plasmanyl-PC O-20:0_20:4</text>
     </g>
    </g>
    <g id="ytick_6">
     <g id="text_12">
      <text style="fill: #999999; font: 13px 'sans-serif'; text-anchor: end" x="212.776719" y="192.60827" transform="rotate(-0, 212.776719, 192.60827)">−0.497 = FA 18:0</text>
     </g>
    </g>
    <g id="ytick_7">
     <g id="text_13">
      <text style="fill: #999999; font: 13px 'sans-serif'; text-anchor: end" x="212.776719" y="159.910124" transform="rotate(-0, 212.776719, 159.910124)">0.707 = 4-Guanidinobutyric acid</text>
     </g>
    </g>
    <g id="ytick_8">
     <g id="text_14">
      <text style="fill: #999999; font: 13px 'sans-serif'; text-anchor: end" x="212.776719" y="127.053539" transform="rotate(-0, 212.776719, 127.053539)">1.262 = SM d37:1</text>
     </g>
    </g>
    <g id="ytick_9">
     <g id="text_15">
      <text style="fill: #999999; font: 13px 'sans-serif'; text-anchor: end" x="212.776719" y="94.276174" transform="rotate(-0, 212.776719, 94.276174)">1.587 = PC 36:3</text>
     </g>
    </g>
    <g id="ytick_10">
     <g id="text_16">
      <text style="fill: #999999; font: 13px 'sans-serif'; text-anchor: end" x="212.776719" y="61.578027" transform="rotate(-0, 212.776719, 61.578027)">0.641 = TG 22:6_22:6_22:6</text>
     </g>
    </g>
    <g id="ytick_11">
     <g id="text_17">
      <text style="fill: #262626; font: 13px 'sans-serif'; text-anchor: end" x="212.776719" y="356.495098" transform="rotate(-0, 212.776719, 356.495098)"> CE 18:1</text>
     </g>
    </g>
    <g id="ytick_12">
     <g id="text_18">
      <text style="fill: #262626; font: 13px 'sans-serif'; text-anchor: end" x="212.776719" y="323.796951" transform="rotate(-0, 212.776719, 323.796951)"> TG 20:5_22:6_22:6</text>
     </g>
    </g>
    <g id="ytick_13">
     <g id="text_19">
      <text style="fill: #262626; font: 13px 'sans-serif'; text-anchor: end" x="212.776719" y="291.019585" transform="rotate(-0, 212.776719, 291.019585)"> TG 18:1_22:6_22:6</text>
     </g>
    </g>
    <g id="ytick_14">
     <g id="text_20">
      <text style="fill: #262626; font: 13px 'sans-serif'; text-anchor: end" x="212.776719" y="258.163001" transform="rotate(-0, 212.776719, 258.163001)"> PC 38:7</text>
     </g>
    </g>
    <g id="ytick_15">
     <g id="text_21">
      <text style="fill: #262626; font: 13px 'sans-serif'; text-anchor: end" x="212.776719" y="225.468917" transform="rotate(-0, 212.776719, 225.468917)"> Plasmanyl-PC O-20:0_20:4</text>
     </g>
    </g>
    <g id="ytick_16">
     <g id="text_22">
      <text style="fill: #262626; font: 13px 'sans-serif'; text-anchor: end" x="212.776719" y="192.60827" transform="rotate(-0, 212.776719, 192.60827)"> FA 18:0</text>
     </g>
    </g>
    <g id="ytick_17">
     <g id="text_23">
      <text style="fill: #262626; font: 13px 'sans-serif'; text-anchor: end" x="212.776719" y="159.910123" transform="rotate(-0, 212.776719, 159.910123)"> 4-Guanidinobutyric acid</text>
     </g>
    </g>
    <g id="ytick_18">
     <g id="text_24">
      <text style="fill: #262626; font: 13px 'sans-serif'; text-anchor: end" x="212.776719" y="127.053539" transform="rotate(-0, 212.776719, 127.053539)"> SM d37:1</text>
     </g>
    </g>
    <g id="ytick_19">
     <g id="text_25">
      <text style="fill: #262626; font: 13px 'sans-serif'; text-anchor: end" x="212.776719" y="94.276174" transform="rotate(-0, 212.776719, 94.276174)"> PC 36:3</text>
     </g>
    </g>
    <g id="ytick_20">
     <g id="text_26">
      <text style="fill: #262626; font: 13px 'sans-serif'; text-anchor: end" x="212.776719" y="61.578027" transform="rotate(-0, 212.776719, 61.578027)"> TG 22:6_22:6_22:6</text>
     </g>
    </g>
   </g>
   <g id="patch_3">
    <path d="M 524.173198 69.957176 
L 647.419576 69.957176 
L 647.419576 43.735284 
L 524.173198 43.735284 
L 524.173198 69.957176 
z
" clip-path="url(#p8c874bd511)" style="fill: none; opacity: 0"/>
   </g>
   <g id="patch_4">
    <path d="M 428.169926 102.734542 
L 532.509332 102.734542 
L 532.509332 76.51265 
L 428.169926 76.51265 
L 428.169926 102.734542 
z
" clip-path="url(#p8c874bd511)" style="fill: none; opacity: 0"/>
   </g>
   <g id="patch_5">
    <path d="M 340.410385 135.511907 
L 436.506061 135.511907 
L 436.506061 109.290015 
L 340.410385 109.290015 
L 340.410385 135.511907 
z
" clip-path="url(#p8c874bd511)" style="fill: none; opacity: 0"/>
   </g>
   <g id="patch_6">
    <path d="M 296.566577 168.289273 
L 348.74652 168.289273 
L 348.74652 142.067381 
L 296.566577 142.067381 
L 296.566577 168.289273 
z
" clip-path="url(#p8c874bd511)" style="fill: none; opacity: 0"/>
   </g>
   <g id="patch_7">
    <path d="M 257.171473 201.066638 
L 304.902711 201.066638 
L 304.902711 174.844746 
L 257.171473 174.844746 
L 257.171473 201.066638 
z
" clip-path="url(#p8c874bd511)" style="fill: none; opacity: 0"/>
   </g>
   <g id="patch_8">
    <path d="M 222.276719 233.844004 
L 265.507608 233.844004 
L 265.507608 207.622112 
L 222.276719 207.622112 
L 222.276719 233.844004 
z
" clip-path="url(#p8c874bd511)" style="fill: none; opacity: 0"/>
   </g>
   <g id="patch_9">
    <path d="M 222.850666 299.398735 
L 243.012906 299.398735 
L 243.012906 273.176843 
L 222.850666 273.176843 
L 222.850666 299.398735 
z
" clip-path="url(#p8c874bd511)" style="fill: none; opacity: 0"/>
   </g>
   <g id="patch_10">
    <path d="M 230.556314 364.953466 
L 242.033744 364.953466 
L 242.033744 338.731574 
L 230.556314 338.731574 
L 230.556314 364.953466 
z
" clip-path="url(#p8c874bd511)" style="fill: none; opacity: 0"/>
   </g>
   <g id="patch_11">
    <path d="M 243.012906 266.621369 
L 222.276719 266.621369 
L 222.276719 240.399477 
L 243.012906 240.399477 
L 243.012906 266.621369 
z
" clip-path="url(#p8c874bd511)" style="fill: none; opacity: 0"/>
   </g>
   <g id="patch_12">
    <path d="M 242.033744 332.1761 
L 222.850666 332.1761 
L 222.850666 305.954208 
L 242.033744 305.954208 
L 242.033744 332.1761 
z
" clip-path="url(#p8c874bd511)" style="fill: none; opacity: 0"/>
   </g>
   <g id="patch_13">
    <path d="M 643.251509 56.84623 
L 637.491509 69.957176 
L 637.491509 69.957176 
L 528.341265 69.957176 
L 528.341265 43.735284 
L 637.491509 43.735284 
L 637.491509 43.735284 
z
" clip-path="url(#p8c874bd511)" style="fill: #ff0051; stroke: #ff0051; stroke-linejoin: miter"/>
   </g>
   <g id="patch_14">
    <path d="M 528.341265 89.623596 
L 522.581265 102.734542 
L 522.581265 102.734542 
L 432.337993 102.734542 
L 432.337993 76.51265 
L 522.581265 76.51265 
L 522.581265 76.51265 
z
" clip-path="url(#p8c874bd511)" style="fill: #ff0051; stroke: #ff0051; stroke-linejoin: miter"/>
   </g>
   <g id="patch_15">
    <path d="M 432.337993 122.400961 
L 426.577993 135.511907 
L 426.577993 135.511907 
L 344.578453 135.511907 
L 344.578453 109.290015 
L 426.577993 109.290015 
L 426.577993 109.290015 
z
" clip-path="url(#p8c874bd511)" style="fill: #ff0051; stroke: #ff0051; stroke-linejoin: miter"/>
   </g>
   <g id="patch_16">
    <path d="M 344.578453 155.178327 
L 338.818453 168.289273 
L 338.818453 168.289273 
L 300.734644 168.289273 
L 300.734644 142.067381 
L 338.818453 142.067381 
L 338.818453 142.067381 
z
" clip-path="url(#p8c874bd511)" style="fill: #ff0051; stroke: #ff0051; stroke-linejoin: miter"/>
   </g>
   <g id="patch_17">
    <path d="M 300.734644 187.955692 
L 294.974644 201.066638 
L 294.974644 201.066638 
L 261.33954 201.066638 
L 261.33954 174.844746 
L 294.974644 174.844746 
L 294.974644 174.844746 
z
" clip-path="url(#p8c874bd511)" style="fill: #ff0051; stroke: #ff0051; stroke-linejoin: miter"/>
   </g>
   <g id="patch_18">
    <path d="M 261.33954 220.733058 
L 255.57954 233.844004 
L 255.57954 233.844004 
L 226.444786 233.844004 
L 226.444786 207.622112 
L 255.57954 207.622112 
L 255.57954 207.622112 
z
" clip-path="url(#p8c874bd511)" style="fill: #ff0051; stroke: #ff0051; stroke-linejoin: miter"/>
   </g>
   <g id="patch_19">
    <path d="M 238.844839 286.287789 
L 233.084839 299.398735 
L 233.084839 299.398735 
L 227.018733 299.398735 
L 227.018733 273.176843 
L 233.084839 273.176843 
L 233.084839 273.176843 
z
" clip-path="url(#p8c874bd511)" style="fill: #ff0051; stroke: #ff0051; stroke-linejoin: miter"/>
   </g>
   <g id="patch_20">
    <path d="M 237.865676 351.84252 
L 234.724381 364.953466 
L 234.724381 364.953466 
L 234.724381 364.953466 
L 234.724381 338.731574 
L 234.724381 338.731574 
L 234.724381 338.731574 
z
" clip-path="url(#p8c874bd511)" style="fill: #ff0051; stroke: #ff0051; stroke-linejoin: miter"/>
   </g>
   <g id="patch_21">
    <path d="M 226.444786 253.510423 
L 232.204786 240.399477 
L 232.204786 240.399477 
L 238.844839 240.399477 
L 238.844839 266.621369 
L 232.204786 266.621369 
L 232.204786 266.621369 
z
" clip-path="url(#p8c874bd511)" style="fill: #008bfb; stroke: #008bfb; stroke-linejoin: miter"/>
   </g>
   <g id="patch_22">
    <path d="M 227.018733 319.065154 
L 232.778733 305.954208 
L 232.778733 305.954208 
L 237.865676 305.954208 
L 237.865676 332.1761 
L 232.778733 332.1761 
L 232.778733 332.1761 
z
" clip-path="url(#p8c874bd511)" style="fill: #008bfb; stroke: #008bfb; stroke-linejoin: miter"/>
   </g>
   <g id="patch_23">
    <path d="M 222.276719 381.014375 
L 668.676719 381.014375 
" style="fill: none; stroke: #262626; stroke-width: 1.25; stroke-linejoin: miter; stroke-linecap: square"/>
   </g>
   <g id="text_27">
    <text style="fill: #ffffff; font: 12px 'sans-serif'; text-anchor: middle" x="585.796387" y="59.948418" transform="rotate(-0, 585.796387, 59.948418)">+3347.69</text>
   </g>
   <g id="text_28">
    <text style="fill: #ffffff; font: 12px 'sans-serif'; text-anchor: middle" x="480.339629" y="92.725783" transform="rotate(-0, 480.339629, 92.725783)">+2796.88</text>
   </g>
   <g id="text_29">
    <text style="fill: #ffffff; font: 12px 'sans-serif'; text-anchor: middle" x="388.458223" y="125.503149" transform="rotate(-0, 388.458223, 125.503149)">+2556.71</text>
   </g>
   <g id="text_30">
    <text style="fill: #ff0051; font: 12px 'sans-serif'; text-anchor: start" x="349.578453" y="158.280514" transform="rotate(-0, 349.578453, 158.280514)">+1277.31</text>
   </g>
   <g id="text_31">
    <text style="fill: #ff0051; font: 12px 'sans-serif'; text-anchor: start" x="305.734644" y="191.05788" transform="rotate(-0, 305.734644, 191.05788)">+1147.7</text>
   </g>
   <g id="text_32">
    <text style="fill: #ff0051; font: 12px 'sans-serif'; text-anchor: start" x="266.33954" y="223.835245" transform="rotate(-0, 266.33954, 223.835245)">+1016.59</text>
   </g>
   <g id="text_33">
    <text style="fill: #ff0051; font: 12px 'sans-serif'; text-anchor: start" x="243.844839" y="289.389976" transform="rotate(-0, 243.844839, 289.389976)">+344.53</text>
   </g>
   <g id="text_34">
    <text style="fill: #ff0051; font: 12px 'sans-serif'; text-anchor: start" x="242.865676" y="354.944707" transform="rotate(-0, 242.865676, 354.944707)">+91.52</text>
   </g>
   <g id="text_35">
    <text style="fill: #008bfb; font: 12px 'sans-serif'; text-anchor: end" x="221.444786" y="256.612611" transform="rotate(-0, 221.444786, 256.612611)">−361.25</text>
   </g>
   <g id="text_36">
    <text style="fill: #008bfb; font: 12px 'sans-serif'; text-anchor: end" x="222.018733" y="322.167342" transform="rotate(-0, 222.018733, 322.167342)">−316.01</text>
   </g>
  </g>
  <g id="axes_2">
   <g id="matplotlib.axis_3">
    <g id="xtick_7">
     <g id="line2d_25">
      <g>
       <use xlink:href="#m172a42968d" x="234.724381" y="381.014375" style="fill: #262626; stroke: #262626; stroke-width: 0.8"/>
      </g>
     </g>
     <g id="text_37">
      <text style="fill: #262626; font: 12px 'sans-serif'" transform="translate(214.724381 399.10375)"/>
      <!-- $E[f(X)]$ -->
      <g style="fill: #262626" transform="translate(214.724381 411.796)">
       <text>
        <tspan style="font: oblique 12px 'DejaVu Sans'" x="0 12.263672 21.169922" y="-0.875">EfX</tspan>
        <tspan style="font: 12px 'DejaVu Sans'" x="7.582031 16.488281 29.390625 34.072266" y="-0.875">[()]</tspan>
       </text>
      </g>
     </g>
    </g>
    <g id="xtick_8">
     <g id="line2d_26">
      <g>
       <use xlink:href="#m172a42968d" x="234.724381" y="381.014375" style="fill: #262626; stroke: #262626; stroke-width: 0.8"/>
      </g>
     </g>
     <g id="text_38">
      <text style="fill: #999999; font: 12px 'sans-serif'" transform="translate(256.724381 400.10375)"/>
      <!-- $ = 42413$ -->
      <g style="fill: #999999" transform="translate(256.724381 412.796)">
       <text>
        <tspan style="font: 12px 'DejaVu Sans'" x="2.337891 14.730469 22.365234 30 37.634766 45.269531" y="-0.09375">=42413</tspan>
       </text>
      </g>
     </g>
    </g>
   </g>
   <g id="patch_24">
    <path d="M 222.276719 381.014375 
L 668.676719 381.014375 
" style="fill: none; stroke: #262626; stroke-width: 1.25; stroke-linejoin: miter; stroke-linecap: square"/>
   </g>
  </g>
  <g id="axes_3">
   <g id="matplotlib.axis_4">
    <g id="xtick_9">
     <g id="line2d_27">
      <defs>
       <path id="m0ed36d047c" d="M 0 0 
L 0 -6 
" style="stroke: #262626; stroke-width: 0.8"/>
      </defs>
      <g>
       <use xlink:href="#m0ed36d047c" x="643.251509" y="27.674375" style="fill: #262626; stroke: #262626; stroke-width: 0.8"/>
      </g>
     </g>
     <g id="text_39">
      <!-- $f(x)$ -->
      <g style="fill: #262626" transform="translate(633.251509 15.789375)">
       <text>
        <tspan style="font: oblique 12px 'DejaVu Sans'" x="0 8.90625" y="-0.875">fx</tspan>
        <tspan style="font: 12px 'DejaVu Sans'" x="4.224609 16.007812" y="-0.875">()</tspan>
       </text>
      </g>
     </g>
    </g>
    <g id="xtick_10">
     <g id="line2d_28">
      <g>
       <use xlink:href="#m0ed36d047c" x="643.251509" y="27.674375" style="fill: #262626; stroke: #262626; stroke-width: 0.8"/>
      </g>
     </g>
     <g id="text_40">
      <!-- $ = 54314.673$ -->
      <g style="fill: #999999" transform="translate(655.251509 15.789375)">
       <text>
        <tspan style="font: 12px 'DejaVu Sans'" x="2.337891 14.730469 22.365234 30 37.634766 45.269531 52.904297 56.71875 64.353516 71.988281" y="-0.09375">=54314.673</tspan>
       </text>
      </g>
     </g>
    </g>
   </g>
   <g id="patch_25">
    <path d="M 222.276719 381.014375 
L 668.676719 381.014375 
" style="fill: none; stroke: #262626; stroke-width: 1.25; stroke-linejoin: miter; stroke-linecap: square"/>
   </g>
   <g id="text_41">
    <text style="fill: #262626; font: 15px 'sans-serif'; text-anchor: start" x="668.676719" y="60.027125" transform="rotate(-0, 668.676719, 60.027125)">48742.5</text>
   </g>
  </g>
 </g>
 <defs>
  <clipPath id="p8c874bd511">
   <rect x="222.276719" y="27.674375" width="446.4" height="353.34"/>
  </clipPath>
 </defs>
</svg>
