<?xml version="1.0" encoding="utf-8" standalone="no"?>
<!DOCTYPE svg PUBLIC "-//W3C//DTD SVG 1.1//EN"
  "http://www.w3.org/Graphics/SVG/1.1/DTD/svg11.dtd">
<svg xmlns:xlink="http://www.w3.org/1999/xlink" width="742.131509pt" height="422.381pt" viewBox="0 0 742.131509 422.381" xmlns="http://www.w3.org/2000/svg" version="1.1">
 <metadata>
  <rdf:RDF xmlns:dc="http://purl.org/dc/elements/1.1/" xmlns:cc="http://creativecommons.org/ns#" xmlns:rdf="http://www.w3.org/1999/02/22-rdf-syntax-ns#">
   <cc:Work>
    <dc:type rdf:resource="http://purl.org/dc/dcmitype/StillImage"/>
    <dc:date>2022-10-11T11:06:28.472864</dc:date>
    <dc:format>image/svg+xml</dc:format>
    <dc:creator>
     <cc:Agent>
      <dc:title>Matplotlib v3.5.2, https://matplotlib.org/</dc:title>
     </cc:Agent>
    </dc:creator>
   </cc:Work>
  </rdf:RDF>
 </metadata>
 <defs>
  <style type="text/css">*{stroke-linejoin: round; stroke-linecap: butt}</style>
 </defs>
 <g id="figure_1">
  <g id="patch_1">
   <path d="M 0 422.381 
L 742.131509 422.381 
L 742.131509 0 
L 0 0 
z
" style="fill: #ffffff"/>
  </g>
  <g id="axes_1">
   <g id="patch_2">
    <path d="M 222.276719 381.014375 
L 668.676719 381.014375 
L 668.676719 27.674375 
L 222.276719 27.674375 
z
" style="fill: #ffffff"/>
   </g>
   <g id="line2d_1">
    <path d="M 550.779384 102.734542 
L 550.779384 43.735284 
" clip-path="url(#pd3b4bfc917)" style="fill: none; stroke-dasharray: 1.85,0.8; stroke-dashoffset: 0; stroke: #bbbbbb; stroke-width: 0.5"/>
   </g>
   <g id="line2d_2">
    <path d="M 475.776835 135.511907 
L 475.776835 76.51265 
" clip-path="url(#pd3b4bfc917)" style="fill: none; stroke-dasharray: 1.85,0.8; stroke-dashoffset: 0; stroke: #bbbbbb; stroke-width: 0.5"/>
   </g>
   <g id="line2d_3">
    <path d="M 403.574229 168.289273 
L 403.574229 109.290015 
" clip-path="url(#pd3b4bfc917)" style="fill: none; stroke-dasharray: 1.85,0.8; stroke-dashoffset: 0; stroke: #bbbbbb; stroke-width: 0.5"/>
   </g>
   <g id="line2d_4">
    <path d="M 332.5563 201.066638 
L 332.5563 142.067381 
" clip-path="url(#pd3b4bfc917)" style="fill: none; stroke-dasharray: 1.85,0.8; stroke-dashoffset: 0; stroke: #bbbbbb; stroke-width: 0.5"/>
   </g>
   <g id="line2d_5">
    <path d="M 264.980306 233.844004 
L 264.980306 174.844746 
" clip-path="url(#pd3b4bfc917)" style="fill: none; stroke-dasharray: 1.85,0.8; stroke-dashoffset: 0; stroke: #bbbbbb; stroke-width: 0.5"/>
   </g>
   <g id="line2d_6">
    <path d="M 226.444786 266.621369 
L 226.444786 207.622112 
" clip-path="url(#pd3b4bfc917)" style="fill: none; stroke-dasharray: 1.85,0.8; stroke-dashoffset: 0; stroke: #bbbbbb; stroke-width: 0.5"/>
   </g>
   <g id="line2d_7">
    <path d="M 222.276719 351.84252 
L 668.676719 351.84252 
" clip-path="url(#pd3b4bfc917)" style="fill: none; stroke-dasharray: 0.5,2.5; stroke-dashoffset: 0; stroke: #cccccc; stroke-width: 0.5"/>
   </g>
   <g id="line2d_8">
    <path d="M 222.276719 319.065154 
L 668.676719 319.065154 
" clip-path="url(#pd3b4bfc917)" style="fill: none; stroke-dasharray: 0.5,2.5; stroke-dashoffset: 0; stroke: #cccccc; stroke-width: 0.5"/>
   </g>
   <g id="line2d_9">
    <path d="M 222.276719 286.287789 
L 668.676719 286.287789 
" clip-path="url(#pd3b4bfc917)" style="fill: none; stroke-dasharray: 0.5,2.5; stroke-dashoffset: 0; stroke: #cccccc; stroke-width: 0.5"/>
   </g>
   <g id="line2d_10">
    <path d="M 222.276719 253.510423 
L 668.676719 253.510423 
" clip-path="url(#pd3b4bfc917)" style="fill: none; stroke-dasharray: 0.5,2.5; stroke-dashoffset: 0; stroke: #cccccc; stroke-width: 0.5"/>
   </g>
   <g id="line2d_11">
    <path d="M 222.276719 220.733058 
L 668.676719 220.733058 
" clip-path="url(#pd3b4bfc917)" style="fill: none; stroke-dasharray: 0.5,2.5; stroke-dashoffset: 0; stroke: #cccccc; stroke-width: 0.5"/>
   </g>
   <g id="line2d_12">
    <path d="M 222.276719 187.955692 
L 668.676719 187.955692 
" clip-path="url(#pd3b4bfc917)" style="fill: none; stroke-dasharray: 0.5,2.5; stroke-dashoffset: 0; stroke: #cccccc; stroke-width: 0.5"/>
   </g>
   <g id="line2d_13">
    <path d="M 222.276719 155.178327 
L 668.676719 155.178327 
" clip-path="url(#pd3b4bfc917)" style="fill: none; stroke-dasharray: 0.5,2.5; stroke-dashoffset: 0; stroke: #cccccc; stroke-width: 0.5"/>
   </g>
   <g id="line2d_14">
    <path d="M 222.276719 122.400961 
L 668.676719 122.400961 
" clip-path="url(#pd3b4bfc917)" style="fill: none; stroke-dasharray: 0.5,2.5; stroke-dashoffset: 0; stroke: #cccccc; stroke-width: 0.5"/>
   </g>
   <g id="line2d_15">
    <path d="M 222.276719 89.623596 
L 668.676719 89.623596 
" clip-path="url(#pd3b4bfc917)" style="fill: none; stroke-dasharray: 0.5,2.5; stroke-dashoffset: 0; stroke: #cccccc; stroke-width: 0.5"/>
   </g>
   <g id="line2d_16">
    <path d="M 222.276719 56.84623 
L 668.676719 56.84623 
" clip-path="url(#pd3b4bfc917)" style="fill: none; stroke-dasharray: 0.5,2.5; stroke-dashoffset: 0; stroke: #cccccc; stroke-width: 0.5"/>
   </g>
   <g id="line2d_17">
    <path d="M 231.721686 381.014375 
L 231.721686 345.680375 
" clip-path="url(#pd3b4bfc917)" style="fill: none; stroke-dasharray: 1.85,0.8; stroke-dashoffset: 0; stroke: #bbbbbb; stroke-width: 0.5"/>
   </g>
   <g id="line2d_18">
    <path d="M 643.251509 381.014375 
L 643.251509 27.674375 
" clip-path="url(#pd3b4bfc917)" style="fill: none; stroke-dasharray: 1.85,0.8; stroke-dashoffset: 0; stroke: #bbbbbb; stroke-width: 0.5"/>
   </g>
   <g id="matplotlib.axis_1">
    <g id="xtick_1">
     <g id="line2d_19">
      <defs>
       <path id="m2e08b85fbb" d="M 0 0 
L 0 6 
" style="stroke: #262626; stroke-width: 0.8"/>
      </defs>
      <g>
       <use xlink:href="#m2e08b85fbb" x="281.827651" y="381.014375" style="fill: #262626; stroke: #262626; stroke-width: 0.8"/>
      </g>
     </g>
     <g id="text_1">
      <text style="fill: #262626; font: 13px 'sans-serif'; text-anchor: middle" x="281.827651" y="399.819531" transform="rotate(-0, 281.827651, 399.819531)">44000</text>
     </g>
    </g>
    <g id="xtick_2">
     <g id="line2d_20">
      <g>
       <use xlink:href="#m2e08b85fbb" x="344.973164" y="381.014375" style="fill: #262626; stroke: #262626; stroke-width: 0.8"/>
      </g>
     </g>
     <g id="text_2">
      <text style="fill: #262626; font: 13px 'sans-serif'; text-anchor: middle" x="344.973164" y="399.819531" transform="rotate(-0, 344.973164, 399.819531)">46000</text>
     </g>
    </g>
    <g id="xtick_3">
     <g id="line2d_21">
      <g>
       <use xlink:href="#m2e08b85fbb" x="408.118676" y="381.014375" style="fill: #262626; stroke: #262626; stroke-width: 0.8"/>
      </g>
     </g>
     <g id="text_3">
      <text style="fill: #262626; font: 13px 'sans-serif'; text-anchor: middle" x="408.118676" y="399.819531" transform="rotate(-0, 408.118676, 399.819531)">48000</text>
     </g>
    </g>
    <g id="xtick_4">
     <g id="line2d_22">
      <g>
       <use xlink:href="#m2e08b85fbb" x="471.264189" y="381.014375" style="fill: #262626; stroke: #262626; stroke-width: 0.8"/>
      </g>
     </g>
     <g id="text_4">
      <text style="fill: #262626; font: 13px 'sans-serif'; text-anchor: middle" x="471.264189" y="399.819531" transform="rotate(-0, 471.264189, 399.819531)">50000</text>
     </g>
    </g>
    <g id="xtick_5">
     <g id="line2d_23">
      <g>
       <use xlink:href="#m2e08b85fbb" x="534.409702" y="381.014375" style="fill: #262626; stroke: #262626; stroke-width: 0.8"/>
      </g>
     </g>
     <g id="text_5">
      <text style="fill: #262626; font: 13px 'sans-serif'; text-anchor: middle" x="534.409702" y="399.819531" transform="rotate(-0, 534.409702, 399.819531)">52000</text>
     </g>
    </g>
    <g id="xtick_6">
     <g id="line2d_24">
      <g>
       <use xlink:href="#m2e08b85fbb" x="597.555215" y="381.014375" style="fill: #262626; stroke: #262626; stroke-width: 0.8"/>
      </g>
     </g>
     <g id="text_6">
      <text style="fill: #262626; font: 13px 'sans-serif'; text-anchor: middle" x="597.555215" y="399.819531" transform="rotate(-0, 597.555215, 399.819531)">54000</text>
     </g>
    </g>
    <g id="xtick_7">
     <g id="line2d_25">
      <g>
       <use xlink:href="#m2e08b85fbb" x="660.700728" y="381.014375" style="fill: #262626; stroke: #262626; stroke-width: 0.8"/>
      </g>
     </g>
     <g id="text_7">
      <text style="fill: #262626; font: 13px 'sans-serif'; text-anchor: middle" x="660.700728" y="399.819531" transform="rotate(-0, 660.700728, 399.819531)">56000</text>
     </g>
    </g>
   </g>
   <g id="matplotlib.axis_2">
    <g id="ytick_1">
     <g id="text_8">
      <text style="fill: #999999; font: 13px 'sans-serif'; text-anchor: end" x="212.776719" y="356.574317" transform="rotate(-0, 212.776719, 356.574317)">0.405 = TG 18:1_22:6_22:6</text>
     </g>
    </g>
    <g id="ytick_2">
     <g id="text_9">
      <text style="fill: #999999; font: 13px 'sans-serif'; text-anchor: end" x="212.776719" y="323.796951" transform="rotate(-0, 212.776719, 323.796951)">0.523 = TG 20:5_22:6_22:6</text>
     </g>
    </g>
    <g id="ytick_3">
     <g id="text_10">
      <text style="fill: #999999; font: 13px 'sans-serif'; text-anchor: end" x="212.776719" y="290.940367" transform="rotate(-0, 212.776719, 290.940367)">−0.294 = FA 18:0</text>
     </g>
    </g>
    <g id="ytick_4">
     <g id="text_11">
      <text style="fill: #999999; font: 13px 'sans-serif'; text-anchor: end" x="212.776719" y="258.163001" transform="rotate(-0, 212.776719, 258.163001)">0.46 = CE 18:1</text>
     </g>
    </g>
    <g id="ytick_5">
     <g id="text_12">
      <text style="fill: #999999; font: 13px 'sans-serif'; text-anchor: end" x="212.776719" y="225.464855" transform="rotate(-0, 212.776719, 225.464855)">0.676 = 4-Guanidinobutyric acid</text>
     </g>
    </g>
    <g id="ytick_6">
     <g id="text_13">
      <text style="fill: #999999; font: 13px 'sans-serif'; text-anchor: end" x="212.776719" y="192.60827" transform="rotate(-0, 212.776719, 192.60827)">1.215 = PC 36:3</text>
     </g>
    </g>
    <g id="ytick_7">
     <g id="text_14">
      <text style="fill: #999999; font: 13px 'sans-serif'; text-anchor: end" x="212.776719" y="159.830905" transform="rotate(-0, 212.776719, 159.830905)">1.11 = SM d37:1</text>
     </g>
    </g>
    <g id="ytick_8">
     <g id="text_15">
      <text style="fill: #999999; font: 13px 'sans-serif'; text-anchor: end" x="212.776719" y="127.136821" transform="rotate(-0, 212.776719, 127.136821)">0.876 = Plasmanyl-PC O-20:0_20:4</text>
     </g>
    </g>
    <g id="ytick_9">
     <g id="text_16">
      <text style="fill: #999999; font: 13px 'sans-serif'; text-anchor: end" x="212.776719" y="94.355393" transform="rotate(-0, 212.776719, 94.355393)">0.455 = TG 22:6_22:6_22:6</text>
     </g>
    </g>
    <g id="ytick_10">
     <g id="text_17">
      <text style="fill: #999999; font: 13px 'sans-serif'; text-anchor: end" x="212.776719" y="61.498808" transform="rotate(-0, 212.776719, 61.498808)">−2.133 = PC 38:7</text>
     </g>
    </g>
    <g id="ytick_11">
     <g id="text_18">
      <text style="fill: #262626; font: 13px 'sans-serif'; text-anchor: end" x="212.776719" y="356.574316" transform="rotate(-0, 212.776719, 356.574316)"> TG 18:1_22:6_22:6</text>
     </g>
    </g>
    <g id="ytick_12">
     <g id="text_19">
      <text style="fill: #262626; font: 13px 'sans-serif'; text-anchor: end" x="212.776719" y="323.796951" transform="rotate(-0, 212.776719, 323.796951)"> TG 20:5_22:6_22:6</text>
     </g>
    </g>
    <g id="ytick_13">
     <g id="text_20">
      <text style="fill: #262626; font: 13px 'sans-serif'; text-anchor: end" x="212.776719" y="290.940367" transform="rotate(-0, 212.776719, 290.940367)"> FA 18:0</text>
     </g>
    </g>
    <g id="ytick_14">
     <g id="text_21">
      <text style="fill: #262626; font: 13px 'sans-serif'; text-anchor: end" x="212.776719" y="258.163001" transform="rotate(-0, 212.776719, 258.163001)"> CE 18:1</text>
     </g>
    </g>
    <g id="ytick_15">
     <g id="text_22">
      <text style="fill: #262626; font: 13px 'sans-serif'; text-anchor: end" x="212.776719" y="225.464854" transform="rotate(-0, 212.776719, 225.464854)"> 4-Guanidinobutyric acid</text>
     </g>
    </g>
    <g id="ytick_16">
     <g id="text_23">
      <text style="fill: #262626; font: 13px 'sans-serif'; text-anchor: end" x="212.776719" y="192.60827" transform="rotate(-0, 212.776719, 192.60827)"> PC 36:3</text>
     </g>
    </g>
    <g id="ytick_17">
     <g id="text_24">
      <text style="fill: #262626; font: 13px 'sans-serif'; text-anchor: end" x="212.776719" y="159.830905" transform="rotate(-0, 212.776719, 159.830905)"> SM d37:1</text>
     </g>
    </g>
    <g id="ytick_18">
     <g id="text_25">
      <text style="fill: #262626; font: 13px 'sans-serif'; text-anchor: end" x="212.776719" y="127.13682" transform="rotate(-0, 212.776719, 127.13682)"> Plasmanyl-PC O-20:0_20:4</text>
     </g>
    </g>
    <g id="ytick_19">
     <g id="text_26">
      <text style="fill: #262626; font: 13px 'sans-serif'; text-anchor: end" x="212.776719" y="94.355392" transform="rotate(-0, 212.776719, 94.355392)"> TG 22:6_22:6_22:6</text>
     </g>
    </g>
    <g id="ytick_20">
     <g id="text_27">
      <text style="fill: #262626; font: 13px 'sans-serif'; text-anchor: end" x="212.776719" y="61.498808" transform="rotate(-0, 212.776719, 61.498808)"> PC 38:7</text>
     </g>
    </g>
   </g>
   <g id="patch_3">
    <path d="M 546.611317 69.957176 
L 647.419576 69.957176 
L 647.419576 43.735284 
L 546.611317 43.735284 
L 546.611317 69.957176 
z
" clip-path="url(#pd3b4bfc917)" style="fill: none; opacity: 0"/>
   </g>
   <g id="patch_4">
    <path d="M 471.608767 102.734542 
L 554.947451 102.734542 
L 554.947451 76.51265 
L 471.608767 76.51265 
L 471.608767 102.734542 
z
" clip-path="url(#pd3b4bfc917)" style="fill: none; opacity: 0"/>
   </g>
   <g id="patch_5">
    <path d="M 399.406161 135.511907 
L 479.944902 135.511907 
L 479.944902 109.290015 
L 399.406161 109.290015 
L 399.406161 135.511907 
z
" clip-path="url(#pd3b4bfc917)" style="fill: none; opacity: 0"/>
   </g>
   <g id="patch_6">
    <path d="M 328.388233 168.289273 
L 407.742296 168.289273 
L 407.742296 142.067381 
L 328.388233 142.067381 
L 328.388233 168.289273 
z
" clip-path="url(#pd3b4bfc917)" style="fill: none; opacity: 0"/>
   </g>
   <g id="patch_7">
    <path d="M 260.812238 201.066638 
L 336.724367 201.066638 
L 336.724367 174.844746 
L 260.812238 174.844746 
L 260.812238 201.066638 
z
" clip-path="url(#pd3b4bfc917)" style="fill: none; opacity: 0"/>
   </g>
   <g id="patch_8">
    <path d="M 222.276719 233.844004 
L 269.148373 233.844004 
L 269.148373 207.622112 
L 222.276719 207.622112 
L 222.276719 233.844004 
z
" clip-path="url(#pd3b4bfc917)" style="fill: none; opacity: 0"/>
   </g>
   <g id="patch_9">
    <path d="M 225.059863 299.398735 
L 254.868639 299.398735 
L 254.868639 273.176843 
L 225.059863 273.176843 
L 225.059863 299.398735 
z
" clip-path="url(#pd3b4bfc917)" style="fill: none; opacity: 0"/>
   </g>
   <g id="patch_10">
    <path d="M 227.553619 364.953466 
L 240.315397 364.953466 
L 240.315397 338.731574 
L 227.553619 338.731574 
L 227.553619 364.953466 
z
" clip-path="url(#pd3b4bfc917)" style="fill: none; opacity: 0"/>
   </g>
   <g id="patch_11">
    <path d="M 254.868639 266.621369 
L 222.276719 266.621369 
L 222.276719 240.399477 
L 254.868639 240.399477 
L 254.868639 266.621369 
z
" clip-path="url(#pd3b4bfc917)" style="fill: none; opacity: 0"/>
   </g>
   <g id="patch_12">
    <path d="M 240.315397 332.1761 
L 225.059863 332.1761 
L 225.059863 305.954208 
L 240.315397 305.954208 
L 240.315397 332.1761 
z
" clip-path="url(#pd3b4bfc917)" style="fill: none; opacity: 0"/>
   </g>
   <g id="patch_13">
    <path d="M 643.251509 56.84623 
L 637.491509 69.957176 
L 637.491509 69.957176 
L 550.779384 69.957176 
L 550.779384 43.735284 
L 637.491509 43.735284 
L 637.491509 43.735284 
z
" clip-path="url(#pd3b4bfc917)" style="fill: #ff0051; stroke: #ff0051; stroke-linejoin: miter"/>
   </g>
   <g id="patch_14">
    <path d="M 550.779384 89.623596 
L 545.019384 102.734542 
L 545.019384 102.734542 
L 475.776835 102.734542 
L 475.776835 76.51265 
L 545.019384 76.51265 
L 545.019384 76.51265 
z
" clip-path="url(#pd3b4bfc917)" style="fill: #ff0051; stroke: #ff0051; stroke-linejoin: miter"/>
   </g>
   <g id="patch_15">
    <path d="M 475.776835 122.400961 
L 470.016835 135.511907 
L 470.016835 135.511907 
L 403.574229 135.511907 
L 403.574229 109.290015 
L 470.016835 109.290015 
L 470.016835 109.290015 
z
" clip-path="url(#pd3b4bfc917)" style="fill: #ff0051; stroke: #ff0051; stroke-linejoin: miter"/>
   </g>
   <g id="patch_16">
    <path d="M 403.574229 155.178327 
L 397.814229 168.289273 
L 397.814229 168.289273 
L 332.5563 168.289273 
L 332.5563 142.067381 
L 397.814229 142.067381 
L 397.814229 142.067381 
z
" clip-path="url(#pd3b4bfc917)" style="fill: #ff0051; stroke: #ff0051; stroke-linejoin: miter"/>
   </g>
   <g id="patch_17">
    <path d="M 332.5563 187.955692 
L 326.7963 201.066638 
L 326.7963 201.066638 
L 264.980306 201.066638 
L 264.980306 174.844746 
L 326.7963 174.844746 
L 326.7963 174.844746 
z
" clip-path="url(#pd3b4bfc917)" style="fill: #ff0051; stroke: #ff0051; stroke-linejoin: miter"/>
   </g>
   <g id="patch_18">
    <path d="M 264.980306 220.733058 
L 259.220306 233.844004 
L 259.220306 233.844004 
L 226.444786 233.844004 
L 226.444786 207.622112 
L 259.220306 207.622112 
L 259.220306 207.622112 
z
" clip-path="url(#pd3b4bfc917)" style="fill: #ff0051; stroke: #ff0051; stroke-linejoin: miter"/>
   </g>
   <g id="patch_19">
    <path d="M 250.700572 286.287789 
L 244.940572 299.398735 
L 244.940572 299.398735 
L 229.22793 299.398735 
L 229.22793 273.176843 
L 244.940572 273.176843 
L 244.940572 273.176843 
z
" clip-path="url(#pd3b4bfc917)" style="fill: #ff0051; stroke: #ff0051; stroke-linejoin: miter"/>
   </g>
   <g id="patch_20">
    <path d="M 236.14733 351.84252 
L 231.721686 364.953466 
L 231.721686 364.953466 
L 231.721686 364.953466 
L 231.721686 338.731574 
L 231.721686 338.731574 
L 231.721686 338.731574 
z
" clip-path="url(#pd3b4bfc917)" style="fill: #ff0051; stroke: #ff0051; stroke-linejoin: miter"/>
   </g>
   <g id="patch_21">
    <path d="M 226.444786 253.510423 
L 232.204786 240.399477 
L 232.204786 240.399477 
L 250.700572 240.399477 
L 250.700572 266.621369 
L 232.204786 266.621369 
L 232.204786 266.621369 
z
" clip-path="url(#pd3b4bfc917)" style="fill: #008bfb; stroke: #008bfb; stroke-linejoin: miter"/>
   </g>
   <g id="patch_22">
    <path d="M 229.22793 319.065154 
L 234.98793 305.954208 
L 234.98793 305.954208 
L 236.14733 305.954208 
L 236.14733 332.1761 
L 234.98793 332.1761 
L 234.98793 332.1761 
z
" clip-path="url(#pd3b4bfc917)" style="fill: #008bfb; stroke: #008bfb; stroke-linejoin: miter"/>
   </g>
   <g id="patch_23">
    <path d="M 222.276719 381.014375 
L 668.676719 381.014375 
" style="fill: none; stroke: #262626; stroke-width: 1.25; stroke-linejoin: miter; stroke-linecap: square"/>
   </g>
   <g id="text_28">
    <text style="fill: #ffffff; font: 12px 'sans-serif'; text-anchor: middle" x="597.015446" y="59.948418" transform="rotate(-0, 597.015446, 59.948418)">+2928.86</text>
   </g>
   <g id="text_29">
    <text style="fill: #ffffff; font: 12px 'sans-serif'; text-anchor: middle" x="513.278109" y="92.725783" transform="rotate(-0, 513.278109, 92.725783)">+2375.55</text>
   </g>
   <g id="text_30">
    <text style="fill: #ffffff; font: 12px 'sans-serif'; text-anchor: middle" x="439.675532" y="125.503149" transform="rotate(-0, 439.675532, 125.503149)">+2286.86</text>
   </g>
   <g id="text_31">
    <text style="fill: #ffffff; font: 12px 'sans-serif'; text-anchor: middle" x="368.065264" y="158.280514" transform="rotate(-0, 368.065264, 158.280514)">+2249.34</text>
   </g>
   <g id="text_32">
    <text style="fill: #ffffff; font: 12px 'sans-serif'; text-anchor: middle" x="298.768303" y="191.05788" transform="rotate(-0, 298.768303, 191.05788)">+2140.33</text>
   </g>
   <g id="text_33">
    <text style="fill: #ff0051; font: 12px 'sans-serif'; text-anchor: start" x="269.980306" y="223.835245" transform="rotate(-0, 269.980306, 223.835245)">+1220.53</text>
   </g>
   <g id="text_34">
    <text style="fill: #ff0051; font: 12px 'sans-serif'; text-anchor: start" x="255.700572" y="289.389976" transform="rotate(-0, 255.700572, 289.389976)">+680.1</text>
   </g>
   <g id="text_35">
    <text style="fill: #ff0051; font: 12px 'sans-serif'; text-anchor: start" x="241.14733" y="354.944707" transform="rotate(-0, 241.14733, 354.944707)">+140.17</text>
   </g>
   <g id="text_36">
    <text style="fill: #008bfb; font: 12px 'sans-serif'; text-anchor: end" x="221.444786" y="256.612611" transform="rotate(-0, 221.444786, 256.612611)">−768.25</text>
   </g>
   <g id="text_37">
    <text style="fill: #008bfb; font: 12px 'sans-serif'; text-anchor: end" x="224.22793" y="322.167342" transform="rotate(-0, 224.22793, 322.167342)">−219.16</text>
   </g>
  </g>
  <g id="axes_2">
   <g id="matplotlib.axis_3">
    <g id="xtick_8">
     <g id="line2d_26">
      <g>
       <use xlink:href="#m2e08b85fbb" x="231.721686" y="381.014375" style="fill: #262626; stroke: #262626; stroke-width: 0.8"/>
      </g>
     </g>
     <g id="text_38">
      <text style="fill: #262626; font: 12px 'sans-serif'" transform="translate(211.721686 399.10375)"/>
      <!-- $E[f(X)]$ -->
      <g style="fill: #262626" transform="translate(211.721686 411.796)">
       <text>
        <tspan style="font: oblique 12px 'DejaVu Sans'" x="0 12.263672 21.169922" y="-0.875">EfX</tspan>
        <tspan style="font: 12px 'DejaVu Sans'" x="7.582031 16.488281 29.390625 34.072266" y="-0.875">[()]</tspan>
       </text>
      </g>
     </g>
    </g>
    <g id="xtick_9">
     <g id="line2d_27">
      <g>
       <use xlink:href="#m2e08b85fbb" x="231.721686" y="381.014375" style="fill: #262626; stroke: #262626; stroke-width: 0.8"/>
      </g>
     </g>
     <g id="text_39">
      <text style="fill: #999999; font: 12px 'sans-serif'" transform="translate(253.721686 400.10375)"/>
      <!-- $ = 42413$ -->
      <g style="fill: #999999" transform="translate(253.721686 412.796)">
       <text>
        <tspan style="font: 12px 'DejaVu Sans'" x="2.337891 14.730469 22.365234 30 37.634766 45.269531" y="-0.09375">=42413</tspan>
       </text>
      </g>
     </g>
    </g>
   </g>
   <g id="patch_24">
    <path d="M 222.276719 381.014375 
L 668.676719 381.014375 
" style="fill: none; stroke: #262626; stroke-width: 1.25; stroke-linejoin: miter; stroke-linecap: square"/>
   </g>
  </g>
  <g id="axes_3">
   <g id="matplotlib.axis_4">
    <g id="xtick_10">
     <g id="line2d_28">
      <defs>
       <path id="m7d2f4b4cf8" d="M 0 0 
L 0 -6 
" style="stroke: #262626; stroke-width: 0.8"/>
      </defs>
      <g>
       <use xlink:href="#m7d2f4b4cf8" x="643.251509" y="27.674375" style="fill: #262626; stroke: #262626; stroke-width: 0.8"/>
      </g>
     </g>
     <g id="text_40">
      <!-- $f(x)$ -->
      <g style="fill: #262626" transform="translate(633.251509 15.789375)">
       <text>
        <tspan style="font: oblique 12px 'DejaVu Sans'" x="0 8.90625" y="-0.875">fx</tspan>
        <tspan style="font: 12px 'DejaVu Sans'" x="4.224609 16.007812" y="-0.875">()</tspan>
       </text>
      </g>
     </g>
    </g>
    <g id="xtick_11">
     <g id="line2d_29">
      <g>
       <use xlink:href="#m7d2f4b4cf8" x="643.251509" y="27.674375" style="fill: #262626; stroke: #262626; stroke-width: 0.8"/>
      </g>
     </g>
     <g id="text_41">
      <!-- $ = 55447.333$ -->
      <g style="fill: #999999" transform="translate(655.251509 15.789375)">
       <text>
        <tspan style="font: 12px 'DejaVu Sans'" x="2.337891 14.730469 22.365234 30 37.634766 45.269531 52.904297 56.71875 64.353516 71.988281" y="-0.09375">=55447.333</tspan>
       </text>
      </g>
     </g>
    </g>
   </g>
   <g id="patch_25">
    <path d="M 222.276719 381.014375 
L 668.676719 381.014375 
" style="fill: none; stroke: #262626; stroke-width: 1.25; stroke-linejoin: miter; stroke-linecap: square"/>
   </g>
   <g id="text_42">
    <text style="fill: #262626; font: 15px 'sans-serif'; text-anchor: start" x="668.676719" y="60.027125" transform="rotate(-0, 668.676719, 60.027125)">55007.5</text>
   </g>
  </g>
 </g>
 <defs>
  <clipPath id="pd3b4bfc917">
   <rect x="222.276719" y="27.674375" width="446.4" height="353.34"/>
  </clipPath>
 </defs>
</svg>
