<?xml version="1.0" encoding="utf-8" standalone="no"?>
<!DOCTYPE svg PUBLIC "-//W3C//DTD SVG 1.1//EN"
  "http://www.w3.org/Graphics/SVG/1.1/DTD/svg11.dtd">
<svg xmlns:xlink="http://www.w3.org/1999/xlink" width="749.364321pt" height="422.381pt" viewBox="0 0 749.364321 422.381" xmlns="http://www.w3.org/2000/svg" version="1.1">
 <metadata>
  <rdf:RDF xmlns:dc="http://purl.org/dc/elements/1.1/" xmlns:cc="http://creativecommons.org/ns#" xmlns:rdf="http://www.w3.org/1999/02/22-rdf-syntax-ns#">
   <cc:Work>
    <dc:type rdf:resource="http://purl.org/dc/dcmitype/StillImage"/>
    <dc:date>2022-10-11T11:06:15.021415</dc:date>
    <dc:format>image/svg+xml</dc:format>
    <dc:creator>
     <cc:Agent>
      <dc:title>Matplotlib v3.5.2, https://matplotlib.org/</dc:title>
     </cc:Agent>
    </dc:creator>
   </cc:Work>
  </rdf:RDF>
 </metadata>
 <defs>
  <style type="text/css">*{stroke-linejoin: round; stroke-linecap: butt}</style>
 </defs>
 <g id="figure_1">
  <g id="patch_1">
   <path d="M 0 422.381 
L 749.364321 422.381 
L 749.364321 0 
L 0 0 
z
" style="fill: #ffffff"/>
  </g>
  <g id="axes_1">
   <g id="patch_2">
    <path d="M 229.869531 381.014375 
L 676.269531 381.014375 
L 676.269531 27.674375 
L 229.869531 27.674375 
z
" style="fill: #ffffff"/>
   </g>
   <g id="line2d_1">
    <path d="M 340.803316 102.734542 
L 340.803316 43.735284 
" clip-path="url(#pfc10aec0d1)" style="fill: none; stroke-dasharray: 1.85,0.8; stroke-dashoffset: 0; stroke: #bbbbbb; stroke-width: 0.5"/>
   </g>
   <g id="line2d_2">
    <path d="M 234.037598 135.511907 
L 234.037598 76.51265 
" clip-path="url(#pfc10aec0d1)" style="fill: none; stroke-dasharray: 1.85,0.8; stroke-dashoffset: 0; stroke: #bbbbbb; stroke-width: 0.5"/>
   </g>
   <g id="line2d_3">
    <path d="M 295.817498 168.289273 
L 295.817498 109.290015 
" clip-path="url(#pfc10aec0d1)" style="fill: none; stroke-dasharray: 1.85,0.8; stroke-dashoffset: 0; stroke: #bbbbbb; stroke-width: 0.5"/>
   </g>
   <g id="line2d_4">
    <path d="M 332.313581 201.066638 
L 332.313581 142.067381 
" clip-path="url(#pfc10aec0d1)" style="fill: none; stroke-dasharray: 1.85,0.8; stroke-dashoffset: 0; stroke: #bbbbbb; stroke-width: 0.5"/>
   </g>
   <g id="line2d_5">
    <path d="M 360.933135 233.844004 
L 360.933135 174.844746 
" clip-path="url(#pfc10aec0d1)" style="fill: none; stroke-dasharray: 1.85,0.8; stroke-dashoffset: 0; stroke: #bbbbbb; stroke-width: 0.5"/>
   </g>
   <g id="line2d_6">
    <path d="M 339.766424 266.621369 
L 339.766424 207.622112 
" clip-path="url(#pfc10aec0d1)" style="fill: none; stroke-dasharray: 1.85,0.8; stroke-dashoffset: 0; stroke: #bbbbbb; stroke-width: 0.5"/>
   </g>
   <g id="line2d_7">
    <path d="M 229.869531 351.84252 
L 676.269531 351.84252 
" clip-path="url(#pfc10aec0d1)" style="fill: none; stroke-dasharray: 0.5,2.5; stroke-dashoffset: 0; stroke: #cccccc; stroke-width: 0.5"/>
   </g>
   <g id="line2d_8">
    <path d="M 229.869531 319.065154 
L 676.269531 319.065154 
" clip-path="url(#pfc10aec0d1)" style="fill: none; stroke-dasharray: 0.5,2.5; stroke-dashoffset: 0; stroke: #cccccc; stroke-width: 0.5"/>
   </g>
   <g id="line2d_9">
    <path d="M 229.869531 286.287789 
L 676.269531 286.287789 
" clip-path="url(#pfc10aec0d1)" style="fill: none; stroke-dasharray: 0.5,2.5; stroke-dashoffset: 0; stroke: #cccccc; stroke-width: 0.5"/>
   </g>
   <g id="line2d_10">
    <path d="M 229.869531 253.510423 
L 676.269531 253.510423 
" clip-path="url(#pfc10aec0d1)" style="fill: none; stroke-dasharray: 0.5,2.5; stroke-dashoffset: 0; stroke: #cccccc; stroke-width: 0.5"/>
   </g>
   <g id="line2d_11">
    <path d="M 229.869531 220.733058 
L 676.269531 220.733058 
" clip-path="url(#pfc10aec0d1)" style="fill: none; stroke-dasharray: 0.5,2.5; stroke-dashoffset: 0; stroke: #cccccc; stroke-width: 0.5"/>
   </g>
   <g id="line2d_12">
    <path d="M 229.869531 187.955692 
L 676.269531 187.955692 
" clip-path="url(#pfc10aec0d1)" style="fill: none; stroke-dasharray: 0.5,2.5; stroke-dashoffset: 0; stroke: #cccccc; stroke-width: 0.5"/>
   </g>
   <g id="line2d_13">
    <path d="M 229.869531 155.178327 
L 676.269531 155.178327 
" clip-path="url(#pfc10aec0d1)" style="fill: none; stroke-dasharray: 0.5,2.5; stroke-dashoffset: 0; stroke: #cccccc; stroke-width: 0.5"/>
   </g>
   <g id="line2d_14">
    <path d="M 229.869531 122.400961 
L 676.269531 122.400961 
" clip-path="url(#pfc10aec0d1)" style="fill: none; stroke-dasharray: 0.5,2.5; stroke-dashoffset: 0; stroke: #cccccc; stroke-width: 0.5"/>
   </g>
   <g id="line2d_15">
    <path d="M 229.869531 89.623596 
L 676.269531 89.623596 
" clip-path="url(#pfc10aec0d1)" style="fill: none; stroke-dasharray: 0.5,2.5; stroke-dashoffset: 0; stroke: #cccccc; stroke-width: 0.5"/>
   </g>
   <g id="line2d_16">
    <path d="M 229.869531 56.84623 
L 676.269531 56.84623 
" clip-path="url(#pfc10aec0d1)" style="fill: none; stroke-dasharray: 0.5,2.5; stroke-dashoffset: 0; stroke: #cccccc; stroke-width: 0.5"/>
   </g>
   <g id="line2d_17">
    <path d="M 312.093932 381.014375 
L 312.093932 345.680375 
" clip-path="url(#pfc10aec0d1)" style="fill: none; stroke-dasharray: 1.85,0.8; stroke-dashoffset: 0; stroke: #bbbbbb; stroke-width: 0.5"/>
   </g>
   <g id="line2d_18">
    <path d="M 650.844321 381.014375 
L 650.844321 27.674375 
" clip-path="url(#pfc10aec0d1)" style="fill: none; stroke-dasharray: 1.85,0.8; stroke-dashoffset: 0; stroke: #bbbbbb; stroke-width: 0.5"/>
   </g>
   <g id="matplotlib.axis_1">
    <g id="xtick_1">
     <g id="line2d_19">
      <defs>
       <path id="m240200d54c" d="M 0 0 
L 0 6 
" style="stroke: #262626; stroke-width: 0.8"/>
      </defs>
      <g>
       <use xlink:href="#m240200d54c" x="285.606377" y="381.014375" style="fill: #262626; stroke: #262626; stroke-width: 0.8"/>
      </g>
     </g>
     <g id="text_1">
      <text style="fill: #262626; font: 13px 'sans-serif'; text-anchor: middle" x="285.606377" y="399.819531" transform="rotate(-0, 285.606377, 399.819531)">42000</text>
     </g>
    </g>
    <g id="xtick_2">
     <g id="line2d_20">
      <g>
       <use xlink:href="#m240200d54c" x="349.740893" y="381.014375" style="fill: #262626; stroke: #262626; stroke-width: 0.8"/>
      </g>
     </g>
     <g id="text_2">
      <text style="fill: #262626; font: 13px 'sans-serif'; text-anchor: middle" x="349.740893" y="399.819531" transform="rotate(-0, 349.740893, 399.819531)">43000</text>
     </g>
    </g>
    <g id="xtick_3">
     <g id="line2d_21">
      <g>
       <use xlink:href="#m240200d54c" x="413.875408" y="381.014375" style="fill: #262626; stroke: #262626; stroke-width: 0.8"/>
      </g>
     </g>
     <g id="text_3">
      <text style="fill: #262626; font: 13px 'sans-serif'; text-anchor: middle" x="413.875408" y="399.819531" transform="rotate(-0, 413.875408, 399.819531)">44000</text>
     </g>
    </g>
    <g id="xtick_4">
     <g id="line2d_22">
      <g>
       <use xlink:href="#m240200d54c" x="478.009924" y="381.014375" style="fill: #262626; stroke: #262626; stroke-width: 0.8"/>
      </g>
     </g>
     <g id="text_4">
      <text style="fill: #262626; font: 13px 'sans-serif'; text-anchor: middle" x="478.009924" y="399.819531" transform="rotate(-0, 478.009924, 399.819531)">45000</text>
     </g>
    </g>
    <g id="xtick_5">
     <g id="line2d_23">
      <g>
       <use xlink:href="#m240200d54c" x="542.14444" y="381.014375" style="fill: #262626; stroke: #262626; stroke-width: 0.8"/>
      </g>
     </g>
     <g id="text_5">
      <text style="fill: #262626; font: 13px 'sans-serif'; text-anchor: middle" x="542.14444" y="399.819531" transform="rotate(-0, 542.14444, 399.819531)">46000</text>
     </g>
    </g>
    <g id="xtick_6">
     <g id="line2d_24">
      <g>
       <use xlink:href="#m240200d54c" x="606.278956" y="381.014375" style="fill: #262626; stroke: #262626; stroke-width: 0.8"/>
      </g>
     </g>
     <g id="text_6">
      <text style="fill: #262626; font: 13px 'sans-serif'; text-anchor: middle" x="606.278956" y="399.819531" transform="rotate(-0, 606.278956, 399.819531)">47000</text>
     </g>
    </g>
    <g id="xtick_7">
     <g id="line2d_25">
      <g>
       <use xlink:href="#m240200d54c" x="670.413472" y="381.014375" style="fill: #262626; stroke: #262626; stroke-width: 0.8"/>
      </g>
     </g>
     <g id="text_7">
      <text style="fill: #262626; font: 13px 'sans-serif'; text-anchor: middle" x="670.413472" y="399.819531" transform="rotate(-0, 670.413472, 399.819531)">48000</text>
     </g>
    </g>
   </g>
   <g id="matplotlib.axis_2">
    <g id="ytick_1">
     <g id="text_8">
      <text style="fill: #999999; font: 13px 'sans-serif'; text-anchor: end" x="220.369531" y="356.574317" transform="rotate(-0, 220.369531, 356.574317)">0.069 = 4-Guanidinobutyric acid</text>
     </g>
    </g>
    <g id="ytick_2">
     <g id="text_9">
      <text style="fill: #999999; font: 13px 'sans-serif'; text-anchor: end" x="220.369531" y="323.801014" transform="rotate(-0, 220.369531, 323.801014)">−0.076 = Plasmanyl-PC O-20:0_20:4</text>
     </g>
    </g>
    <g id="ytick_3">
     <g id="text_10">
      <text style="fill: #999999; font: 13px 'sans-serif'; text-anchor: end" x="220.369531" y="290.940367" transform="rotate(-0, 220.369531, 290.940367)">−0.088 = FA 18:0</text>
     </g>
    </g>
    <g id="ytick_4">
     <g id="text_11">
      <text style="fill: #999999; font: 13px 'sans-serif'; text-anchor: end" x="220.369531" y="258.24222" transform="rotate(-0, 220.369531, 258.24222)">0.87 = TG 18:1_22:6_22:6</text>
     </g>
    </g>
    <g id="ytick_5">
     <g id="text_12">
      <text style="fill: #999999; font: 13px 'sans-serif'; text-anchor: end" x="220.369531" y="225.385636" transform="rotate(-0, 220.369531, 225.385636)">−0.198 = CE 18:1</text>
     </g>
    </g>
    <g id="ytick_6">
     <g id="text_13">
      <text style="fill: #999999; font: 13px 'sans-serif'; text-anchor: end" x="220.369531" y="192.687489" transform="rotate(-0, 220.369531, 192.687489)">1.064 = TG 20:5_22:6_22:6</text>
     </g>
    </g>
    <g id="ytick_7">
     <g id="text_14">
      <text style="fill: #999999; font: 13px 'sans-serif'; text-anchor: end" x="220.369531" y="159.830905" transform="rotate(-0, 220.369531, 159.830905)">0.414 = PC 38:7</text>
     </g>
    </g>
    <g id="ytick_8">
     <g id="text_15">
      <text style="fill: #999999; font: 13px 'sans-serif'; text-anchor: end" x="220.369531" y="127.053539" transform="rotate(-0, 220.369531, 127.053539)">−0.547 = PC 36:3</text>
     </g>
    </g>
    <g id="ytick_9">
     <g id="text_16">
      <text style="fill: #999999; font: 13px 'sans-serif'; text-anchor: end" x="220.369531" y="94.276174" transform="rotate(-0, 220.369531, 94.276174)">0.822 = SM d37:1</text>
     </g>
    </g>
    <g id="ytick_10">
     <g id="text_17">
      <text style="fill: #999999; font: 13px 'sans-serif'; text-anchor: end" x="220.369531" y="61.578027" transform="rotate(-0, 220.369531, 61.578027)">0.926 = TG 22:6_22:6_22:6</text>
     </g>
    </g>
    <g id="ytick_11">
     <g id="text_18">
      <text style="fill: #262626; font: 13px 'sans-serif'; text-anchor: end" x="220.369531" y="356.574316" transform="rotate(-0, 220.369531, 356.574316)"> 4-Guanidinobutyric acid</text>
     </g>
    </g>
    <g id="ytick_12">
     <g id="text_19">
      <text style="fill: #262626; font: 13px 'sans-serif'; text-anchor: end" x="220.369531" y="323.801013" transform="rotate(-0, 220.369531, 323.801013)"> Plasmanyl-PC O-20:0_20:4</text>
     </g>
    </g>
    <g id="ytick_13">
     <g id="text_20">
      <text style="fill: #262626; font: 13px 'sans-serif'; text-anchor: end" x="220.369531" y="290.940367" transform="rotate(-0, 220.369531, 290.940367)"> FA 18:0</text>
     </g>
    </g>
    <g id="ytick_14">
     <g id="text_21">
      <text style="fill: #262626; font: 13px 'sans-serif'; text-anchor: end" x="220.369531" y="258.24222" transform="rotate(-0, 220.369531, 258.24222)"> TG 18:1_22:6_22:6</text>
     </g>
    </g>
    <g id="ytick_15">
     <g id="text_22">
      <text style="fill: #262626; font: 13px 'sans-serif'; text-anchor: end" x="220.369531" y="225.385636" transform="rotate(-0, 220.369531, 225.385636)"> CE 18:1</text>
     </g>
    </g>
    <g id="ytick_16">
     <g id="text_23">
      <text style="fill: #262626; font: 13px 'sans-serif'; text-anchor: end" x="220.369531" y="192.687489" transform="rotate(-0, 220.369531, 192.687489)"> TG 20:5_22:6_22:6</text>
     </g>
    </g>
    <g id="ytick_17">
     <g id="text_24">
      <text style="fill: #262626; font: 13px 'sans-serif'; text-anchor: end" x="220.369531" y="159.830905" transform="rotate(-0, 220.369531, 159.830905)"> PC 38:7</text>
     </g>
    </g>
    <g id="ytick_18">
     <g id="text_25">
      <text style="fill: #262626; font: 13px 'sans-serif'; text-anchor: end" x="220.369531" y="127.053539" transform="rotate(-0, 220.369531, 127.053539)"> PC 36:3</text>
     </g>
    </g>
    <g id="ytick_19">
     <g id="text_26">
      <text style="fill: #262626; font: 13px 'sans-serif'; text-anchor: end" x="220.369531" y="94.276174" transform="rotate(-0, 220.369531, 94.276174)"> SM d37:1</text>
     </g>
    </g>
    <g id="ytick_20">
     <g id="text_27">
      <text style="fill: #262626; font: 13px 'sans-serif'; text-anchor: end" x="220.369531" y="61.578027" transform="rotate(-0, 220.369531, 61.578027)"> TG 22:6_22:6_22:6</text>
     </g>
    </g>
   </g>
   <g id="patch_3">
    <path d="M 336.635249 69.957176 
L 655.012388 69.957176 
L 655.012388 43.735284 
L 336.635249 43.735284 
L 336.635249 69.957176 
z
" clip-path="url(#pfc10aec0d1)" style="fill: none; opacity: 0"/>
   </g>
   <g id="patch_4">
    <path d="M 229.869531 102.734542 
L 344.971384 102.734542 
L 344.971384 76.51265 
L 229.869531 76.51265 
L 229.869531 102.734542 
z
" clip-path="url(#pfc10aec0d1)" style="fill: none; opacity: 0"/>
   </g>
   <g id="patch_5">
    <path d="M 335.598356 233.844004 
L 365.101203 233.844004 
L 365.101203 207.622112 
L 335.598356 207.622112 
L 335.598356 233.844004 
z
" clip-path="url(#pfc10aec0d1)" style="fill: none; opacity: 0"/>
   </g>
   <g id="patch_6">
    <path d="M 316.265864 266.621369 
L 343.934491 266.621369 
L 343.934491 240.399477 
L 316.265864 240.399477 
L 316.265864 266.621369 
z
" clip-path="url(#pfc10aec0d1)" style="fill: none; opacity: 0"/>
   </g>
   <g id="patch_7">
    <path d="M 303.301556 299.398735 
L 324.601998 299.398735 
L 324.601998 273.176843 
L 303.301556 273.176843 
L 303.301556 299.398735 
z
" clip-path="url(#pfc10aec0d1)" style="fill: none; opacity: 0"/>
   </g>
   <g id="patch_8">
    <path d="M 307.925865 364.953466 
L 324.289092 364.953466 
L 324.289092 338.731574 
L 307.925865 338.731574 
L 307.925865 364.953466 
z
" clip-path="url(#pfc10aec0d1)" style="fill: none; opacity: 0"/>
   </g>
   <g id="patch_9">
    <path d="M 299.985565 135.511907 
L 229.869531 135.511907 
L 229.869531 109.290015 
L 299.985565 109.290015 
L 299.985565 135.511907 
z
" clip-path="url(#pfc10aec0d1)" style="fill: none; opacity: 0"/>
   </g>
   <g id="patch_10">
    <path d="M 336.481648 168.289273 
L 291.649431 168.289273 
L 291.649431 142.067381 
L 336.481648 142.067381 
L 336.481648 168.289273 
z
" clip-path="url(#pfc10aec0d1)" style="fill: none; opacity: 0"/>
   </g>
   <g id="patch_11">
    <path d="M 365.101203 201.066638 
L 328.145514 201.066638 
L 328.145514 174.844746 
L 365.101203 174.844746 
L 365.101203 201.066638 
z
" clip-path="url(#pfc10aec0d1)" style="fill: none; opacity: 0"/>
   </g>
   <g id="patch_12">
    <path d="M 324.289092 332.1761 
L 303.301556 332.1761 
L 303.301556 305.954208 
L 324.289092 305.954208 
L 324.289092 332.1761 
z
" clip-path="url(#pfc10aec0d1)" style="fill: none; opacity: 0"/>
   </g>
   <g id="patch_13">
    <path d="M 650.844321 56.84623 
L 645.084321 69.957176 
L 645.084321 69.957176 
L 340.803316 69.957176 
L 340.803316 43.735284 
L 645.084321 43.735284 
L 645.084321 43.735284 
z
" clip-path="url(#pfc10aec0d1)" style="fill: #ff0051; stroke: #ff0051; stroke-linejoin: miter"/>
   </g>
   <g id="patch_14">
    <path d="M 340.803316 89.623596 
L 335.043316 102.734542 
L 335.043316 102.734542 
L 234.037598 102.734542 
L 234.037598 76.51265 
L 335.043316 76.51265 
L 335.043316 76.51265 
z
" clip-path="url(#pfc10aec0d1)" style="fill: #ff0051; stroke: #ff0051; stroke-linejoin: miter"/>
   </g>
   <g id="patch_15">
    <path d="M 360.933135 220.733058 
L 355.173135 233.844004 
L 355.173135 233.844004 
L 339.766424 233.844004 
L 339.766424 207.622112 
L 355.173135 207.622112 
L 355.173135 207.622112 
z
" clip-path="url(#pfc10aec0d1)" style="fill: #ff0051; stroke: #ff0051; stroke-linejoin: miter"/>
   </g>
   <g id="patch_16">
    <path d="M 339.766424 253.510423 
L 334.006424 266.621369 
L 334.006424 266.621369 
L 320.433931 266.621369 
L 320.433931 240.399477 
L 334.006424 240.399477 
L 334.006424 240.399477 
z
" clip-path="url(#pfc10aec0d1)" style="fill: #ff0051; stroke: #ff0051; stroke-linejoin: miter"/>
   </g>
   <g id="patch_17">
    <path d="M 320.433931 286.287789 
L 314.673931 299.398735 
L 314.673931 299.398735 
L 307.469623 299.398735 
L 307.469623 273.176843 
L 314.673931 273.176843 
L 314.673931 273.176843 
z
" clip-path="url(#pfc10aec0d1)" style="fill: #ff0051; stroke: #ff0051; stroke-linejoin: miter"/>
   </g>
   <g id="patch_18">
    <path d="M 320.121025 351.84252 
L 314.361025 364.953466 
L 314.361025 364.953466 
L 312.093932 364.953466 
L 312.093932 338.731574 
L 314.361025 338.731574 
L 314.361025 338.731574 
z
" clip-path="url(#pfc10aec0d1)" style="fill: #ff0051; stroke: #ff0051; stroke-linejoin: miter"/>
   </g>
   <g id="patch_19">
    <path d="M 234.037598 122.400961 
L 239.797598 109.290015 
L 239.797598 109.290015 
L 295.817498 109.290015 
L 295.817498 135.511907 
L 239.797598 135.511907 
L 239.797598 135.511907 
z
" clip-path="url(#pfc10aec0d1)" style="fill: #008bfb; stroke: #008bfb; stroke-linejoin: miter"/>
   </g>
   <g id="patch_20">
    <path d="M 295.817498 155.178327 
L 301.577498 142.067381 
L 301.577498 142.067381 
L 332.313581 142.067381 
L 332.313581 168.289273 
L 301.577498 168.289273 
L 301.577498 168.289273 
z
" clip-path="url(#pfc10aec0d1)" style="fill: #008bfb; stroke: #008bfb; stroke-linejoin: miter"/>
   </g>
   <g id="patch_21">
    <path d="M 332.313581 187.955692 
L 338.073581 174.844746 
L 338.073581 174.844746 
L 360.933135 174.844746 
L 360.933135 201.066638 
L 338.073581 201.066638 
L 338.073581 201.066638 
z
" clip-path="url(#pfc10aec0d1)" style="fill: #008bfb; stroke: #008bfb; stroke-linejoin: miter"/>
   </g>
   <g id="patch_22">
    <path d="M 307.469623 319.065154 
L 313.229623 305.954208 
L 313.229623 305.954208 
L 320.121025 305.954208 
L 320.121025 332.1761 
L 313.229623 332.1761 
L 313.229623 332.1761 
z
" clip-path="url(#pfc10aec0d1)" style="fill: #008bfb; stroke: #008bfb; stroke-linejoin: miter"/>
   </g>
   <g id="patch_23">
    <path d="M 229.869531 381.014375 
L 676.269531 381.014375 
" style="fill: none; stroke: #262626; stroke-width: 1.25; stroke-linejoin: miter; stroke-linecap: square"/>
   </g>
   <g id="text_28">
    <text style="fill: #ffffff; font: 12px 'sans-serif'; text-anchor: middle" x="495.823819" y="59.948418" transform="rotate(-0, 495.823819, 59.948418)">+4834.23</text>
   </g>
   <g id="text_29">
    <text style="fill: #ffffff; font: 12px 'sans-serif'; text-anchor: middle" x="287.420457" y="92.725783" transform="rotate(-0, 287.420457, 92.725783)">+1664.72</text>
   </g>
   <g id="text_30">
    <text style="fill: #ff0051; font: 12px 'sans-serif'; text-anchor: start" x="365.933135" y="223.835245" transform="rotate(-0, 365.933135, 223.835245)">+330.04</text>
   </g>
   <g id="text_31">
    <text style="fill: #ff0051; font: 12px 'sans-serif'; text-anchor: start" x="344.766424" y="256.612611" transform="rotate(-0, 344.766424, 256.612611)">+301.44</text>
   </g>
   <g id="text_32">
    <text style="fill: #ff0051; font: 12px 'sans-serif'; text-anchor: start" x="325.433931" y="289.389976" transform="rotate(-0, 325.433931, 289.389976)">+202.14</text>
   </g>
   <g id="text_33">
    <text style="fill: #ff0051; font: 12px 'sans-serif'; text-anchor: start" x="325.121025" y="354.944707" transform="rotate(-0, 325.121025, 354.944707)">+125.16</text>
   </g>
   <g id="text_34">
    <text style="fill: #ffffff; font: 12px 'sans-serif'; text-anchor: middle" x="264.927548" y="125.503149" transform="rotate(-0, 264.927548, 125.503149)">−963.29</text>
   </g>
   <g id="text_35">
    <text style="fill: #008bfb; font: 12px 'sans-serif'; text-anchor: end" x="290.817498" y="158.280514" transform="rotate(-0, 290.817498, 158.280514)">−569.06</text>
   </g>
   <g id="text_36">
    <text style="fill: #008bfb; font: 12px 'sans-serif'; text-anchor: end" x="327.313581" y="191.05788" transform="rotate(-0, 327.313581, 191.05788)">−446.24</text>
   </g>
   <g id="text_37">
    <text style="fill: #008bfb; font: 12px 'sans-serif'; text-anchor: end" x="302.469623" y="322.167342" transform="rotate(-0, 302.469623, 322.167342)">−197.26</text>
   </g>
  </g>
  <g id="axes_2">
   <g id="matplotlib.axis_3">
    <g id="xtick_8">
     <g id="line2d_26">
      <g>
       <use xlink:href="#m240200d54c" x="312.093932" y="381.014375" style="fill: #262626; stroke: #262626; stroke-width: 0.8"/>
      </g>
     </g>
     <g id="text_38">
      <text style="fill: #262626; font: 12px 'sans-serif'" transform="translate(292.093932 399.10375)"/>
      <!-- $E[f(X)]$ -->
      <g style="fill: #262626" transform="translate(292.093932 411.796)">
       <text>
        <tspan style="font: oblique 12px 'DejaVu Sans'" x="0 12.263672 21.169922" y="-0.875">EfX</tspan>
        <tspan style="font: 12px 'DejaVu Sans'" x="7.582031 16.488281 29.390625 34.072266" y="-0.875">[()]</tspan>
       </text>
      </g>
     </g>
    </g>
    <g id="xtick_9">
     <g id="line2d_27">
      <g>
       <use xlink:href="#m240200d54c" x="312.093932" y="381.014375" style="fill: #262626; stroke: #262626; stroke-width: 0.8"/>
      </g>
     </g>
     <g id="text_39">
      <text style="fill: #999999; font: 12px 'sans-serif'" transform="translate(334.093932 400.10375)"/>
      <!-- $ = 42413$ -->
      <g style="fill: #999999" transform="translate(334.093932 412.796)">
       <text>
        <tspan style="font: 12px 'DejaVu Sans'" x="2.337891 14.730469 22.365234 30 37.634766 45.269531" y="-0.09375">=42413</tspan>
       </text>
      </g>
     </g>
    </g>
   </g>
   <g id="patch_24">
    <path d="M 229.869531 381.014375 
L 676.269531 381.014375 
" style="fill: none; stroke: #262626; stroke-width: 1.25; stroke-linejoin: miter; stroke-linecap: square"/>
   </g>
  </g>
  <g id="axes_3">
   <g id="matplotlib.axis_4">
    <g id="xtick_10">
     <g id="line2d_28">
      <defs>
       <path id="m6a8e9912ec" d="M 0 0 
L 0 -6 
" style="stroke: #262626; stroke-width: 0.8"/>
      </defs>
      <g>
       <use xlink:href="#m6a8e9912ec" x="650.844321" y="27.674375" style="fill: #262626; stroke: #262626; stroke-width: 0.8"/>
      </g>
     </g>
     <g id="text_40">
      <!-- $f(x)$ -->
      <g style="fill: #262626" transform="translate(640.844321 15.789375)">
       <text>
        <tspan style="font: oblique 12px 'DejaVu Sans'" x="0 8.90625" y="-0.875">fx</tspan>
        <tspan style="font: 12px 'DejaVu Sans'" x="4.224609 16.007812" y="-0.875">()</tspan>
       </text>
      </g>
     </g>
    </g>
    <g id="xtick_11">
     <g id="line2d_29">
      <g>
       <use xlink:href="#m6a8e9912ec" x="650.844321" y="27.674375" style="fill: #262626; stroke: #262626; stroke-width: 0.8"/>
      </g>
     </g>
     <g id="text_41">
      <!-- $ = 47694.873$ -->
      <g style="fill: #999999" transform="translate(662.844321 15.789375)">
       <text>
        <tspan style="font: 12px 'DejaVu Sans'" x="2.337891 14.730469 22.365234 30 37.634766 45.269531 52.904297 56.34375 63.978516 71.613281" y="-0.09375">=47694.873</tspan>
       </text>
      </g>
     </g>
    </g>
   </g>
   <g id="patch_25">
    <path d="M 229.869531 381.014375 
L 676.269531 381.014375 
" style="fill: none; stroke: #262626; stroke-width: 1.25; stroke-linejoin: miter; stroke-linecap: square"/>
   </g>
   <g id="text_42">
    <text style="fill: #262626; font: 15px 'sans-serif'; text-anchor: start" x="676.269531" y="60.027125" transform="rotate(-0, 676.269531, 60.027125)">43717.5</text>
   </g>
  </g>
 </g>
 <defs>
  <clipPath id="pfc10aec0d1">
   <rect x="229.869531" y="27.674375" width="446.4" height="353.34"/>
  </clipPath>
 </defs>
</svg>
