<?xml version="1.0" encoding="utf-8" standalone="no"?>
<!DOCTYPE svg PUBLIC "-//W3C//DTD SVG 1.1//EN"
  "http://www.w3.org/Graphics/SVG/1.1/DTD/svg11.dtd">
<svg xmlns:xlink="http://www.w3.org/1999/xlink" width="741.771509pt" height="422.381pt" viewBox="0 0 741.771509 422.381" xmlns="http://www.w3.org/2000/svg" version="1.1">
 <metadata>
  <rdf:RDF xmlns:dc="http://purl.org/dc/elements/1.1/" xmlns:cc="http://creativecommons.org/ns#" xmlns:rdf="http://www.w3.org/1999/02/22-rdf-syntax-ns#">
   <cc:Work>
    <dc:type rdf:resource="http://purl.org/dc/dcmitype/StillImage"/>
    <dc:date>2022-10-11T11:06:15.678854</dc:date>
    <dc:format>image/svg+xml</dc:format>
    <dc:creator>
     <cc:Agent>
      <dc:title>Matplotlib v3.5.2, https://matplotlib.org/</dc:title>
     </cc:Agent>
    </dc:creator>
   </cc:Work>
  </rdf:RDF>
 </metadata>
 <defs>
  <style type="text/css">*{stroke-linejoin: round; stroke-linecap: butt}</style>
 </defs>
 <g id="figure_1">
  <g id="patch_1">
   <path d="M 0 422.381 
L 741.771509 422.381 
L 741.771509 0 
L 0 0 
z
" style="fill: #ffffff"/>
  </g>
  <g id="axes_1">
   <g id="patch_2">
    <path d="M 222.276719 381.014375 
L 668.676719 381.014375 
L 668.676719 27.674375 
L 222.276719 27.674375 
z
" style="fill: #ffffff"/>
   </g>
   <g id="line2d_1">
    <path d="M 550.301694 102.734542 
L 550.301694 43.735284 
" clip-path="url(#p779523c5d2)" style="fill: none; stroke-dasharray: 1.85,0.8; stroke-dashoffset: 0; stroke: #bbbbbb; stroke-width: 0.5"/>
   </g>
   <g id="line2d_2">
    <path d="M 460.258486 135.511907 
L 460.258486 76.51265 
" clip-path="url(#p779523c5d2)" style="fill: none; stroke-dasharray: 1.85,0.8; stroke-dashoffset: 0; stroke: #bbbbbb; stroke-width: 0.5"/>
   </g>
   <g id="line2d_3">
    <path d="M 396.785443 168.289273 
L 396.785443 109.290015 
" clip-path="url(#p779523c5d2)" style="fill: none; stroke-dasharray: 1.85,0.8; stroke-dashoffset: 0; stroke: #bbbbbb; stroke-width: 0.5"/>
   </g>
   <g id="line2d_4">
    <path d="M 342.00386 201.066638 
L 342.00386 142.067381 
" clip-path="url(#p779523c5d2)" style="fill: none; stroke-dasharray: 1.85,0.8; stroke-dashoffset: 0; stroke: #bbbbbb; stroke-width: 0.5"/>
   </g>
   <g id="line2d_5">
    <path d="M 301.581574 233.844004 
L 301.581574 174.844746 
" clip-path="url(#p779523c5d2)" style="fill: none; stroke-dasharray: 1.85,0.8; stroke-dashoffset: 0; stroke: #bbbbbb; stroke-width: 0.5"/>
   </g>
   <g id="line2d_6">
    <path d="M 263.749821 266.621369 
L 263.749821 207.622112 
" clip-path="url(#p779523c5d2)" style="fill: none; stroke-dasharray: 1.85,0.8; stroke-dashoffset: 0; stroke: #bbbbbb; stroke-width: 0.5"/>
   </g>
   <g id="line2d_7">
    <path d="M 222.276719 351.84252 
L 668.676719 351.84252 
" clip-path="url(#p779523c5d2)" style="fill: none; stroke-dasharray: 0.5,2.5; stroke-dashoffset: 0; stroke: #cccccc; stroke-width: 0.5"/>
   </g>
   <g id="line2d_8">
    <path d="M 222.276719 319.065154 
L 668.676719 319.065154 
" clip-path="url(#p779523c5d2)" style="fill: none; stroke-dasharray: 0.5,2.5; stroke-dashoffset: 0; stroke: #cccccc; stroke-width: 0.5"/>
   </g>
   <g id="line2d_9">
    <path d="M 222.276719 286.287789 
L 668.676719 286.287789 
" clip-path="url(#p779523c5d2)" style="fill: none; stroke-dasharray: 0.5,2.5; stroke-dashoffset: 0; stroke: #cccccc; stroke-width: 0.5"/>
   </g>
   <g id="line2d_10">
    <path d="M 222.276719 253.510423 
L 668.676719 253.510423 
" clip-path="url(#p779523c5d2)" style="fill: none; stroke-dasharray: 0.5,2.5; stroke-dashoffset: 0; stroke: #cccccc; stroke-width: 0.5"/>
   </g>
   <g id="line2d_11">
    <path d="M 222.276719 220.733058 
L 668.676719 220.733058 
" clip-path="url(#p779523c5d2)" style="fill: none; stroke-dasharray: 0.5,2.5; stroke-dashoffset: 0; stroke: #cccccc; stroke-width: 0.5"/>
   </g>
   <g id="line2d_12">
    <path d="M 222.276719 187.955692 
L 668.676719 187.955692 
" clip-path="url(#p779523c5d2)" style="fill: none; stroke-dasharray: 0.5,2.5; stroke-dashoffset: 0; stroke: #cccccc; stroke-width: 0.5"/>
   </g>
   <g id="line2d_13">
    <path d="M 222.276719 155.178327 
L 668.676719 155.178327 
" clip-path="url(#p779523c5d2)" style="fill: none; stroke-dasharray: 0.5,2.5; stroke-dashoffset: 0; stroke: #cccccc; stroke-width: 0.5"/>
   </g>
   <g id="line2d_14">
    <path d="M 222.276719 122.400961 
L 668.676719 122.400961 
" clip-path="url(#p779523c5d2)" style="fill: none; stroke-dasharray: 0.5,2.5; stroke-dashoffset: 0; stroke: #cccccc; stroke-width: 0.5"/>
   </g>
   <g id="line2d_15">
    <path d="M 222.276719 89.623596 
L 668.676719 89.623596 
" clip-path="url(#p779523c5d2)" style="fill: none; stroke-dasharray: 0.5,2.5; stroke-dashoffset: 0; stroke: #cccccc; stroke-width: 0.5"/>
   </g>
   <g id="line2d_16">
    <path d="M 222.276719 56.84623 
L 668.676719 56.84623 
" clip-path="url(#p779523c5d2)" style="fill: none; stroke-dasharray: 0.5,2.5; stroke-dashoffset: 0; stroke: #cccccc; stroke-width: 0.5"/>
   </g>
   <g id="line2d_17">
    <path d="M 251.793373 381.014375 
L 251.793373 345.680375 
" clip-path="url(#p779523c5d2)" style="fill: none; stroke-dasharray: 1.85,0.8; stroke-dashoffset: 0; stroke: #bbbbbb; stroke-width: 0.5"/>
   </g>
   <g id="line2d_18">
    <path d="M 643.251509 381.014375 
L 643.251509 27.674375 
" clip-path="url(#p779523c5d2)" style="fill: none; stroke-dasharray: 1.85,0.8; stroke-dashoffset: 0; stroke: #bbbbbb; stroke-width: 0.5"/>
   </g>
   <g id="matplotlib.axis_1">
    <g id="xtick_1">
     <g id="line2d_19">
      <defs>
       <path id="m20f5fdc43e" d="M 0 0 
L 0 6 
" style="stroke: #262626; stroke-width: 0.8"/>
      </defs>
      <g>
       <use xlink:href="#m20f5fdc43e" x="234.505563" y="381.014375" style="fill: #262626; stroke: #262626; stroke-width: 0.8"/>
      </g>
     </g>
     <g id="text_1">
      <text style="fill: #262626; font: 13px 'sans-serif'; text-anchor: middle" x="234.505563" y="399.819531" transform="rotate(-0, 234.505563, 399.819531)">42000</text>
     </g>
    </g>
    <g id="xtick_2">
     <g id="line2d_20">
      <g>
       <use xlink:href="#m20f5fdc43e" x="318.223769" y="381.014375" style="fill: #262626; stroke: #262626; stroke-width: 0.8"/>
      </g>
     </g>
     <g id="text_2">
      <text style="fill: #262626; font: 13px 'sans-serif'; text-anchor: middle" x="318.223769" y="399.819531" transform="rotate(-0, 318.223769, 399.819531)">44000</text>
     </g>
    </g>
    <g id="xtick_3">
     <g id="line2d_21">
      <g>
       <use xlink:href="#m20f5fdc43e" x="401.941975" y="381.014375" style="fill: #262626; stroke: #262626; stroke-width: 0.8"/>
      </g>
     </g>
     <g id="text_3">
      <text style="fill: #262626; font: 13px 'sans-serif'; text-anchor: middle" x="401.941975" y="399.819531" transform="rotate(-0, 401.941975, 399.819531)">46000</text>
     </g>
    </g>
    <g id="xtick_4">
     <g id="line2d_22">
      <g>
       <use xlink:href="#m20f5fdc43e" x="485.660181" y="381.014375" style="fill: #262626; stroke: #262626; stroke-width: 0.8"/>
      </g>
     </g>
     <g id="text_4">
      <text style="fill: #262626; font: 13px 'sans-serif'; text-anchor: middle" x="485.660181" y="399.819531" transform="rotate(-0, 485.660181, 399.819531)">48000</text>
     </g>
    </g>
    <g id="xtick_5">
     <g id="line2d_23">
      <g>
       <use xlink:href="#m20f5fdc43e" x="569.378387" y="381.014375" style="fill: #262626; stroke: #262626; stroke-width: 0.8"/>
      </g>
     </g>
     <g id="text_5">
      <text style="fill: #262626; font: 13px 'sans-serif'; text-anchor: middle" x="569.378387" y="399.819531" transform="rotate(-0, 569.378387, 399.819531)">50000</text>
     </g>
    </g>
    <g id="xtick_6">
     <g id="line2d_24">
      <g>
       <use xlink:href="#m20f5fdc43e" x="653.096593" y="381.014375" style="fill: #262626; stroke: #262626; stroke-width: 0.8"/>
      </g>
     </g>
     <g id="text_6">
      <text style="fill: #262626; font: 13px 'sans-serif'; text-anchor: middle" x="653.096593" y="399.819531" transform="rotate(-0, 653.096593, 399.819531)">52000</text>
     </g>
    </g>
   </g>
   <g id="matplotlib.axis_2">
    <g id="ytick_1">
     <g id="text_7">
      <text style="fill: #999999; font: 13px 'sans-serif'; text-anchor: end" x="212.776719" y="356.574317" transform="rotate(-0, 212.776719, 356.574317)">0.149 = TG 18:1_22:6_22:6</text>
     </g>
    </g>
    <g id="ytick_2">
     <g id="text_8">
      <text style="fill: #999999; font: 13px 'sans-serif'; text-anchor: end" x="212.776719" y="323.796951" transform="rotate(-0, 212.776719, 323.796951)">0.179 = TG 20:5_22:6_22:6</text>
     </g>
    </g>
    <g id="ytick_3">
     <g id="text_9">
      <text style="fill: #999999; font: 13px 'sans-serif'; text-anchor: end" x="212.776719" y="291.019586" transform="rotate(-0, 212.776719, 291.019586)">−0.322 = 4-Guanidinobutyric acid</text>
     </g>
    </g>
    <g id="ytick_4">
     <g id="text_10">
      <text style="fill: #999999; font: 13px 'sans-serif'; text-anchor: end" x="212.776719" y="258.24222" transform="rotate(-0, 212.776719, 258.24222)">0.171 = TG 22:6_22:6_22:6</text>
     </g>
    </g>
    <g id="ytick_5">
     <g id="text_11">
      <text style="fill: #999999; font: 13px 'sans-serif'; text-anchor: end" x="212.776719" y="225.385636" transform="rotate(-0, 212.776719, 225.385636)">−0.542 = CE 18:1</text>
     </g>
    </g>
    <g id="ytick_6">
     <g id="text_12">
      <text style="fill: #999999; font: 13px 'sans-serif'; text-anchor: end" x="212.776719" y="192.60827" transform="rotate(-0, 212.776719, 192.60827)">0.548 = PC 36:3</text>
     </g>
    </g>
    <g id="ytick_7">
     <g id="text_13">
      <text style="fill: #999999; font: 13px 'sans-serif'; text-anchor: end" x="212.776719" y="159.830905" transform="rotate(-0, 212.776719, 159.830905)">−0.953 = PC 38:7</text>
     </g>
    </g>
    <g id="ytick_8">
     <g id="text_14">
      <text style="fill: #999999; font: 13px 'sans-serif'; text-anchor: end" x="212.776719" y="127.053539" transform="rotate(-0, 212.776719, 127.053539)">−0.656 = FA 18:0</text>
     </g>
    </g>
    <g id="ytick_9">
     <g id="text_15">
      <text style="fill: #999999; font: 13px 'sans-serif'; text-anchor: end" x="212.776719" y="94.359455" transform="rotate(-0, 212.776719, 94.359455)">0.824 = Plasmanyl-PC O-20:0_20:4</text>
     </g>
    </g>
    <g id="ytick_10">
     <g id="text_16">
      <text style="fill: #999999; font: 13px 'sans-serif'; text-anchor: end" x="212.776719" y="61.498808" transform="rotate(-0, 212.776719, 61.498808)">1.096 = SM d37:1</text>
     </g>
    </g>
    <g id="ytick_11">
     <g id="text_17">
      <text style="fill: #262626; font: 13px 'sans-serif'; text-anchor: end" x="212.776719" y="356.574316" transform="rotate(-0, 212.776719, 356.574316)"> TG 18:1_22:6_22:6</text>
     </g>
    </g>
    <g id="ytick_12">
     <g id="text_18">
      <text style="fill: #262626; font: 13px 'sans-serif'; text-anchor: end" x="212.776719" y="323.796951" transform="rotate(-0, 212.776719, 323.796951)"> TG 20:5_22:6_22:6</text>
     </g>
    </g>
    <g id="ytick_13">
     <g id="text_19">
      <text style="fill: #262626; font: 13px 'sans-serif'; text-anchor: end" x="212.776719" y="291.019585" transform="rotate(-0, 212.776719, 291.019585)"> 4-Guanidinobutyric acid</text>
     </g>
    </g>
    <g id="ytick_14">
     <g id="text_20">
      <text style="fill: #262626; font: 13px 'sans-serif'; text-anchor: end" x="212.776719" y="258.24222" transform="rotate(-0, 212.776719, 258.24222)"> TG 22:6_22:6_22:6</text>
     </g>
    </g>
    <g id="ytick_15">
     <g id="text_21">
      <text style="fill: #262626; font: 13px 'sans-serif'; text-anchor: end" x="212.776719" y="225.385636" transform="rotate(-0, 212.776719, 225.385636)"> CE 18:1</text>
     </g>
    </g>
    <g id="ytick_16">
     <g id="text_22">
      <text style="fill: #262626; font: 13px 'sans-serif'; text-anchor: end" x="212.776719" y="192.60827" transform="rotate(-0, 212.776719, 192.60827)"> PC 36:3</text>
     </g>
    </g>
    <g id="ytick_17">
     <g id="text_23">
      <text style="fill: #262626; font: 13px 'sans-serif'; text-anchor: end" x="212.776719" y="159.830905" transform="rotate(-0, 212.776719, 159.830905)"> PC 38:7</text>
     </g>
    </g>
    <g id="ytick_18">
     <g id="text_24">
      <text style="fill: #262626; font: 13px 'sans-serif'; text-anchor: end" x="212.776719" y="127.053539" transform="rotate(-0, 212.776719, 127.053539)"> FA 18:0</text>
     </g>
    </g>
    <g id="ytick_19">
     <g id="text_25">
      <text style="fill: #262626; font: 13px 'sans-serif'; text-anchor: end" x="212.776719" y="94.359455" transform="rotate(-0, 212.776719, 94.359455)"> Plasmanyl-PC O-20:0_20:4</text>
     </g>
    </g>
    <g id="ytick_20">
     <g id="text_26">
      <text style="fill: #262626; font: 13px 'sans-serif'; text-anchor: end" x="212.776719" y="61.498808" transform="rotate(-0, 212.776719, 61.498808)"> SM d37:1</text>
     </g>
    </g>
   </g>
   <g id="patch_3">
    <path d="M 546.133627 69.957176 
L 647.419576 69.957176 
L 647.419576 43.735284 
L 546.133627 43.735284 
L 546.133627 69.957176 
z
" clip-path="url(#p779523c5d2)" style="fill: none; opacity: 0"/>
   </g>
   <g id="patch_4">
    <path d="M 456.090419 102.734542 
L 554.469761 102.734542 
L 554.469761 76.51265 
L 456.090419 76.51265 
L 456.090419 102.734542 
z
" clip-path="url(#p779523c5d2)" style="fill: none; opacity: 0"/>
   </g>
   <g id="patch_5">
    <path d="M 392.617376 135.511907 
L 464.426553 135.511907 
L 464.426553 109.290015 
L 392.617376 109.290015 
L 392.617376 135.511907 
z
" clip-path="url(#p779523c5d2)" style="fill: none; opacity: 0"/>
   </g>
   <g id="patch_6">
    <path d="M 337.835793 168.289273 
L 400.95351 168.289273 
L 400.95351 142.067381 
L 337.835793 142.067381 
L 337.835793 168.289273 
z
" clip-path="url(#p779523c5d2)" style="fill: none; opacity: 0"/>
   </g>
   <g id="patch_7">
    <path d="M 297.413507 201.066638 
L 346.171928 201.066638 
L 346.171928 174.844746 
L 297.413507 174.844746 
L 297.413507 201.066638 
z
" clip-path="url(#p779523c5d2)" style="fill: none; opacity: 0"/>
   </g>
   <g id="patch_8">
    <path d="M 259.581754 233.844004 
L 305.749641 233.844004 
L 305.749641 207.622112 
L 259.581754 207.622112 
L 259.581754 233.844004 
z
" clip-path="url(#p779523c5d2)" style="fill: none; opacity: 0"/>
   </g>
   <g id="patch_9">
    <path d="M 222.276719 266.621369 
L 267.917888 266.621369 
L 267.917888 240.399477 
L 222.276719 240.399477 
L 222.276719 266.621369 
z
" clip-path="url(#p779523c5d2)" style="fill: none; opacity: 0"/>
   </g>
   <g id="patch_10">
    <path d="M 247.625305 364.953466 
L 258.127631 364.953466 
L 258.127631 338.731574 
L 247.625305 338.731574 
L 247.625305 364.953466 
z
" clip-path="url(#p779523c5d2)" style="fill: none; opacity: 0"/>
   </g>
   <g id="patch_11">
    <path d="M 254.980746 299.398735 
L 222.276719 299.398735 
L 222.276719 273.176843 
L 254.980746 273.176843 
L 254.980746 299.398735 
z
" clip-path="url(#p779523c5d2)" style="fill: none; opacity: 0"/>
   </g>
   <g id="patch_12">
    <path d="M 258.127631 332.1761 
L 246.644612 332.1761 
L 246.644612 305.954208 
L 258.127631 305.954208 
L 258.127631 332.1761 
z
" clip-path="url(#p779523c5d2)" style="fill: none; opacity: 0"/>
   </g>
   <g id="patch_13">
    <path d="M 643.251509 56.84623 
L 637.491509 69.957176 
L 637.491509 69.957176 
L 550.301694 69.957176 
L 550.301694 43.735284 
L 637.491509 43.735284 
L 637.491509 43.735284 
z
" clip-path="url(#p779523c5d2)" style="fill: #ff0051; stroke: #ff0051; stroke-linejoin: miter"/>
   </g>
   <g id="patch_14">
    <path d="M 550.301694 89.623596 
L 544.541694 102.734542 
L 544.541694 102.734542 
L 460.258486 102.734542 
L 460.258486 76.51265 
L 544.541694 76.51265 
L 544.541694 76.51265 
z
" clip-path="url(#p779523c5d2)" style="fill: #ff0051; stroke: #ff0051; stroke-linejoin: miter"/>
   </g>
   <g id="patch_15">
    <path d="M 460.258486 122.400961 
L 454.498486 135.511907 
L 454.498486 135.511907 
L 396.785443 135.511907 
L 396.785443 109.290015 
L 454.498486 109.290015 
L 454.498486 109.290015 
z
" clip-path="url(#p779523c5d2)" style="fill: #ff0051; stroke: #ff0051; stroke-linejoin: miter"/>
   </g>
   <g id="patch_16">
    <path d="M 396.785443 155.178327 
L 391.025443 168.289273 
L 391.025443 168.289273 
L 342.00386 168.289273 
L 342.00386 142.067381 
L 391.025443 142.067381 
L 391.025443 142.067381 
z
" clip-path="url(#p779523c5d2)" style="fill: #ff0051; stroke: #ff0051; stroke-linejoin: miter"/>
   </g>
   <g id="patch_17">
    <path d="M 342.00386 187.955692 
L 336.24386 201.066638 
L 336.24386 201.066638 
L 301.581574 201.066638 
L 301.581574 174.844746 
L 336.24386 174.844746 
L 336.24386 174.844746 
z
" clip-path="url(#p779523c5d2)" style="fill: #ff0051; stroke: #ff0051; stroke-linejoin: miter"/>
   </g>
   <g id="patch_18">
    <path d="M 301.581574 220.733058 
L 295.821574 233.844004 
L 295.821574 233.844004 
L 263.749821 233.844004 
L 263.749821 207.622112 
L 295.821574 207.622112 
L 295.821574 207.622112 
z
" clip-path="url(#p779523c5d2)" style="fill: #ff0051; stroke: #ff0051; stroke-linejoin: miter"/>
   </g>
   <g id="patch_19">
    <path d="M 263.749821 253.510423 
L 257.989821 266.621369 
L 257.989821 266.621369 
L 226.444786 266.621369 
L 226.444786 240.399477 
L 257.989821 240.399477 
L 257.989821 240.399477 
z
" clip-path="url(#p779523c5d2)" style="fill: #ff0051; stroke: #ff0051; stroke-linejoin: miter"/>
   </g>
   <g id="patch_20">
    <path d="M 253.959564 351.84252 
L 251.793373 364.953466 
L 251.793373 364.953466 
L 251.793373 364.953466 
L 251.793373 338.731574 
L 251.793373 338.731574 
L 251.793373 338.731574 
z
" clip-path="url(#p779523c5d2)" style="fill: #ff0051; stroke: #ff0051; stroke-linejoin: miter"/>
   </g>
   <g id="patch_21">
    <path d="M 226.444786 286.287789 
L 232.204786 273.176843 
L 232.204786 273.176843 
L 250.812679 273.176843 
L 250.812679 299.398735 
L 232.204786 299.398735 
L 232.204786 299.398735 
z
" clip-path="url(#p779523c5d2)" style="fill: #008bfb; stroke: #008bfb; stroke-linejoin: miter"/>
   </g>
   <g id="patch_22">
    <path d="M 250.812679 319.065154 
L 253.959564 305.954208 
L 253.959564 305.954208 
L 253.959564 305.954208 
L 253.959564 332.1761 
L 253.959564 332.1761 
L 253.959564 332.1761 
z
" clip-path="url(#p779523c5d2)" style="fill: #008bfb; stroke: #008bfb; stroke-linejoin: miter"/>
   </g>
   <g id="patch_23">
    <path d="M 222.276719 381.014375 
L 668.676719 381.014375 
" style="fill: none; stroke: #262626; stroke-width: 1.25; stroke-linejoin: miter; stroke-linecap: square"/>
   </g>
   <g id="text_27">
    <text style="fill: #ffffff; font: 12px 'sans-serif'; text-anchor: middle" x="596.776601" y="59.948418" transform="rotate(-0, 596.776601, 59.948418)">+2220.54</text>
   </g>
   <g id="text_28">
    <text style="fill: #ffffff; font: 12px 'sans-serif'; text-anchor: middle" x="505.28009" y="92.725783" transform="rotate(-0, 505.28009, 92.725783)">+2151.1</text>
   </g>
   <g id="text_29">
    <text style="fill: #ffffff; font: 12px 'sans-serif'; text-anchor: middle" x="428.521964" y="125.503149" transform="rotate(-0, 428.521964, 125.503149)">+1516.35</text>
   </g>
   <g id="text_30">
    <text style="fill: #ffffff; font: 12px 'sans-serif'; text-anchor: middle" x="369.394652" y="158.280514" transform="rotate(-0, 369.394652, 158.280514)">+1308.71</text>
   </g>
   <g id="text_31">
    <text style="fill: #ff0051; font: 12px 'sans-serif'; text-anchor: start" x="347.00386" y="191.05788" transform="rotate(-0, 347.00386, 191.05788)">+965.67</text>
   </g>
   <g id="text_32">
    <text style="fill: #ff0051; font: 12px 'sans-serif'; text-anchor: start" x="306.581574" y="223.835245" transform="rotate(-0, 306.581574, 223.835245)">+903.79</text>
   </g>
   <g id="text_33">
    <text style="fill: #ffffff; font: 12px 'sans-serif'; text-anchor: middle" x="245.097303" y="256.612611" transform="rotate(-0, 245.097303, 256.612611)">+891.2</text>
   </g>
   <g id="text_34">
    <text style="fill: #ff0051; font: 12px 'sans-serif'; text-anchor: start" x="258.959564" y="354.944707" transform="rotate(-0, 258.959564, 354.944707)">+51.75</text>
   </g>
   <g id="text_35">
    <text style="fill: #008bfb; font: 12px 'sans-serif'; text-anchor: end" x="221.444786" y="289.389976" transform="rotate(-0, 221.444786, 289.389976)">−582.14</text>
   </g>
   <g id="text_36">
    <text style="fill: #008bfb; font: 12px 'sans-serif'; text-anchor: end" x="245.812679" y="322.167342" transform="rotate(-0, 245.812679, 322.167342)">−75.18</text>
   </g>
  </g>
  <g id="axes_2">
   <g id="matplotlib.axis_3">
    <g id="xtick_7">
     <g id="line2d_25">
      <g>
       <use xlink:href="#m20f5fdc43e" x="251.793373" y="381.014375" style="fill: #262626; stroke: #262626; stroke-width: 0.8"/>
      </g>
     </g>
     <g id="text_37">
      <text style="fill: #262626; font: 12px 'sans-serif'" transform="translate(231.793373 399.10375)"/>
      <!-- $E[f(X)]$ -->
      <g style="fill: #262626" transform="translate(231.793373 411.796)">
       <text>
        <tspan style="font: oblique 12px 'DejaVu Sans'" x="0 12.263672 21.169922" y="-0.875">EfX</tspan>
        <tspan style="font: 12px 'DejaVu Sans'" x="7.582031 16.488281 29.390625 34.072266" y="-0.875">[()]</tspan>
       </text>
      </g>
     </g>
    </g>
    <g id="xtick_8">
     <g id="line2d_26">
      <g>
       <use xlink:href="#m20f5fdc43e" x="251.793373" y="381.014375" style="fill: #262626; stroke: #262626; stroke-width: 0.8"/>
      </g>
     </g>
     <g id="text_38">
      <text style="fill: #999999; font: 12px 'sans-serif'" transform="translate(273.793373 400.10375)"/>
      <!-- $ = 42413$ -->
      <g style="fill: #999999" transform="translate(273.793373 412.796)">
       <text>
        <tspan style="font: 12px 'DejaVu Sans'" x="2.337891 14.730469 22.365234 30 37.634766 45.269531" y="-0.09375">=42413</tspan>
       </text>
      </g>
     </g>
    </g>
   </g>
   <g id="patch_24">
    <path d="M 222.276719 381.014375 
L 668.676719 381.014375 
" style="fill: none; stroke: #262626; stroke-width: 1.25; stroke-linejoin: miter; stroke-linecap: square"/>
   </g>
  </g>
  <g id="axes_3">
   <g id="matplotlib.axis_4">
    <g id="xtick_9">
     <g id="line2d_27">
      <defs>
       <path id="mfe4e5e50e7" d="M 0 0 
L 0 -6 
" style="stroke: #262626; stroke-width: 0.8"/>
      </defs>
      <g>
       <use xlink:href="#mfe4e5e50e7" x="643.251509" y="27.674375" style="fill: #262626; stroke: #262626; stroke-width: 0.8"/>
      </g>
     </g>
     <g id="text_39">
      <!-- $f(x)$ -->
      <g style="fill: #262626" transform="translate(633.251509 15.789375)">
       <text>
        <tspan style="font: oblique 12px 'DejaVu Sans'" x="0 8.90625" y="-0.875">fx</tspan>
        <tspan style="font: 12px 'DejaVu Sans'" x="4.224609 16.007812" y="-0.875">()</tspan>
       </text>
      </g>
     </g>
    </g>
    <g id="xtick_10">
     <g id="line2d_28">
      <g>
       <use xlink:href="#mfe4e5e50e7" x="643.251509" y="27.674375" style="fill: #262626; stroke: #262626; stroke-width: 0.8"/>
      </g>
     </g>
     <g id="text_40">
      <!-- $ = 51764.804$ -->
      <g style="fill: #999999" transform="translate(655.251509 15.789375)">
       <text>
        <tspan style="font: 12px 'DejaVu Sans'" x="2.337891 14.730469 22.365234 30 37.634766 45.269531 52.904297 56.34375 63.978516 71.613281" y="-0.09375">=51764.804</tspan>
       </text>
      </g>
     </g>
    </g>
   </g>
   <g id="patch_25">
    <path d="M 222.276719 381.014375 
L 668.676719 381.014375 
" style="fill: none; stroke: #262626; stroke-width: 1.25; stroke-linejoin: miter; stroke-linecap: square"/>
   </g>
   <g id="text_41">
    <text style="fill: #262626; font: 15px 'sans-serif'; text-anchor: start" x="668.676719" y="60.027125" transform="rotate(-0, 668.676719, 60.027125)">43717.5</text>
   </g>
  </g>
 </g>
 <defs>
  <clipPath id="p779523c5d2">
   <rect x="222.276719" y="27.674375" width="446.4" height="353.34"/>
  </clipPath>
 </defs>
</svg>
