<?xml version="1.0" encoding="utf-8" standalone="no"?>
<!DOCTYPE svg PUBLIC "-//W3C//DTD SVG 1.1//EN"
  "http://www.w3.org/Graphics/SVG/1.1/DTD/svg11.dtd">
<svg xmlns:xlink="http://www.w3.org/1999/xlink" width="741.291509pt" height="422.381pt" viewBox="0 0 741.291509 422.381" xmlns="http://www.w3.org/2000/svg" version="1.1">
 <metadata>
  <rdf:RDF xmlns:dc="http://purl.org/dc/elements/1.1/" xmlns:cc="http://creativecommons.org/ns#" xmlns:rdf="http://www.w3.org/1999/02/22-rdf-syntax-ns#">
   <cc:Work>
    <dc:type rdf:resource="http://purl.org/dc/dcmitype/StillImage"/>
    <dc:date>2022-10-11T11:06:14.378546</dc:date>
    <dc:format>image/svg+xml</dc:format>
    <dc:creator>
     <cc:Agent>
      <dc:title>Matplotlib v3.5.2, https://matplotlib.org/</dc:title>
     </cc:Agent>
    </dc:creator>
   </cc:Work>
  </rdf:RDF>
 </metadata>
 <defs>
  <style type="text/css">*{stroke-linejoin: round; stroke-linecap: butt}</style>
 </defs>
 <g id="figure_1">
  <g id="patch_1">
   <path d="M 0 422.381 
L 741.291509 422.381 
L 741.291509 0 
L 0 0 
z
" style="fill: #ffffff"/>
  </g>
  <g id="axes_1">
   <g id="patch_2">
    <path d="M 222.276719 381.014375 
L 668.676719 381.014375 
L 668.676719 27.674375 
L 222.276719 27.674375 
z
" style="fill: #ffffff"/>
   </g>
   <g id="line2d_1">
    <path d="M 477.713482 102.734542 
L 477.713482 43.735284 
" clip-path="url(#pf6d12d280e)" style="fill: none; stroke-dasharray: 1.85,0.8; stroke-dashoffset: 0; stroke: #bbbbbb; stroke-width: 0.5"/>
   </g>
   <g id="line2d_2">
    <path d="M 349.967405 135.511907 
L 349.967405 76.51265 
" clip-path="url(#pf6d12d280e)" style="fill: none; stroke-dasharray: 1.85,0.8; stroke-dashoffset: 0; stroke: #bbbbbb; stroke-width: 0.5"/>
   </g>
   <g id="line2d_3">
    <path d="M 226.444786 168.289273 
L 226.444786 109.290015 
" clip-path="url(#pf6d12d280e)" style="fill: none; stroke-dasharray: 1.85,0.8; stroke-dashoffset: 0; stroke: #bbbbbb; stroke-width: 0.5"/>
   </g>
   <g id="line2d_4">
    <path d="M 319.619243 201.066638 
L 319.619243 142.067381 
" clip-path="url(#pf6d12d280e)" style="fill: none; stroke-dasharray: 1.85,0.8; stroke-dashoffset: 0; stroke: #bbbbbb; stroke-width: 0.5"/>
   </g>
   <g id="line2d_5">
    <path d="M 409.753101 233.844004 
L 409.753101 174.844746 
" clip-path="url(#pf6d12d280e)" style="fill: none; stroke-dasharray: 1.85,0.8; stroke-dashoffset: 0; stroke: #bbbbbb; stroke-width: 0.5"/>
   </g>
   <g id="line2d_6">
    <path d="M 392.454835 266.621369 
L 392.454835 207.622112 
" clip-path="url(#pf6d12d280e)" style="fill: none; stroke-dasharray: 1.85,0.8; stroke-dashoffset: 0; stroke: #bbbbbb; stroke-width: 0.5"/>
   </g>
   <g id="line2d_7">
    <path d="M 222.276719 351.84252 
L 668.676719 351.84252 
" clip-path="url(#pf6d12d280e)" style="fill: none; stroke-dasharray: 0.5,2.5; stroke-dashoffset: 0; stroke: #cccccc; stroke-width: 0.5"/>
   </g>
   <g id="line2d_8">
    <path d="M 222.276719 319.065154 
L 668.676719 319.065154 
" clip-path="url(#pf6d12d280e)" style="fill: none; stroke-dasharray: 0.5,2.5; stroke-dashoffset: 0; stroke: #cccccc; stroke-width: 0.5"/>
   </g>
   <g id="line2d_9">
    <path d="M 222.276719 286.287789 
L 668.676719 286.287789 
" clip-path="url(#pf6d12d280e)" style="fill: none; stroke-dasharray: 0.5,2.5; stroke-dashoffset: 0; stroke: #cccccc; stroke-width: 0.5"/>
   </g>
   <g id="line2d_10">
    <path d="M 222.276719 253.510423 
L 668.676719 253.510423 
" clip-path="url(#pf6d12d280e)" style="fill: none; stroke-dasharray: 0.5,2.5; stroke-dashoffset: 0; stroke: #cccccc; stroke-width: 0.5"/>
   </g>
   <g id="line2d_11">
    <path d="M 222.276719 220.733058 
L 668.676719 220.733058 
" clip-path="url(#pf6d12d280e)" style="fill: none; stroke-dasharray: 0.5,2.5; stroke-dashoffset: 0; stroke: #cccccc; stroke-width: 0.5"/>
   </g>
   <g id="line2d_12">
    <path d="M 222.276719 187.955692 
L 668.676719 187.955692 
" clip-path="url(#pf6d12d280e)" style="fill: none; stroke-dasharray: 0.5,2.5; stroke-dashoffset: 0; stroke: #cccccc; stroke-width: 0.5"/>
   </g>
   <g id="line2d_13">
    <path d="M 222.276719 155.178327 
L 668.676719 155.178327 
" clip-path="url(#pf6d12d280e)" style="fill: none; stroke-dasharray: 0.5,2.5; stroke-dashoffset: 0; stroke: #cccccc; stroke-width: 0.5"/>
   </g>
   <g id="line2d_14">
    <path d="M 222.276719 122.400961 
L 668.676719 122.400961 
" clip-path="url(#pf6d12d280e)" style="fill: none; stroke-dasharray: 0.5,2.5; stroke-dashoffset: 0; stroke: #cccccc; stroke-width: 0.5"/>
   </g>
   <g id="line2d_15">
    <path d="M 222.276719 89.623596 
L 668.676719 89.623596 
" clip-path="url(#pf6d12d280e)" style="fill: none; stroke-dasharray: 0.5,2.5; stroke-dashoffset: 0; stroke: #cccccc; stroke-width: 0.5"/>
   </g>
   <g id="line2d_16">
    <path d="M 222.276719 56.84623 
L 668.676719 56.84623 
" clip-path="url(#pf6d12d280e)" style="fill: none; stroke-dasharray: 0.5,2.5; stroke-dashoffset: 0; stroke: #cccccc; stroke-width: 0.5"/>
   </g>
   <g id="line2d_17">
    <path d="M 364.831034 381.014375 
L 364.831034 345.680375 
" clip-path="url(#pf6d12d280e)" style="fill: none; stroke-dasharray: 1.85,0.8; stroke-dashoffset: 0; stroke: #bbbbbb; stroke-width: 0.5"/>
   </g>
   <g id="line2d_18">
    <path d="M 643.251509 381.014375 
L 643.251509 27.674375 
" clip-path="url(#pf6d12d280e)" style="fill: none; stroke-dasharray: 1.85,0.8; stroke-dashoffset: 0; stroke: #bbbbbb; stroke-width: 0.5"/>
   </g>
   <g id="matplotlib.axis_1">
    <g id="xtick_1">
     <g id="line2d_19">
      <defs>
       <path id="m4cbade16cf" d="M 0 0 
L 0 6 
" style="stroke: #262626; stroke-width: 0.8"/>
      </defs>
      <g>
       <use xlink:href="#m4cbade16cf" x="255.868409" y="381.014375" style="fill: #262626; stroke: #262626; stroke-width: 0.8"/>
      </g>
     </g>
     <g id="text_1">
      <text style="fill: #262626; font: 13px 'sans-serif'; text-anchor: middle" x="255.868409" y="399.819531" transform="rotate(-0, 255.868409, 399.819531)">40000</text>
     </g>
    </g>
    <g id="xtick_2">
     <g id="line2d_20">
      <g>
       <use xlink:href="#m4cbade16cf" x="346.181401" y="381.014375" style="fill: #262626; stroke: #262626; stroke-width: 0.8"/>
      </g>
     </g>
     <g id="text_2">
      <text style="fill: #262626; font: 13px 'sans-serif'; text-anchor: middle" x="346.181401" y="399.819531" transform="rotate(-0, 346.181401, 399.819531)">42000</text>
     </g>
    </g>
    <g id="xtick_3">
     <g id="line2d_21">
      <g>
       <use xlink:href="#m4cbade16cf" x="436.494393" y="381.014375" style="fill: #262626; stroke: #262626; stroke-width: 0.8"/>
      </g>
     </g>
     <g id="text_3">
      <text style="fill: #262626; font: 13px 'sans-serif'; text-anchor: middle" x="436.494393" y="399.819531" transform="rotate(-0, 436.494393, 399.819531)">44000</text>
     </g>
    </g>
    <g id="xtick_4">
     <g id="line2d_22">
      <g>
       <use xlink:href="#m4cbade16cf" x="526.807385" y="381.014375" style="fill: #262626; stroke: #262626; stroke-width: 0.8"/>
      </g>
     </g>
     <g id="text_4">
      <text style="fill: #262626; font: 13px 'sans-serif'; text-anchor: middle" x="526.807385" y="399.819531" transform="rotate(-0, 526.807385, 399.819531)">46000</text>
     </g>
    </g>
    <g id="xtick_5">
     <g id="line2d_23">
      <g>
       <use xlink:href="#m4cbade16cf" x="617.120377" y="381.014375" style="fill: #262626; stroke: #262626; stroke-width: 0.8"/>
      </g>
     </g>
     <g id="text_5">
      <text style="fill: #262626; font: 13px 'sans-serif'; text-anchor: middle" x="617.120377" y="399.819531" transform="rotate(-0, 617.120377, 399.819531)">48000</text>
     </g>
    </g>
   </g>
   <g id="matplotlib.axis_2">
    <g id="ytick_1">
     <g id="text_6">
      <text style="fill: #999999; font: 13px 'sans-serif'; text-anchor: end" x="212.776719" y="356.574317" transform="rotate(-0, 212.776719, 356.574317)">0.153 = 4-Guanidinobutyric acid</text>
     </g>
    </g>
    <g id="ytick_2">
     <g id="text_7">
      <text style="fill: #999999; font: 13px 'sans-serif'; text-anchor: end" x="212.776719" y="323.796951" transform="rotate(-0, 212.776719, 323.796951)">0.934 = TG 18:1_22:6_22:6</text>
     </g>
    </g>
    <g id="ytick_3">
     <g id="text_8">
      <text style="fill: #999999; font: 13px 'sans-serif'; text-anchor: end" x="212.776719" y="291.019586" transform="rotate(-0, 212.776719, 291.019586)">0.849 = TG 20:5_22:6_22:6</text>
     </g>
    </g>
    <g id="ytick_4">
     <g id="text_9">
      <text style="fill: #999999; font: 13px 'sans-serif'; text-anchor: end" x="212.776719" y="258.163001" transform="rotate(-0, 212.776719, 258.163001)">0.182 = SM d37:1</text>
     </g>
    </g>
    <g id="ytick_5">
     <g id="text_10">
      <text style="fill: #999999; font: 13px 'sans-serif'; text-anchor: end" x="212.776719" y="225.468917" transform="rotate(-0, 212.776719, 225.468917)">0.147 = Plasmanyl-PC O-20:0_20:4</text>
     </g>
    </g>
    <g id="ytick_6">
     <g id="text_11">
      <text style="fill: #999999; font: 13px 'sans-serif'; text-anchor: end" x="212.776719" y="192.60827" transform="rotate(-0, 212.776719, 192.60827)">1.454 = PC 38:7</text>
     </g>
    </g>
    <g id="ytick_7">
     <g id="text_12">
      <text style="fill: #999999; font: 13px 'sans-serif'; text-anchor: end" x="212.776719" y="159.830905" transform="rotate(-0, 212.776719, 159.830905)">−1.171 = PC 36:3</text>
     </g>
    </g>
    <g id="ytick_8">
     <g id="text_13">
      <text style="fill: #999999; font: 13px 'sans-serif'; text-anchor: end" x="212.776719" y="127.053539" transform="rotate(-0, 212.776719, 127.053539)">−1.64 = CE 18:1</text>
     </g>
    </g>
    <g id="ytick_9">
     <g id="text_14">
      <text style="fill: #999999; font: 13px 'sans-serif'; text-anchor: end" x="212.776719" y="94.276174" transform="rotate(-0, 212.776719, 94.276174)">−1.225 = FA 18:0</text>
     </g>
    </g>
    <g id="ytick_10">
     <g id="text_15">
      <text style="fill: #999999; font: 13px 'sans-serif'; text-anchor: end" x="212.776719" y="61.578027" transform="rotate(-0, 212.776719, 61.578027)">0.702 = TG 22:6_22:6_22:6</text>
     </g>
    </g>
    <g id="ytick_11">
     <g id="text_16">
      <text style="fill: #262626; font: 13px 'sans-serif'; text-anchor: end" x="212.776719" y="356.574316" transform="rotate(-0, 212.776719, 356.574316)"> 4-Guanidinobutyric acid</text>
     </g>
    </g>
    <g id="ytick_12">
     <g id="text_17">
      <text style="fill: #262626; font: 13px 'sans-serif'; text-anchor: end" x="212.776719" y="323.796951" transform="rotate(-0, 212.776719, 323.796951)"> TG 18:1_22:6_22:6</text>
     </g>
    </g>
    <g id="ytick_13">
     <g id="text_18">
      <text style="fill: #262626; font: 13px 'sans-serif'; text-anchor: end" x="212.776719" y="291.019585" transform="rotate(-0, 212.776719, 291.019585)"> TG 20:5_22:6_22:6</text>
     </g>
    </g>
    <g id="ytick_14">
     <g id="text_19">
      <text style="fill: #262626; font: 13px 'sans-serif'; text-anchor: end" x="212.776719" y="258.163001" transform="rotate(-0, 212.776719, 258.163001)"> SM d37:1</text>
     </g>
    </g>
    <g id="ytick_15">
     <g id="text_20">
      <text style="fill: #262626; font: 13px 'sans-serif'; text-anchor: end" x="212.776719" y="225.468917" transform="rotate(-0, 212.776719, 225.468917)"> Plasmanyl-PC O-20:0_20:4</text>
     </g>
    </g>
    <g id="ytick_16">
     <g id="text_21">
      <text style="fill: #262626; font: 13px 'sans-serif'; text-anchor: end" x="212.776719" y="192.60827" transform="rotate(-0, 212.776719, 192.60827)"> PC 38:7</text>
     </g>
    </g>
    <g id="ytick_17">
     <g id="text_22">
      <text style="fill: #262626; font: 13px 'sans-serif'; text-anchor: end" x="212.776719" y="159.830905" transform="rotate(-0, 212.776719, 159.830905)"> PC 36:3</text>
     </g>
    </g>
    <g id="ytick_18">
     <g id="text_23">
      <text style="fill: #262626; font: 13px 'sans-serif'; text-anchor: end" x="212.776719" y="127.053539" transform="rotate(-0, 212.776719, 127.053539)"> CE 18:1</text>
     </g>
    </g>
    <g id="ytick_19">
     <g id="text_24">
      <text style="fill: #262626; font: 13px 'sans-serif'; text-anchor: end" x="212.776719" y="94.276174" transform="rotate(-0, 212.776719, 94.276174)"> FA 18:0</text>
     </g>
    </g>
    <g id="ytick_20">
     <g id="text_25">
      <text style="fill: #262626; font: 13px 'sans-serif'; text-anchor: end" x="212.776719" y="61.578027" transform="rotate(-0, 212.776719, 61.578027)"> TG 22:6_22:6_22:6</text>
     </g>
    </g>
   </g>
   <g id="patch_3">
    <path d="M 473.545415 69.957176 
L 647.419576 69.957176 
L 647.419576 43.735284 
L 473.545415 43.735284 
L 473.545415 69.957176 
z
" clip-path="url(#pf6d12d280e)" style="fill: none; opacity: 0"/>
   </g>
   <g id="patch_4">
    <path d="M 345.799338 102.734542 
L 481.881549 102.734542 
L 481.881549 76.51265 
L 345.799338 76.51265 
L 345.799338 102.734542 
z
" clip-path="url(#pf6d12d280e)" style="fill: none; opacity: 0"/>
   </g>
   <g id="patch_5">
    <path d="M 222.276719 135.511907 
L 354.135473 135.511907 
L 354.135473 109.290015 
L 222.276719 109.290015 
L 222.276719 135.511907 
z
" clip-path="url(#pf6d12d280e)" style="fill: none; opacity: 0"/>
   </g>
   <g id="patch_6">
    <path d="M 388.286768 233.844004 
L 413.921168 233.844004 
L 413.921168 207.622112 
L 388.286768 207.622112 
L 388.286768 233.844004 
z
" clip-path="url(#pf6d12d280e)" style="fill: none; opacity: 0"/>
   </g>
   <g id="patch_7">
    <path d="M 371.660433 266.621369 
L 396.622902 266.621369 
L 396.622902 240.399477 
L 371.660433 240.399477 
L 371.660433 266.621369 
z
" clip-path="url(#pf6d12d280e)" style="fill: none; opacity: 0"/>
   </g>
   <g id="patch_8">
    <path d="M 373.125443 332.1761 
L 396.08263 332.1761 
L 396.08263 305.954208 
L 373.125443 305.954208 
L 373.125443 332.1761 
z
" clip-path="url(#pf6d12d280e)" style="fill: none; opacity: 0"/>
   </g>
   <g id="patch_9">
    <path d="M 360.662966 364.953466 
L 381.461578 364.953466 
L 381.461578 338.731574 
L 360.662966 338.731574 
L 360.662966 364.953466 
z
" clip-path="url(#pf6d12d280e)" style="fill: none; opacity: 0"/>
   </g>
   <g id="patch_10">
    <path d="M 323.78731 168.289273 
L 222.276719 168.289273 
L 222.276719 142.067381 
L 323.78731 142.067381 
L 323.78731 168.289273 
z
" clip-path="url(#pf6d12d280e)" style="fill: none; opacity: 0"/>
   </g>
   <g id="patch_11">
    <path d="M 413.921168 201.066638 
L 315.451176 201.066638 
L 315.451176 174.844746 
L 413.921168 174.844746 
L 413.921168 201.066638 
z
" clip-path="url(#pf6d12d280e)" style="fill: none; opacity: 0"/>
   </g>
   <g id="patch_12">
    <path d="M 396.08263 299.398735 
L 371.660433 299.398735 
L 371.660433 273.176843 
L 396.08263 273.176843 
L 396.08263 299.398735 
z
" clip-path="url(#pf6d12d280e)" style="fill: none; opacity: 0"/>
   </g>
   <g id="patch_13">
    <path d="M 643.251509 56.84623 
L 637.491509 69.957176 
L 637.491509 69.957176 
L 477.713482 69.957176 
L 477.713482 43.735284 
L 637.491509 43.735284 
L 637.491509 43.735284 
z
" clip-path="url(#pf6d12d280e)" style="fill: #ff0051; stroke: #ff0051; stroke-linejoin: miter"/>
   </g>
   <g id="patch_14">
    <path d="M 477.713482 89.623596 
L 471.953482 102.734542 
L 471.953482 102.734542 
L 349.967405 102.734542 
L 349.967405 76.51265 
L 471.953482 76.51265 
L 471.953482 76.51265 
z
" clip-path="url(#pf6d12d280e)" style="fill: #ff0051; stroke: #ff0051; stroke-linejoin: miter"/>
   </g>
   <g id="patch_15">
    <path d="M 349.967405 122.400961 
L 344.207405 135.511907 
L 344.207405 135.511907 
L 226.444786 135.511907 
L 226.444786 109.290015 
L 344.207405 109.290015 
L 344.207405 109.290015 
z
" clip-path="url(#pf6d12d280e)" style="fill: #ff0051; stroke: #ff0051; stroke-linejoin: miter"/>
   </g>
   <g id="patch_16">
    <path d="M 409.753101 220.733058 
L 403.993101 233.844004 
L 403.993101 233.844004 
L 392.454835 233.844004 
L 392.454835 207.622112 
L 403.993101 207.622112 
L 403.993101 207.622112 
z
" clip-path="url(#pf6d12d280e)" style="fill: #ff0051; stroke: #ff0051; stroke-linejoin: miter"/>
   </g>
   <g id="patch_17">
    <path d="M 392.454835 253.510423 
L 386.694835 266.621369 
L 386.694835 266.621369 
L 375.828501 266.621369 
L 375.828501 240.399477 
L 386.694835 240.399477 
L 386.694835 240.399477 
z
" clip-path="url(#pf6d12d280e)" style="fill: #ff0051; stroke: #ff0051; stroke-linejoin: miter"/>
   </g>
   <g id="patch_18">
    <path d="M 391.914563 319.065154 
L 386.154563 332.1761 
L 386.154563 332.1761 
L 377.293511 332.1761 
L 377.293511 305.954208 
L 386.154563 305.954208 
L 386.154563 305.954208 
z
" clip-path="url(#pf6d12d280e)" style="fill: #ff0051; stroke: #ff0051; stroke-linejoin: miter"/>
   </g>
   <g id="patch_19">
    <path d="M 377.293511 351.84252 
L 371.533511 364.953466 
L 371.533511 364.953466 
L 364.831034 364.953466 
L 364.831034 338.731574 
L 371.533511 338.731574 
L 371.533511 338.731574 
z
" clip-path="url(#pf6d12d280e)" style="fill: #ff0051; stroke: #ff0051; stroke-linejoin: miter"/>
   </g>
   <g id="patch_20">
    <path d="M 226.444786 155.178327 
L 232.204786 142.067381 
L 232.204786 142.067381 
L 319.619243 142.067381 
L 319.619243 168.289273 
L 232.204786 168.289273 
L 232.204786 168.289273 
z
" clip-path="url(#pf6d12d280e)" style="fill: #008bfb; stroke: #008bfb; stroke-linejoin: miter"/>
   </g>
   <g id="patch_21">
    <path d="M 319.619243 187.955692 
L 325.379243 174.844746 
L 325.379243 174.844746 
L 409.753101 174.844746 
L 409.753101 201.066638 
L 325.379243 201.066638 
L 325.379243 201.066638 
z
" clip-path="url(#pf6d12d280e)" style="fill: #008bfb; stroke: #008bfb; stroke-linejoin: miter"/>
   </g>
   <g id="patch_22">
    <path d="M 375.828501 286.287789 
L 381.588501 273.176843 
L 381.588501 273.176843 
L 391.914563 273.176843 
L 391.914563 299.398735 
L 381.588501 299.398735 
L 381.588501 299.398735 
z
" clip-path="url(#pf6d12d280e)" style="fill: #008bfb; stroke: #008bfb; stroke-linejoin: miter"/>
   </g>
   <g id="patch_23">
    <path d="M 222.276719 381.014375 
L 668.676719 381.014375 
" style="fill: none; stroke: #262626; stroke-width: 1.25; stroke-linejoin: miter; stroke-linecap: square"/>
   </g>
   <g id="text_26">
    <text style="fill: #ffffff; font: 12px 'sans-serif'; text-anchor: middle" x="560.482495" y="59.948418" transform="rotate(-0, 560.482495, 59.948418)">+3665.87</text>
   </g>
   <g id="text_27">
    <text style="fill: #ffffff; font: 12px 'sans-serif'; text-anchor: middle" x="413.840444" y="92.725783" transform="rotate(-0, 413.840444, 92.725783)">+2828.96</text>
   </g>
   <g id="text_28">
    <text style="fill: #ffffff; font: 12px 'sans-serif'; text-anchor: middle" x="288.206096" y="125.503149" transform="rotate(-0, 288.206096, 125.503149)">+2735.43</text>
   </g>
   <g id="text_29">
    <text style="fill: #ff0051; font: 12px 'sans-serif'; text-anchor: start" x="414.753101" y="223.835245" transform="rotate(-0, 414.753101, 223.835245)">+383.07</text>
   </g>
   <g id="text_30">
    <text style="fill: #ff0051; font: 12px 'sans-serif'; text-anchor: start" x="397.454835" y="256.612611" transform="rotate(-0, 397.454835, 256.612611)">+368.19</text>
   </g>
   <g id="text_31">
    <text style="fill: #ff0051; font: 12px 'sans-serif'; text-anchor: start" x="396.914563" y="322.167342" transform="rotate(-0, 396.914563, 322.167342)">+323.79</text>
   </g>
   <g id="text_32">
    <text style="fill: #ff0051; font: 12px 'sans-serif'; text-anchor: start" x="382.293511" y="354.944707" transform="rotate(-0, 382.293511, 354.944707)">+275.98</text>
   </g>
   <g id="text_33">
    <text style="fill: #ffffff; font: 12px 'sans-serif'; text-anchor: middle" x="273.032015" y="158.280514" transform="rotate(-0, 273.032015, 158.280514)">−2063.37</text>
   </g>
   <g id="text_34">
    <text style="fill: #ffffff; font: 12px 'sans-serif'; text-anchor: middle" x="364.686172" y="191.05788" transform="rotate(-0, 364.686172, 191.05788)">−1996.03</text>
   </g>
   <g id="text_35">
    <text style="fill: #008bfb; font: 12px 'sans-serif'; text-anchor: end" x="370.828501" y="289.389976" transform="rotate(-0, 370.828501, 289.389976)">−356.23</text>
   </g>
  </g>
  <g id="axes_2">
   <g id="matplotlib.axis_3">
    <g id="xtick_6">
     <g id="line2d_24">
      <g>
       <use xlink:href="#m4cbade16cf" x="364.831034" y="381.014375" style="fill: #262626; stroke: #262626; stroke-width: 0.8"/>
      </g>
     </g>
     <g id="text_36">
      <text style="fill: #262626; font: 12px 'sans-serif'" transform="translate(344.831034 399.10375)"/>
      <!-- $E[f(X)]$ -->
      <g style="fill: #262626" transform="translate(344.831034 411.796)">
       <text>
        <tspan style="font: oblique 12px 'DejaVu Sans'" x="0 12.263672 21.169922" y="-0.875">EfX</tspan>
        <tspan style="font: 12px 'DejaVu Sans'" x="7.582031 16.488281 29.390625 34.072266" y="-0.875">[()]</tspan>
       </text>
      </g>
     </g>
    </g>
    <g id="xtick_7">
     <g id="line2d_25">
      <g>
       <use xlink:href="#m4cbade16cf" x="364.831034" y="381.014375" style="fill: #262626; stroke: #262626; stroke-width: 0.8"/>
      </g>
     </g>
     <g id="text_37">
      <text style="fill: #999999; font: 12px 'sans-serif'" transform="translate(386.831034 400.10375)"/>
      <!-- $ = 42413$ -->
      <g style="fill: #999999" transform="translate(386.831034 412.796)">
       <text>
        <tspan style="font: 12px 'DejaVu Sans'" x="2.337891 14.730469 22.365234 30 37.634766 45.269531" y="-0.09375">=42413</tspan>
       </text>
      </g>
     </g>
    </g>
   </g>
   <g id="patch_24">
    <path d="M 222.276719 381.014375 
L 668.676719 381.014375 
" style="fill: none; stroke: #262626; stroke-width: 1.25; stroke-linejoin: miter; stroke-linecap: square"/>
   </g>
  </g>
  <g id="axes_3">
   <g id="matplotlib.axis_4">
    <g id="xtick_8">
     <g id="line2d_26">
      <defs>
       <path id="ma09be1f3e8" d="M 0 0 
L 0 -6 
" style="stroke: #262626; stroke-width: 0.8"/>
      </defs>
      <g>
       <use xlink:href="#ma09be1f3e8" x="643.251509" y="27.674375" style="fill: #262626; stroke: #262626; stroke-width: 0.8"/>
      </g>
     </g>
     <g id="text_38">
      <!-- $f(x)$ -->
      <g style="fill: #262626" transform="translate(633.251509 15.789375)">
       <text>
        <tspan style="font: oblique 12px 'DejaVu Sans'" x="0 8.90625" y="-0.875">fx</tspan>
        <tspan style="font: 12px 'DejaVu Sans'" x="4.224609 16.007812" y="-0.875">()</tspan>
       </text>
      </g>
     </g>
    </g>
    <g id="xtick_9">
     <g id="line2d_27">
      <g>
       <use xlink:href="#ma09be1f3e8" x="643.251509" y="27.674375" style="fill: #262626; stroke: #262626; stroke-width: 0.8"/>
      </g>
     </g>
     <g id="text_39">
      <!-- $ = 48578.679$ -->
      <g style="fill: #999999" transform="translate(655.251509 15.789375)">
       <text>
        <tspan style="font: 12px 'DejaVu Sans'" x="2.337891 14.730469 22.365234 30 36.759766 44.394531 52.029297 55.84375 63.478516 71.113281" y="-0.09375">=48578.679</tspan>
       </text>
      </g>
     </g>
    </g>
   </g>
   <g id="patch_25">
    <path d="M 222.276719 381.014375 
L 668.676719 381.014375 
" style="fill: none; stroke: #262626; stroke-width: 1.25; stroke-linejoin: miter; stroke-linecap: square"/>
   </g>
   <g id="text_40">
    <text style="fill: #262626; font: 15px 'sans-serif'; text-anchor: start" x="668.676719" y="60.027125" transform="rotate(-0, 668.676719, 60.027125)">48742.5</text>
   </g>
  </g>
 </g>
 <defs>
  <clipPath id="pf6d12d280e">
   <rect x="222.276719" y="27.674375" width="446.4" height="353.34"/>
  </clipPath>
 </defs>
</svg>
