<?xml version="1.0" encoding="utf-8" standalone="no"?>
<!DOCTYPE svg PUBLIC "-//W3C//DTD SVG 1.1//EN"
  "http://www.w3.org/Graphics/SVG/1.1/DTD/svg11.dtd">
<svg xmlns:xlink="http://www.w3.org/1999/xlink" width="742.044321pt" height="422.381pt" viewBox="0 0 742.044321 422.381" xmlns="http://www.w3.org/2000/svg" version="1.1">
 <metadata>
  <rdf:RDF xmlns:dc="http://purl.org/dc/elements/1.1/" xmlns:cc="http://creativecommons.org/ns#" xmlns:rdf="http://www.w3.org/1999/02/22-rdf-syntax-ns#">
   <cc:Work>
    <dc:type rdf:resource="http://purl.org/dc/dcmitype/StillImage"/>
    <dc:date>2022-10-11T11:06:25.688308</dc:date>
    <dc:format>image/svg+xml</dc:format>
    <dc:creator>
     <cc:Agent>
      <dc:title>Matplotlib v3.5.2, https://matplotlib.org/</dc:title>
     </cc:Agent>
    </dc:creator>
   </cc:Work>
  </rdf:RDF>
 </metadata>
 <defs>
  <style type="text/css">*{stroke-linejoin: round; stroke-linecap: butt}</style>
 </defs>
 <g id="figure_1">
  <g id="patch_1">
   <path d="M 0 422.381 
L 742.044321 422.381 
L 742.044321 0 
L 0 0 
z
" style="fill: #ffffff"/>
  </g>
  <g id="axes_1">
   <g id="patch_2">
    <path d="M 229.869531 381.014375 
L 676.269531 381.014375 
L 676.269531 27.674375 
L 229.869531 27.674375 
z
" style="fill: #ffffff"/>
   </g>
   <g id="line2d_1">
    <path d="M 483.937166 102.734542 
L 483.937166 43.735284 
" clip-path="url(#p0c6fe5e3c7)" style="fill: none; stroke-dasharray: 1.85,0.8; stroke-dashoffset: 0; stroke: #bbbbbb; stroke-width: 0.5"/>
   </g>
   <g id="line2d_2">
    <path d="M 408.413428 135.511907 
L 408.413428 76.51265 
" clip-path="url(#p0c6fe5e3c7)" style="fill: none; stroke-dasharray: 1.85,0.8; stroke-dashoffset: 0; stroke: #bbbbbb; stroke-width: 0.5"/>
   </g>
   <g id="line2d_3">
    <path d="M 334.97635 168.289273 
L 334.97635 109.290015 
" clip-path="url(#p0c6fe5e3c7)" style="fill: none; stroke-dasharray: 1.85,0.8; stroke-dashoffset: 0; stroke: #bbbbbb; stroke-width: 0.5"/>
   </g>
   <g id="line2d_4">
    <path d="M 283.957769 201.066638 
L 283.957769 142.067381 
" clip-path="url(#p0c6fe5e3c7)" style="fill: none; stroke-dasharray: 1.85,0.8; stroke-dashoffset: 0; stroke: #bbbbbb; stroke-width: 0.5"/>
   </g>
   <g id="line2d_5">
    <path d="M 234.037598 233.844004 
L 234.037598 174.844746 
" clip-path="url(#p0c6fe5e3c7)" style="fill: none; stroke-dasharray: 1.85,0.8; stroke-dashoffset: 0; stroke: #bbbbbb; stroke-width: 0.5"/>
   </g>
   <g id="line2d_6">
    <path d="M 273.278632 266.621369 
L 273.278632 207.622112 
" clip-path="url(#p0c6fe5e3c7)" style="fill: none; stroke-dasharray: 1.85,0.8; stroke-dashoffset: 0; stroke: #bbbbbb; stroke-width: 0.5"/>
   </g>
   <g id="line2d_7">
    <path d="M 229.869531 351.84252 
L 676.269531 351.84252 
" clip-path="url(#p0c6fe5e3c7)" style="fill: none; stroke-dasharray: 0.5,2.5; stroke-dashoffset: 0; stroke: #cccccc; stroke-width: 0.5"/>
   </g>
   <g id="line2d_8">
    <path d="M 229.869531 319.065154 
L 676.269531 319.065154 
" clip-path="url(#p0c6fe5e3c7)" style="fill: none; stroke-dasharray: 0.5,2.5; stroke-dashoffset: 0; stroke: #cccccc; stroke-width: 0.5"/>
   </g>
   <g id="line2d_9">
    <path d="M 229.869531 286.287789 
L 676.269531 286.287789 
" clip-path="url(#p0c6fe5e3c7)" style="fill: none; stroke-dasharray: 0.5,2.5; stroke-dashoffset: 0; stroke: #cccccc; stroke-width: 0.5"/>
   </g>
   <g id="line2d_10">
    <path d="M 229.869531 253.510423 
L 676.269531 253.510423 
" clip-path="url(#p0c6fe5e3c7)" style="fill: none; stroke-dasharray: 0.5,2.5; stroke-dashoffset: 0; stroke: #cccccc; stroke-width: 0.5"/>
   </g>
   <g id="line2d_11">
    <path d="M 229.869531 220.733058 
L 676.269531 220.733058 
" clip-path="url(#p0c6fe5e3c7)" style="fill: none; stroke-dasharray: 0.5,2.5; stroke-dashoffset: 0; stroke: #cccccc; stroke-width: 0.5"/>
   </g>
   <g id="line2d_12">
    <path d="M 229.869531 187.955692 
L 676.269531 187.955692 
" clip-path="url(#p0c6fe5e3c7)" style="fill: none; stroke-dasharray: 0.5,2.5; stroke-dashoffset: 0; stroke: #cccccc; stroke-width: 0.5"/>
   </g>
   <g id="line2d_13">
    <path d="M 229.869531 155.178327 
L 676.269531 155.178327 
" clip-path="url(#p0c6fe5e3c7)" style="fill: none; stroke-dasharray: 0.5,2.5; stroke-dashoffset: 0; stroke: #cccccc; stroke-width: 0.5"/>
   </g>
   <g id="line2d_14">
    <path d="M 229.869531 122.400961 
L 676.269531 122.400961 
" clip-path="url(#p0c6fe5e3c7)" style="fill: none; stroke-dasharray: 0.5,2.5; stroke-dashoffset: 0; stroke: #cccccc; stroke-width: 0.5"/>
   </g>
   <g id="line2d_15">
    <path d="M 229.869531 89.623596 
L 676.269531 89.623596 
" clip-path="url(#p0c6fe5e3c7)" style="fill: none; stroke-dasharray: 0.5,2.5; stroke-dashoffset: 0; stroke: #cccccc; stroke-width: 0.5"/>
   </g>
   <g id="line2d_16">
    <path d="M 229.869531 56.84623 
L 676.269531 56.84623 
" clip-path="url(#p0c6fe5e3c7)" style="fill: none; stroke-dasharray: 0.5,2.5; stroke-dashoffset: 0; stroke: #cccccc; stroke-width: 0.5"/>
   </g>
   <g id="line2d_17">
    <path d="M 256.291846 381.014375 
L 256.291846 345.680375 
" clip-path="url(#p0c6fe5e3c7)" style="fill: none; stroke-dasharray: 1.85,0.8; stroke-dashoffset: 0; stroke: #bbbbbb; stroke-width: 0.5"/>
   </g>
   <g id="line2d_18">
    <path d="M 650.844321 381.014375 
L 650.844321 27.674375 
" clip-path="url(#p0c6fe5e3c7)" style="fill: none; stroke-dasharray: 1.85,0.8; stroke-dashoffset: 0; stroke: #bbbbbb; stroke-width: 0.5"/>
   </g>
   <g id="matplotlib.axis_1">
    <g id="xtick_1">
     <g id="line2d_19">
      <defs>
       <path id="m471f1ac15f" d="M 0 0 
L 0 6 
" style="stroke: #262626; stroke-width: 0.8"/>
      </defs>
      <g>
       <use xlink:href="#m471f1ac15f" x="238.298888" y="381.014375" style="fill: #262626; stroke: #262626; stroke-width: 0.8"/>
      </g>
     </g>
     <g id="text_1">
      <text style="fill: #262626; font: 13px 'sans-serif'; text-anchor: middle" x="238.298888" y="399.819531" transform="rotate(-0, 238.298888, 399.819531)">42000</text>
     </g>
    </g>
    <g id="xtick_2">
     <g id="line2d_20">
      <g>
       <use xlink:href="#m471f1ac15f" x="325.431856" y="381.014375" style="fill: #262626; stroke: #262626; stroke-width: 0.8"/>
      </g>
     </g>
     <g id="text_2">
      <text style="fill: #262626; font: 13px 'sans-serif'; text-anchor: middle" x="325.431856" y="399.819531" transform="rotate(-0, 325.431856, 399.819531)">44000</text>
     </g>
    </g>
    <g id="xtick_3">
     <g id="line2d_21">
      <g>
       <use xlink:href="#m471f1ac15f" x="412.564825" y="381.014375" style="fill: #262626; stroke: #262626; stroke-width: 0.8"/>
      </g>
     </g>
     <g id="text_3">
      <text style="fill: #262626; font: 13px 'sans-serif'; text-anchor: middle" x="412.564825" y="399.819531" transform="rotate(-0, 412.564825, 399.819531)">46000</text>
     </g>
    </g>
    <g id="xtick_4">
     <g id="line2d_22">
      <g>
       <use xlink:href="#m471f1ac15f" x="499.697794" y="381.014375" style="fill: #262626; stroke: #262626; stroke-width: 0.8"/>
      </g>
     </g>
     <g id="text_4">
      <text style="fill: #262626; font: 13px 'sans-serif'; text-anchor: middle" x="499.697794" y="399.819531" transform="rotate(-0, 499.697794, 399.819531)">48000</text>
     </g>
    </g>
    <g id="xtick_5">
     <g id="line2d_23">
      <g>
       <use xlink:href="#m471f1ac15f" x="586.830763" y="381.014375" style="fill: #262626; stroke: #262626; stroke-width: 0.8"/>
      </g>
     </g>
     <g id="text_5">
      <text style="fill: #262626; font: 13px 'sans-serif'; text-anchor: middle" x="586.830763" y="399.819531" transform="rotate(-0, 586.830763, 399.819531)">50000</text>
     </g>
    </g>
    <g id="xtick_6">
     <g id="line2d_24">
      <g>
       <use xlink:href="#m471f1ac15f" x="673.963731" y="381.014375" style="fill: #262626; stroke: #262626; stroke-width: 0.8"/>
      </g>
     </g>
     <g id="text_6">
      <text style="fill: #262626; font: 13px 'sans-serif'; text-anchor: middle" x="673.963731" y="399.819531" transform="rotate(-0, 673.963731, 399.819531)">52000</text>
     </g>
    </g>
   </g>
   <g id="matplotlib.axis_2">
    <g id="ytick_1">
     <g id="text_7">
      <text style="fill: #999999; font: 13px 'sans-serif'; text-anchor: end" x="220.369531" y="356.495098" transform="rotate(-0, 220.369531, 356.495098)">0.054 = FA 18:0</text>
     </g>
    </g>
    <g id="ytick_2">
     <g id="text_8">
      <text style="fill: #999999; font: 13px 'sans-serif'; text-anchor: end" x="220.369531" y="323.796951" transform="rotate(-0, 220.369531, 323.796951)">0.331 = TG 20:5_22:6_22:6</text>
     </g>
    </g>
    <g id="ytick_3">
     <g id="text_9">
      <text style="fill: #999999; font: 13px 'sans-serif'; text-anchor: end" x="220.369531" y="290.940367" transform="rotate(-0, 220.369531, 290.940367)">0.156 = PC 36:3</text>
     </g>
    </g>
    <g id="ytick_4">
     <g id="text_10">
      <text style="fill: #999999; font: 13px 'sans-serif'; text-anchor: end" x="220.369531" y="258.24222" transform="rotate(-0, 220.369531, 258.24222)">1.093 = TG 18:1_22:6_22:6</text>
     </g>
    </g>
    <g id="ytick_5">
     <g id="text_11">
      <text style="fill: #999999; font: 13px 'sans-serif'; text-anchor: end" x="220.369531" y="225.468917" transform="rotate(-0, 220.369531, 225.468917)">−0.345 = Plasmanyl-PC O-20:0_20:4</text>
     </g>
    </g>
    <g id="ytick_6">
     <g id="text_12">
      <text style="fill: #999999; font: 13px 'sans-serif'; text-anchor: end" x="220.369531" y="192.60827" transform="rotate(-0, 220.369531, 192.60827)">−0.687 = CE 18:1</text>
     </g>
    </g>
    <g id="ytick_7">
     <g id="text_13">
      <text style="fill: #999999; font: 13px 'sans-serif'; text-anchor: end" x="220.369531" y="159.830905" transform="rotate(-0, 220.369531, 159.830905)">−0.853 = PC 38:7</text>
     </g>
    </g>
    <g id="ytick_8">
     <g id="text_14">
      <text style="fill: #999999; font: 13px 'sans-serif'; text-anchor: end" x="220.369531" y="127.053539" transform="rotate(-0, 220.369531, 127.053539)">0.832 = SM d37:1</text>
     </g>
    </g>
    <g id="ytick_9">
     <g id="text_15">
      <text style="fill: #999999; font: 13px 'sans-serif'; text-anchor: end" x="220.369531" y="94.355393" transform="rotate(-0, 220.369531, 94.355393)">0.96 = 4-Guanidinobutyric acid</text>
     </g>
    </g>
    <g id="ytick_10">
     <g id="text_16">
      <text style="fill: #999999; font: 13px 'sans-serif'; text-anchor: end" x="220.369531" y="61.578027" transform="rotate(-0, 220.369531, 61.578027)">0.734 = TG 22:6_22:6_22:6</text>
     </g>
    </g>
    <g id="ytick_11">
     <g id="text_17">
      <text style="fill: #262626; font: 13px 'sans-serif'; text-anchor: end" x="220.369531" y="356.495098" transform="rotate(-0, 220.369531, 356.495098)"> FA 18:0</text>
     </g>
    </g>
    <g id="ytick_12">
     <g id="text_18">
      <text style="fill: #262626; font: 13px 'sans-serif'; text-anchor: end" x="220.369531" y="323.796951" transform="rotate(-0, 220.369531, 323.796951)"> TG 20:5_22:6_22:6</text>
     </g>
    </g>
    <g id="ytick_13">
     <g id="text_19">
      <text style="fill: #262626; font: 13px 'sans-serif'; text-anchor: end" x="220.369531" y="290.940367" transform="rotate(-0, 220.369531, 290.940367)"> PC 36:3</text>
     </g>
    </g>
    <g id="ytick_14">
     <g id="text_20">
      <text style="fill: #262626; font: 13px 'sans-serif'; text-anchor: end" x="220.369531" y="258.24222" transform="rotate(-0, 220.369531, 258.24222)"> TG 18:1_22:6_22:6</text>
     </g>
    </g>
    <g id="ytick_15">
     <g id="text_21">
      <text style="fill: #262626; font: 13px 'sans-serif'; text-anchor: end" x="220.369531" y="225.468917" transform="rotate(-0, 220.369531, 225.468917)"> Plasmanyl-PC O-20:0_20:4</text>
     </g>
    </g>
    <g id="ytick_16">
     <g id="text_22">
      <text style="fill: #262626; font: 13px 'sans-serif'; text-anchor: end" x="220.369531" y="192.60827" transform="rotate(-0, 220.369531, 192.60827)"> CE 18:1</text>
     </g>
    </g>
    <g id="ytick_17">
     <g id="text_23">
      <text style="fill: #262626; font: 13px 'sans-serif'; text-anchor: end" x="220.369531" y="159.830905" transform="rotate(-0, 220.369531, 159.830905)"> PC 38:7</text>
     </g>
    </g>
    <g id="ytick_18">
     <g id="text_24">
      <text style="fill: #262626; font: 13px 'sans-serif'; text-anchor: end" x="220.369531" y="127.053539" transform="rotate(-0, 220.369531, 127.053539)"> SM d37:1</text>
     </g>
    </g>
    <g id="ytick_19">
     <g id="text_25">
      <text style="fill: #262626; font: 13px 'sans-serif'; text-anchor: end" x="220.369531" y="94.355392" transform="rotate(-0, 220.369531, 94.355392)"> 4-Guanidinobutyric acid</text>
     </g>
    </g>
    <g id="ytick_20">
     <g id="text_26">
      <text style="fill: #262626; font: 13px 'sans-serif'; text-anchor: end" x="220.369531" y="61.578027" transform="rotate(-0, 220.369531, 61.578027)"> TG 22:6_22:6_22:6</text>
     </g>
    </g>
   </g>
   <g id="patch_3">
    <path d="M 479.769098 69.957176 
L 655.012388 69.957176 
L 655.012388 43.735284 
L 479.769098 43.735284 
L 479.769098 69.957176 
z
" clip-path="url(#p0c6fe5e3c7)" style="fill: none; opacity: 0"/>
   </g>
   <g id="patch_4">
    <path d="M 404.245361 102.734542 
L 488.105233 102.734542 
L 488.105233 76.51265 
L 404.245361 76.51265 
L 404.245361 102.734542 
z
" clip-path="url(#p0c6fe5e3c7)" style="fill: none; opacity: 0"/>
   </g>
   <g id="patch_5">
    <path d="M 330.808283 135.511907 
L 412.581495 135.511907 
L 412.581495 109.290015 
L 330.808283 109.290015 
L 330.808283 135.511907 
z
" clip-path="url(#p0c6fe5e3c7)" style="fill: none; opacity: 0"/>
   </g>
   <g id="patch_6">
    <path d="M 279.789702 168.289273 
L 339.144418 168.289273 
L 339.144418 142.067381 
L 279.789702 142.067381 
L 279.789702 168.289273 
z
" clip-path="url(#p0c6fe5e3c7)" style="fill: none; opacity: 0"/>
   </g>
   <g id="patch_7">
    <path d="M 229.869531 201.066638 
L 288.125836 201.066638 
L 288.125836 174.844746 
L 229.869531 174.844746 
L 229.869531 201.066638 
z
" clip-path="url(#p0c6fe5e3c7)" style="fill: none; opacity: 0"/>
   </g>
   <g id="patch_8">
    <path d="M 252.604284 266.621369 
L 277.446699 266.621369 
L 277.446699 240.399477 
L 252.604284 240.399477 
L 252.604284 266.621369 
z
" clip-path="url(#p0c6fe5e3c7)" style="fill: none; opacity: 0"/>
   </g>
   <g id="patch_9">
    <path d="M 240.631152 299.398735 
L 260.940418 299.398735 
L 260.940418 273.176843 
L 240.631152 273.176843 
L 240.631152 299.398735 
z
" clip-path="url(#p0c6fe5e3c7)" style="fill: none; opacity: 0"/>
   </g>
   <g id="patch_10">
    <path d="M 277.446699 233.844004 
L 229.869531 233.844004 
L 229.869531 207.622112 
L 277.446699 207.622112 
L 277.446699 233.844004 
z
" clip-path="url(#p0c6fe5e3c7)" style="fill: none; opacity: 0"/>
   </g>
   <g id="patch_11">
    <path d="M 255.011008 332.1761 
L 240.631152 332.1761 
L 240.631152 305.954208 
L 255.011008 305.954208 
L 255.011008 332.1761 
z
" clip-path="url(#p0c6fe5e3c7)" style="fill: none; opacity: 0"/>
   </g>
   <g id="patch_12">
    <path d="M 260.459913 364.953466 
L 246.674873 364.953466 
L 246.674873 338.731574 
L 260.459913 338.731574 
L 260.459913 364.953466 
z
" clip-path="url(#p0c6fe5e3c7)" style="fill: none; opacity: 0"/>
   </g>
   <g id="patch_13">
    <path d="M 650.844321 56.84623 
L 645.084321 69.957176 
L 645.084321 69.957176 
L 483.937166 69.957176 
L 483.937166 43.735284 
L 645.084321 43.735284 
L 645.084321 43.735284 
z
" clip-path="url(#p0c6fe5e3c7)" style="fill: #ff0051; stroke: #ff0051; stroke-linejoin: miter"/>
   </g>
   <g id="patch_14">
    <path d="M 483.937166 89.623596 
L 478.177166 102.734542 
L 478.177166 102.734542 
L 408.413428 102.734542 
L 408.413428 76.51265 
L 478.177166 76.51265 
L 478.177166 76.51265 
z
" clip-path="url(#p0c6fe5e3c7)" style="fill: #ff0051; stroke: #ff0051; stroke-linejoin: miter"/>
   </g>
   <g id="patch_15">
    <path d="M 408.413428 122.400961 
L 402.653428 135.511907 
L 402.653428 135.511907 
L 334.97635 135.511907 
L 334.97635 109.290015 
L 402.653428 109.290015 
L 402.653428 109.290015 
z
" clip-path="url(#p0c6fe5e3c7)" style="fill: #ff0051; stroke: #ff0051; stroke-linejoin: miter"/>
   </g>
   <g id="patch_16">
    <path d="M 334.97635 155.178327 
L 329.21635 168.289273 
L 329.21635 168.289273 
L 283.957769 168.289273 
L 283.957769 142.067381 
L 329.21635 142.067381 
L 329.21635 142.067381 
z
" clip-path="url(#p0c6fe5e3c7)" style="fill: #ff0051; stroke: #ff0051; stroke-linejoin: miter"/>
   </g>
   <g id="patch_17">
    <path d="M 283.957769 187.955692 
L 278.197769 201.066638 
L 278.197769 201.066638 
L 234.037598 201.066638 
L 234.037598 174.844746 
L 278.197769 174.844746 
L 278.197769 174.844746 
z
" clip-path="url(#p0c6fe5e3c7)" style="fill: #ff0051; stroke: #ff0051; stroke-linejoin: miter"/>
   </g>
   <g id="patch_18">
    <path d="M 273.278632 253.510423 
L 267.518632 266.621369 
L 267.518632 266.621369 
L 256.772351 266.621369 
L 256.772351 240.399477 
L 267.518632 240.399477 
L 267.518632 240.399477 
z
" clip-path="url(#p0c6fe5e3c7)" style="fill: #ff0051; stroke: #ff0051; stroke-linejoin: miter"/>
   </g>
   <g id="patch_19">
    <path d="M 256.772351 286.287789 
L 251.012351 299.398735 
L 251.012351 299.398735 
L 244.799219 299.398735 
L 244.799219 273.176843 
L 251.012351 273.176843 
L 251.012351 273.176843 
z
" clip-path="url(#p0c6fe5e3c7)" style="fill: #ff0051; stroke: #ff0051; stroke-linejoin: miter"/>
   </g>
   <g id="patch_20">
    <path d="M 234.037598 220.733058 
L 239.797598 207.622112 
L 239.797598 207.622112 
L 273.278632 207.622112 
L 273.278632 233.844004 
L 239.797598 233.844004 
L 239.797598 233.844004 
z
" clip-path="url(#p0c6fe5e3c7)" style="fill: #008bfb; stroke: #008bfb; stroke-linejoin: miter"/>
   </g>
   <g id="patch_21">
    <path d="M 244.799219 319.065154 
L 250.559219 305.954208 
L 250.559219 305.954208 
L 250.842941 305.954208 
L 250.842941 332.1761 
L 250.559219 332.1761 
L 250.559219 332.1761 
z
" clip-path="url(#p0c6fe5e3c7)" style="fill: #008bfb; stroke: #008bfb; stroke-linejoin: miter"/>
   </g>
   <g id="patch_22">
    <path d="M 250.842941 351.84252 
L 256.291846 338.731574 
L 256.291846 338.731574 
L 256.291846 338.731574 
L 256.291846 364.953466 
L 256.291846 364.953466 
L 256.291846 364.953466 
z
" clip-path="url(#p0c6fe5e3c7)" style="fill: #008bfb; stroke: #008bfb; stroke-linejoin: miter"/>
   </g>
   <g id="patch_23">
    <path d="M 229.869531 381.014375 
L 676.269531 381.014375 
" style="fill: none; stroke: #262626; stroke-width: 1.25; stroke-linejoin: miter; stroke-linecap: square"/>
   </g>
   <g id="text_27">
    <text style="fill: #ffffff; font: 12px 'sans-serif'; text-anchor: middle" x="567.390743" y="59.948418" transform="rotate(-0, 567.390743, 59.948418)">+3831.09</text>
   </g>
   <g id="text_28">
    <text style="fill: #ffffff; font: 12px 'sans-serif'; text-anchor: middle" x="446.175297" y="92.725783" transform="rotate(-0, 446.175297, 92.725783)">+1733.53</text>
   </g>
   <g id="text_29">
    <text style="fill: #ffffff; font: 12px 'sans-serif'; text-anchor: middle" x="371.694889" y="125.503149" transform="rotate(-0, 371.694889, 125.503149)">+1685.63</text>
   </g>
   <g id="text_30">
    <text style="fill: #ffffff; font: 12px 'sans-serif'; text-anchor: middle" x="309.46706" y="158.280514" transform="rotate(-0, 309.46706, 158.280514)">+1171.05</text>
   </g>
   <g id="text_31">
    <text style="fill: #ffffff; font: 12px 'sans-serif'; text-anchor: middle" x="258.997684" y="191.05788" transform="rotate(-0, 258.997684, 191.05788)">+1145.84</text>
   </g>
   <g id="text_32">
    <text style="fill: #ff0051; font: 12px 'sans-serif'; text-anchor: start" x="278.278632" y="256.612611" transform="rotate(-0, 278.278632, 256.612611)">+378.88</text>
   </g>
   <g id="text_33">
    <text style="fill: #ff0051; font: 12px 'sans-serif'; text-anchor: start" x="261.772351" y="289.389976" transform="rotate(-0, 261.772351, 289.389976)">+274.82</text>
   </g>
   <g id="text_34">
    <text style="fill: #008bfb; font: 12px 'sans-serif'; text-anchor: end" x="229.037598" y="223.835245" transform="rotate(-0, 229.037598, 223.835245)">−900.72</text>
   </g>
   <g id="text_35">
    <text style="fill: #008bfb; font: 12px 'sans-serif'; text-anchor: end" x="239.799219" y="322.167342" transform="rotate(-0, 239.799219, 322.167342)">−138.72</text>
   </g>
   <g id="text_36">
    <text style="fill: #008bfb; font: 12px 'sans-serif'; text-anchor: end" x="245.842941" y="354.944707" transform="rotate(-0, 245.842941, 354.944707)">−125.07</text>
   </g>
  </g>
  <g id="axes_2">
   <g id="matplotlib.axis_3">
    <g id="xtick_7">
     <g id="line2d_25">
      <g>
       <use xlink:href="#m471f1ac15f" x="256.291846" y="381.014375" style="fill: #262626; stroke: #262626; stroke-width: 0.8"/>
      </g>
     </g>
     <g id="text_37">
      <text style="fill: #262626; font: 12px 'sans-serif'" transform="translate(236.291846 399.10375)"/>
      <!-- $E[f(X)]$ -->
      <g style="fill: #262626" transform="translate(236.291846 411.796)">
       <text>
        <tspan style="font: oblique 12px 'DejaVu Sans'" x="0 12.263672 21.169922" y="-0.875">EfX</tspan>
        <tspan style="font: 12px 'DejaVu Sans'" x="7.582031 16.488281 29.390625 34.072266" y="-0.875">[()]</tspan>
       </text>
      </g>
     </g>
    </g>
    <g id="xtick_8">
     <g id="line2d_26">
      <g>
       <use xlink:href="#m471f1ac15f" x="256.291846" y="381.014375" style="fill: #262626; stroke: #262626; stroke-width: 0.8"/>
      </g>
     </g>
     <g id="text_38">
      <text style="fill: #999999; font: 12px 'sans-serif'" transform="translate(278.291846 400.10375)"/>
      <!-- $ = 42413$ -->
      <g style="fill: #999999" transform="translate(278.291846 412.796)">
       <text>
        <tspan style="font: 12px 'DejaVu Sans'" x="2.337891 14.730469 22.365234 30 37.634766 45.269531" y="-0.09375">=42413</tspan>
       </text>
      </g>
     </g>
    </g>
   </g>
   <g id="patch_24">
    <path d="M 229.869531 381.014375 
L 676.269531 381.014375 
" style="fill: none; stroke: #262626; stroke-width: 1.25; stroke-linejoin: miter; stroke-linecap: square"/>
   </g>
  </g>
  <g id="axes_3">
   <g id="matplotlib.axis_4">
    <g id="xtick_9">
     <g id="line2d_27">
      <defs>
       <path id="mf060aa6120" d="M 0 0 
L 0 -6 
" style="stroke: #262626; stroke-width: 0.8"/>
      </defs>
      <g>
       <use xlink:href="#mf060aa6120" x="650.844321" y="27.674375" style="fill: #262626; stroke: #262626; stroke-width: 0.8"/>
      </g>
     </g>
     <g id="text_39">
      <!-- $f(x)$ -->
      <g style="fill: #262626" transform="translate(640.844321 15.789375)">
       <text>
        <tspan style="font: oblique 12px 'DejaVu Sans'" x="0 8.90625" y="-0.875">fx</tspan>
        <tspan style="font: 12px 'DejaVu Sans'" x="4.224609 16.007812" y="-0.875">()</tspan>
       </text>
      </g>
     </g>
    </g>
    <g id="xtick_10">
     <g id="line2d_28">
      <g>
       <use xlink:href="#mf060aa6120" x="650.844321" y="27.674375" style="fill: #262626; stroke: #262626; stroke-width: 0.8"/>
      </g>
     </g>
     <g id="text_40">
      <!-- $ = 51469.33$ -->
      <g style="fill: #999999" transform="translate(662.844321 15.789375)">
       <text>
        <tspan style="font: 12px 'DejaVu Sans'" x="2.337891 14.730469 22.365234 30 37.634766 45.269531 52.904297 56.71875 64.353516" y="-0.09375">=51469.33</tspan>
       </text>
      </g>
     </g>
    </g>
   </g>
   <g id="patch_25">
    <path d="M 229.869531 381.014375 
L 676.269531 381.014375 
" style="fill: none; stroke: #262626; stroke-width: 1.25; stroke-linejoin: miter; stroke-linecap: square"/>
   </g>
   <g id="text_41">
    <text style="fill: #262626; font: 15px 'sans-serif'; text-anchor: start" x="676.269531" y="60.027125" transform="rotate(-0, 676.269531, 60.027125)">56462.5</text>
   </g>
  </g>
 </g>
 <defs>
  <clipPath id="p0c6fe5e3c7">
   <rect x="229.869531" y="27.674375" width="446.4" height="353.34"/>
  </clipPath>
 </defs>
</svg>
