<?xml version="1.0" encoding="utf-8" standalone="no"?>
<!DOCTYPE svg PUBLIC "-//W3C//DTD SVG 1.1//EN"
  "http://www.w3.org/Graphics/SVG/1.1/DTD/svg11.dtd">
<svg xmlns:xlink="http://www.w3.org/1999/xlink" width="913.551875pt" height="739.812187pt" viewBox="0 0 913.551875 739.812187" xmlns="http://www.w3.org/2000/svg" version="1.1">
 <metadata>
  <rdf:RDF xmlns:dc="http://purl.org/dc/elements/1.1/" xmlns:cc="http://creativecommons.org/ns#" xmlns:rdf="http://www.w3.org/1999/02/22-rdf-syntax-ns#">
   <cc:Work>
    <dc:type rdf:resource="http://purl.org/dc/dcmitype/StillImage"/>
    <dc:date>2022-06-01T12:29:50.938930</dc:date>
    <dc:format>image/svg+xml</dc:format>
    <dc:creator>
     <cc:Agent>
      <dc:title>Matplotlib v3.5.2, https://matplotlib.org/</dc:title>
     </cc:Agent>
    </dc:creator>
   </cc:Work>
  </rdf:RDF>
 </metadata>
 <defs>
  <style type="text/css">*{stroke-linejoin: round; stroke-linecap: butt}</style>
 </defs>
 <g id="figure_1">
  <g id="patch_1">
   <path d="M 0 739.812187 
L 913.551875 739.812187 
L 913.551875 0 
L 0 0 
z
" style="fill: #ffffff"/>
  </g>
  <g id="axes_1">
   <g id="patch_2">
    <path d="M 125.151875 684.36 
L 574.73751 684.36 
L 574.73751 86.4 
L 125.151875 86.4 
z
" style="fill: #ffffff"/>
   </g>
   <g id="LineCollection_1">
    <path d="M 149.011604 116.89596 
L 145.587586 116.89596 
" clip-path="url(#p41a0f91d6a)" style="fill: none; stroke: #808080; stroke-width: 3"/>
    <path d="M 262.824872 176.69196 
L 181.819919 176.69196 
" clip-path="url(#p41a0f91d6a)" style="fill: none; stroke: #808080; stroke-width: 3"/>
    <path d="M 263.615794 236.48796 
L 207.699016 236.48796 
" clip-path="url(#p41a0f91d6a)" style="fill: none; stroke: #808080; stroke-width: 3"/>
    <path d="M 184.081611 296.28396 
L 459.285533 296.28396 
" clip-path="url(#p41a0f91d6a)" style="fill: none; stroke: #808080; stroke-width: 3"/>
    <path d="M 195.366964 356.07996 
L 302.386278 356.07996 
" clip-path="url(#p41a0f91d6a)" style="fill: none; stroke: #808080; stroke-width: 3"/>
    <path d="M 217.274834 415.87596 
L 270.90895 415.87596 
" clip-path="url(#p41a0f91d6a)" style="fill: none; stroke: #808080; stroke-width: 3"/>
    <path d="M 218.696478 475.67196 
L 279.855428 475.67196 
" clip-path="url(#p41a0f91d6a)" style="fill: none; stroke: #808080; stroke-width: 3"/>
    <path d="M 251.453324 535.46796 
L 278.275743 535.46796 
" clip-path="url(#p41a0f91d6a)" style="fill: none; stroke: #808080; stroke-width: 3"/>
    <path d="M 264.445301 595.26396 
L 271.146715 595.26396 
" clip-path="url(#p41a0f91d6a)" style="fill: none; stroke: #808080; stroke-width: 3"/>
    <path d="M 290.563415 655.05996 
L 554.3018 655.05996 
" clip-path="url(#p41a0f91d6a)" style="fill: none; stroke: #808080; stroke-width: 3"/>
   </g>
   <g id="matplotlib.axis_1">
    <g id="xtick_1">
     <g id="line2d_1">
      <defs>
       <path id="m58fcdc2223" d="M 0 0 
L 0 6 
" style="stroke: #262626; stroke-width: 0.8"/>
      </defs>
      <g>
       <use xlink:href="#m58fcdc2223" x="174.599682" y="684.36" style="fill: #262626; stroke: #262626; stroke-width: 0.8"/>
      </g>
     </g>
     <g id="text_1">
      <text style="fill: #262626; font: 20px 'sans-serif'; text-anchor: middle" x="174.599682" y="708.175625" transform="rotate(-0, 174.599682, 708.175625)">25</text>
     </g>
    </g>
    <g id="xtick_2">
     <g id="line2d_2">
      <g>
       <use xlink:href="#m58fcdc2223" x="243.761501" y="684.36" style="fill: #262626; stroke: #262626; stroke-width: 0.8"/>
      </g>
     </g>
     <g id="text_2">
      <text style="fill: #262626; font: 20px 'sans-serif'; text-anchor: middle" x="243.761501" y="708.175625" transform="rotate(-0, 243.761501, 708.175625)">30</text>
     </g>
    </g>
    <g id="xtick_3">
     <g id="line2d_3">
      <g>
       <use xlink:href="#m58fcdc2223" x="312.92332" y="684.36" style="fill: #262626; stroke: #262626; stroke-width: 0.8"/>
      </g>
     </g>
     <g id="text_3">
      <text style="fill: #262626; font: 20px 'sans-serif'; text-anchor: middle" x="312.92332" y="708.175625" transform="rotate(-0, 312.92332, 708.175625)">35</text>
     </g>
    </g>
    <g id="xtick_4">
     <g id="line2d_4">
      <g>
       <use xlink:href="#m58fcdc2223" x="382.085139" y="684.36" style="fill: #262626; stroke: #262626; stroke-width: 0.8"/>
      </g>
     </g>
     <g id="text_4">
      <text style="fill: #262626; font: 20px 'sans-serif'; text-anchor: middle" x="382.085139" y="708.175625" transform="rotate(-0, 382.085139, 708.175625)">40</text>
     </g>
    </g>
    <g id="xtick_5">
     <g id="line2d_5">
      <g>
       <use xlink:href="#m58fcdc2223" x="451.246958" y="684.36" style="fill: #262626; stroke: #262626; stroke-width: 0.8"/>
      </g>
     </g>
     <g id="text_5">
      <text style="fill: #262626; font: 20px 'sans-serif'; text-anchor: middle" x="451.246958" y="708.175625" transform="rotate(-0, 451.246958, 708.175625)">45</text>
     </g>
    </g>
    <g id="xtick_6">
     <g id="line2d_6">
      <g>
       <use xlink:href="#m58fcdc2223" x="520.408777" y="684.36" style="fill: #262626; stroke: #262626; stroke-width: 0.8"/>
      </g>
     </g>
     <g id="text_6">
      <text style="fill: #262626; font: 20px 'sans-serif'; text-anchor: middle" x="520.408777" y="708.175625" transform="rotate(-0, 520.408777, 708.175625)">50</text>
     </g>
    </g>
    <g id="text_7">
     <text style="fill: #262626; font: 18px 'sans-serif'; text-anchor: middle" x="349.944693" y="729.034687" transform="rotate(-0, 349.944693, 729.034687)">Mean %RSD</text>
    </g>
   </g>
   <g id="matplotlib.axis_2">
    <g id="ytick_1">
     <g id="line2d_7">
      <defs>
       <path id="m06aa6837d0" d="M 0 0 
L -6 0 
" style="stroke: #262626; stroke-width: 0.8"/>
      </defs>
      <g>
       <use xlink:href="#m06aa6837d0" x="125.151875" y="116.298" style="fill: #262626; stroke: #262626; stroke-width: 0.8"/>
      </g>
     </g>
     <g id="text_8">
      <text style="fill: #262626; font: 22px 'sans-serif'; text-anchor: end" x="115.651875" y="124.171594" transform="rotate(-0, 115.651875, 124.171594)">impaired</text>
     </g>
    </g>
    <g id="ytick_2">
     <g id="line2d_8">
      <g>
       <use xlink:href="#m06aa6837d0" x="125.151875" y="176.094" style="fill: #262626; stroke: #262626; stroke-width: 0.8"/>
      </g>
     </g>
     <g id="text_9">
      <text style="fill: #262626; font: 22px 'sans-serif'; text-anchor: end" x="115.651875" y="183.967594" transform="rotate(-0, 115.651875, 183.967594)">normal</text>
     </g>
    </g>
    <g id="ytick_3">
     <g id="line2d_9">
      <g>
       <use xlink:href="#m06aa6837d0" x="125.151875" y="235.89" style="fill: #262626; stroke: #262626; stroke-width: 0.8"/>
      </g>
     </g>
     <g id="text_10">
      <text style="fill: #262626; font: 22px 'sans-serif'; text-anchor: end" x="115.651875" y="243.763594" transform="rotate(-0, 115.651875, 243.763594)">impaired</text>
     </g>
    </g>
    <g id="ytick_4">
     <g id="line2d_10">
      <g>
       <use xlink:href="#m06aa6837d0" x="125.151875" y="295.686" style="fill: #262626; stroke: #262626; stroke-width: 0.8"/>
      </g>
     </g>
     <g id="text_11">
      <text style="fill: #262626; font: 22px 'sans-serif'; text-anchor: end" x="115.651875" y="303.559594" transform="rotate(-0, 115.651875, 303.559594)">diabetic</text>
     </g>
    </g>
    <g id="ytick_5">
     <g id="line2d_11">
      <g>
       <use xlink:href="#m06aa6837d0" x="125.151875" y="355.482" style="fill: #262626; stroke: #262626; stroke-width: 0.8"/>
      </g>
     </g>
     <g id="text_12">
      <text style="fill: #262626; font: 22px 'sans-serif'; text-anchor: end" x="115.651875" y="363.355594" transform="rotate(-0, 115.651875, 363.355594)">impaired</text>
     </g>
    </g>
    <g id="ytick_6">
     <g id="line2d_12">
      <g>
       <use xlink:href="#m06aa6837d0" x="125.151875" y="415.278" style="fill: #262626; stroke: #262626; stroke-width: 0.8"/>
      </g>
     </g>
     <g id="text_13">
      <text style="fill: #262626; font: 22px 'sans-serif'; text-anchor: end" x="115.651875" y="423.151594" transform="rotate(-0, 115.651875, 423.151594)">diabetic</text>
     </g>
    </g>
    <g id="ytick_7">
     <g id="line2d_13">
      <g>
       <use xlink:href="#m06aa6837d0" x="125.151875" y="475.074" style="fill: #262626; stroke: #262626; stroke-width: 0.8"/>
      </g>
     </g>
     <g id="text_14">
      <text style="fill: #262626; font: 22px 'sans-serif'; text-anchor: end" x="115.651875" y="482.947594" transform="rotate(-0, 115.651875, 482.947594)">impaired</text>
     </g>
    </g>
    <g id="ytick_8">
     <g id="line2d_14">
      <g>
       <use xlink:href="#m06aa6837d0" x="125.151875" y="534.87" style="fill: #262626; stroke: #262626; stroke-width: 0.8"/>
      </g>
     </g>
     <g id="text_15">
      <text style="fill: #262626; font: 22px 'sans-serif'; text-anchor: end" x="115.651875" y="542.743594" transform="rotate(-0, 115.651875, 542.743594)">diabetic</text>
     </g>
    </g>
    <g id="ytick_9">
     <g id="line2d_15">
      <g>
       <use xlink:href="#m06aa6837d0" x="125.151875" y="594.666" style="fill: #262626; stroke: #262626; stroke-width: 0.8"/>
      </g>
     </g>
     <g id="text_16">
      <text style="fill: #262626; font: 22px 'sans-serif'; text-anchor: end" x="115.651875" y="602.539594" transform="rotate(-0, 115.651875, 602.539594)">impaired</text>
     </g>
    </g>
    <g id="ytick_10">
     <g id="line2d_16">
      <g>
       <use xlink:href="#m06aa6837d0" x="125.151875" y="654.462" style="fill: #262626; stroke: #262626; stroke-width: 0.8"/>
      </g>
     </g>
     <g id="text_17">
      <text style="fill: #262626; font: 22px 'sans-serif'; text-anchor: end" x="115.651875" y="662.335594" transform="rotate(-0, 115.651875, 662.335594)">normal</text>
     </g>
    </g>
    <g id="text_18">
     <text style="fill: #262626; font: 700 22px 'sans-serif'; text-anchor: middle" x="22.947188" y="385.38" transform="rotate(-90, 22.947188, 385.38)">Animal Glucose Tolerance</text>
    </g>
   </g>
   <g id="patch_3">
    <path d="M 125.151875 684.36 
L 125.151875 86.4 
" style="fill: none; stroke: #262626; stroke-width: 1.25; stroke-linejoin: miter; stroke-linecap: square"/>
   </g>
   <g id="patch_4">
    <path d="M 125.151875 684.36 
L 574.73751 684.36 
" style="fill: none; stroke: #262626; stroke-width: 1.25; stroke-linejoin: miter; stroke-linecap: square"/>
   </g>
   <g id="PathCollection_1">
    <defs>
     <path id="md0e7ac3a5e" d="M 0 11.779219 
C 3.123885 11.779219 6.120245 10.538086 8.329166 8.329166 
C 10.538086 6.120245 11.779219 3.123885 11.779219 0 
C 11.779219 -3.123885 10.538086 -6.120245 8.329166 -8.329166 
C 6.120245 -10.538086 3.123885 -11.779219 0 -11.779219 
C -3.123885 -11.779219 -6.120245 -10.538086 -8.329166 -8.329166 
C -10.538086 -6.120245 -11.779219 -3.123885 -11.779219 0 
C -11.779219 3.123885 -10.538086 6.120245 -8.329166 8.329166 
C -6.120245 10.538086 -3.123885 11.779219 0 11.779219 
z
" style="stroke: #ffffff; stroke-width: 1.884675"/>
    </defs>
    <g clip-path="url(#p41a0f91d6a)">
     <use xlink:href="#md0e7ac3a5e" x="145.587586" y="116.298" style="fill: #de8f05; stroke: #ffffff; stroke-width: 1.884675"/>
     <use xlink:href="#md0e7ac3a5e" x="181.819919" y="176.094" style="fill: #de8f05; stroke: #ffffff; stroke-width: 1.884675"/>
     <use xlink:href="#md0e7ac3a5e" x="207.699016" y="235.89" style="fill: #de8f05; stroke: #ffffff; stroke-width: 1.884675"/>
     <use xlink:href="#md0e7ac3a5e" x="459.285533" y="295.686" style="fill: #de8f05; stroke: #ffffff; stroke-width: 1.884675"/>
     <use xlink:href="#md0e7ac3a5e" x="302.386278" y="355.482" style="fill: #de8f05; stroke: #ffffff; stroke-width: 1.884675"/>
     <use xlink:href="#md0e7ac3a5e" x="270.90895" y="415.278" style="fill: #de8f05; stroke: #ffffff; stroke-width: 1.884675"/>
     <use xlink:href="#md0e7ac3a5e" x="279.855428" y="475.074" style="fill: #de8f05; stroke: #ffffff; stroke-width: 1.884675"/>
     <use xlink:href="#md0e7ac3a5e" x="278.275743" y="534.87" style="fill: #de8f05; stroke: #ffffff; stroke-width: 1.884675"/>
     <use xlink:href="#md0e7ac3a5e" x="271.146715" y="594.666" style="fill: #de8f05; stroke: #ffffff; stroke-width: 1.884675"/>
     <use xlink:href="#md0e7ac3a5e" x="554.3018" y="654.462" style="fill: #de8f05; stroke: #ffffff; stroke-width: 1.884675"/>
    </g>
   </g>
   <g id="text_19">
    <text style="fill: #262626; font: 18px 'sans-serif'; text-anchor: start" x="165.610441" y="120.951281" transform="rotate(-0, 165.610441, 120.951281)">‒0.2%</text>
   </g>
   <g id="text_20">
    <text style="fill: #262626; font: 18px 'sans-serif'; text-anchor: start" x="279.423708" y="180.747281" transform="rotate(-0, 279.423708, 180.747281)">‒5.9%</text>
   </g>
   <g id="text_21">
    <text style="fill: #262626; font: 18px 'sans-serif'; text-anchor: start" x="280.21463" y="240.543281" transform="rotate(-0, 280.21463, 240.543281)">‒4.0%</text>
   </g>
   <g id="text_22">
    <text style="fill: #262626; font: 18px 'sans-serif'; text-anchor: start" x="475.884369" y="300.339281" transform="rotate(-0, 475.884369, 300.339281)">+19.9%</text>
   </g>
   <g id="text_23">
    <text style="fill: #262626; font: 18px 'sans-serif'; text-anchor: start" x="318.985114" y="360.135281" transform="rotate(-0, 318.985114, 360.135281)">+7.7%</text>
   </g>
   <g id="text_24">
    <text style="fill: #262626; font: 18px 'sans-serif'; text-anchor: start" x="287.507786" y="419.931281" transform="rotate(-0, 287.507786, 419.931281)">+3.9%</text>
   </g>
   <g id="text_25">
    <text style="fill: #262626; font: 18px 'sans-serif'; text-anchor: start" x="296.454265" y="479.727281" transform="rotate(-0, 296.454265, 479.727281)">+4.4%</text>
   </g>
   <g id="text_26">
    <text style="fill: #262626; font: 18px 'sans-serif'; text-anchor: start" x="294.874579" y="539.523281" transform="rotate(-0, 294.874579, 539.523281)">+1.9%</text>
   </g>
   <g id="text_27">
    <text style="fill: #262626; font: 18px 'sans-serif'; text-anchor: start" x="287.745552" y="599.319281" transform="rotate(-0, 287.745552, 599.319281)">+0.5%</text>
   </g>
   <g id="text_28">
    <text style="fill: #262626; font: 18px 'sans-serif'; text-anchor: start" x="570.900636" y="659.115281" transform="rotate(-0, 570.900636, 659.115281)">+19.1%</text>
   </g>
   <g id="text_29">
    <text style="fill: #262626; font: 18px 'sans-serif'; text-anchor: middle" x="349.944693" y="80.4" transform="rotate(-0, 349.944693, 80.4)">Difference in mean %RSD</text>
   </g>
   <g id="PathCollection_2">
    <defs>
     <path id="m1d84a690f7" d="M 0 11.779219 
C 3.123885 11.779219 6.120245 10.538086 8.329166 8.329166 
C 10.538086 6.120245 11.779219 3.123885 11.779219 0 
C 11.779219 -3.123885 10.538086 -6.120245 8.329166 -8.329166 
C 6.120245 -10.538086 3.123885 -11.779219 0 -11.779219 
C -3.123885 -11.779219 -6.120245 -10.538086 -8.329166 -8.329166 
C -10.538086 -6.120245 -11.779219 -3.123885 -11.779219 0 
C -11.779219 3.123885 -10.538086 6.120245 -8.329166 8.329166 
C -6.120245 10.538086 -3.123885 11.779219 0 11.779219 
z
" style="stroke: #ffffff; stroke-width: 1.884675"/>
    </defs>
    <g clip-path="url(#p41a0f91d6a)">
     <use xlink:href="#m1d84a690f7" x="149.011604" y="116.298" style="fill: #0173b2; stroke: #ffffff; stroke-width: 1.884675"/>
     <use xlink:href="#m1d84a690f7" x="262.824872" y="176.094" style="fill: #0173b2; stroke: #ffffff; stroke-width: 1.884675"/>
     <use xlink:href="#m1d84a690f7" x="263.615794" y="235.89" style="fill: #0173b2; stroke: #ffffff; stroke-width: 1.884675"/>
     <use xlink:href="#m1d84a690f7" x="184.081611" y="295.686" style="fill: #0173b2; stroke: #ffffff; stroke-width: 1.884675"/>
     <use xlink:href="#m1d84a690f7" x="195.366964" y="355.482" style="fill: #0173b2; stroke: #ffffff; stroke-width: 1.884675"/>
     <use xlink:href="#m1d84a690f7" x="217.274834" y="415.278" style="fill: #0173b2; stroke: #ffffff; stroke-width: 1.884675"/>
     <use xlink:href="#m1d84a690f7" x="218.696478" y="475.074" style="fill: #0173b2; stroke: #ffffff; stroke-width: 1.884675"/>
     <use xlink:href="#m1d84a690f7" x="251.453324" y="534.87" style="fill: #0173b2; stroke: #ffffff; stroke-width: 1.884675"/>
     <use xlink:href="#m1d84a690f7" x="264.445301" y="594.666" style="fill: #0173b2; stroke: #ffffff; stroke-width: 1.884675"/>
     <use xlink:href="#m1d84a690f7" x="290.563415" y="654.462" style="fill: #0173b2; stroke: #ffffff; stroke-width: 1.884675"/>
    </g>
   </g>
   <g id="legend_1">
    <g id="PathCollection_3">
     <defs>
      <path id="m89c9b3be93" d="M 0 12.957141 
C 3.436274 12.957141 6.73227 11.591895 9.162082 9.162082 
C 11.591895 6.73227 12.957141 3.436274 12.957141 0 
C 12.957141 -3.436274 11.591895 -6.73227 9.162082 -9.162082 
C 6.73227 -11.591895 3.436274 -12.957141 0 -12.957141 
C -3.436274 -12.957141 -6.73227 -11.591895 -9.162082 -9.162082 
C -11.591895 -6.73227 -12.957141 -3.436274 -12.957141 0 
C -12.957141 3.436274 -11.591895 6.73227 -9.162082 9.162082 
C -6.73227 11.591895 -3.436274 12.957141 0 12.957141 
z
" style="stroke: #ffffff; stroke-width: 1.884675"/>
     </defs>
     <g>
      <use xlink:href="#m89c9b3be93" x="465.06182" y="464.007937" style="fill: #de8f05; stroke: #ffffff; stroke-width: 1.884675"/>
     </g>
    </g>
    <g id="text_30">
     <text style="fill: #262626; font: 18px 'sans-serif'; text-anchor: start" x="497.46182" y="468.732937" transform="rotate(-0, 497.46182, 468.732937)">Fasted</text>
    </g>
    <g id="PathCollection_4">
     <defs>
      <path id="mdaed9c6395" d="M 0 12.957141 
C 3.436274 12.957141 6.73227 11.591895 9.162082 9.162082 
C 11.591895 6.73227 12.957141 3.436274 12.957141 0 
C 12.957141 -3.436274 11.591895 -6.73227 9.162082 -9.162082 
C 6.73227 -11.591895 3.436274 -12.957141 0 -12.957141 
C -3.436274 -12.957141 -6.73227 -11.591895 -9.162082 -9.162082 
C -11.591895 -6.73227 -12.957141 -3.436274 -12.957141 0 
C -12.957141 3.436274 -11.591895 6.73227 -9.162082 9.162082 
C -6.73227 11.591895 -3.436274 12.957141 0 12.957141 
z
" style="stroke: #ffffff; stroke-width: 1.884675"/>
     </defs>
     <g>
      <use xlink:href="#mdaed9c6395" x="465.06182" y="489.4695" style="fill: #0173b2; stroke: #ffffff; stroke-width: 1.884675"/>
     </g>
    </g>
    <g id="text_31">
     <text style="fill: #262626; font: 18px 'sans-serif'; text-anchor: start" x="497.46182" y="494.1945" transform="rotate(-0, 497.46182, 494.1945)">Random-fed</text>
    </g>
   </g>
  </g>
  <g id="axes_2">
   <g id="patch_5">
    <path d="M 636.600494 684.36 
L 906.351875 684.36 
L 906.351875 86.4 
L 636.600494 86.4 
z
" style="fill: #ffffff"/>
   </g>
   <g id="matplotlib.axis_3">
    <g id="xtick_7">
     <g id="line2d_17">
      <g>
       <use xlink:href="#m58fcdc2223" x="647.390549" y="684.36" style="fill: #262626; stroke: #262626; stroke-width: 0.8"/>
      </g>
     </g>
     <g id="text_32">
      <text style="fill: #262626; font: 20px 'sans-serif'; text-anchor: middle" x="647.390549" y="708.175625" transform="rotate(-0, 647.390549, 708.175625)">0</text>
     </g>
    </g>
    <g id="xtick_8">
     <g id="line2d_18">
      <g>
       <use xlink:href="#m58fcdc2223" x="701.340825" y="684.36" style="fill: #262626; stroke: #262626; stroke-width: 0.8"/>
      </g>
     </g>
     <g id="text_33">
      <text style="fill: #262626; font: 20px 'sans-serif'; text-anchor: middle" x="701.340825" y="708.175625" transform="rotate(-0, 701.340825, 708.175625)">25</text>
     </g>
    </g>
    <g id="xtick_9">
     <g id="line2d_19">
      <g>
       <use xlink:href="#m58fcdc2223" x="755.291102" y="684.36" style="fill: #262626; stroke: #262626; stroke-width: 0.8"/>
      </g>
     </g>
     <g id="text_34">
      <text style="fill: #262626; font: 20px 'sans-serif'; text-anchor: middle" x="755.291102" y="708.175625" transform="rotate(-0, 755.291102, 708.175625)">50</text>
     </g>
    </g>
    <g id="xtick_10">
     <g id="line2d_20">
      <g>
       <use xlink:href="#m58fcdc2223" x="809.241378" y="684.36" style="fill: #262626; stroke: #262626; stroke-width: 0.8"/>
      </g>
     </g>
     <g id="text_35">
      <text style="fill: #262626; font: 20px 'sans-serif'; text-anchor: middle" x="809.241378" y="708.175625" transform="rotate(-0, 809.241378, 708.175625)">75</text>
     </g>
    </g>
    <g id="xtick_11">
     <g id="line2d_21">
      <g>
       <use xlink:href="#m58fcdc2223" x="863.191654" y="684.36" style="fill: #262626; stroke: #262626; stroke-width: 0.8"/>
      </g>
     </g>
     <g id="text_36">
      <text style="fill: #262626; font: 20px 'sans-serif'; text-anchor: middle" x="863.191654" y="708.175625" transform="rotate(-0, 863.191654, 708.175625)">100</text>
     </g>
    </g>
    <g id="text_37">
     <text style="fill: #262626; font: 18px 'sans-serif'; text-anchor: middle" x="771.476184" y="729.034687" transform="rotate(-0, 771.476184, 729.034687)">%RSD</text>
    </g>
   </g>
   <g id="matplotlib.axis_4">
    <g id="ytick_11">
     <g id="line2d_22">
      <g>
       <use xlink:href="#m06aa6837d0" x="636.600494" y="116.298" style="fill: #262626; stroke: #262626; stroke-width: 0.8"/>
      </g>
     </g>
    </g>
    <g id="ytick_12">
     <g id="line2d_23">
      <g>
       <use xlink:href="#m06aa6837d0" x="636.600494" y="176.094" style="fill: #262626; stroke: #262626; stroke-width: 0.8"/>
      </g>
     </g>
    </g>
    <g id="ytick_13">
     <g id="line2d_24">
      <g>
       <use xlink:href="#m06aa6837d0" x="636.600494" y="235.89" style="fill: #262626; stroke: #262626; stroke-width: 0.8"/>
      </g>
     </g>
    </g>
    <g id="ytick_14">
     <g id="line2d_25">
      <g>
       <use xlink:href="#m06aa6837d0" x="636.600494" y="295.686" style="fill: #262626; stroke: #262626; stroke-width: 0.8"/>
      </g>
     </g>
    </g>
    <g id="ytick_15">
     <g id="line2d_26">
      <g>
       <use xlink:href="#m06aa6837d0" x="636.600494" y="355.482" style="fill: #262626; stroke: #262626; stroke-width: 0.8"/>
      </g>
     </g>
    </g>
    <g id="ytick_16">
     <g id="line2d_27">
      <g>
       <use xlink:href="#m06aa6837d0" x="636.600494" y="415.278" style="fill: #262626; stroke: #262626; stroke-width: 0.8"/>
      </g>
     </g>
    </g>
    <g id="ytick_17">
     <g id="line2d_28">
      <g>
       <use xlink:href="#m06aa6837d0" x="636.600494" y="475.074" style="fill: #262626; stroke: #262626; stroke-width: 0.8"/>
      </g>
     </g>
    </g>
    <g id="ytick_18">
     <g id="line2d_29">
      <g>
       <use xlink:href="#m06aa6837d0" x="636.600494" y="534.87" style="fill: #262626; stroke: #262626; stroke-width: 0.8"/>
      </g>
     </g>
    </g>
    <g id="ytick_19">
     <g id="line2d_30">
      <g>
       <use xlink:href="#m06aa6837d0" x="636.600494" y="594.666" style="fill: #262626; stroke: #262626; stroke-width: 0.8"/>
      </g>
     </g>
    </g>
    <g id="ytick_20">
     <g id="line2d_31">
      <g>
       <use xlink:href="#m06aa6837d0" x="636.600494" y="654.462" style="fill: #262626; stroke: #262626; stroke-width: 0.8"/>
      </g>
     </g>
    </g>
   </g>
   <g id="patch_6">
    <path d="M 647.390549 116.298 
L 647.390549 116.298 
L 647.390549 116.298 
L 647.390549 116.298 
z
" clip-path="url(#p33a178de9e)" style="fill: #d38c10; stroke: #363636; stroke-width: 0.5; stroke-linejoin: miter"/>
   </g>
   <g id="PolyCollection_1">
    <defs>
     <path id="m4e2dd13dcf" d="M 640.906019 -623.514188 
L 640.906019 -623.63051 
L 648.095945 -625.962961 
L 655.285872 -632.696495 
L 662.475798 -639.553099 
L 669.665725 -646.606671 
L 676.855652 -647.432588 
L 684.045578 -644.152828 
L 691.235505 -640.574312 
L 698.425431 -636.880125 
L 705.615358 -634.728617 
L 712.805284 -632.980994 
L 719.995211 -629.581585 
L 727.185137 -628.080323 
L 734.375064 -627.869676 
L 741.56499 -626.90689 
L 748.754917 -625.757117 
L 755.944843 -625.1927 
L 763.13477 -624.597547 
L 770.324696 -624.656834 
L 777.514623 -625.030245 
L 784.704549 -624.362014 
L 791.894476 -624.240435 
L 799.084402 -623.949786 
L 806.274329 -624.228191 
L 813.464255 -624.264359 
L 820.654182 -624.330247 
L 827.844109 -624.155462 
L 835.034035 -623.81855 
L 842.223962 -624.042402 
L 849.413888 -624.088278 
L 856.603815 -623.863941 
L 863.793741 -623.678477 
L 870.983668 -623.792956 
L 878.173594 -623.647597 
L 885.363521 -623.583028 
L 892.553447 -623.684966 
L 899.743374 -623.550465 
L 906.9333 -623.51466 
L 914.123227 -623.514204 
L 921.313153 -623.52021 
L 928.50308 -623.634327 
L 935.693006 -623.704219 
L 942.882933 -623.589371 
L 950.072859 -623.517802 
L 957.262786 -623.517557 
L 964.452713 -623.579687 
L 971.642639 -623.576065 
L 978.832566 -623.593408 
L 986.022492 -623.681081 
L 993.212419 -623.532748 
L 993.212419 -623.514188 
L 993.212419 -623.514188 
L 986.022492 -623.514188 
L 978.832566 -623.514188 
L 971.642639 -623.514188 
L 964.452713 -623.514188 
L 957.262786 -623.514188 
L 950.072859 -623.514188 
L 942.882933 -623.514188 
L 935.693006 -623.514188 
L 928.50308 -623.514188 
L 921.313153 -623.514188 
L 914.123227 -623.514188 
L 906.9333 -623.514188 
L 899.743374 -623.514188 
L 892.553447 -623.514188 
L 885.363521 -623.514188 
L 878.173594 -623.514188 
L 870.983668 -623.514188 
L 863.793741 -623.514188 
L 856.603815 -623.514188 
L 849.413888 -623.514188 
L 842.223962 -623.514188 
L 835.034035 -623.514188 
L 827.844109 -623.514188 
L 820.654182 -623.514188 
L 813.464255 -623.514188 
L 806.274329 -623.514188 
L 799.084402 -623.514188 
L 791.894476 -623.514188 
L 784.704549 -623.514188 
L 777.514623 -623.514188 
L 770.324696 -623.514188 
L 763.13477 -623.514188 
L 755.944843 -623.514188 
L 748.754917 -623.514188 
L 741.56499 -623.514188 
L 734.375064 -623.514188 
L 727.185137 -623.514188 
L 719.995211 -623.514188 
L 712.805284 -623.514188 
L 705.615358 -623.514188 
L 698.425431 -623.514188 
L 691.235505 -623.514188 
L 684.045578 -623.514188 
L 676.855652 -623.514188 
L 669.665725 -623.514188 
L 662.475798 -623.514188 
L 655.285872 -623.514188 
L 648.095945 -623.514188 
L 640.906019 -623.514188 
z
" style="stroke: #363636"/>
    </defs>
    <g clip-path="url(#p33a178de9e)">
     <use xlink:href="#m4e2dd13dcf" x="0" y="739.812187" style="fill: #d38c10; stroke: #363636"/>
    </g>
   </g>
   <g id="patch_7">
    <path d="M 647.390549 116.298 
L 647.390549 116.298 
L 647.390549 116.298 
L 647.390549 116.298 
z
" clip-path="url(#p33a178de9e)" style="fill: #0a70a9; stroke: #363636; stroke-width: 0.5; stroke-linejoin: miter"/>
   </g>
   <g id="PolyCollection_2">
    <defs>
     <path id="m2c0db0f9e4" d="M 640.961445 -623.415701 
L 640.961445 -623.514188 
L 646.252468 -623.514188 
L 651.543491 -623.514188 
L 656.834514 -623.514188 
L 662.125538 -623.514188 
L 667.416561 -623.514188 
L 672.707584 -623.514188 
L 677.998607 -623.514188 
L 683.28963 -623.514188 
L 688.580653 -623.514188 
L 693.871677 -623.514188 
L 699.1627 -623.514188 
L 704.453723 -623.514188 
L 709.744746 -623.514188 
L 715.035769 -623.514188 
L 720.326792 -623.514188 
L 725.617816 -623.514188 
L 730.908839 -623.514188 
L 736.199862 -623.514188 
L 741.490885 -623.514188 
L 746.781908 -623.514188 
L 752.072931 -623.514188 
L 757.363955 -623.514188 
L 762.654978 -623.514188 
L 767.946001 -623.514188 
L 773.237024 -623.514188 
L 778.528047 -623.514188 
L 783.81907 -623.514188 
L 789.110094 -623.514188 
L 794.401117 -623.514188 
L 799.69214 -623.514188 
L 804.983163 -623.514188 
L 810.274186 -623.514188 
L 815.565209 -623.514188 
L 820.856233 -623.514188 
L 826.147256 -623.514188 
L 831.438279 -623.514188 
L 836.729302 -623.514188 
L 842.020325 -623.514188 
L 847.311348 -623.514188 
L 852.602372 -623.514188 
L 857.893395 -623.514188 
L 863.184418 -623.514188 
L 868.475441 -623.514188 
L 873.766464 -623.514188 
L 879.057487 -623.514188 
L 884.348511 -623.514188 
L 889.639534 -623.514188 
L 894.930557 -623.514188 
L 900.22158 -623.514188 
L 900.22158 -623.500461 
L 900.22158 -623.500461 
L 894.930557 -623.428568 
L 889.639534 -623.441349 
L 884.348511 -623.457272 
L 879.057487 -623.197089 
L 873.766464 -623.014346 
L 868.475441 -623.261797 
L 863.184418 -623.36001 
L 857.893395 -623.262573 
L 852.602372 -623.152769 
L 847.311348 -623.244835 
L 842.020325 -623.335018 
L 836.729302 -623.25432 
L 831.438279 -623.179501 
L 826.147256 -623.187381 
L 820.856233 -622.937345 
L 815.565209 -622.572859 
L 810.274186 -622.739679 
L 804.983163 -623.013622 
L 799.69214 -622.574457 
L 794.401117 -622.349262 
L 789.110094 -622.313943 
L 783.81907 -622.43521 
L 778.528047 -622.273892 
L 773.237024 -622.272936 
L 767.946001 -622.125661 
L 762.654978 -621.66556 
L 757.363955 -621.282383 
L 752.072931 -621.090377 
L 746.781908 -620.896193 
L 741.490885 -619.987112 
L 736.199862 -618.573599 
L 730.908839 -617.945712 
L 725.617816 -617.971423 
L 720.326792 -617.108071 
L 715.035769 -615.145973 
L 709.744746 -612.97646 
L 704.453723 -611.084233 
L 699.1627 -609.726936 
L 693.871677 -607.137028 
L 688.580653 -603.841739 
L 683.28963 -602.45111 
L 677.998607 -601.501441 
L 672.707584 -602.563826 
L 667.416561 -605.404499 
L 662.125538 -609.334412 
L 656.834514 -612.770407 
L 651.543491 -617.165234 
L 646.252468 -621.938188 
L 640.961445 -623.415701 
z
" style="stroke: #363636"/>
    </defs>
    <g clip-path="url(#p33a178de9e)">
     <use xlink:href="#m2c0db0f9e4" x="0" y="739.812187" style="fill: #0a70a9; stroke: #363636"/>
    </g>
   </g>
   <g id="PolyCollection_3">
    <defs>
     <path id="me5642708c3" d="M 639.40108 -563.718188 
L 639.40108 -563.889561 
L 646.875423 -567.046578 
L 654.349766 -575.711321 
L 661.824108 -584.537281 
L 669.298451 -587.636588 
L 676.772794 -587.367661 
L 684.247136 -585.261722 
L 691.721479 -584.379575 
L 699.195822 -582.537747 
L 706.670164 -578.043776 
L 714.144507 -574.23215 
L 721.61885 -571.756932 
L 729.093192 -571.050396 
L 736.567535 -570.565576 
L 744.041878 -570.410939 
L 751.51622 -568.1148 
L 758.990563 -567.363571 
L 766.464906 -567.34693 
L 773.939248 -566.851524 
L 781.413591 -566.26863 
L 788.887934 -565.255199 
L 796.362276 -564.654915 
L 803.836619 -564.867107 
L 811.310962 -565.095006 
L 818.785304 -564.796818 
L 826.259647 -564.52508 
L 833.73399 -564.563994 
L 841.208332 -564.635461 
L 848.682675 -563.990424 
L 856.157018 -563.908281 
L 863.63136 -564.204015 
L 871.105703 -564.054396 
L 878.580046 -564.015158 
L 886.054388 -563.999029 
L 893.528731 -563.935898 
L 901.003074 -563.909126 
L 908.477416 -563.870303 
L 915.951759 -563.766629 
L 923.426102 -563.891807 
L 930.900444 -563.912915 
L 938.374787 -563.866423 
L 945.84913 -563.817858 
L 953.323472 -563.727005 
L 960.797815 -563.718235 
L 968.272158 -563.718188 
L 975.7465 -563.718189 
L 983.220843 -563.719249 
L 990.695186 -563.762017 
L 998.169528 -563.824426 
L 1005.643871 -563.733302 
L 1005.643871 -563.718188 
L 1005.643871 -563.718188 
L 998.169528 -563.718188 
L 990.695186 -563.718188 
L 983.220843 -563.718188 
L 975.7465 -563.718188 
L 968.272158 -563.718188 
L 960.797815 -563.718188 
L 953.323472 -563.718188 
L 945.84913 -563.718188 
L 938.374787 -563.718188 
L 930.900444 -563.718188 
L 923.426102 -563.718188 
L 915.951759 -563.718188 
L 908.477416 -563.718188 
L 901.003074 -563.718188 
L 893.528731 -563.718188 
L 886.054388 -563.718188 
L 878.580046 -563.718188 
L 871.105703 -563.718188 
L 863.63136 -563.718188 
L 856.157018 -563.718188 
L 848.682675 -563.718188 
L 841.208332 -563.718188 
L 833.73399 -563.718188 
L 826.259647 -563.718188 
L 818.785304 -563.718188 
L 811.310962 -563.718188 
L 803.836619 -563.718188 
L 796.362276 -563.718188 
L 788.887934 -563.718188 
L 781.413591 -563.718188 
L 773.939248 -563.718188 
L 766.464906 -563.718188 
L 758.990563 -563.718188 
L 751.51622 -563.718188 
L 744.041878 -563.718188 
L 736.567535 -563.718188 
L 729.093192 -563.718188 
L 721.61885 -563.718188 
L 714.144507 -563.718188 
L 706.670164 -563.718188 
L 699.195822 -563.718188 
L 691.721479 -563.718188 
L 684.247136 -563.718188 
L 676.772794 -563.718188 
L 669.298451 -563.718188 
L 661.824108 -563.718188 
L 654.349766 -563.718188 
L 646.875423 -563.718188 
L 639.40108 -563.718188 
z
" style="stroke: #363636"/>
    </defs>
    <g clip-path="url(#p33a178de9e)">
     <use xlink:href="#me5642708c3" x="0" y="739.812187" style="fill: #d38c10; stroke: #363636"/>
    </g>
   </g>
   <g id="PolyCollection_4">
    <defs>
     <path id="m507507b5e4" d="M 637.063873 -563.637119 
L 637.063873 -563.718188 
L 644.695117 -563.718188 
L 652.326362 -563.718188 
L 659.957606 -563.718188 
L 667.588851 -563.718188 
L 675.220095 -563.718188 
L 682.85134 -563.718188 
L 690.482584 -563.718188 
L 698.113829 -563.718188 
L 705.745073 -563.718188 
L 713.376318 -563.718188 
L 721.007562 -563.718188 
L 728.638806 -563.718188 
L 736.270051 -563.718188 
L 743.901295 -563.718188 
L 751.53254 -563.718188 
L 759.163784 -563.718188 
L 766.795029 -563.718188 
L 774.426273 -563.718188 
L 782.057518 -563.718188 
L 789.688762 -563.718188 
L 797.320007 -563.718188 
L 804.951251 -563.718188 
L 812.582496 -563.718188 
L 820.21374 -563.718188 
L 827.844984 -563.718188 
L 835.476229 -563.718188 
L 843.107473 -563.718188 
L 850.738718 -563.718188 
L 858.369962 -563.718188 
L 866.001207 -563.718188 
L 873.632451 -563.718188 
L 881.263696 -563.718188 
L 888.89494 -563.718188 
L 896.526185 -563.718188 
L 904.157429 -563.718188 
L 911.788674 -563.718188 
L 919.419918 -563.718188 
L 927.051162 -563.718188 
L 934.682407 -563.718188 
L 942.313651 -563.718188 
L 949.944896 -563.718188 
L 957.57614 -563.718188 
L 965.207385 -563.718188 
L 972.838629 -563.718188 
L 980.469874 -563.718188 
L 988.101118 -563.718188 
L 995.732363 -563.718188 
L 1003.363607 -563.718188 
L 1010.994851 -563.718188 
L 1010.994851 -563.694516 
L 1010.994851 -563.694516 
L 1003.363607 -563.571425 
L 995.732363 -563.579855 
L 988.101118 -563.642053 
L 980.469874 -563.434989 
L 972.838629 -563.187617 
L 965.207385 -563.141628 
L 957.57614 -563.306626 
L 949.944896 -563.476322 
L 942.313651 -563.530407 
L 934.682407 -563.588628 
L 927.051162 -563.697227 
L 919.419918 -563.715985 
L 911.788674 -563.67109 
L 904.157429 -563.489852 
L 896.526185 -563.481734 
L 888.89494 -563.603563 
L 881.263696 -563.673696 
L 873.632451 -563.512436 
L 866.001207 -563.26419 
L 858.369962 -563.169218 
L 850.738718 -563.099207 
L 843.107473 -562.914084 
L 835.476229 -562.560699 
L 827.844984 -562.16304 
L 820.21374 -562.086206 
L 812.582496 -561.522241 
L 804.951251 -560.25765 
L 797.320007 -560.231925 
L 789.688762 -559.932995 
L 782.057518 -559.158879 
L 774.426273 -558.960019 
L 766.795029 -558.543423 
L 759.163784 -557.468177 
L 751.53254 -556.844885 
L 743.901295 -556.431747 
L 736.270051 -555.064538 
L 728.638806 -554.146807 
L 721.007562 -554.20802 
L 713.376318 -553.691165 
L 705.745073 -552.541838 
L 698.113829 -550.294113 
L 690.482584 -547.674599 
L 682.85134 -545.913464 
L 675.220095 -543.399942 
L 667.588851 -542.428049 
L 659.957606 -546.252965 
L 652.326362 -555.549842 
L 644.695117 -562.257452 
L 637.063873 -563.637119 
z
" style="stroke: #363636"/>
    </defs>
    <g clip-path="url(#p33a178de9e)">
     <use xlink:href="#m507507b5e4" x="0" y="739.812187" style="fill: #0a70a9; stroke: #363636"/>
    </g>
   </g>
   <g id="PolyCollection_5">
    <defs>
     <path id="me05e56e404" d="M 638.61802 -503.922188 
L 638.61802 -504.073925 
L 646.195472 -506.697177 
L 653.772925 -514.961397 
L 661.350377 -523.306454 
L 668.927829 -527.271536 
L 676.505281 -526.643058 
L 684.082733 -526.312438 
L 691.660185 -526.152675 
L 699.237637 -522.717539 
L 706.815089 -518.750364 
L 714.392541 -517.747749 
L 721.969993 -514.91832 
L 729.547445 -511.627734 
L 737.124897 -511.116042 
L 744.702349 -509.631872 
L 752.279801 -508.563003 
L 759.857253 -507.834867 
L 767.434706 -507.300941 
L 775.012158 -506.439907 
L 782.58961 -506.180229 
L 790.167062 -506.232081 
L 797.744514 -505.855533 
L 805.321966 -505.683005 
L 812.899418 -505.379814 
L 820.47687 -505.056447 
L 828.054322 -504.461739 
L 835.631774 -504.371357 
L 843.209226 -504.425857 
L 850.786678 -504.536874 
L 858.36413 -504.82421 
L 865.941582 -504.57468 
L 873.519034 -504.501216 
L 881.096487 -504.255579 
L 888.673939 -504.275607 
L 896.251391 -504.616155 
L 903.828843 -504.387403 
L 911.406295 -504.095849 
L 918.983747 -504.082665 
L 926.561199 -504.112712 
L 934.138651 -504.246891 
L 941.716103 -504.268281 
L 949.293555 -504.238632 
L 956.871007 -504.130181 
L 964.448459 -503.985455 
L 972.025911 -504.027258 
L 979.603363 -503.951415 
L 987.180816 -503.926799 
L 994.758268 -503.98269 
L 1002.33572 -504.015964 
L 1009.913172 -503.936395 
L 1009.913172 -503.922188 
L 1009.913172 -503.922188 
L 1002.33572 -503.922188 
L 994.758268 -503.922188 
L 987.180816 -503.922188 
L 979.603363 -503.922188 
L 972.025911 -503.922188 
L 964.448459 -503.922188 
L 956.871007 -503.922188 
L 949.293555 -503.922188 
L 941.716103 -503.922188 
L 934.138651 -503.922188 
L 926.561199 -503.922188 
L 918.983747 -503.922188 
L 911.406295 -503.922188 
L 903.828843 -503.922188 
L 896.251391 -503.922188 
L 888.673939 -503.922188 
L 881.096487 -503.922188 
L 873.519034 -503.922188 
L 865.941582 -503.922188 
L 858.36413 -503.922188 
L 850.786678 -503.922188 
L 843.209226 -503.922188 
L 835.631774 -503.922188 
L 828.054322 -503.922188 
L 820.47687 -503.922188 
L 812.899418 -503.922188 
L 805.321966 -503.922188 
L 797.744514 -503.922188 
L 790.167062 -503.922188 
L 782.58961 -503.922188 
L 775.012158 -503.922188 
L 767.434706 -503.922188 
L 759.857253 -503.922188 
L 752.279801 -503.922188 
L 744.702349 -503.922188 
L 737.124897 -503.922188 
L 729.547445 -503.922188 
L 721.969993 -503.922188 
L 714.392541 -503.922188 
L 706.815089 -503.922188 
L 699.237637 -503.922188 
L 691.660185 -503.922188 
L 684.082733 -503.922188 
L 676.505281 -503.922188 
L 668.927829 -503.922188 
L 661.350377 -503.922188 
L 653.772925 -503.922188 
L 646.195472 -503.922188 
L 638.61802 -503.922188 
z
" style="stroke: #363636"/>
    </defs>
    <g clip-path="url(#p33a178de9e)">
     <use xlink:href="#me05e56e404" x="0" y="739.812187" style="fill: #d38c10; stroke: #363636"/>
    </g>
   </g>
   <g id="PolyCollection_6">
    <defs>
     <path id="mc51b2cb343" d="M 637.910812 -503.857115 
L 637.910812 -503.922188 
L 645.715272 -503.922188 
L 653.519732 -503.922188 
L 661.324192 -503.922188 
L 669.128652 -503.922188 
L 676.933112 -503.922188 
L 684.737573 -503.922188 
L 692.542033 -503.922188 
L 700.346493 -503.922188 
L 708.150953 -503.922188 
L 715.955413 -503.922188 
L 723.759873 -503.922188 
L 731.564333 -503.922188 
L 739.368793 -503.922188 
L 747.173254 -503.922188 
L 754.977714 -503.922188 
L 762.782174 -503.922188 
L 770.586634 -503.922188 
L 778.391094 -503.922188 
L 786.195554 -503.922188 
L 794.000014 -503.922188 
L 801.804474 -503.922188 
L 809.608935 -503.922188 
L 817.413395 -503.922188 
L 825.217855 -503.922188 
L 833.022315 -503.922188 
L 840.826775 -503.922188 
L 848.631235 -503.922188 
L 856.435695 -503.922188 
L 864.240155 -503.922188 
L 872.044615 -503.922188 
L 879.849076 -503.922188 
L 887.653536 -503.922188 
L 895.457996 -503.922188 
L 903.262456 -503.922188 
L 911.066916 -503.922188 
L 918.871376 -503.922188 
L 926.675836 -503.922188 
L 934.480296 -503.922188 
L 942.284757 -503.922188 
L 950.089217 -503.922188 
L 957.893677 -503.922188 
L 965.698137 -503.922188 
L 973.502597 -503.922188 
L 981.307057 -503.922188 
L 989.111517 -503.922188 
L 996.915977 -503.922188 
L 1004.720437 -503.922188 
L 1012.524898 -503.922188 
L 1020.329358 -503.922188 
L 1020.329358 -503.90825 
L 1020.329358 -503.90825 
L 1012.524898 -503.818325 
L 1004.720437 -503.753207 
L 996.915977 -503.671813 
L 989.111517 -503.600505 
L 981.307057 -503.650836 
L 973.502597 -503.727159 
L 965.698137 -503.733123 
L 957.893677 -503.722807 
L 950.089217 -503.64526 
L 942.284757 -503.762442 
L 934.480296 -503.895225 
L 926.675836 -503.919873 
L 918.871376 -503.876008 
L 911.066916 -503.726481 
L 903.262456 -503.679665 
L 895.457996 -503.636001 
L 887.653536 -503.376377 
L 879.849076 -503.537809 
L 872.044615 -503.558365 
L 864.240155 -503.335151 
L 856.435695 -503.344797 
L 848.631235 -503.324437 
L 840.826775 -503.140394 
L 833.022315 -502.621902 
L 825.217855 -501.992116 
L 817.413395 -501.852941 
L 809.608935 -501.303244 
L 801.804474 -501.102183 
L 794.000014 -501.374286 
L 786.195554 -501.056135 
L 778.391094 -500.8025 
L 770.586634 -500.09468 
L 762.782174 -499.867796 
L 754.977714 -499.732124 
L 747.173254 -498.851072 
L 739.368793 -496.404058 
L 731.564333 -493.740701 
L 723.759873 -491.290284 
L 715.955413 -487.294727 
L 708.150953 -483.807176 
L 700.346493 -481.372122 
L 692.542033 -480.003788 
L 684.737573 -482.274989 
L 676.933112 -487.076823 
L 669.128652 -489.45158 
L 661.324192 -491.972812 
L 653.519732 -497.375975 
L 645.715272 -502.492496 
L 637.910812 -503.857115 
z
" style="stroke: #363636"/>
    </defs>
    <g clip-path="url(#p33a178de9e)">
     <use xlink:href="#mc51b2cb343" x="0" y="739.812187" style="fill: #0a70a9; stroke: #363636"/>
    </g>
   </g>
   <g id="PolyCollection_7">
    <defs>
     <path id="m2d641da952" d="M 639.819392 -444.126188 
L 639.819392 -444.154369 
L 647.719067 -444.526089 
L 655.618743 -445.622319 
L 663.518418 -446.998007 
L 671.418093 -448.451056 
L 679.317768 -450.405729 
L 687.217444 -451.694031 
L 695.117119 -453.70256 
L 703.016794 -456.671748 
L 710.916469 -458.680069 
L 718.816145 -458.582719 
L 726.71582 -459.430403 
L 734.615495 -458.162284 
L 742.515171 -457.199514 
L 750.414846 -455.534873 
L 758.314521 -452.953021 
L 766.214196 -452.609794 
L 774.113872 -452.350606 
L 782.013547 -450.680838 
L 789.913222 -449.281823 
L 797.812897 -448.945414 
L 805.712573 -449.12697 
L 813.612248 -447.874403 
L 821.511923 -446.903877 
L 829.411599 -446.256165 
L 837.311274 -446.231619 
L 845.210949 -445.749902 
L 853.110624 -445.346452 
L 861.0103 -444.793807 
L 868.909975 -444.480198 
L 876.80965 -444.801617 
L 884.709325 -445.174405 
L 892.609001 -444.732066 
L 900.508676 -444.374276 
L 908.408351 -444.324048 
L 916.308026 -444.453966 
L 924.207702 -444.514378 
L 932.107377 -444.398408 
L 940.007052 -444.34275 
L 947.906728 -444.354524 
L 955.806403 -444.42486 
L 963.706078 -444.277527 
L 971.605753 -444.187201 
L 979.505429 -444.20119 
L 987.405104 -444.407412 
L 995.304779 -444.539642 
L 1003.204454 -444.560101 
L 1011.10413 -444.383842 
L 1019.003805 -444.226719 
L 1026.90348 -444.138202 
L 1026.90348 -444.126188 
L 1026.90348 -444.126188 
L 1019.003805 -444.126188 
L 1011.10413 -444.126188 
L 1003.204454 -444.126188 
L 995.304779 -444.126188 
L 987.405104 -444.126188 
L 979.505429 -444.126188 
L 971.605753 -444.126188 
L 963.706078 -444.126188 
L 955.806403 -444.126188 
L 947.906728 -444.126188 
L 940.007052 -444.126188 
L 932.107377 -444.126188 
L 924.207702 -444.126188 
L 916.308026 -444.126188 
L 908.408351 -444.126188 
L 900.508676 -444.126188 
L 892.609001 -444.126188 
L 884.709325 -444.126188 
L 876.80965 -444.126188 
L 868.909975 -444.126188 
L 861.0103 -444.126188 
L 853.110624 -444.126188 
L 845.210949 -444.126188 
L 837.311274 -444.126188 
L 829.411599 -444.126188 
L 821.511923 -444.126188 
L 813.612248 -444.126188 
L 805.712573 -444.126188 
L 797.812897 -444.126188 
L 789.913222 -444.126188 
L 782.013547 -444.126188 
L 774.113872 -444.126188 
L 766.214196 -444.126188 
L 758.314521 -444.126188 
L 750.414846 -444.126188 
L 742.515171 -444.126188 
L 734.615495 -444.126188 
L 726.71582 -444.126188 
L 718.816145 -444.126188 
L 710.916469 -444.126188 
L 703.016794 -444.126188 
L 695.117119 -444.126188 
L 687.217444 -444.126188 
L 679.317768 -444.126188 
L 671.418093 -444.126188 
L 663.518418 -444.126188 
L 655.618743 -444.126188 
L 647.719067 -444.126188 
L 639.819392 -444.126188 
z
" style="stroke: #363636"/>
    </defs>
    <g clip-path="url(#p33a178de9e)">
     <use xlink:href="#m2d641da952" x="0" y="739.812187" style="fill: #d38c10; stroke: #363636"/>
    </g>
   </g>
   <g id="PolyCollection_8">
    <defs>
     <path id="m6d3eea49f5" d="M 640.475478 -444.046057 
L 640.475478 -444.126188 
L 647.522953 -444.126188 
L 654.570429 -444.126188 
L 661.617904 -444.126188 
L 668.665379 -444.126188 
L 675.712854 -444.126188 
L 682.760329 -444.126188 
L 689.807804 -444.126188 
L 696.855279 -444.126188 
L 703.902754 -444.126188 
L 710.950229 -444.126188 
L 717.997704 -444.126188 
L 725.045179 -444.126188 
L 732.092654 -444.126188 
L 739.140129 -444.126188 
L 746.187605 -444.126188 
L 753.23508 -444.126188 
L 760.282555 -444.126188 
L 767.33003 -444.126188 
L 774.377505 -444.126188 
L 781.42498 -444.126188 
L 788.472455 -444.126188 
L 795.51993 -444.126188 
L 802.567405 -444.126188 
L 809.61488 -444.126188 
L 816.662355 -444.126188 
L 823.70983 -444.126188 
L 830.757305 -444.126188 
L 837.804781 -444.126188 
L 844.852256 -444.126188 
L 851.899731 -444.126188 
L 858.947206 -444.126188 
L 865.994681 -444.126188 
L 873.042156 -444.126188 
L 880.089631 -444.126188 
L 887.137106 -444.126188 
L 894.184581 -444.126188 
L 901.232056 -444.126188 
L 908.279531 -444.126188 
L 915.327006 -444.126188 
L 922.374481 -444.126188 
L 929.421957 -444.126188 
L 936.469432 -444.126188 
L 943.516907 -444.126188 
L 950.564382 -444.126188 
L 957.611857 -444.126188 
L 964.659332 -444.126188 
L 971.706807 -444.126188 
L 978.754282 -444.126188 
L 985.801757 -444.126188 
L 985.801757 -444.111473 
L 985.801757 -444.111473 
L 978.754282 -444.022113 
L 971.706807 -444.072909 
L 964.659332 -444.023888 
L 957.611857 -444.079626 
L 950.564382 -444.072752 
L 943.516907 -444.029863 
L 936.469432 -444.116384 
L 929.421957 -444.126132 
L 922.374481 -444.126187 
L 915.327006 -444.126187 
L 908.279531 -444.126154 
L 901.232056 -444.118867 
L 894.184581 -444.035764 
L 887.137106 -444.012883 
L 880.089631 -443.840334 
L 873.042156 -443.741249 
L 865.994681 -443.900225 
L 858.947206 -443.823088 
L 851.899731 -443.823862 
L 844.852256 -443.605886 
L 837.804781 -443.584423 
L 830.757305 -443.525863 
L 823.70983 -443.459555 
L 816.662355 -443.361389 
L 809.61488 -443.630407 
L 802.567405 -443.633769 
L 795.51993 -442.936651 
L 788.472455 -442.512884 
L 781.42498 -441.881537 
L 774.377505 -441.180852 
L 767.33003 -441.013761 
L 760.282555 -440.412416 
L 753.23508 -439.274759 
L 746.187605 -438.183742 
L 739.140129 -438.024348 
L 732.092654 -435.411122 
L 725.045179 -433.4 
L 717.997704 -432.690166 
L 710.950229 -431.742921 
L 703.902754 -432.100034 
L 696.855279 -430.909507 
L 689.807804 -428.463259 
L 682.760329 -422.872965 
L 675.712854 -420.207788 
L 668.665379 -422.105769 
L 661.617904 -426.208602 
L 654.570429 -434.017365 
L 647.522953 -441.999076 
L 640.475478 -444.046057 
z
" style="stroke: #363636"/>
    </defs>
    <g clip-path="url(#p33a178de9e)">
     <use xlink:href="#m6d3eea49f5" x="0" y="739.812187" style="fill: #0a70a9; stroke: #363636"/>
    </g>
   </g>
   <g id="PolyCollection_9">
    <defs>
     <path id="m8f158d6e96" d="M 637.9144 -384.330188 
L 637.9144 -384.466694 
L 645.753993 -386.186975 
L 653.593586 -390.833073 
L 661.433179 -395.181574 
L 669.272772 -398.069179 
L 677.112366 -400.338209 
L 684.951959 -400.140163 
L 692.791552 -399.388558 
L 700.631145 -399.136153 
L 708.470738 -398.33369 
L 716.310332 -397.337691 
L 724.149925 -394.947686 
L 731.989518 -393.103703 
L 739.829111 -392.242075 
L 747.668704 -392.013466 
L 755.508298 -390.892345 
L 763.347891 -389.593896 
L 771.187484 -389.472838 
L 779.027077 -389.041662 
L 786.86667 -387.703059 
L 794.706264 -386.940952 
L 802.545857 -386.685149 
L 810.38545 -386.234357 
L 818.225043 -386.097592 
L 826.064636 -386.253996 
L 833.90423 -385.887959 
L 841.743823 -385.645208 
L 849.583416 -385.303518 
L 857.423009 -385.18765 
L 865.262602 -385.357618 
L 873.102195 -385.41095 
L 880.941789 -385.016812 
L 888.781382 -384.646863 
L 896.620975 -384.504954 
L 904.460568 -384.502386 
L 912.300161 -384.527828 
L 920.139755 -384.402578 
L 927.979348 -384.535396 
L 935.818941 -384.842759 
L 943.658534 -384.59986 
L 951.498127 -384.436887 
L 959.337721 -384.418325 
L 967.177314 -384.439377 
L 975.016907 -384.457664 
L 982.8565 -384.383819 
L 990.696093 -384.397798 
L 998.535687 -384.452101 
L 1006.37528 -384.478483 
L 1014.214873 -384.419702 
L 1022.054466 -384.342105 
L 1022.054466 -384.330188 
L 1022.054466 -384.330188 
L 1014.214873 -384.330188 
L 1006.37528 -384.330188 
L 998.535687 -384.330188 
L 990.696093 -384.330188 
L 982.8565 -384.330188 
L 975.016907 -384.330188 
L 967.177314 -384.330188 
L 959.337721 -384.330188 
L 951.498127 -384.330188 
L 943.658534 -384.330188 
L 935.818941 -384.330188 
L 927.979348 -384.330188 
L 920.139755 -384.330188 
L 912.300161 -384.330188 
L 904.460568 -384.330188 
L 896.620975 -384.330188 
L 888.781382 -384.330188 
L 880.941789 -384.330188 
L 873.102195 -384.330188 
L 865.262602 -384.330188 
L 857.423009 -384.330188 
L 849.583416 -384.330188 
L 841.743823 -384.330188 
L 833.90423 -384.330188 
L 826.064636 -384.330188 
L 818.225043 -384.330188 
L 810.38545 -384.330188 
L 802.545857 -384.330188 
L 794.706264 -384.330188 
L 786.86667 -384.330188 
L 779.027077 -384.330188 
L 771.187484 -384.330188 
L 763.347891 -384.330188 
L 755.508298 -384.330188 
L 747.668704 -384.330188 
L 739.829111 -384.330188 
L 731.989518 -384.330188 
L 724.149925 -384.330188 
L 716.310332 -384.330188 
L 708.470738 -384.330188 
L 700.631145 -384.330188 
L 692.791552 -384.330188 
L 684.951959 -384.330188 
L 677.112366 -384.330188 
L 669.272772 -384.330188 
L 661.433179 -384.330188 
L 653.593586 -384.330188 
L 645.753993 -384.330188 
L 637.9144 -384.330188 
z
" style="stroke: #363636"/>
    </defs>
    <g clip-path="url(#p33a178de9e)">
     <use xlink:href="#m8f158d6e96" x="0" y="739.812187" style="fill: #d38c10; stroke: #363636"/>
    </g>
   </g>
   <g id="PolyCollection_10">
    <defs>
     <path id="m47ae559a1d" d="M 640.394899 -384.239264 
L 640.394899 -384.330188 
L 647.531446 -384.330188 
L 654.667993 -384.330188 
L 661.80454 -384.330188 
L 668.941086 -384.330188 
L 676.077633 -384.330188 
L 683.21418 -384.330188 
L 690.350727 -384.330188 
L 697.487274 -384.330188 
L 704.623821 -384.330188 
L 711.760368 -384.330188 
L 718.896914 -384.330188 
L 726.033461 -384.330188 
L 733.170008 -384.330188 
L 740.306555 -384.330188 
L 747.443102 -384.330188 
L 754.579649 -384.330188 
L 761.716196 -384.330188 
L 768.852742 -384.330188 
L 775.989289 -384.330188 
L 783.125836 -384.330188 
L 790.262383 -384.330188 
L 797.39893 -384.330188 
L 804.535477 -384.330188 
L 811.672024 -384.330188 
L 818.80857 -384.330188 
L 825.945117 -384.330188 
L 833.081664 -384.330188 
L 840.218211 -384.330188 
L 847.354758 -384.330188 
L 854.491305 -384.330188 
L 861.627851 -384.330188 
L 868.764398 -384.330188 
L 875.900945 -384.330188 
L 883.037492 -384.330188 
L 890.174039 -384.330188 
L 897.310586 -384.330188 
L 904.447133 -384.330188 
L 911.583679 -384.330188 
L 918.720226 -384.330188 
L 925.856773 -384.330188 
L 932.99332 -384.330188 
L 940.129867 -384.330188 
L 947.266414 -384.330188 
L 954.402961 -384.330188 
L 961.539507 -384.330188 
L 968.676054 -384.330188 
L 975.812601 -384.330188 
L 982.949148 -384.330188 
L 990.085695 -384.330188 
L 990.085695 -384.315587 
L 990.085695 -384.315587 
L 982.949148 -384.228201 
L 975.812601 -384.285613 
L 968.676054 -384.328969 
L 961.539507 -384.330185 
L 954.402961 -384.329907 
L 947.266414 -384.308252 
L 940.129867 -384.217665 
L 932.99332 -384.216289 
L 925.856773 -384.206194 
L 918.720226 -384.226094 
L 911.583679 -384.256964 
L 904.447133 -384.074749 
L 897.310586 -384.006793 
L 890.174039 -384.087213 
L 883.037492 -384.242835 
L 875.900945 -384.28658 
L 868.764398 -384.066053 
L 861.627851 -383.86043 
L 854.491305 -383.716267 
L 847.354758 -383.63455 
L 840.218211 -383.462528 
L 833.081664 -383.582903 
L 825.945117 -383.729546 
L 818.80857 -383.456451 
L 811.672024 -383.217149 
L 804.535477 -382.606232 
L 797.39893 -382.305488 
L 790.262383 -382.430058 
L 783.125836 -382.664382 
L 775.989289 -382.367014 
L 768.852742 -381.963968 
L 761.716196 -381.255629 
L 754.579649 -381.337822 
L 747.443102 -380.722915 
L 740.306555 -379.162394 
L 733.170008 -378.021987 
L 726.033461 -376.762604 
L 718.896914 -373.273096 
L 711.760368 -370.638092 
L 704.623821 -366.143225 
L 697.487274 -363.894411 
L 690.350727 -362.519441 
L 683.21418 -360.411788 
L 676.077633 -360.636172 
L 668.941086 -365.596449 
L 661.80454 -371.267088 
L 654.667993 -376.52605 
L 647.531446 -382.391135 
L 640.394899 -384.239264 
z
" style="stroke: #363636"/>
    </defs>
    <g clip-path="url(#p33a178de9e)">
     <use xlink:href="#m47ae559a1d" x="0" y="739.812187" style="fill: #0a70a9; stroke: #363636"/>
    </g>
   </g>
   <g id="PolyCollection_11">
    <defs>
     <path id="mdfecea6557" d="M 637.178234 -324.534188 
L 637.178234 -324.577705 
L 644.902606 -325.219681 
L 652.626978 -328.248595 
L 660.351349 -334.182663 
L 668.075721 -341.891961 
L 675.800092 -348.084458 
L 683.524464 -347.611173 
L 691.248835 -344.831036 
L 698.973207 -343.492025 
L 706.697578 -340.76022 
L 714.42195 -337.125793 
L 722.146321 -335.16718 
L 729.870693 -333.199402 
L 737.595064 -332.105242 
L 745.319436 -331.043401 
L 753.043807 -329.460476 
L 760.768179 -329.358486 
L 768.49255 -329.334751 
L 776.216922 -328.924631 
L 783.941293 -328.33364 
L 791.665665 -327.417942 
L 799.390036 -327.123268 
L 807.114408 -326.974535 
L 814.83878 -326.926968 
L 822.563151 -326.365785 
L 830.287523 -325.704681 
L 838.011894 -325.44513 
L 845.736266 -325.426712 
L 853.460637 -325.218252 
L 861.185009 -325.073625 
L 868.90938 -325.096719 
L 876.633752 -324.891707 
L 884.358123 -324.847908 
L 892.082495 -324.829765 
L 899.806866 -324.807103 
L 907.531238 -324.704132 
L 915.255609 -324.734576 
L 922.979981 -324.897906 
L 930.704352 -324.71278 
L 938.428724 -324.755309 
L 946.153095 -324.732227 
L 953.877467 -324.797259 
L 961.601838 -324.813656 
L 969.32621 -324.63877 
L 977.050582 -324.654232 
L 984.774953 -324.799525 
L 992.499325 -324.960153 
L 1000.223696 -324.889112 
L 1007.948068 -324.650401 
L 1015.672439 -324.547492 
L 1015.672439 -324.534188 
L 1015.672439 -324.534188 
L 1007.948068 -324.534188 
L 1000.223696 -324.534188 
L 992.499325 -324.534188 
L 984.774953 -324.534188 
L 977.050582 -324.534188 
L 969.32621 -324.534188 
L 961.601838 -324.534188 
L 953.877467 -324.534188 
L 946.153095 -324.534188 
L 938.428724 -324.534188 
L 930.704352 -324.534188 
L 922.979981 -324.534188 
L 915.255609 -324.534188 
L 907.531238 -324.534188 
L 899.806866 -324.534188 
L 892.082495 -324.534188 
L 884.358123 -324.534188 
L 876.633752 -324.534188 
L 868.90938 -324.534188 
L 861.185009 -324.534188 
L 853.460637 -324.534188 
L 845.736266 -324.534188 
L 838.011894 -324.534188 
L 830.287523 -324.534188 
L 822.563151 -324.534188 
L 814.83878 -324.534188 
L 807.114408 -324.534188 
L 799.390036 -324.534188 
L 791.665665 -324.534188 
L 783.941293 -324.534188 
L 776.216922 -324.534188 
L 768.49255 -324.534188 
L 760.768179 -324.534188 
L 753.043807 -324.534188 
L 745.319436 -324.534188 
L 737.595064 -324.534188 
L 729.870693 -324.534188 
L 722.146321 -324.534188 
L 714.42195 -324.534188 
L 706.697578 -324.534188 
L 698.973207 -324.534188 
L 691.248835 -324.534188 
L 683.524464 -324.534188 
L 675.800092 -324.534188 
L 668.075721 -324.534188 
L 660.351349 -324.534188 
L 652.626978 -324.534188 
L 644.902606 -324.534188 
L 637.178234 -324.534188 
z
" style="stroke: #363636"/>
    </defs>
    <g clip-path="url(#p33a178de9e)">
     <use xlink:href="#mdfecea6557" x="0" y="739.812187" style="fill: #d38c10; stroke: #363636"/>
    </g>
   </g>
   <g id="PolyCollection_12">
    <defs>
     <path id="mad5361faf1" d="M 638.990231 -324.386424 
L 638.990231 -324.534188 
L 646.400478 -324.534188 
L 653.810725 -324.534188 
L 661.220973 -324.534188 
L 668.63122 -324.534188 
L 676.041468 -324.534188 
L 683.451715 -324.534188 
L 690.861962 -324.534188 
L 698.27221 -324.534188 
L 705.682457 -324.534188 
L 713.092705 -324.534188 
L 720.502952 -324.534188 
L 727.9132 -324.534188 
L 735.323447 -324.534188 
L 742.733694 -324.534188 
L 750.143942 -324.534188 
L 757.554189 -324.534188 
L 764.964437 -324.534188 
L 772.374684 -324.534188 
L 779.784931 -324.534188 
L 787.195179 -324.534188 
L 794.605426 -324.534188 
L 802.015674 -324.534188 
L 809.425921 -324.534188 
L 816.836168 -324.534188 
L 824.246416 -324.534188 
L 831.656663 -324.534188 
L 839.066911 -324.534188 
L 846.477158 -324.534188 
L 853.887406 -324.534188 
L 861.297653 -324.534188 
L 868.7079 -324.534188 
L 876.118148 -324.534188 
L 883.528395 -324.534188 
L 890.938643 -324.534188 
L 898.34889 -324.534188 
L 905.759137 -324.534188 
L 913.169385 -324.534188 
L 920.579632 -324.534188 
L 927.98988 -324.534188 
L 935.400127 -324.534188 
L 942.810374 -324.534188 
L 950.220622 -324.534188 
L 957.630869 -324.534188 
L 965.041117 -324.534188 
L 972.451364 -324.534188 
L 979.861612 -324.534188 
L 987.271859 -324.534188 
L 994.682106 -324.534188 
L 1002.092354 -324.534188 
L 1002.092354 -324.510773 
L 1002.092354 -324.510773 
L 994.682106 -324.367176 
L 987.271859 -324.34463 
L 979.861612 -324.290011 
L 972.451364 -324.177778 
L 965.041117 -324.083219 
L 957.630869 -324.08761 
L 950.220622 -324.213433 
L 942.810374 -324.274933 
L 935.400127 -324.294909 
L 927.98988 -324.269685 
L 920.579632 -324.353307 
L 913.169385 -324.377056 
L 905.759137 -324.403231 
L 898.34889 -324.42409 
L 890.938643 -324.498937 
L 883.528395 -324.463671 
L 876.118148 -324.405492 
L 868.7079 -324.416868 
L 861.297653 -324.387172 
L 853.887406 -324.21173 
L 846.477158 -324.294593 
L 839.066911 -324.312151 
L 831.656663 -323.967674 
L 824.246416 -323.869683 
L 816.836168 -323.624406 
L 809.425921 -323.274642 
L 802.015674 -322.857319 
L 794.605426 -322.139494 
L 787.195179 -320.998351 
L 779.784931 -320.293132 
L 772.374684 -320.582495 
L 764.964437 -319.910767 
L 757.554189 -318.148976 
L 750.143942 -317.904083 
L 742.733694 -318.642188 
L 735.323447 -317.147259 
L 727.9132 -313.468156 
L 720.502952 -314.193056 
L 713.092705 -313.777567 
L 705.682457 -310.830595 
L 698.27221 -309.116447 
L 690.861962 -307.628878 
L 683.451715 -304.289041 
L 676.041468 -301.936703 
L 668.63122 -300.615788 
L 661.220973 -304.208953 
L 653.810725 -314.106973 
L 646.400478 -322.167365 
L 638.990231 -324.386424 
z
" style="stroke: #363636"/>
    </defs>
    <g clip-path="url(#p33a178de9e)">
     <use xlink:href="#mad5361faf1" x="0" y="739.812187" style="fill: #0a70a9; stroke: #363636"/>
    </g>
   </g>
   <g id="PolyCollection_13">
    <defs>
     <path id="m85873133ff" d="M 637.210119 -264.738188 
L 637.210119 -264.821809 
L 644.68998 -265.939542 
L 652.16984 -269.678586 
L 659.649701 -274.627334 
L 667.129561 -279.094753 
L 674.609422 -281.679855 
L 682.089282 -282.676241 
L 689.569143 -281.993089 
L 697.049003 -281.549621 
L 704.528864 -282.349878 
L 712.008724 -281.097442 
L 719.488585 -277.061267 
L 726.968445 -275.086935 
L 734.448306 -273.458726 
L 741.928166 -272.316657 
L 749.408027 -271.563953 
L 756.887887 -269.93142 
L 764.367748 -268.741168 
L 771.847608 -268.734756 
L 779.327469 -268.63598 
L 786.807329 -268.298027 
L 794.28719 -267.745114 
L 801.76705 -266.995741 
L 809.246911 -266.724154 
L 816.726771 -267.163145 
L 824.206632 -266.75155 
L 831.686492 -265.928269 
L 839.166353 -265.853539 
L 846.646213 -265.554904 
L 854.126074 -265.368937 
L 861.605934 -265.451111 
L 869.085795 -265.171622 
L 876.565655 -265.040178 
L 884.045516 -265.134337 
L 891.525376 -265.106607 
L 899.005237 -265.073159 
L 906.485097 -264.962411 
L 913.964958 -264.908423 
L 921.444818 -264.864813 
L 928.924679 -265.041109 
L 936.404539 -265.120735 
L 943.8844 -265.005179 
L 951.36426 -264.827608 
L 958.844121 -264.887718 
L 966.323981 -264.920199 
L 973.803842 -264.900473 
L 981.283702 -264.952322 
L 988.763563 -264.882565 
L 996.243423 -264.821244 
L 1003.723284 -264.750668 
L 1003.723284 -264.738188 
L 1003.723284 -264.738188 
L 996.243423 -264.738188 
L 988.763563 -264.738188 
L 981.283702 -264.738188 
L 973.803842 -264.738188 
L 966.323981 -264.738188 
L 958.844121 -264.738188 
L 951.36426 -264.738188 
L 943.8844 -264.738188 
L 936.404539 -264.738188 
L 928.924679 -264.738188 
L 921.444818 -264.738188 
L 913.964958 -264.738188 
L 906.485097 -264.738188 
L 899.005237 -264.738188 
L 891.525376 -264.738188 
L 884.045516 -264.738188 
L 876.565655 -264.738188 
L 869.085795 -264.738188 
L 861.605934 -264.738188 
L 854.126074 -264.738188 
L 846.646213 -264.738188 
L 839.166353 -264.738188 
L 831.686492 -264.738188 
L 824.206632 -264.738188 
L 816.726771 -264.738188 
L 809.246911 -264.738188 
L 801.76705 -264.738188 
L 794.28719 -264.738188 
L 786.807329 -264.738188 
L 779.327469 -264.738188 
L 771.847608 -264.738188 
L 764.367748 -264.738188 
L 756.887887 -264.738188 
L 749.408027 -264.738188 
L 741.928166 -264.738188 
L 734.448306 -264.738188 
L 726.968445 -264.738188 
L 719.488585 -264.738188 
L 712.008724 -264.738188 
L 704.528864 -264.738188 
L 697.049003 -264.738188 
L 689.569143 -264.738188 
L 682.089282 -264.738188 
L 674.609422 -264.738188 
L 667.129561 -264.738188 
L 659.649701 -264.738188 
L 652.16984 -264.738188 
L 644.68998 -264.738188 
L 637.210119 -264.738188 
z
" style="stroke: #363636"/>
    </defs>
    <g clip-path="url(#p33a178de9e)">
     <use xlink:href="#m85873133ff" x="0" y="739.812187" style="fill: #d38c10; stroke: #363636"/>
    </g>
   </g>
   <g id="PolyCollection_14">
    <defs>
     <path id="m04ac694acf" d="M 637.73666 -264.614258 
L 637.73666 -264.738188 
L 645.628797 -264.738188 
L 653.520934 -264.738188 
L 661.413071 -264.738188 
L 669.305208 -264.738188 
L 677.197346 -264.738188 
L 685.089483 -264.738188 
L 692.98162 -264.738188 
L 700.873757 -264.738188 
L 708.765894 -264.738188 
L 716.658031 -264.738188 
L 724.550168 -264.738188 
L 732.442306 -264.738188 
L 740.334443 -264.738188 
L 748.22658 -264.738188 
L 756.118717 -264.738188 
L 764.010854 -264.738188 
L 771.902991 -264.738188 
L 779.795129 -264.738188 
L 787.687266 -264.738188 
L 795.579403 -264.738188 
L 803.47154 -264.738188 
L 811.363677 -264.738188 
L 819.255814 -264.738188 
L 827.147952 -264.738188 
L 835.040089 -264.738188 
L 842.932226 -264.738188 
L 850.824363 -264.738188 
L 858.7165 -264.738188 
L 866.608637 -264.738188 
L 874.500775 -264.738188 
L 882.392912 -264.738188 
L 890.285049 -264.738188 
L 898.177186 -264.738188 
L 906.069323 -264.738188 
L 913.96146 -264.738188 
L 921.853597 -264.738188 
L 929.745735 -264.738188 
L 937.637872 -264.738188 
L 945.530009 -264.738188 
L 953.422146 -264.738188 
L 961.314283 -264.738188 
L 969.20642 -264.738188 
L 977.098558 -264.738188 
L 984.990695 -264.738188 
L 992.882832 -264.738188 
L 1000.774969 -264.738188 
L 1008.667106 -264.738188 
L 1016.559243 -264.738188 
L 1024.451381 -264.738188 
L 1024.451381 -264.725273 
L 1024.451381 -264.725273 
L 1016.559243 -264.651175 
L 1008.667106 -264.688404 
L 1000.774969 -264.735769 
L 992.882832 -264.738178 
L 984.990695 -264.738187 
L 977.098558 -264.737713 
L 969.20642 -264.715183 
L 961.314283 -264.643407 
L 953.422146 -264.705026 
L 945.530009 -264.736729 
L 937.637872 -264.706422 
L 929.745735 -264.555532 
L 921.853597 -264.60374 
L 913.96146 -264.563417 
L 906.069323 -264.575164 
L 898.177186 -264.590368 
L 890.285049 -264.568129 
L 882.392912 -264.665521 
L 874.500775 -264.576764 
L 866.608637 -264.467553 
L 858.7165 -264.36512 
L 850.824363 -263.823503 
L 842.932226 -263.895744 
L 835.040089 -263.828717 
L 827.147952 -263.251833 
L 819.255814 -262.719716 
L 811.363677 -262.335255 
L 803.47154 -261.72166 
L 795.579403 -261.04832 
L 787.687266 -260.78695 
L 779.795129 -260.920537 
L 771.902991 -260.774462 
L 764.010854 -259.44475 
L 756.118717 -259.02224 
L 748.22658 -259.699473 
L 740.334443 -259.303334 
L 732.442306 -259.230249 
L 724.550168 -258.296228 
L 716.658031 -257.453667 
L 708.765894 -255.231403 
L 700.873757 -251.481349 
L 692.98162 -248.114494 
L 685.089483 -245.593193 
L 677.197346 -242.118012 
L 669.305208 -240.819788 
L 661.413071 -244.17246 
L 653.520934 -253.958345 
L 645.628797 -262.370356 
L 637.73666 -264.614258 
z
" style="stroke: #363636"/>
    </defs>
    <g clip-path="url(#p33a178de9e)">
     <use xlink:href="#m04ac694acf" x="0" y="739.812187" style="fill: #0a70a9; stroke: #363636"/>
    </g>
   </g>
   <g id="PolyCollection_15">
    <defs>
     <path id="m96941df671" d="M 635.956075 -204.942188 
L 635.956075 -205.058887 
L 643.462701 -206.400519 
L 650.969326 -211.74802 
L 658.475952 -219.941575 
L 665.982577 -225.632268 
L 673.489203 -228.647143 
L 680.995829 -228.860588 
L 688.502454 -226.074676 
L 696.00908 -220.965567 
L 703.515705 -216.800106 
L 711.022331 -215.2631 
L 718.528957 -213.989551 
L 726.035582 -212.66684 
L 733.542208 -211.248646 
L 741.048833 -210.49199 
L 748.555459 -210.719148 
L 756.062085 -210.39342 
L 763.56871 -209.650793 
L 771.075336 -209.503364 
L 778.581961 -208.991403 
L 786.088587 -208.502035 
L 793.595213 -208.023964 
L 801.101838 -207.464859 
L 808.608464 -207.569058 
L 816.115089 -207.267947 
L 823.621715 -206.795807 
L 831.128341 -206.785486 
L 838.634966 -206.630185 
L 846.141592 -206.718493 
L 853.648217 -206.794811 
L 861.154843 -206.590954 
L 868.661469 -206.451055 
L 876.168094 -206.187062 
L 883.67472 -205.913809 
L 891.181345 -206.005588 
L 898.687971 -205.946598 
L 906.194597 -205.511608 
L 913.701222 -205.324842 
L 921.207848 -205.359451 
L 928.714473 -205.385446 
L 936.221099 -205.319302 
L 943.727725 -205.194099 
L 951.23435 -205.047028 
L 958.740976 -205.113182 
L 966.247601 -205.229221 
L 973.754227 -205.170981 
L 981.260853 -205.086298 
L 988.767478 -205.052873 
L 996.274104 -205.007592 
L 1003.780729 -204.953717 
L 1003.780729 -204.942188 
L 1003.780729 -204.942188 
L 996.274104 -204.942188 
L 988.767478 -204.942188 
L 981.260853 -204.942188 
L 973.754227 -204.942188 
L 966.247601 -204.942188 
L 958.740976 -204.942188 
L 951.23435 -204.942188 
L 943.727725 -204.942188 
L 936.221099 -204.942188 
L 928.714473 -204.942188 
L 921.207848 -204.942188 
L 913.701222 -204.942188 
L 906.194597 -204.942188 
L 898.687971 -204.942188 
L 891.181345 -204.942188 
L 883.67472 -204.942188 
L 876.168094 -204.942188 
L 868.661469 -204.942188 
L 861.154843 -204.942188 
L 853.648217 -204.942188 
L 846.141592 -204.942188 
L 838.634966 -204.942188 
L 831.128341 -204.942188 
L 823.621715 -204.942188 
L 816.115089 -204.942188 
L 808.608464 -204.942188 
L 801.101838 -204.942188 
L 793.595213 -204.942188 
L 786.088587 -204.942188 
L 778.581961 -204.942188 
L 771.075336 -204.942188 
L 763.56871 -204.942188 
L 756.062085 -204.942188 
L 748.555459 -204.942188 
L 741.048833 -204.942188 
L 733.542208 -204.942188 
L 726.035582 -204.942188 
L 718.528957 -204.942188 
L 711.022331 -204.942188 
L 703.515705 -204.942188 
L 696.00908 -204.942188 
L 688.502454 -204.942188 
L 680.995829 -204.942188 
L 673.489203 -204.942188 
L 665.982577 -204.942188 
L 658.475952 -204.942188 
L 650.969326 -204.942188 
L 643.462701 -204.942188 
L 635.956075 -204.942188 
z
" style="stroke: #363636"/>
    </defs>
    <g clip-path="url(#p33a178de9e)">
     <use xlink:href="#m96941df671" x="0" y="739.812187" style="fill: #d38c10; stroke: #363636"/>
    </g>
   </g>
   <g id="PolyCollection_16">
    <defs>
     <path id="mecae595992" d="M 638.604355 -204.869704 
L 638.604355 -204.942188 
L 646.004478 -204.942188 
L 653.404601 -204.942188 
L 660.804725 -204.942188 
L 668.204848 -204.942188 
L 675.604972 -204.942188 
L 683.005095 -204.942188 
L 690.405219 -204.942188 
L 697.805342 -204.942188 
L 705.205465 -204.942188 
L 712.605589 -204.942188 
L 720.005712 -204.942188 
L 727.405836 -204.942188 
L 734.805959 -204.942188 
L 742.206082 -204.942188 
L 749.606206 -204.942188 
L 757.006329 -204.942188 
L 764.406453 -204.942188 
L 771.806576 -204.942188 
L 779.2067 -204.942188 
L 786.606823 -204.942188 
L 794.006946 -204.942188 
L 801.40707 -204.942188 
L 808.807193 -204.942188 
L 816.207317 -204.942188 
L 823.60744 -204.942188 
L 831.007564 -204.942188 
L 838.407687 -204.942188 
L 845.80781 -204.942188 
L 853.207934 -204.942188 
L 860.608057 -204.942188 
L 868.008181 -204.942188 
L 875.408304 -204.942188 
L 882.808427 -204.942188 
L 890.208551 -204.942188 
L 897.608674 -204.942188 
L 905.008798 -204.942188 
L 912.408921 -204.942188 
L 919.809045 -204.942188 
L 927.209168 -204.942188 
L 934.609291 -204.942188 
L 942.009415 -204.942188 
L 949.409538 -204.942188 
L 956.809662 -204.942188 
L 964.209785 -204.942188 
L 971.609908 -204.942188 
L 979.010032 -204.942188 
L 986.410155 -204.942188 
L 993.810279 -204.942188 
L 1001.210402 -204.942188 
L 1001.210402 -204.924574 
L 1001.210402 -204.924574 
L 993.810279 -204.749434 
L 986.410155 -204.393061 
L 979.010032 -204.286641 
L 971.609908 -204.398332 
L 964.209785 -204.403048 
L 956.809662 -204.745753 
L 949.409538 -204.686985 
L 942.009415 -204.746748 
L 934.609291 -204.870718 
L 927.209168 -204.732263 
L 919.809045 -204.683834 
L 912.408921 -204.769552 
L 905.008798 -204.906006 
L 897.608674 -204.82774 
L 890.208551 -204.717332 
L 882.808427 -204.654569 
L 875.408304 -204.680731 
L 868.008181 -204.691306 
L 860.608057 -204.710382 
L 853.207934 -204.718983 
L 845.80781 -204.463466 
L 838.407687 -204.225788 
L 831.007564 -204.035354 
L 823.60744 -203.451627 
L 816.207317 -203.740309 
L 808.807193 -203.898325 
L 801.40707 -203.225521 
L 794.006946 -202.371928 
L 786.606823 -202.180331 
L 779.2067 -202.529805 
L 771.806576 -201.847589 
L 764.406453 -200.4016 
L 757.006329 -198.85791 
L 749.606206 -198.496731 
L 742.206082 -197.328396 
L 734.805959 -194.459107 
L 727.405836 -191.927962 
L 720.005712 -190.572885 
L 712.605589 -187.977852 
L 705.205465 -186.489352 
L 697.805342 -184.868038 
L 690.405219 -183.736161 
L 683.005095 -183.445534 
L 675.604972 -183.465242 
L 668.204848 -187.649465 
L 660.804725 -193.252133 
L 653.404601 -199.481866 
L 646.004478 -203.787431 
L 638.604355 -204.869704 
z
" style="stroke: #363636"/>
    </defs>
    <g clip-path="url(#p33a178de9e)">
     <use xlink:href="#mecae595992" x="0" y="739.812187" style="fill: #0a70a9; stroke: #363636"/>
    </g>
   </g>
   <g id="PolyCollection_17">
    <defs>
     <path id="med50be7769" d="M 638.531483 -145.146188 
L 638.531483 -145.220616 
L 646.493357 -146.384555 
L 654.455231 -151.085138 
L 662.417104 -156.312498 
L 670.378978 -161.206271 
L 678.340852 -163.598031 
L 686.302726 -165.815475 
L 694.264599 -168.563927 
L 702.226473 -166.756904 
L 710.188347 -165.008877 
L 718.15022 -162.188309 
L 726.112094 -157.096264 
L 734.073968 -155.068918 
L 742.035841 -153.46031 
L 749.997715 -153.080442 
L 757.959589 -152.559708 
L 765.921463 -150.289301 
L 773.883336 -149.275527 
L 781.84521 -149.261958 
L 789.807084 -148.480625 
L 797.768957 -147.382406 
L 805.730831 -147.248126 
L 813.692705 -146.559311 
L 821.654578 -146.181134 
L 829.616452 -145.874301 
L 837.578326 -145.543221 
L 845.5402 -145.604715 
L 853.502073 -145.649066 
L 861.463947 -145.362439 
L 869.425821 -145.177117 
L 877.387694 -145.169142 
L 885.349568 -145.250004 
L 893.311442 -145.188685 
L 901.273315 -145.193578 
L 909.235189 -145.293992 
L 917.197063 -145.347443 
L 925.158937 -145.36204 
L 933.12081 -145.277399 
L 941.082684 -145.437722 
L 949.044558 -145.754633 
L 957.006431 -145.757709 
L 964.968305 -145.654663 
L 972.930179 -145.670095 
L 980.892052 -145.66458 
L 988.853926 -145.373776 
L 996.8158 -145.160952 
L 1004.777674 -145.14895 
L 1012.739547 -145.201272 
L 1020.701421 -145.242628 
L 1028.663295 -145.160497 
L 1028.663295 -145.146188 
L 1028.663295 -145.146188 
L 1020.701421 -145.146188 
L 1012.739547 -145.146188 
L 1004.777674 -145.146188 
L 996.8158 -145.146188 
L 988.853926 -145.146188 
L 980.892052 -145.146188 
L 972.930179 -145.146188 
L 964.968305 -145.146188 
L 957.006431 -145.146188 
L 949.044558 -145.146188 
L 941.082684 -145.146188 
L 933.12081 -145.146188 
L 925.158937 -145.146188 
L 917.197063 -145.146188 
L 909.235189 -145.146188 
L 901.273315 -145.146188 
L 893.311442 -145.146188 
L 885.349568 -145.146188 
L 877.387694 -145.146188 
L 869.425821 -145.146188 
L 861.463947 -145.146188 
L 853.502073 -145.146188 
L 845.5402 -145.146188 
L 837.578326 -145.146188 
L 829.616452 -145.146188 
L 821.654578 -145.146188 
L 813.692705 -145.146188 
L 805.730831 -145.146188 
L 797.768957 -145.146188 
L 789.807084 -145.146188 
L 781.84521 -145.146188 
L 773.883336 -145.146188 
L 765.921463 -145.146188 
L 757.959589 -145.146188 
L 749.997715 -145.146188 
L 742.035841 -145.146188 
L 734.073968 -145.146188 
L 726.112094 -145.146188 
L 718.15022 -145.146188 
L 710.188347 -145.146188 
L 702.226473 -145.146188 
L 694.264599 -145.146188 
L 686.302726 -145.146188 
L 678.340852 -145.146188 
L 670.378978 -145.146188 
L 662.417104 -145.146188 
L 654.455231 -145.146188 
L 646.493357 -145.146188 
L 638.531483 -145.146188 
z
" style="stroke: #363636"/>
    </defs>
    <g clip-path="url(#p33a178de9e)">
     <use xlink:href="#med50be7769" x="0" y="739.812187" style="fill: #d38c10; stroke: #363636"/>
    </g>
   </g>
   <g id="PolyCollection_18">
    <defs>
     <path id="m2328d9faf3" d="M 636.342192 -145.067791 
L 636.342192 -145.146188 
L 644.191801 -145.146188 
L 652.041409 -145.146188 
L 659.891018 -145.146188 
L 667.740626 -145.146188 
L 675.590235 -145.146188 
L 683.439843 -145.146188 
L 691.289452 -145.146188 
L 699.13906 -145.146188 
L 706.988669 -145.146188 
L 714.838278 -145.146188 
L 722.687886 -145.146188 
L 730.537495 -145.146188 
L 738.387103 -145.146188 
L 746.236712 -145.146188 
L 754.08632 -145.146188 
L 761.935929 -145.146188 
L 769.785537 -145.146188 
L 777.635146 -145.146188 
L 785.484754 -145.146188 
L 793.334363 -145.146188 
L 801.183971 -145.146188 
L 809.03358 -145.146188 
L 816.883188 -145.146188 
L 824.732797 -145.146188 
L 832.582405 -145.146188 
L 840.432014 -145.146188 
L 848.281622 -145.146188 
L 856.131231 -145.146188 
L 863.980839 -145.146188 
L 871.830448 -145.146188 
L 879.680057 -145.146188 
L 887.529665 -145.146188 
L 895.379274 -145.146188 
L 903.228882 -145.146188 
L 911.078491 -145.146188 
L 918.928099 -145.146188 
L 926.777708 -145.146188 
L 934.627316 -145.146188 
L 942.476925 -145.146188 
L 950.326533 -145.146188 
L 958.176142 -145.146188 
L 966.02575 -145.146188 
L 973.875359 -145.146188 
L 981.724967 -145.146188 
L 989.574576 -145.146188 
L 997.424184 -145.146188 
L 1005.273793 -145.146188 
L 1013.123401 -145.146188 
L 1020.97301 -145.146188 
L 1020.97301 -145.133437 
L 1020.97301 -145.133437 
L 1013.123401 -145.068301 
L 1005.273793 -145.064666 
L 997.424184 -145.00992 
L 989.574576 -144.844888 
L 981.724967 -144.790638 
L 973.875359 -144.815785 
L 966.02575 -144.85469 
L 958.176142 -144.86091 
L 950.326533 -144.862316 
L 942.476925 -144.806 
L 934.627316 -144.894734 
L 926.777708 -144.88901 
L 918.928099 -144.877712 
L 911.078491 -144.947395 
L 903.228882 -144.91375 
L 895.379274 -144.823104 
L 887.529665 -144.78081 
L 879.680057 -144.779356 
L 871.830448 -144.683697 
L 863.980839 -144.580728 
L 856.131231 -144.265131 
L 848.281622 -144.132412 
L 840.432014 -143.913055 
L 832.582405 -143.506689 
L 824.732797 -142.559744 
L 816.883188 -141.907955 
L 809.03358 -140.837643 
L 801.183971 -141.795608 
L 793.334363 -142.452376 
L 785.484754 -142.14766 
L 777.635146 -141.889929 
L 769.785537 -140.774969 
L 761.935929 -139.813906 
L 754.08632 -139.748603 
L 746.236712 -139.216383 
L 738.387103 -138.696773 
L 730.537495 -137.790282 
L 722.687886 -136.13114 
L 714.838278 -133.127211 
L 706.988669 -129.862143 
L 699.13906 -127.297569 
L 691.289452 -123.631431 
L 683.439843 -121.227788 
L 675.590235 -121.262072 
L 667.740626 -123.632635 
L 659.891018 -130.969927 
L 652.041409 -138.902589 
L 644.191801 -143.859091 
L 636.342192 -145.067791 
z
" style="stroke: #363636"/>
    </defs>
    <g clip-path="url(#p33a178de9e)">
     <use xlink:href="#m2328d9faf3" x="0" y="739.812187" style="fill: #0a70a9; stroke: #363636"/>
    </g>
   </g>
   <g id="PolyCollection_19">
    <defs>
     <path id="mb8b630d8ef" d="M 636.458727 -85.350188 
L 636.458727 -85.416291 
L 644.456046 -86.027049 
L 652.453366 -88.048894 
L 660.450686 -91.003522 
L 668.448006 -93.939084 
L 676.445326 -96.569599 
L 684.442646 -97.820356 
L 692.439966 -97.902668 
L 700.437285 -98.660607 
L 708.434605 -100.193861 
L 716.431925 -100.864817 
L 724.429245 -99.922075 
L 732.426565 -98.60937 
L 740.423885 -98.223978 
L 748.421205 -98.349357 
L 756.418524 -98.348359 
L 764.415844 -97.990683 
L 772.413164 -97.175736 
L 780.410484 -96.065882 
L 788.407804 -95.254469 
L 796.405124 -94.437151 
L 804.402444 -92.905974 
L 812.399763 -91.855719 
L 820.397083 -91.846999 
L 828.394403 -91.816058 
L 836.391723 -91.022705 
L 844.389043 -89.921493 
L 852.386363 -89.341934 
L 860.383683 -89.041204 
L 868.381002 -88.843794 
L 876.378322 -88.209943 
L 884.375642 -87.754767 
L 892.372962 -88.039677 
L 900.370282 -87.778045 
L 908.367602 -87.196205 
L 916.364922 -86.958295 
L 924.362242 -87.236932 
L 932.359561 -87.467972 
L 940.356881 -86.873869 
L 948.354201 -86.184623 
L 956.351521 -85.870032 
L 964.348841 -85.608601 
L 972.346161 -85.595227 
L 980.343481 -85.738891 
L 988.3408 -85.950547 
L 996.33812 -85.954737 
L 1004.33544 -85.66208 
L 1012.33276 -85.569154 
L 1020.33008 -85.484741 
L 1028.3274 -85.375974 
L 1028.3274 -85.350188 
L 1028.3274 -85.350188 
L 1020.33008 -85.350188 
L 1012.33276 -85.350188 
L 1004.33544 -85.350188 
L 996.33812 -85.350188 
L 988.3408 -85.350188 
L 980.343481 -85.350188 
L 972.346161 -85.350188 
L 964.348841 -85.350188 
L 956.351521 -85.350188 
L 948.354201 -85.350188 
L 940.356881 -85.350188 
L 932.359561 -85.350188 
L 924.362242 -85.350188 
L 916.364922 -85.350188 
L 908.367602 -85.350188 
L 900.370282 -85.350188 
L 892.372962 -85.350188 
L 884.375642 -85.350188 
L 876.378322 -85.350188 
L 868.381002 -85.350188 
L 860.383683 -85.350188 
L 852.386363 -85.350188 
L 844.389043 -85.350188 
L 836.391723 -85.350188 
L 828.394403 -85.350188 
L 820.397083 -85.350188 
L 812.399763 -85.350188 
L 804.402444 -85.350188 
L 796.405124 -85.350188 
L 788.407804 -85.350188 
L 780.410484 -85.350188 
L 772.413164 -85.350188 
L 764.415844 -85.350188 
L 756.418524 -85.350188 
L 748.421205 -85.350188 
L 740.423885 -85.350188 
L 732.426565 -85.350188 
L 724.429245 -85.350188 
L 716.431925 -85.350188 
L 708.434605 -85.350188 
L 700.437285 -85.350188 
L 692.439966 -85.350188 
L 684.442646 -85.350188 
L 676.445326 -85.350188 
L 668.448006 -85.350188 
L 660.450686 -85.350188 
L 652.453366 -85.350188 
L 644.456046 -85.350188 
L 636.458727 -85.350188 
z
" style="stroke: #363636"/>
    </defs>
    <g clip-path="url(#p33a178de9e)">
     <use xlink:href="#mb8b630d8ef" x="0" y="739.812187" style="fill: #d38c10; stroke: #363636"/>
    </g>
   </g>
   <g id="PolyCollection_20">
    <defs>
     <path id="m558db9a617" d="M 638.035341 -85.196663 
L 638.035341 -85.350188 
L 644.834249 -85.350188 
L 651.633157 -85.350188 
L 658.432065 -85.350188 
L 665.230973 -85.350188 
L 672.029882 -85.350188 
L 678.82879 -85.350188 
L 685.627698 -85.350188 
L 692.426606 -85.350188 
L 699.225514 -85.350188 
L 706.024423 -85.350188 
L 712.823331 -85.350188 
L 719.622239 -85.350188 
L 726.421147 -85.350188 
L 733.220055 -85.350188 
L 740.018964 -85.350188 
L 746.817872 -85.350188 
L 753.61678 -85.350188 
L 760.415688 -85.350188 
L 767.214596 -85.350188 
L 774.013505 -85.350188 
L 780.812413 -85.350188 
L 787.611321 -85.350188 
L 794.410229 -85.350188 
L 801.209138 -85.350188 
L 808.008046 -85.350188 
L 814.806954 -85.350188 
L 821.605862 -85.350188 
L 828.40477 -85.350188 
L 835.203679 -85.350188 
L 842.002587 -85.350188 
L 848.801495 -85.350188 
L 855.600403 -85.350188 
L 862.399311 -85.350188 
L 869.19822 -85.350188 
L 875.997128 -85.350188 
L 882.796036 -85.350188 
L 889.594944 -85.350188 
L 896.393852 -85.350188 
L 903.192761 -85.350188 
L 909.991669 -85.350188 
L 916.790577 -85.350188 
L 923.589485 -85.350188 
L 930.388394 -85.350188 
L 937.187302 -85.350188 
L 943.98621 -85.350188 
L 950.785118 -85.350188 
L 957.584026 -85.350188 
L 964.382935 -85.350188 
L 971.181843 -85.350188 
L 971.181843 -85.33206 
L 971.181843 -85.33206 
L 964.382935 -85.241928 
L 957.584026 -85.244957 
L 950.785118 -85.331263 
L 943.98621 -85.305253 
L 937.187302 -85.18349 
L 930.388394 -85.155968 
L 923.589485 -85.267188 
L 916.790577 -85.331956 
L 909.991669 -85.23913 
L 903.192761 -85.065246 
L 896.393852 -85.012741 
L 889.594944 -85.079961 
L 882.796036 -84.977144 
L 875.997128 -84.827835 
L 869.19822 -84.783607 
L 862.399311 -84.623198 
L 855.600403 -84.518084 
L 848.801495 -84.494804 
L 842.002587 -84.054632 
L 835.203679 -83.548463 
L 828.40477 -82.036476 
L 821.605862 -81.195145 
L 814.806954 -81.42507 
L 808.008046 -80.963155 
L 801.209138 -79.543774 
L 794.410229 -78.144611 
L 787.611321 -77.422478 
L 780.812413 -77.916183 
L 774.013505 -78.613045 
L 767.214596 -78.431358 
L 760.415688 -77.09196 
L 753.61678 -75.738038 
L 746.817872 -75.567346 
L 740.018964 -75.73526 
L 733.220055 -74.524878 
L 726.421147 -70.60309 
L 719.622239 -68.045 
L 712.823331 -67.327506 
L 706.024423 -65.689813 
L 699.225514 -63.269653 
L 692.426606 -61.431788 
L 685.627698 -61.764236 
L 678.82879 -64.752561 
L 672.029882 -66.721393 
L 665.230973 -66.071809 
L 658.432065 -68.685232 
L 651.633157 -75.390201 
L 644.834249 -82.979413 
L 638.035341 -85.196663 
z
" style="stroke: #363636"/>
    </defs>
    <g clip-path="url(#p33a178de9e)">
     <use xlink:href="#m558db9a617" x="0" y="739.812187" style="fill: #0a70a9; stroke: #363636"/>
    </g>
   </g>
   <g id="patch_8">
    <path d="M 636.600494 684.36 
L 906.351875 684.36 
" style="fill: none; stroke: #262626; stroke-width: 1.25; stroke-linejoin: miter; stroke-linecap: square"/>
   </g>
   <g id="text_38">
    <text style="fill: #262626; font: 18px 'sans-serif'; text-anchor: middle" x="771.476184" y="80.4" transform="rotate(-0, 771.476184, 80.4)">Distribution of all features</text>
   </g>
  </g>
  <g id="text_39">
   <text style="fill: #262626; font: 20px 'sans-serif'" transform="translate(339.755 21.759375)">Relative Standard Deviation (%RSD)</text>
   <text style="fill: #262626; font: 20px 'sans-serif'" transform="translate(334.906563 43.44)">difference between sampling methods</text>
   <text style="fill: #262626; font: 20px 'sans-serif'" transform="translate(503.151875 64.828125)"/>
  </g>
 </g>
 <defs>
  <clipPath id="p41a0f91d6a">
   <rect x="125.151875" y="86.4" width="449.585635" height="597.96"/>
  </clipPath>
  <clipPath id="p33a178de9e">
   <rect x="636.600494" y="86.4" width="269.751381" height="597.96"/>
  </clipPath>
 </defs>
</svg>
