<?xml version="1.0" encoding="utf-8" standalone="no"?>
<!DOCTYPE svg PUBLIC "-//W3C//DTD SVG 1.1//EN"
  "http://www.w3.org/Graphics/SVG/1.1/DTD/svg11.dtd">
<svg height="365.426341pt" version="1.1" viewBox="0 0 1000.195312 365.426341" width="1000.195312pt" xmlns="http://www.w3.org/2000/svg" xmlns:xlink="http://www.w3.org/1999/xlink">
 <metadata>
  <rdf:RDF xmlns:cc="http://creativecommons.org/ns#" xmlns:dc="http://purl.org/dc/elements/1.1/" xmlns:rdf="http://www.w3.org/1999/02/22-rdf-syntax-ns#">
   <cc:Work>
    <dc:type rdf:resource="http://purl.org/dc/dcmitype/StillImage"/>
    <dc:date>2022-03-18T12:46:19.850206</dc:date>
    <dc:format>image/svg+xml</dc:format>
    <dc:creator>
     <cc:Agent>
      <dc:title>Matplotlib v3.4.2, https://matplotlib.org/</dc:title>
     </cc:Agent>
    </dc:creator>
   </cc:Work>
  </rdf:RDF>
 </metadata>
 <defs>
  <style type="text/css">*{stroke-linecap:butt;stroke-linejoin:round;}</style>
 </defs>
 <g id="figure_1">
  <g id="patch_1">
   <path d="M 0 365.426341 
L 1000.195312 365.426341 
L 1000.195312 0 
L 0 0 
z
" style="fill:#ffffff;"/>
  </g>
  <g id="axes_1">
   <g id="patch_2">
    <path d="M 44.903125 358.226341 
L 881.903125 358.226341 
L 881.903125 32.066341 
L 44.903125 32.066341 
z
" style="fill:#ffffff;"/>
   </g>
   <g id="matplotlib.axis_1"/>
   <g id="matplotlib.axis_2">
    <g id="ytick_1">
     <g id="line2d_1"/>
     <g id="text_1">
      <text style="fill:#262626;font-family:Arial;font-size:14px;font-stretch:normal;font-style:normal;font-weight:normal;text-anchor:end;" transform="rotate(-0, 41.403125, 347.443887)" x="41.403125" y="347.443887">0</text>
     </g>
    </g>
    <g id="ytick_2">
     <g id="line2d_2"/>
     <g id="text_2">
      <text style="fill:#262626;font-family:Arial;font-size:14px;font-stretch:normal;font-style:normal;font-weight:normal;text-anchor:end;" transform="rotate(-0, 41.403125, 294.800812)" x="41.403125" y="294.800812">5</text>
     </g>
    </g>
    <g id="ytick_3">
     <g id="line2d_3"/>
     <g id="text_3">
      <text style="fill:#262626;font-family:Arial;font-size:14px;font-stretch:normal;font-style:normal;font-weight:normal;text-anchor:end;" transform="rotate(-0, 41.403125, 242.157737)" x="41.403125" y="242.157737">10</text>
     </g>
    </g>
    <g id="ytick_4">
     <g id="line2d_4"/>
     <g id="text_4">
      <text style="fill:#262626;font-family:Arial;font-size:14px;font-stretch:normal;font-style:normal;font-weight:normal;text-anchor:end;" transform="rotate(-0, 41.403125, 189.514662)" x="41.403125" y="189.514662">15</text>
     </g>
    </g>
    <g id="ytick_5">
     <g id="line2d_5"/>
     <g id="text_5">
      <text style="fill:#262626;font-family:Arial;font-size:14px;font-stretch:normal;font-style:normal;font-weight:normal;text-anchor:end;" transform="rotate(-0, 41.403125, 136.871586)" x="41.403125" y="136.871586">20</text>
     </g>
    </g>
    <g id="ytick_6">
     <g id="line2d_6"/>
     <g id="text_6">
      <text style="fill:#262626;font-family:Arial;font-size:14px;font-stretch:normal;font-style:normal;font-weight:normal;text-anchor:end;" transform="rotate(-0, 41.403125, 84.228511)" x="41.403125" y="84.228511">25</text>
     </g>
    </g>
    <g id="text_7">
     <text style="fill:#262626;font-family:Arial;font-size:16px;font-stretch:normal;font-style:normal;font-weight:normal;text-anchor:middle;" transform="rotate(-90, 18.6525, 195.146341)" x="18.6525" y="195.146341">% RSD</text>
    </g>
   </g>
   <g id="PolyCollection_1">
    <defs>
     <path d="M 74.260739 -23.493826 
L 63.841072 -23.493826 
L 59.998887 -27.409802 
L 56.557213 -31.325778 
L 54.38473 -35.241754 
L 53.36627 -39.15773 
L 53.109007 -43.073707 
L 53.506659 -46.989683 
L 54.464223 -50.905659 
L 55.745244 -54.821635 
L 57.181638 -58.737611 
L 58.671702 -62.653588 
L 60.082321 -66.569564 
L 61.343188 -70.48554 
L 62.452336 -74.401516 
L 63.42836 -78.317492 
L 64.349729 -82.233468 
L 65.265202 -86.149445 
L 66.128295 -90.065421 
L 66.84746 -93.981397 
L 67.327413 -97.897373 
L 67.565177 -101.813349 
L 67.687409 -105.729325 
L 67.816654 -109.645302 
L 67.967014 -113.561278 
L 68.096098 -117.477254 
L 68.178843 -121.39323 
L 68.220595 -125.309206 
L 68.238652 -129.225183 
L 68.253654 -133.141159 
L 68.286565 -137.057135 
L 68.355016 -140.973111 
L 68.470011 -144.889087 
L 68.614494 -148.805063 
L 68.753063 -152.72104 
L 68.865652 -156.637016 
L 68.943455 -160.552992 
L 68.978272 -164.468968 
L 68.974953 -168.384944 
L 68.952458 -172.30092 
L 68.930957 -176.216897 
L 68.923743 -180.132873 
L 68.932096 -184.048849 
L 68.948203 -187.964825 
L 68.966276 -191.880801 
L 68.987839 -195.796778 
L 69.113972 -195.796778 
L 69.113972 -195.796778 
L 69.135535 -191.880801 
L 69.153608 -187.964825 
L 69.169715 -184.048849 
L 69.178068 -180.132873 
L 69.170854 -176.216897 
L 69.149353 -172.30092 
L 69.126858 -168.384944 
L 69.123539 -164.468968 
L 69.158357 -160.552992 
L 69.236159 -156.637016 
L 69.348748 -152.72104 
L 69.487317 -148.805063 
L 69.6318 -144.889087 
L 69.746795 -140.973111 
L 69.815247 -137.057135 
L 69.848157 -133.141159 
L 69.86316 -129.225183 
L 69.881216 -125.309206 
L 69.922968 -121.39323 
L 70.005713 -117.477254 
L 70.134798 -113.561278 
L 70.285157 -109.645302 
L 70.414402 -105.729325 
L 70.536634 -101.813349 
L 70.774398 -97.897373 
L 71.254351 -93.981397 
L 71.973516 -90.065421 
L 72.836609 -86.149445 
L 73.752082 -82.233468 
L 74.673452 -78.317492 
L 75.649475 -74.401516 
L 76.758623 -70.48554 
L 78.01949 -66.569564 
L 79.43011 -62.653588 
L 80.920174 -58.737611 
L 82.356567 -54.821635 
L 83.637588 -50.905659 
L 84.595152 -46.989683 
L 84.992804 -43.073707 
L 84.735541 -39.15773 
L 83.717081 -35.241754 
L 81.544598 -31.325778 
L 78.102924 -27.409802 
L 74.260739 -23.493826 
z
" id="m85be341a4b" style="stroke:#000000;stroke-opacity:0.75;"/>
    </defs>
    <g clip-path="url(#p89aaa2445f)">
     <use style="fill:#de8f05;fill-opacity:0.75;stroke:#000000;stroke-opacity:0.75;" x="0" xlink:href="#m85be341a4b" y="365.426341"/>
    </g>
   </g>
   <g id="PolyCollection_2">
    <defs>
     <path d="M 162.185933 -23.239073 
L 143.725333 -23.239073 
L 137.013735 -29.806178 
L 137.118721 -36.373283 
L 141.42414 -42.940388 
L 145.4111 -49.507493 
L 148.281197 -56.074598 
L 150.202837 -62.641703 
L 151.235091 -69.208808 
L 151.790056 -75.775914 
L 152.176281 -82.343019 
L 152.4756 -88.910124 
L 152.628389 -95.477229 
L 152.624806 -102.044334 
L 152.595603 -108.611439 
L 152.685002 -115.178544 
L 152.787898 -121.745649 
L 152.821229 -128.312754 
L 152.842132 -134.879859 
L 152.886399 -141.446964 
L 152.898409 -148.014069 
L 152.894768 -154.581174 
L 152.926806 -161.148279 
L 152.950754 -167.715385 
L 152.955345 -174.28249 
L 152.955627 -180.849595 
L 152.955633 -187.4167 
L 152.955633 -193.983805 
L 152.955633 -200.55091 
L 152.955631 -207.118015 
L 152.955519 -213.68512 
L 152.953715 -220.252225 
L 152.944794 -226.81933 
L 152.935063 -233.386435 
L 152.942174 -239.95354 
L 152.946563 -246.520645 
L 152.916637 -253.08775 
L 152.861602 -259.654856 
L 152.840441 -266.221961 
L 152.848278 -272.789066 
L 152.881148 -279.356171 
L 152.908669 -285.923276 
L 152.916748 -292.490381 
L 152.934523 -299.057486 
L 152.940011 -305.624591 
L 152.934725 -312.191696 
L 152.976541 -312.191696 
L 152.976541 -312.191696 
L 152.971255 -305.624591 
L 152.976744 -299.057486 
L 152.994518 -292.490381 
L 153.002597 -285.923276 
L 153.030118 -279.356171 
L 153.062988 -272.789066 
L 153.070825 -266.221961 
L 153.049664 -259.654856 
L 152.994629 -253.08775 
L 152.964703 -246.520645 
L 152.969092 -239.95354 
L 152.976203 -233.386435 
L 152.966472 -226.81933 
L 152.957551 -220.252225 
L 152.955747 -213.68512 
L 152.955635 -207.118015 
L 152.955633 -200.55091 
L 152.955633 -193.983805 
L 152.955633 -187.4167 
L 152.955639 -180.849595 
L 152.955922 -174.28249 
L 152.960512 -167.715385 
L 152.98446 -161.148279 
L 153.016498 -154.581174 
L 153.012858 -148.014069 
L 153.024867 -141.446964 
L 153.069134 -134.879859 
L 153.090037 -128.312754 
L 153.123368 -121.745649 
L 153.226264 -115.178544 
L 153.315664 -108.611439 
L 153.28646 -102.044334 
L 153.282877 -95.477229 
L 153.435667 -88.910124 
L 153.734985 -82.343019 
L 154.12121 -75.775914 
L 154.676175 -69.208808 
L 155.708429 -62.641703 
L 157.630069 -56.074598 
L 160.500166 -49.507493 
L 164.487127 -42.940388 
L 168.792545 -36.373283 
L 168.897531 -29.806178 
L 162.185933 -23.239073 
z
" id="ma3ba23757f" style="stroke:#000000;stroke-opacity:0.75;"/>
    </defs>
    <g clip-path="url(#p89aaa2445f)">
     <use style="fill:#de8f05;fill-opacity:0.75;stroke:#000000;stroke-opacity:0.75;" x="0" xlink:href="#ma3ba23757f" y="365.426341"/>
    </g>
   </g>
   <g id="PolyCollection_3">
    <defs>
     <path d="M 242.853491 -23.374558 
L 230.86723 -23.374558 
L 224.149312 -29.663543 
L 220.918462 -35.952527 
L 222.659747 -42.241512 
L 226.545204 -48.530496 
L 230.065081 -54.819481 
L 232.435746 -61.108466 
L 233.851568 -67.39745 
L 234.740557 -73.686435 
L 235.382561 -79.975419 
L 235.804253 -86.264404 
L 236.001767 -92.553388 
L 236.204317 -98.842373 
L 236.376161 -105.131357 
L 236.429684 -111.420342 
L 236.429063 -117.709326 
L 236.441186 -123.998311 
L 236.563807 -130.287295 
L 236.706833 -136.57628 
L 236.764639 -142.865264 
L 236.782012 -149.154249 
L 236.772622 -155.443233 
L 236.712645 -161.732218 
L 236.68606 -168.021202 
L 236.720444 -174.310187 
L 236.752197 -180.599171 
L 236.746706 -186.888156 
L 236.769161 -193.17714 
L 236.805688 -199.466125 
L 236.810528 -205.755109 
L 236.827383 -212.044094 
L 236.836778 -218.333078 
L 236.838456 -224.622063 
L 236.851734 -230.911047 
L 236.859215 -237.200032 
L 236.86031 -243.489016 
L 236.86036 -249.778001 
L 236.860361 -256.066985 
L 236.860358 -262.35597 
L 236.860209 -268.644954 
L 236.85792 -274.933939 
L 236.847251 -281.222923 
L 236.835038 -287.511908 
L 236.833899 -293.800892 
L 236.834964 -300.089877 
L 236.885757 -300.089877 
L 236.885757 -300.089877 
L 236.886823 -293.800892 
L 236.885683 -287.511908 
L 236.873471 -281.222923 
L 236.862802 -274.933939 
L 236.860513 -268.644954 
L 236.860364 -262.35597 
L 236.860361 -256.066985 
L 236.860361 -249.778001 
L 236.860411 -243.489016 
L 236.861506 -237.200032 
L 236.868987 -230.911047 
L 236.882265 -224.622063 
L 236.883943 -218.333078 
L 236.893338 -212.044094 
L 236.910193 -205.755109 
L 236.915033 -199.466125 
L 236.951561 -193.17714 
L 236.974016 -186.888156 
L 236.968524 -180.599171 
L 237.000277 -174.310187 
L 237.034661 -168.021202 
L 237.008076 -161.732218 
L 236.9481 -155.443233 
L 236.938709 -149.154249 
L 236.956082 -142.865264 
L 237.013888 -136.57628 
L 237.156914 -130.287295 
L 237.279536 -123.998311 
L 237.291658 -117.709326 
L 237.291037 -111.420342 
L 237.34456 -105.131357 
L 237.516404 -98.842373 
L 237.718954 -92.553388 
L 237.916468 -86.264404 
L 238.338161 -79.975419 
L 238.980165 -73.686435 
L 239.869154 -67.39745 
L 241.284976 -61.108466 
L 243.65564 -54.819481 
L 247.175518 -48.530496 
L 251.060975 -42.241512 
L 252.802259 -35.952527 
L 249.571409 -29.663543 
L 242.853491 -23.374558 
z
" id="m527c24c582" style="stroke:#000000;stroke-opacity:0.75;"/>
    </defs>
    <g clip-path="url(#p89aaa2445f)">
     <use style="fill:#de8f05;fill-opacity:0.75;stroke:#000000;stroke-opacity:0.75;" x="0" xlink:href="#m527c24c582" y="365.426341"/>
    </g>
   </g>
   <g id="PolyCollection_4">
    <defs>
     <path d="M 327.373814 -23.083799 
L 314.156362 -23.083799 
L 309.134073 -27.33969 
L 305.595446 -31.59558 
L 304.82319 -35.851471 
L 305.970358 -40.107361 
L 307.992534 -44.363252 
L 310.510872 -48.619142 
L 313.051569 -52.875033 
L 315.050701 -57.130924 
L 316.383565 -61.386814 
L 317.315341 -65.642705 
L 318.074916 -69.898595 
L 318.67098 -74.154486 
L 319.090106 -78.410376 
L 319.417396 -82.666267 
L 319.713962 -86.922157 
L 319.951935 -91.178048 
L 320.089468 -95.433938 
L 320.14898 -99.689829 
L 320.193626 -103.94572 
L 320.252507 -108.20161 
L 320.313539 -112.457501 
L 320.375899 -116.713391 
L 320.447005 -120.969282 
L 320.508398 -125.225172 
L 320.520759 -129.481063 
L 320.471508 -133.736953 
L 320.420386 -137.992844 
L 320.428051 -142.248735 
L 320.473072 -146.504625 
L 320.509951 -150.760516 
L 320.522136 -155.016406 
L 320.52247 -159.272297 
L 320.547481 -163.528187 
L 320.599132 -167.784078 
L 320.647613 -172.039968 
L 320.681823 -176.295859 
L 320.693839 -180.551749 
L 320.685075 -184.80764 
L 320.678049 -189.063531 
L 320.687 -193.319421 
L 320.706164 -197.575312 
L 320.723344 -201.831202 
L 320.731843 -206.087093 
L 320.73646 -210.342983 
L 320.793717 -210.342983 
L 320.793717 -210.342983 
L 320.798334 -206.087093 
L 320.806833 -201.831202 
L 320.824012 -197.575312 
L 320.843176 -193.319421 
L 320.852128 -189.063531 
L 320.845102 -184.80764 
L 320.836338 -180.551749 
L 320.848353 -176.295859 
L 320.882563 -172.039968 
L 320.931044 -167.784078 
L 320.982696 -163.528187 
L 321.007707 -159.272297 
L 321.008041 -155.016406 
L 321.020226 -150.760516 
L 321.057104 -146.504625 
L 321.102125 -142.248735 
L 321.109791 -137.992844 
L 321.058668 -133.736953 
L 321.009418 -129.481063 
L 321.021778 -125.225172 
L 321.083171 -120.969282 
L 321.154277 -116.713391 
L 321.216637 -112.457501 
L 321.27767 -108.20161 
L 321.33655 -103.94572 
L 321.381197 -99.689829 
L 321.440708 -95.433938 
L 321.578242 -91.178048 
L 321.816214 -86.922157 
L 322.112781 -82.666267 
L 322.44007 -78.410376 
L 322.859196 -74.154486 
L 323.455261 -69.898595 
L 324.214836 -65.642705 
L 325.146612 -61.386814 
L 326.479476 -57.130924 
L 328.478607 -52.875033 
L 331.019304 -48.619142 
L 333.537642 -44.363252 
L 335.559818 -40.107361 
L 336.706986 -35.851471 
L 335.934731 -31.59558 
L 332.396103 -27.33969 
L 327.373814 -23.083799 
z
" id="mc0ebec6744" style="stroke:#000000;stroke-opacity:0.75;"/>
    </defs>
    <g clip-path="url(#p89aaa2445f)">
     <use style="fill:#de8f05;fill-opacity:0.75;stroke:#000000;stroke-opacity:0.75;" x="0" xlink:href="#mc0ebec6744" y="365.426341"/>
    </g>
   </g>
   <g id="PolyCollection_5">
    <defs>
     <path d="M 412.383335 -23.399228 
L 396.956297 -23.399228 
L 391.400057 -28.166381 
L 388.727917 -32.933533 
L 389.430206 -37.700686 
L 391.767527 -42.467838 
L 394.511981 -47.23499 
L 397.071547 -52.002143 
L 399.06646 -56.769295 
L 400.422125 -61.536448 
L 401.356196 -66.3036 
L 402.076435 -71.070752 
L 402.666708 -75.837905 
L 403.15002 -80.605057 
L 403.500418 -85.37221 
L 403.702189 -90.139362 
L 403.813719 -94.906515 
L 403.945026 -99.673667 
L 404.105249 -104.440819 
L 404.236954 -109.207972 
L 404.331515 -113.975124 
L 404.407616 -118.742277 
L 404.473685 -123.509429 
L 404.510349 -128.276581 
L 404.498898 -133.043734 
L 404.457708 -137.810886 
L 404.426393 -142.578039 
L 404.432755 -147.345191 
L 404.471291 -152.112343 
L 404.507437 -156.879496 
L 404.527452 -161.646648 
L 404.541886 -166.413801 
L 404.548154 -171.180953 
L 404.556996 -175.948105 
L 404.586735 -180.715258 
L 404.617915 -185.48241 
L 404.621298 -190.249563 
L 404.596467 -195.016715 
L 404.57643 -199.783867 
L 404.579587 -204.55102 
L 404.596031 -209.318172 
L 404.622887 -214.085325 
L 404.650126 -218.852477 
L 404.659605 -223.619629 
L 404.652256 -228.386782 
L 404.645784 -233.153934 
L 404.693847 -233.153934 
L 404.693847 -233.153934 
L 404.687375 -228.386782 
L 404.680026 -223.619629 
L 404.689505 -218.852477 
L 404.716744 -214.085325 
L 404.743601 -209.318172 
L 404.760044 -204.55102 
L 404.763201 -199.783867 
L 404.743164 -195.016715 
L 404.718334 -190.249563 
L 404.721717 -185.48241 
L 404.752896 -180.715258 
L 404.782635 -175.948105 
L 404.791477 -171.180953 
L 404.797745 -166.413801 
L 404.812179 -161.646648 
L 404.832194 -156.879496 
L 404.86834 -152.112343 
L 404.906876 -147.345191 
L 404.913239 -142.578039 
L 404.881923 -137.810886 
L 404.840734 -133.043734 
L 404.829283 -128.276581 
L 404.865947 -123.509429 
L 404.932015 -118.742277 
L 405.008116 -113.975124 
L 405.102677 -109.207972 
L 405.234382 -104.440819 
L 405.394605 -99.673667 
L 405.525913 -94.906515 
L 405.637442 -90.139362 
L 405.839214 -85.37221 
L 406.189611 -80.605057 
L 406.672923 -75.837905 
L 407.263197 -71.070752 
L 407.983436 -66.3036 
L 408.917506 -61.536448 
L 410.273171 -56.769295 
L 412.268084 -52.002143 
L 414.82765 -47.23499 
L 417.572105 -42.467838 
L 419.909426 -37.700686 
L 420.611714 -32.933533 
L 417.939575 -28.166381 
L 412.383335 -23.399228 
z
" id="m56393b4c39" style="stroke:#000000;stroke-opacity:0.75;"/>
    </defs>
    <g clip-path="url(#p89aaa2445f)">
     <use style="fill:#de8f05;fill-opacity:0.75;stroke:#000000;stroke-opacity:0.75;" x="0" xlink:href="#m56393b4c39" y="365.426341"/>
    </g>
   </g>
   <g id="PolyCollection_6">
    <defs>
     <path d="M 496.16684 -23.248911 
L 480.982247 -23.248911 
L 475.04703 -27.634001 
L 472.632645 -32.019092 
L 474.214224 -36.404182 
L 476.93412 -40.789273 
L 479.429929 -45.174363 
L 481.784355 -49.559454 
L 483.872457 -53.944544 
L 485.446028 -58.329635 
L 486.476122 -62.714725 
L 487.009568 -67.099816 
L 487.187336 -71.484906 
L 487.330897 -75.869997 
L 487.655105 -80.255087 
L 487.993981 -84.640178 
L 488.137115 -89.025268 
L 488.161257 -93.410359 
L 488.233303 -97.795449 
L 488.339171 -102.18054 
L 488.385602 -106.56563 
L 488.373614 -110.950721 
L 488.360621 -115.335811 
L 488.375663 -119.720902 
L 488.393768 -124.105992 
L 488.392563 -128.491083 
L 488.388033 -132.876173 
L 488.407489 -137.261264 
L 488.460949 -141.646354 
L 488.501719 -146.031445 
L 488.484231 -150.416535 
L 488.441627 -154.801626 
L 488.429291 -159.186716 
L 488.441224 -163.571807 
L 488.44488 -167.956897 
L 488.454712 -172.341988 
L 488.472929 -176.727078 
L 488.478047 -181.112169 
L 488.494676 -185.497259 
L 488.533825 -189.88235 
L 488.563367 -194.26744 
L 488.572913 -198.652531 
L 488.573614 -203.037621 
L 488.569384 -207.422712 
L 488.559006 -211.807802 
L 488.552101 -216.192893 
L 488.596986 -216.192893 
L 488.596986 -216.192893 
L 488.59008 -211.807802 
L 488.579702 -207.422712 
L 488.575473 -203.037621 
L 488.576174 -198.652531 
L 488.58572 -194.26744 
L 488.615261 -189.88235 
L 488.65441 -185.497259 
L 488.67104 -181.112169 
L 488.676158 -176.727078 
L 488.694374 -172.341988 
L 488.704206 -167.956897 
L 488.707862 -163.571807 
L 488.719795 -159.186716 
L 488.707459 -154.801626 
L 488.664856 -150.416535 
L 488.647368 -146.031445 
L 488.688138 -141.646354 
L 488.741598 -137.261264 
L 488.761054 -132.876173 
L 488.756523 -128.491083 
L 488.755319 -124.105992 
L 488.773424 -119.720902 
L 488.788466 -115.335811 
L 488.775473 -110.950721 
L 488.763484 -106.56563 
L 488.809915 -102.18054 
L 488.915784 -97.795449 
L 488.98783 -93.410359 
L 489.011972 -89.025268 
L 489.155106 -84.640178 
L 489.493982 -80.255087 
L 489.818189 -75.869997 
L 489.961751 -71.484906 
L 490.139519 -67.099816 
L 490.672964 -62.714725 
L 491.703058 -58.329635 
L 493.276629 -53.944544 
L 495.364731 -49.559454 
L 497.719158 -45.174363 
L 500.214966 -40.789273 
L 502.934863 -36.404182 
L 504.516441 -32.019092 
L 502.102056 -27.634001 
L 496.16684 -23.248911 
z
" id="m51a0c712f2" style="stroke:#000000;stroke-opacity:0.75;"/>
    </defs>
    <g clip-path="url(#p89aaa2445f)">
     <use style="fill:#de8f05;fill-opacity:0.75;stroke:#000000;stroke-opacity:0.75;" x="0" xlink:href="#m51a0c712f2" y="365.426341"/>
    </g>
   </g>
   <g id="PolyCollection_7">
    <defs>
     <path d="M 580.495428 -23.425618 
L 564.463114 -23.425618 
L 557.744437 -28.870448 
L 556.537373 -34.315278 
L 560.636392 -39.760108 
L 565.266481 -45.204938 
L 568.154577 -50.649768 
L 569.705887 -56.094598 
L 570.677434 -61.539428 
L 571.418929 -66.984258 
L 571.88246 -72.429088 
L 572.078945 -77.873918 
L 572.172639 -83.318748 
L 572.263749 -88.763578 
L 572.298854 -94.208408 
L 572.26803 -99.653238 
L 572.239014 -105.098069 
L 572.263353 -110.542899 
L 572.287021 -115.987729 
L 572.276008 -121.432559 
L 572.304291 -126.877389 
L 572.3702 -132.322219 
L 572.408226 -137.767049 
L 572.41955 -143.211879 
L 572.425119 -148.656709 
L 572.420688 -154.101539 
L 572.408663 -159.546369 
L 572.395372 -164.991199 
L 572.39091 -170.436029 
L 572.422133 -175.880859 
L 572.456804 -181.325689 
L 572.457036 -186.77052 
L 572.442885 -192.21535 
L 572.448648 -197.66018 
L 572.448165 -203.10501 
L 572.420307 -208.54984 
L 572.411518 -213.99467 
L 572.434495 -219.4395 
L 572.446195 -224.88433 
L 572.440073 -230.32916 
L 572.439108 -235.77399 
L 572.459189 -241.21882 
L 572.474522 -246.66365 
L 572.471774 -252.10848 
L 572.453004 -257.55331 
L 572.442351 -262.99814 
L 572.516191 -262.99814 
L 572.516191 -262.99814 
L 572.505538 -257.55331 
L 572.486768 -252.10848 
L 572.48402 -246.66365 
L 572.499353 -241.21882 
L 572.519434 -235.77399 
L 572.518469 -230.32916 
L 572.512347 -224.88433 
L 572.524047 -219.4395 
L 572.547024 -213.99467 
L 572.538235 -208.54984 
L 572.510376 -203.10501 
L 572.509893 -197.66018 
L 572.515657 -192.21535 
L 572.501506 -186.77052 
L 572.501738 -181.325689 
L 572.536409 -175.880859 
L 572.567632 -170.436029 
L 572.563169 -164.991199 
L 572.549879 -159.546369 
L 572.537854 -154.101539 
L 572.533422 -148.656709 
L 572.538991 -143.211879 
L 572.550315 -137.767049 
L 572.588341 -132.322219 
L 572.654251 -126.877389 
L 572.682533 -121.432559 
L 572.671521 -115.987729 
L 572.695189 -110.542899 
L 572.719528 -105.098069 
L 572.690511 -99.653238 
L 572.659687 -94.208408 
L 572.694793 -88.763578 
L 572.785903 -83.318748 
L 572.879596 -77.873918 
L 573.076082 -72.429088 
L 573.539612 -66.984258 
L 574.281108 -61.539428 
L 575.252655 -56.094598 
L 576.803964 -50.649768 
L 579.692061 -45.204938 
L 584.322149 -39.760108 
L 588.421169 -34.315278 
L 587.214105 -28.870448 
L 580.495428 -23.425618 
z
" id="md613f8f558" style="stroke:#000000;stroke-opacity:0.75;"/>
    </defs>
    <g clip-path="url(#p89aaa2445f)">
     <use style="fill:#de8f05;fill-opacity:0.75;stroke:#000000;stroke-opacity:0.75;" x="0" xlink:href="#md613f8f558" y="365.426341"/>
    </g>
   </g>
   <g id="PolyCollection_8">
    <defs>
     <path d="M 660.602754 -23.793238 
L 652.165243 -23.793238 
L 647.477718 -30.36127 
L 642.823593 -36.929302 
L 640.4421 -43.497334 
L 640.803569 -50.065366 
L 642.922209 -56.633398 
L 645.911583 -63.20143 
L 648.787667 -69.769462 
L 650.857421 -76.337495 
L 652.329982 -82.905527 
L 653.401481 -89.473559 
L 654.020038 -96.041591 
L 654.460975 -102.609623 
L 654.904267 -109.177655 
L 655.266557 -115.745687 
L 655.521644 -122.313719 
L 655.680207 -128.881751 
L 655.755265 -135.449784 
L 655.821988 -142.017816 
L 655.913603 -148.585848 
L 655.936326 -155.15388 
L 655.923673 -161.721912 
L 655.976426 -168.289944 
L 656.051619 -174.857976 
L 656.125815 -181.426008 
L 656.217341 -187.99404 
L 656.272131 -194.562072 
L 656.270159 -201.130105 
L 656.27387 -207.698137 
L 656.304194 -214.266169 
L 656.321108 -220.834201 
L 656.311796 -227.402233 
L 656.301084 -233.970265 
L 656.30762 -240.538297 
L 656.322586 -247.106329 
L 656.317059 -253.674361 
L 656.296343 -260.242394 
L 656.301459 -266.810426 
L 656.330501 -273.378458 
L 656.342918 -279.94649 
L 656.338807 -286.514522 
L 656.344227 -293.082554 
L 656.357853 -299.650586 
L 656.360379 -306.218618 
L 656.357318 -312.78665 
L 656.410679 -312.78665 
L 656.410679 -312.78665 
L 656.407618 -306.218618 
L 656.410143 -299.650586 
L 656.42377 -293.082554 
L 656.42919 -286.514522 
L 656.425079 -279.94649 
L 656.437496 -273.378458 
L 656.466538 -266.810426 
L 656.471653 -260.242394 
L 656.450938 -253.674361 
L 656.445411 -247.106329 
L 656.460377 -240.538297 
L 656.466913 -233.970265 
L 656.456201 -227.402233 
L 656.446888 -220.834201 
L 656.463803 -214.266169 
L 656.494127 -207.698137 
L 656.497837 -201.130105 
L 656.495866 -194.562072 
L 656.550656 -187.99404 
L 656.642182 -181.426008 
L 656.716378 -174.857976 
L 656.791571 -168.289944 
L 656.844324 -161.721912 
L 656.83167 -155.15388 
L 656.854393 -148.585848 
L 656.946009 -142.017816 
L 657.012732 -135.449784 
L 657.08779 -128.881751 
L 657.246353 -122.313719 
L 657.50144 -115.745687 
L 657.86373 -109.177655 
L 658.307021 -102.609623 
L 658.747959 -96.041591 
L 659.366515 -89.473559 
L 660.438015 -82.905527 
L 661.910576 -76.337495 
L 663.980329 -69.769462 
L 666.856414 -63.20143 
L 669.845788 -56.633398 
L 671.964427 -50.065366 
L 672.325897 -43.497334 
L 669.944404 -36.929302 
L 665.290278 -30.36127 
L 660.602754 -23.793238 
z
" id="ma2a75a38e5" style="stroke:#000000;stroke-opacity:0.75;"/>
    </defs>
    <g clip-path="url(#p89aaa2445f)">
     <use style="fill:#de8f05;fill-opacity:0.75;stroke:#000000;stroke-opacity:0.75;" x="0" xlink:href="#ma2a75a38e5" y="365.426341"/>
    </g>
   </g>
   <g id="PolyCollection_9">
    <defs>
     <path d="M 750.10619 -23.315392 
L 730.471261 -23.315392 
L 724.346828 -30.292034 
L 724.743711 -37.268676 
L 729.093451 -44.245317 
L 732.768427 -51.221959 
L 735.126736 -58.198601 
L 736.575167 -65.175242 
L 737.339222 -72.151884 
L 737.932316 -79.128526 
L 738.446346 -86.105167 
L 738.793716 -93.081809 
L 739.057178 -100.058451 
L 739.276284 -107.035093 
L 739.45842 -114.011734 
L 739.612478 -120.988376 
L 739.723929 -127.965018 
L 739.7662 -134.941659 
L 739.838221 -141.918301 
L 739.979405 -148.894943 
L 740.068431 -155.871584 
L 740.078479 -162.848226 
L 740.095806 -169.824868 
L 740.134469 -176.801509 
L 740.155446 -183.778151 
L 740.145944 -190.754793 
L 740.135923 -197.731434 
L 740.147825 -204.708076 
L 740.172677 -211.684718 
L 740.19939 -218.66136 
L 740.225435 -225.638001 
L 740.248515 -232.614643 
L 740.264262 -239.591285 
L 740.277236 -246.567926 
L 740.277514 -253.544568 
L 740.268417 -260.52121 
L 740.270857 -267.497851 
L 740.282184 -274.474493 
L 740.287736 -281.451135 
L 740.288664 -288.427776 
L 740.288724 -295.404418 
L 740.288708 -302.38106 
L 740.288325 -309.357701 
L 740.285073 -316.334343 
L 740.274984 -323.310985 
L 740.267352 -330.287627 
L 740.310099 -330.287627 
L 740.310099 -330.287627 
L 740.302468 -323.310985 
L 740.292378 -316.334343 
L 740.289127 -309.357701 
L 740.288744 -302.38106 
L 740.288728 -295.404418 
L 740.288788 -288.427776 
L 740.289716 -281.451135 
L 740.295267 -274.474493 
L 740.306594 -267.497851 
L 740.309034 -260.52121 
L 740.299937 -253.544568 
L 740.300216 -246.567926 
L 740.31319 -239.591285 
L 740.328937 -232.614643 
L 740.352017 -225.638001 
L 740.378061 -218.66136 
L 740.404774 -211.684718 
L 740.429626 -204.708076 
L 740.441529 -197.731434 
L 740.431508 -190.754793 
L 740.422005 -183.778151 
L 740.442983 -176.801509 
L 740.481645 -169.824868 
L 740.498972 -162.848226 
L 740.509021 -155.871584 
L 740.598047 -148.894943 
L 740.739231 -141.918301 
L 740.811252 -134.941659 
L 740.853523 -127.965018 
L 740.964974 -120.988376 
L 741.119032 -114.011734 
L 741.301167 -107.035093 
L 741.520274 -100.058451 
L 741.783736 -93.081809 
L 742.131106 -86.105167 
L 742.645136 -79.128526 
L 743.238229 -72.151884 
L 744.002284 -65.175242 
L 745.450716 -58.198601 
L 747.809025 -51.221959 
L 751.484001 -44.245317 
L 755.83374 -37.268676 
L 756.230624 -30.292034 
L 750.10619 -23.315392 
z
" id="ma5717a0df6" style="stroke:#000000;stroke-opacity:0.75;"/>
    </defs>
    <g clip-path="url(#p89aaa2445f)">
     <use style="fill:#de8f05;fill-opacity:0.75;stroke:#000000;stroke-opacity:0.75;" x="0" xlink:href="#ma5717a0df6" y="365.426341"/>
    </g>
   </g>
   <g id="PolyCollection_10">
    <defs>
     <path d="M 831.063842 -23.177684 
L 817.323065 -23.177684 
L 811.272049 -28.594366 
L 808.251555 -34.011049 
L 809.868399 -39.427732 
L 813.54564 -44.844414 
L 816.830103 -50.261097 
L 819.069408 -55.677779 
L 820.450953 -61.094462 
L 821.274589 -66.511145 
L 821.876322 -71.927827 
L 822.405861 -77.34451 
L 822.804445 -82.761192 
L 823.048979 -88.177875 
L 823.209379 -93.594558 
L 823.378245 -99.01124 
L 823.569 -104.427923 
L 823.733832 -109.844605 
L 823.84628 -115.261288 
L 823.915911 -120.677971 
L 823.963191 -126.094653 
L 823.997659 -131.511336 
L 824.030072 -136.928018 
L 824.021288 -142.344701 
L 823.933531 -147.761384 
L 823.862065 -153.178066 
L 823.893417 -158.594749 
L 823.964853 -164.011431 
L 824.001602 -169.428114 
L 824.002857 -174.844796 
L 824.011929 -180.261479 
L 824.040557 -185.678162 
L 824.05933 -191.094844 
L 824.073831 -196.511527 
L 824.107129 -201.928209 
L 824.149447 -207.344892 
L 824.17467 -212.761575 
L 824.176334 -218.178257 
L 824.172584 -223.59494 
L 824.179002 -229.011622 
L 824.188441 -234.428305 
L 824.192518 -239.844988 
L 824.192508 -245.26167 
L 824.188397 -250.678353 
L 824.178952 -256.095035 
L 824.172846 -261.511718 
L 824.214061 -261.511718 
L 824.214061 -261.511718 
L 824.207955 -256.095035 
L 824.19851 -250.678353 
L 824.194399 -245.26167 
L 824.194388 -239.844988 
L 824.198466 -234.428305 
L 824.207905 -229.011622 
L 824.214323 -223.59494 
L 824.210573 -218.178257 
L 824.212237 -212.761575 
L 824.23746 -207.344892 
L 824.279778 -201.928209 
L 824.313076 -196.511527 
L 824.327577 -191.094844 
L 824.34635 -185.678162 
L 824.374978 -180.261479 
L 824.384049 -174.844796 
L 824.385305 -169.428114 
L 824.422054 -164.011431 
L 824.493489 -158.594749 
L 824.524842 -153.178066 
L 824.453375 -147.761384 
L 824.365619 -142.344701 
L 824.356835 -136.928018 
L 824.389248 -131.511336 
L 824.423716 -126.094653 
L 824.470996 -120.677971 
L 824.540627 -115.261288 
L 824.653075 -109.844605 
L 824.817906 -104.427923 
L 825.008662 -99.01124 
L 825.177528 -93.594558 
L 825.337928 -88.177875 
L 825.582462 -82.761192 
L 825.981046 -77.34451 
L 826.510585 -71.927827 
L 827.112318 -66.511145 
L 827.935953 -61.094462 
L 829.317499 -55.677779 
L 831.556804 -50.261097 
L 834.841267 -44.844414 
L 838.518508 -39.427732 
L 840.135352 -34.011049 
L 837.114857 -28.594366 
L 831.063842 -23.177684 
z
" id="mdd7a4db70c" style="stroke:#000000;stroke-opacity:0.75;"/>
    </defs>
    <g clip-path="url(#p89aaa2445f)">
     <use style="fill:#de8f05;fill-opacity:0.75;stroke:#000000;stroke-opacity:0.75;" x="0" xlink:href="#mdd7a4db70c" y="365.426341"/>
    </g>
   </g>
   <g id="PolyCollection_11">
    <defs>
     <path d="M 109.913478 -23.327272 
L 95.312115 -23.327272 
L 90.509806 -27.252592 
L 87.362589 -31.177911 
L 86.670898 -35.103231 
L 87.784388 -39.028551 
L 89.773828 -42.95387 
L 91.888702 -46.87919 
L 93.787406 -50.804509 
L 95.378753 -54.729829 
L 96.518029 -58.655149 
L 97.099041 -62.580468 
L 97.321183 -66.505788 
L 97.690821 -70.431107 
L 98.510743 -74.356427 
L 99.540971 -78.281747 
L 100.360211 -82.207066 
L 100.854546 -86.132386 
L 101.212988 -90.057705 
L 101.570346 -93.983025 
L 101.861839 -97.908345 
L 101.996334 -101.833664 
L 102.007541 -105.758984 
L 102.011887 -109.684303 
L 102.093006 -113.609623 
L 102.240749 -117.534943 
L 102.371242 -121.460262 
L 102.432049 -125.385582 
L 102.440529 -129.310901 
L 102.408888 -133.236221 
L 102.344554 -137.161541 
L 102.302067 -141.08686 
L 102.331735 -145.01218 
L 102.405857 -148.9375 
L 102.473988 -152.862819 
L 102.519355 -156.788139 
L 102.534476 -160.713458 
L 102.526175 -164.638778 
L 102.522003 -168.564098 
L 102.535106 -172.489417 
L 102.555189 -176.414737 
L 102.566811 -180.340056 
L 102.562871 -184.265376 
L 102.54564 -188.190696 
L 102.526545 -192.116015 
L 102.529977 -196.041335 
L 102.695616 -196.041335 
L 102.695616 -196.041335 
L 102.699048 -192.116015 
L 102.679953 -188.190696 
L 102.662722 -184.265376 
L 102.658783 -180.340056 
L 102.670404 -176.414737 
L 102.690487 -172.489417 
L 102.70359 -168.564098 
L 102.699418 -164.638778 
L 102.691117 -160.713458 
L 102.706238 -156.788139 
L 102.751605 -152.862819 
L 102.819736 -148.9375 
L 102.893858 -145.01218 
L 102.923526 -141.08686 
L 102.881039 -137.161541 
L 102.816705 -133.236221 
L 102.785064 -129.310901 
L 102.793544 -125.385582 
L 102.854351 -121.460262 
L 102.984844 -117.534943 
L 103.132587 -113.609623 
L 103.213706 -109.684303 
L 103.218052 -105.758984 
L 103.229259 -101.833664 
L 103.363755 -97.908345 
L 103.655247 -93.983025 
L 104.012605 -90.057705 
L 104.371047 -86.132386 
L 104.865382 -82.207066 
L 105.684622 -78.281747 
L 106.71485 -74.356427 
L 107.534772 -70.431107 
L 107.90441 -66.505788 
L 108.126552 -62.580468 
L 108.707564 -58.655149 
L 109.846841 -54.729829 
L 111.438187 -50.804509 
L 113.336891 -46.87919 
L 115.451765 -42.95387 
L 117.441205 -39.028551 
L 118.554695 -35.103231 
L 117.863005 -31.177911 
L 114.715787 -27.252592 
L 109.913478 -23.327272 
z
" id="mb153b13365" style="stroke:#000000;stroke-opacity:0.75;"/>
    </defs>
    <g clip-path="url(#p89aaa2445f)">
     <use style="fill:#0173b2;fill-opacity:0.75;stroke:#000000;stroke-opacity:0.75;" x="0" xlink:href="#mb153b13365" y="365.426341"/>
    </g>
   </g>
   <g id="PolyCollection_12">
    <defs>
     <path d="M 195.24375 -23.233341 
L 177.791298 -23.233341 
L 172.613137 -27.248675 
L 170.575626 -31.264009 
L 171.96252 -35.279344 
L 174.488501 -39.294678 
L 176.554691 -43.310012 
L 178.10174 -47.325347 
L 179.503319 -51.340681 
L 180.882262 -55.356015 
L 182.113414 -59.371349 
L 183.009662 -63.386684 
L 183.585839 -67.402018 
L 184.063084 -71.417352 
L 184.543244 -75.432687 
L 184.96595 -79.448021 
L 185.297127 -83.463355 
L 185.540704 -87.478689 
L 185.710173 -91.494024 
L 185.843739 -95.509358 
L 185.981183 -99.524692 
L 186.130682 -103.540027 
L 186.251748 -107.555361 
L 186.300095 -111.570695 
L 186.291727 -115.58603 
L 186.283226 -119.601364 
L 186.303777 -123.616698 
L 186.324837 -127.632032 
L 186.303881 -131.647367 
L 186.26203 -135.662701 
L 186.266975 -139.678035 
L 186.330058 -143.69337 
L 186.394255 -147.708704 
L 186.425506 -151.724038 
L 186.437839 -155.739372 
L 186.442446 -159.754707 
L 186.419647 -163.770041 
L 186.36796 -167.785375 
L 186.344189 -171.80071 
L 186.379662 -175.816044 
L 186.427725 -179.831378 
L 186.44779 -183.846713 
L 186.451753 -187.862047 
L 186.457036 -191.877381 
L 186.463488 -195.892715 
L 186.474675 -199.90805 
L 186.560373 -199.90805 
L 186.560373 -199.90805 
L 186.57156 -195.892715 
L 186.578013 -191.877381 
L 186.583295 -187.862047 
L 186.587258 -183.846713 
L 186.607324 -179.831378 
L 186.655386 -175.816044 
L 186.69086 -171.80071 
L 186.667088 -167.785375 
L 186.615402 -163.770041 
L 186.592602 -159.754707 
L 186.597209 -155.739372 
L 186.609542 -151.724038 
L 186.640793 -147.708704 
L 186.70499 -143.69337 
L 186.768073 -139.678035 
L 186.773018 -135.662701 
L 186.731167 -131.647367 
L 186.710211 -127.632032 
L 186.731271 -123.616698 
L 186.751822 -119.601364 
L 186.743322 -115.58603 
L 186.734954 -111.570695 
L 186.7833 -107.555361 
L 186.904366 -103.540027 
L 187.053865 -99.524692 
L 187.191309 -95.509358 
L 187.324875 -91.494024 
L 187.494344 -87.478689 
L 187.737922 -83.463355 
L 188.069098 -79.448021 
L 188.491805 -75.432687 
L 188.971964 -71.417352 
L 189.449209 -67.402018 
L 190.025387 -63.386684 
L 190.921634 -59.371349 
L 192.152786 -55.356015 
L 193.531729 -51.340681 
L 194.933308 -47.325347 
L 196.480357 -43.310012 
L 198.546547 -39.294678 
L 201.072529 -35.279344 
L 202.459422 -31.264009 
L 200.421912 -27.248675 
L 195.24375 -23.233341 
z
" id="m59b7363c06" style="stroke:#000000;stroke-opacity:0.75;"/>
    </defs>
    <g clip-path="url(#p89aaa2445f)">
     <use style="fill:#0173b2;fill-opacity:0.75;stroke:#000000;stroke-opacity:0.75;" x="0" xlink:href="#m59b7363c06" y="365.426341"/>
    </g>
   </g>
   <g id="PolyCollection_13">
    <defs>
     <path d="M 277.945947 -23.091742 
L 262.898556 -23.091742 
L 256.355997 -29.689464 
L 254.480353 -36.287186 
L 257.537219 -42.884907 
L 261.612925 -49.482629 
L 264.465598 -56.08035 
L 266.093954 -62.678072 
L 267.264239 -69.275794 
L 268.209018 -75.873515 
L 268.862707 -82.471237 
L 269.212777 -89.068959 
L 269.421436 -95.66668 
L 269.612194 -102.264402 
L 269.752191 -108.862123 
L 269.805228 -115.459845 
L 269.7496 -122.057567 
L 269.716278 -128.655288 
L 269.819892 -135.25301 
L 269.985644 -141.850732 
L 270.140188 -148.448453 
L 270.214929 -155.046175 
L 270.232492 -161.643896 
L 270.27584 -168.241618 
L 270.305078 -174.83934 
L 270.283567 -181.437061 
L 270.279381 -188.034783 
L 270.337666 -194.632505 
L 270.381364 -201.230226 
L 270.378335 -207.827948 
L 270.378846 -214.425669 
L 270.389856 -221.023391 
L 270.399118 -227.621113 
L 270.40088 -234.218834 
L 270.388506 -240.816556 
L 270.374699 -247.414277 
L 270.378197 -254.011999 
L 270.400879 -260.609721 
L 270.417489 -267.207442 
L 270.42162 -273.805164 
L 270.420269 -280.402886 
L 270.412585 -287.000607 
L 270.401926 -293.598329 
L 270.40132 -300.19605 
L 270.402435 -306.793772 
L 270.400396 -313.391494 
L 270.444107 -313.391494 
L 270.444107 -313.391494 
L 270.442069 -306.793772 
L 270.443184 -300.19605 
L 270.442577 -293.598329 
L 270.431919 -287.000607 
L 270.424235 -280.402886 
L 270.422883 -273.805164 
L 270.427015 -267.207442 
L 270.443624 -260.609721 
L 270.466307 -254.011999 
L 270.469804 -247.414277 
L 270.455998 -240.816556 
L 270.443623 -234.218834 
L 270.445385 -227.621113 
L 270.454647 -221.023391 
L 270.465657 -214.425669 
L 270.466169 -207.827948 
L 270.463139 -201.230226 
L 270.506838 -194.632505 
L 270.565122 -188.034783 
L 270.560937 -181.437061 
L 270.539426 -174.83934 
L 270.568664 -168.241618 
L 270.612012 -161.643896 
L 270.629574 -155.046175 
L 270.704315 -148.448453 
L 270.858859 -141.850732 
L 271.024611 -135.25301 
L 271.128225 -128.655288 
L 271.094903 -122.057567 
L 271.039275 -115.459845 
L 271.092312 -108.862123 
L 271.232309 -102.264402 
L 271.423067 -95.66668 
L 271.631727 -89.068959 
L 271.981797 -82.471237 
L 272.635485 -75.873515 
L 273.580264 -69.275794 
L 274.750549 -62.678072 
L 276.378905 -56.08035 
L 279.231579 -49.482629 
L 283.307284 -42.884907 
L 286.36415 -36.287186 
L 284.488507 -29.689464 
L 277.945947 -23.091742 
z
" id="ma6e053bbd2" style="stroke:#000000;stroke-opacity:0.75;"/>
    </defs>
    <g clip-path="url(#p89aaa2445f)">
     <use style="fill:#0173b2;fill-opacity:0.75;stroke:#000000;stroke-opacity:0.75;" x="0" xlink:href="#ma6e053bbd2" y="365.426341"/>
    </g>
   </g>
   <g id="PolyCollection_14">
    <defs>
     <path d="M 363.318897 -23.115728 
L 345.335061 -23.115728 
L 339.034412 -27.977624 
L 338.385081 -32.839521 
L 342.272244 -37.701417 
L 346.27466 -42.563313 
L 348.524226 -47.42521 
L 349.62916 -52.287106 
L 350.383894 -57.149002 
L 351.028088 -62.010899 
L 351.58309 -66.872795 
L 352.061275 -71.734691 
L 352.506781 -76.596588 
L 352.906388 -81.458484 
L 353.291733 -86.320381 
L 353.616683 -91.182277 
L 353.824142 -96.044173 
L 353.945235 -100.90607 
L 353.997075 -105.767966 
L 354.02259 -110.629862 
L 354.064172 -115.491759 
L 354.119851 -120.353655 
L 354.153882 -125.215552 
L 354.183372 -130.077448 
L 354.218469 -134.939344 
L 354.23329 -139.801241 
L 354.221785 -144.663137 
L 354.214863 -149.525033 
L 354.220912 -154.38693 
L 354.226956 -159.248826 
L 354.236245 -164.110723 
L 354.258346 -168.972619 
L 354.293623 -173.834515 
L 354.319043 -178.696412 
L 354.326168 -183.558308 
L 354.326935 -188.420204 
L 354.326711 -193.282101 
L 354.324052 -198.143997 
L 354.314072 -203.005893 
L 354.304028 -207.86779 
L 354.310523 -212.729686 
L 354.322206 -217.591583 
L 354.326036 -222.453479 
L 354.323191 -227.315375 
L 354.312286 -232.177272 
L 354.303841 -237.039168 
L 354.350117 -237.039168 
L 354.350117 -237.039168 
L 354.341672 -232.177272 
L 354.330767 -227.315375 
L 354.327922 -222.453479 
L 354.331753 -217.591583 
L 354.343435 -212.729686 
L 354.34993 -207.86779 
L 354.339886 -203.005893 
L 354.329906 -198.143997 
L 354.327247 -193.282101 
L 354.327023 -188.420204 
L 354.327791 -183.558308 
L 354.334915 -178.696412 
L 354.360335 -173.834515 
L 354.395612 -168.972619 
L 354.417714 -164.110723 
L 354.427003 -159.248826 
L 354.433047 -154.38693 
L 354.439095 -149.525033 
L 354.432173 -144.663137 
L 354.420668 -139.801241 
L 354.43549 -134.939344 
L 354.470586 -130.077448 
L 354.500076 -125.215552 
L 354.534107 -120.353655 
L 354.589786 -115.491759 
L 354.631368 -110.629862 
L 354.656883 -105.767966 
L 354.708723 -100.90607 
L 354.829817 -96.044173 
L 355.037276 -91.182277 
L 355.362225 -86.320381 
L 355.747571 -81.458484 
L 356.147177 -76.596588 
L 356.592684 -71.734691 
L 357.070869 -66.872795 
L 357.62587 -62.010899 
L 358.270064 -57.149002 
L 359.024798 -52.287106 
L 360.129733 -47.42521 
L 362.379298 -42.563313 
L 366.381714 -37.701417 
L 370.268877 -32.839521 
L 369.619547 -27.977624 
L 363.318897 -23.115728 
z
" id="m99ef650b36" style="stroke:#000000;stroke-opacity:0.75;"/>
    </defs>
    <g clip-path="url(#p89aaa2445f)">
     <use style="fill:#0173b2;fill-opacity:0.75;stroke:#000000;stroke-opacity:0.75;" x="0" xlink:href="#m99ef650b36" y="365.426341"/>
    </g>
   </g>
   <g id="PolyCollection_15">
    <defs>
     <path d="M 445.070289 -23.280822 
L 431.393125 -23.280822 
L 424.975611 -27.732728 
L 422.289809 -32.184633 
L 423.696233 -36.636539 
L 427.040293 -41.088444 
L 430.470802 -45.54035 
L 433.160923 -49.992256 
L 434.967131 -54.444161 
L 435.938703 -58.896067 
L 436.573372 -63.347972 
L 437.138862 -67.799878 
L 437.461209 -72.251783 
L 437.602821 -76.703689 
L 437.697626 -81.155594 
L 437.788277 -85.6075 
L 437.869031 -90.059406 
L 437.862748 -94.511311 
L 437.832963 -98.963217 
L 437.841472 -103.415122 
L 437.94319 -107.867028 
L 438.057745 -112.318933 
L 438.119529 -116.770839 
L 438.15534 -121.222744 
L 438.162305 -125.67465 
L 438.159467 -130.126556 
L 438.157012 -134.578461 
L 438.136099 -139.030367 
L 438.145076 -143.482272 
L 438.16873 -147.934178 
L 438.1553 -152.386083 
L 438.12792 -156.837989 
L 438.11274 -161.289894 
L 438.144633 -165.7418 
L 438.199347 -170.193706 
L 438.226417 -174.645611 
L 438.231364 -179.097517 
L 438.231698 -183.549422 
L 438.231707 -188.001328 
L 438.231707 -192.453233 
L 438.231707 -196.905139 
L 438.231701 -201.357044 
L 438.231492 -205.80895 
L 438.228776 -210.260856 
L 438.217651 -214.712761 
L 438.208002 -219.164667 
L 438.255411 -219.164667 
L 438.255411 -219.164667 
L 438.245763 -214.712761 
L 438.234637 -210.260856 
L 438.231922 -205.80895 
L 438.231712 -201.357044 
L 438.231707 -196.905139 
L 438.231707 -192.453233 
L 438.231707 -188.001328 
L 438.231715 -183.549422 
L 438.23205 -179.097517 
L 438.236997 -174.645611 
L 438.264066 -170.193706 
L 438.318781 -165.7418 
L 438.350673 -161.289894 
L 438.335493 -156.837989 
L 438.308113 -152.386083 
L 438.294684 -147.934178 
L 438.318338 -143.482272 
L 438.327315 -139.030367 
L 438.306401 -134.578461 
L 438.303946 -130.126556 
L 438.301109 -125.67465 
L 438.308074 -121.222744 
L 438.343884 -116.770839 
L 438.405669 -112.318933 
L 438.520223 -107.867028 
L 438.621942 -103.415122 
L 438.63045 -98.963217 
L 438.600665 -94.511311 
L 438.594383 -90.059406 
L 438.675137 -85.6075 
L 438.765787 -81.155594 
L 438.860593 -76.703689 
L 439.002204 -72.251783 
L 439.324552 -67.799878 
L 439.890042 -63.347972 
L 440.52471 -58.896067 
L 441.496283 -54.444161 
L 443.302491 -49.992256 
L 445.992612 -45.54035 
L 449.423121 -41.088444 
L 452.767181 -36.636539 
L 454.173605 -32.184633 
L 451.487802 -27.732728 
L 445.070289 -23.280822 
z
" id="m8bbb3ca786" style="stroke:#000000;stroke-opacity:0.75;"/>
    </defs>
    <g clip-path="url(#p89aaa2445f)">
     <use style="fill:#0173b2;fill-opacity:0.75;stroke:#000000;stroke-opacity:0.75;" x="0" xlink:href="#m8bbb3ca786" y="365.426341"/>
    </g>
   </g>
   <g id="PolyCollection_16">
    <defs>
     <path d="M 528.72504 -23.259618 
L 515.547828 -23.259618 
L 509.595521 -28.305339 
L 506.194536 -33.35106 
L 506.764423 -38.396781 
L 509.829662 -43.442502 
L 513.428752 -48.488223 
L 516.348301 -53.533944 
L 518.343055 -58.579665 
L 519.584033 -63.625387 
L 520.368759 -68.671108 
L 520.844231 -73.716829 
L 521.106643 -78.76255 
L 521.237175 -83.808271 
L 521.310277 -88.853992 
L 521.418267 -93.899713 
L 521.540011 -98.945434 
L 521.617113 -103.991155 
L 521.632416 -109.036877 
L 521.625871 -114.082598 
L 521.696255 -119.128319 
L 521.846894 -124.17404 
L 521.948046 -129.219761 
L 521.950008 -134.265482 
L 521.926719 -139.311203 
L 521.933243 -144.356924 
L 521.95359 -149.402645 
L 521.974938 -154.448367 
L 522.013742 -159.494088 
L 522.055452 -164.539809 
L 522.060685 -169.58553 
L 522.039062 -174.631251 
L 522.028914 -179.676972 
L 522.037146 -184.722693 
L 522.062556 -189.768414 
L 522.094936 -194.814136 
L 522.106124 -199.859857 
L 522.099942 -204.905578 
L 522.101448 -209.951299 
L 522.112404 -214.99702 
L 522.115732 -220.042741 
L 522.113522 -225.088462 
L 522.120598 -230.134183 
L 522.126947 -235.179904 
L 522.12079 -240.225626 
L 522.11441 -245.271347 
L 522.158458 -245.271347 
L 522.158458 -245.271347 
L 522.152078 -240.225626 
L 522.145922 -235.179904 
L 522.15227 -230.134183 
L 522.159346 -225.088462 
L 522.157137 -220.042741 
L 522.160464 -214.99702 
L 522.171421 -209.951299 
L 522.172926 -204.905578 
L 522.166745 -199.859857 
L 522.177933 -194.814136 
L 522.210312 -189.768414 
L 522.235723 -184.722693 
L 522.243954 -179.676972 
L 522.233807 -174.631251 
L 522.212184 -169.58553 
L 522.217416 -164.539809 
L 522.259127 -159.494088 
L 522.297931 -154.448367 
L 522.319278 -149.402645 
L 522.339625 -144.356924 
L 522.346149 -139.311203 
L 522.32286 -134.265482 
L 522.324822 -129.219761 
L 522.425974 -124.17404 
L 522.576614 -119.128319 
L 522.646997 -114.082598 
L 522.640452 -109.036877 
L 522.655755 -103.991155 
L 522.732857 -98.945434 
L 522.854602 -93.899713 
L 522.962592 -88.853992 
L 523.035693 -83.808271 
L 523.166225 -78.76255 
L 523.428638 -73.716829 
L 523.90411 -68.671108 
L 524.688836 -63.625387 
L 525.929813 -58.579665 
L 527.924568 -53.533944 
L 530.844117 -48.488223 
L 534.443206 -43.442502 
L 537.508445 -38.396781 
L 538.078333 -33.35106 
L 534.677348 -28.305339 
L 528.72504 -23.259618 
z
" id="m2339de77a7" style="stroke:#000000;stroke-opacity:0.75;"/>
    </defs>
    <g clip-path="url(#p89aaa2445f)">
     <use style="fill:#0173b2;fill-opacity:0.75;stroke:#000000;stroke-opacity:0.75;" x="0" xlink:href="#m2339de77a7" y="365.426341"/>
    </g>
   </g>
   <g id="PolyCollection_17">
    <defs>
     <path d="M 611.921239 -23.05028 
L 600.161085 -23.05028 
L 594.324285 -26.626371 
L 590.17459 -30.202461 
L 590.099264 -33.778552 
L 592.856184 -37.354643 
L 596.086343 -40.930733 
L 598.891767 -44.506824 
L 601.08576 -48.082915 
L 602.56342 -51.659005 
L 603.553923 -55.235096 
L 604.250114 -58.811187 
L 604.695366 -62.387277 
L 604.994025 -65.963368 
L 605.219645 -69.539458 
L 605.294119 -73.115549 
L 605.266084 -76.69164 
L 605.358935 -80.26773 
L 605.541049 -83.843821 
L 605.66078 -87.419912 
L 605.741131 -90.996002 
L 605.798732 -94.572093 
L 605.815204 -98.148184 
L 605.839116 -101.724274 
L 605.88966 -105.300365 
L 605.915881 -108.876456 
L 605.903931 -112.452546 
L 605.893791 -116.028637 
L 605.903802 -119.604728 
L 605.920138 -123.180818 
L 605.926502 -126.756909 
L 605.919241 -130.333 
L 605.923685 -133.90909 
L 605.950082 -137.485181 
L 605.978178 -141.061272 
L 605.996327 -144.637362 
L 606.005529 -148.213453 
L 606.005691 -151.789544 
L 606.004007 -155.365634 
L 606.008568 -158.941725 
L 606.012092 -162.517815 
L 605.995853 -166.093906 
L 605.968161 -169.669997 
L 605.961241 -173.246087 
L 605.979436 -176.822178 
L 606.002642 -180.398269 
L 606.079681 -180.398269 
L 606.079681 -180.398269 
L 606.102888 -176.822178 
L 606.121083 -173.246087 
L 606.114163 -169.669997 
L 606.086471 -166.093906 
L 606.070232 -162.517815 
L 606.073756 -158.941725 
L 606.078317 -155.365634 
L 606.076633 -151.789544 
L 606.076795 -148.213453 
L 606.085997 -144.637362 
L 606.104146 -141.061272 
L 606.132241 -137.485181 
L 606.158639 -133.90909 
L 606.163083 -130.333 
L 606.155821 -126.756909 
L 606.162186 -123.180818 
L 606.178522 -119.604728 
L 606.188533 -116.028637 
L 606.178393 -112.452546 
L 606.166443 -108.876456 
L 606.192664 -105.300365 
L 606.243207 -101.724274 
L 606.26712 -98.148184 
L 606.283591 -94.572093 
L 606.341192 -90.996002 
L 606.421543 -87.419912 
L 606.541275 -83.843821 
L 606.723389 -80.26773 
L 606.81624 -76.69164 
L 606.788205 -73.115549 
L 606.862678 -69.539458 
L 607.088299 -65.963368 
L 607.386958 -62.387277 
L 607.83221 -58.811187 
L 608.528401 -55.235096 
L 609.518904 -51.659005 
L 610.996564 -48.082915 
L 613.190557 -44.506824 
L 615.99598 -40.930733 
L 619.226139 -37.354643 
L 621.98306 -33.778552 
L 621.907734 -30.202461 
L 617.758039 -26.626371 
L 611.921239 -23.05028 
z
" id="md3246eb4af" style="stroke:#000000;stroke-opacity:0.75;"/>
    </defs>
    <g clip-path="url(#p89aaa2445f)">
     <use style="fill:#0173b2;fill-opacity:0.75;stroke:#000000;stroke-opacity:0.75;" x="0" xlink:href="#md3246eb4af" y="365.426341"/>
    </g>
   </g>
   <g id="PolyCollection_18">
    <defs>
     <path d="M 697.000602 -23.092353 
L 682.891176 -23.092353 
L 677.03946 -27.304259 
L 674.003991 -31.516166 
L 674.866368 -35.728072 
L 677.106974 -39.939979 
L 679.167088 -44.151885 
L 681.410571 -48.363792 
L 683.746264 -52.575698 
L 685.74702 -56.787605 
L 687.236082 -60.999511 
L 688.148533 -65.211418 
L 688.667944 -69.423324 
L 689.002533 -73.635231 
L 689.261413 -77.847137 
L 689.464502 -82.059044 
L 689.597191 -86.27095 
L 689.655772 -90.482857 
L 689.638477 -94.694763 
L 689.603641 -98.90667 
L 689.637424 -103.118576 
L 689.710444 -107.330483 
L 689.743165 -111.542389 
L 689.755729 -115.754296 
L 689.767623 -119.966202 
L 689.759957 -124.178109 
L 689.744898 -128.390015 
L 689.738759 -132.601922 
L 689.735871 -136.813828 
L 689.713215 -141.025735 
L 689.682771 -145.237641 
L 689.701339 -149.449548 
L 689.781213 -153.661454 
L 689.865059 -157.873361 
L 689.906178 -162.085267 
L 689.906092 -166.297174 
L 689.884132 -170.50908 
L 689.854164 -174.720987 
L 689.844353 -178.932893 
L 689.871971 -183.1448 
L 689.905371 -187.356706 
L 689.908986 -191.568613 
L 689.89847 -195.780519 
L 689.904028 -199.992426 
L 689.914834 -204.204332 
L 689.919619 -208.416239 
L 689.97216 -208.416239 
L 689.97216 -208.416239 
L 689.976945 -204.204332 
L 689.987751 -199.992426 
L 689.993308 -195.780519 
L 689.982792 -191.568613 
L 689.986408 -187.356706 
L 690.019808 -183.1448 
L 690.047425 -178.932893 
L 690.037615 -174.720987 
L 690.007647 -170.50908 
L 689.985687 -166.297174 
L 689.985601 -162.085267 
L 690.026719 -157.873361 
L 690.110565 -153.661454 
L 690.19044 -149.449548 
L 690.209007 -145.237641 
L 690.178564 -141.025735 
L 690.155907 -136.813828 
L 690.15302 -132.601922 
L 690.14688 -128.390015 
L 690.131822 -124.178109 
L 690.124155 -119.966202 
L 690.13605 -115.754296 
L 690.148614 -111.542389 
L 690.181334 -107.330483 
L 690.254354 -103.118576 
L 690.288138 -98.90667 
L 690.253302 -94.694763 
L 690.236007 -90.482857 
L 690.294588 -86.27095 
L 690.427277 -82.059044 
L 690.630366 -77.847137 
L 690.889246 -73.635231 
L 691.223834 -69.423324 
L 691.743246 -65.211418 
L 692.655696 -60.999511 
L 694.144758 -56.787605 
L 696.145515 -52.575698 
L 698.481208 -48.363792 
L 700.72469 -44.151885 
L 702.784805 -39.939979 
L 705.025411 -35.728072 
L 705.887788 -31.516166 
L 702.852319 -27.304259 
L 697.000602 -23.092353 
z
" id="m5054684257" style="stroke:#000000;stroke-opacity:0.75;"/>
    </defs>
    <g clip-path="url(#p89aaa2445f)">
     <use style="fill:#0173b2;fill-opacity:0.75;stroke:#000000;stroke-opacity:0.75;" x="0" xlink:href="#m5054684257" y="365.426341"/>
    </g>
   </g>
   <g id="PolyCollection_19">
    <defs>
     <path d="M 779.620646 -23.692498 
L 768.080588 -23.692498 
L 760.363648 -30.189272 
L 757.908719 -36.686045 
L 760.266494 -43.182819 
L 764.391897 -49.679593 
L 767.715915 -56.176366 
L 770.111511 -62.67314 
L 771.727279 -69.169913 
L 772.533723 -75.666687 
L 772.932789 -82.16346 
L 773.179909 -88.660234 
L 773.286373 -95.157007 
L 773.414595 -101.653781 
L 773.544933 -108.150554 
L 773.594835 -114.647328 
L 773.71879 -121.144101 
L 773.789845 -127.640875 
L 773.762869 -134.137648 
L 773.729311 -140.634422 
L 773.745876 -147.131195 
L 773.823971 -153.627969 
L 773.839481 -160.124742 
L 773.816558 -166.621516 
L 773.796346 -173.118289 
L 773.809175 -179.615063 
L 773.843687 -186.111836 
L 773.850408 -192.60861 
L 773.850616 -199.105383 
L 773.850617 -205.602157 
L 773.850616 -212.09893 
L 773.85049 -218.595704 
L 773.846142 -225.092477 
L 773.820132 -231.589251 
L 773.804689 -238.086025 
L 773.833579 -244.582798 
L 773.837191 -251.079572 
L 773.824535 -257.576345 
L 773.841339 -264.073119 
L 773.850064 -270.569892 
L 773.850611 -277.066666 
L 773.850617 -283.563439 
L 773.850608 -290.060213 
L 773.849883 -296.556986 
L 773.839896 -303.05376 
L 773.824409 -309.550533 
L 773.876824 -309.550533 
L 773.876824 -309.550533 
L 773.861338 -303.05376 
L 773.851351 -296.556986 
L 773.850625 -290.060213 
L 773.850617 -283.563439 
L 773.850622 -277.066666 
L 773.851169 -270.569892 
L 773.859895 -264.073119 
L 773.876699 -257.576345 
L 773.864043 -251.079572 
L 773.867655 -244.582798 
L 773.896545 -238.086025 
L 773.881102 -231.589251 
L 773.855091 -225.092477 
L 773.850743 -218.595704 
L 773.850618 -212.09893 
L 773.850617 -205.602157 
L 773.850618 -199.105383 
L 773.850826 -192.60861 
L 773.857547 -186.111836 
L 773.892059 -179.615063 
L 773.904888 -173.118289 
L 773.884676 -166.621516 
L 773.861753 -160.124742 
L 773.877263 -153.627969 
L 773.955358 -147.131195 
L 773.971922 -140.634422 
L 773.938365 -134.137648 
L 773.911389 -127.640875 
L 773.982443 -121.144101 
L 774.106399 -114.647328 
L 774.1563 -108.150554 
L 774.286639 -101.653781 
L 774.414861 -95.157007 
L 774.521325 -88.660234 
L 774.768445 -82.16346 
L 775.167511 -75.666687 
L 775.973955 -69.169913 
L 777.589722 -62.67314 
L 779.985319 -56.176366 
L 783.309336 -49.679593 
L 787.43474 -43.182819 
L 789.792515 -36.686045 
L 787.337586 -30.189272 
L 779.620646 -23.692498 
z
" id="m6e2a2cbf42" style="stroke:#000000;stroke-opacity:0.75;"/>
    </defs>
    <g clip-path="url(#p89aaa2445f)">
     <use style="fill:#0173b2;fill-opacity:0.75;stroke:#000000;stroke-opacity:0.75;" x="0" xlink:href="#m6e2a2cbf42" y="365.426341"/>
    </g>
   </g>
   <g id="PolyCollection_20">
    <defs>
     <path d="M 865.609569 -23.076739 
L 849.901119 -23.076739 
L 844.582304 -26.710986 
L 841.813446 -30.345233 
L 842.686849 -33.97948 
L 845.433797 -37.613727 
L 848.15765 -41.247974 
L 850.280248 -44.882221 
L 851.860096 -48.516468 
L 852.976904 -52.150715 
L 853.79381 -55.784962 
L 854.507451 -59.419209 
L 855.144825 -63.053456 
L 855.646997 -66.687703 
L 855.988504 -70.32195 
L 856.21583 -73.956197 
L 856.451771 -77.590444 
L 856.736443 -81.224691 
L 856.967236 -84.858938 
L 857.07439 -88.493185 
L 857.123365 -92.127432 
L 857.216003 -95.761679 
L 857.362395 -99.395926 
L 857.497882 -103.030173 
L 857.573188 -106.664421 
L 857.579312 -110.298668 
L 857.544113 -113.932915 
L 857.523607 -117.567162 
L 857.546078 -121.201409 
L 857.590496 -124.835656 
L 857.631803 -128.469903 
L 857.650489 -132.10415 
L 857.633488 -135.738397 
L 857.604791 -139.372644 
L 857.603003 -143.006891 
L 857.628213 -146.641138 
L 857.654576 -150.275385 
L 857.667733 -153.909632 
L 857.664845 -157.543879 
L 857.652599 -161.178126 
L 857.650954 -164.812373 
L 857.669232 -168.44662 
L 857.687844 -172.080867 
L 857.684008 -175.715114 
L 857.668757 -179.349361 
L 857.675708 -182.983608 
L 857.834981 -182.983608 
L 857.834981 -182.983608 
L 857.841932 -179.349361 
L 857.82668 -175.715114 
L 857.822845 -172.080867 
L 857.841457 -168.44662 
L 857.859735 -164.812373 
L 857.85809 -161.178126 
L 857.845844 -157.543879 
L 857.842956 -153.909632 
L 857.856113 -150.275385 
L 857.882475 -146.641138 
L 857.907685 -143.006891 
L 857.905898 -139.372644 
L 857.877201 -135.738397 
L 857.8602 -132.10415 
L 857.878885 -128.469903 
L 857.920193 -124.835656 
L 857.964611 -121.201409 
L 857.987081 -117.567162 
L 857.966576 -113.932915 
L 857.931377 -110.298668 
L 857.937501 -106.664421 
L 858.012807 -103.030173 
L 858.148293 -99.395926 
L 858.294686 -95.761679 
L 858.387324 -92.127432 
L 858.436299 -88.493185 
L 858.543453 -84.858938 
L 858.774245 -81.224691 
L 859.058918 -77.590444 
L 859.294858 -73.956197 
L 859.522185 -70.32195 
L 859.863691 -66.687703 
L 860.365864 -63.053456 
L 861.003238 -59.419209 
L 861.716879 -55.784962 
L 862.533785 -52.150715 
L 863.650593 -48.516468 
L 865.23044 -44.882221 
L 867.353038 -41.247974 
L 870.076892 -37.613727 
L 872.82384 -33.97948 
L 873.697243 -30.345233 
L 870.928385 -26.710986 
L 865.609569 -23.076739 
z
" id="m7fc5b26c3f" style="stroke:#000000;stroke-opacity:0.75;"/>
    </defs>
    <g clip-path="url(#p89aaa2445f)">
     <use style="fill:#0173b2;fill-opacity:0.75;stroke:#000000;stroke-opacity:0.75;" x="0" xlink:href="#m7fc5b26c3f" y="365.426341"/>
    </g>
   </g>
   <g id="patch_3">
    <path clip-path="url(#p89aaa2445f)" d="M -3287.138196 358.226341 
L -3287.138196 348.441541 
L 211.688942 348.441541 
L 211.688942 358.226341 
z
" style="fill:#029e73;"/>
   </g>
   <g id="patch_4">
    <path clip-path="url(#p89aaa2445f)" d="M 211.688942 358.226341 
L 211.688942 348.441541 
L 631.21258 348.441541 
L 631.21258 358.226341 
z
" style="fill:#cc78bc;"/>
   </g>
   <g id="patch_5">
    <path clip-path="url(#p89aaa2445f)" d="M 631.21258 358.226341 
L 631.21258 348.441541 
L 3425.240007 348.441541 
L 3425.240007 358.226341 
z
" style="fill:#d55e00;"/>
   </g>
   <g id="LineCollection_1">
    <path clip-path="url(#p89aaa2445f)" d="M 61.079956 314.818417 
L 77.021855 314.818417 
" style="fill:none;stroke:#000000;stroke-width:2.5;"/>
   </g>
   <g id="LineCollection_2">
    <path clip-path="url(#p89aaa2445f)" d="M 144.984684 328.81694 
L 160.926582 328.81694 
" style="fill:none;stroke:#000000;stroke-width:2.5;"/>
   </g>
   <g id="LineCollection_3">
    <path clip-path="url(#p89aaa2445f)" d="M 228.889412 324.382625 
L 244.83131 324.382625 
" style="fill:none;stroke:#000000;stroke-width:2.5;"/>
   </g>
   <g id="LineCollection_4">
    <path clip-path="url(#p89aaa2445f)" d="M 312.794139 324.526611 
L 328.736037 324.526611 
" style="fill:none;stroke:#000000;stroke-width:2.5;"/>
   </g>
   <g id="LineCollection_5">
    <path clip-path="url(#p89aaa2445f)" d="M 396.698867 325.653215 
L 412.640765 325.653215 
" style="fill:none;stroke:#000000;stroke-width:2.5;"/>
   </g>
   <g id="LineCollection_6">
    <path clip-path="url(#p89aaa2445f)" d="M 480.603594 328.756129 
L 496.545492 328.756129 
" style="fill:none;stroke:#000000;stroke-width:2.5;"/>
   </g>
   <g id="LineCollection_7">
    <path clip-path="url(#p89aaa2445f)" d="M 564.508322 330.675291 
L 580.45022 330.675291 
" style="fill:none;stroke:#000000;stroke-width:2.5;"/>
   </g>
   <g id="LineCollection_8">
    <path clip-path="url(#p89aaa2445f)" d="M 648.413049 313.315489 
L 664.354947 313.315489 
" style="fill:none;stroke:#000000;stroke-width:2.5;"/>
   </g>
   <g id="LineCollection_9">
    <path clip-path="url(#p89aaa2445f)" d="M 732.317777 326.970442 
L 748.259675 326.970442 
" style="fill:none;stroke:#000000;stroke-width:2.5;"/>
   </g>
   <g id="LineCollection_10">
    <path clip-path="url(#p89aaa2445f)" d="M 816.222504 326.543735 
L 832.164403 326.543735 
" style="fill:none;stroke:#000000;stroke-width:2.5;"/>
   </g>
   <g id="LineCollection_11">
    <path clip-path="url(#p89aaa2445f)" d="M 94.641847 323.308755 
L 110.583746 323.308755 
" style="fill:none;stroke:#000000;stroke-width:2.5;"/>
   </g>
   <g id="LineCollection_12">
    <path clip-path="url(#p89aaa2445f)" d="M 178.546575 327.494353 
L 194.488473 327.494353 
" style="fill:none;stroke:#000000;stroke-width:2.5;"/>
   </g>
   <g id="LineCollection_13">
    <path clip-path="url(#p89aaa2445f)" d="M 262.451303 325.483599 
L 278.393201 325.483599 
" style="fill:none;stroke:#000000;stroke-width:2.5;"/>
   </g>
   <g id="LineCollection_14">
    <path clip-path="url(#p89aaa2445f)" d="M 346.35603 329.807841 
L 362.297928 329.807841 
" style="fill:none;stroke:#000000;stroke-width:2.5;"/>
   </g>
   <g id="LineCollection_15">
    <path clip-path="url(#p89aaa2445f)" d="M 430.260758 329.236882 
L 446.202656 329.236882 
" style="fill:none;stroke:#000000;stroke-width:2.5;"/>
   </g>
   <g id="LineCollection_16">
    <path clip-path="url(#p89aaa2445f)" d="M 514.165485 326.472576 
L 530.107383 326.472576 
" style="fill:none;stroke:#000000;stroke-width:2.5;"/>
   </g>
   <g id="LineCollection_17">
    <path clip-path="url(#p89aaa2445f)" d="M 598.070213 330.417517 
L 614.012111 330.417517 
" style="fill:none;stroke:#000000;stroke-width:2.5;"/>
   </g>
   <g id="LineCollection_18">
    <path clip-path="url(#p89aaa2445f)" d="M 681.97494 328.083173 
L 697.916838 328.083173 
" style="fill:none;stroke:#000000;stroke-width:2.5;"/>
   </g>
   <g id="LineCollection_19">
    <path clip-path="url(#p89aaa2445f)" d="M 765.879668 324.82237 
L 781.821566 324.82237 
" style="fill:none;stroke:#000000;stroke-width:2.5;"/>
   </g>
   <g id="LineCollection_20">
    <path clip-path="url(#p89aaa2445f)" d="M 849.784395 329.470579 
L 865.726294 329.470579 
" style="fill:none;stroke:#000000;stroke-width:2.5;"/>
   </g>
   <g id="patch_6">
    <path d="M 44.903125 358.226341 
L 44.903125 32.066341 
" style="fill:none;stroke:#262626;stroke-linecap:square;stroke-linejoin:miter;stroke-width:1.25;"/>
   </g>
   <g id="text_8">
    <text style="fill:#262626;font-family:Arial;font-size:20px;font-stretch:normal;font-style:normal;font-weight:normal;text-anchor:middle;" transform="rotate(-0, 85.831851, 131.861118)" x="85.831851" y="131.861118">****</text>
   </g>
   <g id="text_9">
    <text style="fill:#262626;font-family:Arial;font-size:20px;font-stretch:normal;font-style:normal;font-weight:normal;text-anchor:middle;" transform="rotate(-0, 169.736579, 131.861118)" x="169.736579" y="131.861118">****</text>
   </g>
   <g id="text_10">
    <text style="fill:#262626;font-family:Arial;font-size:20px;font-stretch:normal;font-style:normal;font-weight:normal;text-anchor:middle;" transform="rotate(-0, 337.546034, 131.861118)" x="337.546034" y="131.861118">****</text>
   </g>
   <g id="text_11">
    <text style="fill:#262626;font-family:Arial;font-size:20px;font-stretch:normal;font-style:normal;font-weight:normal;text-anchor:middle;" transform="rotate(-0, 421.450761, 131.861118)" x="421.450761" y="131.861118">****</text>
   </g>
   <g id="text_12">
    <text style="fill:#262626;font-family:Arial;font-size:20px;font-stretch:normal;font-style:normal;font-weight:normal;text-anchor:middle;" transform="rotate(-0, 505.355489, 131.861118)" x="505.355489" y="131.861118">****</text>
   </g>
   <g id="text_13">
    <text style="fill:#262626;font-family:Arial;font-size:20px;font-stretch:normal;font-style:normal;font-weight:normal;text-anchor:middle;" transform="rotate(-0, 673.164944, 131.861118)" x="673.164944" y="131.861118">****</text>
   </g>
   <g id="text_14">
    <text style="fill:#262626;font-family:Arial;font-size:20px;font-stretch:normal;font-style:normal;font-weight:normal;text-anchor:middle;" transform="rotate(-0, 757.069671, 131.861118)" x="757.069671" y="131.861118">***</text>
   </g>
   <g id="text_15">
    <text style="fill:#262626;font-family:Arial;font-size:20px;font-stretch:normal;font-style:normal;font-weight:normal;text-anchor:middle;" transform="rotate(-0, 840.974399, 131.861118)" x="840.974399" y="131.861118">****</text>
   </g>
   <g id="text_16">
    <text style="fill:#262626;font-family:Arial;font-size:20px;font-stretch:normal;font-style:normal;font-weight:normal;text-anchor:middle;" transform="rotate(-0, 85.831851, 131.861118)" x="85.831851" y="131.861118">****</text>
   </g>
   <g id="text_17">
    <text style="fill:#262626;font-family:Arial;font-size:20px;font-stretch:normal;font-style:normal;font-weight:normal;text-anchor:middle;" transform="rotate(-0, 169.736579, 131.861118)" x="169.736579" y="131.861118">****</text>
   </g>
   <g id="text_18">
    <text style="fill:#262626;font-family:Arial;font-size:20px;font-stretch:normal;font-style:normal;font-weight:normal;text-anchor:middle;" transform="rotate(-0, 337.546034, 131.861118)" x="337.546034" y="131.861118">****</text>
   </g>
   <g id="text_19">
    <text style="fill:#262626;font-family:Arial;font-size:20px;font-stretch:normal;font-style:normal;font-weight:normal;text-anchor:middle;" transform="rotate(-0, 421.450761, 131.861118)" x="421.450761" y="131.861118">****</text>
   </g>
   <g id="text_20">
    <text style="fill:#262626;font-family:Arial;font-size:20px;font-stretch:normal;font-style:normal;font-weight:normal;text-anchor:middle;" transform="rotate(-0, 505.355489, 131.861118)" x="505.355489" y="131.861118">****</text>
   </g>
   <g id="text_21">
    <text style="fill:#262626;font-family:Arial;font-size:20px;font-stretch:normal;font-style:normal;font-weight:normal;text-anchor:middle;" transform="rotate(-0, 673.164944, 131.861118)" x="673.164944" y="131.861118">****</text>
   </g>
   <g id="text_22">
    <text style="fill:#262626;font-family:Arial;font-size:20px;font-stretch:normal;font-style:normal;font-weight:normal;text-anchor:middle;" transform="rotate(-0, 757.069671, 131.861118)" x="757.069671" y="131.861118">***</text>
   </g>
   <g id="text_23">
    <text style="fill:#262626;font-family:Arial;font-size:20px;font-stretch:normal;font-style:normal;font-weight:normal;text-anchor:middle;" transform="rotate(-0, 840.974399, 131.861118)" x="840.974399" y="131.861118">****</text>
   </g>
   <g id="text_24">
    <text style="fill:#262626;font-family:Arial;font-size:18px;font-stretch:normal;font-style:normal;font-weight:normal;" transform="translate(505.01987 20.084062)">         p-value</text>
    <text style="fill:#262626;font-family:Arial;font-size:18px;font-stretch:normal;font-style:normal;font-weight:normal;" transform="translate(505.01987 39.122437)">**** &lt; 0.0001 </text>
    <text style="fill:#262626;font-family:Arial;font-size:18px;font-stretch:normal;font-style:normal;font-weight:normal;" transform="translate(505.01987 58.160812)">***   &lt; 0.001</text>
   </g>
   <g id="text_25">
    <text style="fill:#262626;font-family:Arial;font-size:18px;font-stretch:normal;font-style:normal;font-weight:normal;text-anchor:start;" transform="rotate(-0, 44.903125, 26.066341)" x="44.903125" y="26.066341">Feature relative standard deviation within animal</text>
   </g>
   <g id="legend_1">
    <g id="patch_7">
     <path d="M 887.503125 161.211903 
L 915.503125 161.211903 
L 915.503125 151.411903 
L 887.503125 151.411903 
z
" style="fill:none;opacity:0;"/>
    </g>
    <g id="text_26">
     <text style="fill:#262626;font-family:Arial;font-size:14px;font-stretch:normal;font-style:normal;font-weight:normal;text-anchor:start;" transform="rotate(-0, 926.703125, 161.211903)" x="926.703125" y="161.211903">Sampling</text>
    </g>
    <g id="patch_8">
     <path d="M 887.503125 176.979403 
L 915.503125 176.979403 
L 915.503125 167.179403 
L 887.503125 167.179403 
z
" style="fill:#de8f05;"/>
    </g>
    <g id="text_27">
     <text style="fill:#262626;font-family:Arial;font-size:14px;font-stretch:normal;font-style:normal;font-weight:normal;text-anchor:start;" transform="rotate(-0, 926.703125, 176.979403)" x="926.703125" y="176.979403">FBG</text>
    </g>
    <g id="patch_9">
     <path d="M 887.503125 192.582841 
L 915.503125 192.582841 
L 915.503125 182.782841 
L 887.503125 182.782841 
z
" style="fill:#0173b2;"/>
    </g>
    <g id="text_28">
     <text style="fill:#262626;font-family:Arial;font-size:14px;font-stretch:normal;font-style:normal;font-weight:normal;text-anchor:start;" transform="rotate(-0, 926.703125, 192.582841)" x="926.703125" y="192.582841">RBG</text>
    </g>
    <g id="patch_10">
     <path d="M 887.503125 224.385153 
L 915.503125 224.385153 
L 915.503125 214.585153 
L 887.503125 214.585153 
z
" style="fill:none;opacity:0;"/>
    </g>
    <g id="text_29">
     <text style="fill:#262626;font-family:Arial;font-size:14px;font-stretch:normal;font-style:normal;font-weight:normal;" transform="translate(926.703125 208.186278)"/>
     <text style="fill:#262626;font-family:Arial;font-size:14px;font-stretch:normal;font-style:normal;font-weight:normal;" transform="translate(926.703125 222.993903)">Glucose</text>
     <text style="fill:#262626;font-family:Arial;font-size:14px;font-stretch:normal;font-style:normal;font-weight:normal;" transform="translate(926.703125 237.801528)">Tolerance</text>
    </g>
    <g id="patch_11">
     <path d="M 887.503125 253.404966 
L 915.503125 253.404966 
L 915.503125 243.604966 
L 887.503125 243.604966 
z
" style="fill:#029e73;"/>
    </g>
    <g id="text_30">
     <text style="fill:#262626;font-family:Arial;font-size:14px;font-stretch:normal;font-style:normal;font-weight:normal;text-anchor:start;" transform="rotate(-0, 926.703125, 253.404966)" x="926.703125" y="253.404966">normal</text>
    </g>
    <g id="patch_12">
     <path d="M 887.503125 269.008403 
L 915.503125 269.008403 
L 915.503125 259.208403 
L 887.503125 259.208403 
z
" style="fill:#cc78bc;"/>
    </g>
    <g id="text_31">
     <text style="fill:#262626;font-family:Arial;font-size:14px;font-stretch:normal;font-style:normal;font-weight:normal;text-anchor:start;" transform="rotate(-0, 926.703125, 269.008403)" x="926.703125" y="269.008403">impaired</text>
    </g>
    <g id="patch_13">
     <path d="M 887.503125 284.611841 
L 915.503125 284.611841 
L 915.503125 274.811841 
L 887.503125 274.811841 
z
" style="fill:#d55e00;"/>
    </g>
    <g id="text_32">
     <text style="fill:#262626;font-family:Arial;font-size:14px;font-stretch:normal;font-style:normal;font-weight:normal;text-anchor:start;" transform="rotate(-0, 926.703125, 284.611841)" x="926.703125" y="284.611841">diabetic</text>
    </g>
   </g>
  </g>
 </g>
 <defs>
  <clipPath id="p89aaa2445f">
   <rect height="326.16" width="837" x="44.903125" y="32.066341"/>
  </clipPath>
 </defs>
</svg>
