<?xml version="1.0" encoding="utf-8"?>
<!-- Generator: Adobe Illustrator 24.0.2, SVG Export Plug-In . SVG Version: 6.00 Build 0)  -->
<svg version="1.1" id="Layer_1" xmlns="http://www.w3.org/2000/svg" xmlns:xlink="http://www.w3.org/1999/xlink" x="0px" y="0px"
	 viewBox="0 0 817.6 743.8" style="enable-background:new 0 0 817.6 743.8;" xml:space="preserve">
<style type="text/css">
	.st0{fill:#FFFFFF;}
	.st1{clip-path:url(#SVGID_2_);fill:none;stroke:#808080;stroke-width:3;stroke-linejoin:round;}
	.st2{clip-path:url(#SVGID_4_);fill:none;stroke:#808080;stroke-width:3;stroke-linejoin:round;}
	.st3{clip-path:url(#SVGID_6_);fill:none;stroke:#808080;stroke-width:3;stroke-linejoin:round;}
	.st4{clip-path:url(#SVGID_8_);fill:none;stroke:#808080;stroke-width:3;stroke-linejoin:round;}
	.st5{clip-path:url(#SVGID_10_);fill:none;stroke:#808080;stroke-width:3;stroke-linejoin:round;}
	.st6{clip-path:url(#SVGID_12_);fill:none;stroke:#808080;stroke-width:3;stroke-linejoin:round;}
	.st7{clip-path:url(#SVGID_14_);fill:none;stroke:#808080;stroke-width:3;stroke-linejoin:round;}
	.st8{clip-path:url(#SVGID_16_);fill:none;stroke:#808080;stroke-width:3;stroke-linejoin:round;}
	.st9{clip-path:url(#SVGID_18_);fill:none;stroke:#808080;stroke-width:3;stroke-linejoin:round;}
	.st10{clip-path:url(#SVGID_20_);fill:none;stroke:#808080;stroke-width:3;stroke-linejoin:round;}
	.st11{clip-path:url(#SVGID_22_);fill:none;stroke:#808080;stroke-width:3;stroke-linejoin:round;}
	.st12{clip-path:url(#SVGID_24_);fill:none;stroke:#808080;stroke-width:3;stroke-linejoin:round;}
	.st13{clip-path:url(#SVGID_26_);fill:none;stroke:#808080;stroke-width:3;stroke-linejoin:round;}
	.st14{clip-path:url(#SVGID_28_);fill:none;stroke:#808080;stroke-width:3;stroke-linejoin:round;}
	.st15{clip-path:url(#SVGID_30_);fill:none;stroke:#808080;stroke-width:3;stroke-linejoin:round;}
	.st16{fill:#262626;stroke:#262626;stroke-width:0.8;stroke-linejoin:round;}
	.st17{fill:#262626;}
	.st18{font-family:'ArialMT';}
	.st19{font-size:20px;}
	.st20{font-size:18px;}
	.st21{font-size:24px;}
	.st22{font-size:12px;}
	.st23{fill:none;stroke:#262626;stroke-width:1.25;stroke-linecap:square;}
	.st24{clip-path:url(#SVGID_32_);}
	.st25{fill:#DE8F05;stroke:#FFFFFF;stroke-width:1.8847;stroke-linejoin:round;}
	.st26{font-size:21px;}
	.st27{clip-path:url(#SVGID_34_);}
	.st28{fill:#0173B2;stroke:#FFFFFF;stroke-width:1.8847;stroke-linejoin:round;}
</style>
<g id="figure_1">
	<g id="axes_1">
		<g id="patch_2">
			<path class="st0" d="M191.2,668.8h446.4v-598H191.2V668.8z"/>
		</g>
		<g id="LineCollection_1">
			<g>
				<defs>
					<rect id="SVGID_1_" x="191.2" y="70.8" width="446.4" height="598"/>
				</defs>
				<clipPath id="SVGID_2_">
					<use xlink:href="#SVGID_1_"  style="overflow:visible;"/>
				</clipPath>
				<path class="st1" d="M429.9,641.6h-57.4"/>
			</g>
			<g>
				<defs>
					<rect id="SVGID_3_" x="191.2" y="70.8" width="446.4" height="598"/>
				</defs>
				<clipPath id="SVGID_4_">
					<use xlink:href="#SVGID_3_"  style="overflow:visible;"/>
				</clipPath>
				<path class="st2" d="M471.9,602.8h-86.8"/>
			</g>
			<g>
				<defs>
					<rect id="SVGID_5_" x="191.2" y="70.8" width="446.4" height="598"/>
				</defs>
				<clipPath id="SVGID_6_">
					<use xlink:href="#SVGID_5_"  style="overflow:visible;"/>
				</clipPath>
				<path class="st3" d="M514.6,564.1h-12.8"/>
			</g>
			<g>
				<defs>
					<rect id="SVGID_7_" x="191.2" y="70.8" width="446.4" height="598"/>
				</defs>
				<clipPath id="SVGID_8_">
					<use xlink:href="#SVGID_7_"  style="overflow:visible;"/>
				</clipPath>
				<path class="st4" d="M211.5,525.3H318"/>
			</g>
			<g>
				<defs>
					<rect id="SVGID_9_" x="191.2" y="70.8" width="446.4" height="598"/>
				</defs>
				<clipPath id="SVGID_10_">
					<use xlink:href="#SVGID_9_"  style="overflow:visible;"/>
				</clipPath>
				<path class="st5" d="M222.4,486.5h132.4"/>
			</g>
			<g>
				<defs>
					<rect id="SVGID_11_" x="191.2" y="70.8" width="446.4" height="598"/>
				</defs>
				<clipPath id="SVGID_12_">
					<use xlink:href="#SVGID_11_"  style="overflow:visible;"/>
				</clipPath>
				<path class="st6" d="M240.5,447.7h170.1"/>
			</g>
			<g>
				<defs>
					<rect id="SVGID_13_" x="191.2" y="70.8" width="446.4" height="598"/>
				</defs>
				<clipPath id="SVGID_14_">
					<use xlink:href="#SVGID_13_"  style="overflow:visible;"/>
				</clipPath>
				<path class="st7" d="M242.4,409h275.1"/>
			</g>
			<g>
				<defs>
					<rect id="SVGID_15_" x="191.2" y="70.8" width="446.4" height="598"/>
				</defs>
				<clipPath id="SVGID_16_">
					<use xlink:href="#SVGID_15_"  style="overflow:visible;"/>
				</clipPath>
				<path class="st8" d="M250.4,370.2h272.8"/>
			</g>
			<g>
				<defs>
					<rect id="SVGID_17_" x="191.2" y="70.8" width="446.4" height="598"/>
				</defs>
				<clipPath id="SVGID_18_">
					<use xlink:href="#SVGID_17_"  style="overflow:visible;"/>
				</clipPath>
				<path class="st9" d="M270.9,331.4h225.4"/>
			</g>
			<g>
				<defs>
					<rect id="SVGID_19_" x="191.2" y="70.8" width="446.4" height="598"/>
				</defs>
				<clipPath id="SVGID_20_">
					<use xlink:href="#SVGID_19_"  style="overflow:visible;"/>
				</clipPath>
				<path class="st10" d="M280.4,292.6h337"/>
			</g>
			<g>
				<defs>
					<rect id="SVGID_21_" x="191.2" y="70.8" width="446.4" height="598"/>
				</defs>
				<clipPath id="SVGID_22_">
					<use xlink:href="#SVGID_21_"  style="overflow:visible;"/>
				</clipPath>
				<path class="st11" d="M294.1,253.9H458"/>
			</g>
			<g>
				<defs>
					<rect id="SVGID_23_" x="191.2" y="70.8" width="446.4" height="598"/>
				</defs>
				<clipPath id="SVGID_24_">
					<use xlink:href="#SVGID_23_"  style="overflow:visible;"/>
				</clipPath>
				<path class="st12" d="M305.6,215.1h8.2"/>
			</g>
			<g>
				<defs>
					<rect id="SVGID_25_" x="191.2" y="70.8" width="446.4" height="598"/>
				</defs>
				<clipPath id="SVGID_26_">
					<use xlink:href="#SVGID_25_"  style="overflow:visible;"/>
				</clipPath>
				<path class="st13" d="M335.6,176.3h124"/>
			</g>
			<g>
				<defs>
					<rect id="SVGID_27_" x="191.2" y="70.8" width="446.4" height="598"/>
				</defs>
				<clipPath id="SVGID_28_">
					<use xlink:href="#SVGID_27_"  style="overflow:visible;"/>
				</clipPath>
				<path class="st14" d="M367.9,137.6h206.9"/>
			</g>
			<g>
				<defs>
					<rect id="SVGID_29_" x="191.2" y="70.8" width="446.4" height="598"/>
				</defs>
				<clipPath id="SVGID_30_">
					<use xlink:href="#SVGID_29_"  style="overflow:visible;"/>
				</clipPath>
				<path class="st15" d="M399.9,98.8h7.2"/>
			</g>
		</g>
		<g id="matplotlib.axis_1">
			<g id="xtick_1">
				<g id="line2d_1">
					<g>
						<g>
							<path id="m155aed5a80" class="st16" d="M232.5,668.8v6"/>
						</g>
					</g>
				</g>
				<g id="text_1">
					<text transform="matrix(1 0 0 1 226.8898 692.6038)" class="st17 st18 st19">5</text>
				</g>
			</g>
			<g id="xtick_2">
				<g id="line2d_2">
					<g>
						<g>
							<path id="m155aed5a80_1_" class="st16" d="M355,668.8v6"/>
						</g>
					</g>
				</g>
				<g id="text_2">
					<text transform="matrix(1 0 0 1 343.889 692.6038)" class="st17 st18 st19">10</text>
				</g>
			</g>
			<g id="xtick_3">
				<g id="line2d_3">
					<g>
						<g>
							<path id="m155aed5a80_2_" class="st16" d="M477.6,668.8v6"/>
						</g>
					</g>
				</g>
				<g id="text_3">
					<text transform="matrix(1 0 0 1 466.4497 692.6038)" class="st17 st18 st19">15</text>
				</g>
			</g>
			<g id="xtick_4">
				<g id="line2d_4">
					<g>
						<g>
							<path id="m155aed5a80_3_" class="st16" d="M600.1,668.8v6"/>
						</g>
					</g>
				</g>
				<g id="text_4">
					<text transform="matrix(1 0 0 1 589.0104 692.6038)" class="st17 st18 st19">20</text>
				</g>
			</g>
			<g id="text_5">
				<text transform="matrix(1 0 0 1 362.4253 713.4628)" class="st17 st18 st20">Mean %RSD</text>
				<text transform="matrix(1 0 0 1 265.8764 732.7645)" class="st17 st18 st20">within-replicate sampling of individual</text>
			</g>
		</g>
		<g id="matplotlib.axis_2">
			<g id="ytick_1">
				<g id="line2d_5">
					<g>
						<g>
							<path id="m942ab91bc9" class="st16" d="M191.2,640.8h-6"/>
						</g>
					</g>
				</g>
				<g id="text_6">
					<text transform="matrix(1 0 0 1 148.4026 649.4221)" class="st17 st18 st21">AC</text>
				</g>
			</g>
			<g id="ytick_2">
				<g id="line2d_6">
					<g>
						<g>
							<path id="m942ab91bc9_1_" class="st16" d="M191.2,602.1h-6"/>
						</g>
					</g>
				</g>
				<g id="text_7">
					<text transform="matrix(1 0 0 1 149.7269 610.6489)" class="st17 st18 st21">PE</text>
				</g>
			</g>
			<g id="ytick_3">
				<g id="line2d_7">
					<g>
						<g>
							<path id="m942ab91bc9_2_" class="st16" d="M191.2,563.3h-6"/>
						</g>
					</g>
				</g>
				<g id="text_8">
					<text transform="matrix(1 0 0 1 148.4144 571.8757)" class="st17 st18 st21">TG</text>
				</g>
			</g>
			<g id="ytick_4">
				<g id="line2d_8">
					<g>
						<g>
							<path id="m942ab91bc9_3_" class="st16" d="M191.2,524.5h-6"/>
						</g>
					</g>
				</g>
				<g id="text_9">
					<text transform="matrix(1 0 0 1 148.4026 533.1025)" class="st17 st18 st21">PC</text>
				</g>
			</g>
			<g id="ytick_5">
				<g id="line2d_9">
					<g>
						<g>
							<path id="m942ab91bc9_4_" class="st16" d="M191.2,485.7h-6"/>
						</g>
					</g>
				</g>
				<g id="text_10">
					<text transform="matrix(1 0 0 1 145.7425 494.3293)" class="st17 st18 st21">SM</text>
				</g>
			</g>
			<g id="ytick_6">
				<g id="line2d_10">
					<g>
						<g>
							<path id="m942ab91bc9_5_" class="st16" d="M191.2,447h-6"/>
						</g>
					</g>
				</g>
				<g id="text_11">
					<text transform="matrix(1 0 0 1 29.7034 455.7024)" class="st17 st18 st21">Plasmanyl-PC</text>
				</g>
			</g>
			<g id="ytick_7">
				<g id="line2d_11">
					<g>
						<g>
							<path id="m942ab91bc9_6_" class="st16" d="M191.2,408.2h-6"/>
						</g>
					</g>
				</g>
				<g id="text_12">
					<text transform="matrix(1 0 0 1 31.0276 416.783)" class="st17 st18 st21">Plasmenyl-PE</text>
				</g>
			</g>
			<g id="ytick_8">
				<g id="line2d_12">
					<g>
						<g>
							<path id="m942ab91bc9_7_" class="st16" d="M191.2,369.4h-6"/>
						</g>
					</g>
				</g>
				<g id="text_13">
					<text transform="matrix(1 0 0 1 31.0276 378.0098)" class="st17 st18 st21">Plasmanyl-PE</text>
				</g>
			</g>
			<g id="ytick_9">
				<g id="line2d_13">
					<g>
						<g>
							<path id="m942ab91bc9_8_" class="st16" d="M191.2,330.6h-6"/>
						</g>
					</g>
				</g>
				<g id="text_14">
					<text transform="matrix(1 0 0 1 29.7034 339.3828)" class="st17 st18 st21">Plasmenyl-PC</text>
				</g>
			</g>
			<g id="ytick_10">
				<g id="line2d_14">
					<g>
						<g>
							<path id="m942ab91bc9_9_" class="st16" d="M191.2,291.9h-6"/>
						</g>
					</g>
				</g>
				<g id="text_15">
					<text transform="matrix(1 0 0 1 159.0667 300.4634)" class="st17 st18 st21">PI</text>
				</g>
			</g>
			<g id="ytick_11">
				<g id="line2d_15">
					<g>
						<g>
							<path id="m942ab91bc9_10_" class="st16" d="M191.2,253.1h-6"/>
						</g>
					</g>
				</g>
				<g id="text_16">
					<text transform="matrix(1 0 0 1 148.4026 261.6902)" class="st17 st18 st21">CE</text>
				</g>
			</g>
			<g id="ytick_12">
				<g id="line2d_16">
					<g>
						<g>
							<path id="m942ab91bc9_11_" class="st16" d="M191.2,214.3h-6"/>
						</g>
					</g>
				</g>
				<g id="text_17">
					<text transform="matrix(1 0 0 1 96.3948 223.0633)" class="st17 st18 st21">Cer[NS]</text>
				</g>
			</g>
			<g id="ytick_13">
				<g id="line2d_17">
					<g>
						<g>
							<path id="m942ab91bc9_12_" class="st16" d="M191.2,175.6h-6"/>
						</g>
					</g>
				</g>
				<g id="text_18">
					<text transform="matrix(1 0 0 1 60.3831 184.2901)" class="st17 st18 st21">Alkenyl-DG</text>
				</g>
			</g>
			<g id="ytick_14">
				<g id="line2d_18">
					<g>
						<g>
							<path id="m942ab91bc9_13_" class="st16" d="M191.2,136.8h-6"/>
						</g>
					</g>
				</g>
				<g id="text_19">
					<text transform="matrix(1 0 0 1 99.9222 145.3707)" class="st17 st18 st21">LysoPE</text>
				</g>
			</g>
			<g id="ytick_15">
				<g id="line2d_19">
					<g>
						<g>
							<path id="m942ab91bc9_14_" class="st16" d="M191.2,98h-6"/>
						</g>
					</g>
				</g>
				<g id="text_20">
					<text transform="matrix(1 0 0 1 98.598 106.7438)" class="st17 st18 st21">LysoPC</text>
				</g>
			</g>
			<g id="text_21">
				<text transform="matrix(6.123234e-17 -1 1 6.123234e-17 21.7594 399.1544)" class="st17 st18 st22">Lipid Class</text>
			</g>
		</g>
		<g id="patch_3">
			<path class="st23" d="M191.2,668.8v-598"/>
		</g>
		<g id="patch_4">
			<path class="st23" d="M191.2,668.8h446.4"/>
		</g>
		<g id="PathCollection_1">
			<g>
				<defs>
					<rect id="SVGID_31_" x="191.2" y="70.8" width="446.4" height="598"/>
				</defs>
				<clipPath id="SVGID_32_">
					<use xlink:href="#SVGID_31_"  style="overflow:visible;"/>
				</clipPath>
				<g class="st24">
					<g>
						<path id="mf1a7f8b7cd" class="st25" d="M372.4,652.6c3.1,0,6.1-1.2,8.3-3.5s3.5-5.2,3.5-8.3s-1.2-6.1-3.5-8.3
							s-5.2-3.5-8.3-3.5s-6.1,1.2-8.3,3.5s-3.5,5.2-3.5,8.3s1.2,6.1,3.5,8.3S369.3,652.6,372.4,652.6z"/>
					</g>
					<g>
						<path id="mf1a7f8b7cd_1_" class="st25" d="M385.1,613.8c3.1,0,6.1-1.2,8.3-3.5s3.5-5.2,3.5-8.3s-1.2-6.1-3.5-8.3
							s-5.2-3.5-8.3-3.5s-6.1,1.2-8.3,3.5s-3.5,5.2-3.5,8.3s1.2,6.1,3.5,8.3S382,613.8,385.1,613.8z"/>
					</g>
					<g>
						<path id="mf1a7f8b7cd_2_" class="st25" d="M501.8,575.1c3.1,0,6.1-1.2,8.3-3.5s3.5-5.2,3.5-8.3s-1.2-6.1-3.5-8.3
							s-5.2-3.5-8.3-3.5s-6.1,1.2-8.3,3.5s-3.5,5.2-3.5,8.3s1.2,6.1,3.5,8.3S498.7,575.1,501.8,575.1z"/>
					</g>
					<g>
						<path id="mf1a7f8b7cd_3_" class="st25" d="M318,536.3c3.1,0,6.1-1.2,8.3-3.5s3.5-5.2,3.5-8.3s-1.2-6.1-3.5-8.3
							s-5.2-3.5-8.3-3.5s-6.1,1.2-8.3,3.5s-3.5,5.2-3.5,8.3s1.2,6.1,3.5,8.3S314.9,536.3,318,536.3z"/>
					</g>
					<g>
						<path id="mf1a7f8b7cd_4_" class="st25" d="M354.9,497.5c3.1,0,6.1-1.2,8.3-3.5s3.5-5.2,3.5-8.3c0-3.1-1.2-6.1-3.5-8.3
							s-5.2-3.5-8.3-3.5s-6.1,1.2-8.3,3.5s-3.5,5.2-3.5,8.3c0,3.1,1.2,6.1,3.5,8.3S351.7,497.5,354.9,497.5z"/>
					</g>
					<g>
						<path id="mf1a7f8b7cd_5_" class="st25" d="M410.6,458.7c3.1,0,6.1-1.2,8.3-3.5s3.5-5.2,3.5-8.3c0-3.1-1.2-6.1-3.5-8.3
							s-5.2-3.5-8.3-3.5s-6.1,1.2-8.3,3.5s-3.5,5.2-3.5,8.3c0,3.1,1.2,6.1,3.5,8.3S407.5,458.7,410.6,458.7z"/>
					</g>
					<g>
						<path id="mf1a7f8b7cd_6_" class="st25" d="M517.5,420c3.1,0,6.1-1.2,8.3-3.5s3.5-5.2,3.5-8.3c0-3.1-1.2-6.1-3.5-8.3
							s-5.2-3.5-8.3-3.5s-6.1,1.2-8.3,3.5s-3.5,5.2-3.5,8.3c0,3.1,1.2,6.1,3.5,8.3S514.4,420,517.5,420z"/>
					</g>
					<g>
						<path id="mf1a7f8b7cd_7_" class="st25" d="M523.2,381.2c3.1,0,6.1-1.2,8.3-3.5s3.5-5.2,3.5-8.3c0-3.1-1.2-6.1-3.5-8.3
							s-5.2-3.5-8.3-3.5s-6.1,1.2-8.3,3.5s-3.5,5.2-3.5,8.3c0,3.1,1.2,6.1,3.5,8.3S520.1,381.2,523.2,381.2z"/>
					</g>
					<g>
						<path id="mf1a7f8b7cd_8_" class="st25" d="M496.3,342.4c3.1,0,6.1-1.2,8.3-3.5s3.5-5.2,3.5-8.3c0-3.1-1.2-6.1-3.5-8.3
							s-5.2-3.5-8.3-3.5s-6.1,1.2-8.3,3.5s-3.5,5.2-3.5,8.3c0,3.1,1.2,6.1,3.5,8.3S493.2,342.4,496.3,342.4z"/>
					</g>
					<g>
						<path id="mf1a7f8b7cd_9_" class="st25" d="M617.4,303.7c3.1,0,6.1-1.2,8.3-3.5s3.5-5.2,3.5-8.3c0-3.1-1.2-6.1-3.5-8.3
							s-5.2-3.5-8.3-3.5s-6.1,1.2-8.3,3.5s-3.5,5.2-3.5,8.3c0,3.1,1.2,6.1,3.5,8.3S614.2,303.7,617.4,303.7z"/>
					</g>
					<g>
						<path id="mf1a7f8b7cd_10_" class="st25" d="M458,264.9c3.1,0,6.1-1.2,8.3-3.5s3.5-5.2,3.5-8.3s-1.2-6.1-3.5-8.3
							c-2.2-2.2-5.2-3.5-8.3-3.5s-6.1,1.2-8.3,3.5c-2.2,2.2-3.5,5.2-3.5,8.3s1.2,6.1,3.5,8.3S454.9,264.9,458,264.9z"/>
					</g>
					<g>
						<path id="mf1a7f8b7cd_11_" class="st25" d="M313.8,226.1c3.1,0,6.1-1.2,8.3-3.5s3.5-5.2,3.5-8.3c0-3.1-1.2-6.1-3.5-8.3
							c-2.2-2.2-5.2-3.5-8.3-3.5s-6.1,1.2-8.3,3.5c-2.2,2.2-3.5,5.2-3.5,8.3c0,3.1,1.2,6.1,3.5,8.3S310.7,226.1,313.8,226.1z"/>
					</g>
					<g>
						<path id="mf1a7f8b7cd_12_" class="st25" d="M459.6,187.3c3.1,0,6.1-1.2,8.3-3.5s3.5-5.2,3.5-8.3c0-3.1-1.2-6.1-3.5-8.3
							c-2.2-2.2-5.2-3.5-8.3-3.5s-6.1,1.2-8.3,3.5c-2.2,2.2-3.5,5.2-3.5,8.3c0,3.1,1.2,6.1,3.5,8.3S456.4,187.3,459.6,187.3z"/>
					</g>
					<g>
						<path id="mf1a7f8b7cd_13_" class="st25" d="M574.8,148.6c3.1,0,6.1-1.2,8.3-3.5s3.5-5.2,3.5-8.3c0-3.1-1.2-6.1-3.5-8.3
							c-2.2-2.2-5.2-3.5-8.3-3.5s-6.1,1.2-8.3,3.5c-2.2,2.2-3.5,5.2-3.5,8.3c0,3.1,1.2,6.1,3.5,8.3S571.7,148.6,574.8,148.6z"/>
					</g>
					<g>
						<path id="mf1a7f8b7cd_14_" class="st25" d="M407,109.8c3.1,0,6.1-1.2,8.3-3.5c2.2-2.2,3.5-5.2,3.5-8.3s-1.2-6.1-3.5-8.3
							c-2.2-2.2-5.2-3.5-8.3-3.5s-6.1,1.2-8.3,3.5c-2.2,2.2-3.5,5.2-3.5,8.3s1.2,6.1,3.5,8.3C400.9,108.5,403.9,109.8,407,109.8z"/>
					</g>
				</g>
			</g>
		</g>
		<g id="text_22">
			<text transform="matrix(1 0 0 1 445.8044 646.2615)" class="st17 st18 st26">‒2.3%</text>
		</g>
		<g id="text_23">
			<text transform="matrix(1 0 0 1 487.8216 607.4883)" class="st17 st18 st26">‒3.5%</text>
		</g>
		<g id="text_24">
			<text transform="matrix(1 0 0 1 530.5366 568.7151)" class="st17 st18 st26">‒0.5%</text>
		</g>
		<g id="text_25">
			<text transform="matrix(1 0 0 1 333.9521 529.942)" class="st17 st18 st26">+4.3%</text>
		</g>
		<g id="text_26">
			<text transform="matrix(1 0 0 1 370.7959 491.1688)" class="st17 st18 st26">+5.4%</text>
		</g>
		<g id="text_27">
			<text transform="matrix(1 0 0 1 426.5305 452.3956)" class="st17 st18 st26">+6.9%</text>
		</g>
		<g id="text_28">
			<text transform="matrix(1 0 0 1 533.4735 413.6224)" class="st17 st18 st26">+11.2%</text>
		</g>
		<g id="text_29">
			<text transform="matrix(1 0 0 1 539.1245 374.8492)" class="st17 st18 st26">+11.1%</text>
		</g>
		<g id="text_30">
			<text transform="matrix(1 0 0 1 512.2257 336.076)" class="st17 st18 st26">+9.2%</text>
		</g>
		<g id="text_31">
			<text transform="matrix(1 0 0 1 633.2845 297.3029)" class="st17 st18 st26">+13.7%</text>
		</g>
		<g id="text_32">
			<text transform="matrix(1 0 0 1 473.9138 258.5297)" class="st17 st18 st26">+6.7%</text>
		</g>
		<g id="text_33">
			<text transform="matrix(1 0 0 1 329.7589 219.7565)" class="st17 st18 st26">+0.3%</text>
		</g>
		<g id="text_34">
			<text transform="matrix(1 0 0 1 475.4968 180.9833)" class="st17 st18 st26">+5.1%</text>
		</g>
		<g id="text_35">
			<text transform="matrix(1 0 0 1 590.7228 142.2101)" class="st17 st18 st26">+8.4%</text>
		</g>
		<g id="text_36">
			<text transform="matrix(1 0 0 1 422.9757 103.4369)" class="st17 st18 st26">+0.3%</text>
		</g>
		<g id="text_37">
			<text transform="matrix(1 0 0 1 232.4513 98.0081)" class="st17 st18 st20">Lower is better</text>
		</g>
		<g id="text_38">
			<text transform="matrix(1 0 0 1 251.0456 21.7594)" class="st17 st18 st19">Relative Standard Deviation (%RSD)</text>
			<text transform="matrix(1 0 0 1 246.1972 43.44)" class="st17 st18 st19">difference between sampling methods</text>
		</g>
		<g id="PathCollection_2">
			<g>
				<defs>
					<rect id="SVGID_33_" x="191.2" y="70.8" width="446.4" height="598"/>
				</defs>
				<clipPath id="SVGID_34_">
					<use xlink:href="#SVGID_33_"  style="overflow:visible;"/>
				</clipPath>
				<g class="st27">
					<g>
						<path id="m213363c6ed" class="st28" d="M429.9,652.6c3.1,0,6.1-1.2,8.3-3.5s3.5-5.2,3.5-8.3s-1.2-6.1-3.5-8.3
							s-5.2-3.5-8.3-3.5s-6.1,1.2-8.3,3.5s-3.5,5.2-3.5,8.3s1.2,6.1,3.5,8.3S426.7,652.6,429.9,652.6z"/>
					</g>
					<g>
						<path id="m213363c6ed_1_" class="st28" d="M471.9,613.8c3.1,0,6.1-1.2,8.3-3.5s3.5-5.2,3.5-8.3s-1.2-6.1-3.5-8.3
							s-5.2-3.5-8.3-3.5s-6.1,1.2-8.3,3.5s-3.5,5.2-3.5,8.3s1.2,6.1,3.5,8.3S468.8,613.8,471.9,613.8z"/>
					</g>
					<g>
						<path id="m213363c6ed_2_" class="st28" d="M514.6,575.1c3.1,0,6.1-1.2,8.3-3.5s3.5-5.2,3.5-8.3s-1.2-6.1-3.5-8.3
							s-5.2-3.5-8.3-3.5c-3.1,0-6.1,1.2-8.3,3.5s-3.5,5.2-3.5,8.3s1.2,6.1,3.5,8.3S511.5,575.1,514.6,575.1z"/>
					</g>
					<g>
						<path id="m213363c6ed_3_" class="st28" d="M211.5,536.3c3.1,0,6.1-1.2,8.3-3.5s3.5-5.2,3.5-8.3s-1.2-6.1-3.5-8.3
							s-5.2-3.5-8.3-3.5s-6.1,1.2-8.3,3.5s-3.5,5.2-3.5,8.3s1.2,6.1,3.5,8.3S208.4,536.3,211.5,536.3z"/>
					</g>
					<g>
						<path id="m213363c6ed_4_" class="st28" d="M222.4,497.5c3.1,0,6.1-1.2,8.3-3.5s3.5-5.2,3.5-8.3c0-3.1-1.2-6.1-3.5-8.3
							s-5.2-3.5-8.3-3.5s-6.1,1.2-8.3,3.5s-3.5,5.2-3.5,8.3c0,3.1,1.2,6.1,3.5,8.3S219.3,497.5,222.4,497.5z"/>
					</g>
					<g>
						<path id="m213363c6ed_5_" class="st28" d="M240.5,458.7c3.1,0,6.1-1.2,8.3-3.5s3.5-5.2,3.5-8.3c0-3.1-1.2-6.1-3.5-8.3
							s-5.2-3.5-8.3-3.5s-6.1,1.2-8.3,3.5s-3.5,5.2-3.5,8.3c0,3.1,1.2,6.1,3.5,8.3S237.4,458.7,240.5,458.7z"/>
					</g>
					<g>
						<path id="m213363c6ed_6_" class="st28" d="M242.4,420c3.1,0,6.1-1.2,8.3-3.5s3.5-5.2,3.5-8.3c0-3.1-1.2-6.1-3.5-8.3
							s-5.2-3.5-8.3-3.5s-6.1,1.2-8.3,3.5s-3.5,5.2-3.5,8.3c0,3.1,1.2,6.1,3.5,8.3S239.3,420,242.4,420z"/>
					</g>
					<g>
						<path id="m213363c6ed_7_" class="st28" d="M250.4,381.2c3.1,0,6.1-1.2,8.3-3.5s3.5-5.2,3.5-8.3c0-3.1-1.2-6.1-3.5-8.3
							s-5.2-3.5-8.3-3.5s-6.1,1.2-8.3,3.5s-3.5,5.2-3.5,8.3c0,3.1,1.2,6.1,3.5,8.3S247.2,381.2,250.4,381.2z"/>
					</g>
					<g>
						<path id="m213363c6ed_8_" class="st28" d="M270.9,342.4c3.1,0,6.1-1.2,8.3-3.5s3.5-5.2,3.5-8.3c0-3.1-1.2-6.1-3.5-8.3
							s-5.2-3.5-8.3-3.5s-6.1,1.2-8.3,3.5s-3.5,5.2-3.5,8.3c0,3.1,1.2,6.1,3.5,8.3S267.8,342.4,270.9,342.4z"/>
					</g>
					<g>
						<path id="m213363c6ed_9_" class="st28" d="M280.4,303.7c3.1,0,6.1-1.2,8.3-3.5s3.5-5.2,3.5-8.3c0-3.1-1.2-6.1-3.5-8.3
							s-5.2-3.5-8.3-3.5s-6.1,1.2-8.3,3.5s-3.5,5.2-3.5,8.3c0,3.1,1.2,6.1,3.5,8.3S277.3,303.7,280.4,303.7z"/>
					</g>
					<g>
						<path id="m213363c6ed_10_" class="st28" d="M294.1,264.9c3.1,0,6.1-1.2,8.3-3.5s3.5-5.2,3.5-8.3s-1.2-6.1-3.5-8.3
							c-2.2-2.2-5.2-3.5-8.3-3.5s-6.1,1.2-8.3,3.5c-2.2,2.2-3.5,5.2-3.5,8.3s1.2,6.1,3.5,8.3S291,264.9,294.1,264.9z"/>
					</g>
					<g>
						<path id="m213363c6ed_11_" class="st28" d="M305.6,226.1c3.1,0,6.1-1.2,8.3-3.5s3.5-5.2,3.5-8.3c0-3.1-1.2-6.1-3.5-8.3
							c-2.2-2.2-5.2-3.5-8.3-3.5s-6.1,1.2-8.3,3.5c-2.2,2.2-3.5,5.2-3.5,8.3c0,3.1,1.2,6.1,3.5,8.3S302.5,226.1,305.6,226.1z"/>
					</g>
					<g>
						<path id="m213363c6ed_12_" class="st28" d="M335.6,187.3c3.1,0,6.1-1.2,8.3-3.5s3.5-5.2,3.5-8.3c0-3.1-1.2-6.1-3.5-8.3
							c-2.2-2.2-5.2-3.5-8.3-3.5s-6.1,1.2-8.3,3.5c-2.2,2.2-3.5,5.2-3.5,8.3c0,3.1,1.2,6.1,3.5,8.3S332.4,187.3,335.6,187.3z"/>
					</g>
					<g>
						<path id="m213363c6ed_13_" class="st28" d="M367.9,148.6c3.1,0,6.1-1.2,8.3-3.5s3.5-5.2,3.5-8.3c0-3.1-1.2-6.1-3.5-8.3
							c-2.2-2.2-5.2-3.5-8.3-3.5s-6.1,1.2-8.3,3.5c-2.2,2.2-3.5,5.2-3.5,8.3c0,3.1,1.2,6.1,3.5,8.3S364.8,148.6,367.9,148.6z"/>
					</g>
					<g>
						<path id="m213363c6ed_14_" class="st28" d="M399.9,109.8c3.1,0,6.1-1.2,8.3-3.5c2.2-2.2,3.5-5.2,3.5-8.3s-1.2-6.1-3.5-8.3
							c-2.2-2.2-5.2-3.5-8.3-3.5s-6.1,1.2-8.3,3.5c-2.2,2.2-3.5,5.2-3.5,8.3s1.2,6.1,3.5,8.3C393.7,108.5,396.7,109.8,399.9,109.8z"
							/>
					</g>
				</g>
			</g>
		</g>
	</g>
</g>
</svg>
