<?xml version="1.0" encoding="utf-8" standalone="no"?>
<!DOCTYPE svg PUBLIC "-//W3C//DTD SVG 1.1//EN"
  "http://www.w3.org/Graphics/SVG/1.1/DTD/svg11.dtd">
<svg xmlns:xlink="http://www.w3.org/1999/xlink" width="577.40757pt" height="650.44075pt" viewBox="0 0 577.40757 650.44075" xmlns="http://www.w3.org/2000/svg" version="1.1">
 <metadata>
  <rdf:RDF xmlns:dc="http://purl.org/dc/elements/1.1/" xmlns:cc="http://creativecommons.org/ns#" xmlns:rdf="http://www.w3.org/1999/02/22-rdf-syntax-ns#">
   <cc:Work>
    <dc:type rdf:resource="http://purl.org/dc/dcmitype/StillImage"/>
    <dc:date>2022-06-21T16:26:24.557668</dc:date>
    <dc:format>image/svg+xml</dc:format>
    <dc:creator>
     <cc:Agent>
      <dc:title>Matplotlib v3.5.2, https://matplotlib.org/</dc:title>
     </cc:Agent>
    </dc:creator>
   </cc:Work>
  </rdf:RDF>
 </metadata>
 <defs>
  <style type="text/css">*{stroke-linejoin: round; stroke-linecap: butt}</style>
 </defs>
 <g id="figure_1">
  <g id="patch_1">
   <path d="M 0 650.44075 
L 577.40757 650.44075 
L 577.40757 0 
L 0 0 
L 0 650.44075 
z
" style="fill: none"/>
  </g>
  <g id="axes_1">
   <g id="patch_2">
    <path d="M 111.719375 597.02825 
L 558.119375 597.02825 
L 558.119375 53.42825 
L 111.719375 53.42825 
z
" style="fill: #ffffff"/>
   </g>
   <g id="matplotlib.axis_1">
    <g id="xtick_1">
     <g id="line2d_1">
      <path d="M 111.719375 597.02825 
L 111.719375 53.42825 
" clip-path="url(#p5b170bb9c8)" style="fill: none; stroke: #b0b0b0; stroke-width: 0.8; stroke-linecap: square"/>
     </g>
     <g id="line2d_2"/>
     <g id="text_1">
      <!-- 0 -->
      <g transform="translate(105.356875 615.725125)scale(0.2 -0.2)">
       <defs>
        <path id="DejaVuSans-30" d="M 2034 4250 
Q 1547 4250 1301 3770 
Q 1056 3291 1056 2328 
Q 1056 1369 1301 889 
Q 1547 409 2034 409 
Q 2525 409 2770 889 
Q 3016 1369 3016 2328 
Q 3016 3291 2770 3770 
Q 2525 4250 2034 4250 
z
M 2034 4750 
Q 2819 4750 3233 4129 
Q 3647 3509 3647 2328 
Q 3647 1150 3233 529 
Q 2819 -91 2034 -91 
Q 1250 -91 836 529 
Q 422 1150 422 2328 
Q 422 3509 836 4129 
Q 1250 4750 2034 4750 
z
" transform="scale(0.015625)"/>
       </defs>
       <use xlink:href="#DejaVuSans-30"/>
      </g>
     </g>
    </g>
    <g id="xtick_2">
     <g id="line2d_3">
      <path d="M 175.399831 597.02825 
L 175.399831 53.42825 
" clip-path="url(#p5b170bb9c8)" style="fill: none; stroke: #b0b0b0; stroke-width: 0.8; stroke-linecap: square"/>
     </g>
     <g id="line2d_4"/>
     <g id="text_2">
      <!-- 10 -->
      <g transform="translate(162.674831 615.725125)scale(0.2 -0.2)">
       <defs>
        <path id="DejaVuSans-31" d="M 794 531 
L 1825 531 
L 1825 4091 
L 703 3866 
L 703 4441 
L 1819 4666 
L 2450 4666 
L 2450 531 
L 3481 531 
L 3481 0 
L 794 0 
L 794 531 
z
" transform="scale(0.015625)"/>
       </defs>
       <use xlink:href="#DejaVuSans-31"/>
       <use xlink:href="#DejaVuSans-30" x="63.623047"/>
      </g>
     </g>
    </g>
    <g id="xtick_3">
     <g id="line2d_5">
      <path d="M 239.080288 597.02825 
L 239.080288 53.42825 
" clip-path="url(#p5b170bb9c8)" style="fill: none; stroke: #b0b0b0; stroke-width: 0.8; stroke-linecap: square"/>
     </g>
     <g id="line2d_6"/>
     <g id="text_3">
      <!-- 20 -->
      <g transform="translate(226.355288 615.725125)scale(0.2 -0.2)">
       <defs>
        <path id="DejaVuSans-32" d="M 1228 531 
L 3431 531 
L 3431 0 
L 469 0 
L 469 531 
Q 828 903 1448 1529 
Q 2069 2156 2228 2338 
Q 2531 2678 2651 2914 
Q 2772 3150 2772 3378 
Q 2772 3750 2511 3984 
Q 2250 4219 1831 4219 
Q 1534 4219 1204 4116 
Q 875 4013 500 3803 
L 500 4441 
Q 881 4594 1212 4672 
Q 1544 4750 1819 4750 
Q 2544 4750 2975 4387 
Q 3406 4025 3406 3419 
Q 3406 3131 3298 2873 
Q 3191 2616 2906 2266 
Q 2828 2175 2409 1742 
Q 1991 1309 1228 531 
z
" transform="scale(0.015625)"/>
       </defs>
       <use xlink:href="#DejaVuSans-32"/>
       <use xlink:href="#DejaVuSans-30" x="63.623047"/>
      </g>
     </g>
    </g>
    <g id="xtick_4">
     <g id="line2d_7">
      <path d="M 302.760744 597.02825 
L 302.760744 53.42825 
" clip-path="url(#p5b170bb9c8)" style="fill: none; stroke: #b0b0b0; stroke-width: 0.8; stroke-linecap: square"/>
     </g>
     <g id="line2d_8"/>
     <g id="text_4">
      <!-- 30 -->
      <g transform="translate(290.035744 615.725125)scale(0.2 -0.2)">
       <defs>
        <path id="DejaVuSans-33" d="M 2597 2516 
Q 3050 2419 3304 2112 
Q 3559 1806 3559 1356 
Q 3559 666 3084 287 
Q 2609 -91 1734 -91 
Q 1441 -91 1130 -33 
Q 819 25 488 141 
L 488 750 
Q 750 597 1062 519 
Q 1375 441 1716 441 
Q 2309 441 2620 675 
Q 2931 909 2931 1356 
Q 2931 1769 2642 2001 
Q 2353 2234 1838 2234 
L 1294 2234 
L 1294 2753 
L 1863 2753 
Q 2328 2753 2575 2939 
Q 2822 3125 2822 3475 
Q 2822 3834 2567 4026 
Q 2313 4219 1838 4219 
Q 1578 4219 1281 4162 
Q 984 4106 628 3988 
L 628 4550 
Q 988 4650 1302 4700 
Q 1616 4750 1894 4750 
Q 2613 4750 3031 4423 
Q 3450 4097 3450 3541 
Q 3450 3153 3228 2886 
Q 3006 2619 2597 2516 
z
" transform="scale(0.015625)"/>
       </defs>
       <use xlink:href="#DejaVuSans-33"/>
       <use xlink:href="#DejaVuSans-30" x="63.623047"/>
      </g>
     </g>
    </g>
    <g id="xtick_5">
     <g id="line2d_9">
      <path d="M 366.441201 597.02825 
L 366.441201 53.42825 
" clip-path="url(#p5b170bb9c8)" style="fill: none; stroke: #b0b0b0; stroke-width: 0.8; stroke-linecap: square"/>
     </g>
     <g id="line2d_10"/>
     <g id="text_5">
      <!-- 40 -->
      <g transform="translate(353.716201 615.725125)scale(0.2 -0.2)">
       <defs>
        <path id="DejaVuSans-34" d="M 2419 4116 
L 825 1625 
L 2419 1625 
L 2419 4116 
z
M 2253 4666 
L 3047 4666 
L 3047 1625 
L 3713 1625 
L 3713 1100 
L 3047 1100 
L 3047 0 
L 2419 0 
L 2419 1100 
L 313 1100 
L 313 1709 
L 2253 4666 
z
" transform="scale(0.015625)"/>
       </defs>
       <use xlink:href="#DejaVuSans-34"/>
       <use xlink:href="#DejaVuSans-30" x="63.623047"/>
      </g>
     </g>
    </g>
    <g id="xtick_6">
     <g id="line2d_11">
      <path d="M 430.121657 597.02825 
L 430.121657 53.42825 
" clip-path="url(#p5b170bb9c8)" style="fill: none; stroke: #b0b0b0; stroke-width: 0.8; stroke-linecap: square"/>
     </g>
     <g id="line2d_12"/>
     <g id="text_6">
      <!-- 50 -->
      <g transform="translate(417.396657 615.725125)scale(0.2 -0.2)">
       <defs>
        <path id="DejaVuSans-35" d="M 691 4666 
L 3169 4666 
L 3169 4134 
L 1269 4134 
L 1269 2991 
Q 1406 3038 1543 3061 
Q 1681 3084 1819 3084 
Q 2600 3084 3056 2656 
Q 3513 2228 3513 1497 
Q 3513 744 3044 326 
Q 2575 -91 1722 -91 
Q 1428 -91 1123 -41 
Q 819 9 494 109 
L 494 744 
Q 775 591 1075 516 
Q 1375 441 1709 441 
Q 2250 441 2565 725 
Q 2881 1009 2881 1497 
Q 2881 1984 2565 2268 
Q 2250 2553 1709 2553 
Q 1456 2553 1204 2497 
Q 953 2441 691 2322 
L 691 4666 
z
" transform="scale(0.015625)"/>
       </defs>
       <use xlink:href="#DejaVuSans-35"/>
       <use xlink:href="#DejaVuSans-30" x="63.623047"/>
      </g>
     </g>
    </g>
    <g id="xtick_7">
     <g id="line2d_13">
      <path d="M 493.802114 597.02825 
L 493.802114 53.42825 
" clip-path="url(#p5b170bb9c8)" style="fill: none; stroke: #b0b0b0; stroke-width: 0.8; stroke-linecap: square"/>
     </g>
     <g id="line2d_14"/>
     <g id="text_7">
      <!-- 60 -->
      <g transform="translate(481.077114 615.725125)scale(0.2 -0.2)">
       <defs>
        <path id="DejaVuSans-36" d="M 2113 2584 
Q 1688 2584 1439 2293 
Q 1191 2003 1191 1497 
Q 1191 994 1439 701 
Q 1688 409 2113 409 
Q 2538 409 2786 701 
Q 3034 994 3034 1497 
Q 3034 2003 2786 2293 
Q 2538 2584 2113 2584 
z
M 3366 4563 
L 3366 3988 
Q 3128 4100 2886 4159 
Q 2644 4219 2406 4219 
Q 1781 4219 1451 3797 
Q 1122 3375 1075 2522 
Q 1259 2794 1537 2939 
Q 1816 3084 2150 3084 
Q 2853 3084 3261 2657 
Q 3669 2231 3669 1497 
Q 3669 778 3244 343 
Q 2819 -91 2113 -91 
Q 1303 -91 875 529 
Q 447 1150 447 2328 
Q 447 3434 972 4092 
Q 1497 4750 2381 4750 
Q 2619 4750 2861 4703 
Q 3103 4656 3366 4563 
z
" transform="scale(0.015625)"/>
       </defs>
       <use xlink:href="#DejaVuSans-36"/>
       <use xlink:href="#DejaVuSans-30" x="63.623047"/>
      </g>
     </g>
    </g>
    <g id="xtick_8">
     <g id="line2d_15">
      <path d="M 557.48257 597.02825 
L 557.48257 53.42825 
" clip-path="url(#p5b170bb9c8)" style="fill: none; stroke: #b0b0b0; stroke-width: 0.8; stroke-linecap: square"/>
     </g>
     <g id="line2d_16"/>
     <g id="text_8">
      <!-- 70 -->
      <g transform="translate(544.75757 615.725125)scale(0.2 -0.2)">
       <defs>
        <path id="DejaVuSans-37" d="M 525 4666 
L 3525 4666 
L 3525 4397 
L 1831 0 
L 1172 0 
L 2766 4134 
L 525 4134 
L 525 4666 
z
" transform="scale(0.015625)"/>
       </defs>
       <use xlink:href="#DejaVuSans-37"/>
       <use xlink:href="#DejaVuSans-30" x="63.623047"/>
      </g>
     </g>
    </g>
    <g id="text_9">
     <!-- Model absolute % error -->
     <g transform="translate(218.658437 639.081375)scale(0.2 -0.2)">
      <defs>
       <path id="DejaVuSans-4d" d="M 628 4666 
L 1569 4666 
L 2759 1491 
L 3956 4666 
L 4897 4666 
L 4897 0 
L 4281 0 
L 4281 4097 
L 3078 897 
L 2444 897 
L 1241 4097 
L 1241 0 
L 628 0 
L 628 4666 
z
" transform="scale(0.015625)"/>
       <path id="DejaVuSans-6f" d="M 1959 3097 
Q 1497 3097 1228 2736 
Q 959 2375 959 1747 
Q 959 1119 1226 758 
Q 1494 397 1959 397 
Q 2419 397 2687 759 
Q 2956 1122 2956 1747 
Q 2956 2369 2687 2733 
Q 2419 3097 1959 3097 
z
M 1959 3584 
Q 2709 3584 3137 3096 
Q 3566 2609 3566 1747 
Q 3566 888 3137 398 
Q 2709 -91 1959 -91 
Q 1206 -91 779 398 
Q 353 888 353 1747 
Q 353 2609 779 3096 
Q 1206 3584 1959 3584 
z
" transform="scale(0.015625)"/>
       <path id="DejaVuSans-64" d="M 2906 2969 
L 2906 4863 
L 3481 4863 
L 3481 0 
L 2906 0 
L 2906 525 
Q 2725 213 2448 61 
Q 2172 -91 1784 -91 
Q 1150 -91 751 415 
Q 353 922 353 1747 
Q 353 2572 751 3078 
Q 1150 3584 1784 3584 
Q 2172 3584 2448 3432 
Q 2725 3281 2906 2969 
z
M 947 1747 
Q 947 1113 1208 752 
Q 1469 391 1925 391 
Q 2381 391 2643 752 
Q 2906 1113 2906 1747 
Q 2906 2381 2643 2742 
Q 2381 3103 1925 3103 
Q 1469 3103 1208 2742 
Q 947 2381 947 1747 
z
" transform="scale(0.015625)"/>
       <path id="DejaVuSans-65" d="M 3597 1894 
L 3597 1613 
L 953 1613 
Q 991 1019 1311 708 
Q 1631 397 2203 397 
Q 2534 397 2845 478 
Q 3156 559 3463 722 
L 3463 178 
Q 3153 47 2828 -22 
Q 2503 -91 2169 -91 
Q 1331 -91 842 396 
Q 353 884 353 1716 
Q 353 2575 817 3079 
Q 1281 3584 2069 3584 
Q 2775 3584 3186 3129 
Q 3597 2675 3597 1894 
z
M 3022 2063 
Q 3016 2534 2758 2815 
Q 2500 3097 2075 3097 
Q 1594 3097 1305 2825 
Q 1016 2553 972 2059 
L 3022 2063 
z
" transform="scale(0.015625)"/>
       <path id="DejaVuSans-6c" d="M 603 4863 
L 1178 4863 
L 1178 0 
L 603 0 
L 603 4863 
z
" transform="scale(0.015625)"/>
       <path id="DejaVuSans-20" transform="scale(0.015625)"/>
       <path id="DejaVuSans-61" d="M 2194 1759 
Q 1497 1759 1228 1600 
Q 959 1441 959 1056 
Q 959 750 1161 570 
Q 1363 391 1709 391 
Q 2188 391 2477 730 
Q 2766 1069 2766 1631 
L 2766 1759 
L 2194 1759 
z
M 3341 1997 
L 3341 0 
L 2766 0 
L 2766 531 
Q 2569 213 2275 61 
Q 1981 -91 1556 -91 
Q 1019 -91 701 211 
Q 384 513 384 1019 
Q 384 1609 779 1909 
Q 1175 2209 1959 2209 
L 2766 2209 
L 2766 2266 
Q 2766 2663 2505 2880 
Q 2244 3097 1772 3097 
Q 1472 3097 1187 3025 
Q 903 2953 641 2809 
L 641 3341 
Q 956 3463 1253 3523 
Q 1550 3584 1831 3584 
Q 2591 3584 2966 3190 
Q 3341 2797 3341 1997 
z
" transform="scale(0.015625)"/>
       <path id="DejaVuSans-62" d="M 3116 1747 
Q 3116 2381 2855 2742 
Q 2594 3103 2138 3103 
Q 1681 3103 1420 2742 
Q 1159 2381 1159 1747 
Q 1159 1113 1420 752 
Q 1681 391 2138 391 
Q 2594 391 2855 752 
Q 3116 1113 3116 1747 
z
M 1159 2969 
Q 1341 3281 1617 3432 
Q 1894 3584 2278 3584 
Q 2916 3584 3314 3078 
Q 3713 2572 3713 1747 
Q 3713 922 3314 415 
Q 2916 -91 2278 -91 
Q 1894 -91 1617 61 
Q 1341 213 1159 525 
L 1159 0 
L 581 0 
L 581 4863 
L 1159 4863 
L 1159 2969 
z
" transform="scale(0.015625)"/>
       <path id="DejaVuSans-73" d="M 2834 3397 
L 2834 2853 
Q 2591 2978 2328 3040 
Q 2066 3103 1784 3103 
Q 1356 3103 1142 2972 
Q 928 2841 928 2578 
Q 928 2378 1081 2264 
Q 1234 2150 1697 2047 
L 1894 2003 
Q 2506 1872 2764 1633 
Q 3022 1394 3022 966 
Q 3022 478 2636 193 
Q 2250 -91 1575 -91 
Q 1294 -91 989 -36 
Q 684 19 347 128 
L 347 722 
Q 666 556 975 473 
Q 1284 391 1588 391 
Q 1994 391 2212 530 
Q 2431 669 2431 922 
Q 2431 1156 2273 1281 
Q 2116 1406 1581 1522 
L 1381 1569 
Q 847 1681 609 1914 
Q 372 2147 372 2553 
Q 372 3047 722 3315 
Q 1072 3584 1716 3584 
Q 2034 3584 2315 3537 
Q 2597 3491 2834 3397 
z
" transform="scale(0.015625)"/>
       <path id="DejaVuSans-75" d="M 544 1381 
L 544 3500 
L 1119 3500 
L 1119 1403 
Q 1119 906 1312 657 
Q 1506 409 1894 409 
Q 2359 409 2629 706 
Q 2900 1003 2900 1516 
L 2900 3500 
L 3475 3500 
L 3475 0 
L 2900 0 
L 2900 538 
Q 2691 219 2414 64 
Q 2138 -91 1772 -91 
Q 1169 -91 856 284 
Q 544 659 544 1381 
z
M 1991 3584 
L 1991 3584 
z
" transform="scale(0.015625)"/>
       <path id="DejaVuSans-74" d="M 1172 4494 
L 1172 3500 
L 2356 3500 
L 2356 3053 
L 1172 3053 
L 1172 1153 
Q 1172 725 1289 603 
Q 1406 481 1766 481 
L 2356 481 
L 2356 0 
L 1766 0 
Q 1100 0 847 248 
Q 594 497 594 1153 
L 594 3053 
L 172 3053 
L 172 3500 
L 594 3500 
L 594 4494 
L 1172 4494 
z
" transform="scale(0.015625)"/>
       <path id="DejaVuSans-25" d="M 4653 2053 
Q 4381 2053 4226 1822 
Q 4072 1591 4072 1178 
Q 4072 772 4226 539 
Q 4381 306 4653 306 
Q 4919 306 5073 539 
Q 5228 772 5228 1178 
Q 5228 1588 5073 1820 
Q 4919 2053 4653 2053 
z
M 4653 2450 
Q 5147 2450 5437 2106 
Q 5728 1763 5728 1178 
Q 5728 594 5436 251 
Q 5144 -91 4653 -91 
Q 4153 -91 3862 251 
Q 3572 594 3572 1178 
Q 3572 1766 3864 2108 
Q 4156 2450 4653 2450 
z
M 1428 4353 
Q 1159 4353 1004 4120 
Q 850 3888 850 3481 
Q 850 3069 1003 2837 
Q 1156 2606 1428 2606 
Q 1700 2606 1854 2837 
Q 2009 3069 2009 3481 
Q 2009 3884 1853 4118 
Q 1697 4353 1428 4353 
z
M 4250 4750 
L 4750 4750 
L 1831 -91 
L 1331 -91 
L 4250 4750 
z
M 1428 4750 
Q 1922 4750 2215 4408 
Q 2509 4066 2509 3481 
Q 2509 2891 2217 2550 
Q 1925 2209 1428 2209 
Q 931 2209 642 2551 
Q 353 2894 353 3481 
Q 353 4063 643 4406 
Q 934 4750 1428 4750 
z
" transform="scale(0.015625)"/>
       <path id="DejaVuSans-72" d="M 2631 2963 
Q 2534 3019 2420 3045 
Q 2306 3072 2169 3072 
Q 1681 3072 1420 2755 
Q 1159 2438 1159 1844 
L 1159 0 
L 581 0 
L 581 3500 
L 1159 3500 
L 1159 2956 
Q 1341 3275 1631 3429 
Q 1922 3584 2338 3584 
Q 2397 3584 2469 3576 
Q 2541 3569 2628 3553 
L 2631 2963 
z
" transform="scale(0.015625)"/>
      </defs>
      <use xlink:href="#DejaVuSans-4d"/>
      <use xlink:href="#DejaVuSans-6f" x="86.279297"/>
      <use xlink:href="#DejaVuSans-64" x="147.460938"/>
      <use xlink:href="#DejaVuSans-65" x="210.9375"/>
      <use xlink:href="#DejaVuSans-6c" x="272.460938"/>
      <use xlink:href="#DejaVuSans-20" x="300.244141"/>
      <use xlink:href="#DejaVuSans-61" x="332.03125"/>
      <use xlink:href="#DejaVuSans-62" x="393.310547"/>
      <use xlink:href="#DejaVuSans-73" x="456.787109"/>
      <use xlink:href="#DejaVuSans-6f" x="508.886719"/>
      <use xlink:href="#DejaVuSans-6c" x="570.068359"/>
      <use xlink:href="#DejaVuSans-75" x="597.851562"/>
      <use xlink:href="#DejaVuSans-74" x="661.230469"/>
      <use xlink:href="#DejaVuSans-65" x="700.439453"/>
      <use xlink:href="#DejaVuSans-20" x="761.962891"/>
      <use xlink:href="#DejaVuSans-25" x="793.75"/>
      <use xlink:href="#DejaVuSans-20" x="888.769531"/>
      <use xlink:href="#DejaVuSans-65" x="920.556641"/>
      <use xlink:href="#DejaVuSans-72" x="982.080078"/>
      <use xlink:href="#DejaVuSans-72" x="1021.443359"/>
      <use xlink:href="#DejaVuSans-6f" x="1060.306641"/>
      <use xlink:href="#DejaVuSans-72" x="1121.488281"/>
     </g>
    </g>
   </g>
   <g id="matplotlib.axis_2">
    <g id="ytick_1">
     <g id="line2d_17"/>
     <g id="text_10">
      <!-- LASSO (L1) -->
      <g transform="translate(7.2 127.495862)scale(0.18 -0.18)">
       <defs>
        <path id="DejaVuSans-4c" d="M 628 4666 
L 1259 4666 
L 1259 531 
L 3531 531 
L 3531 0 
L 628 0 
L 628 4666 
z
" transform="scale(0.015625)"/>
        <path id="DejaVuSans-41" d="M 2188 4044 
L 1331 1722 
L 3047 1722 
L 2188 4044 
z
M 1831 4666 
L 2547 4666 
L 4325 0 
L 3669 0 
L 3244 1197 
L 1141 1197 
L 716 0 
L 50 0 
L 1831 4666 
z
" transform="scale(0.015625)"/>
        <path id="DejaVuSans-53" d="M 3425 4513 
L 3425 3897 
Q 3066 4069 2747 4153 
Q 2428 4238 2131 4238 
Q 1616 4238 1336 4038 
Q 1056 3838 1056 3469 
Q 1056 3159 1242 3001 
Q 1428 2844 1947 2747 
L 2328 2669 
Q 3034 2534 3370 2195 
Q 3706 1856 3706 1288 
Q 3706 609 3251 259 
Q 2797 -91 1919 -91 
Q 1588 -91 1214 -16 
Q 841 59 441 206 
L 441 856 
Q 825 641 1194 531 
Q 1563 422 1919 422 
Q 2459 422 2753 634 
Q 3047 847 3047 1241 
Q 3047 1584 2836 1778 
Q 2625 1972 2144 2069 
L 1759 2144 
Q 1053 2284 737 2584 
Q 422 2884 422 3419 
Q 422 4038 858 4394 
Q 1294 4750 2059 4750 
Q 2388 4750 2728 4690 
Q 3069 4631 3425 4513 
z
" transform="scale(0.015625)"/>
        <path id="DejaVuSans-4f" d="M 2522 4238 
Q 1834 4238 1429 3725 
Q 1025 3213 1025 2328 
Q 1025 1447 1429 934 
Q 1834 422 2522 422 
Q 3209 422 3611 934 
Q 4013 1447 4013 2328 
Q 4013 3213 3611 3725 
Q 3209 4238 2522 4238 
z
M 2522 4750 
Q 3503 4750 4090 4092 
Q 4678 3434 4678 2328 
Q 4678 1225 4090 567 
Q 3503 -91 2522 -91 
Q 1538 -91 948 565 
Q 359 1222 359 2328 
Q 359 3434 948 4092 
Q 1538 4750 2522 4750 
z
" transform="scale(0.015625)"/>
        <path id="DejaVuSans-28" d="M 1984 4856 
Q 1566 4138 1362 3434 
Q 1159 2731 1159 2009 
Q 1159 1288 1364 580 
Q 1569 -128 1984 -844 
L 1484 -844 
Q 1016 -109 783 600 
Q 550 1309 550 2009 
Q 550 2706 781 3412 
Q 1013 4119 1484 4856 
L 1984 4856 
z
" transform="scale(0.015625)"/>
        <path id="DejaVuSans-29" d="M 513 4856 
L 1013 4856 
Q 1481 4119 1714 3412 
Q 1947 2706 1947 2009 
Q 1947 1309 1714 600 
Q 1481 -109 1013 -844 
L 513 -844 
Q 928 -128 1133 580 
Q 1338 1288 1338 2009 
Q 1338 2731 1133 3434 
Q 928 4138 513 4856 
z
" transform="scale(0.015625)"/>
       </defs>
       <use xlink:href="#DejaVuSans-4c"/>
       <use xlink:href="#DejaVuSans-41" x="57.962891"/>
       <use xlink:href="#DejaVuSans-53" x="126.371094"/>
       <use xlink:href="#DejaVuSans-53" x="189.847656"/>
       <use xlink:href="#DejaVuSans-4f" x="253.324219"/>
       <use xlink:href="#DejaVuSans-20" x="332.035156"/>
       <use xlink:href="#DejaVuSans-28" x="363.822266"/>
       <use xlink:href="#DejaVuSans-4c" x="402.835938"/>
       <use xlink:href="#DejaVuSans-31" x="458.548828"/>
       <use xlink:href="#DejaVuSans-29" x="522.171875"/>
      </g>
      <!-- Linear -->
      <g transform="translate(52.275938 147.651924)scale(0.18 -0.18)">
       <defs>
        <path id="DejaVuSans-69" d="M 603 3500 
L 1178 3500 
L 1178 0 
L 603 0 
L 603 3500 
z
M 603 4863 
L 1178 4863 
L 1178 4134 
L 603 4134 
L 603 4863 
z
" transform="scale(0.015625)"/>
        <path id="DejaVuSans-6e" d="M 3513 2113 
L 3513 0 
L 2938 0 
L 2938 2094 
Q 2938 2591 2744 2837 
Q 2550 3084 2163 3084 
Q 1697 3084 1428 2787 
Q 1159 2491 1159 1978 
L 1159 0 
L 581 0 
L 581 3500 
L 1159 3500 
L 1159 2956 
Q 1366 3272 1645 3428 
Q 1925 3584 2291 3584 
Q 2894 3584 3203 3211 
Q 3513 2838 3513 2113 
z
" transform="scale(0.015625)"/>
       </defs>
       <use xlink:href="#DejaVuSans-4c"/>
       <use xlink:href="#DejaVuSans-69" x="55.712891"/>
       <use xlink:href="#DejaVuSans-6e" x="83.496094"/>
       <use xlink:href="#DejaVuSans-65" x="146.875"/>
       <use xlink:href="#DejaVuSans-61" x="208.398438"/>
       <use xlink:href="#DejaVuSans-72" x="269.677734"/>
      </g>
      <!-- Regression -->
      <g transform="translate(9.773438 167.807987)scale(0.18 -0.18)">
       <defs>
        <path id="DejaVuSans-52" d="M 2841 2188 
Q 3044 2119 3236 1894 
Q 3428 1669 3622 1275 
L 4263 0 
L 3584 0 
L 2988 1197 
Q 2756 1666 2539 1819 
Q 2322 1972 1947 1972 
L 1259 1972 
L 1259 0 
L 628 0 
L 628 4666 
L 2053 4666 
Q 2853 4666 3247 4331 
Q 3641 3997 3641 3322 
Q 3641 2881 3436 2590 
Q 3231 2300 2841 2188 
z
M 1259 4147 
L 1259 2491 
L 2053 2491 
Q 2509 2491 2742 2702 
Q 2975 2913 2975 3322 
Q 2975 3731 2742 3939 
Q 2509 4147 2053 4147 
L 1259 4147 
z
" transform="scale(0.015625)"/>
        <path id="DejaVuSans-67" d="M 2906 1791 
Q 2906 2416 2648 2759 
Q 2391 3103 1925 3103 
Q 1463 3103 1205 2759 
Q 947 2416 947 1791 
Q 947 1169 1205 825 
Q 1463 481 1925 481 
Q 2391 481 2648 825 
Q 2906 1169 2906 1791 
z
M 3481 434 
Q 3481 -459 3084 -895 
Q 2688 -1331 1869 -1331 
Q 1566 -1331 1297 -1286 
Q 1028 -1241 775 -1147 
L 775 -588 
Q 1028 -725 1275 -790 
Q 1522 -856 1778 -856 
Q 2344 -856 2625 -561 
Q 2906 -266 2906 331 
L 2906 616 
Q 2728 306 2450 153 
Q 2172 0 1784 0 
Q 1141 0 747 490 
Q 353 981 353 1791 
Q 353 2603 747 3093 
Q 1141 3584 1784 3584 
Q 2172 3584 2450 3431 
Q 2728 3278 2906 2969 
L 2906 3500 
L 3481 3500 
L 3481 434 
z
" transform="scale(0.015625)"/>
       </defs>
       <use xlink:href="#DejaVuSans-52"/>
       <use xlink:href="#DejaVuSans-65" x="64.982422"/>
       <use xlink:href="#DejaVuSans-67" x="126.505859"/>
       <use xlink:href="#DejaVuSans-72" x="189.982422"/>
       <use xlink:href="#DejaVuSans-65" x="228.845703"/>
       <use xlink:href="#DejaVuSans-73" x="290.369141"/>
       <use xlink:href="#DejaVuSans-73" x="342.46875"/>
       <use xlink:href="#DejaVuSans-69" x="394.568359"/>
       <use xlink:href="#DejaVuSans-6f" x="422.351562"/>
       <use xlink:href="#DejaVuSans-6e" x="483.533203"/>
      </g>
     </g>
    </g>
    <g id="ytick_2">
     <g id="line2d_18"/>
     <g id="text_11">
      <!-- Random -->
      <g transform="translate(33.705 323.356531)scale(0.18 -0.18)">
       <defs>
        <path id="DejaVuSans-6d" d="M 3328 2828 
Q 3544 3216 3844 3400 
Q 4144 3584 4550 3584 
Q 5097 3584 5394 3201 
Q 5691 2819 5691 2113 
L 5691 0 
L 5113 0 
L 5113 2094 
Q 5113 2597 4934 2840 
Q 4756 3084 4391 3084 
Q 3944 3084 3684 2787 
Q 3425 2491 3425 1978 
L 3425 0 
L 2847 0 
L 2847 2094 
Q 2847 2600 2669 2842 
Q 2491 3084 2119 3084 
Q 1678 3084 1418 2786 
Q 1159 2488 1159 1978 
L 1159 0 
L 581 0 
L 581 3500 
L 1159 3500 
L 1159 2956 
Q 1356 3278 1631 3431 
Q 1906 3584 2284 3584 
Q 2666 3584 2933 3390 
Q 3200 3197 3328 2828 
z
" transform="scale(0.015625)"/>
       </defs>
       <use xlink:href="#DejaVuSans-52"/>
       <use xlink:href="#DejaVuSans-61" x="67.232422"/>
       <use xlink:href="#DejaVuSans-6e" x="128.511719"/>
       <use xlink:href="#DejaVuSans-64" x="191.890625"/>
       <use xlink:href="#DejaVuSans-6f" x="255.367188"/>
       <use xlink:href="#DejaVuSans-6d" x="316.548828"/>
      </g>
      <!-- Forest -->
      <g transform="translate(53.001562 343.512594)scale(0.18 -0.18)">
       <defs>
        <path id="DejaVuSans-46" d="M 628 4666 
L 3309 4666 
L 3309 4134 
L 1259 4134 
L 1259 2759 
L 3109 2759 
L 3109 2228 
L 1259 2228 
L 1259 0 
L 628 0 
L 628 4666 
z
" transform="scale(0.015625)"/>
       </defs>
       <use xlink:href="#DejaVuSans-46"/>
       <use xlink:href="#DejaVuSans-6f" x="53.894531"/>
       <use xlink:href="#DejaVuSans-72" x="115.076172"/>
       <use xlink:href="#DejaVuSans-65" x="153.939453"/>
       <use xlink:href="#DejaVuSans-73" x="215.462891"/>
       <use xlink:href="#DejaVuSans-74" x="267.5625"/>
      </g>
     </g>
    </g>
    <g id="ytick_3">
     <g id="line2d_19"/>
     <g id="text_12">
      <!-- Support -->
      <g transform="translate(37.060313 499.061138)scale(0.18 -0.18)">
       <defs>
        <path id="DejaVuSans-70" d="M 1159 525 
L 1159 -1331 
L 581 -1331 
L 581 3500 
L 1159 3500 
L 1159 2969 
Q 1341 3281 1617 3432 
Q 1894 3584 2278 3584 
Q 2916 3584 3314 3078 
Q 3713 2572 3713 1747 
Q 3713 922 3314 415 
Q 2916 -91 2278 -91 
Q 1894 -91 1617 61 
Q 1341 213 1159 525 
z
M 3116 1747 
Q 3116 2381 2855 2742 
Q 2594 3103 2138 3103 
Q 1681 3103 1420 2742 
Q 1159 2381 1159 1747 
Q 1159 1113 1420 752 
Q 1681 391 2138 391 
Q 2594 391 2855 752 
Q 3116 1113 3116 1747 
z
" transform="scale(0.015625)"/>
       </defs>
       <use xlink:href="#DejaVuSans-53"/>
       <use xlink:href="#DejaVuSans-75" x="63.476562"/>
       <use xlink:href="#DejaVuSans-70" x="126.855469"/>
       <use xlink:href="#DejaVuSans-70" x="190.332031"/>
       <use xlink:href="#DejaVuSans-6f" x="253.808594"/>
       <use xlink:href="#DejaVuSans-72" x="314.990234"/>
       <use xlink:href="#DejaVuSans-74" x="356.103516"/>
      </g>
      <!-- Vector -->
      <g transform="translate(50.858438 519.217201)scale(0.18 -0.18)">
       <defs>
        <path id="DejaVuSans-56" d="M 1831 0 
L 50 4666 
L 709 4666 
L 2188 738 
L 3669 4666 
L 4325 4666 
L 2547 0 
L 1831 0 
z
" transform="scale(0.015625)"/>
        <path id="DejaVuSans-63" d="M 3122 3366 
L 3122 2828 
Q 2878 2963 2633 3030 
Q 2388 3097 2138 3097 
Q 1578 3097 1268 2742 
Q 959 2388 959 1747 
Q 959 1106 1268 751 
Q 1578 397 2138 397 
Q 2388 397 2633 464 
Q 2878 531 3122 666 
L 3122 134 
Q 2881 22 2623 -34 
Q 2366 -91 2075 -91 
Q 1284 -91 818 406 
Q 353 903 353 1747 
Q 353 2603 823 3093 
Q 1294 3584 2113 3584 
Q 2378 3584 2631 3529 
Q 2884 3475 3122 3366 
z
" transform="scale(0.015625)"/>
       </defs>
       <use xlink:href="#DejaVuSans-56"/>
       <use xlink:href="#DejaVuSans-65" x="60.658203"/>
       <use xlink:href="#DejaVuSans-63" x="122.181641"/>
       <use xlink:href="#DejaVuSans-74" x="177.162109"/>
       <use xlink:href="#DejaVuSans-6f" x="216.371094"/>
       <use xlink:href="#DejaVuSans-72" x="277.552734"/>
      </g>
      <!-- Machine -->
      <g transform="translate(32.869687 539.373263)scale(0.18 -0.18)">
       <defs>
        <path id="DejaVuSans-68" d="M 3513 2113 
L 3513 0 
L 2938 0 
L 2938 2094 
Q 2938 2591 2744 2837 
Q 2550 3084 2163 3084 
Q 1697 3084 1428 2787 
Q 1159 2491 1159 1978 
L 1159 0 
L 581 0 
L 581 4863 
L 1159 4863 
L 1159 2956 
Q 1366 3272 1645 3428 
Q 1925 3584 2291 3584 
Q 2894 3584 3203 3211 
Q 3513 2838 3513 2113 
z
" transform="scale(0.015625)"/>
       </defs>
       <use xlink:href="#DejaVuSans-4d"/>
       <use xlink:href="#DejaVuSans-61" x="86.279297"/>
       <use xlink:href="#DejaVuSans-63" x="147.558594"/>
       <use xlink:href="#DejaVuSans-68" x="202.539062"/>
       <use xlink:href="#DejaVuSans-69" x="265.917969"/>
       <use xlink:href="#DejaVuSans-6e" x="293.701172"/>
       <use xlink:href="#DejaVuSans-65" x="357.080078"/>
      </g>
     </g>
    </g>
   </g>
   <g id="patch_3">
    <path d="M 111.719375 139.445612 
L 111.719375 139.445612 
L 111.719375 139.445612 
L 111.719375 139.445612 
z
" clip-path="url(#p5b170bb9c8)" style="fill: #c38820; stroke: #363636; stroke-width: 0.75; stroke-linejoin: miter"/>
   </g>
   <g id="PolyCollection_1">
    <defs>
     <path id="m71b297a4b1" d="M 119.432327 -510.995138 
L 119.432327 -512.312814 
L 123.686599 -512.71358 
L 127.940871 -513.218016 
L 132.195142 -513.854902 
L 136.449414 -514.659546 
L 140.703686 -515.672362 
L 144.957957 -516.936033 
L 149.212229 -518.491475 
L 153.466501 -520.373126 
L 157.720772 -522.604381 
L 161.975044 -525.193941 
L 166.229316 -528.133642 
L 170.483587 -531.397849 
L 174.737859 -534.944051 
L 178.992131 -538.714169 
L 183.246402 -542.636265 
L 187.500674 -546.62681 
L 191.754946 -550.593956 
L 196.009217 -554.442101 
L 200.263489 -558.077313 
L 204.517761 -561.412392 
L 208.772032 -564.369956 
L 213.026304 -566.882595 
L 217.280576 -568.890598 
L 221.534847 -570.33943 
L 225.789119 -571.18005 
L 230.043391 -571.374496 
L 234.297663 -570.907074 
L 238.551934 -569.798597 
L 242.806206 -568.11883 
L 247.060478 -565.991634 
L 251.314749 -563.588774 
L 255.569021 -561.111557 
L 259.823293 -558.763295 
L 264.077564 -556.718689 
L 268.331836 -555.097417 
L 272.586108 -553.948183 
L 276.840379 -553.246518 
L 281.094651 -552.90583 
L 285.348923 -552.797871 
L 289.603194 -552.776987 
L 293.857466 -552.702642 
L 298.111738 -552.456417 
L 302.366009 -551.952078 
L 306.620281 -551.139291 
L 310.874553 -550.002586 
L 315.128824 -548.557072 
L 319.383096 -546.841827 
L 323.637368 -544.911434 
L 327.891639 -542.826328 
L 332.145911 -540.643289 
L 336.400183 -538.408107 
L 340.654454 -536.152425 
L 344.908726 -533.895778 
L 349.162998 -531.652118 
L 353.417269 -529.438376 
L 357.671541 -527.281666 
L 361.925813 -525.22213 
L 366.180084 -523.309966 
L 370.434356 -521.597342 
L 374.688628 -520.127701 
L 378.942899 -518.925852 
L 383.197171 -517.991829 
L 387.451443 -517.300202 
L 391.705714 -516.804806 
L 395.959986 -516.447367 
L 400.214258 -516.167721 
L 404.468529 -515.913246 
L 408.722801 -515.645686 
L 412.977073 -515.344439 
L 417.231344 -515.006235 
L 421.485616 -514.64187 
L 425.739888 -514.271075 
L 429.994159 -513.916715 
L 434.248431 -513.599445 
L 438.502703 -513.333614 
L 442.756974 -513.124932 
L 447.011246 -512.969993 
L 451.265518 -512.857533 
L 455.519789 -512.771038 
L 459.774061 -512.692178 
L 464.028333 -512.604428 
L 468.282604 -512.496171 
L 472.536876 -512.362683 
L 476.791148 -512.206603 
L 481.045419 -512.036869 
L 485.299691 -511.866458 
L 489.553963 -511.709549 
L 493.808234 -511.578777 
L 498.062506 -511.483111 
L 502.316778 -511.426633 
L 506.571049 -511.408218 
L 510.825321 -511.421991 
L 515.079593 -511.458371 
L 519.333864 -511.505537 
L 523.588136 -511.551157 
L 527.842408 -511.584195 
L 532.096679 -511.596511 
L 536.350951 -511.583971 
L 540.605223 -511.546789 
L 540.605223 -510.995138 
L 540.605223 -510.995138 
L 536.350951 -510.995138 
L 532.096679 -510.995138 
L 527.842408 -510.995138 
L 523.588136 -510.995138 
L 519.333864 -510.995138 
L 515.079593 -510.995138 
L 510.825321 -510.995138 
L 506.571049 -510.995138 
L 502.316778 -510.995138 
L 498.062506 -510.995138 
L 493.808234 -510.995138 
L 489.553963 -510.995138 
L 485.299691 -510.995138 
L 481.045419 -510.995138 
L 476.791148 -510.995138 
L 472.536876 -510.995138 
L 468.282604 -510.995138 
L 464.028333 -510.995138 
L 459.774061 -510.995138 
L 455.519789 -510.995138 
L 451.265518 -510.995138 
L 447.011246 -510.995138 
L 442.756974 -510.995138 
L 438.502703 -510.995138 
L 434.248431 -510.995138 
L 429.994159 -510.995138 
L 425.739888 -510.995138 
L 421.485616 -510.995138 
L 417.231344 -510.995138 
L 412.977073 -510.995138 
L 408.722801 -510.995138 
L 404.468529 -510.995138 
L 400.214258 -510.995138 
L 395.959986 -510.995138 
L 391.705714 -510.995138 
L 387.451443 -510.995138 
L 383.197171 -510.995138 
L 378.942899 -510.995138 
L 374.688628 -510.995138 
L 370.434356 -510.995138 
L 366.180084 -510.995138 
L 361.925813 -510.995138 
L 357.671541 -510.995138 
L 353.417269 -510.995138 
L 349.162998 -510.995138 
L 344.908726 -510.995138 
L 340.654454 -510.995138 
L 336.400183 -510.995138 
L 332.145911 -510.995138 
L 327.891639 -510.995138 
L 323.637368 -510.995138 
L 319.383096 -510.995138 
L 315.128824 -510.995138 
L 310.874553 -510.995138 
L 306.620281 -510.995138 
L 302.366009 -510.995138 
L 298.111738 -510.995138 
L 293.857466 -510.995138 
L 289.603194 -510.995138 
L 285.348923 -510.995138 
L 281.094651 -510.995138 
L 276.840379 -510.995138 
L 272.586108 -510.995138 
L 268.331836 -510.995138 
L 264.077564 -510.995138 
L 259.823293 -510.995138 
L 255.569021 -510.995138 
L 251.314749 -510.995138 
L 247.060478 -510.995138 
L 242.806206 -510.995138 
L 238.551934 -510.995138 
L 234.297663 -510.995138 
L 230.043391 -510.995138 
L 225.789119 -510.995138 
L 221.534847 -510.995138 
L 217.280576 -510.995138 
L 213.026304 -510.995138 
L 208.772032 -510.995138 
L 204.517761 -510.995138 
L 200.263489 -510.995138 
L 196.009217 -510.995138 
L 191.754946 -510.995138 
L 187.500674 -510.995138 
L 183.246402 -510.995138 
L 178.992131 -510.995138 
L 174.737859 -510.995138 
L 170.483587 -510.995138 
L 166.229316 -510.995138 
L 161.975044 -510.995138 
L 157.720772 -510.995138 
L 153.466501 -510.995138 
L 149.212229 -510.995138 
L 144.957957 -510.995138 
L 140.703686 -510.995138 
L 136.449414 -510.995138 
L 132.195142 -510.995138 
L 127.940871 -510.995138 
L 123.686599 -510.995138 
L 119.432327 -510.995138 
z
" style="stroke: #363636; stroke-width: 1.5"/>
    </defs>
    <g clip-path="url(#p5b170bb9c8)">
     <use xlink:href="#m71b297a4b1" x="0" y="650.44075" style="fill: #c38820; stroke: #363636; stroke-width: 1.5"/>
    </g>
   </g>
   <g id="patch_4">
    <path d="M 111.719375 139.445612 
L 111.719375 139.445612 
L 111.719375 139.445612 
L 111.719375 139.445612 
z
" clip-path="url(#p5b170bb9c8)" style="fill: #176d9c; stroke: #363636; stroke-width: 0.75; stroke-linejoin: miter"/>
   </g>
   <g id="PolyCollection_2">
    <defs>
     <path id="mc153387db5" d="M 112.296856 -505.251718 
L 112.296856 -510.995138 
L 115.645203 -510.995138 
L 118.993549 -510.995138 
L 122.341896 -510.995138 
L 125.690243 -510.995138 
L 129.03859 -510.995138 
L 132.386937 -510.995138 
L 135.735283 -510.995138 
L 139.08363 -510.995138 
L 142.431977 -510.995138 
L 145.780324 -510.995138 
L 149.12867 -510.995138 
L 152.477017 -510.995138 
L 155.825364 -510.995138 
L 159.173711 -510.995138 
L 162.522057 -510.995138 
L 165.870404 -510.995138 
L 169.218751 -510.995138 
L 172.567098 -510.995138 
L 175.915445 -510.995138 
L 179.263791 -510.995138 
L 182.612138 -510.995138 
L 185.960485 -510.995138 
L 189.308832 -510.995138 
L 192.657178 -510.995138 
L 196.005525 -510.995138 
L 199.353872 -510.995138 
L 202.702219 -510.995138 
L 206.050565 -510.995138 
L 209.398912 -510.995138 
L 212.747259 -510.995138 
L 216.095606 -510.995138 
L 219.443953 -510.995138 
L 222.792299 -510.995138 
L 226.140646 -510.995138 
L 229.488993 -510.995138 
L 232.83734 -510.995138 
L 236.185686 -510.995138 
L 239.534033 -510.995138 
L 242.88238 -510.995138 
L 246.230727 -510.995138 
L 249.579073 -510.995138 
L 252.92742 -510.995138 
L 256.275767 -510.995138 
L 259.624114 -510.995138 
L 262.97246 -510.995138 
L 266.320807 -510.995138 
L 269.669154 -510.995138 
L 273.017501 -510.995138 
L 276.365848 -510.995138 
L 279.714194 -510.995138 
L 283.062541 -510.995138 
L 286.410888 -510.995138 
L 289.759235 -510.995138 
L 293.107581 -510.995138 
L 296.455928 -510.995138 
L 299.804275 -510.995138 
L 303.152622 -510.995138 
L 306.500968 -510.995138 
L 309.849315 -510.995138 
L 313.197662 -510.995138 
L 316.546009 -510.995138 
L 319.894356 -510.995138 
L 323.242702 -510.995138 
L 326.591049 -510.995138 
L 329.939396 -510.995138 
L 333.287743 -510.995138 
L 336.636089 -510.995138 
L 339.984436 -510.995138 
L 343.332783 -510.995138 
L 346.68113 -510.995138 
L 350.029476 -510.995138 
L 353.377823 -510.995138 
L 356.72617 -510.995138 
L 360.074517 -510.995138 
L 363.422863 -510.995138 
L 366.77121 -510.995138 
L 370.119557 -510.995138 
L 373.467904 -510.995138 
L 376.816251 -510.995138 
L 380.164597 -510.995138 
L 383.512944 -510.995138 
L 386.861291 -510.995138 
L 390.209638 -510.995138 
L 393.557984 -510.995138 
L 396.906331 -510.995138 
L 400.254678 -510.995138 
L 403.603025 -510.995138 
L 406.951371 -510.995138 
L 410.299718 -510.995138 
L 413.648065 -510.995138 
L 416.996412 -510.995138 
L 420.344759 -510.995138 
L 423.693105 -510.995138 
L 427.041452 -510.995138 
L 430.389799 -510.995138 
L 433.738146 -510.995138 
L 437.086492 -510.995138 
L 440.434839 -510.995138 
L 443.783186 -510.995138 
L 443.783186 -510.490088 
L 443.783186 -510.490088 
L 440.434839 -510.438542 
L 437.086492 -510.397849 
L 433.738146 -510.368087 
L 430.389799 -510.347617 
L 427.041452 -510.333595 
L 423.693105 -510.322705 
L 420.344759 -510.311822 
L 416.996412 -510.298378 
L 413.648065 -510.280288 
L 410.299718 -510.255541 
L 406.951371 -510.22172 
L 403.603025 -510.175807 
L 400.254678 -510.114535 
L 396.906331 -510.03536 
L 393.557984 -509.937819 
L 390.209638 -509.824789 
L 386.861291 -509.703091 
L 383.512944 -509.582988 
L 380.164597 -509.476426 
L 376.816251 -509.394316 
L 373.467904 -509.34347 
L 370.119557 -509.324053 
L 366.77121 -509.328293 
L 363.422863 -509.340902 
L 360.074517 -509.341191 
L 356.72617 -509.306382 
L 353.377823 -509.215337 
L 350.029476 -509.051832 
L 346.68113 -508.806686 
L 343.332783 -508.478431 
L 339.984436 -508.072591 
L 336.636089 -507.600001 
L 333.287743 -507.074742 
L 329.939396 -506.51227 
L 326.591049 -505.928107 
L 323.242702 -505.337195 
L 319.894356 -504.753788 
L 316.546009 -504.19159 
L 313.197662 -503.66387 
L 309.849315 -503.183339 
L 306.500968 -502.761761 
L 303.152622 -502.40933 
L 299.804275 -502.133926 
L 296.455928 -501.94028 
L 293.107581 -501.829082 
L 289.759235 -501.795987 
L 286.410888 -501.830595 
L 283.062541 -501.915553 
L 279.714194 -502.026045 
L 276.365848 -502.129936 
L 273.017501 -502.188719 
L 269.669154 -502.159215 
L 266.320807 -501.995772 
L 262.97246 -501.652667 
L 259.624114 -501.086485 
L 256.275767 -500.258483 
L 252.92742 -499.137119 
L 249.579073 -497.700957 
L 246.230727 -495.941954 
L 242.88238 -493.868718 
L 239.534033 -491.508936 
L 236.185686 -488.909898 
L 232.83734 -486.136223 
L 229.488993 -483.264406 
L 226.140646 -480.374734 
L 222.792299 -477.541976 
L 219.443953 -474.826879 
L 216.095606 -472.270455 
L 212.747259 -469.8923 
L 209.398912 -467.693008 
L 206.050565 -465.659443 
L 202.702219 -463.770923 
L 199.353872 -462.004455 
L 196.005525 -460.338111 
L 192.657178 -458.752937 
L 189.308832 -457.234869 
L 185.960485 -455.778301 
L 182.612138 -454.392103 
L 179.263791 -453.107279 
L 175.915445 -451.983836 
L 172.567098 -451.113549 
L 169.218751 -450.615781 
L 165.870404 -450.625188 
L 162.522057 -451.272606 
L 159.173711 -452.662706 
L 155.825364 -454.853296 
L 152.477017 -457.841063 
L 149.12867 -461.556944 
L 145.780324 -465.872008 
L 142.431977 -470.612243 
L 139.08363 -475.578894 
L 135.735283 -480.570275 
L 132.386937 -485.401345 
L 129.03859 -489.918456 
L 125.690243 -494.008072 
L 122.341896 -497.599538 
L 118.993549 -500.66286 
L 115.645203 -503.202931 
L 112.296856 -505.251718 
z
" style="stroke: #363636; stroke-width: 1.5"/>
    </defs>
    <g clip-path="url(#p5b170bb9c8)">
     <use xlink:href="#mc153387db5" x="0" y="650.44075" style="fill: #176d9c; stroke: #363636; stroke-width: 1.5"/>
    </g>
   </g>
   <g id="PolyCollection_3">
    <defs>
     <path id="mbba4f056df" d="M 119.268773 -325.2125 
L 119.268773 -339.038268 
L 123.757291 -342.234615 
L 128.245808 -345.80408 
L 132.734326 -349.698941 
L 137.222843 -353.84913 
L 141.711361 -358.163718 
L 146.199878 -362.53419 
L 150.688396 -366.839419 
L 155.176913 -370.952045 
L 159.665431 -374.74577 
L 164.153948 -378.102911 
L 168.642466 -380.921458 
L 173.130983 -383.120914 
L 177.619501 -384.646316 
L 182.108018 -385.470114 
L 186.596536 -385.591857 
L 191.085054 -385.036014 
L 195.573571 -383.848418 
L 200.062089 -382.092026 
L 204.550606 -379.842581 
L 209.039124 -377.184655 
L 213.527641 -374.208302 
L 218.016159 -371.006309 
L 222.504676 -367.671877 
L 226.993194 -364.296458 
L 231.481711 -360.967542 
L 235.970229 -357.766271 
L 240.458746 -354.764932 
L 244.947264 -352.024518 
L 249.435781 -349.592656 
L 253.924299 -347.502198 
L 258.412816 -345.770758 
L 262.901334 -344.401323 
L 267.389851 -343.383923 
L 271.878369 -342.69817 
L 276.366886 -342.316305 
L 280.855404 -342.206305 
L 285.343922 -342.334538 
L 289.832439 -342.667572 
L 294.320957 -343.172849 
L 298.809474 -343.818215 
L 303.297992 -344.570539 
L 307.786509 -345.393885 
L 312.275027 -346.247869 
L 316.763544 -347.086808 
L 321.252062 -347.860167 
L 325.740579 -348.514526 
L 330.229097 -348.996972 
L 334.717614 -349.25949 
L 339.206132 -349.26368 
L 343.694649 -348.985032 
L 348.183167 -348.416011 
L 352.671684 -347.567429 
L 357.160202 -346.467827 
L 361.648719 -345.160971 
L 366.137237 -343.701791 
L 370.625754 -342.151356 
L 375.114272 -340.571541 
L 379.602789 -339.020041 
L 384.091307 -337.546254 
L 388.579825 -336.188405 
L 393.068342 -334.972051 
L 397.55686 -333.909963 
L 402.045377 -333.003173 
L 406.533895 -332.242931 
L 411.022412 -331.613222 
L 415.51093 -331.093506 
L 419.999447 -330.661381 
L 424.487965 -330.294903 
L 428.976482 -329.974417 
L 433.465 -329.683775 
L 437.953517 -329.410948 
L 442.442035 -329.148082 
L 446.930552 -328.891099 
L 451.41907 -328.638982 
L 455.907587 -328.392906 
L 460.396105 -328.155343 
L 464.884622 -327.929257 
L 469.37314 -327.71748 
L 473.861657 -327.522293 
L 478.350175 -327.345224 
L 482.838692 -327.187021 
L 487.32721 -327.047757 
L 491.815728 -326.926995 
L 496.304245 -326.823949 
L 500.792763 -326.737605 
L 505.28128 -326.666754 
L 509.769798 -326.609946 
L 514.258315 -326.565386 
L 518.746833 -326.530815 
L 523.23535 -326.50343 
L 527.723868 -326.479895 
L 532.212385 -326.456483 
L 536.700903 -326.429341 
L 541.18942 -326.394867 
L 545.677938 -326.350121 
L 550.166455 -326.293209 
L 554.654973 -326.223549 
L 559.14349 -326.141969 
L 563.632008 -326.050611 
L 563.632008 -325.2125 
L 563.632008 -325.2125 
L 559.14349 -325.2125 
L 554.654973 -325.2125 
L 550.166455 -325.2125 
L 545.677938 -325.2125 
L 541.18942 -325.2125 
L 536.700903 -325.2125 
L 532.212385 -325.2125 
L 527.723868 -325.2125 
L 523.23535 -325.2125 
L 518.746833 -325.2125 
L 514.258315 -325.2125 
L 509.769798 -325.2125 
L 505.28128 -325.2125 
L 500.792763 -325.2125 
L 496.304245 -325.2125 
L 491.815728 -325.2125 
L 487.32721 -325.2125 
L 482.838692 -325.2125 
L 478.350175 -325.2125 
L 473.861657 -325.2125 
L 469.37314 -325.2125 
L 464.884622 -325.2125 
L 460.396105 -325.2125 
L 455.907587 -325.2125 
L 451.41907 -325.2125 
L 446.930552 -325.2125 
L 442.442035 -325.2125 
L 437.953517 -325.2125 
L 433.465 -325.2125 
L 428.976482 -325.2125 
L 424.487965 -325.2125 
L 419.999447 -325.2125 
L 415.51093 -325.2125 
L 411.022412 -325.2125 
L 406.533895 -325.2125 
L 402.045377 -325.2125 
L 397.55686 -325.2125 
L 393.068342 -325.2125 
L 388.579825 -325.2125 
L 384.091307 -325.2125 
L 379.602789 -325.2125 
L 375.114272 -325.2125 
L 370.625754 -325.2125 
L 366.137237 -325.2125 
L 361.648719 -325.2125 
L 357.160202 -325.2125 
L 352.671684 -325.2125 
L 348.183167 -325.2125 
L 343.694649 -325.2125 
L 339.206132 -325.2125 
L 334.717614 -325.2125 
L 330.229097 -325.2125 
L 325.740579 -325.2125 
L 321.252062 -325.2125 
L 316.763544 -325.2125 
L 312.275027 -325.2125 
L 307.786509 -325.2125 
L 303.297992 -325.2125 
L 298.809474 -325.2125 
L 294.320957 -325.2125 
L 289.832439 -325.2125 
L 285.343922 -325.2125 
L 280.855404 -325.2125 
L 276.366886 -325.2125 
L 271.878369 -325.2125 
L 267.389851 -325.2125 
L 262.901334 -325.2125 
L 258.412816 -325.2125 
L 253.924299 -325.2125 
L 249.435781 -325.2125 
L 244.947264 -325.2125 
L 240.458746 -325.2125 
L 235.970229 -325.2125 
L 231.481711 -325.2125 
L 226.993194 -325.2125 
L 222.504676 -325.2125 
L 218.016159 -325.2125 
L 213.527641 -325.2125 
L 209.039124 -325.2125 
L 204.550606 -325.2125 
L 200.062089 -325.2125 
L 195.573571 -325.2125 
L 191.085054 -325.2125 
L 186.596536 -325.2125 
L 182.108018 -325.2125 
L 177.619501 -325.2125 
L 173.130983 -325.2125 
L 168.642466 -325.2125 
L 164.153948 -325.2125 
L 159.665431 -325.2125 
L 155.176913 -325.2125 
L 150.688396 -325.2125 
L 146.199878 -325.2125 
L 141.711361 -325.2125 
L 137.222843 -325.2125 
L 132.734326 -325.2125 
L 128.245808 -325.2125 
L 123.757291 -325.2125 
L 119.268773 -325.2125 
z
" style="stroke: #363636; stroke-width: 1.5"/>
    </defs>
    <g clip-path="url(#p5b170bb9c8)">
     <use xlink:href="#mbba4f056df" x="0" y="650.44075" style="fill: #c38820; stroke: #363636; stroke-width: 1.5"/>
    </g>
   </g>
   <g id="PolyCollection_4">
    <defs>
     <path id="mad78ae9a11" d="M 126.565202 -318.629895 
L 126.565202 -325.2125 
L 130.853952 -325.2125 
L 135.142703 -325.2125 
L 139.431453 -325.2125 
L 143.720204 -325.2125 
L 148.008954 -325.2125 
L 152.297705 -325.2125 
L 156.586455 -325.2125 
L 160.875206 -325.2125 
L 165.163956 -325.2125 
L 169.452707 -325.2125 
L 173.741457 -325.2125 
L 178.030208 -325.2125 
L 182.318958 -325.2125 
L 186.607709 -325.2125 
L 190.896459 -325.2125 
L 195.18521 -325.2125 
L 199.47396 -325.2125 
L 203.762711 -325.2125 
L 208.051461 -325.2125 
L 212.340212 -325.2125 
L 216.628962 -325.2125 
L 220.917713 -325.2125 
L 225.206463 -325.2125 
L 229.495214 -325.2125 
L 233.783964 -325.2125 
L 238.072715 -325.2125 
L 242.361465 -325.2125 
L 246.650216 -325.2125 
L 250.938966 -325.2125 
L 255.227716 -325.2125 
L 259.516467 -325.2125 
L 263.805217 -325.2125 
L 268.093968 -325.2125 
L 272.382718 -325.2125 
L 276.671469 -325.2125 
L 280.960219 -325.2125 
L 285.24897 -325.2125 
L 289.53772 -325.2125 
L 293.826471 -325.2125 
L 298.115221 -325.2125 
L 302.403972 -325.2125 
L 306.692722 -325.2125 
L 310.981473 -325.2125 
L 315.270223 -325.2125 
L 319.558974 -325.2125 
L 323.847724 -325.2125 
L 328.136475 -325.2125 
L 332.425225 -325.2125 
L 336.713976 -325.2125 
L 341.002726 -325.2125 
L 345.291477 -325.2125 
L 349.580227 -325.2125 
L 353.868978 -325.2125 
L 358.157728 -325.2125 
L 362.446479 -325.2125 
L 366.735229 -325.2125 
L 371.02398 -325.2125 
L 375.31273 -325.2125 
L 379.601481 -325.2125 
L 383.890231 -325.2125 
L 388.178982 -325.2125 
L 392.467732 -325.2125 
L 396.756483 -325.2125 
L 401.045233 -325.2125 
L 405.333983 -325.2125 
L 409.622734 -325.2125 
L 413.911484 -325.2125 
L 418.200235 -325.2125 
L 422.488985 -325.2125 
L 426.777736 -325.2125 
L 431.066486 -325.2125 
L 435.355237 -325.2125 
L 439.643987 -325.2125 
L 443.932738 -325.2125 
L 448.221488 -325.2125 
L 452.510239 -325.2125 
L 456.798989 -325.2125 
L 461.08774 -325.2125 
L 465.37649 -325.2125 
L 469.665241 -325.2125 
L 473.953991 -325.2125 
L 478.242742 -325.2125 
L 482.531492 -325.2125 
L 486.820243 -325.2125 
L 491.108993 -325.2125 
L 495.397744 -325.2125 
L 499.686494 -325.2125 
L 503.975245 -325.2125 
L 508.263995 -325.2125 
L 512.552746 -325.2125 
L 516.841496 -325.2125 
L 521.130247 -325.2125 
L 525.418997 -325.2125 
L 529.707748 -325.2125 
L 533.996498 -325.2125 
L 538.285249 -325.2125 
L 542.573999 -325.2125 
L 546.86275 -325.2125 
L 551.1515 -325.2125 
L 551.1515 -324.679642 
L 551.1515 -324.679642 
L 546.86275 -324.598011 
L 542.573999 -324.517576 
L 538.285249 -324.439376 
L 533.996498 -324.364488 
L 529.707748 -324.294657 
L 525.418997 -324.23277 
L 521.130247 -324.182878 
L 516.841496 -324.1496 
L 512.552746 -324.136964 
L 508.263995 -324.147019 
L 503.975245 -324.178665 
L 499.686494 -324.227161 
L 495.397744 -324.284554 
L 491.108993 -324.340996 
L 486.820243 -324.386607 
L 482.531492 -324.413408 
L 478.242742 -324.416796 
L 473.953991 -324.396219 
L 469.665241 -324.354926 
L 465.37649 -324.298928 
L 461.08774 -324.235467 
L 456.798989 -324.171378 
L 452.510239 -324.111674 
L 448.221488 -324.058574 
L 443.932738 -324.011066 
L 439.643987 -323.964983 
L 435.355237 -323.913469 
L 431.066486 -323.847765 
L 426.777736 -323.758176 
L 422.488985 -323.635181 
L 418.200235 -323.470591 
L 413.911484 -323.258679 
L 409.622734 -322.997156 
L 405.333983 -322.687879 
L 401.045233 -322.337189 
L 396.756483 -321.955829 
L 392.467732 -321.558443 
L 388.178982 -321.162671 
L 383.890231 -320.787829 
L 379.601481 -320.453132 
L 375.31273 -320.175429 
L 371.02398 -319.966504 
L 366.735229 -319.830224 
L 362.446479 -319.759988 
L 358.157728 -319.737097 
L 353.868978 -319.730636 
L 349.580227 -319.699157 
L 345.291477 -319.594138 
L 341.002726 -319.364706 
L 336.713976 -318.962925 
L 332.425225 -318.348863 
L 328.136475 -317.494822 
L 323.847724 -316.388403 
L 319.558974 -315.03427 
L 315.270223 -313.45465 
L 310.981473 -311.688599 
L 306.692722 -309.790042 
L 302.403972 -307.824607 
L 298.115221 -305.86532 
L 293.826471 -303.98736 
L 289.53772 -302.262182 
L 285.24897 -300.751342 
L 280.960219 -299.500375 
L 276.671469 -298.533041 
L 272.382718 -297.846299 
L 268.093968 -297.406549 
L 263.805217 -297.147837 
L 259.516467 -296.972979 
L 255.227716 -296.758496 
L 250.938966 -296.364036 
L 246.650216 -295.646317 
L 242.361465 -294.47671 
L 238.072715 -292.760527 
L 233.783964 -290.455141 
L 229.495214 -287.58353 
L 225.206463 -284.240045 
L 220.917713 -280.586295 
L 216.628962 -276.836853 
L 212.340212 -273.236715 
L 208.051461 -270.034358 
L 203.762711 -267.45526 
L 199.47396 -265.680452 
L 195.18521 -264.833143 
L 190.896459 -264.9742 
L 186.607709 -266.105093 
L 182.318958 -268.175551 
L 178.030208 -271.09302 
L 173.741457 -274.731885 
L 169.452707 -278.941767 
L 165.163956 -283.555366 
L 160.875206 -288.396781 
L 156.586455 -293.290882 
L 152.297705 -298.073514 
L 148.008954 -302.601446 
L 143.720204 -306.760589 
L 139.431453 -310.471113 
L 135.142703 -313.688794 
L 130.853952 -316.402681 
L 126.565202 -318.629895 
z
" style="stroke: #363636; stroke-width: 1.5"/>
    </defs>
    <g clip-path="url(#p5b170bb9c8)">
     <use xlink:href="#mad78ae9a11" x="0" y="650.44075" style="fill: #176d9c; stroke: #363636; stroke-width: 1.5"/>
    </g>
   </g>
   <g id="PolyCollection_5">
    <defs>
     <path id="m64e07e72a5" d="M 112.099203 -139.429862 
L 112.099203 -148.992412 
L 116.547667 -152.225194 
L 120.996132 -156.060987 
L 125.444597 -160.445366 
L 129.893061 -165.272073 
L 134.341526 -170.388379 
L 138.78999 -175.607319 
L 143.238455 -180.72455 
L 147.686919 -185.536565 
L 152.135384 -189.856847 
L 156.583849 -193.527576 
L 161.032313 -196.426021 
L 165.480778 -198.46641 
L 169.929242 -199.599121 
L 174.377707 -199.809219 
L 178.826171 -199.115786 
L 183.274636 -197.572435 
L 187.723101 -195.268332 
L 192.171565 -192.328347 
L 196.62003 -188.910731 
L 201.068494 -185.201036 
L 205.516959 -181.401647 
L 209.965423 -177.717267 
L 214.413888 -174.337677 
L 218.862353 -171.42002 
L 223.310817 -169.07342 
L 227.759282 -167.348794 
L 232.207746 -166.236064 
L 236.656211 -165.669679 
L 241.104675 -165.541662 
L 245.55314 -165.719716 
L 250.001605 -166.066784 
L 254.450069 -166.458273 
L 258.898534 -166.793951 
L 263.346998 -167.00315 
L 267.795463 -167.043743 
L 272.243927 -166.896821 
L 276.692392 -166.559646 
L 281.140857 -166.0392 
L 285.589321 -165.347739 
L 290.037786 -164.50061 
L 294.48625 -163.515718 
L 298.934715 -162.413597 
L 303.383179 -161.217135 
L 307.831644 -159.950463 
L 312.280109 -158.637073 
L 316.728573 -157.297703 
L 321.177038 -155.948685 
L 325.625502 -154.60141 
L 330.073967 -153.263173 
L 334.522431 -151.939214 
L 338.970896 -150.635361 
L 343.419361 -149.36047 
L 347.867825 -148.127882 
L 352.31629 -146.955473 
L 356.764754 -145.864241 
L 361.213219 -144.875819 
L 365.661683 -144.009543 
L 370.110148 -143.279711 
L 374.558613 -142.693572 
L 379.007077 -142.25028 
L 383.455542 -141.94087 
L 387.904006 -141.749097 
L 392.352471 -141.65294 
L 396.800935 -141.626579 
L 401.2494 -141.642663 
L 405.697865 -141.674711 
L 410.146329 -141.699456 
L 414.594794 -141.698858 
L 419.043258 -141.661497 
L 423.491723 -141.583068 
L 427.940187 -141.465834 
L 432.388652 -141.317131 
L 436.837117 -141.147214 
L 441.285581 -140.966967 
L 445.734046 -140.785954 
L 450.18251 -140.611238 
L 454.630975 -140.447073 
L 459.079439 -140.295367 
L 463.527904 -140.156578 
L 467.976369 -140.030655 
L 472.424833 -139.917734 
L 476.873298 -139.818446 
L 481.321762 -139.733865 
L 485.770227 -139.66525 
L 490.218691 -139.613749 
L 494.667156 -139.580158 
L 499.115621 -139.564783 
L 503.564085 -139.567335 
L 508.01255 -139.586815 
L 512.461014 -139.62134 
L 516.909479 -139.667947 
L 521.357943 -139.722474 
L 525.806408 -139.779636 
L 530.254873 -139.833396 
L 534.703337 -139.877625 
L 539.151802 -139.906967 
L 543.600266 -139.917699 
L 548.048731 -139.908382 
L 552.497195 -139.880087 
L 552.497195 -139.429862 
L 552.497195 -139.429862 
L 548.048731 -139.429862 
L 543.600266 -139.429862 
L 539.151802 -139.429862 
L 534.703337 -139.429862 
L 530.254873 -139.429862 
L 525.806408 -139.429862 
L 521.357943 -139.429862 
L 516.909479 -139.429862 
L 512.461014 -139.429862 
L 508.01255 -139.429862 
L 503.564085 -139.429862 
L 499.115621 -139.429862 
L 494.667156 -139.429862 
L 490.218691 -139.429862 
L 485.770227 -139.429862 
L 481.321762 -139.429862 
L 476.873298 -139.429862 
L 472.424833 -139.429862 
L 467.976369 -139.429862 
L 463.527904 -139.429862 
L 459.079439 -139.429862 
L 454.630975 -139.429862 
L 450.18251 -139.429862 
L 445.734046 -139.429862 
L 441.285581 -139.429862 
L 436.837117 -139.429862 
L 432.388652 -139.429862 
L 427.940187 -139.429862 
L 423.491723 -139.429862 
L 419.043258 -139.429862 
L 414.594794 -139.429862 
L 410.146329 -139.429862 
L 405.697865 -139.429862 
L 401.2494 -139.429862 
L 396.800935 -139.429862 
L 392.352471 -139.429862 
L 387.904006 -139.429862 
L 383.455542 -139.429862 
L 379.007077 -139.429862 
L 374.558613 -139.429862 
L 370.110148 -139.429862 
L 365.661683 -139.429862 
L 361.213219 -139.429862 
L 356.764754 -139.429862 
L 352.31629 -139.429862 
L 347.867825 -139.429862 
L 343.419361 -139.429862 
L 338.970896 -139.429862 
L 334.522431 -139.429862 
L 330.073967 -139.429862 
L 325.625502 -139.429862 
L 321.177038 -139.429862 
L 316.728573 -139.429862 
L 312.280109 -139.429862 
L 307.831644 -139.429862 
L 303.383179 -139.429862 
L 298.934715 -139.429862 
L 294.48625 -139.429862 
L 290.037786 -139.429862 
L 285.589321 -139.429862 
L 281.140857 -139.429862 
L 276.692392 -139.429862 
L 272.243927 -139.429862 
L 267.795463 -139.429862 
L 263.346998 -139.429862 
L 258.898534 -139.429862 
L 254.450069 -139.429862 
L 250.001605 -139.429862 
L 245.55314 -139.429862 
L 241.104675 -139.429862 
L 236.656211 -139.429862 
L 232.207746 -139.429862 
L 227.759282 -139.429862 
L 223.310817 -139.429862 
L 218.862353 -139.429862 
L 214.413888 -139.429862 
L 209.965423 -139.429862 
L 205.516959 -139.429862 
L 201.068494 -139.429862 
L 196.62003 -139.429862 
L 192.171565 -139.429862 
L 187.723101 -139.429862 
L 183.274636 -139.429862 
L 178.826171 -139.429862 
L 174.377707 -139.429862 
L 169.929242 -139.429862 
L 165.480778 -139.429862 
L 161.032313 -139.429862 
L 156.583849 -139.429862 
L 152.135384 -139.429862 
L 147.686919 -139.429862 
L 143.238455 -139.429862 
L 138.78999 -139.429862 
L 134.341526 -139.429862 
L 129.893061 -139.429862 
L 125.444597 -139.429862 
L 120.996132 -139.429862 
L 116.547667 -139.429862 
L 112.099203 -139.429862 
z
" style="stroke: #363636; stroke-width: 1.5"/>
    </defs>
    <g clip-path="url(#p5b170bb9c8)">
     <use xlink:href="#m64e07e72a5" x="0" y="650.44075" style="fill: #c38820; stroke: #363636; stroke-width: 1.5"/>
    </g>
   </g>
   <g id="PolyCollection_6">
    <defs>
     <path id="md9fb4c604b" d="M 124.963556 -133.329307 
L 124.963556 -139.429862 
L 128.633766 -139.429862 
L 132.303975 -139.429862 
L 135.974185 -139.429862 
L 139.644394 -139.429862 
L 143.314604 -139.429862 
L 146.984813 -139.429862 
L 150.655023 -139.429862 
L 154.325232 -139.429862 
L 157.995441 -139.429862 
L 161.665651 -139.429862 
L 165.33586 -139.429862 
L 169.00607 -139.429862 
L 172.676279 -139.429862 
L 176.346489 -139.429862 
L 180.016698 -139.429862 
L 183.686908 -139.429862 
L 187.357117 -139.429862 
L 191.027327 -139.429862 
L 194.697536 -139.429862 
L 198.367746 -139.429862 
L 202.037955 -139.429862 
L 205.708164 -139.429862 
L 209.378374 -139.429862 
L 213.048583 -139.429862 
L 216.718793 -139.429862 
L 220.389002 -139.429862 
L 224.059212 -139.429862 
L 227.729421 -139.429862 
L 231.399631 -139.429862 
L 235.06984 -139.429862 
L 238.74005 -139.429862 
L 242.410259 -139.429862 
L 246.080468 -139.429862 
L 249.750678 -139.429862 
L 253.420887 -139.429862 
L 257.091097 -139.429862 
L 260.761306 -139.429862 
L 264.431516 -139.429862 
L 268.101725 -139.429862 
L 271.771935 -139.429862 
L 275.442144 -139.429862 
L 279.112354 -139.429862 
L 282.782563 -139.429862 
L 286.452772 -139.429862 
L 290.122982 -139.429862 
L 293.793191 -139.429862 
L 297.463401 -139.429862 
L 301.13361 -139.429862 
L 304.80382 -139.429862 
L 308.474029 -139.429862 
L 312.144239 -139.429862 
L 315.814448 -139.429862 
L 319.484658 -139.429862 
L 323.154867 -139.429862 
L 326.825077 -139.429862 
L 330.495286 -139.429862 
L 334.165495 -139.429862 
L 337.835705 -139.429862 
L 341.505914 -139.429862 
L 345.176124 -139.429862 
L 348.846333 -139.429862 
L 352.516543 -139.429862 
L 356.186752 -139.429862 
L 359.856962 -139.429862 
L 363.527171 -139.429862 
L 367.197381 -139.429862 
L 370.86759 -139.429862 
L 374.537799 -139.429862 
L 378.208009 -139.429862 
L 381.878218 -139.429862 
L 385.548428 -139.429862 
L 389.218637 -139.429862 
L 392.888847 -139.429862 
L 396.559056 -139.429862 
L 400.229266 -139.429862 
L 403.899475 -139.429862 
L 407.569685 -139.429862 
L 411.239894 -139.429862 
L 414.910104 -139.429862 
L 418.580313 -139.429862 
L 422.250522 -139.429862 
L 425.920732 -139.429862 
L 429.590941 -139.429862 
L 433.261151 -139.429862 
L 436.93136 -139.429862 
L 440.60157 -139.429862 
L 444.271779 -139.429862 
L 447.941989 -139.429862 
L 451.612198 -139.429862 
L 455.282408 -139.429862 
L 458.952617 -139.429862 
L 462.622826 -139.429862 
L 466.293036 -139.429862 
L 469.963245 -139.429862 
L 473.633455 -139.429862 
L 477.303664 -139.429862 
L 480.973874 -139.429862 
L 484.644083 -139.429862 
L 488.314293 -139.429862 
L 488.314293 -138.931805 
L 488.314293 -138.931805 
L 484.644083 -138.895521 
L 480.973874 -138.894304 
L 477.303664 -138.928392 
L 473.633455 -138.991195 
L 469.963245 -139.071366 
L 466.293036 -139.156129 
L 462.622826 -139.234519 
L 458.952617 -139.299404 
L 455.282408 -139.34788 
L 451.612198 -139.380304 
L 447.941989 -139.398656 
L 444.271779 -139.404922 
L 440.60157 -139.399964 
L 436.93136 -139.383092 
L 433.261151 -139.352403 
L 429.590941 -139.305839 
L 425.920732 -139.242763 
L 422.250522 -139.165626 
L 418.580313 -139.081028 
L 414.910104 -138.999487 
L 411.239894 -138.933518 
L 407.569685 -138.894365 
L 403.899475 -138.888383 
L 400.229266 -138.914428 
L 396.559056 -138.963263 
L 392.888847 -139.019229 
L 389.218637 -139.06358 
L 385.548428 -139.078516 
L 381.878218 -139.051049 
L 378.208009 -138.976129 
L 374.537799 -138.85863 
L 370.86759 -138.713615 
L 367.197381 -138.564192 
L 363.527171 -138.436633 
L 359.856962 -138.35336 
L 356.186752 -138.325663 
L 352.516543 -138.348599 
L 348.846333 -138.400188 
L 345.176124 -138.445576 
L 341.505914 -138.445144 
L 337.835705 -138.364254 
L 334.165495 -138.181975 
L 330.495286 -137.896517 
L 326.825077 -137.526002 
L 323.154867 -137.104303 
L 319.484658 -136.672878 
L 315.814448 -136.270672 
L 312.144239 -135.924828 
L 308.474029 -135.644834 
L 304.80382 -135.421528 
L 301.13361 -135.230655 
L 297.463401 -135.038925 
L 293.793191 -134.809818 
L 290.122982 -134.506949 
L 286.452772 -134.094524 
L 282.782563 -133.53623 
L 279.112354 -132.794777 
L 275.442144 -131.83369 
L 271.771935 -130.62136 
L 268.101725 -129.135902 
L 264.431516 -127.369183 
L 260.761306 -125.329394 
L 257.091097 -123.042696 
L 253.420887 -120.554521 
L 249.750678 -117.929688 
L 246.080468 -115.248857 
L 242.410259 -112.598806 
L 238.74005 -110.056631 
L 235.06984 -107.67211 
L 231.399631 -105.455312 
L 227.729421 -103.375487 
L 224.059212 -101.372319 
L 220.389002 -99.374825 
L 216.718793 -97.320366 
L 213.048583 -95.168146 
L 209.378374 -92.906218 
L 205.708164 -90.55449 
L 202.037955 -88.16596 
L 198.367746 -85.825759 
L 194.697536 -83.645703 
L 191.027327 -81.753418 
L 187.357117 -80.27873 
L 183.686908 -79.342342 
L 180.016698 -79.050504 
L 176.346489 -79.494664 
L 172.676279 -80.750671 
L 169.00607 -82.871408 
L 165.33586 -85.870922 
L 161.665651 -89.70466 
L 157.995441 -94.255283 
L 154.325232 -99.333382 
L 150.655023 -104.696922 
L 146.984813 -110.085239 
L 143.314604 -115.257092 
L 139.644394 -120.020911 
L 135.974185 -124.249605 
L 132.303975 -127.879346 
L 128.633766 -130.897799 
L 124.963556 -133.329307 
z
" style="stroke: #363636; stroke-width: 1.5"/>
    </defs>
    <g clip-path="url(#p5b170bb9c8)">
     <use xlink:href="#md9fb4c604b" x="0" y="650.44075" style="fill: #176d9c; stroke: #363636; stroke-width: 1.5"/>
    </g>
   </g>
   <g id="line2d_20">
    <path d="M 262.684503 139.445612 
L 262.684503 78.137341 
" clip-path="url(#p5b170bb9c8)" style="fill: none; stroke: #000000; stroke-width: 3"/>
   </g>
   <g id="line2d_21">
    <path d="M 197.173455 139.445612 
L 197.173455 200.753882 
" clip-path="url(#p5b170bb9c8)" style="fill: none; stroke: #000000; stroke-width: 3"/>
   </g>
   <g id="line2d_22">
    <path d="M 240.570724 325.22825 
L 240.570724 263.919979 
" clip-path="url(#p5b170bb9c8)" style="fill: none; stroke: #000000; stroke-width: 3"/>
   </g>
   <g id="line2d_23">
    <path d="M 229.376998 325.22825 
L 229.376998 386.536521 
" clip-path="url(#p5b170bb9c8)" style="fill: none; stroke: #000000; stroke-width: 3"/>
   </g>
   <g id="line2d_24">
    <path d="M 218.528294 511.010888 
L 218.528294 449.702618 
" clip-path="url(#p5b170bb9c8)" style="fill: none; stroke: #000000; stroke-width: 3"/>
   </g>
   <g id="line2d_25">
    <path d="M 201.041107 511.010888 
L 201.041107 572.319159 
" clip-path="url(#p5b170bb9c8)" style="fill: none; stroke: #000000; stroke-width: 3"/>
   </g>
   <g id="line2d_26">
    <path d="M 111.719375 232.336931 
L 558.119375 232.336931 
" clip-path="url(#p5b170bb9c8)" style="fill: none; stroke: #808080; stroke-width: 1.5; stroke-linecap: square"/>
   </g>
   <g id="line2d_27">
    <path d="M 111.719375 418.119569 
L 558.119375 418.119569 
" clip-path="url(#p5b170bb9c8)" style="fill: none; stroke: #808080; stroke-width: 1.5; stroke-linecap: square"/>
   </g>
   <g id="patch_5">
    <path d="M 111.719375 597.02825 
L 558.119375 597.02825 
" style="fill: none; stroke: #000000; stroke-width: 0.8; stroke-linejoin: miter; stroke-linecap: square"/>
   </g>
   <g id="text_13">
    <!-- 23.7% -->
    <g transform="translate(234.094034 70.099431)scale(0.18 -0.18)">
     <defs>
      <path id="DejaVuSans-2e" d="M 684 794 
L 1344 794 
L 1344 0 
L 684 0 
L 684 794 
z
" transform="scale(0.015625)"/>
     </defs>
     <use xlink:href="#DejaVuSans-32"/>
     <use xlink:href="#DejaVuSans-33" x="63.623047"/>
     <use xlink:href="#DejaVuSans-2e" x="127.246094"/>
     <use xlink:href="#DejaVuSans-37" x="159.033203"/>
     <use xlink:href="#DejaVuSans-25" x="222.65625"/>
    </g>
   </g>
   <g id="text_14">
    <!-- 13.4% -->
    <g transform="translate(168.582986 218.725542)scale(0.18 -0.18)">
     <use xlink:href="#DejaVuSans-31"/>
     <use xlink:href="#DejaVuSans-33" x="63.623047"/>
     <use xlink:href="#DejaVuSans-2e" x="127.246094"/>
     <use xlink:href="#DejaVuSans-34" x="159.033203"/>
     <use xlink:href="#DejaVuSans-25" x="222.65625"/>
    </g>
   </g>
   <g id="text_15">
    <!-- 20.2% -->
    <g transform="translate(211.980255 255.88207)scale(0.18 -0.18)">
     <use xlink:href="#DejaVuSans-32"/>
     <use xlink:href="#DejaVuSans-30" x="63.623047"/>
     <use xlink:href="#DejaVuSans-2e" x="127.246094"/>
     <use xlink:href="#DejaVuSans-32" x="159.033203"/>
     <use xlink:href="#DejaVuSans-25" x="222.65625"/>
    </g>
   </g>
   <g id="text_16">
    <!-- 18.5% -->
    <g transform="translate(200.786529 404.50818)scale(0.18 -0.18)">
     <defs>
      <path id="DejaVuSans-38" d="M 2034 2216 
Q 1584 2216 1326 1975 
Q 1069 1734 1069 1313 
Q 1069 891 1326 650 
Q 1584 409 2034 409 
Q 2484 409 2743 651 
Q 3003 894 3003 1313 
Q 3003 1734 2745 1975 
Q 2488 2216 2034 2216 
z
M 1403 2484 
Q 997 2584 770 2862 
Q 544 3141 544 3541 
Q 544 4100 942 4425 
Q 1341 4750 2034 4750 
Q 2731 4750 3128 4425 
Q 3525 4100 3525 3541 
Q 3525 3141 3298 2862 
Q 3072 2584 2669 2484 
Q 3125 2378 3379 2068 
Q 3634 1759 3634 1313 
Q 3634 634 3220 271 
Q 2806 -91 2034 -91 
Q 1263 -91 848 271 
Q 434 634 434 1313 
Q 434 1759 690 2068 
Q 947 2378 1403 2484 
z
M 1172 3481 
Q 1172 3119 1398 2916 
Q 1625 2713 2034 2713 
Q 2441 2713 2670 2916 
Q 2900 3119 2900 3481 
Q 2900 3844 2670 4047 
Q 2441 4250 2034 4250 
Q 1625 4250 1398 4047 
Q 1172 3844 1172 3481 
z
" transform="scale(0.015625)"/>
     </defs>
     <use xlink:href="#DejaVuSans-31"/>
     <use xlink:href="#DejaVuSans-38" x="63.623047"/>
     <use xlink:href="#DejaVuSans-2e" x="127.246094"/>
     <use xlink:href="#DejaVuSans-35" x="159.033203"/>
     <use xlink:href="#DejaVuSans-25" x="222.65625"/>
    </g>
   </g>
   <g id="text_17">
    <!-- 16.8% -->
    <g transform="translate(189.937825 441.664708)scale(0.18 -0.18)">
     <use xlink:href="#DejaVuSans-31"/>
     <use xlink:href="#DejaVuSans-36" x="63.623047"/>
     <use xlink:href="#DejaVuSans-2e" x="127.246094"/>
     <use xlink:href="#DejaVuSans-38" x="159.033203"/>
     <use xlink:href="#DejaVuSans-25" x="222.65625"/>
    </g>
   </g>
   <g id="text_18">
    <!-- 14.0% -->
    <g transform="translate(172.450638 590.290819)scale(0.18 -0.18)">
     <use xlink:href="#DejaVuSans-31"/>
     <use xlink:href="#DejaVuSans-34" x="63.623047"/>
     <use xlink:href="#DejaVuSans-2e" x="127.246094"/>
     <use xlink:href="#DejaVuSans-30" x="159.033203"/>
     <use xlink:href="#DejaVuSans-25" x="222.65625"/>
    </g>
   </g>
   <g id="legend_1">
    <g id="patch_6">
     <path d="M 164.359375 30.396875 
L 204.359375 30.396875 
L 204.359375 16.396875 
L 164.359375 16.396875 
z
" style="fill: #c38820; stroke: #363636; stroke-width: 0.75; stroke-linejoin: miter"/>
    </g>
    <g id="text_19">
     <!-- Fasted -->
     <g transform="translate(210.359375 30.396875)scale(0.2 -0.2)">
      <use xlink:href="#DejaVuSans-46"/>
      <use xlink:href="#DejaVuSans-61" x="48.394531"/>
      <use xlink:href="#DejaVuSans-73" x="109.673828"/>
      <use xlink:href="#DejaVuSans-74" x="161.773438"/>
      <use xlink:href="#DejaVuSans-65" x="200.982422"/>
      <use xlink:href="#DejaVuSans-64" x="262.505859"/>
     </g>
    </g>
    <g id="patch_7">
     <path d="M 315.55625 30.396875 
L 355.55625 30.396875 
L 355.55625 16.396875 
L 315.55625 16.396875 
z
" style="fill: #176d9c; stroke: #363636; stroke-width: 0.75; stroke-linejoin: miter"/>
    </g>
    <g id="text_20">
     <!-- Random-fed -->
     <g transform="translate(361.55625 30.396875)scale(0.2 -0.2)">
      <defs>
       <path id="DejaVuSans-2d" d="M 313 2009 
L 1997 2009 
L 1997 1497 
L 313 1497 
L 313 2009 
z
" transform="scale(0.015625)"/>
       <path id="DejaVuSans-66" d="M 2375 4863 
L 2375 4384 
L 1825 4384 
Q 1516 4384 1395 4259 
Q 1275 4134 1275 3809 
L 1275 3500 
L 2222 3500 
L 2222 3053 
L 1275 3053 
L 1275 0 
L 697 0 
L 697 3053 
L 147 3053 
L 147 3500 
L 697 3500 
L 697 3744 
Q 697 4328 969 4595 
Q 1241 4863 1831 4863 
L 2375 4863 
z
" transform="scale(0.015625)"/>
      </defs>
      <use xlink:href="#DejaVuSans-52"/>
      <use xlink:href="#DejaVuSans-61" x="67.232422"/>
      <use xlink:href="#DejaVuSans-6e" x="128.511719"/>
      <use xlink:href="#DejaVuSans-64" x="191.890625"/>
      <use xlink:href="#DejaVuSans-6f" x="255.367188"/>
      <use xlink:href="#DejaVuSans-6d" x="316.548828"/>
      <use xlink:href="#DejaVuSans-2d" x="413.960938"/>
      <use xlink:href="#DejaVuSans-66" x="450.044922"/>
      <use xlink:href="#DejaVuSans-65" x="485.25"/>
      <use xlink:href="#DejaVuSans-64" x="546.773438"/>
     </g>
    </g>
   </g>
  </g>
 </g>
 <defs>
  <clipPath id="p5b170bb9c8">
   <rect x="111.719375" y="53.42825" width="446.4" height="543.6"/>
  </clipPath>
 </defs>
</svg>
