<?xml version="1.0" encoding="utf-8" standalone="no"?>
<!DOCTYPE svg PUBLIC "-//W3C//DTD SVG 1.1//EN"
  "http://www.w3.org/Graphics/SVG/1.1/DTD/svg11.dtd">
<svg xmlns:xlink="http://www.w3.org/1999/xlink" width="469.647496pt" height="258.203281pt" viewBox="0 0 469.647496 258.203281" xmlns="http://www.w3.org/2000/svg" version="1.1">
 <metadata>
  <rdf:RDF xmlns:dc="http://purl.org/dc/elements/1.1/" xmlns:cc="http://creativecommons.org/ns#" xmlns:rdf="http://www.w3.org/1999/02/22-rdf-syntax-ns#">
   <cc:Work>
    <dc:type rdf:resource="http://purl.org/dc/dcmitype/StillImage"/>
    <dc:date>2022-06-21T12:21:32.784742</dc:date>
    <dc:format>image/svg+xml</dc:format>
    <dc:creator>
     <cc:Agent>
      <dc:title>Matplotlib v3.5.2, https://matplotlib.org/</dc:title>
     </cc:Agent>
    </dc:creator>
   </cc:Work>
  </rdf:RDF>
 </metadata>
 <defs>
  <style type="text/css">*{stroke-linejoin: round; stroke-linecap: butt}</style>
 </defs>
 <g id="figure_1">
  <g id="patch_1">
   <path d="M 0 258.203281 
L 469.647496 258.203281 
L 469.647496 0 
L 0 0 
L 0 258.203281 
z
" style="fill: none"/>
  </g>
  <g id="axes_1">
   <g id="patch_2">
    <path d="M 11.64875 232.870781 
L 458.04875 232.870781 
L 458.04875 15.430781 
L 11.64875 15.430781 
z
" style="fill: #ffffff"/>
   </g>
   <g id="matplotlib.axis_1">
    <g id="xtick_1">
     <g id="line2d_1">
      <path d="M 11.64875 232.870781 
L 11.64875 15.430781 
" clip-path="url(#pe30e785d3b)" style="fill: none; stroke: #cccccc; stroke-width: 0.8; stroke-linecap: round"/>
     </g>
     <g id="line2d_2"/>
     <g id="text_1">
      <text style="fill: #262626; font: 16px 'sans-serif'; text-anchor: middle" x="11.64875" y="247.823281" transform="rotate(-0, 11.64875, 247.823281)">0</text>
     </g>
    </g>
    <g id="xtick_2">
     <g id="line2d_3">
      <path d="M 74.777499 232.870781 
L 74.777499 15.430781 
" clip-path="url(#pe30e785d3b)" style="fill: none; stroke: #cccccc; stroke-width: 0.8; stroke-linecap: round"/>
     </g>
     <g id="line2d_4"/>
     <g id="text_2">
      <text style="fill: #262626; font: 16px 'sans-serif'; text-anchor: middle" x="74.777499" y="247.823281" transform="rotate(-0, 74.777499, 247.823281)">10</text>
     </g>
    </g>
    <g id="xtick_3">
     <g id="line2d_5">
      <path d="M 137.906249 232.870781 
L 137.906249 15.430781 
" clip-path="url(#pe30e785d3b)" style="fill: none; stroke: #cccccc; stroke-width: 0.8; stroke-linecap: round"/>
     </g>
     <g id="line2d_6"/>
     <g id="text_3">
      <text style="fill: #262626; font: 16px 'sans-serif'; text-anchor: middle" x="137.906249" y="247.823281" transform="rotate(-0, 137.906249, 247.823281)">20</text>
     </g>
    </g>
    <g id="xtick_4">
     <g id="line2d_7">
      <path d="M 201.034998 232.870781 
L 201.034998 15.430781 
" clip-path="url(#pe30e785d3b)" style="fill: none; stroke: #cccccc; stroke-width: 0.8; stroke-linecap: round"/>
     </g>
     <g id="line2d_8"/>
     <g id="text_4">
      <text style="fill: #262626; font: 16px 'sans-serif'; text-anchor: middle" x="201.034998" y="247.823281" transform="rotate(-0, 201.034998, 247.823281)">30</text>
     </g>
    </g>
    <g id="xtick_5">
     <g id="line2d_9">
      <path d="M 264.163748 232.870781 
L 264.163748 15.430781 
" clip-path="url(#pe30e785d3b)" style="fill: none; stroke: #cccccc; stroke-width: 0.8; stroke-linecap: round"/>
     </g>
     <g id="line2d_10"/>
     <g id="text_5">
      <text style="fill: #262626; font: 16px 'sans-serif'; text-anchor: middle" x="264.163748" y="247.823281" transform="rotate(-0, 264.163748, 247.823281)">40</text>
     </g>
    </g>
    <g id="xtick_6">
     <g id="line2d_11">
      <path d="M 327.292497 232.870781 
L 327.292497 15.430781 
" clip-path="url(#pe30e785d3b)" style="fill: none; stroke: #cccccc; stroke-width: 0.8; stroke-linecap: round"/>
     </g>
     <g id="line2d_12"/>
     <g id="text_6">
      <text style="fill: #262626; font: 16px 'sans-serif'; text-anchor: middle" x="327.292497" y="247.823281" transform="rotate(-0, 327.292497, 247.823281)">50</text>
     </g>
    </g>
    <g id="xtick_7">
     <g id="line2d_13">
      <path d="M 390.421246 232.870781 
L 390.421246 15.430781 
" clip-path="url(#pe30e785d3b)" style="fill: none; stroke: #cccccc; stroke-width: 0.8; stroke-linecap: round"/>
     </g>
     <g id="line2d_14"/>
     <g id="text_7">
      <text style="fill: #262626; font: 16px 'sans-serif'; text-anchor: middle" x="390.421246" y="247.823281" transform="rotate(-0, 390.421246, 247.823281)">60</text>
     </g>
    </g>
    <g id="xtick_8">
     <g id="line2d_15">
      <path d="M 453.549996 232.870781 
L 453.549996 15.430781 
" clip-path="url(#pe30e785d3b)" style="fill: none; stroke: #cccccc; stroke-width: 0.8; stroke-linecap: round"/>
     </g>
     <g id="line2d_16"/>
     <g id="text_8">
      <text style="fill: #262626; font: 16px 'sans-serif'; text-anchor: middle" x="453.549996" y="247.823281" transform="rotate(-0, 453.549996, 247.823281)">70</text>
     </g>
    </g>
   </g>
   <g id="matplotlib.axis_2"/>
   <g id="patch_3">
    <path d="M 11.64875 124.150781 
L 11.64875 124.150781 
L 11.64875 124.150781 
L 11.64875 124.150781 
z
" clip-path="url(#pe30e785d3b)" style="fill: #c38820; stroke: #363636; stroke-width: 0.75; stroke-linejoin: miter"/>
   </g>
   <g id="PolyCollection_1">
    <defs>
     <path id="m7a0b9422ca" d="M 19.29488 -134.0525 
L 19.29488 -135.950601 
L 23.512294 -136.527902 
L 27.729708 -137.254538 
L 31.947122 -138.171967 
L 36.164536 -139.331051 
L 40.38195 -140.790004 
L 44.599364 -142.610314 
L 48.816778 -144.850915 
L 53.034192 -147.561419 
L 57.251606 -150.775525 
L 61.46902 -154.505765 
L 65.686434 -158.740383 
L 69.903848 -163.442448 
L 74.121262 -168.550724 
L 78.338676 -173.98155 
L 82.55609 -179.6313 
L 86.773504 -185.379649 
L 90.990918 -191.094293 
L 95.208332 -196.637515 
L 99.425746 -201.874011 
L 103.64316 -206.678167 
L 107.860574 -210.938514 
L 112.077988 -214.557952 
L 116.295402 -217.450464 
L 120.512816 -219.537496 
L 124.73023 -220.748402 
L 128.947644 -221.0285 
L 133.165058 -220.355183 
L 137.382472 -218.75843 
L 141.599886 -216.338738 
L 145.817301 -213.274529 
L 150.034715 -209.813228 
L 154.252129 -206.244815 
L 158.469543 -202.862162 
L 162.686957 -199.916923 
L 166.904371 -197.581493 
L 171.121785 -195.92603 
L 175.339199 -194.915287 
L 179.556613 -194.424528 
L 183.774027 -194.269015 
L 187.991441 -194.238932 
L 192.208855 -194.131838 
L 196.426269 -193.777154 
L 200.643683 -193.050657 
L 204.861097 -191.879843 
L 209.078511 -190.242428 
L 213.295925 -188.160177 
L 217.513339 -185.689379 
L 221.730753 -182.908663 
L 225.948167 -179.905084 
L 230.165581 -176.760433 
L 234.382995 -173.540671 
L 238.600409 -170.291378 
L 242.817823 -167.040695 
L 247.035237 -163.808721 
L 251.252651 -160.619842 
L 255.470065 -157.513118 
L 259.687479 -154.546371 
L 263.904893 -151.791914 
L 268.122307 -149.324893 
L 272.339721 -147.207887 
L 276.557135 -145.476632 
L 280.774549 -144.131179 
L 284.991963 -143.134896 
L 289.209377 -142.421281 
L 293.426791 -141.906393 
L 297.644205 -141.503565 
L 301.861619 -141.136995 
L 306.079033 -140.751578 
L 310.296447 -140.317634 
L 314.513861 -139.830453 
L 318.731275 -139.305589 
L 322.948689 -138.771461 
L 327.166103 -138.261009 
L 331.383517 -137.803983 
L 335.600931 -137.421056 
L 339.818345 -137.120451 
L 344.03576 -136.897262 
L 348.253174 -136.735265 
L 352.470588 -136.610669 
L 356.688002 -136.497072 
L 360.905416 -136.370669 
L 365.12283 -136.214726 
L 369.340244 -136.022438 
L 373.557658 -135.797606 
L 377.775072 -135.553105 
L 381.992486 -135.30763 
L 386.2099 -135.081603 
L 390.427314 -134.893227 
L 394.644728 -134.755421 
L 398.862142 -134.674065 
L 403.079556 -134.647537 
L 407.29697 -134.667377 
L 411.514384 -134.719783 
L 415.731798 -134.787726 
L 419.949212 -134.853441 
L 424.166626 -134.901031 
L 428.38404 -134.918773 
L 432.601454 -134.900708 
L 436.818868 -134.847149 
L 436.818868 -134.0525 
L 436.818868 -134.0525 
L 432.601454 -134.0525 
L 428.38404 -134.0525 
L 424.166626 -134.0525 
L 419.949212 -134.0525 
L 415.731798 -134.0525 
L 411.514384 -134.0525 
L 407.29697 -134.0525 
L 403.079556 -134.0525 
L 398.862142 -134.0525 
L 394.644728 -134.0525 
L 390.427314 -134.0525 
L 386.2099 -134.0525 
L 381.992486 -134.0525 
L 377.775072 -134.0525 
L 373.557658 -134.0525 
L 369.340244 -134.0525 
L 365.12283 -134.0525 
L 360.905416 -134.0525 
L 356.688002 -134.0525 
L 352.470588 -134.0525 
L 348.253174 -134.0525 
L 344.03576 -134.0525 
L 339.818345 -134.0525 
L 335.600931 -134.0525 
L 331.383517 -134.0525 
L 327.166103 -134.0525 
L 322.948689 -134.0525 
L 318.731275 -134.0525 
L 314.513861 -134.0525 
L 310.296447 -134.0525 
L 306.079033 -134.0525 
L 301.861619 -134.0525 
L 297.644205 -134.0525 
L 293.426791 -134.0525 
L 289.209377 -134.0525 
L 284.991963 -134.0525 
L 280.774549 -134.0525 
L 276.557135 -134.0525 
L 272.339721 -134.0525 
L 268.122307 -134.0525 
L 263.904893 -134.0525 
L 259.687479 -134.0525 
L 255.470065 -134.0525 
L 251.252651 -134.0525 
L 247.035237 -134.0525 
L 242.817823 -134.0525 
L 238.600409 -134.0525 
L 234.382995 -134.0525 
L 230.165581 -134.0525 
L 225.948167 -134.0525 
L 221.730753 -134.0525 
L 217.513339 -134.0525 
L 213.295925 -134.0525 
L 209.078511 -134.0525 
L 204.861097 -134.0525 
L 200.643683 -134.0525 
L 196.426269 -134.0525 
L 192.208855 -134.0525 
L 187.991441 -134.0525 
L 183.774027 -134.0525 
L 179.556613 -134.0525 
L 175.339199 -134.0525 
L 171.121785 -134.0525 
L 166.904371 -134.0525 
L 162.686957 -134.0525 
L 158.469543 -134.0525 
L 154.252129 -134.0525 
L 150.034715 -134.0525 
L 145.817301 -134.0525 
L 141.599886 -134.0525 
L 137.382472 -134.0525 
L 133.165058 -134.0525 
L 128.947644 -134.0525 
L 124.73023 -134.0525 
L 120.512816 -134.0525 
L 116.295402 -134.0525 
L 112.077988 -134.0525 
L 107.860574 -134.0525 
L 103.64316 -134.0525 
L 99.425746 -134.0525 
L 95.208332 -134.0525 
L 90.990918 -134.0525 
L 86.773504 -134.0525 
L 82.55609 -134.0525 
L 78.338676 -134.0525 
L 74.121262 -134.0525 
L 69.903848 -134.0525 
L 65.686434 -134.0525 
L 61.46902 -134.0525 
L 57.251606 -134.0525 
L 53.034192 -134.0525 
L 48.816778 -134.0525 
L 44.599364 -134.0525 
L 40.38195 -134.0525 
L 36.164536 -134.0525 
L 31.947122 -134.0525 
L 27.729708 -134.0525 
L 23.512294 -134.0525 
L 19.29488 -134.0525 
z
" style="stroke: #363636; stroke-width: 1.5"/>
    </defs>
    <g clip-path="url(#pe30e785d3b)">
     <use xlink:href="#m7a0b9422ca" x="0" y="258.203281" style="fill: #c38820; stroke: #363636; stroke-width: 1.5"/>
    </g>
   </g>
   <g id="patch_4">
    <path d="M 11.64875 124.150781 
L 11.64875 124.150781 
L 11.64875 124.150781 
L 11.64875 124.150781 
z
" clip-path="url(#pe30e785d3b)" style="fill: #176d9c; stroke: #363636; stroke-width: 0.75; stroke-linejoin: miter"/>
   </g>
   <g id="PolyCollection_2">
    <defs>
     <path id="mf26bcd1bf2" d="M 12.221228 -125.779147 
L 12.221228 -134.0525 
L 15.540566 -134.0525 
L 18.859903 -134.0525 
L 22.179241 -134.0525 
L 25.498579 -134.0525 
L 28.817917 -134.0525 
L 32.137254 -134.0525 
L 35.456592 -134.0525 
L 38.77593 -134.0525 
L 42.095268 -134.0525 
L 45.414605 -134.0525 
L 48.733943 -134.0525 
L 52.053281 -134.0525 
L 55.372619 -134.0525 
L 58.691957 -134.0525 
L 62.011294 -134.0525 
L 65.330632 -134.0525 
L 68.64997 -134.0525 
L 71.969308 -134.0525 
L 75.288645 -134.0525 
L 78.607983 -134.0525 
L 81.927321 -134.0525 
L 85.246659 -134.0525 
L 88.565996 -134.0525 
L 91.885334 -134.0525 
L 95.204672 -134.0525 
L 98.52401 -134.0525 
L 101.843347 -134.0525 
L 105.162685 -134.0525 
L 108.482023 -134.0525 
L 111.801361 -134.0525 
L 115.120698 -134.0525 
L 118.440036 -134.0525 
L 121.759374 -134.0525 
L 125.078712 -134.0525 
L 128.39805 -134.0525 
L 131.717387 -134.0525 
L 135.036725 -134.0525 
L 138.356063 -134.0525 
L 141.675401 -134.0525 
L 144.994738 -134.0525 
L 148.314076 -134.0525 
L 151.633414 -134.0525 
L 154.952752 -134.0525 
L 158.272089 -134.0525 
L 161.591427 -134.0525 
L 164.910765 -134.0525 
L 168.230103 -134.0525 
L 171.54944 -134.0525 
L 174.868778 -134.0525 
L 178.188116 -134.0525 
L 181.507454 -134.0525 
L 184.826791 -134.0525 
L 188.146129 -134.0525 
L 191.465467 -134.0525 
L 194.784805 -134.0525 
L 198.104143 -134.0525 
L 201.42348 -134.0525 
L 204.742818 -134.0525 
L 208.062156 -134.0525 
L 211.381494 -134.0525 
L 214.700831 -134.0525 
L 218.020169 -134.0525 
L 221.339507 -134.0525 
L 224.658845 -134.0525 
L 227.978182 -134.0525 
L 231.29752 -134.0525 
L 234.616858 -134.0525 
L 237.936196 -134.0525 
L 241.255533 -134.0525 
L 244.574871 -134.0525 
L 247.894209 -134.0525 
L 251.213547 -134.0525 
L 254.532884 -134.0525 
L 257.852222 -134.0525 
L 261.17156 -134.0525 
L 264.490898 -134.0525 
L 267.810236 -134.0525 
L 271.129573 -134.0525 
L 274.448911 -134.0525 
L 277.768249 -134.0525 
L 281.087587 -134.0525 
L 284.406924 -134.0525 
L 287.726262 -134.0525 
L 291.0456 -134.0525 
L 294.364938 -134.0525 
L 297.684275 -134.0525 
L 301.003613 -134.0525 
L 304.322951 -134.0525 
L 307.642289 -134.0525 
L 310.961626 -134.0525 
L 314.280964 -134.0525 
L 317.600302 -134.0525 
L 320.91964 -134.0525 
L 324.238977 -134.0525 
L 327.558315 -134.0525 
L 330.877653 -134.0525 
L 334.196991 -134.0525 
L 337.516329 -134.0525 
L 340.835666 -134.0525 
L 340.835666 -133.324979 
L 340.835666 -133.324979 
L 337.516329 -133.250727 
L 334.196991 -133.19211 
L 330.877653 -133.149237 
L 327.558315 -133.11975 
L 324.238977 -133.099552 
L 320.91964 -133.083864 
L 317.600302 -133.068188 
L 314.280964 -133.048822 
L 310.961626 -133.022763 
L 307.642289 -132.987115 
L 304.322951 -132.938397 
L 301.003613 -132.87226 
L 297.684275 -132.783997 
L 294.364938 -132.669947 
L 291.0456 -132.52944 
L 287.726262 -132.366621 
L 284.406924 -132.191316 
L 281.087587 -132.018308 
L 277.768249 -131.864807 
L 274.448911 -131.746528 
L 271.129573 -131.673285 
L 267.810236 -131.645315 
L 264.490898 -131.651422 
L 261.17156 -131.669586 
L 257.852222 -131.670002 
L 254.532884 -131.619859 
L 251.213547 -131.48871 
L 247.894209 -131.253182 
L 244.574871 -130.900051 
L 241.255533 -130.427202 
L 237.936196 -129.842593 
L 234.616858 -129.161831 
L 231.29752 -128.405199 
L 227.978182 -127.594962 
L 224.658845 -126.75348 
L 221.339507 -125.902276 
L 218.020169 -125.061882 
L 214.700831 -124.252041 
L 211.381494 -123.491864 
L 208.062156 -122.799664 
L 204.742818 -122.192383 
L 201.42348 -121.684709 
L 198.104143 -121.287991 
L 194.784805 -121.009046 
L 191.465467 -120.848867 
L 188.146129 -120.801194 
L 184.826791 -120.851046 
L 181.507454 -120.973427 
L 178.188116 -121.13259 
L 174.868778 -121.282244 
L 171.54944 -121.366921 
L 168.230103 -121.32442 
L 164.910765 -121.088982 
L 161.591427 -120.594741 
L 158.272089 -119.779161 
L 154.952752 -118.58643 
L 151.633414 -116.971114 
L 148.314076 -114.902334 
L 144.994738 -112.368504 
L 141.675401 -109.382024 
L 138.356063 -105.982775 
L 135.036725 -102.238881 
L 131.717387 -98.243423 
L 128.39805 -94.106593 
L 125.078712 -89.944043 
L 121.759374 -85.863476 
L 118.440036 -81.952401 
L 115.120698 -78.269891 
L 111.801361 -74.844177 
L 108.482023 -71.676114 
L 105.162685 -68.74678 
L 101.843347 -66.026381 
L 98.52401 -63.481797 
L 95.204672 -61.081441 
L 91.885334 -58.79801 
L 88.565996 -56.611246 
L 85.246659 -54.513071 
L 81.927321 -52.516263 
L 78.607983 -50.665484 
L 75.288645 -49.047173 
L 71.969308 -47.793531 
L 68.64997 -47.0765 
L 65.330632 -47.09005 
L 62.011294 -48.022652 
L 58.691957 -50.025079 
L 55.372619 -53.180608 
L 52.053281 -57.484463 
L 48.733943 -62.837161 
L 45.414605 -69.052977 
L 42.095268 -75.881249 
L 38.77593 -83.035672 
L 35.456592 -90.225718 
L 32.137254 -97.184837 
L 28.817917 -103.691701 
L 25.498579 -109.582762 
L 22.179241 -114.756241 
L 18.859903 -119.168932 
L 15.540566 -122.827885 
L 12.221228 -125.779147 
z
" style="stroke: #363636; stroke-width: 1.5"/>
    </defs>
    <g clip-path="url(#pe30e785d3b)">
     <use xlink:href="#mf26bcd1bf2" x="0" y="258.203281" style="fill: #176d9c; stroke: #363636; stroke-width: 1.5"/>
    </g>
   </g>
   <g id="line2d_17">
    <path d="M 161.305965 124.150781 
L 161.305965 26.302781 
" clip-path="url(#pe30e785d3b)" style="fill: none; stroke: #000000; stroke-width: 3"/>
   </g>
   <g id="line2d_18">
    <path d="M 96.362483 211.126781 
L 96.362483 124.150781 
" clip-path="url(#pe30e785d3b)" style="fill: none; stroke: #000000; stroke-width: 3"/>
   </g>
   <g id="text_9">
    <text style="fill: #262626; font: 18px 'sans-serif'; text-anchor: middle" x="161.305965" y="20.084063" transform="rotate(-0, 161.305965, 20.084063)">23.7%</text>
   </g>
   <g id="text_10">
    <text style="fill: #262626; font: 18px 'sans-serif'; text-anchor: middle" x="96.362483" y="229.913663" transform="rotate(-0, 96.362483, 229.913663)">13.4%</text>
   </g>
  </g>
 </g>
 <defs>
  <clipPath id="pe30e785d3b">
   <rect x="11.64875" y="15.430781" width="446.4" height="217.44"/>
  </clipPath>
 </defs>
</svg>
