<?xml version="1.0" encoding="utf-8" standalone="no"?>
<!DOCTYPE svg PUBLIC "-//W3C//DTD SVG 1.1//EN"
  "http://www.w3.org/Graphics/SVG/1.1/DTD/svg11.dtd">
<svg xmlns:xlink="http://www.w3.org/1999/xlink" width="465.24875pt" height="258.203281pt" viewBox="0 0 465.24875 258.203281" xmlns="http://www.w3.org/2000/svg" version="1.1">
 <metadata>
  <rdf:RDF xmlns:dc="http://purl.org/dc/elements/1.1/" xmlns:cc="http://creativecommons.org/ns#" xmlns:rdf="http://www.w3.org/1999/02/22-rdf-syntax-ns#">
   <cc:Work>
    <dc:type rdf:resource="http://purl.org/dc/dcmitype/StillImage"/>
    <dc:date>2022-06-21T12:21:46.779754</dc:date>
    <dc:format>image/svg+xml</dc:format>
    <dc:creator>
     <cc:Agent>
      <dc:title>Matplotlib v3.5.2, https://matplotlib.org/</dc:title>
     </cc:Agent>
    </dc:creator>
   </cc:Work>
  </rdf:RDF>
 </metadata>
 <defs>
  <style type="text/css">*{stroke-linejoin: round; stroke-linecap: butt}</style>
 </defs>
 <g id="figure_1">
  <g id="patch_1">
   <path d="M 0 258.203281 
L 465.24875 258.203281 
L 465.24875 0 
L 0 0 
L 0 258.203281 
z
" style="fill: none"/>
  </g>
  <g id="axes_1">
   <g id="patch_2">
    <path d="M 11.64875 232.870781 
L 458.04875 232.870781 
L 458.04875 15.430781 
L 11.64875 15.430781 
z
" style="fill: #ffffff"/>
   </g>
   <g id="matplotlib.axis_1">
    <g id="xtick_1">
     <g id="line2d_1">
      <path d="M 11.64875 232.870781 
L 11.64875 15.430781 
" clip-path="url(#pdd7493a668)" style="fill: none; stroke: #cccccc; stroke-width: 0.8; stroke-linecap: round"/>
     </g>
     <g id="line2d_2"/>
     <g id="text_1">
      <text style="fill: #262626; font: 16px 'sans-serif'; text-anchor: middle" x="11.64875" y="247.823281" transform="rotate(-0, 11.64875, 247.823281)">0</text>
     </g>
    </g>
    <g id="xtick_2">
     <g id="line2d_3">
      <path d="M 71.604686 232.870781 
L 71.604686 15.430781 
" clip-path="url(#pdd7493a668)" style="fill: none; stroke: #cccccc; stroke-width: 0.8; stroke-linecap: round"/>
     </g>
     <g id="line2d_4"/>
     <g id="text_2">
      <text style="fill: #262626; font: 16px 'sans-serif'; text-anchor: middle" x="71.604686" y="247.823281" transform="rotate(-0, 71.604686, 247.823281)">10</text>
     </g>
    </g>
    <g id="xtick_3">
     <g id="line2d_5">
      <path d="M 131.560623 232.870781 
L 131.560623 15.430781 
" clip-path="url(#pdd7493a668)" style="fill: none; stroke: #cccccc; stroke-width: 0.8; stroke-linecap: round"/>
     </g>
     <g id="line2d_6"/>
     <g id="text_3">
      <text style="fill: #262626; font: 16px 'sans-serif'; text-anchor: middle" x="131.560623" y="247.823281" transform="rotate(-0, 131.560623, 247.823281)">20</text>
     </g>
    </g>
    <g id="xtick_4">
     <g id="line2d_7">
      <path d="M 191.516559 232.870781 
L 191.516559 15.430781 
" clip-path="url(#pdd7493a668)" style="fill: none; stroke: #cccccc; stroke-width: 0.8; stroke-linecap: round"/>
     </g>
     <g id="line2d_8"/>
     <g id="text_4">
      <text style="fill: #262626; font: 16px 'sans-serif'; text-anchor: middle" x="191.516559" y="247.823281" transform="rotate(-0, 191.516559, 247.823281)">30</text>
     </g>
    </g>
    <g id="xtick_5">
     <g id="line2d_9">
      <path d="M 251.472496 232.870781 
L 251.472496 15.430781 
" clip-path="url(#pdd7493a668)" style="fill: none; stroke: #cccccc; stroke-width: 0.8; stroke-linecap: round"/>
     </g>
     <g id="line2d_10"/>
     <g id="text_5">
      <text style="fill: #262626; font: 16px 'sans-serif'; text-anchor: middle" x="251.472496" y="247.823281" transform="rotate(-0, 251.472496, 247.823281)">40</text>
     </g>
    </g>
    <g id="xtick_6">
     <g id="line2d_11">
      <path d="M 311.428432 232.870781 
L 311.428432 15.430781 
" clip-path="url(#pdd7493a668)" style="fill: none; stroke: #cccccc; stroke-width: 0.8; stroke-linecap: round"/>
     </g>
     <g id="line2d_12"/>
     <g id="text_6">
      <text style="fill: #262626; font: 16px 'sans-serif'; text-anchor: middle" x="311.428432" y="247.823281" transform="rotate(-0, 311.428432, 247.823281)">50</text>
     </g>
    </g>
    <g id="xtick_7">
     <g id="line2d_13">
      <path d="M 371.384369 232.870781 
L 371.384369 15.430781 
" clip-path="url(#pdd7493a668)" style="fill: none; stroke: #cccccc; stroke-width: 0.8; stroke-linecap: round"/>
     </g>
     <g id="line2d_14"/>
     <g id="text_7">
      <text style="fill: #262626; font: 16px 'sans-serif'; text-anchor: middle" x="371.384369" y="247.823281" transform="rotate(-0, 371.384369, 247.823281)">60</text>
     </g>
    </g>
    <g id="xtick_8">
     <g id="line2d_15">
      <path d="M 431.340305 232.870781 
L 431.340305 15.430781 
" clip-path="url(#pdd7493a668)" style="fill: none; stroke: #cccccc; stroke-width: 0.8; stroke-linecap: round"/>
     </g>
     <g id="line2d_16"/>
     <g id="text_8">
      <text style="fill: #262626; font: 16px 'sans-serif'; text-anchor: middle" x="431.340305" y="247.823281" transform="rotate(-0, 431.340305, 247.823281)">70</text>
     </g>
    </g>
   </g>
   <g id="matplotlib.axis_2"/>
   <g id="patch_3">
    <path d="M 11.64875 124.150781 
L 11.64875 124.150781 
L 11.64875 124.150781 
L 11.64875 124.150781 
z
" clip-path="url(#pdd7493a668)" style="fill: #c38820; stroke: #363636; stroke-width: 0.75; stroke-linejoin: miter"/>
   </g>
   <g id="PolyCollection_1">
    <defs>
     <path id="m7dfe0116db" d="M 18.756602 -134.0525 
L 18.756602 -153.968413 
L 22.982596 -158.572726 
L 27.208591 -163.714513 
L 31.434586 -169.32503 
L 35.66058 -175.303345 
L 39.886575 -181.518476 
L 44.11257 -187.814108 
L 48.338564 -194.015757 
L 52.564559 -199.939962 
L 56.790554 -205.404794 
L 61.016549 -210.24073 
L 65.242543 -214.300825 
L 69.468538 -217.469124 
L 73.694533 -219.666455 
L 77.920527 -220.853129 
L 82.146522 -221.0285 
L 86.372517 -220.227811 
L 90.598511 -218.517089 
L 94.824506 -215.987019 
L 99.050501 -212.746711 
L 103.276495 -208.917989 
L 107.50249 -204.630576 
L 111.728485 -200.01813 
L 115.95448 -195.214906 
L 120.180474 -190.352641 
L 124.406469 -185.557364 
L 128.632464 -180.945957 
L 132.858458 -176.622551 
L 137.084453 -172.675006 
L 141.310448 -169.171927 
L 145.536442 -166.160638 
L 149.762437 -163.666512 
L 153.988432 -161.693852 
L 158.214427 -160.228295 
L 162.440421 -159.240473 
L 166.666416 -158.6904 
L 170.892411 -158.531945 
L 175.118405 -158.716664 
L 179.3444 -159.196397 
L 183.570395 -159.924244 
L 187.796389 -160.85389 
L 192.022384 -161.937606 
L 196.248379 -163.12363 
L 200.474373 -164.353788 
L 204.700368 -165.562273 
L 208.926363 -166.67629 
L 213.152358 -167.618889 
L 217.378352 -168.313849 
L 221.604347 -168.692004 
L 225.830342 -168.698039 
L 230.056336 -168.296649 
L 234.282331 -167.47698 
L 238.508326 -166.254603 
L 242.73432 -164.670635 
L 246.960315 -162.788119 
L 251.18631 -160.686182 
L 255.412304 -158.452792 
L 259.638299 -156.177081 
L 263.864294 -153.942157 
L 268.090289 -151.819178 
L 272.316283 -149.863206 
L 276.542278 -148.111059 
L 280.768273 -146.581129 
L 284.994267 -145.274905 
L 289.220262 -144.179782 
L 293.446257 -143.272691 
L 297.672251 -142.524044 
L 301.898246 -141.901571 
L 306.124241 -141.373663 
L 310.350235 -140.912005 
L 314.57623 -140.493337 
L 318.802225 -140.100332 
L 323.02822 -139.721676 
L 327.254214 -139.351493 
L 331.480209 -138.988321 
L 335.706204 -138.633851 
L 339.932198 -138.291643 
L 344.158193 -137.965968 
L 348.384188 -137.660904 
L 352.610182 -137.379739 
L 356.836177 -137.124672 
L 361.062172 -136.896782 
L 365.288166 -136.696174 
L 369.514161 -136.522217 
L 373.740156 -136.37378 
L 377.966151 -136.249403 
L 382.192145 -136.147342 
L 386.41814 -136.06551 
L 390.644135 -136.001321 
L 394.870129 -135.951522 
L 399.096124 -135.912074 
L 403.322119 -135.878173 
L 407.548113 -135.844448 
L 411.774108 -135.805351 
L 416.000103 -135.755691 
L 420.226097 -135.691235 
L 424.452092 -135.609253 
L 428.678087 -135.508908 
L 432.904082 -135.391393 
L 437.130076 -135.259792 
L 437.130076 -134.0525 
L 437.130076 -134.0525 
L 432.904082 -134.0525 
L 428.678087 -134.0525 
L 424.452092 -134.0525 
L 420.226097 -134.0525 
L 416.000103 -134.0525 
L 411.774108 -134.0525 
L 407.548113 -134.0525 
L 403.322119 -134.0525 
L 399.096124 -134.0525 
L 394.870129 -134.0525 
L 390.644135 -134.0525 
L 386.41814 -134.0525 
L 382.192145 -134.0525 
L 377.966151 -134.0525 
L 373.740156 -134.0525 
L 369.514161 -134.0525 
L 365.288166 -134.0525 
L 361.062172 -134.0525 
L 356.836177 -134.0525 
L 352.610182 -134.0525 
L 348.384188 -134.0525 
L 344.158193 -134.0525 
L 339.932198 -134.0525 
L 335.706204 -134.0525 
L 331.480209 -134.0525 
L 327.254214 -134.0525 
L 323.02822 -134.0525 
L 318.802225 -134.0525 
L 314.57623 -134.0525 
L 310.350235 -134.0525 
L 306.124241 -134.0525 
L 301.898246 -134.0525 
L 297.672251 -134.0525 
L 293.446257 -134.0525 
L 289.220262 -134.0525 
L 284.994267 -134.0525 
L 280.768273 -134.0525 
L 276.542278 -134.0525 
L 272.316283 -134.0525 
L 268.090289 -134.0525 
L 263.864294 -134.0525 
L 259.638299 -134.0525 
L 255.412304 -134.0525 
L 251.18631 -134.0525 
L 246.960315 -134.0525 
L 242.73432 -134.0525 
L 238.508326 -134.0525 
L 234.282331 -134.0525 
L 230.056336 -134.0525 
L 225.830342 -134.0525 
L 221.604347 -134.0525 
L 217.378352 -134.0525 
L 213.152358 -134.0525 
L 208.926363 -134.0525 
L 204.700368 -134.0525 
L 200.474373 -134.0525 
L 196.248379 -134.0525 
L 192.022384 -134.0525 
L 187.796389 -134.0525 
L 183.570395 -134.0525 
L 179.3444 -134.0525 
L 175.118405 -134.0525 
L 170.892411 -134.0525 
L 166.666416 -134.0525 
L 162.440421 -134.0525 
L 158.214427 -134.0525 
L 153.988432 -134.0525 
L 149.762437 -134.0525 
L 145.536442 -134.0525 
L 141.310448 -134.0525 
L 137.084453 -134.0525 
L 132.858458 -134.0525 
L 128.632464 -134.0525 
L 124.406469 -134.0525 
L 120.180474 -134.0525 
L 115.95448 -134.0525 
L 111.728485 -134.0525 
L 107.50249 -134.0525 
L 103.276495 -134.0525 
L 99.050501 -134.0525 
L 94.824506 -134.0525 
L 90.598511 -134.0525 
L 86.372517 -134.0525 
L 82.146522 -134.0525 
L 77.920527 -134.0525 
L 73.694533 -134.0525 
L 69.468538 -134.0525 
L 65.242543 -134.0525 
L 61.016549 -134.0525 
L 56.790554 -134.0525 
L 52.564559 -134.0525 
L 48.338564 -134.0525 
L 44.11257 -134.0525 
L 39.886575 -134.0525 
L 35.66058 -134.0525 
L 31.434586 -134.0525 
L 27.208591 -134.0525 
L 22.982596 -134.0525 
L 18.756602 -134.0525 
z
" style="stroke: #363636; stroke-width: 1.5"/>
    </defs>
    <g clip-path="url(#pdd7493a668)">
     <use xlink:href="#m7dfe0116db" x="0" y="258.203281" style="fill: #c38820; stroke: #363636; stroke-width: 1.5"/>
    </g>
   </g>
   <g id="patch_4">
    <path d="M 11.64875 124.150781 
L 11.64875 124.150781 
L 11.64875 124.150781 
L 11.64875 124.150781 
z
" clip-path="url(#pdd7493a668)" style="fill: #176d9c; stroke: #363636; stroke-width: 0.75; stroke-linejoin: miter"/>
   </g>
   <g id="PolyCollection_2">
    <defs>
     <path id="m08f949f644" d="M 25.626279 -124.570308 
L 25.626279 -134.0525 
L 29.664191 -134.0525 
L 33.702103 -134.0525 
L 37.740014 -134.0525 
L 41.777926 -134.0525 
L 45.815837 -134.0525 
L 49.853749 -134.0525 
L 53.89166 -134.0525 
L 57.929572 -134.0525 
L 61.967483 -134.0525 
L 66.005395 -134.0525 
L 70.043307 -134.0525 
L 74.081218 -134.0525 
L 78.11913 -134.0525 
L 82.157041 -134.0525 
L 86.194953 -134.0525 
L 90.232864 -134.0525 
L 94.270776 -134.0525 
L 98.308688 -134.0525 
L 102.346599 -134.0525 
L 106.384511 -134.0525 
L 110.422422 -134.0525 
L 114.460334 -134.0525 
L 118.498245 -134.0525 
L 122.536157 -134.0525 
L 126.574068 -134.0525 
L 130.61198 -134.0525 
L 134.649892 -134.0525 
L 138.687803 -134.0525 
L 142.725715 -134.0525 
L 146.763626 -134.0525 
L 150.801538 -134.0525 
L 154.839449 -134.0525 
L 158.877361 -134.0525 
L 162.915272 -134.0525 
L 166.953184 -134.0525 
L 170.991096 -134.0525 
L 175.029007 -134.0525 
L 179.066919 -134.0525 
L 183.10483 -134.0525 
L 187.142742 -134.0525 
L 191.180653 -134.0525 
L 195.218565 -134.0525 
L 199.256477 -134.0525 
L 203.294388 -134.0525 
L 207.3323 -134.0525 
L 211.370211 -134.0525 
L 215.408123 -134.0525 
L 219.446034 -134.0525 
L 223.483946 -134.0525 
L 227.521857 -134.0525 
L 231.559769 -134.0525 
L 235.597681 -134.0525 
L 239.635592 -134.0525 
L 243.673504 -134.0525 
L 247.711415 -134.0525 
L 251.749327 -134.0525 
L 255.787238 -134.0525 
L 259.82515 -134.0525 
L 263.863061 -134.0525 
L 267.900973 -134.0525 
L 271.938885 -134.0525 
L 275.976796 -134.0525 
L 280.014708 -134.0525 
L 284.052619 -134.0525 
L 288.090531 -134.0525 
L 292.128442 -134.0525 
L 296.166354 -134.0525 
L 300.204266 -134.0525 
L 304.242177 -134.0525 
L 308.280089 -134.0525 
L 312.318 -134.0525 
L 316.355912 -134.0525 
L 320.393823 -134.0525 
L 324.431735 -134.0525 
L 328.469646 -134.0525 
L 332.507558 -134.0525 
L 336.54547 -134.0525 
L 340.583381 -134.0525 
L 344.621293 -134.0525 
L 348.659204 -134.0525 
L 352.697116 -134.0525 
L 356.735027 -134.0525 
L 360.772939 -134.0525 
L 364.81085 -134.0525 
L 368.848762 -134.0525 
L 372.886674 -134.0525 
L 376.924585 -134.0525 
L 380.962497 -134.0525 
L 385.000408 -134.0525 
L 389.03832 -134.0525 
L 393.076231 -134.0525 
L 397.114143 -134.0525 
L 401.152055 -134.0525 
L 405.189966 -134.0525 
L 409.227878 -134.0525 
L 413.265789 -134.0525 
L 417.303701 -134.0525 
L 421.341612 -134.0525 
L 425.379524 -134.0525 
L 425.379524 -133.284923 
L 425.379524 -133.284923 
L 421.341612 -133.167334 
L 417.303701 -133.051468 
L 413.265789 -132.93882 
L 409.227878 -132.830945 
L 405.189966 -132.730355 
L 401.152055 -132.641206 
L 397.114143 -132.569338 
L 393.076231 -132.5214 
L 389.03832 -132.503199 
L 385.000408 -132.517682 
L 380.962497 -132.563268 
L 376.924585 -132.633126 
L 372.886674 -132.715801 
L 368.848762 -132.797105 
L 364.81085 -132.862807 
L 360.772939 -132.901413 
L 356.735027 -132.906294 
L 352.697116 -132.876653 
L 348.659204 -132.817172 
L 344.621293 -132.736507 
L 340.583381 -132.645092 
L 336.54547 -132.552772 
L 332.507558 -132.466769 
L 328.469646 -132.390278 
L 324.431735 -132.321844 
L 320.393823 -132.255461 
L 316.355912 -132.181257 
L 312.318 -132.08661 
L 308.280089 -131.957558 
L 304.242177 -131.780384 
L 300.204266 -131.543294 
L 296.166354 -131.238036 
L 292.128442 -130.861314 
L 288.090531 -130.415803 
L 284.052619 -129.910637 
L 280.014708 -129.36129 
L 275.976796 -128.788859 
L 271.938885 -128.218752 
L 267.900973 -127.678795 
L 263.863061 -127.196668 
L 259.82515 -126.796638 
L 255.787238 -126.495683 
L 251.749327 -126.299373 
L 247.711415 -126.198198 
L 243.673504 -126.165225 
L 239.635592 -126.155917 
L 235.597681 -126.110572 
L 231.559769 -125.959293 
L 227.521857 -125.628797 
L 223.483946 -125.050035 
L 219.446034 -124.165483 
L 215.408123 -122.935244 
L 211.370211 -121.341456 
L 207.3323 -119.390838 
L 203.294388 -117.115407 
L 199.256477 -114.571424 
L 195.218565 -111.836568 
L 191.180653 -109.005374 
L 187.142742 -106.183036 
L 183.10483 -103.477849 
L 179.066919 -100.992744 
L 175.029007 -98.81639 
L 170.991096 -97.014382 
L 166.953184 -95.620944 
L 162.915272 -94.631698 
L 158.877361 -93.998241 
L 154.839449 -93.625569 
L 150.801538 -93.373688 
L 146.763626 -93.064726 
L 142.725715 -92.496509 
L 138.687803 -91.462641 
L 134.649892 -89.777831 
L 130.61198 -87.305683 
L 126.574068 -83.984792 
L 122.536157 -79.848258 
L 118.498245 -75.031994 
L 114.460334 -69.768795 
L 110.422422 -64.367753 
L 106.384511 -59.181782 
L 102.346599 -54.568812 
L 98.308688 -50.853641 
L 94.270776 -48.297043 
L 90.232864 -47.0765 
L 86.194953 -47.279692 
L 82.157041 -48.908735 
L 78.11913 -51.891213 
L 74.081218 -56.093805 
L 70.043307 -61.335563 
L 66.005395 -67.399865 
L 61.967483 -74.045719 
L 57.929572 -81.01974 
L 53.89166 -88.069655 
L 49.853749 -94.958999 
L 45.815837 -101.481451 
L 41.777926 -107.472664 
L 37.740014 -112.817646 
L 33.702103 -117.452691 
L 29.664191 -121.362023 
L 25.626279 -124.570308 
z
" style="stroke: #363636; stroke-width: 1.5"/>
    </defs>
    <g clip-path="url(#pdd7493a668)">
     <use xlink:href="#m08f949f644" x="0" y="258.203281" style="fill: #176d9c; stroke: #363636; stroke-width: 1.5"/>
    </g>
   </g>
   <g id="line2d_17">
    <path d="M 132.963887 124.150781 
L 132.963887 26.302781 
" clip-path="url(#pdd7493a668)" style="fill: none; stroke: #000000; stroke-width: 3"/>
   </g>
   <g id="line2d_18">
    <path d="M 122.424855 211.126781 
L 122.424855 124.150781 
" clip-path="url(#pdd7493a668)" style="fill: none; stroke: #000000; stroke-width: 3"/>
   </g>
   <g id="text_9">
    <text style="fill: #262626; font: 18px 'sans-serif'; text-anchor: middle" x="132.963887" y="20.084063" transform="rotate(-0, 132.963887, 20.084063)">20.2%</text>
   </g>
   <g id="text_10">
    <text style="fill: #262626; font: 18px 'sans-serif'; text-anchor: middle" x="122.424855" y="229.913663" transform="rotate(-0, 122.424855, 229.913663)">18.5%</text>
   </g>
  </g>
 </g>
 <defs>
  <clipPath id="pdd7493a668">
   <rect x="11.64875" y="15.430781" width="446.4" height="217.44"/>
  </clipPath>
 </defs>
</svg>
