<?xml version="1.0" encoding="utf-8" standalone="no"?>
<!DOCTYPE svg PUBLIC "-//W3C//DTD SVG 1.1//EN"
  "http://www.w3.org/Graphics/SVG/1.1/DTD/svg11.dtd">
<svg xmlns:xlink="http://www.w3.org/1999/xlink" width="465.24875pt" height="258.203281pt" viewBox="0 0 465.24875 258.203281" xmlns="http://www.w3.org/2000/svg" version="1.1">
 <metadata>
  <rdf:RDF xmlns:dc="http://purl.org/dc/elements/1.1/" xmlns:cc="http://creativecommons.org/ns#" xmlns:rdf="http://www.w3.org/1999/02/22-rdf-syntax-ns#">
   <cc:Work>
    <dc:type rdf:resource="http://purl.org/dc/dcmitype/StillImage"/>
    <dc:date>2022-06-21T12:22:04.766071</dc:date>
    <dc:format>image/svg+xml</dc:format>
    <dc:creator>
     <cc:Agent>
      <dc:title>Matplotlib v3.5.2, https://matplotlib.org/</dc:title>
     </cc:Agent>
    </dc:creator>
   </cc:Work>
  </rdf:RDF>
 </metadata>
 <defs>
  <style type="text/css">*{stroke-linejoin: round; stroke-linecap: butt}</style>
 </defs>
 <g id="figure_1">
  <g id="patch_1">
   <path d="M 0 258.203281 
L 465.24875 258.203281 
L 465.24875 0 
L 0 0 
L 0 258.203281 
z
" style="fill: none"/>
  </g>
  <g id="axes_1">
   <g id="patch_2">
    <path d="M 11.64875 232.870781 
L 458.04875 232.870781 
L 458.04875 15.430781 
L 11.64875 15.430781 
z
" style="fill: #ffffff"/>
   </g>
   <g id="matplotlib.axis_1">
    <g id="xtick_1">
     <g id="line2d_1">
      <path d="M 11.64875 232.870781 
L 11.64875 15.430781 
" clip-path="url(#pfde3e08338)" style="fill: none; stroke: #cccccc; stroke-width: 0.8; stroke-linecap: round"/>
     </g>
     <g id="line2d_2"/>
     <g id="text_1">
      <text style="fill: #262626; font: 16px 'sans-serif'; text-anchor: middle" x="11.64875" y="247.823281" transform="rotate(-0, 11.64875, 247.823281)">0</text>
     </g>
    </g>
    <g id="xtick_2">
     <g id="line2d_3">
      <path d="M 73.072898 232.870781 
L 73.072898 15.430781 
" clip-path="url(#pfde3e08338)" style="fill: none; stroke: #cccccc; stroke-width: 0.8; stroke-linecap: round"/>
     </g>
     <g id="line2d_4"/>
     <g id="text_2">
      <text style="fill: #262626; font: 16px 'sans-serif'; text-anchor: middle" x="73.072898" y="247.823281" transform="rotate(-0, 73.072898, 247.823281)">10</text>
     </g>
    </g>
    <g id="xtick_3">
     <g id="line2d_5">
      <path d="M 134.497047 232.870781 
L 134.497047 15.430781 
" clip-path="url(#pfde3e08338)" style="fill: none; stroke: #cccccc; stroke-width: 0.8; stroke-linecap: round"/>
     </g>
     <g id="line2d_6"/>
     <g id="text_3">
      <text style="fill: #262626; font: 16px 'sans-serif'; text-anchor: middle" x="134.497047" y="247.823281" transform="rotate(-0, 134.497047, 247.823281)">20</text>
     </g>
    </g>
    <g id="xtick_4">
     <g id="line2d_7">
      <path d="M 195.921195 232.870781 
L 195.921195 15.430781 
" clip-path="url(#pfde3e08338)" style="fill: none; stroke: #cccccc; stroke-width: 0.8; stroke-linecap: round"/>
     </g>
     <g id="line2d_8"/>
     <g id="text_4">
      <text style="fill: #262626; font: 16px 'sans-serif'; text-anchor: middle" x="195.921195" y="247.823281" transform="rotate(-0, 195.921195, 247.823281)">30</text>
     </g>
    </g>
    <g id="xtick_5">
     <g id="line2d_9">
      <path d="M 257.345343 232.870781 
L 257.345343 15.430781 
" clip-path="url(#pfde3e08338)" style="fill: none; stroke: #cccccc; stroke-width: 0.8; stroke-linecap: round"/>
     </g>
     <g id="line2d_10"/>
     <g id="text_5">
      <text style="fill: #262626; font: 16px 'sans-serif'; text-anchor: middle" x="257.345343" y="247.823281" transform="rotate(-0, 257.345343, 247.823281)">40</text>
     </g>
    </g>
    <g id="xtick_6">
     <g id="line2d_11">
      <path d="M 318.769491 232.870781 
L 318.769491 15.430781 
" clip-path="url(#pfde3e08338)" style="fill: none; stroke: #cccccc; stroke-width: 0.8; stroke-linecap: round"/>
     </g>
     <g id="line2d_12"/>
     <g id="text_6">
      <text style="fill: #262626; font: 16px 'sans-serif'; text-anchor: middle" x="318.769491" y="247.823281" transform="rotate(-0, 318.769491, 247.823281)">50</text>
     </g>
    </g>
    <g id="xtick_7">
     <g id="line2d_13">
      <path d="M 380.19364 232.870781 
L 380.19364 15.430781 
" clip-path="url(#pfde3e08338)" style="fill: none; stroke: #cccccc; stroke-width: 0.8; stroke-linecap: round"/>
     </g>
     <g id="line2d_14"/>
     <g id="text_7">
      <text style="fill: #262626; font: 16px 'sans-serif'; text-anchor: middle" x="380.19364" y="247.823281" transform="rotate(-0, 380.19364, 247.823281)">60</text>
     </g>
    </g>
    <g id="xtick_8">
     <g id="line2d_15">
      <path d="M 441.617788 232.870781 
L 441.617788 15.430781 
" clip-path="url(#pfde3e08338)" style="fill: none; stroke: #cccccc; stroke-width: 0.8; stroke-linecap: round"/>
     </g>
     <g id="line2d_16"/>
     <g id="text_8">
      <text style="fill: #262626; font: 16px 'sans-serif'; text-anchor: middle" x="441.617788" y="247.823281" transform="rotate(-0, 441.617788, 247.823281)">70</text>
     </g>
    </g>
   </g>
   <g id="matplotlib.axis_2"/>
   <g id="patch_3">
    <path d="M 11.64875 124.150781 
L 11.64875 124.150781 
L 11.64875 124.150781 
L 11.64875 124.150781 
z
" clip-path="url(#pfde3e08338)" style="fill: #c38820; stroke: #363636; stroke-width: 0.75; stroke-linejoin: miter"/>
   </g>
   <g id="PolyCollection_1">
    <defs>
     <path id="md50c1e2f65" d="M 12.01512 -134.0525 
L 12.01512 -147.827281 
L 16.305968 -152.484077 
L 20.596815 -158.009508 
L 24.887663 -164.325173 
L 29.178511 -171.278006 
L 33.469359 -178.648007 
L 37.760207 -186.165849 
L 42.051055 -193.537182 
L 46.341902 -200.468851 
L 50.63275 -206.692184 
L 54.923598 -211.979842 
L 59.214446 -216.155029 
L 63.505294 -219.094194 
L 67.796141 -220.725856 
L 72.086989 -221.0285 
L 76.377837 -220.029615 
L 80.668685 -217.80643 
L 84.959533 -214.487388 
L 89.25038 -210.252361 
L 93.541228 -205.329312 
L 97.832076 -199.985524 
L 102.122924 -194.512534 
L 106.413772 -189.205213 
L 110.70462 -184.33694 
L 114.995467 -180.134078 
L 119.286315 -176.753818 
L 123.577163 -174.269507 
L 127.868011 -172.666628 
L 132.158859 -171.850755 
L 136.449706 -171.666348 
L 140.740554 -171.922833 
L 145.031402 -172.422782 
L 149.32225 -172.986719 
L 153.613098 -173.47026 
L 157.903945 -173.771609 
L 162.194793 -173.830084 
L 166.485641 -173.618444 
L 170.776489 -173.132745 
L 175.067337 -172.383048 
L 179.358185 -171.387003 
L 183.649032 -170.16672 
L 187.93988 -168.747991 
L 192.230728 -167.160394 
L 196.521576 -165.4369 
L 200.812424 -163.612268 
L 205.103271 -161.720341 
L 209.394119 -159.790988 
L 213.684967 -157.847737 
L 217.975815 -155.906998 
L 222.266663 -153.979279 
L 226.55751 -152.072125 
L 230.848358 -150.193936 
L 235.139206 -148.357464 
L 239.430054 -146.581931 
L 243.720902 -144.893086 
L 248.01175 -143.321174 
L 252.302597 -141.89736 
L 256.593445 -140.649495 
L 260.884293 -139.598178 
L 265.175141 -138.753849 
L 269.465989 -138.115291 
L 273.756836 -137.669589 
L 278.047684 -137.393341 
L 282.338532 -137.254828 
L 286.62938 -137.216855 
L 290.920228 -137.240023 
L 295.211076 -137.286189 
L 299.501923 -137.321833 
L 303.792771 -137.320971 
L 308.083619 -137.267154 
L 312.374467 -137.154177 
L 316.665315 -136.985303 
L 320.956162 -136.771096 
L 325.24701 -136.526333 
L 329.537858 -136.266688 
L 333.828706 -136.005941 
L 338.119554 -135.754264 
L 342.410401 -135.517785 
L 346.701249 -135.299254 
L 350.992097 -135.099329 
L 355.282945 -134.917938 
L 359.573793 -134.755277 
L 363.864641 -134.612253 
L 368.155488 -134.490414 
L 372.446336 -134.391575 
L 376.737184 -134.317388 
L 381.028032 -134.269001 
L 385.31888 -134.246853 
L 389.609727 -134.250529 
L 393.900575 -134.27859 
L 398.191423 -134.328324 
L 402.482271 -134.395461 
L 406.773119 -134.474005 
L 411.063966 -134.556347 
L 415.354814 -134.633788 
L 419.645662 -134.6975 
L 423.93651 -134.739766 
L 428.227358 -134.755226 
L 432.518206 -134.741804 
L 436.809053 -134.701046 
L 436.809053 -134.0525 
L 436.809053 -134.0525 
L 432.518206 -134.0525 
L 428.227358 -134.0525 
L 423.93651 -134.0525 
L 419.645662 -134.0525 
L 415.354814 -134.0525 
L 411.063966 -134.0525 
L 406.773119 -134.0525 
L 402.482271 -134.0525 
L 398.191423 -134.0525 
L 393.900575 -134.0525 
L 389.609727 -134.0525 
L 385.31888 -134.0525 
L 381.028032 -134.0525 
L 376.737184 -134.0525 
L 372.446336 -134.0525 
L 368.155488 -134.0525 
L 363.864641 -134.0525 
L 359.573793 -134.0525 
L 355.282945 -134.0525 
L 350.992097 -134.0525 
L 346.701249 -134.0525 
L 342.410401 -134.0525 
L 338.119554 -134.0525 
L 333.828706 -134.0525 
L 329.537858 -134.0525 
L 325.24701 -134.0525 
L 320.956162 -134.0525 
L 316.665315 -134.0525 
L 312.374467 -134.0525 
L 308.083619 -134.0525 
L 303.792771 -134.0525 
L 299.501923 -134.0525 
L 295.211076 -134.0525 
L 290.920228 -134.0525 
L 286.62938 -134.0525 
L 282.338532 -134.0525 
L 278.047684 -134.0525 
L 273.756836 -134.0525 
L 269.465989 -134.0525 
L 265.175141 -134.0525 
L 260.884293 -134.0525 
L 256.593445 -134.0525 
L 252.302597 -134.0525 
L 248.01175 -134.0525 
L 243.720902 -134.0525 
L 239.430054 -134.0525 
L 235.139206 -134.0525 
L 230.848358 -134.0525 
L 226.55751 -134.0525 
L 222.266663 -134.0525 
L 217.975815 -134.0525 
L 213.684967 -134.0525 
L 209.394119 -134.0525 
L 205.103271 -134.0525 
L 200.812424 -134.0525 
L 196.521576 -134.0525 
L 192.230728 -134.0525 
L 187.93988 -134.0525 
L 183.649032 -134.0525 
L 179.358185 -134.0525 
L 175.067337 -134.0525 
L 170.776489 -134.0525 
L 166.485641 -134.0525 
L 162.194793 -134.0525 
L 157.903945 -134.0525 
L 153.613098 -134.0525 
L 149.32225 -134.0525 
L 145.031402 -134.0525 
L 140.740554 -134.0525 
L 136.449706 -134.0525 
L 132.158859 -134.0525 
L 127.868011 -134.0525 
L 123.577163 -134.0525 
L 119.286315 -134.0525 
L 114.995467 -134.0525 
L 110.70462 -134.0525 
L 106.413772 -134.0525 
L 102.122924 -134.0525 
L 97.832076 -134.0525 
L 93.541228 -134.0525 
L 89.25038 -134.0525 
L 84.959533 -134.0525 
L 80.668685 -134.0525 
L 76.377837 -134.0525 
L 72.086989 -134.0525 
L 67.796141 -134.0525 
L 63.505294 -134.0525 
L 59.214446 -134.0525 
L 54.923598 -134.0525 
L 50.63275 -134.0525 
L 46.341902 -134.0525 
L 42.051055 -134.0525 
L 37.760207 -134.0525 
L 33.469359 -134.0525 
L 29.178511 -134.0525 
L 24.887663 -134.0525 
L 20.596815 -134.0525 
L 16.305968 -134.0525 
L 12.01512 -134.0525 
z
" style="stroke: #363636; stroke-width: 1.5"/>
    </defs>
    <g clip-path="url(#pfde3e08338)">
     <use xlink:href="#md50c1e2f65" x="0" y="258.203281" style="fill: #c38820; stroke: #363636; stroke-width: 1.5"/>
    </g>
   </g>
   <g id="patch_4">
    <path d="M 11.64875 124.150781 
L 11.64875 124.150781 
L 11.64875 124.150781 
L 11.64875 124.150781 
z
" clip-path="url(#pfde3e08338)" style="fill: #176d9c; stroke: #363636; stroke-width: 0.75; stroke-linejoin: miter"/>
   </g>
   <g id="PolyCollection_2">
    <defs>
     <path id="m7ce69257c4" d="M 24.423667 -125.264699 
L 24.423667 -134.0525 
L 27.963835 -134.0525 
L 31.504002 -134.0525 
L 35.04417 -134.0525 
L 38.584338 -134.0525 
L 42.124505 -134.0525 
L 45.664673 -134.0525 
L 49.204841 -134.0525 
L 52.745008 -134.0525 
L 56.285176 -134.0525 
L 59.825343 -134.0525 
L 63.365511 -134.0525 
L 66.905679 -134.0525 
L 70.445846 -134.0525 
L 73.986014 -134.0525 
L 77.526181 -134.0525 
L 81.066349 -134.0525 
L 84.606517 -134.0525 
L 88.146684 -134.0525 
L 91.686852 -134.0525 
L 95.22702 -134.0525 
L 98.767187 -134.0525 
L 102.307355 -134.0525 
L 105.847522 -134.0525 
L 109.38769 -134.0525 
L 112.927858 -134.0525 
L 116.468025 -134.0525 
L 120.008193 -134.0525 
L 123.54836 -134.0525 
L 127.088528 -134.0525 
L 130.628696 -134.0525 
L 134.168863 -134.0525 
L 137.709031 -134.0525 
L 141.249199 -134.0525 
L 144.789366 -134.0525 
L 148.329534 -134.0525 
L 151.869701 -134.0525 
L 155.409869 -134.0525 
L 158.950037 -134.0525 
L 162.490204 -134.0525 
L 166.030372 -134.0525 
L 169.570539 -134.0525 
L 173.110707 -134.0525 
L 176.650875 -134.0525 
L 180.191042 -134.0525 
L 183.73121 -134.0525 
L 187.271378 -134.0525 
L 190.811545 -134.0525 
L 194.351713 -134.0525 
L 197.89188 -134.0525 
L 201.432048 -134.0525 
L 204.972216 -134.0525 
L 208.512383 -134.0525 
L 212.052551 -134.0525 
L 215.592719 -134.0525 
L 219.132886 -134.0525 
L 222.673054 -134.0525 
L 226.213221 -134.0525 
L 229.753389 -134.0525 
L 233.293557 -134.0525 
L 236.833724 -134.0525 
L 240.373892 -134.0525 
L 243.914059 -134.0525 
L 247.454227 -134.0525 
L 250.994395 -134.0525 
L 254.534562 -134.0525 
L 258.07473 -134.0525 
L 261.614898 -134.0525 
L 265.155065 -134.0525 
L 268.695233 -134.0525 
L 272.2354 -134.0525 
L 275.775568 -134.0525 
L 279.315736 -134.0525 
L 282.855903 -134.0525 
L 286.396071 -134.0525 
L 289.936238 -134.0525 
L 293.476406 -134.0525 
L 297.016574 -134.0525 
L 300.556741 -134.0525 
L 304.096909 -134.0525 
L 307.637077 -134.0525 
L 311.177244 -134.0525 
L 314.717412 -134.0525 
L 318.257579 -134.0525 
L 321.797747 -134.0525 
L 325.337915 -134.0525 
L 328.878082 -134.0525 
L 332.41825 -134.0525 
L 335.958417 -134.0525 
L 339.498585 -134.0525 
L 343.038753 -134.0525 
L 346.57892 -134.0525 
L 350.119088 -134.0525 
L 353.659256 -134.0525 
L 357.199423 -134.0525 
L 360.739591 -134.0525 
L 364.279758 -134.0525 
L 367.819926 -134.0525 
L 371.360094 -134.0525 
L 374.900261 -134.0525 
L 374.900261 -133.335053 
L 374.900261 -133.335053 
L 371.360094 -133.282787 
L 367.819926 -133.281033 
L 364.279758 -133.330137 
L 360.739591 -133.420604 
L 357.199423 -133.536089 
L 353.659256 -133.658191 
L 350.119088 -133.771111 
L 346.57892 -133.864577 
L 343.038753 -133.934407 
L 339.498585 -133.981113 
L 335.958417 -134.007549 
L 332.41825 -134.016575 
L 328.878082 -134.009433 
L 325.337915 -133.985129 
L 321.797747 -133.940922 
L 318.257579 -133.873846 
L 314.717412 -133.782986 
L 311.177244 -133.67187 
L 307.637077 -133.550008 
L 304.096909 -133.432549 
L 300.556741 -133.337522 
L 297.016574 -133.281122 
L 293.476406 -133.272505 
L 289.936238 -133.310022 
L 286.396071 -133.380369 
L 282.855903 -133.460987 
L 279.315736 -133.524874 
L 275.775568 -133.546389 
L 272.2354 -133.506823 
L 268.695233 -133.398902 
L 265.155065 -133.229646 
L 261.614898 -133.020752 
L 258.07473 -132.80551 
L 254.534562 -132.621761 
L 250.994395 -132.501808 
L 247.454227 -132.461911 
L 243.914059 -132.49495 
L 240.373892 -132.569263 
L 236.833724 -132.634645 
L 233.293557 -132.634022 
L 229.753389 -132.517501 
L 226.213221 -132.254929 
L 222.673054 -131.843729 
L 219.132886 -131.310005 
L 215.592719 -130.702551 
L 212.052551 -130.081087 
L 208.512383 -129.501711 
L 204.972216 -129.003526 
L 201.432048 -128.600197 
L 197.89188 -128.278527 
L 194.351713 -128.003575 
L 190.811545 -127.72739 
L 187.271378 -127.397363 
L 183.73121 -126.961082 
L 180.191042 -126.366987 
L 176.650875 -125.562769 
L 173.110707 -124.494711 
L 169.570539 -123.110273 
L 166.030372 -121.363921 
L 162.490204 -119.224131 
L 158.950037 -116.679185 
L 155.409869 -113.740884 
L 151.869701 -110.446914 
L 148.329534 -106.862717 
L 144.789366 -103.081665 
L 141.249199 -99.219949 
L 137.709031 -95.402572 
L 134.168863 -91.740588 
L 130.628696 -88.305703 
L 127.088528 -85.112423 
L 123.54836 -82.116451 
L 120.008193 -79.230902 
L 116.468025 -76.353527 
L 112.927858 -73.394096 
L 109.38769 -70.293839 
L 105.847522 -67.03555 
L 102.307355 -63.647903 
L 98.767187 -60.207244 
L 95.22702 -56.836203 
L 91.686852 -53.695848 
L 88.146684 -50.970027 
L 84.606517 -48.84575 
L 81.066349 -47.49689 
L 77.526181 -47.0765 
L 73.986014 -47.71631 
L 70.445846 -49.525577 
L 66.905679 -52.580483 
L 63.365511 -56.90126 
L 59.825343 -62.423729 
L 56.285176 -68.978867 
L 52.745008 -76.29383 
L 49.204841 -84.019967 
L 45.664673 -91.781797 
L 42.124505 -99.231811 
L 38.584338 -106.094057 
L 35.04417 -112.185458 
L 31.504002 -117.414071 
L 27.963835 -121.762129 
L 24.423667 -125.264699 
z
" style="stroke: #363636; stroke-width: 1.5"/>
    </defs>
    <g clip-path="url(#pfde3e08338)">
     <use xlink:href="#m7ce69257c4" x="0" y="258.203281" style="fill: #176d9c; stroke: #363636; stroke-width: 1.5"/>
    </g>
   </g>
   <g id="line2d_17">
    <path d="M 114.673245 124.150781 
L 114.673245 26.302781 
" clip-path="url(#pfde3e08338)" style="fill: none; stroke: #000000; stroke-width: 3"/>
   </g>
   <g id="line2d_18">
    <path d="M 97.805659 211.126781 
L 97.805659 124.150781 
" clip-path="url(#pfde3e08338)" style="fill: none; stroke: #000000; stroke-width: 3"/>
   </g>
   <g id="text_9">
    <text style="fill: #262626; font: 18px 'sans-serif'; text-anchor: middle" x="114.673245" y="20.084063" transform="rotate(-0, 114.673245, 20.084063)">16.8%</text>
   </g>
   <g id="text_10">
    <text style="fill: #262626; font: 18px 'sans-serif'; text-anchor: middle" x="97.805659" y="229.913663" transform="rotate(-0, 97.805659, 229.913663)">14.0%</text>
   </g>
  </g>
 </g>
 <defs>
  <clipPath id="pfde3e08338">
   <rect x="11.64875" y="15.430781" width="446.4" height="217.44"/>
  </clipPath>
 </defs>
</svg>
