<?xml version="1.0" encoding="utf-8" standalone="no"?>
<!DOCTYPE svg PUBLIC "-//W3C//DTD SVG 1.1//EN"
  "http://www.w3.org/Graphics/SVG/1.1/DTD/svg11.dtd">
<svg xmlns:xlink="http://www.w3.org/1999/xlink" width="465.24875pt" height="258.203281pt" viewBox="0 0 465.24875 258.203281" xmlns="http://www.w3.org/2000/svg" version="1.1">
 <metadata>
  <rdf:RDF xmlns:dc="http://purl.org/dc/elements/1.1/" xmlns:cc="http://creativecommons.org/ns#" xmlns:rdf="http://www.w3.org/1999/02/22-rdf-syntax-ns#">
   <cc:Work>
    <dc:type rdf:resource="http://purl.org/dc/dcmitype/StillImage"/>
    <dc:date>2022-06-21T12:22:18.775025</dc:date>
    <dc:format>image/svg+xml</dc:format>
    <dc:creator>
     <cc:Agent>
      <dc:title>Matplotlib v3.5.2, https://matplotlib.org/</dc:title>
     </cc:Agent>
    </dc:creator>
   </cc:Work>
  </rdf:RDF>
 </metadata>
 <defs>
  <style type="text/css">*{stroke-linejoin: round; stroke-linecap: butt}</style>
 </defs>
 <g id="figure_1">
  <g id="patch_1">
   <path d="M 0 258.203281 
L 465.24875 258.203281 
L 465.24875 0 
L 0 0 
L 0 258.203281 
z
" style="fill: none"/>
  </g>
  <g id="axes_1">
   <g id="patch_2">
    <path d="M 11.64875 232.870781 
L 458.04875 232.870781 
L 458.04875 15.430781 
L 11.64875 15.430781 
z
" style="fill: #ffffff"/>
   </g>
   <g id="matplotlib.axis_1">
    <g id="xtick_1">
     <g id="line2d_1">
      <path d="M 11.64875 232.870781 
L 11.64875 15.430781 
" clip-path="url(#pff7a38c0a5)" style="fill: none; stroke: #cccccc; stroke-width: 0.8; stroke-linecap: round"/>
     </g>
     <g id="line2d_2"/>
     <g id="text_1">
      <text style="fill: #262626; font: 16px 'sans-serif'; text-anchor: middle" x="11.64875" y="247.823281" transform="rotate(-0, 11.64875, 247.823281)">0</text>
     </g>
    </g>
    <g id="xtick_2">
     <g id="line2d_3">
      <path d="M 72.813844 232.870781 
L 72.813844 15.430781 
" clip-path="url(#pff7a38c0a5)" style="fill: none; stroke: #cccccc; stroke-width: 0.8; stroke-linecap: round"/>
     </g>
     <g id="line2d_4"/>
     <g id="text_2">
      <text style="fill: #262626; font: 16px 'sans-serif'; text-anchor: middle" x="72.813844" y="247.823281" transform="rotate(-0, 72.813844, 247.823281)">10</text>
     </g>
    </g>
    <g id="xtick_3">
     <g id="line2d_5">
      <path d="M 133.978938 232.870781 
L 133.978938 15.430781 
" clip-path="url(#pff7a38c0a5)" style="fill: none; stroke: #cccccc; stroke-width: 0.8; stroke-linecap: round"/>
     </g>
     <g id="line2d_6"/>
     <g id="text_3">
      <text style="fill: #262626; font: 16px 'sans-serif'; text-anchor: middle" x="133.978938" y="247.823281" transform="rotate(-0, 133.978938, 247.823281)">20</text>
     </g>
    </g>
    <g id="xtick_4">
     <g id="line2d_7">
      <path d="M 195.144032 232.870781 
L 195.144032 15.430781 
" clip-path="url(#pff7a38c0a5)" style="fill: none; stroke: #cccccc; stroke-width: 0.8; stroke-linecap: round"/>
     </g>
     <g id="line2d_8"/>
     <g id="text_4">
      <text style="fill: #262626; font: 16px 'sans-serif'; text-anchor: middle" x="195.144032" y="247.823281" transform="rotate(-0, 195.144032, 247.823281)">30</text>
     </g>
    </g>
    <g id="xtick_5">
     <g id="line2d_9">
      <path d="M 256.309126 232.870781 
L 256.309126 15.430781 
" clip-path="url(#pff7a38c0a5)" style="fill: none; stroke: #cccccc; stroke-width: 0.8; stroke-linecap: round"/>
     </g>
     <g id="line2d_10"/>
     <g id="text_5">
      <text style="fill: #262626; font: 16px 'sans-serif'; text-anchor: middle" x="256.309126" y="247.823281" transform="rotate(-0, 256.309126, 247.823281)">40</text>
     </g>
    </g>
    <g id="xtick_6">
     <g id="line2d_11">
      <path d="M 317.47422 232.870781 
L 317.47422 15.430781 
" clip-path="url(#pff7a38c0a5)" style="fill: none; stroke: #cccccc; stroke-width: 0.8; stroke-linecap: round"/>
     </g>
     <g id="line2d_12"/>
     <g id="text_6">
      <text style="fill: #262626; font: 16px 'sans-serif'; text-anchor: middle" x="317.47422" y="247.823281" transform="rotate(-0, 317.47422, 247.823281)">50</text>
     </g>
    </g>
    <g id="xtick_7">
     <g id="line2d_13">
      <path d="M 378.639314 232.870781 
L 378.639314 15.430781 
" clip-path="url(#pff7a38c0a5)" style="fill: none; stroke: #cccccc; stroke-width: 0.8; stroke-linecap: round"/>
     </g>
     <g id="line2d_14"/>
     <g id="text_7">
      <text style="fill: #262626; font: 16px 'sans-serif'; text-anchor: middle" x="378.639314" y="247.823281" transform="rotate(-0, 378.639314, 247.823281)">60</text>
     </g>
    </g>
    <g id="xtick_8">
     <g id="line2d_15">
      <path d="M 439.804407 232.870781 
L 439.804407 15.430781 
" clip-path="url(#pff7a38c0a5)" style="fill: none; stroke: #cccccc; stroke-width: 0.8; stroke-linecap: round"/>
     </g>
     <g id="line2d_16"/>
     <g id="text_8">
      <text style="fill: #262626; font: 16px 'sans-serif'; text-anchor: middle" x="439.804407" y="247.823281" transform="rotate(-0, 439.804407, 247.823281)">70</text>
     </g>
    </g>
   </g>
   <g id="matplotlib.axis_2"/>
   <g id="patch_3">
    <path d="M 11.64875 124.150781 
L 11.64875 124.150781 
L 11.64875 124.150781 
L 11.64875 124.150781 
z
" clip-path="url(#pff7a38c0a5)" style="fill: #c38820; stroke: #363636; stroke-width: 0.75; stroke-linejoin: miter"/>
   </g>
   <g id="PolyCollection_1">
    <defs>
     <path id="m389b628445" d="M 7.338782 -134.0525 
L 7.338782 -148.010921 
L 11.674616 -151.482651 
L 16.010451 -155.398009 
L 20.346285 -159.72036 
L 24.682119 -164.398268 
L 29.017953 -169.36875 
L 33.353788 -174.560349 
L 37.689622 -179.895294 
L 42.025456 -185.290381 
L 46.36129 -190.656681 
L 50.697124 -195.898723 
L 55.032959 -200.914078 
L 59.368793 -205.594382 
L 63.704627 -209.828524 
L 68.040461 -213.508171 
L 72.376296 -216.535095 
L 76.71213 -218.829145 
L 81.047964 -220.335318 
L 85.383798 -221.0285 
L 89.719632 -220.914881 
L 94.055467 -220.029875 
L 98.391301 -218.433176 
L 102.727135 -216.202152 
L 107.062969 -213.424997 
L 111.398804 -210.194748 
L 115.734638 -206.604751 
L 120.070472 -202.74555 
L 124.406306 -198.702777 
L 128.742141 -194.555579 
L 133.077975 -190.375324 
L 137.413809 -186.224718 
L 141.749643 -182.157651 
L 146.085477 -178.220091 
L 150.421312 -174.452009 
L 154.757146 -170.889842 
L 159.09298 -167.568659 
L 163.428814 -164.523028 
L 167.764649 -161.785931 
L 172.100483 -159.385613 
L 176.436317 -157.340988 
L 180.772151 -155.656809 
L 185.107985 -154.320064 
L 189.44382 -153.298876 
L 193.779654 -152.544619 
L 198.115488 -151.997143 
L 202.451322 -151.592206 
L 206.787157 -151.269592 
L 211.122991 -150.980203 
L 215.458825 -150.690648 
L 219.794659 -150.384438 
L 224.130494 -150.059721 
L 228.466328 -149.724301 
L 232.802162 -149.389265 
L 237.137996 -149.062807 
L 241.47383 -148.745661 
L 245.809665 -148.42908 
L 250.145499 -148.095624 
L 254.481333 -147.722352 
L 258.817167 -147.28548 
L 263.153002 -146.765373 
L 267.488836 -146.150729 
L 271.82467 -145.44117 
L 276.160504 -144.647859 
L 280.496338 -143.792212 
L 284.832173 -142.903137 
L 289.168007 -142.013419 
L 293.503841 -141.155917 
L 297.839675 -140.360125 
L 302.17551 -139.649457 
L 306.511344 -139.039476 
L 310.847178 -138.537083 
L 315.183012 -138.140614 
L 319.518846 -137.840742 
L 323.854681 -137.622042 
L 328.190515 -137.465058 
L 332.526349 -137.348673 
L 336.862183 -137.252532 
L 341.198018 -137.159244 
L 345.533852 -137.056088 
L 349.869686 -136.936002 
L 354.20552 -136.797751 
L 358.541355 -136.645308 
L 362.877189 -136.486598 
L 367.213023 -136.331874 
L 371.548857 -136.191978 
L 375.884691 -136.076731 
L 380.220526 -135.993612 
L 384.55636 -135.946783 
L 388.892194 -135.936507 
L 393.228028 -135.958933 
L 397.563863 -136.006295 
L 401.899697 -136.067532 
L 406.235531 -136.129343 
L 410.571365 -136.177638 
L 414.907199 -136.199229 
L 419.243034 -136.183535 
L 423.578868 -136.124012 
L 427.914702 -136.019034 
L 432.250536 -135.872034 
L 436.586371 -135.690881 
L 436.586371 -134.0525 
L 436.586371 -134.0525 
L 432.250536 -134.0525 
L 427.914702 -134.0525 
L 423.578868 -134.0525 
L 419.243034 -134.0525 
L 414.907199 -134.0525 
L 410.571365 -134.0525 
L 406.235531 -134.0525 
L 401.899697 -134.0525 
L 397.563863 -134.0525 
L 393.228028 -134.0525 
L 388.892194 -134.0525 
L 384.55636 -134.0525 
L 380.220526 -134.0525 
L 375.884691 -134.0525 
L 371.548857 -134.0525 
L 367.213023 -134.0525 
L 362.877189 -134.0525 
L 358.541355 -134.0525 
L 354.20552 -134.0525 
L 349.869686 -134.0525 
L 345.533852 -134.0525 
L 341.198018 -134.0525 
L 336.862183 -134.0525 
L 332.526349 -134.0525 
L 328.190515 -134.0525 
L 323.854681 -134.0525 
L 319.518846 -134.0525 
L 315.183012 -134.0525 
L 310.847178 -134.0525 
L 306.511344 -134.0525 
L 302.17551 -134.0525 
L 297.839675 -134.0525 
L 293.503841 -134.0525 
L 289.168007 -134.0525 
L 284.832173 -134.0525 
L 280.496338 -134.0525 
L 276.160504 -134.0525 
L 271.82467 -134.0525 
L 267.488836 -134.0525 
L 263.153002 -134.0525 
L 258.817167 -134.0525 
L 254.481333 -134.0525 
L 250.145499 -134.0525 
L 245.809665 -134.0525 
L 241.47383 -134.0525 
L 237.137996 -134.0525 
L 232.802162 -134.0525 
L 228.466328 -134.0525 
L 224.130494 -134.0525 
L 219.794659 -134.0525 
L 215.458825 -134.0525 
L 211.122991 -134.0525 
L 206.787157 -134.0525 
L 202.451322 -134.0525 
L 198.115488 -134.0525 
L 193.779654 -134.0525 
L 189.44382 -134.0525 
L 185.107985 -134.0525 
L 180.772151 -134.0525 
L 176.436317 -134.0525 
L 172.100483 -134.0525 
L 167.764649 -134.0525 
L 163.428814 -134.0525 
L 159.09298 -134.0525 
L 154.757146 -134.0525 
L 150.421312 -134.0525 
L 146.085477 -134.0525 
L 141.749643 -134.0525 
L 137.413809 -134.0525 
L 133.077975 -134.0525 
L 128.742141 -134.0525 
L 124.406306 -134.0525 
L 120.070472 -134.0525 
L 115.734638 -134.0525 
L 111.398804 -134.0525 
L 107.062969 -134.0525 
L 102.727135 -134.0525 
L 98.391301 -134.0525 
L 94.055467 -134.0525 
L 89.719632 -134.0525 
L 85.383798 -134.0525 
L 81.047964 -134.0525 
L 76.71213 -134.0525 
L 72.376296 -134.0525 
L 68.040461 -134.0525 
L 63.704627 -134.0525 
L 59.368793 -134.0525 
L 55.032959 -134.0525 
L 50.697124 -134.0525 
L 46.36129 -134.0525 
L 42.025456 -134.0525 
L 37.689622 -134.0525 
L 33.353788 -134.0525 
L 29.017953 -134.0525 
L 24.682119 -134.0525 
L 20.346285 -134.0525 
L 16.010451 -134.0525 
L 11.674616 -134.0525 
L 7.338782 -134.0525 
z
" style="stroke: #363636; stroke-width: 1.5"/>
    </defs>
    <g clip-path="url(#pff7a38c0a5)">
     <use xlink:href="#m389b628445" x="0" y="258.203281" style="fill: #c38820; stroke: #363636; stroke-width: 1.5"/>
    </g>
   </g>
   <g id="patch_4">
    <path d="M 11.64875 124.150781 
L 11.64875 124.150781 
L 11.64875 124.150781 
L 11.64875 124.150781 
z
" clip-path="url(#pff7a38c0a5)" style="fill: #176d9c; stroke: #363636; stroke-width: 0.75; stroke-linejoin: miter"/>
   </g>
   <g id="PolyCollection_2">
    <defs>
     <path id="m98078ccbdf" d="M 20.249822 -123.835393 
L 20.249822 -134.0525 
L 23.820032 -134.0525 
L 27.390243 -134.0525 
L 30.960454 -134.0525 
L 34.530665 -134.0525 
L 38.100875 -134.0525 
L 41.671086 -134.0525 
L 45.241297 -134.0525 
L 48.811507 -134.0525 
L 52.381718 -134.0525 
L 55.951929 -134.0525 
L 59.522139 -134.0525 
L 63.09235 -134.0525 
L 66.662561 -134.0525 
L 70.232772 -134.0525 
L 73.802982 -134.0525 
L 77.373193 -134.0525 
L 80.943404 -134.0525 
L 84.513614 -134.0525 
L 88.083825 -134.0525 
L 91.654036 -134.0525 
L 95.224246 -134.0525 
L 98.794457 -134.0525 
L 102.364668 -134.0525 
L 105.934879 -134.0525 
L 109.505089 -134.0525 
L 113.0753 -134.0525 
L 116.645511 -134.0525 
L 120.215721 -134.0525 
L 123.785932 -134.0525 
L 127.356143 -134.0525 
L 130.926353 -134.0525 
L 134.496564 -134.0525 
L 138.066775 -134.0525 
L 141.636986 -134.0525 
L 145.207196 -134.0525 
L 148.777407 -134.0525 
L 152.347618 -134.0525 
L 155.917828 -134.0525 
L 159.488039 -134.0525 
L 163.05825 -134.0525 
L 166.62846 -134.0525 
L 170.198671 -134.0525 
L 173.768882 -134.0525 
L 177.339092 -134.0525 
L 180.909303 -134.0525 
L 184.479514 -134.0525 
L 188.049725 -134.0525 
L 191.619935 -134.0525 
L 195.190146 -134.0525 
L 198.760357 -134.0525 
L 202.330567 -134.0525 
L 205.900778 -134.0525 
L 209.470989 -134.0525 
L 213.041199 -134.0525 
L 216.61141 -134.0525 
L 220.181621 -134.0525 
L 223.751832 -134.0525 
L 227.322042 -134.0525 
L 230.892253 -134.0525 
L 234.462464 -134.0525 
L 238.032674 -134.0525 
L 241.602885 -134.0525 
L 245.173096 -134.0525 
L 248.743306 -134.0525 
L 252.313517 -134.0525 
L 255.883728 -134.0525 
L 259.453939 -134.0525 
L 263.024149 -134.0525 
L 266.59436 -134.0525 
L 270.164571 -134.0525 
L 273.734781 -134.0525 
L 277.304992 -134.0525 
L 280.875203 -134.0525 
L 284.445413 -134.0525 
L 288.015624 -134.0525 
L 291.585835 -134.0525 
L 295.156045 -134.0525 
L 298.726256 -134.0525 
L 302.296467 -134.0525 
L 305.866678 -134.0525 
L 309.436888 -134.0525 
L 313.007099 -134.0525 
L 316.57731 -134.0525 
L 320.14752 -134.0525 
L 323.717731 -134.0525 
L 327.287942 -134.0525 
L 330.858152 -134.0525 
L 334.428363 -134.0525 
L 337.998574 -134.0525 
L 341.568785 -134.0525 
L 345.138995 -134.0525 
L 348.709206 -134.0525 
L 352.279417 -134.0525 
L 355.849627 -134.0525 
L 359.419838 -134.0525 
L 362.990049 -134.0525 
L 366.560259 -134.0525 
L 370.13047 -134.0525 
L 373.700681 -134.0525 
L 373.700681 -133.237303 
L 373.700681 -133.237303 
L 370.13047 -133.182601 
L 366.560259 -133.164394 
L 362.990049 -133.183421 
L 359.419838 -133.23442 
L 355.849627 -133.306809 
L 352.279417 -133.386482 
L 348.709206 -133.45825 
L 345.138995 -133.50841 
L 341.568785 -133.526894 
L 337.998574 -133.508663 
L 334.428363 -133.454128 
L 330.858152 -133.36857 
L 327.287942 -133.260657 
L 323.717731 -133.140303 
L 320.14752 -133.016284 
L 316.57731 -132.894146 
L 313.007099 -132.774955 
L 309.436888 -132.655263 
L 305.866678 -132.528335 
L 302.296467 -132.386303 
L 298.726256 -132.222589 
L 295.156045 -132.033889 
L 291.585835 -131.821173 
L 288.015624 -131.589497 
L 284.445413 -131.346803 
L 280.875203 -131.102086 
L 277.304992 -130.863405 
L 273.734781 -130.636098 
L 270.164571 -130.421472 
L 266.59436 -130.216078 
L 263.024149 -130.011654 
L 259.453939 -129.79575 
L 255.883728 -129.552962 
L 252.313517 -129.266604 
L 248.743306 -128.920542 
L 245.173096 -128.500824 
L 241.602885 -127.996794 
L 238.032674 -127.401415 
L 234.462464 -126.710725 
L 230.892253 -125.922412 
L 227.322042 -125.033729 
L 223.751832 -124.039011 
L 220.181621 -122.927225 
L 216.61141 -121.680039 
L 213.041199 -120.270936 
L 209.470989 -118.665908 
L 205.900778 -116.826227 
L 202.330567 -114.713583 
L 198.760357 -112.29754 
L 195.190146 -109.564504 
L 191.619935 -106.526555 
L 188.049725 -103.227622 
L 184.479514 -99.744224 
L 180.909303 -96.178709 
L 177.339092 -92.644712 
L 173.768882 -89.24699 
L 170.198671 -86.06014 
L 166.62846 -83.11192 
L 163.05825 -80.376343 
L 159.488039 -77.779481 
L 155.917828 -75.217456 
L 152.347618 -72.582722 
L 148.777407 -69.792305 
L 145.207196 -66.811142 
L 141.636986 -63.664918 
L 138.066775 -60.439597 
L 134.496564 -57.268249 
L 130.926353 -54.308809 
L 127.356143 -51.718362 
L 123.785932 -49.629915 
L 120.215721 -48.136409 
L 116.645511 -47.284331 
L 113.0753 -47.0765 
L 109.505089 -47.481221 
L 105.934879 -48.443748 
L 102.364668 -49.896263 
L 98.794457 -51.764143 
L 95.224246 -53.96855 
L 91.654036 -56.427337 
L 88.083825 -59.057186 
L 84.513614 -61.77915 
L 80.943404 -64.527869 
L 77.373193 -67.262328 
L 73.802982 -69.974386 
L 70.232772 -72.691304 
L 66.662561 -75.47011 
L 63.09235 -78.384401 
L 59.522139 -81.50678 
L 55.951929 -84.891448 
L 52.381718 -88.561212 
L 48.811507 -92.501375 
L 45.241297 -96.660745 
L 41.671086 -100.958169 
L 38.100875 -105.292225 
L 34.530665 -109.551897 
L 30.960454 -113.626875 
L 27.390243 -117.416801 
L 23.820032 -120.839159 
L 20.249822 -123.835393 
z
" style="stroke: #363636; stroke-width: 1.5"/>
    </defs>
    <g clip-path="url(#pff7a38c0a5)">
     <use xlink:href="#m98078ccbdf" x="0" y="258.203281" style="fill: #176d9c; stroke: #363636; stroke-width: 1.5"/>
    </g>
   </g>
   <g id="line2d_17">
    <path d="M 120.142315 124.150781 
L 120.142315 26.302781 
" clip-path="url(#pff7a38c0a5)" style="fill: none; stroke: #000000; stroke-width: 3"/>
   </g>
   <g id="line2d_18">
    <path d="M 120.767727 211.126781 
L 120.767727 124.150781 
" clip-path="url(#pff7a38c0a5)" style="fill: none; stroke: #000000; stroke-width: 3"/>
   </g>
   <g id="text_9">
    <text style="fill: #262626; font: 18px 'sans-serif'; text-anchor: middle" x="120.142315" y="20.084063" transform="rotate(-0, 120.142315, 20.084063)">17.7%</text>
   </g>
   <g id="text_10">
    <text style="fill: #262626; font: 18px 'sans-serif'; text-anchor: middle" x="120.767727" y="229.913663" transform="rotate(-0, 120.767727, 229.913663)">17.8%</text>
   </g>
  </g>
 </g>
 <defs>
  <clipPath id="pff7a38c0a5">
   <rect x="11.64875" y="15.430781" width="446.4" height="217.44"/>
  </clipPath>
 </defs>
</svg>
