<?xml version="1.0" encoding="utf-8" standalone="no"?>
<!DOCTYPE svg PUBLIC "-//W3C//DTD SVG 1.1//EN"
  "http://www.w3.org/Graphics/SVG/1.1/DTD/svg11.dtd">
<svg xmlns:xlink="http://www.w3.org/1999/xlink" width="483.56875pt" height="308.895198pt" viewBox="0 0 483.56875 308.895198" xmlns="http://www.w3.org/2000/svg" version="1.1">
 <metadata>
  <rdf:RDF xmlns:dc="http://purl.org/dc/elements/1.1/" xmlns:cc="http://creativecommons.org/ns#" xmlns:rdf="http://www.w3.org/1999/02/22-rdf-syntax-ns#">
   <cc:Work>
    <dc:type rdf:resource="http://purl.org/dc/dcmitype/StillImage"/>
    <dc:date>2022-06-10T18:54:07.058401</dc:date>
    <dc:format>image/svg+xml</dc:format>
    <dc:creator>
     <cc:Agent>
      <dc:title>Matplotlib v3.5.2, https://matplotlib.org/</dc:title>
     </cc:Agent>
    </dc:creator>
   </cc:Work>
  </rdf:RDF>
 </metadata>
 <defs>
  <style type="text/css">*{stroke-linejoin: round; stroke-linecap: butt}</style>
 </defs>
 <g id="figure_1">
  <g id="patch_1">
   <path d="M 0 308.895198 
L 483.56875 308.895198 
L 483.56875 0 
L 0 0 
z
" style="fill: #ffffff"/>
  </g>
  <g id="axes_1">
   <g id="patch_2">
    <path d="M 29.96875 279.404573 
L 476.36875 279.404573 
L 476.36875 7.604573 
L 29.96875 7.604573 
z
" style="fill: #ffffff"/>
   </g>
   <g id="matplotlib.axis_1">
    <g id="text_1">
     <text style="fill: #262626; font: 20px 'sans-serif'; text-anchor: middle" x="253.16875" y="297.720198" transform="rotate(-0, 253.16875, 297.720198)">Nile rat</text>
    </g>
   </g>
   <g id="matplotlib.axis_2">
    <g id="text_2">
     <text style="fill: #262626; font: 20px 'sans-serif'; text-anchor: middle" x="21.759375" y="143.504573" transform="rotate(-90, 21.759375, 143.504573)">min * mg/dL</text>
    </g>
   </g>
   <g id="patch_3">
    <path d="M 29.96875 279.404573 
L 476.36875 279.404573 
" style="fill: none; stroke: #262626; stroke-width: 1.25; stroke-linejoin: miter; stroke-linecap: square"/>
   </g>
   <g id="text_3">
    <text style="fill: #262626; font: 15px 'sans-serif'; text-anchor: middle" x="66.251471" y="194.34025" transform="rotate(-0, 66.251471, 194.34025)">19k</text>
   </g>
   <g id="text_4">
    <text style="fill: #262626; font: 15px 'sans-serif'; text-anchor: middle" x="107.788644" y="168.651767" transform="rotate(-0, 107.788644, 168.651767)">25k</text>
   </g>
   <g id="text_5">
    <text style="fill: #262626; font: 15px 'sans-serif'; text-anchor: middle" x="149.325817" y="130.252892" transform="rotate(-0, 149.325817, 130.252892)">34k</text>
   </g>
   <g id="text_6">
    <text style="fill: #262626; font: 15px 'sans-serif'; text-anchor: middle" x="190.86299" y="124.995266" transform="rotate(-0, 190.86299, 124.995266)">35k</text>
   </g>
   <g id="text_7">
    <text style="fill: #262626; font: 15px 'sans-serif'; text-anchor: middle" x="232.400163" y="88.727282" transform="rotate(-0, 232.400163, 88.727282)">44k</text>
   </g>
   <g id="text_8">
    <text style="fill: #262626; font: 15px 'sans-serif'; text-anchor: middle" x="273.937337" y="76.530875" transform="rotate(-0, 273.937337, 76.530875)">47k</text>
   </g>
   <g id="text_9">
    <text style="fill: #262626; font: 15px 'sans-serif'; text-anchor: middle" x="315.47451" y="67.20421" transform="rotate(-0, 315.47451, 67.20421)">49k</text>
   </g>
   <g id="text_10">
    <text style="fill: #262626; font: 15px 'sans-serif'; text-anchor: middle" x="357.011683" y="40.369971" transform="rotate(-0, 357.011683, 40.369971)">55k</text>
   </g>
   <g id="text_11">
    <text style="fill: #262626; font: 15px 'sans-serif'; text-anchor: middle" x="398.548856" y="34.137917" transform="rotate(-0, 398.548856, 34.137917)">56k</text>
   </g>
   <g id="text_12">
    <text style="fill: #262626; font: 15px 'sans-serif'; text-anchor: middle" x="440.086029" y="17.936719" transform="rotate(-0, 440.086029, 17.936719)">60k</text>
   </g>
   <g id="patch_4">
    <path d="M 50.259659 279.404573 
L 82.243282 279.404573 
L 82.243282 197.766809 
L 50.259659 197.766809 
z
" clip-path="url(#p7c890fc09e)" style="fill: #029e73; stroke: #4c4c4c; stroke-width: 1.2; stroke-linejoin: miter"/>
   </g>
   <g id="patch_5">
    <path d="M 91.796832 279.404573 
L 123.780456 279.404573 
L 123.780456 172.078326 
L 91.796832 172.078326 
z
" clip-path="url(#p7c890fc09e)" style="fill: #029e73; stroke: #4c4c4c; stroke-width: 1.2; stroke-linejoin: miter"/>
   </g>
   <g id="patch_6">
    <path d="M 133.334005 279.404573 
L 165.317629 279.404573 
L 165.317629 133.679451 
L 133.334005 133.679451 
z
" clip-path="url(#p7c890fc09e)" style="fill: #cc78bc; stroke: #4c4c4c; stroke-width: 1.2; stroke-linejoin: miter"/>
   </g>
   <g id="patch_7">
    <path d="M 174.871179 279.404573 
L 206.854802 279.404573 
L 206.854802 128.421825 
L 174.871179 128.421825 
z
" clip-path="url(#p7c890fc09e)" style="fill: #cc78bc; stroke: #4c4c4c; stroke-width: 1.2; stroke-linejoin: miter"/>
   </g>
   <g id="patch_8">
    <path d="M 216.408352 279.404573 
L 248.391975 279.404573 
L 248.391975 92.153841 
L 216.408352 92.153841 
z
" clip-path="url(#p7c890fc09e)" style="fill: #cc78bc; stroke: #4c4c4c; stroke-width: 1.2; stroke-linejoin: miter"/>
   </g>
   <g id="patch_9">
    <path d="M 257.945525 279.404573 
L 289.929148 279.404573 
L 289.929148 79.957433 
L 257.945525 79.957433 
z
" clip-path="url(#p7c890fc09e)" style="fill: #cc78bc; stroke: #4c4c4c; stroke-width: 1.2; stroke-linejoin: miter"/>
   </g>
   <g id="patch_10">
    <path d="M 299.482698 279.404573 
L 331.466321 279.404573 
L 331.466321 70.630769 
L 299.482698 70.630769 
z
" clip-path="url(#p7c890fc09e)" style="fill: #cc78bc; stroke: #4c4c4c; stroke-width: 1.2; stroke-linejoin: miter"/>
   </g>
   <g id="patch_11">
    <path d="M 341.019871 279.404573 
L 373.003495 279.404573 
L 373.003495 43.79653 
L 341.019871 43.79653 
z
" clip-path="url(#p7c890fc09e)" style="fill: #d55e00; stroke: #4c4c4c; stroke-width: 1.2; stroke-linejoin: miter"/>
   </g>
   <g id="patch_12">
    <path d="M 382.557044 279.404573 
L 414.540668 279.404573 
L 414.540668 37.564476 
L 382.557044 37.564476 
z
" clip-path="url(#p7c890fc09e)" style="fill: #d55e00; stroke: #4c4c4c; stroke-width: 1.2; stroke-linejoin: miter"/>
   </g>
   <g id="patch_13">
    <path d="M 424.094218 279.404573 
L 456.077841 279.404573 
L 456.077841 21.363278 
L 424.094218 21.363278 
z
" clip-path="url(#p7c890fc09e)" style="fill: #d55e00; stroke: #4c4c4c; stroke-width: 1.2; stroke-linejoin: miter"/>
   </g>
  </g>
 </g>
 <defs>
  <clipPath id="p7c890fc09e">
   <rect x="29.96875" y="7.604573" width="446.4" height="271.8"/>
  </clipPath>
 </defs>
</svg>
