<?xml version="1.0" encoding="utf-8" standalone="no"?>
<!DOCTYPE svg PUBLIC "-//W3C//DTD SVG 1.1//EN"
  "http://www.w3.org/Graphics/SVG/1.1/DTD/svg11.dtd">
<svg xmlns:xlink="http://www.w3.org/1999/xlink" width="507.088125pt" height="328.930313pt" viewBox="0 0 507.088125 328.930313" xmlns="http://www.w3.org/2000/svg" version="1.1">
 <metadata>
  <rdf:RDF xmlns:dc="http://purl.org/dc/elements/1.1/" xmlns:cc="http://creativecommons.org/ns#" xmlns:rdf="http://www.w3.org/1999/02/22-rdf-syntax-ns#">
   <cc:Work>
    <dc:type rdf:resource="http://purl.org/dc/dcmitype/StillImage"/>
    <dc:date>2022-06-10T16:58:20.870423</dc:date>
    <dc:format>image/svg+xml</dc:format>
    <dc:creator>
     <cc:Agent>
      <dc:title>Matplotlib v3.5.2, https://matplotlib.org/</dc:title>
     </cc:Agent>
    </dc:creator>
   </cc:Work>
  </rdf:RDF>
 </metadata>
 <defs>
  <style type="text/css">*{stroke-linejoin: round; stroke-linecap: butt}</style>
 </defs>
 <g id="figure_1">
  <g id="patch_1">
   <path d="M 0 328.930313 
L 507.088125 328.930313 
L 507.088125 0 
L 0 0 
z
" style="fill: #ffffff"/>
  </g>
  <g id="axes_1">
   <g id="patch_2">
    <path d="M 53.488125 279 
L 499.888125 279 
L 499.888125 7.2 
L 53.488125 7.2 
z
" style="fill: #ffffff"/>
   </g>
   <g id="matplotlib.axis_1">
    <g id="xtick_1">
     <g id="line2d_1"/>
     <g id="text_1">
      <text style="fill: #262626; font: 18px 'sans-serif'; text-anchor: middle" x="73.779034" y="295.384063" transform="rotate(-0, 73.779034, 295.384063)">8</text>
     </g>
    </g>
    <g id="xtick_2">
     <g id="line2d_2"/>
     <g id="text_2">
      <text style="fill: #262626; font: 18px 'sans-serif'; text-anchor: middle" x="209.051761" y="295.384063" transform="rotate(-0, 209.051761, 295.384063)">9</text>
     </g>
    </g>
    <g id="xtick_3">
     <g id="line2d_3"/>
     <g id="text_3">
      <text style="fill: #262626; font: 18px 'sans-serif'; text-anchor: middle" x="344.324489" y="295.384063" transform="rotate(-0, 344.324489, 295.384063)">10</text>
     </g>
    </g>
    <g id="xtick_4">
     <g id="line2d_4"/>
     <g id="text_4">
      <text style="fill: #262626; font: 18px 'sans-serif'; text-anchor: middle" x="479.597216" y="295.384063" transform="rotate(-0, 479.597216, 295.384063)">11</text>
     </g>
    </g>
    <g id="text_5">
     <text style="fill: #262626; font: 20px 'sans-serif'; text-anchor: middle" x="276.688125" y="317.520938" transform="rotate(-0, 276.688125, 317.520938)">Age (weeks)</text>
    </g>
   </g>
   <g id="matplotlib.axis_2">
    <g id="ytick_1">
     <g id="line2d_5"/>
     <g id="text_6">
      <text style="fill: #262626; font: 18px 'sans-serif'; text-anchor: end" x="49.988125" y="279.737044" transform="rotate(-0, 49.988125, 279.737044)">0</text>
     </g>
    </g>
    <g id="ytick_2">
     <g id="line2d_6"/>
     <g id="text_7">
      <text style="fill: #262626; font: 18px 'sans-serif'; text-anchor: end" x="49.988125" y="224.092205" transform="rotate(-0, 49.988125, 224.092205)">5</text>
     </g>
    </g>
    <g id="ytick_3">
     <g id="line2d_7"/>
     <g id="text_8">
      <text style="fill: #262626; font: 18px 'sans-serif'; text-anchor: end" x="49.988125" y="168.447365" transform="rotate(-0, 49.988125, 168.447365)">10</text>
     </g>
    </g>
    <g id="ytick_4">
     <g id="line2d_8"/>
     <g id="text_9">
      <text style="fill: #262626; font: 18px 'sans-serif'; text-anchor: end" x="49.988125" y="112.802526" transform="rotate(-0, 49.988125, 112.802526)">15</text>
     </g>
    </g>
    <g id="ytick_5">
     <g id="line2d_9"/>
     <g id="text_10">
      <text style="fill: #262626; font: 18px 'sans-serif'; text-anchor: end" x="49.988125" y="57.157687" transform="rotate(-0, 49.988125, 57.157687)">20</text>
     </g>
    </g>
    <g id="text_11">
     <text style="fill: #262626; font: 20px 'sans-serif'; text-anchor: middle" x="21.759375" y="143.1" transform="rotate(-90, 21.759375, 143.1)">Blood insulin (ng/dL)</text>
    </g>
   </g>
   <g id="line2d_10">
    <path d="M 73.779034 121.82976 
L 209.051761 19.554545 
L 344.324489 32.130279 
L 479.597216 77.981627 
" clip-path="url(#p663b0ea356)" style="fill: none; stroke: #029e73; stroke-opacity: 0.7; stroke-width: 2.5; stroke-linecap: round"/>
    <defs>
     <path id="m2990bbae2d" d="M 0 4 
C 1.060812 4 2.078319 3.578535 2.828427 2.828427 
C 3.578535 2.078319 4 1.060812 4 0 
C 4 -1.060812 3.578535 -2.078319 2.828427 -2.828427 
C 2.078319 -3.578535 1.060812 -4 0 -4 
C -1.060812 -4 -2.078319 -3.578535 -2.828427 -2.828427 
C -3.578535 -2.078319 -4 -1.060812 -4 0 
C -4 1.060812 -3.578535 2.078319 -2.828427 2.828427 
C -2.078319 3.578535 -1.060812 4 0 4 
z
" style="stroke: #029e73; stroke-opacity: 0.7"/>
    </defs>
    <g clip-path="url(#p663b0ea356)">
     <use xlink:href="#m2990bbae2d" x="73.779034" y="121.82976" style="fill: #029e73; fill-opacity: 0.7; stroke: #029e73; stroke-opacity: 0.7"/>
     <use xlink:href="#m2990bbae2d" x="209.051761" y="19.554545" style="fill: #029e73; fill-opacity: 0.7; stroke: #029e73; stroke-opacity: 0.7"/>
     <use xlink:href="#m2990bbae2d" x="344.324489" y="32.130279" style="fill: #029e73; fill-opacity: 0.7; stroke: #029e73; stroke-opacity: 0.7"/>
     <use xlink:href="#m2990bbae2d" x="479.597216" y="77.981627" style="fill: #029e73; fill-opacity: 0.7; stroke: #029e73; stroke-opacity: 0.7"/>
    </g>
   </g>
   <g id="line2d_11">
    <path d="M 73.779034 150.208628 
L 209.051761 149.318311 
L 344.324489 129.620038 
L 479.597216 169.728838 
" clip-path="url(#p663b0ea356)" style="fill: none; stroke: #029e73; stroke-opacity: 0.7; stroke-width: 2.5; stroke-linecap: round"/>
    <g clip-path="url(#p663b0ea356)">
     <use xlink:href="#m2990bbae2d" x="73.779034" y="150.208628" style="fill: #029e73; fill-opacity: 0.7; stroke: #029e73; stroke-opacity: 0.7"/>
     <use xlink:href="#m2990bbae2d" x="209.051761" y="149.318311" style="fill: #029e73; fill-opacity: 0.7; stroke: #029e73; stroke-opacity: 0.7"/>
     <use xlink:href="#m2990bbae2d" x="344.324489" y="129.620038" style="fill: #029e73; fill-opacity: 0.7; stroke: #029e73; stroke-opacity: 0.7"/>
     <use xlink:href="#m2990bbae2d" x="479.597216" y="169.728838" style="fill: #029e73; fill-opacity: 0.7; stroke: #029e73; stroke-opacity: 0.7"/>
    </g>
   </g>
   <g id="line2d_12">
    <path d="M 73.779034 146.2022 
L 209.051761 136.965156 
L 344.324489 126.615216 
L 479.597216 147.760255 
" clip-path="url(#p663b0ea356)" style="fill: none; stroke: #cc78bc; stroke-opacity: 0.7; stroke-width: 2.5; stroke-linecap: round"/>
    <defs>
     <path id="m475b1db598" d="M 0 4 
C 1.060812 4 2.078319 3.578535 2.828427 2.828427 
C 3.578535 2.078319 4 1.060812 4 0 
C 4 -1.060812 3.578535 -2.078319 2.828427 -2.828427 
C 2.078319 -3.578535 1.060812 -4 0 -4 
C -1.060812 -4 -2.078319 -3.578535 -2.828427 -2.828427 
C -3.578535 -2.078319 -4 -1.060812 -4 0 
C -4 1.060812 -3.578535 2.078319 -2.828427 2.828427 
C -2.078319 3.578535 -1.060812 4 0 4 
z
" style="stroke: #cc78bc; stroke-opacity: 0.7"/>
    </defs>
    <g clip-path="url(#p663b0ea356)">
     <use xlink:href="#m475b1db598" x="73.779034" y="146.2022" style="fill: #cc78bc; fill-opacity: 0.7; stroke: #cc78bc; stroke-opacity: 0.7"/>
     <use xlink:href="#m475b1db598" x="209.051761" y="136.965156" style="fill: #cc78bc; fill-opacity: 0.7; stroke: #cc78bc; stroke-opacity: 0.7"/>
     <use xlink:href="#m475b1db598" x="344.324489" y="126.615216" style="fill: #cc78bc; fill-opacity: 0.7; stroke: #cc78bc; stroke-opacity: 0.7"/>
     <use xlink:href="#m475b1db598" x="479.597216" y="147.760255" style="fill: #cc78bc; fill-opacity: 0.7; stroke: #cc78bc; stroke-opacity: 0.7"/>
    </g>
   </g>
   <g id="line2d_13">
    <path d="M 73.779034 157.887616 
L 209.051761 131.289383 
L 344.324489 144.644144 
L 479.597216 168.126266 
" clip-path="url(#p663b0ea356)" style="fill: none; stroke: #cc78bc; stroke-opacity: 0.7; stroke-width: 2.5; stroke-linecap: round"/>
    <g clip-path="url(#p663b0ea356)">
     <use xlink:href="#m475b1db598" x="73.779034" y="157.887616" style="fill: #cc78bc; fill-opacity: 0.7; stroke: #cc78bc; stroke-opacity: 0.7"/>
     <use xlink:href="#m475b1db598" x="209.051761" y="131.289383" style="fill: #cc78bc; fill-opacity: 0.7; stroke: #cc78bc; stroke-opacity: 0.7"/>
     <use xlink:href="#m475b1db598" x="344.324489" y="144.644144" style="fill: #cc78bc; fill-opacity: 0.7; stroke: #cc78bc; stroke-opacity: 0.7"/>
     <use xlink:href="#m475b1db598" x="479.597216" y="168.126266" style="fill: #cc78bc; fill-opacity: 0.7; stroke: #cc78bc; stroke-opacity: 0.7"/>
    </g>
   </g>
   <g id="line2d_14">
    <path d="M 73.779034 182.182153 
L 209.051761 116.265276 
L 344.324489 121.607181 
L 479.597216 113.705614 
" clip-path="url(#p663b0ea356)" style="fill: none; stroke: #cc78bc; stroke-opacity: 0.7; stroke-width: 2.5; stroke-linecap: round"/>
    <g clip-path="url(#p663b0ea356)">
     <use xlink:href="#m475b1db598" x="73.779034" y="182.182153" style="fill: #cc78bc; fill-opacity: 0.7; stroke: #cc78bc; stroke-opacity: 0.7"/>
     <use xlink:href="#m475b1db598" x="209.051761" y="116.265276" style="fill: #cc78bc; fill-opacity: 0.7; stroke: #cc78bc; stroke-opacity: 0.7"/>
     <use xlink:href="#m475b1db598" x="344.324489" y="121.607181" style="fill: #cc78bc; fill-opacity: 0.7; stroke: #cc78bc; stroke-opacity: 0.7"/>
     <use xlink:href="#m475b1db598" x="479.597216" y="113.705614" style="fill: #cc78bc; fill-opacity: 0.7; stroke: #cc78bc; stroke-opacity: 0.7"/>
    </g>
   </g>
   <g id="line2d_15">
    <path d="M 73.779034 178.287014 
L 209.051761 87.552539 
L 344.324489 58.172064 
L 479.597216 104.69115 
" clip-path="url(#p663b0ea356)" style="fill: none; stroke: #cc78bc; stroke-opacity: 0.7; stroke-width: 2.5; stroke-linecap: round"/>
    <g clip-path="url(#p663b0ea356)">
     <use xlink:href="#m475b1db598" x="73.779034" y="178.287014" style="fill: #cc78bc; fill-opacity: 0.7; stroke: #cc78bc; stroke-opacity: 0.7"/>
     <use xlink:href="#m475b1db598" x="209.051761" y="87.552539" style="fill: #cc78bc; fill-opacity: 0.7; stroke: #cc78bc; stroke-opacity: 0.7"/>
     <use xlink:href="#m475b1db598" x="344.324489" y="58.172064" style="fill: #cc78bc; fill-opacity: 0.7; stroke: #cc78bc; stroke-opacity: 0.7"/>
     <use xlink:href="#m475b1db598" x="479.597216" y="104.69115" style="fill: #cc78bc; fill-opacity: 0.7; stroke: #cc78bc; stroke-opacity: 0.7"/>
    </g>
   </g>
   <g id="line2d_16">
    <path d="M 73.779034 177.875242 
L 209.051761 212.83133 
L 344.324489 171.453828 
L 479.597216 196.404974 
" clip-path="url(#p663b0ea356)" style="fill: none; stroke: #cc78bc; stroke-opacity: 0.7; stroke-width: 2.5; stroke-linecap: round"/>
    <g clip-path="url(#p663b0ea356)">
     <use xlink:href="#m475b1db598" x="73.779034" y="177.875242" style="fill: #cc78bc; fill-opacity: 0.7; stroke: #cc78bc; stroke-opacity: 0.7"/>
     <use xlink:href="#m475b1db598" x="209.051761" y="212.83133" style="fill: #cc78bc; fill-opacity: 0.7; stroke: #cc78bc; stroke-opacity: 0.7"/>
     <use xlink:href="#m475b1db598" x="344.324489" y="171.453828" style="fill: #cc78bc; fill-opacity: 0.7; stroke: #cc78bc; stroke-opacity: 0.7"/>
     <use xlink:href="#m475b1db598" x="479.597216" y="196.404974" style="fill: #cc78bc; fill-opacity: 0.7; stroke: #cc78bc; stroke-opacity: 0.7"/>
    </g>
   </g>
   <g id="line2d_17">
    <path d="M 73.779034 241.633099 
L 209.051761 232.151219 
L 344.324489 232.818957 
L 479.597216 240.609234 
" clip-path="url(#p663b0ea356)" style="fill: none; stroke: #d55e00; stroke-opacity: 0.7; stroke-width: 2.5; stroke-linecap: round"/>
    <defs>
     <path id="mdae3534faf" d="M 0 4 
C 1.060812 4 2.078319 3.578535 2.828427 2.828427 
C 3.578535 2.078319 4 1.060812 4 0 
C 4 -1.060812 3.578535 -2.078319 2.828427 -2.828427 
C 2.078319 -3.578535 1.060812 -4 0 -4 
C -1.060812 -4 -2.078319 -3.578535 -2.828427 -2.828427 
C -3.578535 -2.078319 -4 -1.060812 -4 0 
C -4 1.060812 -3.578535 2.078319 -2.828427 2.828427 
C -2.078319 3.578535 -1.060812 4 0 4 
z
" style="stroke: #d55e00; stroke-opacity: 0.7"/>
    </defs>
    <g clip-path="url(#p663b0ea356)">
     <use xlink:href="#mdae3534faf" x="73.779034" y="241.633099" style="fill: #d55e00; fill-opacity: 0.7; stroke: #d55e00; stroke-opacity: 0.7"/>
     <use xlink:href="#mdae3534faf" x="209.051761" y="232.151219" style="fill: #d55e00; fill-opacity: 0.7; stroke: #d55e00; stroke-opacity: 0.7"/>
     <use xlink:href="#mdae3534faf" x="344.324489" y="232.818957" style="fill: #d55e00; fill-opacity: 0.7; stroke: #d55e00; stroke-opacity: 0.7"/>
     <use xlink:href="#mdae3534faf" x="479.597216" y="240.609234" style="fill: #d55e00; fill-opacity: 0.7; stroke: #d55e00; stroke-opacity: 0.7"/>
    </g>
   </g>
   <g id="line2d_18">
    <path d="M 73.779034 222.235308 
L 209.051761 240.230849 
L 344.324489 234.733139 
L 479.597216 249.423377 
" clip-path="url(#p663b0ea356)" style="fill: none; stroke: #d55e00; stroke-opacity: 0.7; stroke-width: 2.5; stroke-linecap: round"/>
    <g clip-path="url(#p663b0ea356)">
     <use xlink:href="#mdae3534faf" x="73.779034" y="222.235308" style="fill: #d55e00; fill-opacity: 0.7; stroke: #d55e00; stroke-opacity: 0.7"/>
     <use xlink:href="#mdae3534faf" x="209.051761" y="240.230849" style="fill: #d55e00; fill-opacity: 0.7; stroke: #d55e00; stroke-opacity: 0.7"/>
     <use xlink:href="#mdae3534faf" x="344.324489" y="234.733139" style="fill: #d55e00; fill-opacity: 0.7; stroke: #d55e00; stroke-opacity: 0.7"/>
     <use xlink:href="#mdae3534faf" x="479.597216" y="249.423377" style="fill: #d55e00; fill-opacity: 0.7; stroke: #d55e00; stroke-opacity: 0.7"/>
    </g>
   </g>
   <g id="line2d_19">
    <path d="M 73.779034 238.550375 
L 209.051761 227.443665 
L 344.324489 234.198949 
L 479.597216 266.645455 
" clip-path="url(#p663b0ea356)" style="fill: none; stroke: #d55e00; stroke-opacity: 0.7; stroke-width: 2.5; stroke-linecap: round"/>
    <g clip-path="url(#p663b0ea356)">
     <use xlink:href="#mdae3534faf" x="73.779034" y="238.550375" style="fill: #d55e00; fill-opacity: 0.7; stroke: #d55e00; stroke-opacity: 0.7"/>
     <use xlink:href="#mdae3534faf" x="209.051761" y="227.443665" style="fill: #d55e00; fill-opacity: 0.7; stroke: #d55e00; stroke-opacity: 0.7"/>
     <use xlink:href="#mdae3534faf" x="344.324489" y="234.198949" style="fill: #d55e00; fill-opacity: 0.7; stroke: #d55e00; stroke-opacity: 0.7"/>
     <use xlink:href="#mdae3534faf" x="479.597216" y="266.645455" style="fill: #d55e00; fill-opacity: 0.7; stroke: #d55e00; stroke-opacity: 0.7"/>
    </g>
   </g>
   <g id="patch_3">
    <path d="M 53.488125 279 
L 53.488125 7.2 
" style="fill: none; stroke: #262626; stroke-width: 1.25; stroke-linejoin: miter; stroke-linecap: square"/>
   </g>
   <g id="patch_4">
    <path d="M 53.488125 279 
L 499.888125 279 
" style="fill: none; stroke: #262626; stroke-width: 1.25; stroke-linejoin: miter; stroke-linecap: square"/>
   </g>
  </g>
 </g>
 <defs>
  <clipPath id="p663b0ea356">
   <rect x="53.488125" y="7.2" width="446.4" height="271.8"/>
  </clipPath>
 </defs>
</svg>
