<?xml version="1.0" encoding="utf-8" standalone="no"?>
<!DOCTYPE svg PUBLIC "-//W3C//DTD SVG 1.1//EN"
  "http://www.w3.org/Graphics/SVG/1.1/DTD/svg11.dtd">
<svg xmlns:xlink="http://www.w3.org/1999/xlink" width="517.097812pt" height="328.930313pt" viewBox="0 0 517.097812 328.930313" xmlns="http://www.w3.org/2000/svg" version="1.1">
 <metadata>
  <rdf:RDF xmlns:dc="http://purl.org/dc/elements/1.1/" xmlns:cc="http://creativecommons.org/ns#" xmlns:rdf="http://www.w3.org/1999/02/22-rdf-syntax-ns#">
   <cc:Work>
    <dc:type rdf:resource="http://purl.org/dc/dcmitype/StillImage"/>
    <dc:date>2022-06-10T18:48:55.782632</dc:date>
    <dc:format>image/svg+xml</dc:format>
    <dc:creator>
     <cc:Agent>
      <dc:title>Matplotlib v3.5.2, https://matplotlib.org/</dc:title>
     </cc:Agent>
    </dc:creator>
   </cc:Work>
  </rdf:RDF>
 </metadata>
 <defs>
  <style type="text/css">*{stroke-linejoin: round; stroke-linecap: butt}</style>
 </defs>
 <g id="figure_1">
  <g id="patch_1">
   <path d="M 0 328.930313 
L 517.097812 328.930313 
L 517.097812 0 
L 0 0 
z
" style="fill: #ffffff"/>
  </g>
  <g id="axes_1">
   <g id="patch_2">
    <path d="M 63.497813 279 
L 509.897812 279 
L 509.897812 7.2 
L 63.497813 7.2 
z
" style="fill: #ffffff"/>
   </g>
   <g id="matplotlib.axis_1">
    <g id="xtick_1">
     <g id="line2d_1"/>
     <g id="text_1">
      <text style="fill: #262626; font: 18px 'sans-serif'; text-anchor: middle" x="83.788722" y="295.384063" transform="rotate(-0, 83.788722, 295.384063)">8</text>
     </g>
    </g>
    <g id="xtick_2">
     <g id="line2d_2"/>
     <g id="text_2">
      <text style="fill: #262626; font: 18px 'sans-serif'; text-anchor: middle" x="185.243267" y="295.384063" transform="rotate(-0, 185.243267, 295.384063)">9</text>
     </g>
    </g>
    <g id="xtick_3">
     <g id="line2d_3"/>
     <g id="text_3">
      <text style="fill: #262626; font: 18px 'sans-serif'; text-anchor: middle" x="286.697812" y="295.384063" transform="rotate(-0, 286.697812, 295.384063)">10</text>
     </g>
    </g>
    <g id="xtick_4">
     <g id="line2d_4"/>
     <g id="text_4">
      <text style="fill: #262626; font: 18px 'sans-serif'; text-anchor: middle" x="388.152358" y="295.384063" transform="rotate(-0, 388.152358, 295.384063)">11</text>
     </g>
    </g>
    <g id="xtick_5">
     <g id="line2d_5"/>
     <g id="text_5">
      <text style="fill: #262626; font: 18px 'sans-serif'; text-anchor: middle" x="489.606903" y="295.384063" transform="rotate(-0, 489.606903, 295.384063)">12</text>
     </g>
    </g>
    <g id="text_6">
     <text style="fill: #262626; font: 20px 'sans-serif'; text-anchor: middle" x="286.697812" y="317.520938" transform="rotate(-0, 286.697812, 317.520938)">Age (weeks)</text>
    </g>
   </g>
   <g id="matplotlib.axis_2">
    <g id="ytick_1">
     <g id="line2d_6"/>
     <g id="text_7">
      <text style="fill: #262626; font: 18px 'sans-serif'; text-anchor: end" x="59.997813" y="238.155715" transform="rotate(-0, 59.997813, 238.155715)">80</text>
     </g>
    </g>
    <g id="ytick_2">
     <g id="line2d_7"/>
     <g id="text_8">
      <text style="fill: #262626; font: 18px 'sans-serif'; text-anchor: end" x="59.997813" y="186.785463" transform="rotate(-0, 59.997813, 186.785463)">90</text>
     </g>
    </g>
    <g id="ytick_3">
     <g id="line2d_8"/>
     <g id="text_9">
      <text style="fill: #262626; font: 18px 'sans-serif'; text-anchor: end" x="59.997813" y="135.415212" transform="rotate(-0, 59.997813, 135.415212)">100</text>
     </g>
    </g>
    <g id="ytick_4">
     <g id="line2d_9"/>
     <g id="text_10">
      <text style="fill: #262626; font: 18px 'sans-serif'; text-anchor: end" x="59.997813" y="84.044961" transform="rotate(-0, 59.997813, 84.044961)">110</text>
     </g>
    </g>
    <g id="ytick_5">
     <g id="line2d_10"/>
     <g id="text_11">
      <text style="fill: #262626; font: 18px 'sans-serif'; text-anchor: end" x="59.997813" y="32.674709" transform="rotate(-0, 59.997813, 32.674709)">120</text>
     </g>
    </g>
    <g id="text_12">
     <text style="fill: #262626; font: 20px 'sans-serif'; text-anchor: middle" x="21.759375" y="143.1" transform="rotate(-90, 21.759375, 143.1)">Body weight (g)</text>
    </g>
   </g>
   <g id="line2d_11">
    <path d="M 83.788722 251.748082 
L 185.243267 225.549253 
L 286.697812 199.864128 
L 388.152358 185.480457 
L 489.606903 168.014572 
" clip-path="url(#paf8b81f60e)" style="fill: none; stroke: #029e73; stroke-opacity: 0.7; stroke-width: 2.5; stroke-linecap: round"/>
    <defs>
     <path id="m403399041e" d="M 0 4 
C 1.060812 4 2.078319 3.578535 2.828427 2.828427 
C 3.578535 2.078319 4 1.060812 4 0 
C 4 -1.060812 3.578535 -2.078319 2.828427 -2.828427 
C 2.078319 -3.578535 1.060812 -4 0 -4 
C -1.060812 -4 -2.078319 -3.578535 -2.828427 -2.828427 
C -3.578535 -2.078319 -4 -1.060812 -4 0 
C -4 1.060812 -3.578535 2.078319 -2.828427 2.828427 
C -2.078319 3.578535 -1.060812 4 0 4 
z
" style="stroke: #029e73; stroke-opacity: 0.7"/>
    </defs>
    <g clip-path="url(#paf8b81f60e)">
     <use xlink:href="#m403399041e" x="83.788722" y="251.748082" style="fill: #029e73; fill-opacity: 0.7; stroke: #029e73; stroke-opacity: 0.7"/>
     <use xlink:href="#m403399041e" x="185.243267" y="225.549253" style="fill: #029e73; fill-opacity: 0.7; stroke: #029e73; stroke-opacity: 0.7"/>
     <use xlink:href="#m403399041e" x="286.697812" y="199.864128" style="fill: #029e73; fill-opacity: 0.7; stroke: #029e73; stroke-opacity: 0.7"/>
     <use xlink:href="#m403399041e" x="388.152358" y="185.480457" style="fill: #029e73; fill-opacity: 0.7; stroke: #029e73; stroke-opacity: 0.7"/>
     <use xlink:href="#m403399041e" x="489.606903" y="168.014572" style="fill: #029e73; fill-opacity: 0.7; stroke: #029e73; stroke-opacity: 0.7"/>
    </g>
   </g>
   <g id="line2d_12">
    <path d="M 83.788722 254.316594 
L 185.243267 226.576658 
L 286.697812 202.43264 
L 388.152358 178.288622 
L 489.606903 157.226819 
" clip-path="url(#paf8b81f60e)" style="fill: none; stroke: #029e73; stroke-opacity: 0.7; stroke-width: 2.5; stroke-linecap: round"/>
    <g clip-path="url(#paf8b81f60e)">
     <use xlink:href="#m403399041e" x="83.788722" y="254.316594" style="fill: #029e73; fill-opacity: 0.7; stroke: #029e73; stroke-opacity: 0.7"/>
     <use xlink:href="#m403399041e" x="185.243267" y="226.576658" style="fill: #029e73; fill-opacity: 0.7; stroke: #029e73; stroke-opacity: 0.7"/>
     <use xlink:href="#m403399041e" x="286.697812" y="202.43264" style="fill: #029e73; fill-opacity: 0.7; stroke: #029e73; stroke-opacity: 0.7"/>
     <use xlink:href="#m403399041e" x="388.152358" y="178.288622" style="fill: #029e73; fill-opacity: 0.7; stroke: #029e73; stroke-opacity: 0.7"/>
     <use xlink:href="#m403399041e" x="489.606903" y="157.226819" style="fill: #029e73; fill-opacity: 0.7; stroke: #029e73; stroke-opacity: 0.7"/>
    </g>
   </g>
   <g id="line2d_13">
    <path d="M 83.788722 179.316027 
L 185.243267 149.521281 
L 286.697812 122.295048 
L 388.152358 105.856568 
L 489.606903 102.774353 
" clip-path="url(#paf8b81f60e)" style="fill: none; stroke: #cc78bc; stroke-opacity: 0.7; stroke-width: 2.5; stroke-linecap: round"/>
    <defs>
     <path id="m14fb9520ae" d="M 0 4 
C 1.060812 4 2.078319 3.578535 2.828427 2.828427 
C 3.578535 2.078319 4 1.060812 4 0 
C 4 -1.060812 3.578535 -2.078319 2.828427 -2.828427 
C 2.078319 -3.578535 1.060812 -4 0 -4 
C -1.060812 -4 -2.078319 -3.578535 -2.828427 -2.828427 
C -3.578535 -2.078319 -4 -1.060812 -4 0 
C -4 1.060812 -3.578535 2.078319 -2.828427 2.828427 
C -2.078319 3.578535 -1.060812 4 0 4 
z
" style="stroke: #cc78bc; stroke-opacity: 0.7"/>
    </defs>
    <g clip-path="url(#paf8b81f60e)">
     <use xlink:href="#m14fb9520ae" x="83.788722" y="179.316027" style="fill: #cc78bc; fill-opacity: 0.7; stroke: #cc78bc; stroke-opacity: 0.7"/>
     <use xlink:href="#m14fb9520ae" x="185.243267" y="149.521281" style="fill: #cc78bc; fill-opacity: 0.7; stroke: #cc78bc; stroke-opacity: 0.7"/>
     <use xlink:href="#m14fb9520ae" x="286.697812" y="122.295048" style="fill: #cc78bc; fill-opacity: 0.7; stroke: #cc78bc; stroke-opacity: 0.7"/>
     <use xlink:href="#m14fb9520ae" x="388.152358" y="105.856568" style="fill: #cc78bc; fill-opacity: 0.7; stroke: #cc78bc; stroke-opacity: 0.7"/>
     <use xlink:href="#m14fb9520ae" x="489.606903" y="102.774353" style="fill: #cc78bc; fill-opacity: 0.7; stroke: #cc78bc; stroke-opacity: 0.7"/>
    </g>
   </g>
   <g id="line2d_14">
    <path d="M 83.788722 174.179002 
L 185.243267 149.007579 
L 286.697812 122.295048 
L 388.152358 94.555112 
L 489.606903 82.226252 
" clip-path="url(#paf8b81f60e)" style="fill: none; stroke: #cc78bc; stroke-opacity: 0.7; stroke-width: 2.5; stroke-linecap: round"/>
    <g clip-path="url(#paf8b81f60e)">
     <use xlink:href="#m14fb9520ae" x="83.788722" y="174.179002" style="fill: #cc78bc; fill-opacity: 0.7; stroke: #cc78bc; stroke-opacity: 0.7"/>
     <use xlink:href="#m14fb9520ae" x="185.243267" y="149.007579" style="fill: #cc78bc; fill-opacity: 0.7; stroke: #cc78bc; stroke-opacity: 0.7"/>
     <use xlink:href="#m14fb9520ae" x="286.697812" y="122.295048" style="fill: #cc78bc; fill-opacity: 0.7; stroke: #cc78bc; stroke-opacity: 0.7"/>
     <use xlink:href="#m14fb9520ae" x="388.152358" y="94.555112" style="fill: #cc78bc; fill-opacity: 0.7; stroke: #cc78bc; stroke-opacity: 0.7"/>
     <use xlink:href="#m14fb9520ae" x="489.606903" y="82.226252" style="fill: #cc78bc; fill-opacity: 0.7; stroke: #cc78bc; stroke-opacity: 0.7"/>
    </g>
   </g>
   <g id="line2d_15">
    <path d="M 83.788722 145.925364 
L 185.243267 135.651314 
L 286.697812 97.123625 
L 388.152358 77.089227 
L 489.606903 75.548119 
" clip-path="url(#paf8b81f60e)" style="fill: none; stroke: #cc78bc; stroke-opacity: 0.7; stroke-width: 2.5; stroke-linecap: round"/>
    <g clip-path="url(#paf8b81f60e)">
     <use xlink:href="#m14fb9520ae" x="83.788722" y="145.925364" style="fill: #cc78bc; fill-opacity: 0.7; stroke: #cc78bc; stroke-opacity: 0.7"/>
     <use xlink:href="#m14fb9520ae" x="185.243267" y="135.651314" style="fill: #cc78bc; fill-opacity: 0.7; stroke: #cc78bc; stroke-opacity: 0.7"/>
     <use xlink:href="#m14fb9520ae" x="286.697812" y="97.123625" style="fill: #cc78bc; fill-opacity: 0.7; stroke: #cc78bc; stroke-opacity: 0.7"/>
     <use xlink:href="#m14fb9520ae" x="388.152358" y="77.089227" style="fill: #cc78bc; fill-opacity: 0.7; stroke: #cc78bc; stroke-opacity: 0.7"/>
     <use xlink:href="#m14fb9520ae" x="489.606903" y="75.548119" style="fill: #cc78bc; fill-opacity: 0.7; stroke: #cc78bc; stroke-opacity: 0.7"/>
    </g>
   </g>
   <g id="line2d_16">
    <path d="M 83.788722 266.645455 
L 185.243267 230.686279 
L 286.697812 188.04897 
L 388.152358 182.911945 
L 489.606903 137.706124 
" clip-path="url(#paf8b81f60e)" style="fill: none; stroke: #cc78bc; stroke-opacity: 0.7; stroke-width: 2.5; stroke-linecap: round"/>
    <g clip-path="url(#paf8b81f60e)">
     <use xlink:href="#m14fb9520ae" x="83.788722" y="266.645455" style="fill: #cc78bc; fill-opacity: 0.7; stroke: #cc78bc; stroke-opacity: 0.7"/>
     <use xlink:href="#m14fb9520ae" x="185.243267" y="230.686279" style="fill: #cc78bc; fill-opacity: 0.7; stroke: #cc78bc; stroke-opacity: 0.7"/>
     <use xlink:href="#m14fb9520ae" x="286.697812" y="188.04897" style="fill: #cc78bc; fill-opacity: 0.7; stroke: #cc78bc; stroke-opacity: 0.7"/>
     <use xlink:href="#m14fb9520ae" x="388.152358" y="182.911945" style="fill: #cc78bc; fill-opacity: 0.7; stroke: #cc78bc; stroke-opacity: 0.7"/>
     <use xlink:href="#m14fb9520ae" x="489.606903" y="137.706124" style="fill: #cc78bc; fill-opacity: 0.7; stroke: #cc78bc; stroke-opacity: 0.7"/>
    </g>
   </g>
   <g id="line2d_17">
    <path d="M 83.788722 138.219826 
L 185.243267 100.719543 
L 286.697812 55.513721 
L 388.152358 38.561538 
L 489.606903 19.554545 
" clip-path="url(#paf8b81f60e)" style="fill: none; stroke: #cc78bc; stroke-opacity: 0.7; stroke-width: 2.5; stroke-linecap: round"/>
    <g clip-path="url(#paf8b81f60e)">
     <use xlink:href="#m14fb9520ae" x="83.788722" y="138.219826" style="fill: #cc78bc; fill-opacity: 0.7; stroke: #cc78bc; stroke-opacity: 0.7"/>
     <use xlink:href="#m14fb9520ae" x="185.243267" y="100.719543" style="fill: #cc78bc; fill-opacity: 0.7; stroke: #cc78bc; stroke-opacity: 0.7"/>
     <use xlink:href="#m14fb9520ae" x="286.697812" y="55.513721" style="fill: #cc78bc; fill-opacity: 0.7; stroke: #cc78bc; stroke-opacity: 0.7"/>
     <use xlink:href="#m14fb9520ae" x="388.152358" y="38.561538" style="fill: #cc78bc; fill-opacity: 0.7; stroke: #cc78bc; stroke-opacity: 0.7"/>
     <use xlink:href="#m14fb9520ae" x="489.606903" y="19.554545" style="fill: #cc78bc; fill-opacity: 0.7; stroke: #cc78bc; stroke-opacity: 0.7"/>
    </g>
   </g>
   <g id="line2d_18">
    <path d="M 83.788722 153.630902 
L 185.243267 125.377263 
L 286.697812 112.5347 
L 388.152358 76.061822 
L 489.606903 66.815177 
" clip-path="url(#paf8b81f60e)" style="fill: none; stroke: #d55e00; stroke-opacity: 0.7; stroke-width: 2.5; stroke-linecap: round"/>
    <defs>
     <path id="mfe9839b5d4" d="M 0 4 
C 1.060812 4 2.078319 3.578535 2.828427 2.828427 
C 3.578535 2.078319 4 1.060812 4 0 
C 4 -1.060812 3.578535 -2.078319 2.828427 -2.828427 
C 2.078319 -3.578535 1.060812 -4 0 -4 
C -1.060812 -4 -2.078319 -3.578535 -2.828427 -2.828427 
C -3.578535 -2.078319 -4 -1.060812 -4 0 
C -4 1.060812 -3.578535 2.078319 -2.828427 2.828427 
C -2.078319 3.578535 -1.060812 4 0 4 
z
" style="stroke: #d55e00; stroke-opacity: 0.7"/>
    </defs>
    <g clip-path="url(#paf8b81f60e)">
     <use xlink:href="#mfe9839b5d4" x="83.788722" y="153.630902" style="fill: #d55e00; fill-opacity: 0.7; stroke: #d55e00; stroke-opacity: 0.7"/>
     <use xlink:href="#mfe9839b5d4" x="185.243267" y="125.377263" style="fill: #d55e00; fill-opacity: 0.7; stroke: #d55e00; stroke-opacity: 0.7"/>
     <use xlink:href="#mfe9839b5d4" x="286.697812" y="112.5347" style="fill: #d55e00; fill-opacity: 0.7; stroke: #d55e00; stroke-opacity: 0.7"/>
     <use xlink:href="#mfe9839b5d4" x="388.152358" y="76.061822" style="fill: #d55e00; fill-opacity: 0.7; stroke: #d55e00; stroke-opacity: 0.7"/>
     <use xlink:href="#mfe9839b5d4" x="489.606903" y="66.815177" style="fill: #d55e00; fill-opacity: 0.7; stroke: #d55e00; stroke-opacity: 0.7"/>
    </g>
   </g>
   <g id="line2d_19">
    <path d="M 83.788722 157.226819 
L 185.243267 130.514288 
L 286.697812 108.938783 
L 388.152358 90.959195 
L 489.606903 83.76736 
" clip-path="url(#paf8b81f60e)" style="fill: none; stroke: #d55e00; stroke-opacity: 0.7; stroke-width: 2.5; stroke-linecap: round"/>
    <g clip-path="url(#paf8b81f60e)">
     <use xlink:href="#mfe9839b5d4" x="83.788722" y="157.226819" style="fill: #d55e00; fill-opacity: 0.7; stroke: #d55e00; stroke-opacity: 0.7"/>
     <use xlink:href="#mfe9839b5d4" x="185.243267" y="130.514288" style="fill: #d55e00; fill-opacity: 0.7; stroke: #d55e00; stroke-opacity: 0.7"/>
     <use xlink:href="#mfe9839b5d4" x="286.697812" y="108.938783" style="fill: #d55e00; fill-opacity: 0.7; stroke: #d55e00; stroke-opacity: 0.7"/>
     <use xlink:href="#mfe9839b5d4" x="388.152358" y="90.959195" style="fill: #d55e00; fill-opacity: 0.7; stroke: #d55e00; stroke-opacity: 0.7"/>
     <use xlink:href="#mfe9839b5d4" x="489.606903" y="83.76736" style="fill: #d55e00; fill-opacity: 0.7; stroke: #d55e00; stroke-opacity: 0.7"/>
    </g>
   </g>
   <g id="line2d_20">
    <path d="M 83.788722 164.418654 
L 185.243267 135.651314 
L 286.697812 87.87698 
L 388.152358 80.171442 
L 489.606903 75.034417 
" clip-path="url(#paf8b81f60e)" style="fill: none; stroke: #d55e00; stroke-opacity: 0.7; stroke-width: 2.5; stroke-linecap: round"/>
    <g clip-path="url(#paf8b81f60e)">
     <use xlink:href="#mfe9839b5d4" x="83.788722" y="164.418654" style="fill: #d55e00; fill-opacity: 0.7; stroke: #d55e00; stroke-opacity: 0.7"/>
     <use xlink:href="#mfe9839b5d4" x="185.243267" y="135.651314" style="fill: #d55e00; fill-opacity: 0.7; stroke: #d55e00; stroke-opacity: 0.7"/>
     <use xlink:href="#mfe9839b5d4" x="286.697812" y="87.87698" style="fill: #d55e00; fill-opacity: 0.7; stroke: #d55e00; stroke-opacity: 0.7"/>
     <use xlink:href="#mfe9839b5d4" x="388.152358" y="80.171442" style="fill: #d55e00; fill-opacity: 0.7; stroke: #d55e00; stroke-opacity: 0.7"/>
     <use xlink:href="#mfe9839b5d4" x="489.606903" y="75.034417" style="fill: #d55e00; fill-opacity: 0.7; stroke: #d55e00; stroke-opacity: 0.7"/>
    </g>
   </g>
   <g id="patch_3">
    <path d="M 63.497813 279 
L 63.497813 7.2 
" style="fill: none; stroke: #262626; stroke-width: 1.25; stroke-linejoin: miter; stroke-linecap: square"/>
   </g>
   <g id="patch_4">
    <path d="M 63.497813 279 
L 509.897812 279 
" style="fill: none; stroke: #262626; stroke-width: 1.25; stroke-linejoin: miter; stroke-linecap: square"/>
   </g>
  </g>
 </g>
 <defs>
  <clipPath id="paf8b81f60e">
   <rect x="63.497813" y="7.2" width="446.4" height="271.8"/>
  </clipPath>
 </defs>
</svg>
