<?xml version="1.0" encoding="utf-8" standalone="no"?>
<!DOCTYPE svg PUBLIC "-//W3C//DTD SVG 1.1//EN"
  "http://www.w3.org/Graphics/SVG/1.1/DTD/svg11.dtd">
<svg xmlns:xlink="http://www.w3.org/1999/xlink" width="612.948688pt" height="367.116pt" viewBox="0 0 612.948688 367.116" xmlns="http://www.w3.org/2000/svg" version="1.1">
 <metadata>
  <rdf:RDF xmlns:dc="http://purl.org/dc/elements/1.1/" xmlns:cc="http://creativecommons.org/ns#" xmlns:rdf="http://www.w3.org/1999/02/22-rdf-syntax-ns#">
   <cc:Work>
    <dc:type rdf:resource="http://purl.org/dc/dcmitype/StillImage"/>
    <dc:date>2022-06-10T18:48:57.816086</dc:date>
    <dc:format>image/svg+xml</dc:format>
    <dc:creator>
     <cc:Agent>
      <dc:title>Matplotlib v3.5.2, https://matplotlib.org/</dc:title>
     </cc:Agent>
    </dc:creator>
   </cc:Work>
  </rdf:RDF>
 </metadata>
 <defs>
  <style type="text/css">*{stroke-linejoin: round; stroke-linecap: butt}</style>
 </defs>
 <g id="figure_1">
  <g id="patch_1">
   <path d="M 0 367.116 
L 612.948688 367.116 
L 612.948688 0 
L 0 0 
z
" style="fill: #ffffff"/>
  </g>
  <g id="axes_1">
   <g id="patch_2">
    <path d="M 28.495 317.185687 
L 474.895 317.185687 
L 474.895 45.385687 
L 28.495 45.385687 
z
" style="fill: #ffffff"/>
   </g>
   <g id="matplotlib.axis_1">
    <g id="xtick_1">
     <g id="line2d_1"/>
     <g id="text_1">
      <text style="fill: #262626; font: 18px 'sans-serif'; text-anchor: middle" x="55.384579" y="333.56975" transform="rotate(-0, 55.384579, 333.56975)">0</text>
     </g>
    </g>
    <g id="xtick_2">
     <g id="line2d_2"/>
     <g id="text_2">
      <text style="fill: #262626; font: 18px 'sans-serif'; text-anchor: middle" x="88.377927" y="333.56975" transform="rotate(-0, 88.377927, 333.56975)">10</text>
     </g>
    </g>
    <g id="xtick_3">
     <g id="line2d_3"/>
     <g id="text_3">
      <text style="fill: #262626; font: 18px 'sans-serif'; text-anchor: middle" x="121.371275" y="333.56975" transform="rotate(-0, 121.371275, 333.56975)">20</text>
     </g>
    </g>
    <g id="xtick_4">
     <g id="line2d_4"/>
     <g id="text_4">
      <text style="fill: #262626; font: 18px 'sans-serif'; text-anchor: middle" x="154.364623" y="333.56975" transform="rotate(-0, 154.364623, 333.56975)">30</text>
     </g>
    </g>
    <g id="xtick_5">
     <g id="line2d_5"/>
     <g id="text_5">
      <text style="fill: #262626; font: 18px 'sans-serif'; text-anchor: middle" x="253.344667" y="333.56975" transform="rotate(-0, 253.344667, 333.56975)">60</text>
     </g>
    </g>
    <g id="xtick_6">
     <g id="line2d_6"/>
     <g id="text_6">
      <text style="fill: #262626; font: 18px 'sans-serif'; text-anchor: middle" x="451.304756" y="333.56975" transform="rotate(-0, 451.304756, 333.56975)">120</text>
     </g>
    </g>
    <g id="text_7">
     <text style="fill: #262626; font: 20px 'sans-serif'; text-anchor: middle" x="251.695" y="355.706625" transform="rotate(-0, 251.695, 355.706625)">Time (min)</text>
    </g>
   </g>
   <g id="matplotlib.axis_2">
    <g id="ytick_1">
     <g id="line2d_7"/>
     <g id="text_8">
      <text style="fill: #262626; font: 16px 'sans-serif'; text-anchor: end" x="24.995" y="312.302458" transform="rotate(-0, 24.995, 312.302458)">0</text>
     </g>
    </g>
    <g id="ytick_2">
     <g id="line2d_8"/>
     <g id="text_9">
      <text style="fill: #262626; font: 16px 'sans-serif'; text-anchor: end" x="24.995" y="260.064354" transform="rotate(-0, 24.995, 260.064354)">2</text>
     </g>
    </g>
    <g id="ytick_3">
     <g id="line2d_9"/>
     <g id="text_10">
      <text style="fill: #262626; font: 16px 'sans-serif'; text-anchor: end" x="24.995" y="207.82625" transform="rotate(-0, 24.995, 207.82625)">4</text>
     </g>
    </g>
    <g id="ytick_4">
     <g id="line2d_10"/>
     <g id="text_11">
      <text style="fill: #262626; font: 16px 'sans-serif'; text-anchor: end" x="24.995" y="155.588146" transform="rotate(-0, 24.995, 155.588146)">6</text>
     </g>
    </g>
    <g id="ytick_5">
     <g id="line2d_11"/>
     <g id="text_12">
      <text style="fill: #262626; font: 16px 'sans-serif'; text-anchor: end" x="24.995" y="103.350042" transform="rotate(-0, 24.995, 103.350042)">8</text>
     </g>
    </g>
    <g id="ytick_6">
     <g id="line2d_12"/>
     <g id="text_13">
      <text style="fill: #262626; font: 16px 'sans-serif'; text-anchor: end" x="24.995" y="51.111938" transform="rotate(-0, 24.995, 51.111938)">10</text>
     </g>
    </g>
   </g>
   <g id="PathCollection_1">
    <defs>
     <path id="m3907e80ce4" d="M 0 3 
C 0.795609 3 1.55874 2.683901 2.12132 2.12132 
C 2.683901 1.55874 3 0.795609 3 0 
C 3 -0.795609 2.683901 -1.55874 2.12132 -2.12132 
C 1.55874 -2.683901 0.795609 -3 0 -3 
C -0.795609 -3 -1.55874 -2.683901 -2.12132 -2.12132 
C -2.683901 -1.55874 -3 -0.795609 -3 0 
C -3 0.795609 -2.683901 1.55874 -2.12132 2.12132 
C -1.55874 2.683901 -0.795609 3 0 3 
z
" style="stroke: #029e73"/>
    </defs>
    <g clip-path="url(#paa3a0b8002)">
     <use xlink:href="#m3907e80ce4" x="48.785909" y="272.882631" style="fill: #029e73; stroke: #029e73"/>
     <use xlink:href="#m3907e80ce4" x="81.779257" y="175.771995" style="fill: #029e73; stroke: #029e73"/>
     <use xlink:href="#m3907e80ce4" x="114.772605" y="124.552534" style="fill: #029e73; stroke: #029e73"/>
     <use xlink:href="#m3907e80ce4" x="147.765953" y="153.492444" style="fill: #029e73; stroke: #029e73"/>
     <use xlink:href="#m3907e80ce4" x="246.745998" y="84.329194" style="fill: #029e73; stroke: #029e73"/>
     <use xlink:href="#m3907e80ce4" x="444.706086" y="282.938466" style="fill: #029e73; stroke: #029e73"/>
    </g>
   </g>
   <g id="PathCollection_2">
    <g clip-path="url(#paa3a0b8002)">
     <use xlink:href="#m3907e80ce4" x="48.785909" y="277.662417" style="fill: #029e73; stroke: #029e73"/>
     <use xlink:href="#m3907e80ce4" x="81.779257" y="180.395068" style="fill: #029e73; stroke: #029e73"/>
     <use xlink:href="#m3907e80ce4" x="114.772605" y="237.987577" style="fill: #029e73; stroke: #029e73"/>
     <use xlink:href="#m3907e80ce4" x="147.765953" y="246.241198" style="fill: #029e73; stroke: #029e73"/>
     <use xlink:href="#m3907e80ce4" x="246.745998" y="153.205134" style="fill: #029e73; stroke: #029e73"/>
     <use xlink:href="#m3907e80ce4" x="444.706086" y="251.778437" style="fill: #029e73; stroke: #029e73"/>
    </g>
   </g>
   <g id="PathCollection_3">
    <defs>
     <path id="mcc875a9586" d="M 0 3 
C 0.795609 3 1.55874 2.683901 2.12132 2.12132 
C 2.683901 1.55874 3 0.795609 3 0 
C 3 -0.795609 2.683901 -1.55874 2.12132 -2.12132 
C 1.55874 -2.683901 0.795609 -3 0 -3 
C -0.795609 -3 -1.55874 -2.683901 -2.12132 -2.12132 
C -2.683901 -1.55874 -3 -0.795609 -3 0 
C -3 0.795609 -2.683901 1.55874 -2.12132 2.12132 
C -1.55874 2.683901 -0.795609 3 0 3 
z
" style="stroke: #cc78bc"/>
    </defs>
    <g clip-path="url(#paa3a0b8002)">
     <use xlink:href="#mcc875a9586" x="55.384579" y="244.987483" style="fill: #cc78bc; stroke: #cc78bc"/>
     <use xlink:href="#mcc875a9586" x="88.377927" y="250.31577" style="fill: #cc78bc; stroke: #cc78bc"/>
     <use xlink:href="#mcc875a9586" x="121.371275" y="240.312173" style="fill: #cc78bc; stroke: #cc78bc"/>
     <use xlink:href="#mcc875a9586" x="154.364623" y="248.93146" style="fill: #cc78bc; stroke: #cc78bc"/>
     <use xlink:href="#mcc875a9586" x="253.344667" y="217.875907" style="fill: #cc78bc; stroke: #cc78bc"/>
     <use xlink:href="#mcc875a9586" x="451.304756" y="160.936374" style="fill: #cc78bc; stroke: #cc78bc"/>
    </g>
   </g>
   <g id="PathCollection_4">
    <g clip-path="url(#paa3a0b8002)">
     <use xlink:href="#mcc875a9586" x="55.384579" y="219.234098" style="fill: #cc78bc; stroke: #cc78bc"/>
     <use xlink:href="#mcc875a9586" x="88.377927" y="238.901744" style="fill: #cc78bc; stroke: #cc78bc"/>
     <use xlink:href="#mcc875a9586" x="121.371275" y="215.211764" style="fill: #cc78bc; stroke: #cc78bc"/>
     <use xlink:href="#mcc875a9586" x="154.364623" y="231.405576" style="fill: #cc78bc; stroke: #cc78bc"/>
     <use xlink:href="#mcc875a9586" x="253.344667" y="226.234004" style="fill: #cc78bc; stroke: #cc78bc"/>
     <use xlink:href="#mcc875a9586" x="451.304756" y="168.641494" style="fill: #cc78bc; stroke: #cc78bc"/>
    </g>
   </g>
   <g id="PathCollection_5">
    <g clip-path="url(#paa3a0b8002)">
     <use xlink:href="#mcc875a9586" x="55.384579" y="259.300724" style="fill: #cc78bc; stroke: #cc78bc"/>
     <use xlink:href="#mcc875a9586" x="88.377927" y="233.181672" style="fill: #cc78bc; stroke: #cc78bc"/>
     <use xlink:href="#mcc875a9586" x="121.371275" y="180.395068" style="fill: #cc78bc; stroke: #cc78bc"/>
     <use xlink:href="#mcc875a9586" x="154.364623" y="202.36119" style="fill: #cc78bc; stroke: #cc78bc"/>
     <use xlink:href="#mcc875a9586" x="253.344667" y="123.742844" style="fill: #cc78bc; stroke: #cc78bc"/>
     <use xlink:href="#mcc875a9586" x="451.304756" y="179.115234" style="fill: #cc78bc; stroke: #cc78bc"/>
    </g>
   </g>
   <g id="PathCollection_6">
    <g clip-path="url(#paa3a0b8002)">
     <use xlink:href="#mcc875a9586" x="55.384579" y="220.644527" style="fill: #cc78bc; stroke: #cc78bc"/>
     <use xlink:href="#mcc875a9586" x="88.377927" y="163.417684" style="fill: #cc78bc; stroke: #cc78bc"/>
     <use xlink:href="#mcc875a9586" x="121.371275" y="135.13075" style="fill: #cc78bc; stroke: #cc78bc"/>
     <use xlink:href="#mcc875a9586" x="154.364623" y="125.466701" style="fill: #cc78bc; stroke: #cc78bc"/>
     <use xlink:href="#mcc875a9586" x="198.148174" y="-1" style="fill: #cc78bc; stroke: #cc78bc"/>
     <use xlink:href="#mcc875a9586" x="374.168749" y="-1" style="fill: #cc78bc; stroke: #cc78bc"/>
     <use xlink:href="#mcc875a9586" x="451.304756" y="100.784197" style="fill: #cc78bc; stroke: #cc78bc"/>
    </g>
   </g>
   <g id="PathCollection_7">
    <g clip-path="url(#paa3a0b8002)">
     <use xlink:href="#mcc875a9586" x="55.384579" y="234.043601" style="fill: #cc78bc; stroke: #cc78bc"/>
     <use xlink:href="#mcc875a9586" x="88.377927" y="214.846097" style="fill: #cc78bc; stroke: #cc78bc"/>
     <use xlink:href="#mcc875a9586" x="121.371275" y="203.353714" style="fill: #cc78bc; stroke: #cc78bc"/>
     <use xlink:href="#mcc875a9586" x="154.364623" y="228.088457" style="fill: #cc78bc; stroke: #cc78bc"/>
     <use xlink:href="#mcc875a9586" x="253.344667" y="230.334695" style="fill: #cc78bc; stroke: #cc78bc"/>
     <use xlink:href="#mcc875a9586" x="451.304756" y="222.081075" style="fill: #cc78bc; stroke: #cc78bc"/>
    </g>
   </g>
   <g id="PathCollection_8">
    <defs>
     <path id="md41aeb7021" d="M 0 3 
C 0.795609 3 1.55874 2.683901 2.12132 2.12132 
C 2.683901 1.55874 3 0.795609 3 0 
C 3 -0.795609 2.683901 -1.55874 2.12132 -2.12132 
C 1.55874 -2.683901 0.795609 -3 0 -3 
C -0.795609 -3 -1.55874 -2.683901 -2.12132 -2.12132 
C -2.683901 -1.55874 -3 -0.795609 -3 0 
C -3 0.795609 -2.683901 1.55874 -2.12132 2.12132 
C -1.55874 2.683901 -0.795609 3 0 3 
z
" style="stroke: #d55e00"/>
    </defs>
    <g clip-path="url(#paa3a0b8002)">
     <use xlink:href="#md41aeb7021" x="58.683914" y="232.737648" style="fill: #d55e00; stroke: #d55e00"/>
     <use xlink:href="#md41aeb7021" x="91.677262" y="253.89408" style="fill: #d55e00; stroke: #d55e00"/>
     <use xlink:href="#md41aeb7021" x="124.67061" y="272.699798" style="fill: #d55e00; stroke: #d55e00"/>
     <use xlink:href="#md41aeb7021" x="157.663958" y="266.274511" style="fill: #d55e00; stroke: #d55e00"/>
     <use xlink:href="#md41aeb7021" x="256.644002" y="252.353056" style="fill: #d55e00; stroke: #d55e00"/>
     <use xlink:href="#md41aeb7021" x="454.604091" y="248.722508" style="fill: #d55e00; stroke: #d55e00"/>
    </g>
   </g>
   <g id="PathCollection_9">
    <g clip-path="url(#paa3a0b8002)">
     <use xlink:href="#md41aeb7021" x="58.683914" y="273.169941" style="fill: #d55e00; stroke: #d55e00"/>
     <use xlink:href="#md41aeb7021" x="91.677262" y="268.886416" style="fill: #d55e00; stroke: #d55e00"/>
     <use xlink:href="#md41aeb7021" x="124.67061" y="253.763485" style="fill: #d55e00; stroke: #d55e00"/>
     <use xlink:href="#md41aeb7021" x="157.663958" y="270.061773" style="fill: #d55e00; stroke: #d55e00"/>
     <use xlink:href="#md41aeb7021" x="256.644002" y="271.393845" style="fill: #d55e00; stroke: #d55e00"/>
     <use xlink:href="#md41aeb7021" x="454.604091" y="246.476269" style="fill: #d55e00; stroke: #d55e00"/>
    </g>
   </g>
   <g id="PathCollection_10">
    <g clip-path="url(#paa3a0b8002)">
     <use xlink:href="#md41aeb7021" x="58.683914" y="280.932523" style="fill: #d55e00; stroke: #d55e00"/>
     <use xlink:href="#md41aeb7021" x="91.677262" y="283.719426" style="fill: #d55e00; stroke: #d55e00"/>
     <use xlink:href="#md41aeb7021" x="124.67061" y="267.502106" style="fill: #d55e00; stroke: #d55e00"/>
     <use xlink:href="#md41aeb7021" x="157.663958" y="285.725369" style="fill: #d55e00; stroke: #d55e00"/>
     <use xlink:href="#md41aeb7021" x="256.644002" y="276.539298" style="fill: #d55e00; stroke: #d55e00"/>
     <use xlink:href="#md41aeb7021" x="454.604091" y="256.453747" style="fill: #d55e00; stroke: #d55e00"/>
    </g>
   </g>
   <g id="LineCollection_1">
    <path d="M 48.785909 278.652344 
L 48.785909 271.892705 
" clip-path="url(#paa3a0b8002)" style="fill: none; stroke: #029e73; stroke-opacity: 0.8; stroke-width: 2"/>
    <path d="M 81.779257 181.352537 
L 81.779257 174.814526 
" clip-path="url(#paa3a0b8002)" style="fill: none; stroke: #029e73; stroke-opacity: 0.8; stroke-width: 2"/>
    <path d="M 114.772605 261.480744 
L 114.772605 101.059368 
" clip-path="url(#paa3a0b8002)" style="fill: none; stroke: #029e73; stroke-opacity: 0.8; stroke-width: 2"/>
    <path d="M 147.765953 265.450094 
L 147.765953 134.283548 
" clip-path="url(#paa3a0b8002)" style="fill: none; stroke: #029e73; stroke-opacity: 0.8; stroke-width: 2"/>
    <path d="M 246.745998 167.469809 
L 246.745998 70.06452 
" clip-path="url(#paa3a0b8002)" style="fill: none; stroke: #029e73; stroke-opacity: 0.8; stroke-width: 2"/>
    <path d="M 444.706086 289.391919 
L 444.706086 245.324984 
" clip-path="url(#paa3a0b8002)" style="fill: none; stroke: #029e73; stroke-opacity: 0.8; stroke-width: 2"/>
   </g>
   <g id="LineCollection_2">
    <path d="M 55.384579 252.551933 
L 55.384579 218.73224 
" clip-path="url(#paa3a0b8002)" style="fill: none; stroke: #cc78bc; stroke-opacity: 0.8; stroke-width: 2"/>
    <path d="M 88.377927 254.330955 
L 88.377927 185.934232 
" clip-path="url(#paa3a0b8002)" style="fill: none; stroke: #cc78bc; stroke-opacity: 0.8; stroke-width: 2"/>
    <path d="M 121.371275 234.658366 
L 121.371275 155.103021 
" clip-path="url(#paa3a0b8002)" style="fill: none; stroke: #cc78bc; stroke-opacity: 0.8; stroke-width: 2"/>
    <path d="M 154.364623 255.90118 
L 154.364623 158.600174 
" clip-path="url(#paa3a0b8002)" style="fill: none; stroke: #cc78bc; stroke-opacity: 0.8; stroke-width: 2"/>
    <path d="M 253.344667 294.441967 
L 253.344667 -1 
" clip-path="url(#paa3a0b8002)" style="fill: none; stroke: #cc78bc; stroke-opacity: 0.8; stroke-width: 2"/>
    <path d="M 451.304756 209.907344 
L 451.304756 122.716006 
" clip-path="url(#paa3a0b8002)" style="fill: none; stroke: #cc78bc; stroke-opacity: 0.8; stroke-width: 2"/>
   </g>
   <g id="LineCollection_3">
    <path d="M 58.683914 288.157228 
L 58.683914 236.402847 
" clip-path="url(#paa3a0b8002)" style="fill: none; stroke: #d55e00; stroke-opacity: 0.8; stroke-width: 2"/>
    <path d="M 91.677262 283.746051 
L 91.677262 253.920564 
" clip-path="url(#paa3a0b8002)" style="fill: none; stroke: #d55e00; stroke-opacity: 0.8; stroke-width: 2"/>
    <path d="M 124.67061 274.439042 
L 124.67061 254.871217 
" clip-path="url(#paa3a0b8002)" style="fill: none; stroke: #d55e00; stroke-opacity: 0.8; stroke-width: 2"/>
    <path d="M 157.663958 284.332578 
L 157.663958 263.708524 
" clip-path="url(#paa3a0b8002)" style="fill: none; stroke: #d55e00; stroke-opacity: 0.8; stroke-width: 2"/>
    <path d="M 256.644002 279.503087 
L 256.644002 254.021046 
" clip-path="url(#paa3a0b8002)" style="fill: none; stroke: #d55e00; stroke-opacity: 0.8; stroke-width: 2"/>
    <path d="M 454.604091 255.784828 
L 454.604091 245.316855 
" clip-path="url(#paa3a0b8002)" style="fill: none; stroke: #d55e00; stroke-opacity: 0.8; stroke-width: 2"/>
   </g>
   <g id="line2d_13">
    <path d="M 48.785909 275.272524 
L 81.779257 178.083532 
L 114.772605 181.270056 
L 147.765953 199.866821 
L 246.745998 118.767164 
L 444.706086 267.358451 
" clip-path="url(#paa3a0b8002)" style="fill: none; stroke: #029e73; stroke-opacity: 0.8; stroke-width: 2; stroke-linecap: round"/>
   </g>
   <g id="line2d_14">
    <path d="M 55.384579 235.642087 
L 88.377927 220.132593 
L 121.371275 194.880694 
L 154.364623 207.250677 
L 253.344667 127.551001 
L 451.304756 166.311675 
" clip-path="url(#paa3a0b8002)" style="fill: none; stroke: #cc78bc; stroke-opacity: 0.8; stroke-width: 2; stroke-linecap: round"/>
   </g>
   <g id="line2d_15">
    <path d="M 58.683914 262.280037 
L 91.677262 268.833307 
L 124.67061 264.65513 
L 157.663958 274.020551 
L 256.644002 266.762066 
L 454.604091 250.550841 
" clip-path="url(#paa3a0b8002)" style="fill: none; stroke: #d55e00; stroke-opacity: 0.8; stroke-width: 2; stroke-linecap: round"/>
   </g>
   <g id="patch_3">
    <path d="M 28.495 317.185687 
L 28.495 45.385687 
" style="fill: none; stroke: #262626; stroke-width: 1.25; stroke-linejoin: miter; stroke-linecap: square"/>
   </g>
   <g id="patch_4">
    <path d="M 28.495 317.185687 
L 474.895 317.185687 
" style="fill: none; stroke: #262626; stroke-width: 1.25; stroke-linejoin: miter; stroke-linecap: square"/>
   </g>
   <g id="text_14">
    <text style="fill: #262626; font: 18px 'sans-serif'" transform="translate(28.495 20.084062)">Week 12</text>
    <text style="fill: #262626; font: 18px 'sans-serif'" transform="translate(28.495 39.385687)">Insulin (ng/dL)</text>
   </g>
   <g id="legend_1">
    <g id="LineCollection_4">
     <path d="M 503.159 125.562875 
L 503.159 108.562875 
" style="fill: none; stroke: #029e73; stroke-opacity: 0.8; stroke-width: 2"/>
    </g>
    <g id="line2d_16">
     <path d="M 486.159 117.062875 
L 520.159 117.062875 
" style="fill: none; stroke: #029e73; stroke-opacity: 0.8; stroke-width: 2; stroke-linecap: round"/>
    </g>
    <g id="line2d_17"/>
    <g id="text_15">
     <text style="fill: #262626; font: 17px 'sans-serif'; text-anchor: start" x="533.759" y="123.012875" transform="rotate(-0, 533.759, 123.012875)">normal</text>
    </g>
    <g id="LineCollection_5">
     <path d="M 503.159 149.609906 
L 503.159 132.609906 
" style="fill: none; stroke: #cc78bc; stroke-opacity: 0.8; stroke-width: 2"/>
    </g>
    <g id="line2d_18">
     <path d="M 486.159 141.109906 
L 520.159 141.109906 
" style="fill: none; stroke: #cc78bc; stroke-opacity: 0.8; stroke-width: 2; stroke-linecap: round"/>
    </g>
    <g id="line2d_19"/>
    <g id="text_16">
     <text style="fill: #262626; font: 17px 'sans-serif'; text-anchor: start" x="533.759" y="147.059906" transform="rotate(-0, 533.759, 147.059906)">impaired</text>
    </g>
    <g id="LineCollection_6">
     <path d="M 503.159 173.656937 
L 503.159 156.656937 
" style="fill: none; stroke: #d55e00; stroke-opacity: 0.8; stroke-width: 2"/>
    </g>
    <g id="line2d_20">
     <path d="M 486.159 165.156937 
L 520.159 165.156937 
" style="fill: none; stroke: #d55e00; stroke-opacity: 0.8; stroke-width: 2; stroke-linecap: round"/>
    </g>
    <g id="line2d_21"/>
    <g id="text_17">
     <text style="fill: #262626; font: 17px 'sans-serif'; text-anchor: start" x="533.759" y="171.106937" transform="rotate(-0, 533.759, 171.106937)">diabetic</text>
    </g>
   </g>
  </g>
 </g>
 <defs>
  <clipPath id="paa3a0b8002">
   <rect x="28.495" y="45.385687" width="446.4" height="271.8"/>
  </clipPath>
 </defs>
</svg>
