<?xml version="1.0" encoding="utf-8" standalone="no"?>
<!DOCTYPE svg PUBLIC "-//W3C//DTD SVG 1.1//EN"
  "http://www.w3.org/Graphics/SVG/1.1/DTD/svg11.dtd">
<svg xmlns:xlink="http://www.w3.org/1999/xlink" width="517.097812pt" height="328.930313pt" viewBox="0 0 517.097812 328.930313" xmlns="http://www.w3.org/2000/svg" version="1.1">
 <metadata>
  <rdf:RDF xmlns:dc="http://purl.org/dc/elements/1.1/" xmlns:cc="http://creativecommons.org/ns#" xmlns:rdf="http://www.w3.org/1999/02/22-rdf-syntax-ns#">
   <cc:Work>
    <dc:type rdf:resource="http://purl.org/dc/dcmitype/StillImage"/>
    <dc:date>2022-06-10T18:48:52.555449</dc:date>
    <dc:format>image/svg+xml</dc:format>
    <dc:creator>
     <cc:Agent>
      <dc:title>Matplotlib v3.5.2, https://matplotlib.org/</dc:title>
     </cc:Agent>
    </dc:creator>
   </cc:Work>
  </rdf:RDF>
 </metadata>
 <defs>
  <style type="text/css">*{stroke-linejoin: round; stroke-linecap: butt}</style>
 </defs>
 <g id="figure_1">
  <g id="patch_1">
   <path d="M 0 328.930313 
L 517.097812 328.930313 
L 517.097812 0 
L 0 0 
z
" style="fill: #ffffff"/>
  </g>
  <g id="axes_1">
   <g id="patch_2">
    <path d="M 63.497813 279 
L 509.897812 279 
L 509.897812 7.2 
L 63.497813 7.2 
z
" style="fill: #ffffff"/>
   </g>
   <g id="matplotlib.axis_1">
    <g id="xtick_1">
     <g id="line2d_1"/>
     <g id="text_1">
      <text style="fill: #262626; font: 18px 'sans-serif'; text-anchor: middle" x="489.606903" y="295.384063" transform="rotate(-0, 489.606903, 295.384063)">11</text>
     </g>
    </g>
    <g id="xtick_2">
     <g id="line2d_2"/>
     <g id="text_2">
      <text style="fill: #262626; font: 18px 'sans-serif'; text-anchor: middle" x="219.061449" y="295.384063" transform="rotate(-0, 219.061449, 295.384063)">9</text>
     </g>
    </g>
    <g id="xtick_3">
     <g id="line2d_3"/>
     <g id="text_3">
      <text style="fill: #262626; font: 18px 'sans-serif'; text-anchor: middle" x="83.788722" y="295.384063" transform="rotate(-0, 83.788722, 295.384063)">8</text>
     </g>
    </g>
    <g id="xtick_4">
     <g id="line2d_4"/>
     <g id="text_4">
      <text style="fill: #262626; font: 18px 'sans-serif'; text-anchor: middle" x="354.334176" y="295.384063" transform="rotate(-0, 354.334176, 295.384063)">10</text>
     </g>
    </g>
    <g id="text_5">
     <text style="fill: #262626; font: 20px 'sans-serif'; text-anchor: middle" x="286.697812" y="317.520938" transform="rotate(-0, 286.697812, 317.520938)">Age (weeks)</text>
    </g>
   </g>
   <g id="matplotlib.axis_2">
    <g id="ytick_1">
     <g id="line2d_5"/>
     <g id="text_6">
      <text style="fill: #262626; font: 18px 'sans-serif'; text-anchor: end" x="59.997813" y="249.896831" transform="rotate(-0, 59.997813, 249.896831)">100</text>
     </g>
    </g>
    <g id="ytick_2">
     <g id="line2d_6"/>
     <g id="text_7">
      <text style="fill: #262626; font: 18px 'sans-serif'; text-anchor: end" x="59.997813" y="194.680985" transform="rotate(-0, 59.997813, 194.680985)">200</text>
     </g>
    </g>
    <g id="ytick_3">
     <g id="line2d_7"/>
     <g id="text_8">
      <text style="fill: #262626; font: 18px 'sans-serif'; text-anchor: end" x="59.997813" y="139.465139" transform="rotate(-0, 59.997813, 139.465139)">300</text>
     </g>
    </g>
    <g id="ytick_4">
     <g id="line2d_8"/>
     <g id="text_9">
      <text style="fill: #262626; font: 18px 'sans-serif'; text-anchor: end" x="59.997813" y="84.249294" transform="rotate(-0, 59.997813, 84.249294)">400</text>
     </g>
    </g>
    <g id="ytick_5">
     <g id="line2d_9"/>
     <g id="text_10">
      <text style="fill: #262626; font: 18px 'sans-serif'; text-anchor: end" x="59.997813" y="29.033448" transform="rotate(-0, 59.997813, 29.033448)">500</text>
     </g>
    </g>
    <g id="text_11">
     <text style="fill: #262626; font: 20px 'sans-serif'; text-anchor: middle" x="21.759375" y="143.1" transform="rotate(-90, 21.759375, 143.1)">Blood glucose (mg/dL)</text>
    </g>
   </g>
   <g id="PolyCollection_1">
    <defs>
     <path id="mb9c7bff15d" d="M 83.788722 -93.199288 
L 83.788722 -72.506233 
L 219.061449 -75.745752 
L 354.334176 -68.405969 
L 489.606903 -64.996599 
L 489.606903 -74.757474 
L 489.606903 -74.757474 
L 354.334176 -69.967709 
L 219.061449 -78.088362 
L 83.788722 -93.199288 
z
" style="stroke: #029e73; stroke-opacity: 0.2"/>
    </defs>
    <g clip-path="url(#p0fb97078b9)">
     <use xlink:href="#mb9c7bff15d" x="0" y="328.930313" style="fill: #029e73; fill-opacity: 0.2; stroke: #029e73; stroke-opacity: 0.2"/>
    </g>
   </g>
   <g id="PolyCollection_2">
    <defs>
     <path id="maef96a69ba" d="M 83.788722 -197.22152 
L 83.788722 -103.92847 
L 219.061449 -75.999344 
L 354.334176 -80.78437 
L 489.606903 -94.815527 
L 489.606903 -206.77619 
L 489.606903 -206.77619 
L 354.334176 -182.487551 
L 219.061449 -168.940915 
L 83.788722 -197.22152 
z
" style="stroke: #cc78bc; stroke-opacity: 0.2"/>
    </defs>
    <g clip-path="url(#p0fb97078b9)">
     <use xlink:href="#maef96a69ba" x="0" y="328.930313" style="fill: #cc78bc; fill-opacity: 0.2; stroke: #cc78bc; stroke-opacity: 0.2"/>
    </g>
   </g>
   <g id="PolyCollection_3">
    <defs>
     <path id="m59356ddd97" d="M 83.788722 -288.479684 
L 83.788722 -184.011211 
L 219.061449 -188.35937 
L 354.334176 -213.680803 
L 489.606903 -237.922989 
L 489.606903 -304.814731 
L 489.606903 -304.814731 
L 354.334176 -226.539497 
L 219.061449 -226.707045 
L 83.788722 -288.479684 
z
" style="stroke: #d55e00; stroke-opacity: 0.2"/>
    </defs>
    <g clip-path="url(#p0fb97078b9)">
     <use xlink:href="#m59356ddd97" x="0" y="328.930313" style="fill: #d55e00; fill-opacity: 0.2; stroke: #d55e00; stroke-opacity: 0.2"/>
    </g>
   </g>
   <g id="PathCollection_1">
    <path d="M 489.606903 267.504266 
C 490.932919 267.504266 492.204803 266.977435 493.142437 266.0398 
C 494.080072 265.102165 494.606903 263.830282 494.606903 262.504266 
C 494.606903 261.178251 494.080072 259.906367 493.142437 258.968732 
C 492.204803 258.031098 490.932919 257.504266 489.606903 257.504266 
C 488.280888 257.504266 487.009004 258.031098 486.07137 258.968732 
C 485.133735 259.906367 484.606903 261.178251 484.606903 262.504266 
C 484.606903 263.830282 485.133735 265.102165 486.07137 266.0398 
C 487.009004 266.977435 488.280888 267.504266 489.606903 267.504266 
z
" clip-path="url(#p0fb97078b9)" style="fill: #029e73; stroke: #ffffff; stroke-width: 0.8"/>
    <path d="M 219.061449 257.841493 
C 220.387464 257.841493 221.659348 257.314662 222.596983 256.377027 
C 223.534617 255.439392 224.061449 254.167509 224.061449 252.841493 
C 224.061449 251.515478 223.534617 250.243594 222.596983 249.305959 
C 221.659348 248.368325 220.387464 247.841493 219.061449 247.841493 
C 217.735433 247.841493 216.46355 248.368325 215.525915 249.305959 
C 214.58828 250.243594 214.061449 251.515478 214.061449 252.841493 
C 214.061449 254.167509 214.58828 255.439392 215.525915 256.377027 
C 216.46355 257.314662 217.735433 257.841493 219.061449 257.841493 
z
" clip-path="url(#p0fb97078b9)" style="fill: #029e73; stroke: #ffffff; stroke-width: 0.8"/>
    <path d="M 489.606903 260.602285 
C 490.932919 260.602285 492.204803 260.075454 493.142437 259.137819 
C 494.080072 258.200185 494.606903 256.928301 494.606903 255.602285 
C 494.606903 254.27627 494.080072 253.004386 493.142437 252.066752 
C 492.204803 251.129117 490.932919 250.602285 489.606903 250.602285 
C 488.280888 250.602285 487.009004 251.129117 486.07137 252.066752 
C 485.133735 253.004386 484.606903 254.27627 484.606903 255.602285 
C 484.606903 256.928301 485.133735 258.200185 486.07137 259.137819 
C 487.009004 260.075454 488.280888 260.602285 489.606903 260.602285 
z
" clip-path="url(#p0fb97078b9)" style="fill: #029e73; stroke: #ffffff; stroke-width: 0.8"/>
    <path d="M 83.788722 243.761453 
C 85.114737 243.761453 86.386621 243.234621 87.324255 242.296986 
C 88.26189 241.359352 88.788722 240.087468 88.788722 238.761453 
C 88.788722 237.435437 88.26189 236.163553 87.324255 235.225919 
C 86.386621 234.288284 85.114737 233.761453 83.788722 233.761453 
C 82.462706 233.761453 81.190822 234.288284 80.253188 235.225919 
C 79.315553 236.163553 78.788722 237.435437 78.788722 238.761453 
C 78.788722 240.087468 79.315553 241.359352 80.253188 242.296986 
C 81.190822 243.234621 82.462706 243.761453 83.788722 243.761453 
z
" clip-path="url(#p0fb97078b9)" style="fill: #029e73; stroke: #ffffff; stroke-width: 0.8"/>
    <path d="M 83.788722 258.393652 
C 85.114737 258.393652 86.386621 257.86682 87.324255 256.929186 
C 88.26189 255.991551 88.788722 254.719667 88.788722 253.393652 
C 88.788722 252.067636 88.26189 250.795752 87.324255 249.858118 
C 86.386621 248.920483 85.114737 248.393652 83.788722 248.393652 
C 82.462706 248.393652 81.190822 248.920483 80.253188 249.858118 
C 79.315553 250.795752 78.788722 252.067636 78.788722 253.393652 
C 78.788722 254.719667 79.315553 255.991551 80.253188 256.929186 
C 81.190822 257.86682 82.462706 258.393652 83.788722 258.393652 
z
" clip-path="url(#p0fb97078b9)" style="fill: #029e73; stroke: #ffffff; stroke-width: 0.8"/>
    <path d="M 219.061449 256.185018 
C 220.387464 256.185018 221.659348 255.658186 222.596983 254.720552 
C 223.534617 253.782917 224.061449 252.511033 224.061449 251.185018 
C 224.061449 249.859002 223.534617 248.587118 222.596983 247.649484 
C 221.659348 246.711849 220.387464 246.185018 219.061449 246.185018 
C 217.735433 246.185018 216.46355 246.711849 215.525915 247.649484 
C 214.58828 248.587118 214.061449 249.859002 214.061449 251.185018 
C 214.061449 252.511033 214.58828 253.782917 215.525915 254.720552 
C 216.46355 255.658186 217.735433 256.185018 219.061449 256.185018 
z
" clip-path="url(#p0fb97078b9)" style="fill: #029e73; stroke: #ffffff; stroke-width: 0.8"/>
    <path d="M 354.334176 264.191315 
C 355.660192 264.191315 356.932075 263.664484 357.86971 262.726849 
C 358.807345 261.789215 359.334176 260.517331 359.334176 259.191315 
C 359.334176 257.8653 358.807345 256.593416 357.86971 255.655781 
C 356.932075 254.718147 355.660192 254.191315 354.334176 254.191315 
C 353.008161 254.191315 351.736277 254.718147 350.798642 255.655781 
C 349.861008 256.593416 349.334176 257.8653 349.334176 259.191315 
C 349.334176 260.517331 349.861008 261.789215 350.798642 262.726849 
C 351.736277 263.664484 353.008161 264.191315 354.334176 264.191315 
z
" clip-path="url(#p0fb97078b9)" style="fill: #029e73; stroke: #ffffff; stroke-width: 0.8"/>
    <path d="M 354.334176 265.295632 
C 355.660192 265.295632 356.932075 264.768801 357.86971 263.831166 
C 358.807345 262.893532 359.334176 261.621648 359.334176 260.295632 
C 359.334176 258.969617 358.807345 257.697733 357.86971 256.760098 
C 356.932075 255.822464 355.660192 255.295632 354.334176 255.295632 
C 353.008161 255.295632 351.736277 255.822464 350.798642 256.760098 
C 349.861008 257.697733 349.334176 258.969617 349.334176 260.295632 
C 349.334176 261.621648 349.861008 262.893532 350.798642 263.831166 
C 351.736277 264.768801 353.008161 265.295632 354.334176 265.295632 
z
" clip-path="url(#p0fb97078b9)" style="fill: #029e73; stroke: #ffffff; stroke-width: 0.8"/>
    <path d="M 83.788722 179.434992 
C 85.114737 179.434992 86.386621 178.908161 87.324255 177.970526 
C 88.26189 177.032892 88.788722 175.761008 88.788722 174.434992 
C 88.788722 173.108977 88.26189 171.837093 87.324255 170.899458 
C 86.386621 169.961824 85.114737 169.434992 83.788722 169.434992 
C 82.462706 169.434992 81.190822 169.961824 80.253188 170.899458 
C 79.315553 171.837093 78.788722 173.108977 78.788722 174.434992 
C 78.788722 175.761008 79.315553 177.032892 80.253188 177.970526 
C 81.190822 178.908161 82.462706 179.434992 83.788722 179.434992 
z
" clip-path="url(#p0fb97078b9)" style="fill: #cc78bc; stroke: #ffffff; stroke-width: 0.8"/>
    <path d="M 354.334176 271.093296 
C 355.660192 271.093296 356.932075 270.566465 357.86971 269.62883 
C 358.807345 268.691195 359.334176 267.419312 359.334176 266.093296 
C 359.334176 264.767281 358.807345 263.495397 357.86971 262.557762 
C 356.932075 261.620128 355.660192 261.093296 354.334176 261.093296 
C 353.008161 261.093296 351.736277 261.620128 350.798642 262.557762 
C 349.861008 263.495397 349.334176 264.767281 349.334176 266.093296 
C 349.334176 267.419312 349.861008 268.691195 350.798642 269.62883 
C 351.736277 270.566465 353.008161 271.093296 354.334176 271.093296 
z
" clip-path="url(#p0fb97078b9)" style="fill: #cc78bc; stroke: #ffffff; stroke-width: 0.8"/>
    <path d="M 354.334176 226.64454 
C 355.660192 226.64454 356.932075 226.117709 357.86971 225.180074 
C 358.807345 224.24244 359.334176 222.970556 359.334176 221.64454 
C 359.334176 220.318525 358.807345 219.046641 357.86971 218.109006 
C 356.932075 217.171372 355.660192 216.64454 354.334176 216.64454 
C 353.008161 216.64454 351.736277 217.171372 350.798642 218.109006 
C 349.861008 219.046641 349.334176 220.318525 349.334176 221.64454 
C 349.334176 222.970556 349.861008 224.24244 350.798642 225.180074 
C 351.736277 226.117709 353.008161 226.64454 354.334176 226.64454 
z
" clip-path="url(#p0fb97078b9)" style="fill: #cc78bc; stroke: #ffffff; stroke-width: 0.8"/>
    <path d="M 354.334176 190.202082 
C 355.660192 190.202082 356.932075 189.675251 357.86971 188.737616 
C 358.807345 187.799982 359.334176 186.528098 359.334176 185.202082 
C 359.334176 183.876067 358.807345 182.604183 357.86971 181.666548 
C 356.932075 180.728914 355.660192 180.202082 354.334176 180.202082 
C 353.008161 180.202082 351.736277 180.728914 350.798642 181.666548 
C 349.861008 182.604183 349.334176 183.876067 349.334176 185.202082 
C 349.334176 186.528098 349.861008 187.799982 350.798642 188.737616 
C 351.736277 189.675251 353.008161 190.202082 354.334176 190.202082 
z
" clip-path="url(#p0fb97078b9)" style="fill: #cc78bc; stroke: #ffffff; stroke-width: 0.8"/>
    <path d="M 489.606903 181.643626 
C 490.932919 181.643626 492.204803 181.116795 493.142437 180.17916 
C 494.080072 179.241526 494.606903 177.969642 494.606903 176.643626 
C 494.606903 175.317611 494.080072 174.045727 493.142437 173.108092 
C 492.204803 172.170458 490.932919 171.643626 489.606903 171.643626 
C 488.280888 171.643626 487.009004 172.170458 486.07137 173.108092 
C 485.133735 174.045727 484.606903 175.317611 484.606903 176.643626 
C 484.606903 177.969642 485.133735 179.241526 486.07137 180.17916 
C 487.009004 181.116795 488.280888 181.643626 489.606903 181.643626 
z
" clip-path="url(#p0fb97078b9)" style="fill: #cc78bc; stroke: #ffffff; stroke-width: 0.8"/>
    <path d="M 354.334176 133.605841 
C 355.660192 133.605841 356.932075 133.079009 357.86971 132.141374 
C 358.807345 131.20374 359.334176 129.931856 359.334176 128.605841 
C 359.334176 127.279825 358.807345 126.007941 357.86971 125.070307 
C 356.932075 124.132672 355.660192 123.605841 354.334176 123.605841 
C 353.008161 123.605841 351.736277 124.132672 350.798642 125.070307 
C 349.861008 126.007941 349.334176 127.279825 349.334176 128.605841 
C 349.334176 129.931856 349.861008 131.20374 350.798642 132.141374 
C 351.736277 133.079009 353.008161 133.605841 354.334176 133.605841 
z
" clip-path="url(#p0fb97078b9)" style="fill: #cc78bc; stroke: #ffffff; stroke-width: 0.8"/>
    <path d="M 219.061449 178.054596 
C 220.387464 178.054596 221.659348 177.527765 222.596983 176.59013 
C 223.534617 175.652496 224.061449 174.380612 224.061449 173.054596 
C 224.061449 171.728581 223.534617 170.456697 222.596983 169.519062 
C 221.659348 168.581428 220.387464 168.054596 219.061449 168.054596 
C 217.735433 168.054596 216.46355 168.581428 215.525915 169.519062 
C 214.58828 170.456697 214.061449 171.728581 214.061449 173.054596 
C 214.061449 174.380612 214.58828 175.652496 215.525915 176.59013 
C 216.46355 177.527765 217.735433 178.054596 219.061449 178.054596 
z
" clip-path="url(#p0fb97078b9)" style="fill: #cc78bc; stroke: #ffffff; stroke-width: 0.8"/>
    <path d="M 489.606903 166.459269 
C 490.932919 166.459269 492.204803 165.932437 493.142437 164.994803 
C 494.080072 164.057168 494.606903 162.785284 494.606903 161.459269 
C 494.606903 160.133253 494.080072 158.861369 493.142437 157.923735 
C 492.204803 156.9861 490.932919 156.459269 489.606903 156.459269 
C 488.280888 156.459269 487.009004 156.9861 486.07137 157.923735 
C 485.133735 158.861369 484.606903 160.133253 484.606903 161.459269 
C 484.606903 162.785284 485.133735 164.057168 486.07137 164.994803 
C 487.009004 165.932437 488.280888 166.459269 489.606903 166.459269 
z
" clip-path="url(#p0fb97078b9)" style="fill: #cc78bc; stroke: #ffffff; stroke-width: 0.8"/>
    <path d="M 489.606903 179.158913 
C 490.932919 179.158913 492.204803 178.632082 493.142437 177.694447 
C 494.080072 176.756813 494.606903 175.484929 494.606903 174.158913 
C 494.606903 172.832898 494.080072 171.561014 493.142437 170.623379 
C 492.204803 169.685745 490.932919 169.158913 489.606903 169.158913 
C 488.280888 169.158913 487.009004 169.685745 486.07137 170.623379 
C 485.133735 171.561014 484.606903 172.832898 484.606903 174.158913 
C 484.606903 175.484929 485.133735 176.756813 486.07137 177.694447 
C 487.009004 178.632082 488.280888 179.158913 489.606903 179.158913 
z
" clip-path="url(#p0fb97078b9)" style="fill: #cc78bc; stroke: #ffffff; stroke-width: 0.8"/>
    <path d="M 489.606903 271.645455 
C 490.932919 271.645455 492.204803 271.118623 493.142437 270.180988 
C 494.080072 269.243354 494.606903 267.97147 494.606903 266.645455 
C 494.606903 265.319439 494.080072 264.047555 493.142437 263.109921 
C 492.204803 262.172286 490.932919 261.645455 489.606903 261.645455 
C 488.280888 261.645455 487.009004 262.172286 486.07137 263.109921 
C 485.133735 264.047555 484.606903 265.319439 484.606903 266.645455 
C 484.606903 267.97147 485.133735 269.243354 486.07137 270.180988 
C 487.009004 271.118623 488.280888 271.645455 489.606903 271.645455 
z
" clip-path="url(#p0fb97078b9)" style="fill: #cc78bc; stroke: #ffffff; stroke-width: 0.8"/>
    <path d="M 83.788722 162.042001 
C 85.114737 162.042001 86.386621 161.515169 87.324255 160.577535 
C 88.26189 159.6399 88.788722 158.368017 88.788722 157.042001 
C 88.788722 155.715986 88.26189 154.444102 87.324255 153.506467 
C 86.386621 152.568833 85.114737 152.042001 83.788722 152.042001 
C 82.462706 152.042001 81.190822 152.568833 80.253188 153.506467 
C 79.315553 154.444102 78.788722 155.715986 78.788722 157.042001 
C 78.788722 158.368017 79.315553 159.6399 80.253188 160.577535 
C 81.190822 161.515169 82.462706 162.042001 83.788722 162.042001 
z
" clip-path="url(#p0fb97078b9)" style="fill: #cc78bc; stroke: #ffffff; stroke-width: 0.8"/>
    <path d="M 354.334176 189.926003 
C 355.660192 189.926003 356.932075 189.399172 357.86971 188.461537 
C 358.807345 187.523902 359.334176 186.252019 359.334176 184.926003 
C 359.334176 183.599988 358.807345 182.328104 357.86971 181.390469 
C 356.932075 180.452835 355.660192 179.926003 354.334176 179.926003 
C 353.008161 179.926003 351.736277 180.452835 350.798642 181.390469 
C 349.861008 182.328104 349.334176 183.599988 349.334176 184.926003 
C 349.334176 186.252019 349.861008 187.523902 350.798642 188.461537 
C 351.736277 189.399172 353.008161 189.926003 354.334176 189.926003 
z
" clip-path="url(#p0fb97078b9)" style="fill: #cc78bc; stroke: #ffffff; stroke-width: 0.8"/>
    <path d="M 83.788722 138.299187 
C 85.114737 138.299187 86.386621 137.772356 87.324255 136.834721 
C 88.26189 135.897087 88.788722 134.625203 88.788722 133.299187 
C 88.788722 131.973172 88.26189 130.701288 87.324255 129.763653 
C 86.386621 128.826019 85.114737 128.299187 83.788722 128.299187 
C 82.462706 128.299187 81.190822 128.826019 80.253188 129.763653 
C 79.315553 130.701288 78.788722 131.973172 78.788722 133.299187 
C 78.788722 134.625203 79.315553 135.897087 80.253188 136.834721 
C 81.190822 137.772356 82.462706 138.299187 83.788722 138.299187 
z
" clip-path="url(#p0fb97078b9)" style="fill: #cc78bc; stroke: #ffffff; stroke-width: 0.8"/>
    <path d="M 219.061449 165.354952 
C 220.387464 165.354952 221.659348 164.82812 222.596983 163.890486 
C 223.534617 162.952851 224.061449 161.680967 224.061449 160.354952 
C 224.061449 159.028936 223.534617 157.757052 222.596983 156.819418 
C 221.659348 155.881783 220.387464 155.354952 219.061449 155.354952 
C 217.735433 155.354952 216.46355 155.881783 215.525915 156.819418 
C 214.58828 157.757052 214.061449 159.028936 214.061449 160.354952 
C 214.061449 161.680967 214.58828 162.952851 215.525915 163.890486 
C 216.46355 164.82812 217.735433 165.354952 219.061449 165.354952 
z
" clip-path="url(#p0fb97078b9)" style="fill: #cc78bc; stroke: #ffffff; stroke-width: 0.8"/>
    <path d="M 83.788722 175.293804 
C 85.114737 175.293804 86.386621 174.766972 87.324255 173.829338 
C 88.26189 172.891703 88.788722 171.619819 88.788722 170.293804 
C 88.788722 168.967788 88.26189 167.695905 87.324255 166.75827 
C 86.386621 165.820636 85.114737 165.293804 83.788722 165.293804 
C 82.462706 165.293804 81.190822 165.820636 80.253188 166.75827 
C 79.315553 167.695905 78.788722 168.967788 78.788722 170.293804 
C 78.788722 171.619819 79.315553 172.891703 80.253188 173.829338 
C 81.190822 174.766972 82.462706 175.293804 83.788722 175.293804 
z
" clip-path="url(#p0fb97078b9)" style="fill: #cc78bc; stroke: #ffffff; stroke-width: 0.8"/>
    <path d="M 83.788722 261.706602 
C 85.114737 261.706602 86.386621 261.179771 87.324255 260.242136 
C 88.26189 259.304502 88.788722 258.032618 88.788722 256.706602 
C 88.788722 255.380587 88.26189 254.108703 87.324255 253.171068 
C 86.386621 252.233434 85.114737 251.706602 83.788722 251.706602 
C 82.462706 251.706602 81.190822 252.233434 80.253188 253.171068 
C 79.315553 254.108703 78.788722 255.380587 78.788722 256.706602 
C 78.788722 258.032618 79.315553 259.304502 80.253188 260.242136 
C 81.190822 261.179771 82.462706 261.706602 83.788722 261.706602 
z
" clip-path="url(#p0fb97078b9)" style="fill: #cc78bc; stroke: #ffffff; stroke-width: 0.8"/>
    <path d="M 219.061449 264.743474 
C 220.387464 264.743474 221.659348 264.216642 222.596983 263.279008 
C 223.534617 262.341373 224.061449 261.069489 224.061449 259.743474 
C 224.061449 258.417458 223.534617 257.145574 222.596983 256.20794 
C 221.659348 255.270305 220.387464 254.743474 219.061449 254.743474 
C 217.735433 254.743474 216.46355 255.270305 215.525915 256.20794 
C 214.58828 257.145574 214.061449 258.417458 214.061449 259.743474 
C 214.061449 261.069489 214.58828 262.341373 215.525915 263.279008 
C 216.46355 264.216642 217.735433 264.743474 219.061449 264.743474 
z
" clip-path="url(#p0fb97078b9)" style="fill: #cc78bc; stroke: #ffffff; stroke-width: 0.8"/>
    <path d="M 219.061449 257.841493 
C 220.387464 257.841493 221.659348 257.314662 222.596983 256.377027 
C 223.534617 255.439392 224.061449 254.167509 224.061449 252.841493 
C 224.061449 251.515478 223.534617 250.243594 222.596983 249.305959 
C 221.659348 248.368325 220.387464 247.841493 219.061449 247.841493 
C 217.735433 247.841493 216.46355 248.368325 215.525915 249.305959 
C 214.58828 250.243594 214.061449 251.515478 214.061449 252.841493 
C 214.061449 254.167509 214.58828 255.439392 215.525915 256.377027 
C 216.46355 257.314662 217.735433 257.841493 219.061449 257.841493 
z
" clip-path="url(#p0fb97078b9)" style="fill: #cc78bc; stroke: #ffffff; stroke-width: 0.8"/>
    <path d="M 489.606903 116.765008 
C 490.932919 116.765008 492.204803 116.238176 493.142437 115.300542 
C 494.080072 114.362907 494.606903 113.091023 494.606903 111.765008 
C 494.606903 110.438992 494.080072 109.167108 493.142437 108.229474 
C 492.204803 107.291839 490.932919 106.765008 489.606903 106.765008 
C 488.280888 106.765008 487.009004 107.291839 486.07137 108.229474 
C 485.133735 109.167108 484.606903 110.438992 484.606903 111.765008 
C 484.606903 113.091023 485.133735 114.362907 486.07137 115.300542 
C 487.009004 116.238176 488.280888 116.765008 489.606903 116.765008 
z
" clip-path="url(#p0fb97078b9)" style="fill: #cc78bc; stroke: #ffffff; stroke-width: 0.8"/>
    <path d="M 219.061449 191.306399 
C 220.387464 191.306399 221.659348 190.779568 222.596983 189.841933 
C 223.534617 188.904299 224.061449 187.632415 224.061449 186.306399 
C 224.061449 184.980384 223.534617 183.7085 222.596983 182.770865 
C 221.659348 181.833231 220.387464 181.306399 219.061449 181.306399 
C 217.735433 181.306399 216.46355 181.833231 215.525915 182.770865 
C 214.58828 183.7085 214.061449 184.980384 214.061449 186.306399 
C 214.061449 187.632415 214.58828 188.904299 215.525915 189.841933 
C 216.46355 190.779568 217.735433 191.306399 219.061449 191.306399 
z
" clip-path="url(#p0fb97078b9)" style="fill: #cc78bc; stroke: #ffffff; stroke-width: 0.8"/>
    <path d="M 354.334176 109.310868 
C 355.660192 109.310868 356.932075 108.784037 357.86971 107.846402 
C 358.807345 106.908768 359.334176 105.636884 359.334176 104.310868 
C 359.334176 102.984853 358.807345 101.712969 357.86971 100.775335 
C 356.932075 99.8377 355.660192 99.310868 354.334176 99.310868 
C 353.008161 99.310868 351.736277 99.8377 350.798642 100.775335 
C 349.861008 101.712969 349.334176 102.984853 349.334176 104.310868 
C 349.334176 105.636884 349.861008 106.908768 350.798642 107.846402 
C 351.736277 108.784037 353.008161 109.310868 354.334176 109.310868 
z
" clip-path="url(#p0fb97078b9)" style="fill: #d55e00; stroke: #ffffff; stroke-width: 0.8"/>
    <path d="M 219.061449 148.514119 
C 220.387464 148.514119 221.659348 147.987287 222.596983 147.049653 
C 223.534617 146.112018 224.061449 144.840134 224.061449 143.514119 
C 224.061449 142.188103 223.534617 140.916219 222.596983 139.978585 
C 221.659348 139.04095 220.387464 138.514119 219.061449 138.514119 
C 217.735433 138.514119 216.46355 139.04095 215.525915 139.978585 
C 214.58828 140.916219 214.061449 142.188103 214.061449 143.514119 
C 214.061449 144.840134 214.58828 146.112018 215.525915 147.049653 
C 216.46355 147.987287 217.735433 148.514119 219.061449 148.514119 
z
" clip-path="url(#p0fb97078b9)" style="fill: #d55e00; stroke: #ffffff; stroke-width: 0.8"/>
    <path d="M 354.334176 121.182275 
C 355.660192 121.182275 356.932075 120.655444 357.86971 119.717809 
C 358.807345 118.780175 359.334176 117.508291 359.334176 116.182275 
C 359.334176 114.85626 358.807345 113.584376 357.86971 112.646741 
C 356.932075 111.709107 355.660192 111.182275 354.334176 111.182275 
C 353.008161 111.182275 351.736277 111.709107 350.798642 112.646741 
C 349.861008 113.584376 349.334176 114.85626 349.334176 116.182275 
C 349.334176 117.508291 349.861008 118.780175 350.798642 119.717809 
C 351.736277 120.655444 353.008161 121.182275 354.334176 121.182275 
z
" clip-path="url(#p0fb97078b9)" style="fill: #d55e00; stroke: #ffffff; stroke-width: 0.8"/>
    <path d="M 83.788722 49.953834 
C 85.114737 49.953834 86.386621 49.427003 87.324255 48.489368 
C 88.26189 47.551734 88.788722 46.27985 88.788722 44.953834 
C 88.788722 43.627819 88.26189 42.355935 87.324255 41.418301 
C 86.386621 40.480666 85.114737 39.953834 83.788722 39.953834 
C 82.462706 39.953834 81.190822 40.480666 80.253188 41.418301 
C 79.315553 42.355935 78.788722 43.627819 78.788722 44.953834 
C 78.788722 46.27985 79.315553 47.551734 80.253188 48.489368 
C 81.190822 49.427003 82.462706 49.953834 83.788722 49.953834 
z
" clip-path="url(#p0fb97078b9)" style="fill: #d55e00; stroke: #ffffff; stroke-width: 0.8"/>
    <path d="M 354.334176 110.967344 
C 355.660192 110.967344 356.932075 110.440512 357.86971 109.502878 
C 358.807345 108.565243 359.334176 107.293359 359.334176 105.967344 
C 359.334176 104.641328 358.807345 103.369444 357.86971 102.43181 
C 356.932075 101.494175 355.660192 100.967344 354.334176 100.967344 
C 353.008161 100.967344 351.736277 101.494175 350.798642 102.43181 
C 349.861008 103.369444 349.334176 104.641328 349.334176 105.967344 
C 349.334176 107.293359 349.861008 108.565243 350.798642 109.502878 
C 351.736277 110.440512 353.008161 110.967344 354.334176 110.967344 
z
" clip-path="url(#p0fb97078b9)" style="fill: #d55e00; stroke: #ffffff; stroke-width: 0.8"/>
    <path d="M 489.606903 87.500609 
C 490.932919 87.500609 492.204803 86.973778 493.142437 86.036143 
C 494.080072 85.098509 494.606903 83.826625 494.606903 82.500609 
C 494.606903 81.174594 494.080072 79.90271 493.142437 78.965076 
C 492.204803 78.027441 490.932919 77.500609 489.606903 77.500609 
C 488.280888 77.500609 487.009004 78.027441 486.07137 78.965076 
C 485.133735 79.90271 484.606903 81.174594 484.606903 82.500609 
C 484.606903 83.826625 485.133735 85.098509 486.07137 86.036143 
C 487.009004 86.973778 488.280888 87.500609 489.606903 87.500609 
z
" clip-path="url(#p0fb97078b9)" style="fill: #d55e00; stroke: #ffffff; stroke-width: 0.8"/>
    <path d="M 489.606903 75.629203 
C 490.932919 75.629203 492.204803 75.102371 493.142437 74.164737 
C 494.080072 73.227102 494.606903 71.955218 494.606903 70.629203 
C 494.606903 69.303187 494.080072 68.031303 493.142437 67.093669 
C 492.204803 66.156034 490.932919 65.629203 489.606903 65.629203 
C 488.280888 65.629203 487.009004 66.156034 486.07137 67.093669 
C 485.133735 68.031303 484.606903 69.303187 484.606903 70.629203 
C 484.606903 71.955218 485.133735 73.227102 486.07137 74.164737 
C 487.009004 75.102371 488.280888 75.629203 489.606903 75.629203 
z
" clip-path="url(#p0fb97078b9)" style="fill: #d55e00; stroke: #ffffff; stroke-width: 0.8"/>
    <path d="M 83.788722 153.483545 
C 85.114737 153.483545 86.386621 152.956713 87.324255 152.019079 
C 88.26189 151.081444 88.788722 149.80956 88.788722 148.483545 
C 88.788722 147.157529 88.26189 145.885646 87.324255 144.948011 
C 86.386621 144.010376 85.114737 143.483545 83.788722 143.483545 
C 82.462706 143.483545 81.190822 144.010376 80.253188 144.948011 
C 79.315553 145.885646 78.788722 147.157529 78.788722 148.483545 
C 78.788722 149.80956 79.315553 151.081444 80.253188 152.019079 
C 81.190822 152.956713 82.462706 153.483545 83.788722 153.483545 
z
" clip-path="url(#p0fb97078b9)" style="fill: #d55e00; stroke: #ffffff; stroke-width: 0.8"/>
    <path d="M 83.788722 89.617217 
C 85.114737 89.617217 86.386621 89.090385 87.324255 88.152751 
C 88.26189 87.215116 88.788722 85.943232 88.788722 84.617217 
C 88.788722 83.291201 88.26189 82.019318 87.324255 81.081683 
C 86.386621 80.144048 85.114737 79.617217 83.788722 79.617217 
C 82.462706 79.617217 81.190822 80.144048 80.253188 81.081683 
C 79.315553 82.019318 78.788722 83.291201 78.788722 84.617217 
C 78.788722 85.943232 79.315553 87.215116 80.253188 88.152751 
C 81.190822 89.090385 82.462706 89.617217 83.788722 89.617217 
z
" clip-path="url(#p0fb97078b9)" style="fill: #d55e00; stroke: #ffffff; stroke-width: 0.8"/>
    <path d="M 219.061449 116.212849 
C 220.387464 116.212849 221.659348 115.686018 222.596983 114.748383 
C 223.534617 113.810749 224.061449 112.538865 224.061449 111.212849 
C 224.061449 109.886834 223.534617 108.61495 222.596983 107.677315 
C 221.659348 106.739681 220.387464 106.212849 219.061449 106.212849 
C 217.735433 106.212849 216.46355 106.739681 215.525915 107.677315 
C 214.58828 108.61495 214.061449 109.886834 214.061449 111.212849 
C 214.061449 112.538865 214.58828 113.810749 215.525915 114.748383 
C 216.46355 115.686018 217.735433 116.212849 219.061449 116.212849 
z
" clip-path="url(#p0fb97078b9)" style="fill: #d55e00; stroke: #ffffff; stroke-width: 0.8"/>
    <path d="M 489.606903 24.554545 
C 490.932919 24.554545 492.204803 24.027714 493.142437 23.090079 
C 494.080072 22.152445 494.606903 20.880561 494.606903 19.554545 
C 494.606903 18.22853 494.080072 16.956646 493.142437 16.019012 
C 492.204803 15.081377 490.932919 14.554545 489.606903 14.554545 
C 488.280888 14.554545 487.009004 15.081377 486.07137 16.019012 
C 485.133735 16.956646 484.606903 18.22853 484.606903 19.554545 
C 484.606903 20.880561 485.133735 22.152445 486.07137 23.090079 
C 487.009004 24.027714 488.280888 24.554545 489.606903 24.554545 
z
" clip-path="url(#p0fb97078b9)" style="fill: #d55e00; stroke: #ffffff; stroke-width: 0.8"/>
    <path d="M 219.061449 114.464347 
C 220.387464 114.464347 221.659348 113.937516 222.596983 112.999881 
C 223.534617 112.062247 224.061449 110.790363 224.061449 109.464347 
C 224.061449 108.138332 223.534617 106.866448 222.596983 105.928813 
C 221.659348 104.991179 220.387464 104.464347 219.061449 104.464347 
C 217.735433 104.464347 216.46355 104.991179 215.525915 105.928813 
C 214.58828 106.866448 214.061449 108.138332 214.061449 109.464347 
C 214.061449 110.790363 214.58828 112.062247 215.525915 112.999881 
C 216.46355 113.937516 217.735433 114.464347 219.061449 114.464347 
z
" clip-path="url(#p0fb97078b9)" style="fill: #d55e00; stroke: #ffffff; stroke-width: 0.8"/>
   </g>
   <g id="line2d_10">
    <path d="M 83.788722 246.077552 
L 219.061449 252.013255 
L 354.334176 259.743474 
L 489.606903 259.053276 
" clip-path="url(#p0fb97078b9)" style="fill: none; stroke: #029e73; stroke-width: 1.5; stroke-linecap: round"/>
   </g>
   <g id="line2d_11">
    <path d="M 83.788722 178.355317 
L 219.061449 206.460183 
L 354.334176 197.294352 
L 489.606903 178.134454 
" clip-path="url(#p0fb97078b9)" style="fill: none; stroke: #cc78bc; stroke-width: 1.5; stroke-linecap: round"/>
   </g>
   <g id="line2d_12">
    <path d="M 83.788722 92.684865 
L 219.061449 121.397105 
L 354.334176 108.820163 
L 489.606903 57.561453 
" clip-path="url(#p0fb97078b9)" style="fill: none; stroke: #d55e00; stroke-width: 1.5; stroke-linecap: round"/>
   </g>
   <g id="patch_3">
    <path d="M 63.497813 279 
L 63.497813 7.2 
" style="fill: none; stroke: #262626; stroke-width: 1.25; stroke-linejoin: miter; stroke-linecap: square"/>
   </g>
   <g id="patch_4">
    <path d="M 63.497813 279 
L 509.897812 279 
" style="fill: none; stroke: #262626; stroke-width: 1.25; stroke-linejoin: miter; stroke-linecap: square"/>
   </g>
  </g>
 </g>
 <defs>
  <clipPath id="p0fb97078b9">
   <rect x="63.497813" y="7.2" width="446.4" height="271.8"/>
  </clipPath>
 </defs>
</svg>
