<?xml version="1.0" encoding="utf-8" standalone="no"?>
<!DOCTYPE svg PUBLIC "-//W3C//DTD SVG 1.1//EN"
  "http://www.w3.org/Graphics/SVG/1.1/DTD/svg11.dtd">
<svg xmlns:xlink="http://www.w3.org/1999/xlink" width="507.088125pt" height="328.930313pt" viewBox="0 0 507.088125 328.930313" xmlns="http://www.w3.org/2000/svg" version="1.1">
 <metadata>
  <rdf:RDF xmlns:dc="http://purl.org/dc/elements/1.1/" xmlns:cc="http://creativecommons.org/ns#" xmlns:rdf="http://www.w3.org/1999/02/22-rdf-syntax-ns#">
   <cc:Work>
    <dc:type rdf:resource="http://purl.org/dc/dcmitype/StillImage"/>
    <dc:date>2022-06-10T15:52:34.747442</dc:date>
    <dc:format>image/svg+xml</dc:format>
    <dc:creator>
     <cc:Agent>
      <dc:title>Matplotlib v3.5.2, https://matplotlib.org/</dc:title>
     </cc:Agent>
    </dc:creator>
   </cc:Work>
  </rdf:RDF>
 </metadata>
 <defs>
  <style type="text/css">*{stroke-linejoin: round; stroke-linecap: butt}</style>
 </defs>
 <g id="figure_1">
  <g id="patch_1">
   <path d="M 0 328.930313 
L 507.088125 328.930313 
L 507.088125 0 
L 0 0 
z
" style="fill: #ffffff"/>
  </g>
  <g id="axes_1">
   <g id="patch_2">
    <path d="M 53.488125 279 
L 499.888125 279 
L 499.888125 7.2 
L 53.488125 7.2 
z
" style="fill: #ffffff"/>
   </g>
   <g id="matplotlib.axis_1">
    <g id="xtick_1">
     <g id="line2d_1"/>
     <g id="text_1">
      <text style="fill: #262626; font: 18px 'sans-serif'; text-anchor: middle" x="479.597216" y="295.384063" transform="rotate(-0, 479.597216, 295.384063)">11</text>
     </g>
    </g>
    <g id="xtick_2">
     <g id="line2d_2"/>
     <g id="text_2">
      <text style="fill: #262626; font: 18px 'sans-serif'; text-anchor: middle" x="209.051761" y="295.384063" transform="rotate(-0, 209.051761, 295.384063)">9</text>
     </g>
    </g>
    <g id="xtick_3">
     <g id="line2d_3"/>
     <g id="text_3">
      <text style="fill: #262626; font: 18px 'sans-serif'; text-anchor: middle" x="73.779034" y="295.384063" transform="rotate(-0, 73.779034, 295.384063)">8</text>
     </g>
    </g>
    <g id="xtick_4">
     <g id="line2d_4"/>
     <g id="text_4">
      <text style="fill: #262626; font: 18px 'sans-serif'; text-anchor: middle" x="344.324489" y="295.384063" transform="rotate(-0, 344.324489, 295.384063)">10</text>
     </g>
    </g>
    <g id="text_5">
     <text style="fill: #262626; font: 20px 'sans-serif'; text-anchor: middle" x="276.688125" y="317.520938" transform="rotate(-0, 276.688125, 317.520938)">Age (weeks)</text>
    </g>
   </g>
   <g id="matplotlib.axis_2">
    <g id="ytick_1">
     <g id="line2d_5"/>
     <g id="text_6">
      <text style="fill: #262626; font: 18px 'sans-serif'; text-anchor: end" x="49.988125" y="279.084749" transform="rotate(-0, 49.988125, 279.084749)">0</text>
     </g>
    </g>
    <g id="ytick_2">
     <g id="line2d_6"/>
     <g id="text_7">
      <text style="fill: #262626; font: 18px 'sans-serif'; text-anchor: end" x="49.988125" y="228.898446" transform="rotate(-0, 49.988125, 228.898446)">5</text>
     </g>
    </g>
    <g id="ytick_3">
     <g id="line2d_7"/>
     <g id="text_8">
      <text style="fill: #262626; font: 18px 'sans-serif'; text-anchor: end" x="49.988125" y="178.712143" transform="rotate(-0, 49.988125, 178.712143)">10</text>
     </g>
    </g>
    <g id="ytick_4">
     <g id="line2d_8"/>
     <g id="text_9">
      <text style="fill: #262626; font: 18px 'sans-serif'; text-anchor: end" x="49.988125" y="128.52584" transform="rotate(-0, 49.988125, 128.52584)">15</text>
     </g>
    </g>
    <g id="ytick_5">
     <g id="line2d_9"/>
     <g id="text_10">
      <text style="fill: #262626; font: 18px 'sans-serif'; text-anchor: end" x="49.988125" y="78.339537" transform="rotate(-0, 49.988125, 78.339537)">20</text>
     </g>
    </g>
    <g id="ytick_6">
     <g id="line2d_10"/>
     <g id="text_11">
      <text style="fill: #262626; font: 18px 'sans-serif'; text-anchor: end" x="49.988125" y="28.153233" transform="rotate(-0, 49.988125, 28.153233)">25</text>
     </g>
    </g>
    <g id="text_12">
     <text style="fill: #262626; font: 20px 'sans-serif'; text-anchor: middle" x="21.759375" y="143.1" transform="rotate(-90, 21.759375, 143.1)">Blood insulin (ng/dL)</text>
    </g>
   </g>
   <g id="PolyCollection_1">
    <defs>
     <path id="m73576c715d" d="M 73.779034 -65.977243 
L 73.779034 -65.122714 
L 209.051761 -64.378386 
L 344.324489 -67.789755 
L 479.597216 -65.980356 
L 479.597216 -85.398883 
L 479.597216 -85.398883 
L 344.324489 -69.09568 
L 209.051761 -75.572429 
L 73.779034 -65.977243 
z
" style="stroke: #029e73; stroke-opacity: 0.2"/>
    </defs>
    <g clip-path="url(#pc199062464)">
     <use xlink:href="#m73576c715d" x="0" y="328.930313" style="fill: #029e73; fill-opacity: 0.2; stroke: #029e73; stroke-opacity: 0.2"/>
    </g>
   </g>
   <g id="PolyCollection_2">
    <defs>
     <path id="m6ccf1535dd" d="M 73.779034 -116.759965 
L 73.779034 -65.375448 
L 209.051761 -71.029161 
L 344.324489 -65.05302 
L 479.597216 -73.710095 
L 479.597216 -87.04796 
L 479.597216 -87.04796 
L 344.324489 -80.450406 
L 209.051761 -86.211838 
L 73.779034 -116.759965 
z
" style="stroke: #cc78bc; stroke-opacity: 0.2"/>
    </defs>
    <g clip-path="url(#pc199062464)">
     <use xlink:href="#m6ccf1535dd" x="0" y="328.930313" style="fill: #cc78bc; fill-opacity: 0.2; stroke: #cc78bc; stroke-opacity: 0.2"/>
    </g>
   </g>
   <g id="PolyCollection_3">
    <defs>
     <path id="m1c43f7e5b2" d="M 73.779034 -105.732488 
L 73.779034 -72.386013 
L 209.051761 -71.13475 
L 344.324489 -65.893977 
L 479.597216 -68.395353 
L 479.597216 -74.21132 
L 479.597216 -74.21132 
L 344.324489 -75.461384 
L 209.051761 -78.317335 
L 73.779034 -105.732488 
z
" style="stroke: #d55e00; stroke-opacity: 0.2"/>
    </defs>
    <g clip-path="url(#pc199062464)">
     <use xlink:href="#m1c43f7e5b2" x="0" y="328.930313" style="fill: #d55e00; fill-opacity: 0.2; stroke: #d55e00; stroke-opacity: 0.2"/>
    </g>
   </g>
   <g id="PathCollection_1">
    <path d="M 479.597216 265.106179 
C 480.923231 265.106179 482.195115 264.579348 483.13275 263.641713 
C 484.070384 262.704079 484.597216 261.432195 484.597216 260.106179 
C 484.597216 258.780164 484.070384 257.50828 483.13275 256.570645 
C 482.195115 255.633011 480.923231 255.106179 479.597216 255.106179 
C 478.2712 255.106179 476.999317 255.633011 476.061682 256.570645 
C 475.124047 257.50828 474.597216 258.780164 474.597216 260.106179 
C 474.597216 261.432195 475.124047 262.704079 476.061682 263.641713 
C 476.999317 264.579348 478.2712 265.106179 479.597216 265.106179 
z
" clip-path="url(#pc199062464)" style="fill: #029e73; stroke: #ffffff; stroke-width: 0.8"/>
    <path d="M 209.051761 267.912597 
C 210.377777 267.912597 211.649661 267.385766 212.587295 266.448131 
C 213.52493 265.510497 214.051761 264.238613 214.051761 262.912597 
C 214.051761 261.586582 213.52493 260.314698 212.587295 259.377063 
C 211.649661 258.439429 210.377777 257.912597 209.051761 257.912597 
C 207.725746 257.912597 206.453862 258.439429 205.516227 259.377063 
C 204.578593 260.314698 204.051761 261.586582 204.051761 262.912597 
C 204.051761 264.238613 204.578593 265.510497 205.516227 266.448131 
C 206.453862 267.385766 207.725746 267.912597 209.051761 267.912597 
z
" clip-path="url(#pc199062464)" style="fill: #029e73; stroke: #ffffff; stroke-width: 0.8"/>
    <path d="M 479.597216 251.375207 
C 480.923231 251.375207 482.195115 250.848375 483.13275 249.910741 
C 484.070384 248.973106 484.597216 247.701222 484.597216 246.375207 
C 484.597216 245.049191 484.070384 243.777307 483.13275 242.839673 
C 482.195115 241.902038 480.923231 241.375207 479.597216 241.375207 
C 478.2712 241.375207 476.999317 241.902038 476.061682 242.839673 
C 475.124047 243.777307 474.597216 245.049191 474.597216 246.375207 
C 474.597216 247.701222 475.124047 248.973106 476.061682 249.910741 
C 476.999317 250.848375 478.2712 251.375207 479.597216 251.375207 
z
" clip-path="url(#pc199062464)" style="fill: #029e73; stroke: #ffffff; stroke-width: 0.8"/>
    <path d="M 73.779034 268.078212 
C 75.10505 268.078212 76.376933 267.551381 77.314568 266.613746 
C 78.252203 265.676111 78.779034 264.404228 78.779034 263.078212 
C 78.779034 261.752197 78.252203 260.480313 77.314568 259.542678 
C 76.376933 258.605044 75.10505 258.078212 73.779034 258.078212 
C 72.453019 258.078212 71.181135 258.605044 70.2435 259.542678 
C 69.305866 260.480313 68.779034 261.752197 68.779034 263.078212 
C 68.779034 264.404228 69.305866 265.676111 70.2435 266.613746 
C 71.181135 267.551381 72.453019 268.078212 73.779034 268.078212 
z
" clip-path="url(#pc199062464)" style="fill: #029e73; stroke: #ffffff; stroke-width: 0.8"/>
    <path d="M 73.779034 268.682455 
C 75.10505 268.682455 76.376933 268.155624 77.314568 267.217989 
C 78.252203 266.280355 78.779034 265.008471 78.779034 263.682455 
C 78.779034 262.35644 78.252203 261.084556 77.314568 260.146921 
C 76.376933 259.209287 75.10505 258.682455 73.779034 258.682455 
C 72.453019 258.682455 71.181135 259.209287 70.2435 260.146921 
C 69.305866 261.084556 68.779034 262.35644 68.779034 263.682455 
C 68.779034 265.008471 69.305866 266.280355 70.2435 267.217989 
C 71.181135 268.155624 72.453019 268.682455 73.779034 268.682455 
z
" clip-path="url(#pc199062464)" style="fill: #029e73; stroke: #ffffff; stroke-width: 0.8"/>
    <path d="M 209.051761 259.997214 
C 210.377777 259.997214 211.649661 259.470382 212.587295 258.532747 
C 213.52493 257.595113 214.051761 256.323229 214.051761 254.997214 
C 214.051761 253.671198 213.52493 252.399314 212.587295 251.46168 
C 211.649661 250.524045 210.377777 249.997214 209.051761 249.997214 
C 207.725746 249.997214 206.453862 250.524045 205.516227 251.46168 
C 204.578593 252.399314 204.051761 253.671198 204.051761 254.997214 
C 204.051761 256.323229 204.578593 257.595113 205.516227 258.532747 
C 206.453862 259.470382 207.725746 259.997214 209.051761 259.997214 
z
" clip-path="url(#pc199062464)" style="fill: #029e73; stroke: #ffffff; stroke-width: 0.8"/>
    <path d="M 344.324489 265.949309 
C 345.650504 265.949309 346.922388 265.422478 347.860023 264.484843 
C 348.797657 263.547208 349.324489 262.275325 349.324489 260.949309 
C 349.324489 259.623294 348.797657 258.35141 347.860023 257.413775 
C 346.922388 256.476141 345.650504 255.949309 344.324489 255.949309 
C 342.998473 255.949309 341.726589 256.476141 340.788955 257.413775 
C 339.85132 258.35141 339.324489 259.623294 339.324489 260.949309 
C 339.324489 262.275325 339.85132 263.547208 340.788955 264.484843 
C 341.726589 265.422478 342.998473 265.949309 344.324489 265.949309 
z
" clip-path="url(#pc199062464)" style="fill: #029e73; stroke: #ffffff; stroke-width: 0.8"/>
    <path d="M 344.324489 265.025881 
C 345.650504 265.025881 346.922388 264.49905 347.860023 263.561415 
C 348.797657 262.623781 349.324489 261.351897 349.324489 260.025881 
C 349.324489 258.699866 348.797657 257.427982 347.860023 256.490347 
C 346.922388 255.552713 345.650504 255.025881 344.324489 255.025881 
C 342.998473 255.025881 341.726589 255.552713 340.788955 256.490347 
C 339.85132 257.427982 339.324489 258.699866 339.324489 260.025881 
C 339.324489 261.351897 339.85132 262.623781 340.788955 263.561415 
C 341.726589 264.49905 342.998473 265.025881 344.324489 265.025881 
z
" clip-path="url(#pc199062464)" style="fill: #029e73; stroke: #ffffff; stroke-width: 0.8"/>
    <path d="M 73.779034 248.795631 
C 75.10505 248.795631 76.376933 248.268799 77.314568 247.331165 
C 78.252203 246.39353 78.779034 245.121646 78.779034 243.795631 
C 78.779034 242.469615 78.252203 241.197731 77.314568 240.260097 
C 76.376933 239.322462 75.10505 238.795631 73.779034 238.795631 
C 72.453019 238.795631 71.181135 239.322462 70.2435 240.260097 
C 69.305866 241.197731 68.779034 242.469615 68.779034 243.795631 
C 68.779034 245.121646 69.305866 246.39353 70.2435 247.331165 
C 71.181135 248.268799 72.453019 248.795631 73.779034 248.795631 
z
" clip-path="url(#pc199062464)" style="fill: #cc78bc; stroke: #ffffff; stroke-width: 0.8"/>
    <path d="M 344.324489 267.053408 
C 345.650504 267.053408 346.922388 266.526576 347.860023 265.588942 
C 348.797657 264.651307 349.324489 263.379423 349.324489 262.053408 
C 349.324489 260.727392 348.797657 259.455508 347.860023 258.517874 
C 346.922388 257.580239 345.650504 257.053408 344.324489 257.053408 
C 342.998473 257.053408 341.726589 257.580239 340.788955 258.517874 
C 339.85132 259.455508 339.324489 260.727392 339.324489 262.053408 
C 339.324489 263.379423 339.85132 264.651307 340.788955 265.588942 
C 341.726589 266.526576 342.998473 267.053408 344.324489 267.053408 
z
" clip-path="url(#pc199062464)" style="fill: #cc78bc; stroke: #ffffff; stroke-width: 0.8"/>
    <path d="M 344.324489 257.799054 
C 345.650504 257.799054 346.922388 257.272222 347.860023 256.334587 
C 348.797657 255.396953 349.324489 254.125069 349.324489 252.799054 
C 349.324489 251.473038 348.797657 250.201154 347.860023 249.26352 
C 346.922388 248.325885 345.650504 247.799054 344.324489 247.799054 
C 342.998473 247.799054 341.726589 248.325885 340.788955 249.26352 
C 339.85132 250.201154 339.324489 251.473038 339.324489 252.799054 
C 339.324489 254.125069 339.85132 255.396953 340.788955 256.334587 
C 341.726589 257.272222 342.998473 257.799054 344.324489 257.799054 
z
" clip-path="url(#pc199062464)" style="fill: #cc78bc; stroke: #ffffff; stroke-width: 0.8"/>
    <path d="M 344.324489 263.670851 
C 345.650504 263.670851 346.922388 263.144019 347.860023 262.206385 
C 348.797657 261.26875 349.324489 259.996866 349.324489 258.670851 
C 349.324489 257.344835 348.797657 256.072952 347.860023 255.135317 
C 346.922388 254.197683 345.650504 253.670851 344.324489 253.670851 
C 342.998473 253.670851 341.726589 254.197683 340.788955 255.135317 
C 339.85132 256.072952 339.324489 257.344835 339.324489 258.670851 
C 339.324489 259.996866 339.85132 261.26875 340.788955 262.206385 
C 341.726589 263.144019 342.998473 263.670851 344.324489 263.670851 
z
" clip-path="url(#pc199062464)" style="fill: #cc78bc; stroke: #ffffff; stroke-width: 0.8"/>
    <path d="M 479.597216 263.450031 
C 480.923231 263.450031 482.195115 262.9232 483.13275 261.985565 
C 484.070384 261.047931 484.597216 259.776047 484.597216 258.450031 
C 484.597216 257.124016 484.070384 255.852132 483.13275 254.914497 
C 482.195115 253.976863 480.923231 253.450031 479.597216 253.450031 
C 478.2712 253.450031 476.999317 253.976863 476.061682 254.914497 
C 475.124047 255.852132 474.597216 257.124016 474.597216 258.450031 
C 474.597216 259.776047 475.124047 261.047931 476.061682 261.985565 
C 476.999317 262.9232 478.2712 263.450031 479.597216 263.450031 
z
" clip-path="url(#pc199062464)" style="fill: #cc78bc; stroke: #ffffff; stroke-width: 0.8"/>
    <path d="M 344.324489 249.397866 
C 345.650504 249.397866 346.922388 248.871035 347.860023 247.9334 
C 348.797657 246.995766 349.324489 245.723882 349.324489 244.397866 
C 349.324489 243.071851 348.797657 241.799967 347.860023 240.862332 
C 346.922388 239.924698 345.650504 239.397866 344.324489 239.397866 
C 342.998473 239.397866 341.726589 239.924698 340.788955 240.862332 
C 339.85132 241.799967 339.324489 243.071851 339.324489 244.397866 
C 339.324489 245.723882 339.85132 246.995766 340.788955 247.9334 
C 341.726589 248.871035 342.998473 249.397866 344.324489 249.397866 
z
" clip-path="url(#pc199062464)" style="fill: #cc78bc; stroke: #ffffff; stroke-width: 0.8"/>
    <path d="M 209.051761 251.214611 
C 210.377777 251.214611 211.649661 250.687779 212.587295 249.750144 
C 213.52493 248.81251 214.051761 247.540626 214.051761 246.214611 
C 214.051761 244.888595 213.52493 243.616711 212.587295 242.679077 
C 211.649661 241.741442 210.377777 241.214611 209.051761 241.214611 
C 207.725746 241.214611 206.453862 241.741442 205.516227 242.679077 
C 204.578593 243.616711 204.051761 244.888595 204.051761 246.214611 
C 204.051761 247.540626 204.578593 248.81251 205.516227 249.750144 
C 206.453862 250.687779 207.725746 251.214611 209.051761 251.214611 
z
" clip-path="url(#pc199062464)" style="fill: #cc78bc; stroke: #ffffff; stroke-width: 0.8"/>
    <path d="M 479.597216 250.200847 
C 480.923231 250.200847 482.195115 249.674016 483.13275 248.736381 
C 484.070384 247.798747 484.597216 246.526863 484.597216 245.200847 
C 484.597216 243.874832 484.070384 242.602948 483.13275 241.665313 
C 482.195115 240.727679 480.923231 240.200847 479.597216 240.200847 
C 478.2712 240.200847 476.999317 240.727679 476.061682 241.665313 
C 475.124047 242.602948 474.597216 243.874832 474.597216 245.200847 
C 474.597216 246.526863 475.124047 247.798747 476.061682 248.736381 
C 476.999317 249.674016 478.2712 250.200847 479.597216 250.200847 
z
" clip-path="url(#pc199062464)" style="fill: #cc78bc; stroke: #ffffff; stroke-width: 0.8"/>
    <path d="M 479.597216 251.836921 
C 480.923231 251.836921 482.195115 251.310089 483.13275 250.372455 
C 484.070384 249.43482 484.597216 248.162936 484.597216 246.836921 
C 484.597216 245.510905 484.070384 244.239021 483.13275 243.301387 
C 482.195115 242.363752 480.923231 241.836921 479.597216 241.836921 
C 478.2712 241.836921 476.999317 242.363752 476.061682 243.301387 
C 475.124047 244.239021 474.597216 245.510905 474.597216 246.836921 
C 474.597216 248.162936 475.124047 249.43482 476.061682 250.372455 
C 476.999317 251.310089 478.2712 251.836921 479.597216 251.836921 
z
" clip-path="url(#pc199062464)" style="fill: #cc78bc; stroke: #ffffff; stroke-width: 0.8"/>
    <path d="M 479.597216 256.333613 
C 480.923231 256.333613 482.195115 255.806782 483.13275 254.869147 
C 484.070384 253.931513 484.597216 252.659629 484.597216 251.333613 
C 484.597216 250.007598 484.070384 248.735714 483.13275 247.79808 
C 482.195115 246.860445 480.923231 246.333613 479.597216 246.333613 
C 478.2712 246.333613 476.999317 246.860445 476.061682 247.79808 
C 475.124047 248.735714 474.597216 250.007598 474.597216 251.333613 
C 474.597216 252.659629 475.124047 253.931513 476.061682 254.869147 
C 476.999317 255.806782 478.2712 256.333613 479.597216 256.333613 
z
" clip-path="url(#pc199062464)" style="fill: #cc78bc; stroke: #ffffff; stroke-width: 0.8"/>
    <path d="M 73.779034 235.947937 
C 75.10505 235.947937 76.376933 235.421106 77.314568 234.483471 
C 78.252203 233.545836 78.779034 232.273953 78.779034 230.947937 
C 78.779034 229.621922 78.252203 228.350038 77.314568 227.412403 
C 76.376933 226.474769 75.10505 225.947937 73.779034 225.947937 
C 72.453019 225.947937 71.181135 226.474769 70.2435 227.412403 
C 69.305866 228.350038 68.779034 229.621922 68.779034 230.947937 
C 68.779034 232.273953 69.305866 233.545836 70.2435 234.483471 
C 71.181135 235.421106 72.453019 235.947937 73.779034 235.947937 
z
" clip-path="url(#pc199062464)" style="fill: #cc78bc; stroke: #ffffff; stroke-width: 0.8"/>
    <path d="M 344.324489 267.971817 
C 345.650504 267.971817 346.922388 267.444986 347.860023 266.507351 
C 348.797657 265.569717 349.324489 264.297833 349.324489 262.971817 
C 349.324489 261.645802 348.797657 260.373918 347.860023 259.436283 
C 346.922388 258.498649 345.650504 257.971817 344.324489 257.971817 
C 342.998473 257.971817 341.726589 258.498649 340.788955 259.436283 
C 339.85132 260.373918 339.324489 261.645802 339.324489 262.971817 
C 339.324489 264.297833 339.85132 265.569717 340.788955 266.507351 
C 341.726589 267.444986 342.998473 267.971817 344.324489 267.971817 
z
" clip-path="url(#pc199062464)" style="fill: #cc78bc; stroke: #ffffff; stroke-width: 0.8"/>
    <path d="M 73.779034 253.191951 
C 75.10505 253.191951 76.376933 252.665119 77.314568 251.727485 
C 78.252203 250.78985 78.779034 249.517966 78.779034 248.191951 
C 78.779034 246.865935 78.252203 245.594052 77.314568 244.656417 
C 76.376933 243.718782 75.10505 243.191951 73.779034 243.191951 
C 72.453019 243.191951 71.181135 243.718782 70.2435 244.656417 
C 69.305866 245.594052 68.779034 246.865935 68.779034 248.191951 
C 68.779034 249.517966 69.305866 250.78985 70.2435 251.727485 
C 71.181135 252.665119 72.453019 253.191951 73.779034 253.191951 
z
" clip-path="url(#pc199062464)" style="fill: #cc78bc; stroke: #ffffff; stroke-width: 0.8"/>
    <path d="M 209.051761 248.745444 
C 210.377777 248.745444 211.649661 248.218613 212.587295 247.280978 
C 213.52493 246.343344 214.051761 245.07146 214.051761 243.745444 
C 214.051761 242.419429 213.52493 241.147545 212.587295 240.209911 
C 211.649661 239.272276 210.377777 238.745444 209.051761 238.745444 
C 207.725746 238.745444 206.453862 239.272276 205.516227 240.209911 
C 204.578593 241.147545 204.051761 242.419429 204.051761 243.745444 
C 204.051761 245.07146 204.578593 246.343344 205.516227 247.280978 
C 206.453862 248.218613 207.725746 248.745444 209.051761 248.745444 
z
" clip-path="url(#pc199062464)" style="fill: #cc78bc; stroke: #ffffff; stroke-width: 0.8"/>
    <path d="M 73.779034 203.497474 
C 75.10505 203.497474 76.376933 202.970642 77.314568 202.033007 
C 78.252203 201.095373 78.779034 199.823489 78.779034 198.497474 
C 78.779034 197.171458 78.252203 195.899574 77.314568 194.96194 
C 76.376933 194.024305 75.10505 193.497474 73.779034 193.497474 
C 72.453019 193.497474 71.181135 194.024305 70.2435 194.96194 
C 69.305866 195.899574 68.779034 197.171458 68.779034 198.497474 
C 68.779034 199.823489 69.305866 201.095373 70.2435 202.033007 
C 71.181135 202.970642 72.453019 203.497474 73.779034 203.497474 
z
" clip-path="url(#pc199062464)" style="fill: #cc78bc; stroke: #ffffff; stroke-width: 0.8"/>
    <path d="M 73.779034 272.880038 
C 75.10505 272.880038 76.376933 272.353206 77.314568 271.415572 
C 78.252203 270.477937 78.779034 269.206053 78.779034 267.880038 
C 78.779034 266.554022 78.252203 265.282138 77.314568 264.344504 
C 76.376933 263.406869 75.10505 262.880038 73.779034 262.880038 
C 72.453019 262.880038 71.181135 263.406869 70.2435 264.344504 
C 69.305866 265.282138 68.779034 266.554022 68.779034 267.880038 
C 68.779034 269.206053 69.305866 270.477937 70.2435 271.415572 
C 71.181135 272.353206 72.453019 272.880038 73.779034 272.880038 
z
" clip-path="url(#pc199062464)" style="fill: #cc78bc; stroke: #ffffff; stroke-width: 0.8"/>
    <path d="M 209.051761 265.79875 
C 210.377777 265.79875 211.649661 265.271919 212.587295 264.334284 
C 213.52493 263.39665 214.051761 262.124766 214.051761 260.79875 
C 214.051761 259.472735 213.52493 258.200851 212.587295 257.263216 
C 211.649661 256.325582 210.377777 255.79875 209.051761 255.79875 
C 207.725746 255.79875 206.453862 256.325582 205.516227 257.263216 
C 204.578593 258.200851 204.051761 259.472735 204.051761 260.79875 
C 204.051761 262.124766 204.578593 263.39665 205.516227 264.334284 
C 206.453862 265.271919 207.725746 265.79875 209.051761 265.79875 
z
" clip-path="url(#pc199062464)" style="fill: #cc78bc; stroke: #ffffff; stroke-width: 0.8"/>
    <path d="M 209.051761 260.900567 
C 210.377777 260.900567 211.649661 260.373736 212.587295 259.436101 
C 213.52493 258.498466 214.051761 257.226583 214.051761 255.900567 
C 214.051761 254.574552 213.52493 253.302668 212.587295 252.365033 
C 211.649661 251.427399 210.377777 250.900567 209.051761 250.900567 
C 207.725746 250.900567 206.453862 251.427399 205.516227 252.365033 
C 204.578593 253.302668 204.051761 254.574552 204.051761 255.900567 
C 204.051761 257.226583 204.578593 258.498466 205.516227 259.436101 
C 206.453862 260.373736 207.725746 260.900567 209.051761 260.900567 
z
" clip-path="url(#pc199062464)" style="fill: #cc78bc; stroke: #ffffff; stroke-width: 0.8"/>
    <path d="M 479.597216 245.935011 
C 480.923231 245.935011 482.195115 245.40818 483.13275 244.470545 
C 484.070384 243.532911 484.597216 242.261027 484.597216 240.935011 
C 484.597216 239.608996 484.070384 238.337112 483.13275 237.399478 
C 482.195115 236.461843 480.923231 235.935011 479.597216 235.935011 
C 478.2712 235.935011 476.999317 236.461843 476.061682 237.399478 
C 475.124047 238.337112 474.597216 239.608996 474.597216 240.935011 
C 474.597216 242.261027 475.124047 243.532911 476.061682 244.470545 
C 476.999317 245.40818 478.2712 245.935011 479.597216 245.935011 
z
" clip-path="url(#pc199062464)" style="fill: #cc78bc; stroke: #ffffff; stroke-width: 0.8"/>
    <path d="M 209.051761 249.889692 
C 210.377777 249.889692 211.649661 249.362861 212.587295 248.425226 
C 213.52493 247.487591 214.051761 246.215708 214.051761 244.889692 
C 214.051761 243.563677 213.52493 242.291793 212.587295 241.354158 
C 211.649661 240.416524 210.377777 239.889692 209.051761 239.889692 
C 207.725746 239.889692 206.453862 240.416524 205.516227 241.354158 
C 204.578593 242.291793 204.051761 243.563677 204.051761 244.889692 
C 204.051761 246.215708 204.578593 247.487591 205.516227 248.425226 
C 206.453862 249.362861 207.725746 249.889692 209.051761 249.889692 
z
" clip-path="url(#pc199062464)" style="fill: #cc78bc; stroke: #ffffff; stroke-width: 0.8"/>
    <path d="M 344.324489 257.748867 
C 345.650504 257.748867 346.922388 257.222036 347.860023 256.284401 
C 348.797657 255.346767 349.324489 254.074883 349.324489 252.748867 
C 349.324489 251.422852 348.797657 250.150968 347.860023 249.213333 
C 346.922388 248.275699 345.650504 247.748867 344.324489 247.748867 
C 342.998473 247.748867 341.726589 248.275699 340.788955 249.213333 
C 339.85132 250.150968 339.324489 251.422852 339.324489 252.748867 
C 339.324489 254.074883 339.85132 255.346767 340.788955 256.284401 
C 341.726589 257.222036 342.998473 257.748867 344.324489 257.748867 
z
" clip-path="url(#pc199062464)" style="fill: #d55e00; stroke: #ffffff; stroke-width: 0.8"/>
    <path d="M 209.051761 256.664843 
C 210.377777 256.664843 211.649661 256.138012 212.587295 255.200377 
C 213.52493 254.262742 214.051761 252.990859 214.051761 251.664843 
C 214.051761 250.338828 213.52493 249.066944 212.587295 248.129309 
C 211.649661 247.191675 210.377777 246.664843 209.051761 246.664843 
C 207.725746 246.664843 206.453862 247.191675 205.516227 248.129309 
C 204.578593 249.066944 204.051761 250.338828 204.051761 251.664843 
C 204.051761 252.990859 204.578593 254.262742 205.516227 255.200377 
C 206.453862 256.138012 207.725746 256.664843 209.051761 256.664843 
z
" clip-path="url(#pc199062464)" style="fill: #d55e00; stroke: #ffffff; stroke-width: 0.8"/>
    <path d="M 344.324489 266.411023 
C 345.650504 266.411023 346.922388 265.884192 347.860023 264.946557 
C 348.797657 264.008922 349.324489 262.737039 349.324489 261.411023 
C 349.324489 260.085008 348.797657 258.813124 347.860023 257.875489 
C 346.922388 256.937855 345.650504 256.411023 344.324489 256.411023 
C 342.998473 256.411023 341.726589 256.937855 340.788955 257.875489 
C 339.85132 258.813124 339.324489 260.085008 339.324489 261.411023 
C 339.324489 262.737039 339.85132 264.008922 340.788955 264.946557 
C 341.726589 265.884192 342.998473 266.411023 344.324489 266.411023 
z
" clip-path="url(#pc199062464)" style="fill: #d55e00; stroke: #ffffff; stroke-width: 0.8"/>
    <path d="M 73.779034 254.677465 
C 75.10505 254.677465 76.376933 254.150634 77.314568 253.212999 
C 78.252203 252.275365 78.779034 251.003481 78.779034 249.677465 
C 78.779034 248.35145 78.252203 247.079566 77.314568 246.141932 
C 76.376933 245.204297 75.10505 244.677465 73.779034 244.677465 
C 72.453019 244.677465 71.181135 245.204297 70.2435 246.141932 
C 69.305866 247.079566 68.779034 248.35145 68.779034 249.677465 
C 68.779034 251.003481 69.305866 252.275365 70.2435 253.212999 
C 71.181135 254.150634 72.453019 254.677465 73.779034 254.677465 
z
" clip-path="url(#pc199062464)" style="fill: #d55e00; stroke: #ffffff; stroke-width: 0.8"/>
    <path d="M 344.324489 265.598005 
C 345.650504 265.598005 346.922388 265.071173 347.860023 264.133539 
C 348.797657 263.195904 349.324489 261.924021 349.324489 260.598005 
C 349.324489 259.27199 348.797657 258.000106 347.860023 257.062471 
C 346.922388 256.124837 345.650504 255.598005 344.324489 255.598005 
C 342.998473 255.598005 341.726589 256.124837 340.788955 257.062471 
C 339.85132 258.000106 339.324489 259.27199 339.324489 260.598005 
C 339.324489 261.924021 339.85132 263.195904 340.788955 264.133539 
C 341.726589 265.071173 342.998473 265.598005 344.324489 265.598005 
z
" clip-path="url(#pc199062464)" style="fill: #d55e00; stroke: #ffffff; stroke-width: 0.8"/>
    <path d="M 479.597216 259.334754 
C 480.923231 259.334754 482.195115 258.807923 483.13275 257.870288 
C 484.070384 256.932654 484.597216 255.66077 484.597216 254.334754 
C 484.597216 253.008739 484.070384 251.736855 483.13275 250.79922 
C 482.195115 249.861586 480.923231 249.334754 479.597216 249.334754 
C 478.2712 249.334754 476.999317 249.861586 476.061682 250.79922 
C 475.124047 251.736855 474.597216 253.008739 474.597216 254.334754 
C 474.597216 255.66077 475.124047 256.932654 476.061682 257.870288 
C 476.999317 258.807923 478.2712 259.334754 479.597216 259.334754 
z
" clip-path="url(#pc199062464)" style="fill: #d55e00; stroke: #ffffff; stroke-width: 0.8"/>
    <path d="M 479.597216 263.700963 
C 480.923231 263.700963 482.195115 263.174131 483.13275 262.236497 
C 484.070384 261.298862 484.597216 260.026978 484.597216 258.700963 
C 484.597216 257.374947 484.070384 256.103063 483.13275 255.165429 
C 482.195115 254.227794 480.923231 253.700963 479.597216 253.700963 
C 478.2712 253.700963 476.999317 254.227794 476.061682 255.165429 
C 475.124047 256.103063 474.597216 257.374947 474.597216 258.700963 
C 474.597216 260.026978 475.124047 261.298862 476.061682 262.236497 
C 476.999317 263.174131 478.2712 263.700963 479.597216 263.700963 
z
" clip-path="url(#pc199062464)" style="fill: #d55e00; stroke: #ffffff; stroke-width: 0.8"/>
    <path d="M 73.779034 254.316124 
C 75.10505 254.316124 76.376933 253.789293 77.314568 252.851658 
C 78.252203 251.914023 78.779034 250.64214 78.779034 249.316124 
C 78.779034 247.990109 78.252203 246.718225 77.314568 245.78059 
C 76.376933 244.842956 75.10505 244.316124 73.779034 244.316124 
C 72.453019 244.316124 71.181135 244.842956 70.2435 245.78059 
C 69.305866 246.718225 68.779034 247.990109 68.779034 249.316124 
C 68.779034 250.64214 69.305866 251.914023 70.2435 252.851658 
C 71.181135 253.789293 72.453019 254.316124 73.779034 254.316124 
z
" clip-path="url(#pc199062464)" style="fill: #d55e00; stroke: #ffffff; stroke-width: 0.8"/>
    <path d="M 73.779034 225.619596 
C 75.10505 225.619596 76.376933 225.092764 77.314568 224.15513 
C 78.252203 223.217495 78.779034 221.945611 78.779034 220.619596 
C 78.779034 219.29358 78.252203 218.021697 77.314568 217.084062 
C 76.376933 216.146427 75.10505 215.619596 73.779034 215.619596 
C 72.453019 215.619596 71.181135 216.146427 70.2435 217.084062 
C 69.305866 218.021697 68.779034 219.29358 68.779034 220.619596 
C 68.779034 221.945611 69.305866 223.217495 70.2435 224.15513 
C 71.181135 225.092764 72.453019 225.619596 73.779034 225.619596 
z
" clip-path="url(#pc199062464)" style="fill: #d55e00; stroke: #ffffff; stroke-width: 0.8"/>
    <path d="M 479.597216 264.84521 
C 480.923231 264.84521 482.195115 264.318379 483.13275 263.380744 
C 484.070384 262.44311 484.597216 261.171226 484.597216 259.84521 
C 484.597216 258.519195 484.070384 257.247311 483.13275 256.309677 
C 482.195115 255.372042 480.923231 254.84521 479.597216 254.84521 
C 478.2712 254.84521 476.999317 255.372042 476.061682 256.309677 
C 475.124047 257.247311 474.597216 258.519195 474.597216 259.84521 
C 474.597216 261.171226 475.124047 262.44311 476.061682 263.380744 
C 476.999317 264.318379 478.2712 264.84521 479.597216 264.84521 
z
" clip-path="url(#pc199062464)" style="fill: #d55e00; stroke: #ffffff; stroke-width: 0.8"/>
    <path d="M 209.051761 261.743697 
C 210.377777 261.743697 211.649661 261.216865 212.587295 260.279231 
C 213.52493 259.341596 214.051761 258.069712 214.051761 256.743697 
C 214.051761 255.417681 213.52493 254.145798 212.587295 253.208163 
C 211.649661 252.270528 210.377777 251.743697 209.051761 251.743697 
C 207.725746 251.743697 206.453862 252.270528 205.516227 253.208163 
C 204.578593 254.145798 204.051761 255.417681 204.051761 256.743697 
C 204.051761 258.069712 204.578593 259.341596 205.516227 260.279231 
C 206.453862 261.216865 207.725746 261.743697 209.051761 261.743697 
z
" clip-path="url(#pc199062464)" style="fill: #d55e00; stroke: #ffffff; stroke-width: 0.8"/>
   </g>
   <g id="line2d_11">
    <path d="M 73.779034 263.380334 
L 209.051761 258.954905 
L 344.324489 260.487595 
L 479.597216 253.240693 
" clip-path="url(#pc199062464)" style="fill: none; stroke: #029e73; stroke-width: 1.5; stroke-linecap: round"/>
   </g>
   <g id="line2d_12">
    <path d="M 73.779034 237.862606 
L 209.051761 250.309813 
L 344.324489 256.178599 
L 479.597216 248.551285 
" clip-path="url(#pc199062464)" style="fill: none; stroke: #cc78bc; stroke-width: 1.5; stroke-linecap: round"/>
   </g>
   <g id="line2d_13">
    <path d="M 73.779034 239.871062 
L 209.051761 254.20427 
L 344.324489 258.252632 
L 479.597216 257.626976 
" clip-path="url(#pc199062464)" style="fill: none; stroke: #d55e00; stroke-width: 1.5; stroke-linecap: round"/>
   </g>
   <g id="patch_3">
    <path d="M 53.488125 279 
L 53.488125 7.2 
" style="fill: none; stroke: #262626; stroke-width: 1.25; stroke-linejoin: miter; stroke-linecap: square"/>
   </g>
   <g id="patch_4">
    <path d="M 53.488125 279 
L 499.888125 279 
" style="fill: none; stroke: #262626; stroke-width: 1.25; stroke-linejoin: miter; stroke-linecap: square"/>
   </g>
  </g>
 </g>
 <defs>
  <clipPath id="pc199062464">
   <rect x="53.488125" y="7.2" width="446.4" height="271.8"/>
  </clipPath>
 </defs>
</svg>
