<?xml version="1.0" encoding="utf-8" standalone="no"?>
<!DOCTYPE svg PUBLIC "-//W3C//DTD SVG 1.1//EN"
  "http://www.w3.org/Graphics/SVG/1.1/DTD/svg11.dtd">
<svg xmlns:xlink="http://www.w3.org/1999/xlink" width="517.097812pt" height="328.930313pt" viewBox="0 0 517.097812 328.930313" xmlns="http://www.w3.org/2000/svg" version="1.1">
 <metadata>
  <rdf:RDF xmlns:dc="http://purl.org/dc/elements/1.1/" xmlns:cc="http://creativecommons.org/ns#" xmlns:rdf="http://www.w3.org/1999/02/22-rdf-syntax-ns#">
   <cc:Work>
    <dc:type rdf:resource="http://purl.org/dc/dcmitype/StillImage"/>
    <dc:date>2022-06-10T18:48:53.978410</dc:date>
    <dc:format>image/svg+xml</dc:format>
    <dc:creator>
     <cc:Agent>
      <dc:title>Matplotlib v3.5.2, https://matplotlib.org/</dc:title>
     </cc:Agent>
    </dc:creator>
   </cc:Work>
  </rdf:RDF>
 </metadata>
 <defs>
  <style type="text/css">*{stroke-linejoin: round; stroke-linecap: butt}</style>
 </defs>
 <g id="figure_1">
  <g id="patch_1">
   <path d="M 0 328.930313 
L 517.097812 328.930313 
L 517.097812 0 
L 0 0 
z
" style="fill: #ffffff"/>
  </g>
  <g id="axes_1">
   <g id="patch_2">
    <path d="M 63.497813 279 
L 509.897812 279 
L 509.897812 7.2 
L 63.497813 7.2 
z
" style="fill: #ffffff"/>
   </g>
   <g id="matplotlib.axis_1">
    <g id="xtick_1">
     <g id="line2d_1"/>
     <g id="text_1">
      <text style="fill: #262626; font: 18px 'sans-serif'; text-anchor: middle" x="489.606903" y="295.384063" transform="rotate(-0, 489.606903, 295.384063)">11</text>
     </g>
    </g>
    <g id="xtick_2">
     <g id="line2d_2"/>
     <g id="text_2">
      <text style="fill: #262626; font: 18px 'sans-serif'; text-anchor: middle" x="219.061449" y="295.384063" transform="rotate(-0, 219.061449, 295.384063)">9</text>
     </g>
    </g>
    <g id="xtick_3">
     <g id="line2d_3"/>
     <g id="text_3">
      <text style="fill: #262626; font: 18px 'sans-serif'; text-anchor: middle" x="83.788722" y="295.384063" transform="rotate(-0, 83.788722, 295.384063)">8</text>
     </g>
    </g>
    <g id="xtick_4">
     <g id="line2d_4"/>
     <g id="text_4">
      <text style="fill: #262626; font: 18px 'sans-serif'; text-anchor: middle" x="354.334176" y="295.384063" transform="rotate(-0, 354.334176, 295.384063)">10</text>
     </g>
    </g>
    <g id="text_5">
     <text style="fill: #262626; font: 20px 'sans-serif'; text-anchor: middle" x="286.697812" y="317.520938" transform="rotate(-0, 286.697812, 317.520938)">Age (weeks)</text>
    </g>
   </g>
   <g id="matplotlib.axis_2">
    <g id="ytick_1">
     <g id="line2d_5"/>
     <g id="text_6">
      <text style="fill: #262626; font: 18px 'sans-serif'; text-anchor: end" x="59.997813" y="249.896831" transform="rotate(-0, 59.997813, 249.896831)">100</text>
     </g>
    </g>
    <g id="ytick_2">
     <g id="line2d_6"/>
     <g id="text_7">
      <text style="fill: #262626; font: 18px 'sans-serif'; text-anchor: end" x="59.997813" y="194.680985" transform="rotate(-0, 59.997813, 194.680985)">200</text>
     </g>
    </g>
    <g id="ytick_3">
     <g id="line2d_7"/>
     <g id="text_8">
      <text style="fill: #262626; font: 18px 'sans-serif'; text-anchor: end" x="59.997813" y="139.465139" transform="rotate(-0, 59.997813, 139.465139)">300</text>
     </g>
    </g>
    <g id="ytick_4">
     <g id="line2d_8"/>
     <g id="text_9">
      <text style="fill: #262626; font: 18px 'sans-serif'; text-anchor: end" x="59.997813" y="84.249294" transform="rotate(-0, 59.997813, 84.249294)">400</text>
     </g>
    </g>
    <g id="ytick_5">
     <g id="line2d_9"/>
     <g id="text_10">
      <text style="fill: #262626; font: 18px 'sans-serif'; text-anchor: end" x="59.997813" y="29.033448" transform="rotate(-0, 59.997813, 29.033448)">500</text>
     </g>
    </g>
    <g id="text_11">
     <text style="fill: #262626; font: 20px 'sans-serif'; text-anchor: middle" x="21.759375" y="143.1" transform="rotate(-90, 21.759375, 143.1)">Blood glucose (mg/dL)</text>
    </g>
   </g>
   <g id="PolyCollection_1">
    <defs>
     <path id="m9902896f43" d="M 83.788722 -60.432372 
L 83.788722 -55.486862 
L 219.061449 -64.931294 
L 354.334176 -56.124507 
L 489.606903 -60.713308 
L 489.606903 -65.788963 
L 489.606903 -65.788963 
L 354.334176 -62.371466 
L 219.061449 -65.712164 
L 83.788722 -60.432372 
z
" style="stroke: #029e73; stroke-opacity: 0.2"/>
    </defs>
    <g clip-path="url(#p343657c769)">
     <use xlink:href="#m9902896f43" x="0" y="328.930313" style="fill: #029e73; fill-opacity: 0.2; stroke: #029e73; stroke-opacity: 0.2"/>
    </g>
   </g>
   <g id="PolyCollection_2">
    <defs>
     <path id="m7bdb3f7c66" d="M 83.788722 -100.313482 
L 83.788722 -37.508037 
L 219.061449 -53.529383 
L 354.334176 -53.461892 
L 489.606903 -52.627043 
L 489.606903 -61.230799 
L 489.606903 -61.230799 
L 354.334176 -60.580003 
L 219.061449 -62.647524 
L 83.788722 -100.313482 
z
" style="stroke: #cc78bc; stroke-opacity: 0.2"/>
    </defs>
    <g clip-path="url(#p343657c769)">
     <use xlink:href="#m7bdb3f7c66" x="0" y="328.930313" style="fill: #cc78bc; fill-opacity: 0.2; stroke: #cc78bc; stroke-opacity: 0.2"/>
    </g>
   </g>
   <g id="PolyCollection_3">
    <defs>
     <path id="me0dc925a3f" d="M 83.788722 -120.700041 
L 83.788722 -40.710914 
L 219.061449 -52.356267 
L 354.334176 -52.998412 
L 489.606903 -58.811877 
L 489.606903 -71.831582 
L 489.606903 -71.831582 
L 354.334176 -68.442406 
L 219.061449 -72.520203 
L 83.788722 -120.700041 
z
" style="stroke: #d55e00; stroke-opacity: 0.2"/>
    </defs>
    <g clip-path="url(#p343657c769)">
     <use xlink:href="#me0dc925a3f" x="0" y="328.930313" style="fill: #d55e00; fill-opacity: 0.2; stroke: #d55e00; stroke-opacity: 0.2"/>
    </g>
   </g>
   <g id="PathCollection_1">
    <path d="M 489.606903 272.473692 
C 490.932919 272.473692 492.204803 271.946861 493.142437 271.009226 
C 494.080072 270.071592 494.606903 268.799708 494.606903 267.473692 
C 494.606903 266.147677 494.080072 264.875793 493.142437 263.938158 
C 492.204803 263.000524 490.932919 262.473692 489.606903 262.473692 
C 488.280888 262.473692 487.009004 263.000524 486.07137 263.938158 
C 485.133735 264.875793 484.606903 266.147677 484.606903 267.473692 
C 484.606903 268.799708 485.133735 270.071592 486.07137 271.009226 
C 487.009004 271.946861 488.280888 272.473692 489.606903 272.473692 
z
" clip-path="url(#p343657c769)" style="fill: #029e73; stroke: #ffffff; stroke-width: 0.8"/>
    <path d="M 219.061449 268.332504 
C 220.387464 268.332504 221.659348 267.805672 222.596983 266.868038 
C 223.534617 265.930403 224.061449 264.658519 224.061449 263.332504 
C 224.061449 262.006488 223.534617 260.734604 222.596983 259.79697 
C 221.659348 258.859335 220.387464 258.332504 219.061449 258.332504 
C 217.735433 258.332504 216.46355 258.859335 215.525915 259.79697 
C 214.58828 260.734604 214.061449 262.006488 214.061449 263.332504 
C 214.061449 264.658519 214.58828 265.930403 215.525915 266.868038 
C 216.46355 267.805672 217.735433 268.332504 219.061449 268.332504 
z
" clip-path="url(#p343657c769)" style="fill: #029e73; stroke: #ffffff; stroke-width: 0.8"/>
    <path d="M 489.606903 268.884662 
C 490.932919 268.884662 492.204803 268.357831 493.142437 267.420196 
C 494.080072 266.482562 494.606903 265.210678 494.606903 263.884662 
C 494.606903 262.558647 494.080072 261.286763 493.142437 260.349128 
C 492.204803 259.411494 490.932919 258.884662 489.606903 258.884662 
C 488.280888 258.884662 487.009004 259.411494 486.07137 260.349128 
C 485.133735 261.286763 484.606903 262.558647 484.606903 263.884662 
C 484.606903 265.210678 485.133735 266.482562 486.07137 267.420196 
C 487.009004 268.357831 488.280888 268.884662 489.606903 268.884662 
z
" clip-path="url(#p343657c769)" style="fill: #029e73; stroke: #ffffff; stroke-width: 0.8"/>
    <path d="M 83.788722 274.222194 
C 85.114737 274.222194 86.386621 273.695362 87.324255 272.757728 
C 88.26189 271.820093 88.788722 270.54821 88.788722 269.222194 
C 88.788722 267.896179 88.26189 266.624295 87.324255 265.68666 
C 86.386621 264.749026 85.114737 264.222194 83.788722 264.222194 
C 82.462706 264.222194 81.190822 264.749026 80.253188 265.68666 
C 79.315553 266.624295 78.788722 267.896179 78.788722 269.222194 
C 78.788722 270.54821 79.315553 271.820093 80.253188 272.757728 
C 81.190822 273.695362 82.462706 274.222194 83.788722 274.222194 
z
" clip-path="url(#p343657c769)" style="fill: #029e73; stroke: #ffffff; stroke-width: 0.8"/>
    <path d="M 83.788722 277.719198 
C 85.114737 277.719198 86.386621 277.192366 87.324255 276.254731 
C 88.26189 275.317097 88.788722 274.045213 88.788722 272.719198 
C 88.788722 271.393182 88.26189 270.121298 87.324255 269.183664 
C 86.386621 268.246029 85.114737 267.719198 83.788722 267.719198 
C 82.462706 267.719198 81.190822 268.246029 80.253188 269.183664 
C 79.315553 270.121298 78.788722 271.393182 78.788722 272.719198 
C 78.788722 274.045213 79.315553 275.317097 80.253188 276.254731 
C 81.190822 277.192366 82.462706 277.719198 83.788722 277.719198 
z
" clip-path="url(#p343657c769)" style="fill: #029e73; stroke: #ffffff; stroke-width: 0.8"/>
    <path d="M 219.061449 268.884662 
C 220.387464 268.884662 221.659348 268.357831 222.596983 267.420196 
C 223.534617 266.482562 224.061449 265.210678 224.061449 263.884662 
C 224.061449 262.558647 223.534617 261.286763 222.596983 260.349128 
C 221.659348 259.411494 220.387464 258.884662 219.061449 258.884662 
C 217.735433 258.884662 216.46355 259.411494 215.525915 260.349128 
C 214.58828 261.286763 214.061449 262.558647 214.061449 263.884662 
C 214.061449 265.210678 214.58828 266.482562 215.525915 267.420196 
C 216.46355 268.357831 217.735433 268.884662 219.061449 268.884662 
z
" clip-path="url(#p343657c769)" style="fill: #029e73; stroke: #ffffff; stroke-width: 0.8"/>
    <path d="M 354.334176 276.89096 
C 355.660192 276.89096 356.932075 276.364128 357.86971 275.426494 
C 358.807345 274.488859 359.334176 273.216975 359.334176 271.89096 
C 359.334176 270.564944 358.807345 269.293061 357.86971 268.355426 
C 356.932075 267.417791 355.660192 266.89096 354.334176 266.89096 
C 353.008161 266.89096 351.736277 267.417791 350.798642 268.355426 
C 349.861008 269.293061 349.334176 270.564944 349.334176 271.89096 
C 349.334176 273.216975 349.861008 274.488859 350.798642 275.426494 
C 351.736277 276.364128 353.008161 276.89096 354.334176 276.89096 
z
" clip-path="url(#p343657c769)" style="fill: #029e73; stroke: #ffffff; stroke-width: 0.8"/>
    <path d="M 354.334176 272.473692 
C 355.660192 272.473692 356.932075 271.946861 357.86971 271.009226 
C 358.807345 270.071592 359.334176 268.799708 359.334176 267.473692 
C 359.334176 266.147677 358.807345 264.875793 357.86971 263.938158 
C 356.932075 263.000524 355.660192 262.473692 354.334176 262.473692 
C 353.008161 262.473692 351.736277 263.000524 350.798642 263.938158 
C 349.861008 264.875793 349.334176 266.147677 349.334176 267.473692 
C 349.334176 268.799708 349.861008 270.071592 350.798642 271.009226 
C 351.736277 271.946861 353.008161 272.473692 354.334176 272.473692 
z
" clip-path="url(#p343657c769)" style="fill: #029e73; stroke: #ffffff; stroke-width: 0.8"/>
    <path d="M 83.788722 281.032148 
C 85.114737 281.032148 86.386621 280.505317 87.324255 279.567682 
C 88.26189 278.630048 88.788722 277.358164 88.788722 276.032148 
C 88.788722 274.706133 88.26189 273.434249 87.324255 272.496614 
C 86.386621 271.55898 85.114737 271.032148 83.788722 271.032148 
C 82.462706 271.032148 81.190822 271.55898 80.253188 272.496614 
C 79.315553 273.434249 78.788722 274.706133 78.788722 276.032148 
C 78.788722 277.358164 79.315553 278.630048 80.253188 279.567682 
C 81.190822 280.505317 82.462706 281.032148 83.788722 281.032148 
z
" clip-path="url(#p343657c769)" style="fill: #cc78bc; stroke: #ffffff; stroke-width: 0.8"/>
    <path d="M 354.334176 275.234485 
C 355.660192 275.234485 356.932075 274.707653 357.86971 273.770018 
C 358.807345 272.832384 359.334176 271.5605 359.334176 270.234485 
C 359.334176 268.908469 358.807345 267.636585 357.86971 266.698951 
C 356.932075 265.761316 355.660192 265.234485 354.334176 265.234485 
C 353.008161 265.234485 351.736277 265.761316 350.798642 266.698951 
C 349.861008 267.636585 349.334176 268.908469 349.334176 270.234485 
C 349.334176 271.5605 349.861008 272.832384 350.798642 273.770018 
C 351.736277 274.707653 353.008161 275.234485 354.334176 275.234485 
z
" clip-path="url(#p343657c769)" style="fill: #cc78bc; stroke: #ffffff; stroke-width: 0.8"/>
    <path d="M 354.334176 281.584307 
C 355.660192 281.584307 356.932075 281.057475 357.86971 280.119841 
C 358.807345 279.182206 359.334176 277.910322 359.334176 276.584307 
C 359.334176 275.258291 358.807345 273.986407 357.86971 273.048773 
C 356.932075 272.111138 355.660192 271.584307 354.334176 271.584307 
C 353.008161 271.584307 351.736277 272.111138 350.798642 273.048773 
C 349.861008 273.986407 349.334176 275.258291 349.334176 276.584307 
C 349.334176 277.910322 349.861008 279.182206 350.798642 280.119841 
C 351.736277 281.057475 353.008161 281.584307 354.334176 281.584307 
z
" clip-path="url(#p343657c769)" style="fill: #cc78bc; stroke: #ffffff; stroke-width: 0.8"/>
    <path d="M 354.334176 273.30193 
C 355.660192 273.30193 356.932075 272.775098 357.86971 271.837464 
C 358.807345 270.899829 359.334176 269.627945 359.334176 268.30193 
C 359.334176 266.975914 358.807345 265.704031 357.86971 264.766396 
C 356.932075 263.828761 355.660192 263.30193 354.334176 263.30193 
C 353.008161 263.30193 351.736277 263.828761 350.798642 264.766396 
C 349.861008 265.704031 349.334176 266.975914 349.334176 268.30193 
C 349.334176 269.627945 349.861008 270.899829 350.798642 271.837464 
C 351.736277 272.775098 353.008161 273.30193 354.334176 273.30193 
z
" clip-path="url(#p343657c769)" style="fill: #cc78bc; stroke: #ffffff; stroke-width: 0.8"/>
    <path d="M 489.606903 276.062722 
C 490.932919 276.062722 492.204803 275.535891 493.142437 274.598256 
C 494.080072 273.660622 494.606903 272.388738 494.606903 271.062722 
C 494.606903 269.736707 494.080072 268.464823 493.142437 267.527188 
C 492.204803 266.589554 490.932919 266.062722 489.606903 266.062722 
C 488.280888 266.062722 487.009004 266.589554 486.07137 267.527188 
C 485.133735 268.464823 484.606903 269.736707 484.606903 271.062722 
C 484.606903 272.388738 485.133735 273.660622 486.07137 274.598256 
C 487.009004 275.535891 488.280888 276.062722 489.606903 276.062722 
z
" clip-path="url(#p343657c769)" style="fill: #cc78bc; stroke: #ffffff; stroke-width: 0.8"/>
    <path d="M 354.334176 279.743779 
C 355.660192 279.743779 356.932075 279.216947 357.86971 278.279312 
C 358.807345 277.341678 359.334176 276.069794 359.334176 274.743779 
C 359.334176 273.417763 358.807345 272.145879 357.86971 271.208245 
C 356.932075 270.27061 355.660192 269.743779 354.334176 269.743779 
C 353.008161 269.743779 351.736277 270.27061 350.798642 271.208245 
C 349.861008 272.145879 349.334176 273.417763 349.334176 274.743779 
C 349.334176 276.069794 349.861008 277.341678 350.798642 278.279312 
C 351.736277 279.216947 353.008161 279.743779 354.334176 279.743779 
z
" clip-path="url(#p343657c769)" style="fill: #cc78bc; stroke: #ffffff; stroke-width: 0.8"/>
    <path d="M 219.061449 281.032148 
C 220.387464 281.032148 221.659348 280.505317 222.596983 279.567682 
C 223.534617 278.630048 224.061449 277.358164 224.061449 276.032148 
C 224.061449 274.706133 223.534617 273.434249 222.596983 272.496614 
C 221.659348 271.55898 220.387464 271.032148 219.061449 271.032148 
C 217.735433 271.032148 216.46355 271.55898 215.525915 272.496614 
C 214.58828 273.434249 214.061449 274.706133 214.061449 276.032148 
C 214.061449 277.358164 214.58828 278.630048 215.525915 279.567682 
C 216.46355 280.505317 217.735433 281.032148 219.061449 281.032148 
z
" clip-path="url(#p343657c769)" style="fill: #cc78bc; stroke: #ffffff; stroke-width: 0.8"/>
    <path d="M 489.606903 282.412544 
C 490.932919 282.412544 492.204803 281.885713 493.142437 280.948078 
C 494.080072 280.010444 494.606903 278.73856 494.606903 277.412544 
C 494.606903 276.086529 494.080072 274.814645 493.142437 273.877011 
C 492.204803 272.939376 490.932919 272.412544 489.606903 272.412544 
C 488.280888 272.412544 487.009004 272.939376 486.07137 273.877011 
C 485.133735 274.814645 484.606903 276.086529 484.606903 277.412544 
C 484.606903 278.73856 485.133735 280.010444 486.07137 280.948078 
C 487.009004 281.885713 488.280888 282.412544 489.606903 282.412544 
z
" clip-path="url(#p343657c769)" style="fill: #cc78bc; stroke: #ffffff; stroke-width: 0.8"/>
    <path d="M 489.606903 278.271356 
C 490.932919 278.271356 492.204803 277.744524 493.142437 276.80689 
C 494.080072 275.869255 494.606903 274.597372 494.606903 273.271356 
C 494.606903 271.945341 494.080072 270.673457 493.142437 269.735822 
C 492.204803 268.798188 490.932919 268.271356 489.606903 268.271356 
C 488.280888 268.271356 487.009004 268.798188 486.07137 269.735822 
C 485.133735 270.673457 484.606903 271.945341 484.606903 273.271356 
C 484.606903 274.597372 485.133735 275.869255 486.07137 276.80689 
C 487.009004 277.744524 488.280888 278.271356 489.606903 278.271356 
z
" clip-path="url(#p343657c769)" style="fill: #cc78bc; stroke: #ffffff; stroke-width: 0.8"/>
    <path d="M 489.606903 270.541138 
C 490.932919 270.541138 492.204803 270.014306 493.142437 269.076672 
C 494.080072 268.139037 494.606903 266.867153 494.606903 265.541138 
C 494.606903 264.215122 494.080072 262.943238 493.142437 262.005604 
C 492.204803 261.067969 490.932919 260.541138 489.606903 260.541138 
C 488.280888 260.541138 487.009004 261.067969 486.07137 262.005604 
C 485.133735 262.943238 484.606903 264.215122 484.606903 265.541138 
C 484.606903 266.867153 485.133735 268.139037 486.07137 269.076672 
C 487.009004 270.014306 488.280888 270.541138 489.606903 270.541138 
z
" clip-path="url(#p343657c769)" style="fill: #cc78bc; stroke: #ffffff; stroke-width: 0.8"/>
    <path d="M 83.788722 274.774352 
C 85.114737 274.774352 86.386621 274.247521 87.324255 273.309886 
C 88.26189 272.372252 88.788722 271.100368 88.788722 269.774352 
C 88.788722 268.448337 88.26189 267.176453 87.324255 266.238819 
C 86.386621 265.301184 85.114737 264.774352 83.788722 264.774352 
C 82.462706 264.774352 81.190822 265.301184 80.253188 266.238819 
C 79.315553 267.176453 78.788722 268.448337 78.788722 269.774352 
C 78.788722 271.100368 79.315553 272.372252 80.253188 273.309886 
C 81.190822 274.247521 82.462706 274.774352 83.788722 274.774352 
z
" clip-path="url(#p343657c769)" style="fill: #cc78bc; stroke: #ffffff; stroke-width: 0.8"/>
    <path d="M 354.334176 274.682326 
C 355.660192 274.682326 356.932075 274.155495 357.86971 273.21786 
C 358.807345 272.280225 359.334176 271.008342 359.334176 269.682326 
C 359.334176 268.356311 358.807345 267.084427 357.86971 266.146792 
C 356.932075 265.209158 355.660192 264.682326 354.334176 264.682326 
C 353.008161 264.682326 351.736277 265.209158 350.798642 266.146792 
C 349.861008 267.084427 349.334176 268.356311 349.334176 269.682326 
C 349.334176 271.008342 349.861008 272.280225 350.798642 273.21786 
C 351.736277 274.155495 353.008161 274.682326 354.334176 274.682326 
z
" clip-path="url(#p343657c769)" style="fill: #cc78bc; stroke: #ffffff; stroke-width: 0.8"/>
    <path d="M 83.788722 281.952412 
C 85.114737 281.952412 86.386621 281.425581 87.324255 280.487946 
C 88.26189 279.550312 88.788722 278.278428 88.788722 276.952412 
C 88.788722 275.626397 88.26189 274.354513 87.324255 273.416878 
C 86.386621 272.479244 85.114737 271.952412 83.788722 271.952412 
C 82.462706 271.952412 81.190822 272.479244 80.253188 273.416878 
C 79.315553 274.354513 78.788722 275.626397 78.788722 276.952412 
C 78.788722 278.278428 79.315553 279.550312 80.253188 280.487946 
C 81.190822 281.425581 82.462706 281.952412 83.788722 281.952412 
z
" clip-path="url(#p343657c769)" style="fill: #cc78bc; stroke: #ffffff; stroke-width: 0.8"/>
    <path d="M 219.061449 277.167039 
C 220.387464 277.167039 221.659348 276.640208 222.596983 275.702573 
C 223.534617 274.764938 224.061449 273.493055 224.061449 272.167039 
C 224.061449 270.841024 223.534617 269.56914 222.596983 268.631505 
C 221.659348 267.693871 220.387464 267.167039 219.061449 267.167039 
C 217.735433 267.167039 216.46355 267.693871 215.525915 268.631505 
C 214.58828 269.56914 214.061449 270.841024 214.061449 272.167039 
C 214.061449 273.493055 214.58828 274.764938 215.525915 275.702573 
C 216.46355 276.640208 217.735433 277.167039 219.061449 277.167039 
z
" clip-path="url(#p343657c769)" style="fill: #cc78bc; stroke: #ffffff; stroke-width: 0.8"/>
    <path d="M 83.788722 209.067496 
C 85.114737 209.067496 86.386621 208.540665 87.324255 207.60303 
C 88.26189 206.665396 88.788722 205.393512 88.788722 204.067496 
C 88.788722 202.741481 88.26189 201.469597 87.324255 200.531962 
C 86.386621 199.594328 85.114737 199.067496 83.788722 199.067496 
C 82.462706 199.067496 81.190822 199.594328 80.253188 200.531962 
C 79.315553 201.469597 78.788722 202.741481 78.788722 204.067496 
C 78.788722 205.393512 79.315553 206.665396 80.253188 207.60303 
C 81.190822 208.540665 82.462706 209.067496 83.788722 209.067496 
z
" clip-path="url(#p343657c769)" style="fill: #cc78bc; stroke: #ffffff; stroke-width: 0.8"/>
    <path d="M 83.788722 278.271356 
C 85.114737 278.271356 86.386621 277.744524 87.324255 276.80689 
C 88.26189 275.869255 88.788722 274.597372 88.788722 273.271356 
C 88.788722 271.945341 88.26189 270.673457 87.324255 269.735822 
C 86.386621 268.798188 85.114737 268.271356 83.788722 268.271356 
C 82.462706 268.271356 81.190822 268.798188 80.253188 269.735822 
C 79.315553 270.673457 78.788722 271.945341 78.788722 273.271356 
C 78.788722 274.597372 79.315553 275.869255 80.253188 276.80689 
C 81.190822 277.744524 82.462706 278.271356 83.788722 278.271356 
z
" clip-path="url(#p343657c769)" style="fill: #cc78bc; stroke: #ffffff; stroke-width: 0.8"/>
    <path d="M 219.061449 268.608583 
C 220.387464 268.608583 221.659348 268.081751 222.596983 267.144117 
C 223.534617 266.206482 224.061449 264.934599 224.061449 263.608583 
C 224.061449 262.282568 223.534617 261.010684 222.596983 260.073049 
C 221.659348 259.135415 220.387464 258.608583 219.061449 258.608583 
C 217.735433 258.608583 216.46355 259.135415 215.525915 260.073049 
C 214.58828 261.010684 214.061449 262.282568 214.061449 263.608583 
C 214.061449 264.934599 214.58828 266.206482 215.525915 267.144117 
C 216.46355 268.081751 217.735433 268.608583 219.061449 268.608583 
z
" clip-path="url(#p343657c769)" style="fill: #cc78bc; stroke: #ffffff; stroke-width: 0.8"/>
    <path d="M 219.061449 277.167039 
C 220.387464 277.167039 221.659348 276.640208 222.596983 275.702573 
C 223.534617 274.764938 224.061449 273.493055 224.061449 272.167039 
C 224.061449 270.841024 223.534617 269.56914 222.596983 268.631505 
C 221.659348 267.693871 220.387464 267.167039 219.061449 267.167039 
C 217.735433 267.167039 216.46355 267.693871 215.525915 268.631505 
C 214.58828 269.56914 214.061449 270.841024 214.061449 272.167039 
C 214.061449 273.493055 214.58828 274.764938 215.525915 275.702573 
C 216.46355 276.640208 217.735433 277.167039 219.061449 277.167039 
z
" clip-path="url(#p343657c769)" style="fill: #cc78bc; stroke: #ffffff; stroke-width: 0.8"/>
    <path d="M 489.606903 277.719198 
C 490.932919 277.719198 492.204803 277.192366 493.142437 276.254731 
C 494.080072 275.317097 494.606903 274.045213 494.606903 272.719198 
C 494.606903 271.393182 494.080072 270.121298 493.142437 269.183664 
C 492.204803 268.246029 490.932919 267.719198 489.606903 267.719198 
C 488.280888 267.719198 487.009004 268.246029 486.07137 269.183664 
C 485.133735 270.121298 484.606903 271.393182 484.606903 272.719198 
C 484.606903 274.045213 485.133735 275.317097 486.07137 276.254731 
C 487.009004 277.192366 488.280888 277.719198 489.606903 277.719198 
z
" clip-path="url(#p343657c769)" style="fill: #cc78bc; stroke: #ffffff; stroke-width: 0.8"/>
    <path d="M 219.061449 275.234485 
C 220.387464 275.234485 221.659348 274.707653 222.596983 273.770018 
C 223.534617 272.832384 224.061449 271.5605 224.061449 270.234485 
C 224.061449 268.908469 223.534617 267.636585 222.596983 266.698951 
C 221.659348 265.761316 220.387464 265.234485 219.061449 265.234485 
C 217.735433 265.234485 216.46355 265.761316 215.525915 266.698951 
C 214.58828 267.636585 214.061449 268.908469 214.061449 270.234485 
C 214.061449 271.5605 214.58828 272.832384 215.525915 273.770018 
C 216.46355 274.707653 217.735433 275.234485 219.061449 275.234485 
z
" clip-path="url(#p343657c769)" style="fill: #cc78bc; stroke: #ffffff; stroke-width: 0.8"/>
    <path d="M 354.334176 279.099594 
C 355.660192 279.099594 356.932075 278.572762 357.86971 277.635128 
C 358.807345 276.697493 359.334176 275.425609 359.334176 274.099594 
C 359.334176 272.773578 358.807345 271.501694 357.86971 270.56406 
C 356.932075 269.626425 355.660192 269.099594 354.334176 269.099594 
C 353.008161 269.099594 351.736277 269.626425 350.798642 270.56406 
C 349.861008 271.501694 349.334176 272.773578 349.334176 274.099594 
C 349.334176 275.425609 349.861008 276.697493 350.798642 277.635128 
C 351.736277 278.572762 353.008161 279.099594 354.334176 279.099594 
z
" clip-path="url(#p343657c769)" style="fill: #d55e00; stroke: #ffffff; stroke-width: 0.8"/>
    <path d="M 219.061449 260.326206 
C 220.387464 260.326206 221.659348 259.799375 222.596983 258.86174 
C 223.534617 257.924106 224.061449 256.652222 224.061449 255.326206 
C 224.061449 254.000191 223.534617 252.728307 222.596983 251.790672 
C 221.659348 250.853038 220.387464 250.326206 219.061449 250.326206 
C 217.735433 250.326206 216.46355 250.853038 215.525915 251.790672 
C 214.58828 252.728307 214.061449 254.000191 214.061449 255.326206 
C 214.061449 256.652222 214.58828 257.924106 215.525915 258.86174 
C 216.46355 259.799375 217.735433 260.326206 219.061449 260.326206 
z
" clip-path="url(#p343657c769)" style="fill: #d55e00; stroke: #ffffff; stroke-width: 0.8"/>
    <path d="M 354.334176 276.062722 
C 355.660192 276.062722 356.932075 275.535891 357.86971 274.598256 
C 358.807345 273.660622 359.334176 272.388738 359.334176 271.062722 
C 359.334176 269.736707 358.807345 268.464823 357.86971 267.527188 
C 356.932075 266.589554 355.660192 266.062722 354.334176 266.062722 
C 353.008161 266.062722 351.736277 266.589554 350.798642 267.527188 
C 349.861008 268.464823 349.334176 269.736707 349.334176 271.062722 
C 349.334176 272.388738 349.861008 273.660622 350.798642 274.598256 
C 351.736277 275.535891 353.008161 276.062722 354.334176 276.062722 
z
" clip-path="url(#p343657c769)" style="fill: #d55e00; stroke: #ffffff; stroke-width: 0.8"/>
    <path d="M 83.788722 281.170188 
C 85.114737 281.170188 86.386621 280.643356 87.324255 279.705722 
C 88.26189 278.768087 88.788722 277.496203 88.788722 276.170188 
C 88.788722 274.844172 88.26189 273.572289 87.324255 272.634654 
C 86.386621 271.697019 85.114737 271.170188 83.788722 271.170188 
C 82.462706 271.170188 81.190822 271.697019 80.253188 272.634654 
C 79.315553 273.572289 78.788722 274.844172 78.788722 276.170188 
C 78.788722 277.496203 79.315553 278.768087 80.253188 279.705722 
C 81.190822 280.643356 82.462706 281.170188 83.788722 281.170188 
z
" clip-path="url(#p343657c769)" style="fill: #d55e00; stroke: #ffffff; stroke-width: 0.8"/>
    <path d="M 354.334176 264.467395 
C 355.660192 264.467395 356.932075 263.940563 357.86971 263.002929 
C 358.807345 262.065294 359.334176 260.79341 359.334176 259.467395 
C 359.334176 258.141379 358.807345 256.869495 357.86971 255.931861 
C 356.932075 254.994226 355.660192 254.467395 354.334176 254.467395 
C 353.008161 254.467395 351.736277 254.994226 350.798642 255.931861 
C 349.861008 256.869495 349.334176 258.141379 349.334176 259.467395 
C 349.334176 260.79341 349.861008 262.065294 350.798642 263.002929 
C 351.736277 263.940563 353.008161 264.467395 354.334176 264.467395 
z
" clip-path="url(#p343657c769)" style="fill: #d55e00; stroke: #ffffff; stroke-width: 0.8"/>
    <path d="M 489.606903 275.786643 
C 490.932919 275.786643 492.204803 275.259811 493.142437 274.322177 
C 494.080072 273.384542 494.606903 272.112658 494.606903 270.786643 
C 494.606903 269.460627 494.080072 268.188744 493.142437 267.251109 
C 492.204803 266.313475 490.932919 265.786643 489.606903 265.786643 
C 488.280888 265.786643 487.009004 266.313475 486.07137 267.251109 
C 485.133735 268.188744 484.606903 269.460627 484.606903 270.786643 
C 484.606903 272.112658 485.133735 273.384542 486.07137 274.322177 
C 487.009004 275.259811 488.280888 275.786643 489.606903 275.786643 
z
" clip-path="url(#p343657c769)" style="fill: #d55e00; stroke: #ffffff; stroke-width: 0.8"/>
    <path d="M 489.606903 263.086998 
C 490.932919 263.086998 492.204803 262.560167 493.142437 261.622532 
C 494.080072 260.684898 494.606903 259.413014 494.606903 258.086998 
C 494.606903 256.760983 494.080072 255.489099 493.142437 254.551465 
C 492.204803 253.61383 490.932919 253.086998 489.606903 253.086998 
C 488.280888 253.086998 487.009004 253.61383 486.07137 254.551465 
C 485.133735 255.489099 484.606903 256.760983 484.606903 258.086998 
C 484.606903 259.413014 485.133735 260.684898 486.07137 261.622532 
C 487.009004 262.560167 488.280888 263.086998 489.606903 263.086998 
z
" clip-path="url(#p343657c769)" style="fill: #d55e00; stroke: #ffffff; stroke-width: 0.8"/>
    <path d="M 83.788722 271.093296 
C 85.114737 271.093296 86.386621 270.566465 87.324255 269.62883 
C 88.26189 268.691195 88.788722 267.419312 88.788722 266.093296 
C 88.788722 264.767281 88.26189 263.495397 87.324255 262.557762 
C 86.386621 261.620128 85.114737 261.093296 83.788722 261.093296 
C 82.462706 261.093296 81.190822 261.620128 80.253188 262.557762 
C 79.315553 263.495397 78.788722 264.767281 78.788722 266.093296 
C 78.788722 267.419312 79.315553 268.691195 80.253188 269.62883 
C 81.190822 270.566465 82.462706 271.093296 83.788722 271.093296 
z
" clip-path="url(#p343657c769)" style="fill: #d55e00; stroke: #ffffff; stroke-width: 0.8"/>
    <path d="M 83.788722 207.411021 
C 85.114737 207.411021 86.386621 206.884189 87.324255 205.946555 
C 88.26189 205.00892 88.788722 203.737036 88.788722 202.411021 
C 88.788722 201.085005 88.26189 199.813121 87.324255 198.875487 
C 86.386621 197.937852 85.114737 197.411021 83.788722 197.411021 
C 82.462706 197.411021 81.190822 197.937852 80.253188 198.875487 
C 79.315553 199.813121 78.788722 201.085005 78.788722 202.411021 
C 78.788722 203.737036 79.315553 205.00892 80.253188 205.946555 
C 81.190822 206.884189 82.462706 207.411021 83.788722 207.411021 
z
" clip-path="url(#p343657c769)" style="fill: #d55e00; stroke: #ffffff; stroke-width: 0.8"/>
    <path d="M 219.061449 274.222194 
C 220.387464 274.222194 221.659348 273.695362 222.596983 272.757728 
C 223.534617 271.820093 224.061449 270.54821 224.061449 269.222194 
C 224.061449 267.896179 223.534617 266.624295 222.596983 265.68666 
C 221.659348 264.749026 220.387464 264.222194 219.061449 264.222194 
C 217.735433 264.222194 216.46355 264.749026 215.525915 265.68666 
C 214.58828 266.624295 214.061449 267.896179 214.061449 269.222194 
C 214.061449 270.54821 214.58828 271.820093 215.525915 272.757728 
C 216.46355 273.695362 217.735433 274.222194 219.061449 274.222194 
z
" clip-path="url(#p343657c769)" style="fill: #d55e00; stroke: #ffffff; stroke-width: 0.8"/>
    <path d="M 489.606903 266.952108 
C 490.932919 266.952108 492.204803 266.425276 493.142437 265.487642 
C 494.080072 264.550007 494.606903 263.278123 494.606903 261.952108 
C 494.606903 260.626092 494.080072 259.354208 493.142437 258.416574 
C 492.204803 257.478939 490.932919 256.952108 489.606903 256.952108 
C 488.280888 256.952108 487.009004 257.478939 486.07137 258.416574 
C 485.133735 259.354208 484.606903 260.626092 484.606903 261.952108 
C 484.606903 263.278123 485.133735 264.550007 486.07137 265.487642 
C 487.009004 266.425276 488.280888 266.952108 489.606903 266.952108 
z
" clip-path="url(#p343657c769)" style="fill: #d55e00; stroke: #ffffff; stroke-width: 0.8"/>
    <path d="M 219.061449 279.927831 
C 220.387464 279.927831 221.659348 279.401 222.596983 278.463365 
C 223.534617 277.525731 224.061449 276.253847 224.061449 274.927831 
C 224.061449 273.601816 223.534617 272.329932 222.596983 271.392297 
C 221.659348 270.454663 220.387464 269.927831 219.061449 269.927831 
C 217.735433 269.927831 216.46355 270.454663 215.525915 271.392297 
C 214.58828 272.329932 214.061449 273.601816 214.061449 274.927831 
C 214.061449 276.253847 214.58828 277.525731 215.525915 278.463365 
C 216.46355 279.401 217.735433 279.927831 219.061449 279.927831 
z
" clip-path="url(#p343657c769)" style="fill: #d55e00; stroke: #ffffff; stroke-width: 0.8"/>
   </g>
   <g id="line2d_10">
    <path d="M 83.788722 270.970696 
L 219.061449 263.608583 
L 354.334176 269.682326 
L 489.606903 265.679177 
" clip-path="url(#p343657c769)" style="fill: none; stroke: #029e73; stroke-width: 1.5; stroke-linecap: round"/>
   </g>
   <g id="line2d_11">
    <path d="M 83.788722 260.019553 
L 219.061449 270.841859 
L 354.334176 271.909365 
L 489.606903 272.001392 
" clip-path="url(#p343657c769)" style="fill: none; stroke: #cc78bc; stroke-width: 1.5; stroke-linecap: round"/>
   </g>
   <g id="line2d_12">
    <path d="M 83.788722 248.224835 
L 219.061449 266.492077 
L 354.334176 268.209904 
L 489.606903 263.608583 
" clip-path="url(#p343657c769)" style="fill: none; stroke: #d55e00; stroke-width: 1.5; stroke-linecap: round"/>
   </g>
   <g id="patch_3">
    <path d="M 63.497813 279 
L 63.497813 7.2 
" style="fill: none; stroke: #262626; stroke-width: 1.25; stroke-linejoin: miter; stroke-linecap: square"/>
   </g>
   <g id="patch_4">
    <path d="M 63.497813 279 
L 509.897812 279 
" style="fill: none; stroke: #262626; stroke-width: 1.25; stroke-linejoin: miter; stroke-linecap: square"/>
   </g>
  </g>
 </g>
 <defs>
  <clipPath id="p343657c769">
   <rect x="63.497813" y="7.2" width="446.4" height="271.8"/>
  </clipPath>
 </defs>
</svg>
