<?xml version="1.0" encoding="utf-8" standalone="no"?>
<!DOCTYPE svg PUBLIC "-//W3C//DTD SVG 1.1//EN"
  "http://www.w3.org/Graphics/SVG/1.1/DTD/svg11.dtd">
<svg xmlns:xlink="http://www.w3.org/1999/xlink" width="507.088125pt" height="328.930313pt" viewBox="0 0 507.088125 328.930313" xmlns="http://www.w3.org/2000/svg" version="1.1">
 <metadata>
  <rdf:RDF xmlns:dc="http://purl.org/dc/elements/1.1/" xmlns:cc="http://creativecommons.org/ns#" xmlns:rdf="http://www.w3.org/1999/02/22-rdf-syntax-ns#">
   <cc:Work>
    <dc:type rdf:resource="http://purl.org/dc/dcmitype/StillImage"/>
    <dc:date>2022-06-10T15:52:33.633407</dc:date>
    <dc:format>image/svg+xml</dc:format>
    <dc:creator>
     <cc:Agent>
      <dc:title>Matplotlib v3.5.2, https://matplotlib.org/</dc:title>
     </cc:Agent>
    </dc:creator>
   </cc:Work>
  </rdf:RDF>
 </metadata>
 <defs>
  <style type="text/css">*{stroke-linejoin: round; stroke-linecap: butt}</style>
 </defs>
 <g id="figure_1">
  <g id="patch_1">
   <path d="M 0 328.930313 
L 507.088125 328.930313 
L 507.088125 0 
L 0 0 
z
" style="fill: #ffffff"/>
  </g>
  <g id="axes_1">
   <g id="patch_2">
    <path d="M 53.488125 279 
L 499.888125 279 
L 499.888125 7.2 
L 53.488125 7.2 
z
" style="fill: #ffffff"/>
   </g>
   <g id="matplotlib.axis_1">
    <g id="xtick_1">
     <g id="line2d_1"/>
     <g id="text_1">
      <text style="fill: #262626; font: 18px 'sans-serif'; text-anchor: middle" x="479.597216" y="295.384063" transform="rotate(-0, 479.597216, 295.384063)">11</text>
     </g>
    </g>
    <g id="xtick_2">
     <g id="line2d_2"/>
     <g id="text_2">
      <text style="fill: #262626; font: 18px 'sans-serif'; text-anchor: middle" x="209.051761" y="295.384063" transform="rotate(-0, 209.051761, 295.384063)">9</text>
     </g>
    </g>
    <g id="xtick_3">
     <g id="line2d_3"/>
     <g id="text_3">
      <text style="fill: #262626; font: 18px 'sans-serif'; text-anchor: middle" x="73.779034" y="295.384063" transform="rotate(-0, 73.779034, 295.384063)">8</text>
     </g>
    </g>
    <g id="xtick_4">
     <g id="line2d_4"/>
     <g id="text_4">
      <text style="fill: #262626; font: 18px 'sans-serif'; text-anchor: middle" x="344.324489" y="295.384063" transform="rotate(-0, 344.324489, 295.384063)">10</text>
     </g>
    </g>
    <g id="text_5">
     <text style="fill: #262626; font: 20px 'sans-serif'; text-anchor: middle" x="276.688125" y="317.520938" transform="rotate(-0, 276.688125, 317.520938)">Age (weeks)</text>
    </g>
   </g>
   <g id="matplotlib.axis_2">
    <g id="ytick_1">
     <g id="line2d_5"/>
     <g id="text_6">
      <text style="fill: #262626; font: 18px 'sans-serif'; text-anchor: end" x="49.988125" y="279.084749" transform="rotate(-0, 49.988125, 279.084749)">0</text>
     </g>
    </g>
    <g id="ytick_2">
     <g id="line2d_6"/>
     <g id="text_7">
      <text style="fill: #262626; font: 18px 'sans-serif'; text-anchor: end" x="49.988125" y="228.898446" transform="rotate(-0, 49.988125, 228.898446)">5</text>
     </g>
    </g>
    <g id="ytick_3">
     <g id="line2d_7"/>
     <g id="text_8">
      <text style="fill: #262626; font: 18px 'sans-serif'; text-anchor: end" x="49.988125" y="178.712143" transform="rotate(-0, 49.988125, 178.712143)">10</text>
     </g>
    </g>
    <g id="ytick_4">
     <g id="line2d_8"/>
     <g id="text_9">
      <text style="fill: #262626; font: 18px 'sans-serif'; text-anchor: end" x="49.988125" y="128.52584" transform="rotate(-0, 49.988125, 128.52584)">15</text>
     </g>
    </g>
    <g id="ytick_5">
     <g id="line2d_9"/>
     <g id="text_10">
      <text style="fill: #262626; font: 18px 'sans-serif'; text-anchor: end" x="49.988125" y="78.339537" transform="rotate(-0, 49.988125, 78.339537)">20</text>
     </g>
    </g>
    <g id="ytick_6">
     <g id="line2d_10"/>
     <g id="text_11">
      <text style="fill: #262626; font: 18px 'sans-serif'; text-anchor: end" x="49.988125" y="28.153233" transform="rotate(-0, 49.988125, 28.153233)">25</text>
     </g>
    </g>
    <g id="text_12">
     <text style="fill: #262626; font: 20px 'sans-serif'; text-anchor: middle" x="21.759375" y="143.1" transform="rotate(-90, 21.759375, 143.1)">Blood insulin (ng/dL)</text>
    </g>
   </g>
   <g id="PolyCollection_1">
    <defs>
     <path id="ma709eec0b6" d="M 73.779034 -198.195613 
L 73.779034 -161.998796 
L 209.051761 -143.864048 
L 344.324489 -167.658475 
L 479.597216 -132.556841 
L 479.597216 -249.57902 
L 479.597216 -249.57902 
L 344.324489 -292.005187 
L 209.051761 -309.375767 
L 73.779034 -198.195613 
z
" style="stroke: #029e73; stroke-opacity: 0.2"/>
    </defs>
    <g clip-path="url(#p564649e8dc)">
     <use xlink:href="#ma709eec0b6" x="0" y="328.930313" style="fill: #029e73; fill-opacity: 0.2; stroke: #029e73; stroke-opacity: 0.2"/>
    </g>
   </g>
   <g id="PolyCollection_2">
    <defs>
     <path id="mf69d33788e" d="M 73.779034 -164.936542 
L 73.779034 -136.692459 
L 209.051761 -137.26968 
L 344.324489 -152.697337 
L 479.597216 -136.679444 
L 479.597216 -205.263211 
L 479.597216 -205.263211 
L 344.324489 -228.278217 
L 209.051761 -221.190291 
L 73.779034 -164.936542 
z
" style="stroke: #cc78bc; stroke-opacity: 0.2"/>
    </defs>
    <g clip-path="url(#p564649e8dc)">
     <use xlink:href="#mf69d33788e" x="0" y="328.930313" style="fill: #cc78bc; fill-opacity: 0.2; stroke: #cc78bc; stroke-opacity: 0.2"/>
    </g>
   </g>
   <g id="PolyCollection_3">
    <defs>
     <path id="m0dbc79532a" d="M 73.779034 -101.003472 
L 73.779034 -82.200574 
L 209.051761 -86.548726 
L 344.324489 -90.911918 
L 479.597216 -63.346389 
L 479.597216 -87.233215 
L 479.597216 -87.233215 
L 344.324489 -92.693619 
L 209.051761 -98.214442 
L 73.779034 -101.003472 
z
" style="stroke: #d55e00; stroke-opacity: 0.2"/>
    </defs>
    <g clip-path="url(#p564649e8dc)">
     <use xlink:href="#m0dbc79532a" x="0" y="328.930313" style="fill: #d55e00; fill-opacity: 0.2; stroke: #d55e00; stroke-opacity: 0.2"/>
    </g>
   </g>
   <g id="PathCollection_1">
    <path d="M 479.597216 184.23597 
C 480.923231 184.23597 482.195115 183.709139 483.13275 182.771504 
C 484.070384 181.83387 484.597216 180.561986 484.597216 179.23597 
C 484.597216 177.909955 484.070384 176.638071 483.13275 175.700436 
C 482.195115 174.762802 480.923231 174.23597 479.597216 174.23597 
C 478.2712 174.23597 476.999317 174.762802 476.061682 175.700436 
C 475.124047 176.638071 474.597216 177.909955 474.597216 179.23597 
C 474.597216 180.561986 475.124047 181.83387 476.061682 182.771504 
C 476.999317 183.709139 478.2712 184.23597 479.597216 184.23597 
z
" clip-path="url(#p564649e8dc)" style="fill: #029e73; stroke: #ffffff; stroke-width: 0.8"/>
    <path d="M 209.051761 165.827634 
C 210.377777 165.827634 211.649661 165.300803 212.587295 164.363168 
C 213.52493 163.425534 214.051761 162.15365 214.051761 160.827634 
C 214.051761 159.501619 213.52493 158.229735 212.587295 157.292101 
C 211.649661 156.354466 210.377777 155.827634 209.051761 155.827634 
C 207.725746 155.827634 206.453862 156.354466 205.516227 157.292101 
C 204.578593 158.229735 204.051761 159.501619 204.051761 160.827634 
C 204.051761 162.15365 204.578593 163.425534 205.516227 164.363168 
C 206.453862 165.300803 207.725746 165.827634 209.051761 165.827634 
z
" clip-path="url(#p564649e8dc)" style="fill: #029e73; stroke: #ffffff; stroke-width: 0.8"/>
    <path d="M 479.597216 101.488794 
C 480.923231 101.488794 482.195115 100.961962 483.13275 100.024328 
C 484.070384 99.086693 484.597216 97.814809 484.597216 96.488794 
C 484.597216 95.162778 484.070384 93.890894 483.13275 92.95326 
C 482.195115 92.015625 480.923231 91.488794 479.597216 91.488794 
C 478.2712 91.488794 476.999317 92.015625 476.061682 92.95326 
C 475.124047 93.890894 474.597216 95.162778 474.597216 96.488794 
C 474.597216 97.814809 475.124047 99.086693 476.061682 100.024328 
C 476.999317 100.961962 478.2712 101.488794 479.597216 101.488794 
z
" clip-path="url(#p564649e8dc)" style="fill: #029e73; stroke: #ffffff; stroke-width: 0.8"/>
    <path d="M 73.779034 141.035601 
C 75.10505 141.035601 76.376933 140.508769 77.314568 139.571135 
C 78.252203 138.6335 78.779034 137.361616 78.779034 136.035601 
C 78.779034 134.709585 78.252203 133.437701 77.314568 132.500067 
C 76.376933 131.562432 75.10505 131.035601 73.779034 131.035601 
C 72.453019 131.035601 71.181135 131.562432 70.2435 132.500067 
C 69.305866 133.437701 68.779034 134.709585 68.779034 136.035601 
C 68.779034 137.361616 69.305866 138.6335 70.2435 139.571135 
C 71.181135 140.508769 72.453019 141.035601 73.779034 141.035601 
z
" clip-path="url(#p564649e8dc)" style="fill: #029e73; stroke: #ffffff; stroke-width: 0.8"/>
    <path d="M 73.779034 166.630615 
C 75.10505 166.630615 76.376933 166.103784 77.314568 165.166149 
C 78.252203 164.228515 78.779034 162.956631 78.779034 161.630615 
C 78.779034 160.3046 78.252203 159.032716 77.314568 158.095081 
C 76.376933 157.157447 75.10505 156.630615 73.779034 156.630615 
C 72.453019 156.630615 71.181135 157.157447 70.2435 158.095081 
C 69.305866 159.032716 68.779034 160.3046 68.779034 161.630615 
C 68.779034 162.956631 69.305866 164.228515 70.2435 165.166149 
C 71.181135 166.103784 72.453019 166.630615 73.779034 166.630615 
z
" clip-path="url(#p564649e8dc)" style="fill: #029e73; stroke: #ffffff; stroke-width: 0.8"/>
    <path d="M 209.051761 48.793176 
C 210.377777 48.793176 211.649661 48.266344 212.587295 47.328709 
C 213.52493 46.391075 214.051761 45.119191 214.051761 43.793176 
C 214.051761 42.46716 213.52493 41.195276 212.587295 40.257642 
C 211.649661 39.320007 210.377777 38.793176 209.051761 38.793176 
C 207.725746 38.793176 206.453862 39.320007 205.516227 40.257642 
C 204.578593 41.195276 204.051761 42.46716 204.051761 43.793176 
C 204.051761 45.119191 204.578593 46.391075 205.516227 47.328709 
C 206.453862 48.266344 207.725746 48.793176 209.051761 48.793176 
z
" clip-path="url(#p564649e8dc)" style="fill: #029e73; stroke: #ffffff; stroke-width: 0.8"/>
    <path d="M 344.324489 60.13528 
C 345.650504 60.13528 346.922388 59.608448 347.860023 58.670814 
C 348.797657 57.733179 349.324489 56.461296 349.324489 55.13528 
C 349.324489 53.809265 348.797657 52.537381 347.860023 51.599746 
C 346.922388 50.662112 345.650504 50.13528 344.324489 50.13528 
C 342.998473 50.13528 341.726589 50.662112 340.788955 51.599746 
C 339.85132 52.537381 339.324489 53.809265 339.324489 55.13528 
C 339.324489 56.461296 339.85132 57.733179 340.788955 58.670814 
C 341.726589 59.608448 342.998473 60.13528 344.324489 60.13528 
z
" clip-path="url(#p564649e8dc)" style="fill: #029e73; stroke: #ffffff; stroke-width: 0.8"/>
    <path d="M 344.324489 148.061683 
C 345.650504 148.061683 346.922388 147.534852 347.860023 146.597217 
C 348.797657 145.659582 349.324489 144.387699 349.324489 143.061683 
C 349.324489 141.735668 348.797657 140.463784 347.860023 139.526149 
C 346.922388 138.588515 345.650504 138.061683 344.324489 138.061683 
C 342.998473 138.061683 341.726589 138.588515 340.788955 139.526149 
C 339.85132 140.463784 339.324489 141.735668 339.324489 143.061683 
C 339.324489 144.387699 339.85132 145.659582 340.788955 146.597217 
C 341.726589 147.534852 342.998473 148.061683 344.324489 148.061683 
z
" clip-path="url(#p564649e8dc)" style="fill: #029e73; stroke: #ffffff; stroke-width: 0.8"/>
    <path d="M 73.779034 163.017201 
C 75.10505 163.017201 76.376933 162.49037 77.314568 161.552735 
C 78.252203 160.615101 78.779034 159.343217 78.779034 158.017201 
C 78.779034 156.691186 78.252203 155.419302 77.314568 154.481668 
C 76.376933 153.544033 75.10505 153.017201 73.779034 153.017201 
C 72.453019 153.017201 71.181135 153.544033 70.2435 154.481668 
C 69.305866 155.419302 68.779034 156.691186 68.779034 158.017201 
C 68.779034 159.343217 69.305866 160.615101 70.2435 161.552735 
C 71.181135 162.49037 72.453019 163.017201 73.779034 163.017201 
z
" clip-path="url(#p564649e8dc)" style="fill: #cc78bc; stroke: #ffffff; stroke-width: 0.8"/>
    <path d="M 344.324489 83.62247 
C 345.650504 83.62247 346.922388 83.095638 347.860023 82.158004 
C 348.797657 81.220369 349.324489 79.948485 349.324489 78.62247 
C 349.324489 77.296454 348.797657 76.024571 347.860023 75.086936 
C 346.922388 74.149301 345.650504 73.62247 344.324489 73.62247 
C 342.998473 73.62247 341.726589 74.149301 340.788955 75.086936 
C 339.85132 76.024571 339.324489 77.296454 339.324489 78.62247 
C 339.324489 79.948485 339.85132 81.220369 340.788955 82.158004 
C 341.726589 83.095638 342.998473 83.62247 344.324489 83.62247 
z
" clip-path="url(#p564649e8dc)" style="fill: #cc78bc; stroke: #ffffff; stroke-width: 0.8"/>
    <path d="M 344.324489 161.611985 
C 345.650504 161.611985 346.922388 161.085153 347.860023 160.147519 
C 348.797657 159.209884 349.324489 157.938 349.324489 156.611985 
C 349.324489 155.285969 348.797657 154.014086 347.860023 153.076451 
C 346.922388 152.138816 345.650504 151.611985 344.324489 151.611985 
C 342.998473 151.611985 341.726589 152.138816 340.788955 153.076451 
C 339.85132 154.014086 339.324489 155.285969 339.324489 156.611985 
C 339.324489 157.938 339.85132 159.209884 340.788955 160.147519 
C 341.726589 161.085153 342.998473 161.611985 344.324489 161.611985 
z
" clip-path="url(#p564649e8dc)" style="fill: #cc78bc; stroke: #ffffff; stroke-width: 0.8"/>
    <path d="M 344.324489 140.834855 
C 345.650504 140.834855 346.922388 140.308024 347.860023 139.370389 
C 348.797657 138.432755 349.324489 137.160871 349.324489 135.834855 
C 349.324489 134.50884 348.797657 133.236956 347.860023 132.299322 
C 346.922388 131.361687 345.650504 130.834855 344.324489 130.834855 
C 342.998473 130.834855 341.726589 131.361687 340.788955 132.299322 
C 339.85132 133.236956 339.324489 134.50884 339.324489 135.834855 
C 339.324489 137.160871 339.85132 138.432755 340.788955 139.370389 
C 341.726589 140.308024 342.998473 140.834855 344.324489 140.834855 
z
" clip-path="url(#p564649e8dc)" style="fill: #cc78bc; stroke: #ffffff; stroke-width: 0.8"/>
    <path d="M 479.597216 164.422418 
C 480.923231 164.422418 482.195115 163.895586 483.13275 162.957952 
C 484.070384 162.020317 484.597216 160.748433 484.597216 159.422418 
C 484.597216 158.096402 484.070384 156.824519 483.13275 155.886884 
C 482.195115 154.949249 480.923231 154.422418 479.597216 154.422418 
C 478.2712 154.422418 476.999317 154.949249 476.061682 155.886884 
C 475.124047 156.824519 474.597216 158.096402 474.597216 159.422418 
C 474.597216 160.748433 475.124047 162.020317 476.061682 162.957952 
C 476.999317 163.895586 478.2712 164.422418 479.597216 164.422418 
z
" clip-path="url(#p564649e8dc)" style="fill: #cc78bc; stroke: #ffffff; stroke-width: 0.8"/>
    <path d="M 344.324489 185.791746 
C 345.650504 185.791746 346.922388 185.264914 347.860023 184.32728 
C 348.797657 183.389645 349.324489 182.117761 349.324489 180.791746 
C 349.324489 179.46573 348.797657 178.193846 347.860023 177.256212 
C 346.922388 176.318577 345.650504 175.791746 344.324489 175.791746 
C 342.998473 175.791746 341.726589 176.318577 340.788955 177.256212 
C 339.85132 178.193846 339.324489 179.46573 339.324489 180.791746 
C 339.324489 182.117761 339.85132 183.389645 340.788955 184.32728 
C 341.726589 185.264914 342.998473 185.791746 344.324489 185.791746 
z
" clip-path="url(#p564649e8dc)" style="fill: #cc78bc; stroke: #ffffff; stroke-width: 0.8"/>
    <path d="M 209.051761 223.110281 
C 210.377777 223.110281 211.649661 222.583449 212.587295 221.645815 
C 213.52493 220.70818 214.051761 219.436296 214.051761 218.110281 
C 214.051761 216.784265 213.52493 215.512381 212.587295 214.574747 
C 211.649661 213.637112 210.377777 213.110281 209.051761 213.110281 
C 207.725746 213.110281 206.453862 213.637112 205.516227 214.574747 
C 204.578593 215.512381 204.051761 216.784265 204.051761 218.110281 
C 204.051761 219.436296 204.578593 220.70818 205.516227 221.645815 
C 206.453862 222.583449 207.725746 223.110281 209.051761 223.110281 
z
" clip-path="url(#p564649e8dc)" style="fill: #cc78bc; stroke: #ffffff; stroke-width: 0.8"/>
    <path d="M 479.597216 182.790605 
C 480.923231 182.790605 482.195115 182.263773 483.13275 181.326139 
C 484.070384 180.388504 484.597216 179.11662 484.597216 177.790605 
C 484.597216 176.464589 484.070384 175.192706 483.13275 174.255071 
C 482.195115 173.317436 480.923231 172.790605 479.597216 172.790605 
C 478.2712 172.790605 476.999317 173.317436 476.061682 174.255071 
C 475.124047 175.192706 474.597216 176.464589 474.597216 177.790605 
C 474.597216 179.11662 475.124047 180.388504 476.061682 181.326139 
C 476.999317 182.263773 478.2712 182.790605 479.597216 182.790605 
z
" clip-path="url(#p564649e8dc)" style="fill: #cc78bc; stroke: #ffffff; stroke-width: 0.8"/>
    <path d="M 479.597216 133.7084 
C 480.923231 133.7084 482.195115 133.181569 483.13275 132.243934 
C 484.070384 131.3063 484.597216 130.034416 484.597216 128.7084 
C 484.597216 127.382385 484.070384 126.110501 483.13275 125.172867 
C 482.195115 124.235232 480.923231 123.7084 479.597216 123.7084 
C 478.2712 123.7084 476.999317 124.235232 476.061682 125.172867 
C 475.124047 126.110501 474.597216 127.382385 474.597216 128.7084 
C 474.597216 130.034416 475.124047 131.3063 476.061682 132.243934 
C 476.999317 133.181569 478.2712 133.7084 479.597216 133.7084 
z
" clip-path="url(#p564649e8dc)" style="fill: #cc78bc; stroke: #ffffff; stroke-width: 0.8"/>
    <path d="M 479.597216 125.578219 
C 480.923231 125.578219 482.195115 125.051388 483.13275 124.113753 
C 484.070384 123.176119 484.597216 121.904235 484.597216 120.578219 
C 484.597216 119.252204 484.070384 117.98032 483.13275 117.042685 
C 482.195115 116.105051 480.923231 115.578219 479.597216 115.578219 
C 478.2712 115.578219 476.999317 116.105051 476.061682 117.042685 
C 475.124047 117.98032 474.597216 119.252204 474.597216 120.578219 
C 474.597216 121.904235 475.124047 123.176119 476.061682 124.113753 
C 476.999317 125.051388 478.2712 125.578219 479.597216 125.578219 
z
" clip-path="url(#p564649e8dc)" style="fill: #cc78bc; stroke: #ffffff; stroke-width: 0.8"/>
    <path d="M 73.779034 173.556325 
C 75.10505 173.556325 76.376933 173.029494 77.314568 172.091859 
C 78.252203 171.154224 78.779034 169.882341 78.779034 168.556325 
C 78.779034 167.23031 78.252203 165.958426 77.314568 165.020791 
C 76.376933 164.083157 75.10505 163.556325 73.779034 163.556325 
C 72.453019 163.556325 71.181135 164.083157 70.2435 165.020791 
C 69.305866 165.958426 68.779034 167.23031 68.779034 168.556325 
C 68.779034 169.882341 69.305866 171.154224 70.2435 172.091859 
C 71.181135 173.029494 72.453019 173.556325 73.779034 173.556325 
z
" clip-path="url(#p564649e8dc)" style="fill: #cc78bc; stroke: #ffffff; stroke-width: 0.8"/>
    <path d="M 344.324489 145.351623 
C 345.650504 145.351623 346.922388 144.824791 347.860023 143.887157 
C 348.797657 142.949522 349.324489 141.677638 349.324489 140.351623 
C 349.324489 139.025607 348.797657 137.753723 347.860023 136.816089 
C 346.922388 135.878454 345.650504 135.351623 344.324489 135.351623 
C 342.998473 135.351623 341.726589 135.878454 340.788955 136.816089 
C 339.85132 137.753723 339.324489 139.025607 339.324489 140.351623 
C 339.324489 141.677638 339.85132 142.949522 340.788955 143.887157 
C 341.726589 144.824791 342.998473 145.351623 344.324489 145.351623 
z
" clip-path="url(#p564649e8dc)" style="fill: #cc78bc; stroke: #ffffff; stroke-width: 0.8"/>
    <path d="M 73.779034 191.583245 
C 75.10505 191.583245 76.376933 191.056414 77.314568 190.118779 
C 78.252203 189.181145 78.779034 187.909261 78.779034 186.583245 
C 78.779034 185.25723 78.252203 183.985346 77.314568 183.047711 
C 76.376933 182.110077 75.10505 181.583245 73.779034 181.583245 
C 72.453019 181.583245 71.181135 182.110077 70.2435 183.047711 
C 69.305866 183.985346 68.779034 185.25723 68.779034 186.583245 
C 68.779034 187.909261 69.305866 189.181145 70.2435 190.118779 
C 71.181135 191.056414 72.453019 191.583245 73.779034 191.583245 
z
" clip-path="url(#p564649e8dc)" style="fill: #cc78bc; stroke: #ffffff; stroke-width: 0.8"/>
    <path d="M 209.051761 149.567272 
C 210.377777 149.567272 211.649661 149.040441 212.587295 148.102806 
C 213.52493 147.165172 214.051761 145.893288 214.051761 144.567272 
C 214.051761 143.241257 213.52493 141.969373 212.587295 141.031738 
C 211.649661 140.094104 210.377777 139.567272 209.051761 139.567272 
C 207.725746 139.567272 206.453862 140.094104 205.516227 141.031738 
C 204.578593 141.969373 204.051761 143.241257 204.051761 144.567272 
C 204.051761 145.893288 204.578593 147.165172 205.516227 148.102806 
C 206.453862 149.040441 207.725746 149.567272 209.051761 149.567272 
z
" clip-path="url(#p564649e8dc)" style="fill: #cc78bc; stroke: #ffffff; stroke-width: 0.8"/>
    <path d="M 73.779034 195.467665 
C 75.10505 195.467665 76.376933 194.940833 77.314568 194.003199 
C 78.252203 193.065564 78.779034 191.793681 78.779034 190.467665 
C 78.779034 189.14165 78.252203 187.869766 77.314568 186.932131 
C 76.376933 185.994497 75.10505 185.467665 73.779034 185.467665 
C 72.453019 185.467665 71.181135 185.994497 70.2435 186.932131 
C 69.305866 187.869766 68.779034 189.14165 68.779034 190.467665 
C 68.779034 191.793681 69.305866 193.065564 70.2435 194.003199 
C 71.181135 194.940833 72.453019 195.467665 73.779034 195.467665 
z
" clip-path="url(#p564649e8dc)" style="fill: #cc78bc; stroke: #ffffff; stroke-width: 0.8"/>
    <path d="M 73.779034 191.954624 
C 75.10505 191.954624 76.376933 191.427792 77.314568 190.490158 
C 78.252203 189.552523 78.779034 188.280639 78.779034 186.954624 
C 78.779034 185.628608 78.252203 184.356724 77.314568 183.41909 
C 76.376933 182.481455 75.10505 181.954624 73.779034 181.954624 
C 72.453019 181.954624 71.181135 182.481455 70.2435 183.41909 
C 69.305866 184.356724 68.779034 185.628608 68.779034 186.954624 
C 68.779034 188.280639 69.305866 189.552523 70.2435 190.490158 
C 71.181135 191.427792 72.453019 191.954624 73.779034 191.954624 
z
" clip-path="url(#p564649e8dc)" style="fill: #cc78bc; stroke: #ffffff; stroke-width: 0.8"/>
    <path d="M 209.051761 110.120838 
C 210.377777 110.120838 211.649661 109.594006 212.587295 108.656372 
C 213.52493 107.718737 214.051761 106.446853 214.051761 105.120838 
C 214.051761 103.794822 213.52493 102.522939 212.587295 101.585304 
C 211.649661 100.647669 210.377777 100.120838 209.051761 100.120838 
C 207.725746 100.120838 206.453862 100.647669 205.516227 101.585304 
C 204.578593 102.522939 204.051761 103.794822 204.051761 105.120838 
C 204.051761 106.446853 204.578593 107.718737 205.516227 108.656372 
C 206.453862 109.594006 207.725746 110.120838 209.051761 110.120838 
z
" clip-path="url(#p564649e8dc)" style="fill: #cc78bc; stroke: #ffffff; stroke-width: 0.8"/>
    <path d="M 209.051761 154.686275 
C 210.377777 154.686275 211.649661 154.159444 212.587295 153.221809 
C 213.52493 152.284174 214.051761 151.012291 214.051761 149.686275 
C 214.051761 148.36026 213.52493 147.088376 212.587295 146.150741 
C 211.649661 145.213107 210.377777 144.686275 209.051761 144.686275 
C 207.725746 144.686275 206.453862 145.213107 205.516227 146.150741 
C 204.578593 147.088376 204.051761 148.36026 204.051761 149.686275 
C 204.051761 151.012291 204.578593 152.284174 205.516227 153.221809 
C 206.453862 154.159444 207.725746 154.686275 209.051761 154.686275 
z
" clip-path="url(#p564649e8dc)" style="fill: #cc78bc; stroke: #ffffff; stroke-width: 0.8"/>
    <path d="M 479.597216 208.295284 
C 480.923231 208.295284 482.195115 207.768453 483.13275 206.830818 
C 484.070384 205.893183 484.597216 204.6213 484.597216 203.295284 
C 484.597216 201.969269 484.070384 200.697385 483.13275 199.75975 
C 482.195115 198.822116 480.923231 198.295284 479.597216 198.295284 
C 478.2712 198.295284 476.999317 198.822116 476.061682 199.75975 
C 475.124047 200.697385 474.597216 201.969269 474.597216 203.295284 
C 474.597216 204.6213 475.124047 205.893183 476.061682 206.830818 
C 476.999317 207.768453 478.2712 208.295284 479.597216 208.295284 
z
" clip-path="url(#p564649e8dc)" style="fill: #cc78bc; stroke: #ffffff; stroke-width: 0.8"/>
    <path d="M 209.051761 136.01697 
C 210.377777 136.01697 211.649661 135.490139 212.587295 134.552504 
C 213.52493 133.61487 214.051761 132.342986 214.051761 131.01697 
C 214.051761 129.690955 213.52493 128.419071 212.587295 127.481436 
C 211.649661 126.543802 210.377777 126.01697 209.051761 126.01697 
C 207.725746 126.01697 206.453862 126.543802 205.516227 127.481436 
C 204.578593 128.419071 204.051761 129.690955 204.051761 131.01697 
C 204.051761 132.342986 204.578593 133.61487 205.516227 134.552504 
C 206.453862 135.490139 207.725746 136.01697 209.051761 136.01697 
z
" clip-path="url(#p564649e8dc)" style="fill: #cc78bc; stroke: #ffffff; stroke-width: 0.8"/>
    <path d="M 344.324489 242.381821 
C 345.650504 242.381821 346.922388 241.85499 347.860023 240.917355 
C 348.797657 239.979721 349.324489 238.707837 349.324489 237.381821 
C 349.324489 236.055806 348.797657 234.783922 347.860023 233.846287 
C 346.922388 232.908653 345.650504 232.381821 344.324489 232.381821 
C 342.998473 232.381821 341.726589 232.908653 340.788955 233.846287 
C 339.85132 234.783922 339.324489 236.055806 339.324489 237.381821 
C 339.324489 238.707837 339.85132 239.979721 340.788955 240.917355 
C 341.726589 241.85499 342.998473 242.381821 344.324489 242.381821 
z
" clip-path="url(#p564649e8dc)" style="fill: #d55e00; stroke: #ffffff; stroke-width: 0.8"/>
    <path d="M 209.051761 240.534965 
C 210.377777 240.534965 211.649661 240.008134 212.587295 239.070499 
C 213.52493 238.132865 214.051761 236.860981 214.051761 235.534965 
C 214.051761 234.20895 213.52493 232.937066 212.587295 231.999431 
C 211.649661 231.061797 210.377777 230.534965 209.051761 230.534965 
C 207.725746 230.534965 206.453862 231.061797 205.516227 231.999431 
C 204.578593 232.937066 204.051761 234.20895 204.051761 235.534965 
C 204.051761 236.860981 204.578593 238.132865 205.516227 239.070499 
C 206.453862 240.008134 207.725746 240.534965 209.051761 240.534965 
z
" clip-path="url(#p564649e8dc)" style="fill: #d55e00; stroke: #ffffff; stroke-width: 0.8"/>
    <path d="M 344.324489 242.86361 
C 345.650504 242.86361 346.922388 242.336778 347.860023 241.399144 
C 348.797657 240.461509 349.324489 239.189625 349.324489 237.86361 
C 349.324489 236.537594 348.797657 235.26571 347.860023 234.328076 
C 346.922388 233.390441 345.650504 232.86361 344.324489 232.86361 
C 342.998473 232.86361 341.726589 233.390441 340.788955 234.328076 
C 339.85132 235.26571 339.324489 236.537594 339.324489 237.86361 
C 339.324489 239.189625 339.85132 240.461509 340.788955 241.399144 
C 341.726589 242.336778 342.998473 242.86361 344.324489 242.86361 
z
" clip-path="url(#p564649e8dc)" style="fill: #d55e00; stroke: #ffffff; stroke-width: 0.8"/>
    <path d="M 73.779034 246.30639 
C 75.10505 246.30639 76.376933 245.779559 77.314568 244.841924 
C 78.252203 243.904289 78.779034 242.632406 78.779034 241.30639 
C 78.779034 239.980375 78.252203 238.708491 77.314568 237.770856 
C 76.376933 236.833222 75.10505 236.30639 73.779034 236.30639 
C 72.453019 236.30639 71.181135 236.833222 70.2435 237.770856 
C 69.305866 238.708491 68.779034 239.980375 68.779034 241.30639 
C 68.779034 242.632406 69.305866 243.904289 70.2435 244.841924 
C 71.181135 245.779559 72.453019 246.30639 73.779034 246.30639 
z
" clip-path="url(#p564649e8dc)" style="fill: #d55e00; stroke: #ffffff; stroke-width: 0.8"/>
    <path d="M 344.324489 241.137201 
C 345.650504 241.137201 346.922388 240.610369 347.860023 239.672735 
C 348.797657 238.7351 349.324489 237.463216 349.324489 236.137201 
C 349.324489 234.811185 348.797657 233.539302 347.860023 232.601667 
C 346.922388 231.664032 345.650504 231.137201 344.324489 231.137201 
C 342.998473 231.137201 341.726589 231.664032 340.788955 232.601667 
C 339.85132 233.539302 339.324489 234.811185 339.324489 236.137201 
C 339.324489 237.463216 339.85132 238.7351 340.788955 239.672735 
C 341.726589 240.610369 342.998473 241.137201 344.324489 241.137201 
z
" clip-path="url(#p564649e8dc)" style="fill: #d55e00; stroke: #ffffff; stroke-width: 0.8"/>
    <path d="M 479.597216 248.163283 
C 480.923231 248.163283 482.195115 247.636452 483.13275 246.698817 
C 484.070384 245.761183 484.597216 244.489299 484.597216 243.163283 
C 484.597216 241.837268 484.070384 240.565384 483.13275 239.627749 
C 482.195115 238.690115 480.923231 238.163283 479.597216 238.163283 
C 478.2712 238.163283 476.999317 238.690115 476.061682 239.627749 
C 475.124047 240.565384 474.597216 241.837268 474.597216 243.163283 
C 474.597216 244.489299 475.124047 245.761183 476.061682 246.698817 
C 476.999317 247.636452 478.2712 248.163283 479.597216 248.163283 
z
" clip-path="url(#p564649e8dc)" style="fill: #d55e00; stroke: #ffffff; stroke-width: 0.8"/>
    <path d="M 479.597216 256.112794 
C 480.923231 256.112794 482.195115 255.585962 483.13275 254.648328 
C 484.070384 253.710693 484.597216 252.438809 484.597216 251.112794 
C 484.597216 249.786778 484.070384 248.514894 483.13275 247.57726 
C 482.195115 246.639625 480.923231 246.112794 479.597216 246.112794 
C 478.2712 246.112794 476.999317 246.639625 476.061682 247.57726 
C 475.124047 248.514894 474.597216 249.786778 474.597216 251.112794 
C 474.597216 252.438809 475.124047 253.710693 476.061682 254.648328 
C 476.999317 255.585962 478.2712 256.112794 479.597216 256.112794 
z
" clip-path="url(#p564649e8dc)" style="fill: #d55e00; stroke: #ffffff; stroke-width: 0.8"/>
    <path d="M 73.779034 231.591766 
C 75.10505 231.591766 76.376933 231.064934 77.314568 230.1273 
C 78.252203 229.189665 78.779034 227.917782 78.779034 226.591766 
C 78.779034 225.265751 78.252203 223.993867 77.314568 223.056232 
C 76.376933 222.118598 75.10505 221.591766 73.779034 221.591766 
C 72.453019 221.591766 71.181135 222.118598 70.2435 223.056232 
C 69.305866 223.993867 68.779034 225.265751 68.779034 226.591766 
C 68.779034 227.917782 69.305866 229.189665 70.2435 230.1273 
C 71.181135 231.064934 72.453019 231.591766 73.779034 231.591766 
z
" clip-path="url(#p564649e8dc)" style="fill: #d55e00; stroke: #ffffff; stroke-width: 0.8"/>
    <path d="M 73.779034 249.086711 
C 75.10505 249.086711 76.376933 248.55988 77.314568 247.622245 
C 78.252203 246.684611 78.779034 245.412727 78.779034 244.086711 
C 78.779034 242.760696 78.252203 241.488812 77.314568 240.551177 
C 76.376933 239.613543 75.10505 239.086711 73.779034 239.086711 
C 72.453019 239.086711 71.181135 239.613543 70.2435 240.551177 
C 69.305866 241.488812 68.779034 242.760696 68.779034 244.086711 
C 68.779034 245.412727 69.305866 246.684611 70.2435 247.622245 
C 71.181135 248.55988 72.453019 249.086711 73.779034 249.086711 
z
" clip-path="url(#p564649e8dc)" style="fill: #d55e00; stroke: #ffffff; stroke-width: 0.8"/>
    <path d="M 209.051761 247.822016 
C 210.377777 247.822016 211.649661 247.295185 212.587295 246.35755 
C 213.52493 245.419916 214.051761 244.148032 214.051761 242.822016 
C 214.051761 241.496001 213.52493 240.224117 212.587295 239.286483 
C 211.649661 238.348848 210.377777 237.822016 209.051761 237.822016 
C 207.725746 237.822016 206.453862 238.348848 205.516227 239.286483 
C 204.578593 240.224117 204.051761 241.496001 204.051761 242.822016 
C 204.051761 244.148032 204.578593 245.419916 205.516227 246.35755 
C 206.453862 247.295185 207.725746 247.822016 209.051761 247.822016 
z
" clip-path="url(#p564649e8dc)" style="fill: #d55e00; stroke: #ffffff; stroke-width: 0.8"/>
    <path d="M 479.597216 271.645455 
C 480.923231 271.645455 482.195115 271.118623 483.13275 270.180988 
C 484.070384 269.243354 484.597216 267.97147 484.597216 266.645455 
C 484.597216 265.319439 484.070384 264.047555 483.13275 263.109921 
C 482.195115 262.172286 480.923231 261.645455 479.597216 261.645455 
C 478.2712 261.645455 476.999317 262.172286 476.061682 263.109921 
C 475.124047 264.047555 474.597216 265.319439 474.597216 266.645455 
C 474.597216 267.97147 475.124047 269.243354 476.061682 270.180988 
C 476.999317 271.118623 478.2712 271.645455 479.597216 271.645455 
z
" clip-path="url(#p564649e8dc)" style="fill: #d55e00; stroke: #ffffff; stroke-width: 0.8"/>
    <path d="M 209.051761 236.289204 
C 210.377777 236.289204 211.649661 235.762372 212.587295 234.824738 
C 213.52493 233.887103 214.051761 232.615219 214.051761 231.289204 
C 214.051761 229.963188 213.52493 228.691305 212.587295 227.75367 
C 211.649661 226.816036 210.377777 226.289204 209.051761 226.289204 
C 207.725746 226.289204 206.453862 226.816036 205.516227 227.75367 
C 204.578593 228.691305 204.051761 229.963188 204.051761 231.289204 
C 204.051761 232.615219 204.578593 233.887103 205.516227 234.824738 
C 206.453862 235.762372 207.725746 236.289204 209.051761 236.289204 
z
" clip-path="url(#p564649e8dc)" style="fill: #d55e00; stroke: #ffffff; stroke-width: 0.8"/>
   </g>
   <g id="line2d_11">
    <path d="M 73.779034 148.833108 
L 209.051761 102.310405 
L 344.324489 99.098482 
L 479.597216 137.862382 
" clip-path="url(#p564649e8dc)" style="fill: none; stroke: #029e73; stroke-width: 1.5; stroke-linecap: round"/>
   </g>
   <g id="line2d_12">
    <path d="M 73.779034 178.115812 
L 209.051761 149.700327 
L 344.324489 138.442536 
L 479.597216 157.958985 
" clip-path="url(#p564649e8dc)" style="fill: none; stroke: #cc78bc; stroke-width: 1.5; stroke-linecap: round"/>
   </g>
   <g id="line2d_13">
    <path d="M 73.779034 237.328289 
L 209.051761 236.548729 
L 344.324489 237.127544 
L 479.597216 253.640511 
" clip-path="url(#p564649e8dc)" style="fill: none; stroke: #d55e00; stroke-width: 1.5; stroke-linecap: round"/>
   </g>
   <g id="patch_3">
    <path d="M 53.488125 279 
L 53.488125 7.2 
" style="fill: none; stroke: #262626; stroke-width: 1.25; stroke-linejoin: miter; stroke-linecap: square"/>
   </g>
   <g id="patch_4">
    <path d="M 53.488125 279 
L 499.888125 279 
" style="fill: none; stroke: #262626; stroke-width: 1.25; stroke-linejoin: miter; stroke-linecap: square"/>
   </g>
  </g>
 </g>
 <defs>
  <clipPath id="p564649e8dc">
   <rect x="53.488125" y="7.2" width="446.4" height="271.8"/>
  </clipPath>
 </defs>
</svg>
