<?xml version="1.0" encoding="utf-8" standalone="no"?>
<!DOCTYPE svg PUBLIC "-//W3C//DTD SVG 1.1//EN"
  "http://www.w3.org/Graphics/SVG/1.1/DTD/svg11.dtd">
<svg xmlns:xlink="http://www.w3.org/1999/xlink" width="517.097812pt" height="328.930313pt" viewBox="0 0 517.097812 328.930313" xmlns="http://www.w3.org/2000/svg" version="1.1">
 <metadata>
  <rdf:RDF xmlns:dc="http://purl.org/dc/elements/1.1/" xmlns:cc="http://creativecommons.org/ns#" xmlns:rdf="http://www.w3.org/1999/02/22-rdf-syntax-ns#">
   <cc:Work>
    <dc:type rdf:resource="http://purl.org/dc/dcmitype/StillImage"/>
    <dc:date>2022-06-10T18:48:56.941592</dc:date>
    <dc:format>image/svg+xml</dc:format>
    <dc:creator>
     <cc:Agent>
      <dc:title>Matplotlib v3.5.2, https://matplotlib.org/</dc:title>
     </cc:Agent>
    </dc:creator>
   </cc:Work>
  </rdf:RDF>
 </metadata>
 <defs>
  <style type="text/css">*{stroke-linejoin: round; stroke-linecap: butt}</style>
 </defs>
 <g id="figure_1">
  <g id="patch_1">
   <path d="M 0 328.930313 
L 517.097812 328.930313 
L 517.097812 0 
L 0 0 
z
" style="fill: #ffffff"/>
  </g>
  <g id="axes_1">
   <g id="patch_2">
    <path d="M 63.497813 279 
L 509.897812 279 
L 509.897812 7.2 
L 63.497813 7.2 
z
" style="fill: #ffffff"/>
   </g>
   <g id="matplotlib.axis_1">
    <g id="xtick_1">
     <g id="line2d_1"/>
     <g id="text_1">
      <text style="fill: #262626; font: 18px 'sans-serif'; text-anchor: middle" x="151.425085" y="295.384063" transform="rotate(-0, 151.425085, 295.384063)">20</text>
     </g>
    </g>
    <g id="xtick_2">
     <g id="line2d_2"/>
     <g id="text_2">
      <text style="fill: #262626; font: 18px 'sans-serif'; text-anchor: middle" x="83.788722" y="295.384063" transform="rotate(-0, 83.788722, 295.384063)">0</text>
     </g>
    </g>
    <g id="xtick_3">
     <g id="line2d_3"/>
     <g id="text_3">
      <text style="fill: #262626; font: 18px 'sans-serif'; text-anchor: middle" x="117.606903" y="295.384063" transform="rotate(-0, 117.606903, 295.384063)">10</text>
     </g>
    </g>
    <g id="xtick_4">
     <g id="line2d_4"/>
     <g id="text_4">
      <text style="fill: #262626; font: 18px 'sans-serif'; text-anchor: middle" x="185.243267" y="295.384063" transform="rotate(-0, 185.243267, 295.384063)">30</text>
     </g>
    </g>
    <g id="xtick_5">
     <g id="line2d_5"/>
     <g id="text_5">
      <text style="fill: #262626; font: 18px 'sans-serif'; text-anchor: middle" x="286.697812" y="295.384063" transform="rotate(-0, 286.697812, 295.384063)">60</text>
     </g>
    </g>
    <g id="xtick_6">
     <g id="line2d_6"/>
     <g id="text_6">
      <text style="fill: #262626; font: 18px 'sans-serif'; text-anchor: middle" x="489.606903" y="295.384063" transform="rotate(-0, 489.606903, 295.384063)">120</text>
     </g>
    </g>
    <g id="text_7">
     <text style="fill: #262626; font: 20px 'sans-serif'; text-anchor: middle" x="286.697812" y="317.520938" transform="rotate(-0, 286.697812, 317.520938)">Time (min)</text>
    </g>
   </g>
   <g id="matplotlib.axis_2">
    <g id="ytick_1">
     <g id="line2d_7"/>
     <g id="text_8">
      <text style="fill: #262626; font: 18px 'sans-serif'; text-anchor: end" x="59.997813" y="246.045047" transform="rotate(-0, 59.997813, 246.045047)">100</text>
     </g>
    </g>
    <g id="ytick_2">
     <g id="line2d_8"/>
     <g id="text_9">
      <text style="fill: #262626; font: 18px 'sans-serif'; text-anchor: end" x="59.997813" y="202.073602" transform="rotate(-0, 59.997813, 202.073602)">200</text>
     </g>
    </g>
    <g id="ytick_3">
     <g id="line2d_9"/>
     <g id="text_10">
      <text style="fill: #262626; font: 18px 'sans-serif'; text-anchor: end" x="59.997813" y="158.102157" transform="rotate(-0, 59.997813, 158.102157)">300</text>
     </g>
    </g>
    <g id="ytick_4">
     <g id="line2d_10"/>
     <g id="text_11">
      <text style="fill: #262626; font: 18px 'sans-serif'; text-anchor: end" x="59.997813" y="114.130712" transform="rotate(-0, 59.997813, 114.130712)">400</text>
     </g>
    </g>
    <g id="ytick_5">
     <g id="line2d_11"/>
     <g id="text_12">
      <text style="fill: #262626; font: 18px 'sans-serif'; text-anchor: end" x="59.997813" y="70.159267" transform="rotate(-0, 59.997813, 70.159267)">500</text>
     </g>
    </g>
    <g id="ytick_6">
     <g id="line2d_12"/>
     <g id="text_13">
      <text style="fill: #262626; font: 18px 'sans-serif'; text-anchor: end" x="59.997813" y="26.187822" transform="rotate(-0, 59.997813, 26.187822)">600</text>
     </g>
    </g>
    <g id="text_14">
     <text style="fill: #262626; font: 20px 'sans-serif'; text-anchor: middle" x="21.759375" y="143.1" transform="rotate(-90, 21.759375, 143.1)">Blood glucose (mg/dL)</text>
    </g>
   </g>
   <g id="PolyCollection_1">
    <defs>
     <path id="m136a4ba708" d="M 83.788722 -79.018785 
L 83.788722 -65.338082 
L 117.606903 -103.690779 
L 151.425085 -132.18249 
L 185.243267 -131.306853 
L 286.697812 -121.492512 
L 489.606903 -74.171433 
L 489.606903 -80.079009 
L 489.606903 -80.079009 
L 286.697812 -187.097702 
L 185.243267 -168.928786 
L 151.425085 -144.308568 
L 117.606903 -124.211833 
L 83.788722 -79.018785 
z
" style="stroke: #029e73; stroke-opacity: 0.2"/>
    </defs>
    <g clip-path="url(#p8c182b6695)">
     <use xlink:href="#m136a4ba708" x="0" y="328.930313" style="fill: #029e73; fill-opacity: 0.2; stroke: #029e73; stroke-opacity: 0.2"/>
    </g>
   </g>
   <g id="PolyCollection_2">
    <defs>
     <path id="m5eaf92fa49" d="M 83.788722 -72.241346 
L 83.788722 -64.464489 
L 117.606903 -120.137143 
L 151.425085 -165.793894 
L 185.243267 -194.559603 
L 286.697812 -231.098708 
L 489.606903 -86.748546 
L 489.606903 -154.433442 
L 489.606903 -154.433442 
L 286.697812 -296.68916 
L 185.243267 -268.414354 
L 151.425085 -230.519353 
L 117.606903 -142.854682 
L 83.788722 -72.241346 
z
" style="stroke: #cc78bc; stroke-opacity: 0.2"/>
    </defs>
    <g clip-path="url(#p8c182b6695)">
     <use xlink:href="#m5eaf92fa49" x="0" y="328.930313" style="fill: #cc78bc; fill-opacity: 0.2; stroke: #cc78bc; stroke-opacity: 0.2"/>
    </g>
   </g>
   <g id="PolyCollection_3">
    <defs>
     <path id="m571db4e906" d="M 83.788722 -103.108694 
L 83.788722 -65.139324 
L 117.606903 -135.922392 
L 151.425085 -263.467996 
L 185.243267 -300.107211 
L 286.697812 -296.827844 
L 489.606903 -175.690666 
L 489.606903 -221.062295 
L 489.606903 -221.062295 
L 286.697812 -309.375767 
L 185.243267 -308.588116 
L 151.425085 -305.946172 
L 117.606903 -197.218545 
L 83.788722 -103.108694 
z
" style="stroke: #d55e00; stroke-opacity: 0.2"/>
    </defs>
    <g clip-path="url(#p8c182b6695)">
     <use xlink:href="#m571db4e906" x="0" y="328.930313" style="fill: #d55e00; fill-opacity: 0.2; stroke: #d55e00; stroke-opacity: 0.2"/>
    </g>
   </g>
   <g id="PathCollection_1">
    <path d="M 151.425085 191.397567 
C 152.751101 191.397567 154.022985 190.870736 154.960619 189.933101 
C 155.898254 188.995467 156.425085 187.723583 156.425085 186.397567 
C 156.425085 185.071552 155.898254 183.799668 154.960619 182.862033 
C 154.022985 181.924399 152.751101 181.397567 151.425085 181.397567 
C 150.09907 181.397567 148.827186 181.924399 147.889551 182.862033 
C 146.951917 183.799668 146.425085 185.071552 146.425085 186.397567 
C 146.425085 187.723583 146.951917 188.995467 147.889551 189.933101 
C 148.827186 190.870736 150.09907 191.397567 151.425085 191.397567 
z
" clip-path="url(#p8c182b6695)" style="fill: #029e73; stroke: #ffffff; stroke-width: 0.8"/>
    <path d="M 83.788722 266.588738 
C 85.114737 266.588738 86.386621 266.061907 87.324255 265.124272 
C 88.26189 264.186638 88.788722 262.914754 88.788722 261.588738 
C 88.788722 260.262723 88.26189 258.990839 87.324255 258.053204 
C 86.386621 257.11557 85.114737 256.588738 83.788722 256.588738 
C 82.462706 256.588738 81.190822 257.11557 80.253188 258.053204 
C 79.315553 258.990839 78.788722 260.262723 78.788722 261.588738 
C 78.788722 262.914754 79.315553 264.186638 80.253188 265.124272 
C 81.190822 266.061907 82.462706 266.588738 83.788722 266.588738 
z
" clip-path="url(#p8c182b6695)" style="fill: #029e73; stroke: #ffffff; stroke-width: 0.8"/>
    <path d="M 117.606903 212.723718 
C 118.932919 212.723718 120.204803 212.196887 121.142437 211.259252 
C 122.080072 210.321617 122.606903 209.049734 122.606903 207.723718 
C 122.606903 206.397703 122.080072 205.125819 121.142437 204.188184 
C 120.204803 203.25055 118.932919 202.723718 117.606903 202.723718 
C 116.280888 202.723718 115.009004 203.25055 114.07137 204.188184 
C 113.133735 205.125819 112.606903 206.397703 112.606903 207.723718 
C 112.606903 209.049734 113.133735 210.321617 114.07137 211.259252 
C 115.009004 212.196887 116.280888 212.723718 117.606903 212.723718 
z
" clip-path="url(#p8c182b6695)" style="fill: #029e73; stroke: #ffffff; stroke-width: 0.8"/>
    <path d="M 185.243267 170.511131 
C 186.569283 170.511131 187.841166 169.984299 188.778801 169.046665 
C 189.716436 168.10903 190.243267 166.837146 190.243267 165.511131 
C 190.243267 164.185115 189.716436 162.913231 188.778801 161.975597 
C 187.841166 161.037962 186.569283 160.511131 185.243267 160.511131 
C 183.917252 160.511131 182.645368 161.037962 181.707733 161.975597 
C 180.770099 162.913231 180.243267 164.185115 180.243267 165.511131 
C 180.243267 166.837146 180.770099 168.10903 181.707733 169.046665 
C 182.645368 169.984299 183.917252 170.511131 185.243267 170.511131 
z
" clip-path="url(#p8c182b6695)" style="fill: #029e73; stroke: #ffffff; stroke-width: 0.8"/>
    <path d="M 286.697812 202.830143 
C 288.023828 202.830143 289.295712 202.303311 290.233346 201.365677 
C 291.170981 200.428042 291.697812 199.156158 291.697812 197.830143 
C 291.697812 196.504127 291.170981 195.232244 290.233346 194.294609 
C 289.295712 193.356975 288.023828 192.830143 286.697812 192.830143 
C 285.371797 192.830143 284.099913 193.356975 283.162279 194.294609 
C 282.224644 195.232244 281.697812 196.504127 281.697812 197.830143 
C 281.697812 199.156158 282.224644 200.428042 283.162279 201.365677 
C 284.099913 202.303311 285.371797 202.830143 286.697812 202.830143 
z
" clip-path="url(#p8c182b6695)" style="fill: #029e73; stroke: #ffffff; stroke-width: 0.8"/>
    <path d="M 286.697812 156.440268 
C 288.023828 156.440268 289.295712 155.913437 290.233346 154.975802 
C 291.170981 154.038168 291.697812 152.766284 291.697812 151.440268 
C 291.697812 150.114253 291.170981 148.842369 290.233346 147.904735 
C 289.295712 146.9671 288.023828 146.440268 286.697812 146.440268 
C 285.371797 146.440268 284.099913 146.9671 283.162279 147.904735 
C 282.224644 148.842369 281.697812 150.114253 281.697812 151.440268 
C 281.697812 152.766284 282.224644 154.038168 283.162279 154.975802 
C 284.099913 155.913437 285.371797 156.440268 286.697812 156.440268 
z
" clip-path="url(#p8c182b6695)" style="fill: #029e73; stroke: #ffffff; stroke-width: 0.8"/>
    <path d="M 185.243267 197.113855 
C 186.569283 197.113855 187.841166 196.587024 188.778801 195.649389 
C 189.716436 194.711754 190.243267 193.439871 190.243267 192.113855 
C 190.243267 190.78784 189.716436 189.515956 188.778801 188.578321 
C 187.841166 187.640687 186.569283 187.113855 185.243267 187.113855 
C 183.917252 187.113855 182.645368 187.640687 181.707733 188.578321 
C 180.770099 189.515956 180.243267 190.78784 180.243267 192.113855 
C 180.243267 193.439871 180.770099 194.711754 181.707733 195.649389 
C 182.645368 196.587024 183.917252 197.113855 185.243267 197.113855 
z
" clip-path="url(#p8c182b6695)" style="fill: #029e73; stroke: #ffffff; stroke-width: 0.8"/>
    <path d="M 117.606903 227.234295 
C 118.932919 227.234295 120.204803 226.707463 121.142437 225.769829 
C 122.080072 224.832194 122.606903 223.560311 122.606903 222.234295 
C 122.606903 220.90828 122.080072 219.636396 121.142437 218.698761 
C 120.204803 217.761127 118.932919 217.234295 117.606903 217.234295 
C 116.280888 217.234295 115.009004 217.761127 114.07137 218.698761 
C 113.133735 219.636396 112.606903 220.90828 112.606903 222.234295 
C 112.606903 223.560311 113.133735 224.832194 114.07137 225.769829 
C 115.009004 226.707463 116.280888 227.234295 117.606903 227.234295 
z
" clip-path="url(#p8c182b6695)" style="fill: #029e73; stroke: #ffffff; stroke-width: 0.8"/>
    <path d="M 151.425085 199.971999 
C 152.751101 199.971999 154.022985 199.445168 154.960619 198.507533 
C 155.898254 197.569898 156.425085 196.298015 156.425085 194.971999 
C 156.425085 193.645984 155.898254 192.3741 154.960619 191.436465 
C 154.022985 190.498831 152.751101 189.971999 151.425085 189.971999 
C 150.09907 189.971999 148.827186 190.498831 147.889551 191.436465 
C 146.951917 192.3741 146.425085 193.645984 146.425085 194.971999 
C 146.425085 196.298015 146.951917 197.569898 147.889551 198.507533 
C 148.827186 199.445168 150.09907 199.971999 151.425085 199.971999 
z
" clip-path="url(#p8c182b6695)" style="fill: #029e73; stroke: #ffffff; stroke-width: 0.8"/>
    <path d="M 83.788722 256.91502 
C 85.114737 256.91502 86.386621 256.388189 87.324255 255.450554 
C 88.26189 254.51292 88.788722 253.241036 88.788722 251.91502 
C 88.788722 250.589005 88.26189 249.317121 87.324255 248.379487 
C 86.386621 247.441852 85.114737 246.91502 83.788722 246.91502 
C 82.462706 246.91502 81.190822 247.441852 80.253188 248.379487 
C 79.315553 249.317121 78.788722 250.589005 78.788722 251.91502 
C 78.788722 253.241036 79.315553 254.51292 80.253188 255.450554 
C 81.190822 256.388189 82.462706 256.91502 83.788722 256.91502 
z
" clip-path="url(#p8c182b6695)" style="fill: #029e73; stroke: #ffffff; stroke-width: 0.8"/>
    <path d="M 489.606903 258.893735 
C 490.932919 258.893735 492.204803 258.366904 493.142437 257.429269 
C 494.080072 256.491635 494.606903 255.219751 494.606903 253.893735 
C 494.606903 252.56772 494.080072 251.295836 493.142437 250.358202 
C 492.204803 249.420567 490.932919 248.893735 489.606903 248.893735 
C 488.280888 248.893735 487.009004 249.420567 486.07137 250.358202 
C 485.133735 251.295836 484.606903 252.56772 484.606903 253.893735 
C 484.606903 255.219751 485.133735 256.491635 486.07137 257.429269 
C 487.009004 258.366904 488.280888 258.893735 489.606903 258.893735 
z
" clip-path="url(#p8c182b6695)" style="fill: #029e73; stroke: #ffffff; stroke-width: 0.8"/>
    <path d="M 489.606903 254.716448 
C 490.932919 254.716448 492.204803 254.189617 493.142437 253.251982 
C 494.080072 252.314348 494.606903 251.042464 494.606903 249.716448 
C 494.606903 248.390433 494.080072 247.118549 493.142437 246.180914 
C 492.204803 245.24328 490.932919 244.716448 489.606903 244.716448 
C 488.280888 244.716448 487.009004 245.24328 486.07137 246.180914 
C 485.133735 247.118549 484.606903 248.390433 484.606903 249.716448 
C 484.606903 251.042464 485.133735 252.314348 486.07137 253.251982 
C 487.009004 254.189617 488.280888 254.716448 489.606903 254.716448 
z
" clip-path="url(#p8c182b6695)" style="fill: #029e73; stroke: #ffffff; stroke-width: 0.8"/>
    <path d="M 185.243267 85.426385 
C 186.569283 85.426385 187.841166 84.899553 188.778801 83.961919 
C 189.716436 83.024284 190.243267 81.7524 190.243267 80.426385 
C 190.243267 79.100369 189.716436 77.828485 188.778801 76.890851 
C 187.841166 75.953216 186.569283 75.426385 185.243267 75.426385 
C 183.917252 75.426385 182.645368 75.953216 181.707733 76.890851 
C 180.770099 77.828485 180.243267 79.100369 180.243267 80.426385 
C 180.243267 81.7524 180.770099 83.024284 181.707733 83.961919 
C 182.645368 84.899553 183.917252 85.426385 185.243267 85.426385 
z
" clip-path="url(#p8c182b6695)" style="fill: #cc78bc; stroke: #ffffff; stroke-width: 0.8"/>
    <path d="M 286.697812 29.582649 
C 288.023828 29.582649 289.295712 29.055818 290.233346 28.118183 
C 291.170981 27.180549 291.697812 25.908665 291.697812 24.582649 
C 291.697812 23.256634 291.170981 21.98475 290.233346 21.047115 
C 289.295712 20.109481 288.023828 19.582649 286.697812 19.582649 
C 285.371797 19.582649 284.099913 20.109481 283.162279 21.047115 
C 282.224644 21.98475 281.697812 23.256634 281.697812 24.582649 
C 281.697812 25.908665 282.224644 27.180549 283.162279 28.118183 
C 284.099913 29.055818 285.371797 29.582649 286.697812 29.582649 
z
" clip-path="url(#p8c182b6695)" style="fill: #cc78bc; stroke: #ffffff; stroke-width: 0.8"/>
    <path d="M 185.243267 116.206396 
C 186.569283 116.206396 187.841166 115.679565 188.778801 114.74193 
C 189.716436 113.804296 190.243267 112.532412 190.243267 111.206396 
C 190.243267 109.880381 189.716436 108.608497 188.778801 107.670862 
C 187.841166 106.733228 186.569283 106.206396 185.243267 106.206396 
C 183.917252 106.206396 182.645368 106.733228 181.707733 107.670862 
C 180.770099 108.608497 180.243267 109.880381 180.243267 111.206396 
C 180.243267 112.532412 180.770099 113.804296 181.707733 114.74193 
C 182.645368 115.679565 183.917252 116.206396 185.243267 116.206396 
z
" clip-path="url(#p8c182b6695)" style="fill: #cc78bc; stroke: #ffffff; stroke-width: 0.8"/>
    <path d="M 83.788722 263.730594 
C 85.114737 263.730594 86.386621 263.203763 87.324255 262.266128 
C 88.26189 261.328494 88.788722 260.05661 88.788722 258.730594 
C 88.788722 257.404579 88.26189 256.132695 87.324255 255.195061 
C 86.386621 254.257426 85.114737 253.730594 83.788722 253.730594 
C 82.462706 253.730594 81.190822 254.257426 80.253188 255.195061 
C 79.315553 256.132695 78.788722 257.404579 78.788722 258.730594 
C 78.788722 260.05661 79.315553 261.328494 80.253188 262.266128 
C 81.190822 263.203763 82.462706 263.730594 83.788722 263.730594 
z
" clip-path="url(#p8c182b6695)" style="fill: #cc78bc; stroke: #ffffff; stroke-width: 0.8"/>
    <path d="M 185.243267 137.532547 
C 186.569283 137.532547 187.841166 137.005715 188.778801 136.068081 
C 189.716436 135.130446 190.243267 133.858563 190.243267 132.532547 
C 190.243267 131.206532 189.716436 129.934648 188.778801 128.997013 
C 187.841166 128.059379 186.569283 127.532547 185.243267 127.532547 
C 183.917252 127.532547 182.645368 128.059379 181.707733 128.997013 
C 180.770099 129.934648 180.243267 131.206532 180.243267 132.532547 
C 180.243267 133.858563 180.770099 135.130446 181.707733 136.068081 
C 182.645368 137.005715 183.917252 137.532547 185.243267 137.532547 
z
" clip-path="url(#p8c182b6695)" style="fill: #cc78bc; stroke: #ffffff; stroke-width: 0.8"/>
    <path d="M 185.243267 126.759543 
C 186.569283 126.759543 187.841166 126.232711 188.778801 125.295077 
C 189.716436 124.357442 190.243267 123.085558 190.243267 121.759543 
C 190.243267 120.433527 189.716436 119.161644 188.778801 118.224009 
C 187.841166 117.286375 186.569283 116.759543 185.243267 116.759543 
C 183.917252 116.759543 182.645368 117.286375 181.707733 118.224009 
C 180.770099 119.161644 180.243267 120.433527 180.243267 121.759543 
C 180.243267 123.085558 180.770099 124.357442 181.707733 125.295077 
C 182.645368 126.232711 183.917252 126.759543 185.243267 126.759543 
z
" clip-path="url(#p8c182b6695)" style="fill: #cc78bc; stroke: #ffffff; stroke-width: 0.8"/>
    <path d="M 83.788722 262.851166 
C 85.114737 262.851166 86.386621 262.324334 87.324255 261.386699 
C 88.26189 260.449065 88.788722 259.177181 88.788722 257.851166 
C 88.788722 256.52515 88.26189 255.253266 87.324255 254.315632 
C 86.386621 253.377997 85.114737 252.851166 83.788722 252.851166 
C 82.462706 252.851166 81.190822 253.377997 80.253188 254.315632 
C 79.315553 255.253266 78.788722 256.52515 78.788722 257.851166 
C 78.788722 259.177181 79.315553 260.449065 80.253188 261.386699 
C 81.190822 262.324334 82.462706 262.851166 83.788722 262.851166 
z
" clip-path="url(#p8c182b6695)" style="fill: #cc78bc; stroke: #ffffff; stroke-width: 0.8"/>
    <path d="M 286.697812 63.880377 
C 288.023828 63.880377 289.295712 63.353545 290.233346 62.41591 
C 291.170981 61.478276 291.697812 60.206392 291.697812 58.880377 
C 291.697812 57.554361 291.170981 56.282477 290.233346 55.344843 
C 289.295712 54.407208 288.023828 53.880377 286.697812 53.880377 
C 285.371797 53.880377 284.099913 54.407208 283.162279 55.344843 
C 282.224644 56.282477 281.697812 57.554361 281.697812 58.880377 
C 281.697812 60.206392 282.224644 61.478276 283.162279 62.41591 
C 284.099913 63.353545 285.371797 63.880377 286.697812 63.880377 
z
" clip-path="url(#p8c182b6695)" style="fill: #cc78bc; stroke: #ffffff; stroke-width: 0.8"/>
    <path d="M 151.425085 78.610811 
C 152.751101 78.610811 154.022985 78.083979 154.960619 77.146345 
C 155.898254 76.20871 156.425085 74.936826 156.425085 73.610811 
C 156.425085 72.284795 155.898254 71.012911 154.960619 70.075277 
C 154.022985 69.137642 152.751101 68.610811 151.425085 68.610811 
C 150.09907 68.610811 148.827186 69.137642 147.889551 70.075277 
C 146.951917 71.012911 146.425085 72.284795 146.425085 73.610811 
C 146.425085 74.936826 146.951917 76.20871 147.889551 77.146345 
C 148.827186 78.083979 150.09907 78.610811 151.425085 78.610811 
z
" clip-path="url(#p8c182b6695)" style="fill: #cc78bc; stroke: #ffffff; stroke-width: 0.8"/>
    <path d="M 286.697812 112.248966 
C 288.023828 112.248966 289.295712 111.722135 290.233346 110.7845 
C 291.170981 109.846865 291.697812 108.574982 291.697812 107.248966 
C 291.697812 105.922951 291.170981 104.651067 290.233346 103.713432 
C 289.295712 102.775798 288.023828 102.248966 286.697812 102.248966 
C 285.371797 102.248966 284.099913 102.775798 283.162279 103.713432 
C 282.224644 104.651067 281.697812 105.922951 281.697812 107.248966 
C 281.697812 108.574982 282.224644 109.846865 283.162279 110.7845 
C 284.099913 111.722135 285.371797 112.248966 286.697812 112.248966 
z
" clip-path="url(#p8c182b6695)" style="fill: #cc78bc; stroke: #ffffff; stroke-width: 0.8"/>
    <path d="M 286.697812 51.788229 
C 288.023828 51.788229 289.295712 51.261398 290.233346 50.323763 
C 291.170981 49.386128 291.697812 48.114245 291.697812 46.788229 
C 291.697812 45.462214 291.170981 44.19033 290.233346 43.252695 
C 289.295712 42.315061 288.023828 41.788229 286.697812 41.788229 
C 285.371797 41.788229 284.099913 42.315061 283.162279 43.252695 
C 282.224644 44.19033 281.697812 45.462214 281.697812 46.788229 
C 281.697812 48.114245 282.224644 49.386128 283.162279 50.323763 
C 284.099913 51.261398 285.371797 51.788229 286.697812 51.788229 
z
" clip-path="url(#p8c182b6695)" style="fill: #cc78bc; stroke: #ffffff; stroke-width: 0.8"/>
    <path d="M 489.606903 200.631571 
C 490.932919 200.631571 492.204803 200.104739 493.142437 199.167105 
C 494.080072 198.22947 494.606903 196.957586 494.606903 195.631571 
C 494.606903 194.305555 494.080072 193.033671 493.142437 192.096037 
C 492.204803 191.158402 490.932919 190.631571 489.606903 190.631571 
C 488.280888 190.631571 487.009004 191.158402 486.07137 192.096037 
C 485.133735 193.033671 484.606903 194.305555 484.606903 195.631571 
C 484.606903 196.957586 485.133735 198.22947 486.07137 199.167105 
C 487.009004 200.104739 488.280888 200.631571 489.606903 200.631571 
z
" clip-path="url(#p8c182b6695)" style="fill: #cc78bc; stroke: #ffffff; stroke-width: 0.8"/>
    <path d="M 489.606903 205.46843 
C 490.932919 205.46843 492.204803 204.941598 493.142437 204.003964 
C 494.080072 203.066329 494.606903 201.794445 494.606903 200.46843 
C 494.606903 199.142414 494.080072 197.87053 493.142437 196.932896 
C 492.204803 195.995261 490.932919 195.46843 489.606903 195.46843 
C 488.280888 195.46843 487.009004 195.995261 486.07137 196.932896 
C 485.133735 197.87053 484.606903 199.142414 484.606903 200.46843 
C 484.606903 201.794445 485.133735 203.066329 486.07137 204.003964 
C 487.009004 204.941598 488.280888 205.46843 489.606903 205.46843 
z
" clip-path="url(#p8c182b6695)" style="fill: #cc78bc; stroke: #ffffff; stroke-width: 0.8"/>
    <path d="M 489.606903 245.04273 
C 490.932919 245.04273 492.204803 244.515899 493.142437 243.578264 
C 494.080072 242.64063 494.606903 241.368746 494.606903 240.04273 
C 494.606903 238.716715 494.080072 237.444831 493.142437 236.507196 
C 492.204803 235.569562 490.932919 235.04273 489.606903 235.04273 
C 488.280888 235.04273 487.009004 235.569562 486.07137 236.507196 
C 485.133735 237.444831 484.606903 238.716715 484.606903 240.04273 
C 484.606903 241.368746 485.133735 242.64063 486.07137 243.578264 
C 487.009004 244.515899 488.280888 245.04273 489.606903 245.04273 
z
" clip-path="url(#p8c182b6695)" style="fill: #cc78bc; stroke: #ffffff; stroke-width: 0.8"/>
    <path d="M 489.606903 248.340589 
C 490.932919 248.340589 492.204803 247.813757 493.142437 246.876123 
C 494.080072 245.938488 494.606903 244.666604 494.606903 243.340589 
C 494.606903 242.014573 494.080072 240.742689 493.142437 239.805055 
C 492.204803 238.86742 490.932919 238.340589 489.606903 238.340589 
C 488.280888 238.340589 487.009004 238.86742 486.07137 239.805055 
C 485.133735 240.742689 484.606903 242.014573 484.606903 243.340589 
C 484.606903 244.666604 485.133735 245.938488 486.07137 246.876123 
C 487.009004 247.813757 488.280888 248.340589 489.606903 248.340589 
z
" clip-path="url(#p8c182b6695)" style="fill: #cc78bc; stroke: #ffffff; stroke-width: 0.8"/>
    <path d="M 286.697812 92.681673 
C 288.023828 92.681673 289.295712 92.154841 290.233346 91.217207 
C 291.170981 90.279572 291.697812 89.007689 291.697812 87.681673 
C 291.697812 86.355658 291.170981 85.083774 290.233346 84.146139 
C 289.295712 83.208505 288.023828 82.681673 286.697812 82.681673 
C 285.371797 82.681673 284.099913 83.208505 283.162279 84.146139 
C 282.224644 85.083774 281.697812 86.355658 281.697812 87.681673 
C 281.697812 89.007689 282.224644 90.279572 283.162279 91.217207 
C 284.099913 92.154841 285.371797 92.681673 286.697812 92.681673 
z
" clip-path="url(#p8c182b6695)" style="fill: #cc78bc; stroke: #ffffff; stroke-width: 0.8"/>
    <path d="M 185.243267 46.291798 
C 186.569283 46.291798 187.841166 45.764967 188.778801 44.827332 
C 189.716436 43.889698 190.243267 42.617814 190.243267 41.291798 
C 190.243267 39.965783 189.716436 38.693899 188.778801 37.756265 
C 187.841166 36.81863 186.569283 36.291798 185.243267 36.291798 
C 183.917252 36.291798 182.645368 36.81863 181.707733 37.756265 
C 180.770099 38.693899 180.243267 39.965783 180.243267 41.291798 
C 180.243267 42.617814 180.770099 43.889698 181.707733 44.827332 
C 182.645368 45.764967 183.917252 46.291798 185.243267 46.291798 
z
" clip-path="url(#p8c182b6695)" style="fill: #cc78bc; stroke: #ffffff; stroke-width: 0.8"/>
    <path d="M 489.606903 167.213272 
C 490.932919 167.213272 492.204803 166.686441 493.142437 165.748806 
C 494.080072 164.811172 494.606903 163.539288 494.606903 162.213272 
C 494.606903 160.887257 494.080072 159.615373 493.142437 158.677739 
C 492.204803 157.740104 490.932919 157.213272 489.606903 157.213272 
C 488.280888 157.213272 487.009004 157.740104 486.07137 158.677739 
C 485.133735 159.615373 484.606903 160.887257 484.606903 162.213272 
C 484.606903 163.539288 485.133735 164.811172 486.07137 165.748806 
C 487.009004 166.686441 488.280888 167.213272 489.606903 167.213272 
z
" clip-path="url(#p8c182b6695)" style="fill: #cc78bc; stroke: #ffffff; stroke-width: 0.8"/>
    <path d="M 117.606903 210.305289 
C 118.932919 210.305289 120.204803 209.778457 121.142437 208.840823 
C 122.080072 207.903188 122.606903 206.631304 122.606903 205.305289 
C 122.606903 203.979273 122.080072 202.707389 121.142437 201.769755 
C 120.204803 200.83212 118.932919 200.305289 117.606903 200.305289 
C 116.280888 200.305289 115.009004 200.83212 114.07137 201.769755 
C 113.133735 202.707389 112.606903 203.979273 112.606903 205.305289 
C 112.606903 206.631304 113.133735 207.903188 114.07137 208.840823 
C 115.009004 209.778457 116.280888 210.305289 117.606903 210.305289 
z
" clip-path="url(#p8c182b6695)" style="fill: #cc78bc; stroke: #ffffff; stroke-width: 0.8"/>
    <path d="M 117.606903 218.220149 
C 118.932919 218.220149 120.204803 217.693317 121.142437 216.755683 
C 122.080072 215.818048 122.606903 214.546164 122.606903 213.220149 
C 122.606903 211.894133 122.080072 210.622249 121.142437 209.684615 
C 120.204803 208.74698 118.932919 208.220149 117.606903 208.220149 
C 116.280888 208.220149 115.009004 208.74698 114.07137 209.684615 
C 113.133735 210.622249 112.606903 211.894133 112.606903 213.220149 
C 112.606903 214.546164 113.133735 215.818048 114.07137 216.755683 
C 115.009004 217.693317 116.280888 218.220149 117.606903 218.220149 
z
" clip-path="url(#p8c182b6695)" style="fill: #cc78bc; stroke: #ffffff; stroke-width: 0.8"/>
    <path d="M 83.788722 267.24831 
C 85.114737 267.24831 86.386621 266.721478 87.324255 265.783844 
C 88.26189 264.846209 88.788722 263.574326 88.788722 262.24831 
C 88.788722 260.922295 88.26189 259.650411 87.324255 258.712776 
C 86.386621 257.775142 85.114737 257.24831 83.788722 257.24831 
C 82.462706 257.24831 81.190822 257.775142 80.253188 258.712776 
C 79.315553 259.650411 78.788722 260.922295 78.788722 262.24831 
C 78.788722 263.574326 79.315553 264.846209 80.253188 265.783844 
C 81.190822 266.721478 82.462706 267.24831 83.788722 267.24831 
z
" clip-path="url(#p8c182b6695)" style="fill: #cc78bc; stroke: #ffffff; stroke-width: 0.8"/>
    <path d="M 151.425085 155.121125 
C 152.751101 155.121125 154.022985 154.594294 154.960619 153.656659 
C 155.898254 152.719024 156.425085 151.447141 156.425085 150.121125 
C 156.425085 148.79511 155.898254 147.523226 154.960619 146.585591 
C 154.022985 145.647957 152.751101 145.121125 151.425085 145.121125 
C 150.09907 145.121125 148.827186 145.647957 147.889551 146.585591 
C 146.951917 147.523226 146.425085 148.79511 146.425085 150.121125 
C 146.425085 151.447141 146.951917 152.719024 147.889551 153.656659 
C 148.827186 154.594294 150.09907 155.121125 151.425085 155.121125 
z
" clip-path="url(#p8c182b6695)" style="fill: #cc78bc; stroke: #ffffff; stroke-width: 0.8"/>
    <path d="M 83.788722 262.411451 
C 85.114737 262.411451 86.386621 261.88462 87.324255 260.946985 
C 88.26189 260.00935 88.788722 258.737467 88.788722 257.411451 
C 88.788722 256.085436 88.26189 254.813552 87.324255 253.875917 
C 86.386621 252.938283 85.114737 252.411451 83.788722 252.411451 
C 82.462706 252.411451 81.190822 252.938283 80.253188 253.875917 
C 79.315553 254.813552 78.788722 256.085436 78.788722 257.411451 
C 78.788722 258.737467 79.315553 260.00935 80.253188 260.946985 
C 81.190822 261.88462 82.462706 262.411451 83.788722 262.411451 
z
" clip-path="url(#p8c182b6695)" style="fill: #cc78bc; stroke: #ffffff; stroke-width: 0.8"/>
    <path d="M 117.606903 197.993284 
C 118.932919 197.993284 120.204803 197.466452 121.142437 196.528818 
C 122.080072 195.591183 122.606903 194.3193 122.606903 192.993284 
C 122.606903 191.667269 122.080072 190.395385 121.142437 189.45775 
C 120.204803 188.520116 118.932919 187.993284 117.606903 187.993284 
C 116.280888 187.993284 115.009004 188.520116 114.07137 189.45775 
C 113.133735 190.395385 112.606903 191.667269 112.606903 192.993284 
C 112.606903 194.3193 113.133735 195.591183 114.07137 196.528818 
C 115.009004 197.466452 116.280888 197.993284 117.606903 197.993284 
z
" clip-path="url(#p8c182b6695)" style="fill: #cc78bc; stroke: #ffffff; stroke-width: 0.8"/>
    <path d="M 117.606903 193.376282 
C 118.932919 193.376282 120.204803 192.849451 121.142437 191.911816 
C 122.080072 190.974182 122.606903 189.702298 122.606903 188.376282 
C 122.606903 187.050267 122.080072 185.778383 121.142437 184.840748 
C 120.204803 183.903114 118.932919 183.376282 117.606903 183.376282 
C 116.280888 183.376282 115.009004 183.903114 114.07137 184.840748 
C 113.133735 185.778383 112.606903 187.050267 112.606903 188.376282 
C 112.606903 189.702298 113.133735 190.974182 114.07137 191.911816 
C 115.009004 192.849451 116.280888 193.376282 117.606903 193.376282 
z
" clip-path="url(#p8c182b6695)" style="fill: #cc78bc; stroke: #ffffff; stroke-width: 0.8"/>
    <path d="M 117.606903 192.276996 
C 118.932919 192.276996 120.204803 191.750165 121.142437 190.81253 
C 122.080072 189.874896 122.606903 188.603012 122.606903 187.276996 
C 122.606903 185.950981 122.080072 184.679097 121.142437 183.741462 
C 120.204803 182.803828 118.932919 182.276996 117.606903 182.276996 
C 116.280888 182.276996 115.009004 182.803828 114.07137 183.741462 
C 113.133735 184.679097 112.606903 185.950981 112.606903 187.276996 
C 112.606903 188.603012 113.133735 189.874896 114.07137 190.81253 
C 115.009004 191.750165 116.280888 192.276996 117.606903 192.276996 
z
" clip-path="url(#p8c182b6695)" style="fill: #cc78bc; stroke: #ffffff; stroke-width: 0.8"/>
    <path d="M 151.425085 150.284266 
C 152.751101 150.284266 154.022985 149.757435 154.960619 148.8198 
C 155.898254 147.882165 156.425085 146.610282 156.425085 145.284266 
C 156.425085 143.958251 155.898254 142.686367 154.960619 141.748732 
C 154.022985 140.811098 152.751101 140.284266 151.425085 140.284266 
C 150.09907 140.284266 148.827186 140.811098 147.889551 141.748732 
C 146.951917 142.686367 146.425085 143.958251 146.425085 145.284266 
C 146.425085 146.610282 146.951917 147.882165 147.889551 148.8198 
C 148.827186 149.757435 150.09907 150.284266 151.425085 150.284266 
z
" clip-path="url(#p8c182b6695)" style="fill: #cc78bc; stroke: #ffffff; stroke-width: 0.8"/>
    <path d="M 151.425085 141.709834 
C 152.751101 141.709834 154.022985 141.183003 154.960619 140.245368 
C 155.898254 139.307734 156.425085 138.03585 156.425085 136.709834 
C 156.425085 135.383819 155.898254 134.111935 154.960619 133.1743 
C 154.022985 132.236666 152.751101 131.709834 151.425085 131.709834 
C 150.09907 131.709834 148.827186 132.236666 147.889551 133.1743 
C 146.951917 134.111935 146.425085 135.383819 146.425085 136.709834 
C 146.425085 138.03585 146.951917 139.307734 147.889551 140.245368 
C 148.827186 141.183003 150.09907 141.709834 151.425085 141.709834 
z
" clip-path="url(#p8c182b6695)" style="fill: #cc78bc; stroke: #ffffff; stroke-width: 0.8"/>
    <path d="M 151.425085 153.14241 
C 152.751101 153.14241 154.022985 152.615578 154.960619 151.677944 
C 155.898254 150.740309 156.425085 149.468426 156.425085 148.14241 
C 156.425085 146.816395 155.898254 145.544511 154.960619 144.606876 
C 154.022985 143.669242 152.751101 143.14241 151.425085 143.14241 
C 150.09907 143.14241 148.827186 143.669242 147.889551 144.606876 
C 146.951917 145.544511 146.425085 146.816395 146.425085 148.14241 
C 146.425085 149.468426 146.951917 150.740309 147.889551 151.677944 
C 148.827186 152.615578 150.09907 153.14241 151.425085 153.14241 
z
" clip-path="url(#p8c182b6695)" style="fill: #cc78bc; stroke: #ffffff; stroke-width: 0.8"/>
    <path d="M 83.788722 271.645455 
C 85.114737 271.645455 86.386621 271.118623 87.324255 270.180988 
C 88.26189 269.243354 88.788722 267.97147 88.788722 266.645455 
C 88.788722 265.319439 88.26189 264.047555 87.324255 263.109921 
C 86.386621 262.172286 85.114737 261.645455 83.788722 261.645455 
C 82.462706 261.645455 81.190822 262.172286 80.253188 263.109921 
C 79.315553 264.047555 78.788722 265.319439 78.788722 266.645455 
C 78.788722 267.97147 79.315553 269.243354 80.253188 270.180988 
C 81.190822 271.118623 82.462706 271.645455 83.788722 271.645455 
z
" clip-path="url(#p8c182b6695)" style="fill: #cc78bc; stroke: #ffffff; stroke-width: 0.8"/>
    <path d="M 489.606903 109.830537 
C 490.932919 109.830537 492.204803 109.303705 493.142437 108.366071 
C 494.080072 107.428436 494.606903 106.156552 494.606903 104.830537 
C 494.606903 103.504521 494.080072 102.232637 493.142437 101.295003 
C 492.204803 100.357368 490.932919 99.830537 489.606903 99.830537 
C 488.280888 99.830537 487.009004 100.357368 486.07137 101.295003 
C 485.133735 102.232637 484.606903 103.504521 484.606903 104.830537 
C 484.606903 106.156552 485.133735 107.428436 486.07137 108.366071 
C 487.009004 109.303705 488.280888 109.830537 489.606903 109.830537 
z
" clip-path="url(#p8c182b6695)" style="fill: #d55e00; stroke: #ffffff; stroke-width: 0.8"/>
    <path d="M 83.788722 261.312165 
C 85.114737 261.312165 86.386621 260.785333 87.324255 259.847699 
C 88.26189 258.910064 88.788722 257.63818 88.788722 256.312165 
C 88.788722 254.986149 88.26189 253.714266 87.324255 252.776631 
C 86.386621 251.838996 85.114737 251.312165 83.788722 251.312165 
C 82.462706 251.312165 81.190822 251.838996 80.253188 252.776631 
C 79.315553 253.714266 78.788722 254.986149 78.788722 256.312165 
C 78.788722 257.63818 79.315553 258.910064 80.253188 259.847699 
C 81.190822 260.785333 82.462706 261.312165 83.788722 261.312165 
z
" clip-path="url(#p8c182b6695)" style="fill: #d55e00; stroke: #ffffff; stroke-width: 0.8"/>
    <path d="M 83.788722 260.212879 
C 85.114737 260.212879 86.386621 259.686047 87.324255 258.748413 
C 88.26189 257.810778 88.788722 256.538894 88.788722 255.212879 
C 88.788722 253.886863 88.26189 252.614979 87.324255 251.677345 
C 86.386621 250.73971 85.114737 250.212879 83.788722 250.212879 
C 82.462706 250.212879 81.190822 250.73971 80.253188 251.677345 
C 79.315553 252.614979 78.788722 253.886863 78.788722 255.212879 
C 78.788722 256.538894 79.315553 257.810778 80.253188 258.748413 
C 81.190822 259.686047 82.462706 260.212879 83.788722 260.212879 
z
" clip-path="url(#p8c182b6695)" style="fill: #d55e00; stroke: #ffffff; stroke-width: 0.8"/>
    <path d="M 83.788722 227.893867 
C 85.114737 227.893867 86.386621 227.367035 87.324255 226.429401 
C 88.26189 225.491766 88.788722 224.219882 88.788722 222.893867 
C 88.788722 221.567851 88.26189 220.295967 87.324255 219.358333 
C 86.386621 218.420698 85.114737 217.893867 83.788722 217.893867 
C 82.462706 217.893867 81.190822 218.420698 80.253188 219.358333 
C 79.315553 220.295967 78.788722 221.567851 78.788722 222.893867 
C 78.788722 224.219882 79.315553 225.491766 80.253188 226.429401 
C 81.190822 227.367035 82.462706 227.893867 83.788722 227.893867 
z
" clip-path="url(#p8c182b6695)" style="fill: #d55e00; stroke: #ffffff; stroke-width: 0.8"/>
    <path d="M 489.606903 152.702696 
C 490.932919 152.702696 492.204803 152.175864 493.142437 151.238229 
C 494.080072 150.300595 494.606903 149.028711 494.606903 147.702696 
C 494.606903 146.37668 494.080072 145.104796 493.142437 144.167162 
C 492.204803 143.229527 490.932919 142.702696 489.606903 142.702696 
C 488.280888 142.702696 487.009004 143.229527 486.07137 144.167162 
C 485.133735 145.104796 484.606903 146.37668 484.606903 147.702696 
C 484.606903 149.028711 485.133735 150.300595 486.07137 151.238229 
C 487.009004 152.175864 488.280888 152.702696 489.606903 152.702696 
z
" clip-path="url(#p8c182b6695)" style="fill: #d55e00; stroke: #ffffff; stroke-width: 0.8"/>
    <path d="M 489.606903 144.128264 
C 490.932919 144.128264 492.204803 143.601432 493.142437 142.663798 
C 494.080072 141.726163 494.606903 140.454279 494.606903 139.128264 
C 494.606903 137.802248 494.080072 136.530364 493.142437 135.59273 
C 492.204803 134.655095 490.932919 134.128264 489.606903 134.128264 
C 488.280888 134.128264 487.009004 134.655095 486.07137 135.59273 
C 485.133735 136.530364 484.606903 137.802248 484.606903 139.128264 
C 484.606903 140.454279 485.133735 141.726163 486.07137 142.663798 
C 487.009004 143.601432 488.280888 144.128264 489.606903 144.128264 
z
" clip-path="url(#p8c182b6695)" style="fill: #d55e00; stroke: #ffffff; stroke-width: 0.8"/>
    <path d="M 151.425085 60.142804 
C 152.751101 60.142804 154.022985 59.615972 154.960619 58.678338 
C 155.898254 57.740703 156.425085 56.468819 156.425085 55.142804 
C 156.425085 53.816788 155.898254 52.544904 154.960619 51.60727 
C 154.022985 50.669635 152.751101 50.142804 151.425085 50.142804 
C 150.09907 50.142804 148.827186 50.669635 147.889551 51.60727 
C 146.951917 52.544904 146.425085 53.816788 146.425085 55.142804 
C 146.425085 56.468819 146.951917 57.740703 147.889551 58.678338 
C 148.827186 59.615972 150.09907 60.142804 151.425085 60.142804 
z
" clip-path="url(#p8c182b6695)" style="fill: #d55e00; stroke: #ffffff; stroke-width: 0.8"/>
    <path d="M 286.697812 30.462078 
C 288.023828 30.462078 289.295712 29.935247 290.233346 28.997612 
C 291.170981 28.059978 291.697812 26.788094 291.697812 25.462078 
C 291.697812 24.136063 291.170981 22.864179 290.233346 21.926544 
C 289.295712 20.98891 288.023828 20.462078 286.697812 20.462078 
C 285.371797 20.462078 284.099913 20.98891 283.162279 21.926544 
C 282.224644 22.864179 281.697812 24.136063 281.697812 25.462078 
C 281.697812 26.788094 282.224644 28.059978 283.162279 28.997612 
C 284.099913 29.935247 285.371797 30.462078 286.697812 30.462078 
z
" clip-path="url(#p8c182b6695)" style="fill: #d55e00; stroke: #ffffff; stroke-width: 0.8"/>
    <path d="M 117.606903 133.575117 
C 118.932919 133.575117 120.204803 133.048285 121.142437 132.110651 
C 122.080072 131.173016 122.606903 129.901132 122.606903 128.575117 
C 122.606903 127.249101 122.080072 125.977218 121.142437 125.039583 
C 120.204803 124.101949 118.932919 123.575117 117.606903 123.575117 
C 116.280888 123.575117 115.009004 124.101949 114.07137 125.039583 
C 113.133735 125.977218 112.606903 127.249101 112.606903 128.575117 
C 112.606903 129.901132 113.133735 131.173016 114.07137 132.110651 
C 115.009004 133.048285 116.280888 133.575117 117.606903 133.575117 
z
" clip-path="url(#p8c182b6695)" style="fill: #d55e00; stroke: #ffffff; stroke-width: 0.8"/>
    <path d="M 286.697812 24.74579 
C 288.023828 24.74579 289.295712 24.218959 290.233346 23.281324 
C 291.170981 22.34369 291.697812 21.071806 291.697812 19.74579 
C 291.697812 18.419775 291.170981 17.147891 290.233346 16.210256 
C 289.295712 15.272622 288.023828 14.74579 286.697812 14.74579 
C 285.371797 14.74579 284.099913 15.272622 283.162279 16.210256 
C 282.224644 17.147891 281.697812 18.419775 281.697812 19.74579 
C 281.697812 21.071806 282.224644 22.34369 283.162279 23.281324 
C 284.099913 24.218959 285.371797 24.74579 286.697812 24.74579 
z
" clip-path="url(#p8c182b6695)" style="fill: #d55e00; stroke: #ffffff; stroke-width: 0.8"/>
    <path d="M 117.606903 175.128133 
C 118.932919 175.128133 120.204803 174.601301 121.142437 173.663666 
C 122.080072 172.726032 122.606903 171.454148 122.606903 170.128133 
C 122.606903 168.802117 122.080072 167.530233 121.142437 166.592599 
C 120.204803 165.654964 118.932919 165.128133 117.606903 165.128133 
C 116.280888 165.128133 115.009004 165.654964 114.07137 166.592599 
C 113.133735 167.530233 112.606903 168.802117 112.606903 170.128133 
C 112.606903 171.454148 113.133735 172.726032 114.07137 173.663666 
C 115.009004 174.601301 116.280888 175.128133 117.606903 175.128133 
z
" clip-path="url(#p8c182b6695)" style="fill: #d55e00; stroke: #ffffff; stroke-width: 0.8"/>
    <path d="M 117.606903 193.376282 
C 118.932919 193.376282 120.204803 192.849451 121.142437 191.911816 
C 122.080072 190.974182 122.606903 189.702298 122.606903 188.376282 
C 122.606903 187.050267 122.080072 185.778383 121.142437 184.840748 
C 120.204803 183.903114 118.932919 183.376282 117.606903 183.376282 
C 116.280888 183.376282 115.009004 183.903114 114.07137 184.840748 
C 113.133735 185.778383 112.606903 187.050267 112.606903 188.376282 
C 112.606903 189.702298 113.133735 190.974182 114.07137 191.911816 
C 115.009004 192.849451 116.280888 193.376282 117.606903 193.376282 
z
" clip-path="url(#p8c182b6695)" style="fill: #d55e00; stroke: #ffffff; stroke-width: 0.8"/>
    <path d="M 185.243267 32.66065 
C 186.569283 32.66065 187.841166 32.133819 188.778801 31.196184 
C 189.716436 30.25855 190.243267 28.986666 190.243267 27.66065 
C 190.243267 26.334635 189.716436 25.062751 188.778801 24.125117 
C 187.841166 23.187482 186.569283 22.66065 185.243267 22.66065 
C 183.917252 22.66065 182.645368 23.187482 181.707733 24.125117 
C 180.770099 25.062751 180.243267 26.334635 180.243267 27.66065 
C 180.243267 28.986666 180.770099 30.25855 181.707733 31.196184 
C 182.645368 32.133819 183.917252 32.66065 185.243267 32.66065 
z
" clip-path="url(#p8c182b6695)" style="fill: #d55e00; stroke: #ffffff; stroke-width: 0.8"/>
    <path d="M 185.243267 24.74579 
C 186.569283 24.74579 187.841166 24.218959 188.778801 23.281324 
C 189.716436 22.34369 190.243267 21.071806 190.243267 19.74579 
C 190.243267 18.419775 189.716436 17.147891 188.778801 16.210256 
C 187.841166 15.272622 186.569283 14.74579 185.243267 14.74579 
C 183.917252 14.74579 182.645368 15.272622 181.707733 16.210256 
C 180.770099 17.147891 180.243267 18.419775 180.243267 19.74579 
C 180.243267 21.071806 180.770099 22.34369 181.707733 23.281324 
C 182.645368 24.218959 183.917252 24.74579 185.243267 24.74579 
z
" clip-path="url(#p8c182b6695)" style="fill: #d55e00; stroke: #ffffff; stroke-width: 0.8"/>
    <path d="M 185.243267 31.341507 
C 186.569283 31.341507 187.841166 30.814676 188.778801 29.877041 
C 189.716436 28.939406 190.243267 27.667523 190.243267 26.341507 
C 190.243267 25.015492 189.716436 23.743608 188.778801 22.805973 
C 187.841166 21.868339 186.569283 21.341507 185.243267 21.341507 
C 183.917252 21.341507 182.645368 21.868339 181.707733 22.805973 
C 180.770099 23.743608 180.243267 25.015492 180.243267 26.341507 
C 180.243267 27.667523 180.770099 28.939406 181.707733 29.877041 
C 182.645368 30.814676 183.917252 31.341507 185.243267 31.341507 
z
" clip-path="url(#p8c182b6695)" style="fill: #d55e00; stroke: #ffffff; stroke-width: 0.8"/>
    <path d="M 151.425085 62.78109 
C 152.751101 62.78109 154.022985 62.254259 154.960619 61.316624 
C 155.898254 60.37899 156.425085 59.107106 156.425085 57.78109 
C 156.425085 56.455075 155.898254 55.183191 154.960619 54.245556 
C 154.022985 53.307922 152.751101 52.78109 151.425085 52.78109 
C 150.09907 52.78109 148.827186 53.307922 147.889551 54.245556 
C 146.951917 55.183191 146.425085 56.455075 146.425085 57.78109 
C 146.425085 59.107106 146.951917 60.37899 147.889551 61.316624 
C 148.827186 62.254259 150.09907 62.78109 151.425085 62.78109 
z
" clip-path="url(#p8c182b6695)" style="fill: #d55e00; stroke: #ffffff; stroke-width: 0.8"/>
    <path d="M 151.425085 24.74579 
C 152.751101 24.74579 154.022985 24.218959 154.960619 23.281324 
C 155.898254 22.34369 156.425085 21.071806 156.425085 19.74579 
C 156.425085 18.419775 155.898254 17.147891 154.960619 16.210256 
C 154.022985 15.272622 152.751101 14.74579 151.425085 14.74579 
C 150.09907 14.74579 148.827186 15.272622 147.889551 16.210256 
C 146.951917 17.147891 146.425085 18.419775 146.425085 19.74579 
C 146.425085 21.071806 146.951917 22.34369 147.889551 23.281324 
C 148.827186 24.218959 150.09907 24.74579 151.425085 24.74579 
z
" clip-path="url(#p8c182b6695)" style="fill: #d55e00; stroke: #ffffff; stroke-width: 0.8"/>
    <path d="M 286.697812 37.277652 
C 288.023828 37.277652 289.295712 36.750821 290.233346 35.813186 
C 291.170981 34.875552 291.697812 33.603668 291.697812 32.277652 
C 291.697812 30.951637 291.170981 29.679753 290.233346 28.742118 
C 289.295712 27.804484 288.023828 27.277652 286.697812 27.277652 
C 285.371797 27.277652 284.099913 27.804484 283.162279 28.742118 
C 282.224644 29.679753 281.697812 30.951637 281.697812 32.277652 
C 281.697812 33.603668 282.224644 34.875552 283.162279 35.813186 
C 284.099913 36.750821 285.371797 37.277652 286.697812 37.277652 
z
" clip-path="url(#p8c182b6695)" style="fill: #d55e00; stroke: #ffffff; stroke-width: 0.8"/>
   </g>
   <g id="line2d_13">
    <path d="M 83.788722 256.751879 
L 117.606903 214.979007 
L 151.425085 190.684783 
L 185.243267 178.812493 
L 286.697812 174.635206 
L 489.606903 251.805092 
" clip-path="url(#p8c182b6695)" style="fill: none; stroke: #029e73; stroke-width: 1.5; stroke-linecap: round"/>
   </g>
   <g id="line2d_14">
    <path d="M 83.788722 260.577395 
L 117.606903 197.4344 
L 151.425085 130.773689 
L 185.243267 97.443334 
L 286.697812 65.036379 
L 489.606903 208.339318 
" clip-path="url(#p8c182b6695)" style="fill: none; stroke: #cc78bc; stroke-width: 1.5; stroke-linecap: round"/>
   </g>
   <g id="line2d_15">
    <path d="M 83.788722 244.806303 
L 117.606903 162.359844 
L 151.425085 44.223228 
L 185.243267 24.582649 
L 286.697812 25.828507 
L 489.606903 130.553832 
" clip-path="url(#p8c182b6695)" style="fill: none; stroke: #d55e00; stroke-width: 1.5; stroke-linecap: round"/>
   </g>
   <g id="patch_3">
    <path d="M 63.497813 279 
L 63.497813 7.2 
" style="fill: none; stroke: #262626; stroke-width: 1.25; stroke-linejoin: miter; stroke-linecap: square"/>
   </g>
   <g id="patch_4">
    <path d="M 63.497813 279 
L 509.897812 279 
" style="fill: none; stroke: #262626; stroke-width: 1.25; stroke-linejoin: miter; stroke-linecap: square"/>
   </g>
  </g>
 </g>
 <defs>
  <clipPath id="p8c182b6695">
   <rect x="63.497813" y="7.2" width="446.4" height="271.8"/>
  </clipPath>
 </defs>
</svg>
