<?xml version="1.0" encoding="utf-8" standalone="no"?>
<!DOCTYPE svg PUBLIC "-//W3C//DTD SVG 1.1//EN"
  "http://www.w3.org/Graphics/SVG/1.1/DTD/svg11.dtd">
<svg xmlns:xlink="http://www.w3.org/1999/xlink" width="522.098437pt" height="328.930313pt" viewBox="0 0 522.098437 328.930313" xmlns="http://www.w3.org/2000/svg" version="1.1">
 <metadata>
  <rdf:RDF xmlns:dc="http://purl.org/dc/elements/1.1/" xmlns:cc="http://creativecommons.org/ns#" xmlns:rdf="http://www.w3.org/1999/02/22-rdf-syntax-ns#">
   <cc:Work>
    <dc:type rdf:resource="http://purl.org/dc/dcmitype/StillImage"/>
    <dc:date>2022-06-10T18:48:58.535064</dc:date>
    <dc:format>image/svg+xml</dc:format>
    <dc:creator>
     <cc:Agent>
      <dc:title>Matplotlib v3.5.2, https://matplotlib.org/</dc:title>
     </cc:Agent>
    </dc:creator>
   </cc:Work>
  </rdf:RDF>
 </metadata>
 <defs>
  <style type="text/css">*{stroke-linejoin: round; stroke-linecap: butt}</style>
 </defs>
 <g id="figure_1">
  <g id="patch_1">
   <path d="M 0 328.930313 
L 522.098437 328.930313 
L 522.098437 0 
L 0 0 
z
" style="fill: #ffffff"/>
  </g>
  <g id="axes_1">
   <g id="patch_2">
    <path d="M 68.498438 279 
L 514.898438 279 
L 514.898438 7.2 
L 68.498438 7.2 
z
" style="fill: #ffffff"/>
   </g>
   <g id="matplotlib.axis_1">
    <g id="xtick_1">
     <g id="line2d_1"/>
     <g id="text_1">
      <text style="fill: #262626; font: 18px 'sans-serif'; text-anchor: middle" x="156.42571" y="295.384063" transform="rotate(-0, 156.42571, 295.384063)">20</text>
     </g>
    </g>
    <g id="xtick_2">
     <g id="line2d_2"/>
     <g id="text_2">
      <text style="fill: #262626; font: 18px 'sans-serif'; text-anchor: middle" x="88.789347" y="295.384063" transform="rotate(-0, 88.789347, 295.384063)">0</text>
     </g>
    </g>
    <g id="xtick_3">
     <g id="line2d_3"/>
     <g id="text_3">
      <text style="fill: #262626; font: 18px 'sans-serif'; text-anchor: middle" x="122.607528" y="295.384063" transform="rotate(-0, 122.607528, 295.384063)">10</text>
     </g>
    </g>
    <g id="xtick_4">
     <g id="line2d_4"/>
     <g id="text_4">
      <text style="fill: #262626; font: 18px 'sans-serif'; text-anchor: middle" x="190.243892" y="295.384063" transform="rotate(-0, 190.243892, 295.384063)">30</text>
     </g>
    </g>
    <g id="xtick_5">
     <g id="line2d_5"/>
     <g id="text_5">
      <text style="fill: #262626; font: 18px 'sans-serif'; text-anchor: middle" x="291.698438" y="295.384063" transform="rotate(-0, 291.698438, 295.384063)">60</text>
     </g>
    </g>
    <g id="xtick_6">
     <g id="line2d_6"/>
     <g id="text_6">
      <text style="fill: #262626; font: 18px 'sans-serif'; text-anchor: middle" x="494.607528" y="295.384063" transform="rotate(-0, 494.607528, 295.384063)">120</text>
     </g>
    </g>
    <g id="text_7">
     <text style="fill: #262626; font: 20px 'sans-serif'; text-anchor: middle" x="291.698438" y="317.520938" transform="rotate(-0, 291.698438, 317.520938)">Time (min)</text>
    </g>
   </g>
   <g id="matplotlib.axis_2">
    <g id="ytick_1">
     <g id="line2d_7"/>
     <g id="text_8">
      <text style="fill: #262626; font: 18px 'sans-serif'; text-anchor: end" x="64.998438" y="279.678889" transform="rotate(-0, 64.998438, 279.678889)">0.0</text>
     </g>
    </g>
    <g id="ytick_2">
     <g id="line2d_8"/>
     <g id="text_9">
      <text style="fill: #262626; font: 18px 'sans-serif'; text-anchor: end" x="64.998438" y="244.208767" transform="rotate(-0, 64.998438, 244.208767)">2.5</text>
     </g>
    </g>
    <g id="ytick_3">
     <g id="line2d_9"/>
     <g id="text_10">
      <text style="fill: #262626; font: 18px 'sans-serif'; text-anchor: end" x="64.998438" y="208.738645" transform="rotate(-0, 64.998438, 208.738645)">5.0</text>
     </g>
    </g>
    <g id="ytick_4">
     <g id="line2d_10"/>
     <g id="text_11">
      <text style="fill: #262626; font: 18px 'sans-serif'; text-anchor: end" x="64.998438" y="173.268523" transform="rotate(-0, 64.998438, 173.268523)">7.5</text>
     </g>
    </g>
    <g id="ytick_5">
     <g id="line2d_11"/>
     <g id="text_12">
      <text style="fill: #262626; font: 18px 'sans-serif'; text-anchor: end" x="64.998438" y="137.798401" transform="rotate(-0, 64.998438, 137.798401)">10.0</text>
     </g>
    </g>
    <g id="ytick_6">
     <g id="line2d_12"/>
     <g id="text_13">
      <text style="fill: #262626; font: 18px 'sans-serif'; text-anchor: end" x="64.998438" y="102.328279" transform="rotate(-0, 64.998438, 102.328279)">12.5</text>
     </g>
    </g>
    <g id="ytick_7">
     <g id="line2d_13"/>
     <g id="text_14">
      <text style="fill: #262626; font: 18px 'sans-serif'; text-anchor: end" x="64.998438" y="66.858157" transform="rotate(-0, 64.998438, 66.858157)">15.0</text>
     </g>
    </g>
    <g id="ytick_8">
     <g id="line2d_14"/>
     <g id="text_15">
      <text style="fill: #262626; font: 18px 'sans-serif'; text-anchor: end" x="64.998438" y="31.388035" transform="rotate(-0, 64.998438, 31.388035)">17.5</text>
     </g>
    </g>
    <g id="text_16">
     <text style="fill: #262626; font: 20px 'sans-serif'; text-anchor: middle" x="21.759375" y="143.1" transform="rotate(-90, 21.759375, 143.1)">Blood insulin (ng/dL)</text>
    </g>
   </g>
   <g id="PolyCollection_1">
    <defs>
     <path id="m8acd5da7ab" d="M 88.789347 -74.533772 
L 88.789347 -70.86189 
L 122.607528 -123.715814 
L 156.42571 -80.189621 
L 190.243892 -78.033443 
L 291.698438 -131.257008 
L 494.607528 -65.028079 
L 494.607528 -88.965541 
L 494.607528 -88.965541 
L 291.698438 -184.168231 
L 190.243892 -149.284013 
L 156.42571 -167.331616 
L 122.607528 -127.267307 
L 88.789347 -74.533772 
z
" style="stroke: #029e73; stroke-opacity: 0.2"/>
    </defs>
    <g clip-path="url(#p3863e529a7)">
     <use xlink:href="#m8acd5da7ab" x="0" y="328.930313" style="fill: #029e73; fill-opacity: 0.2; stroke: #029e73; stroke-opacity: 0.2"/>
    </g>
   </g>
   <g id="PolyCollection_2">
    <defs>
     <path id="me7eae53ccd" d="M 88.789347 -103.410902 
L 88.789347 -85.039813 
L 122.607528 -84.073436 
L 156.42571 -94.759721 
L 190.243892 -83.220479 
L 291.698438 -62.284858 
L 494.607528 -108.204647 
L 494.607528 -155.567582 
L 494.607528 -155.567582 
L 291.698438 -243.597499 
L 190.243892 -136.075054 
L 156.42571 -137.974732 
L 122.607528 -121.227006 
L 88.789347 -103.410902 
z
" style="stroke: #cc78bc; stroke-opacity: 0.2"/>
    </defs>
    <g clip-path="url(#p3863e529a7)">
     <use xlink:href="#me7eae53ccd" x="0" y="328.930313" style="fill: #cc78bc; fill-opacity: 0.2; stroke: #cc78bc; stroke-opacity: 0.2"/>
    </g>
   </g>
   <g id="PolyCollection_3">
    <defs>
     <path id="md6cb45cf8d" d="M 88.789347 -93.812107 
L 88.789347 -65.698772 
L 122.607528 -68.094953 
L 156.42571 -73.150584 
L 190.243892 -67.776347 
L 291.698438 -70.39976 
L 494.607528 -83.283682 
L 494.607528 -88.969957 
L 494.607528 -88.969957 
L 291.698438 -84.24178 
L 190.243892 -78.979476 
L 156.42571 -83.779962 
L 122.607528 -84.296363 
L 88.789347 -93.812107 
z
" style="stroke: #d55e00; stroke-opacity: 0.2"/>
    </defs>
    <g clip-path="url(#p3863e529a7)">
     <use xlink:href="#md6cb45cf8d" x="0" y="328.930313" style="fill: #d55e00; fill-opacity: 0.2; stroke: #d55e00; stroke-opacity: 0.2"/>
    </g>
   </g>
   <g id="PathCollection_1">
    <path d="M 156.42571 240.979042 
C 157.751726 240.979042 159.02361 240.45221 159.961244 239.514576 
C 160.898879 238.576941 161.42571 237.305057 161.42571 235.979042 
C 161.42571 234.653026 160.898879 233.381142 159.961244 232.443508 
C 159.02361 231.505873 157.751726 230.979042 156.42571 230.979042 
C 155.099695 230.979042 153.827811 231.505873 152.890176 232.443508 
C 151.952542 233.381142 151.42571 234.653026 151.42571 235.979042 
C 151.42571 237.305057 151.952542 238.576941 152.890176 239.514576 
C 153.827811 240.45221 155.099695 240.979042 156.42571 240.979042 
z
" clip-path="url(#p3863e529a7)" style="fill: #029e73; stroke: #ffffff; stroke-width: 0.8"/>
    <path d="M 88.789347 262.530688 
C 90.115362 262.530688 91.387246 262.003856 92.32488 261.066222 
C 93.262515 260.128587 93.789347 258.856703 93.789347 257.530688 
C 93.789347 256.204672 93.262515 254.932788 92.32488 253.995154 
C 91.387246 253.057519 90.115362 252.530688 88.789347 252.530688 
C 87.463331 252.530688 86.191447 253.057519 85.253813 253.995154 
C 84.316178 254.932788 83.789347 256.204672 83.789347 257.530688 
C 83.789347 258.856703 84.316178 260.128587 85.253813 261.066222 
C 86.191447 262.003856 87.463331 262.530688 88.789347 262.530688 
z
" clip-path="url(#p3863e529a7)" style="fill: #029e73; stroke: #ffffff; stroke-width: 0.8"/>
    <path d="M 122.607528 207.183109 
C 123.933544 207.183109 125.205428 206.656278 126.143062 205.718643 
C 127.080697 204.781009 127.607528 203.509125 127.607528 202.183109 
C 127.607528 200.857094 127.080697 199.58521 126.143062 198.647576 
C 125.205428 197.709941 123.933544 197.183109 122.607528 197.183109 
C 121.281513 197.183109 120.009629 197.709941 119.071995 198.647576 
C 118.13436 199.58521 117.607528 200.857094 117.607528 202.183109 
C 117.607528 203.509125 118.13436 204.781009 119.071995 205.718643 
C 120.009629 206.656278 121.281513 207.183109 122.607528 207.183109 
z
" clip-path="url(#p3863e529a7)" style="fill: #029e73; stroke: #ffffff; stroke-width: 0.8"/>
    <path d="M 190.243892 245.462465 
C 191.569908 245.462465 192.841791 244.935634 193.779426 243.997999 
C 194.717061 243.060364 195.243892 241.788481 195.243892 240.462465 
C 195.243892 239.13645 194.717061 237.864566 193.779426 236.926931 
C 192.841791 235.989297 191.569908 235.462465 190.243892 235.462465 
C 188.917877 235.462465 187.645993 235.989297 186.708358 236.926931 
C 185.770724 237.864566 185.243892 239.13645 185.243892 240.462465 
C 185.243892 241.788481 185.770724 243.060364 186.708358 243.997999 
C 187.645993 244.935634 188.917877 245.462465 190.243892 245.462465 
z
" clip-path="url(#p3863e529a7)" style="fill: #029e73; stroke: #ffffff; stroke-width: 0.8"/>
    <path d="M 291.698438 157.510751 
C 293.024453 157.510751 294.296337 156.983919 295.233971 156.046285 
C 296.171606 155.10865 296.698438 153.836766 296.698438 152.510751 
C 296.698438 151.184735 296.171606 149.912851 295.233971 148.975217 
C 294.296337 148.037582 293.024453 147.510751 291.698438 147.510751 
C 290.372422 147.510751 289.100538 148.037582 288.162904 148.975217 
C 287.225269 149.912851 286.698438 151.184735 286.698438 152.510751 
C 286.698438 153.836766 287.225269 155.10865 288.162904 156.046285 
C 289.100538 156.983919 290.372422 157.510751 291.698438 157.510751 
z
" clip-path="url(#p3863e529a7)" style="fill: #029e73; stroke: #ffffff; stroke-width: 0.8"/>
    <path d="M 291.698438 194.924635 
C 293.024453 194.924635 294.296337 194.397804 295.233971 193.460169 
C 296.171606 192.522535 296.698438 191.250651 296.698438 189.924635 
C 296.698438 188.59862 296.171606 187.326736 295.233971 186.389101 
C 294.296337 185.451467 293.024453 184.924635 291.698438 184.924635 
C 290.372422 184.924635 289.100538 185.451467 288.162904 186.389101 
C 287.225269 187.326736 286.698438 188.59862 286.698438 189.924635 
C 286.698438 191.250651 287.225269 192.522535 288.162904 193.460169 
C 289.100538 194.397804 290.372422 194.924635 291.698438 194.924635 
z
" clip-path="url(#p3863e529a7)" style="fill: #029e73; stroke: #ffffff; stroke-width: 0.8"/>
    <path d="M 190.243892 195.080704 
C 191.569908 195.080704 192.841791 194.553872 193.779426 193.616238 
C 194.717061 192.678603 195.243892 191.406719 195.243892 190.080704 
C 195.243892 188.754688 194.717061 187.482805 193.779426 186.54517 
C 192.841791 185.607535 191.569908 185.080704 190.243892 185.080704 
C 188.917877 185.080704 187.645993 185.607535 186.708358 186.54517 
C 185.770724 187.482805 185.243892 188.754688 185.243892 190.080704 
C 185.243892 191.406719 185.770724 192.678603 186.708358 193.616238 
C 187.645993 194.553872 188.917877 195.080704 190.243892 195.080704 
z
" clip-path="url(#p3863e529a7)" style="fill: #029e73; stroke: #ffffff; stroke-width: 0.8"/>
    <path d="M 122.607528 209.694394 
C 123.933544 209.694394 125.205428 209.167563 126.143062 208.229928 
C 127.080697 207.292293 127.607528 206.02041 127.607528 204.694394 
C 127.607528 203.368379 127.080697 202.096495 126.143062 201.15886 
C 125.205428 200.221226 123.933544 199.694394 122.607528 199.694394 
C 121.281513 199.694394 120.009629 200.221226 119.071995 201.15886 
C 118.13436 202.096495 117.607528 203.368379 117.607528 204.694394 
C 117.607528 206.02041 118.13436 207.292293 119.071995 208.229928 
C 120.009629 209.167563 121.281513 209.694394 122.607528 209.694394 
z
" clip-path="url(#p3863e529a7)" style="fill: #029e73; stroke: #ffffff; stroke-width: 0.8"/>
    <path d="M 156.42571 179.360346 
C 157.751726 179.360346 159.02361 178.833514 159.961244 177.89588 
C 160.898879 176.958245 161.42571 175.686361 161.42571 174.360346 
C 161.42571 173.03433 160.898879 171.762446 159.961244 170.824812 
C 159.02361 169.887177 157.751726 169.360346 156.42571 169.360346 
C 155.099695 169.360346 153.827811 169.887177 152.890176 170.824812 
C 151.952542 171.762446 151.42571 173.03433 151.42571 174.360346 
C 151.42571 175.686361 151.952542 176.958245 152.890176 177.89588 
C 153.827811 178.833514 155.099695 179.360346 156.42571 179.360346 
z
" clip-path="url(#p3863e529a7)" style="fill: #029e73; stroke: #ffffff; stroke-width: 0.8"/>
    <path d="M 88.789347 259.934275 
C 90.115362 259.934275 91.387246 259.407443 92.32488 258.469809 
C 93.262515 257.532174 93.789347 256.26029 93.789347 254.934275 
C 93.789347 253.608259 93.262515 252.336376 92.32488 251.398741 
C 91.387246 250.461106 90.115362 249.934275 88.789347 249.934275 
C 87.463331 249.934275 86.191447 250.461106 85.253813 251.398741 
C 84.316178 252.336376 83.789347 253.608259 83.789347 254.934275 
C 83.789347 256.26029 84.316178 257.532174 85.253813 258.469809 
C 86.191447 259.407443 87.463331 259.934275 88.789347 259.934275 
z
" clip-path="url(#p3863e529a7)" style="fill: #029e73; stroke: #ffffff; stroke-width: 0.8"/>
    <path d="M 494.607528 265.396674 
C 495.933544 265.396674 497.205428 264.869842 498.143062 263.932208 
C 499.080697 262.994573 499.607528 261.722689 499.607528 260.396674 
C 499.607528 259.070658 499.080697 257.798774 498.143062 256.86114 
C 497.205428 255.923505 495.933544 255.396674 494.607528 255.396674 
C 493.281513 255.396674 492.009629 255.923505 491.071995 256.86114 
C 490.13436 257.798774 489.607528 259.070658 489.607528 260.396674 
C 489.607528 261.722689 490.13436 262.994573 491.071995 263.932208 
C 492.009629 264.869842 493.281513 265.396674 494.607528 265.396674 
z
" clip-path="url(#p3863e529a7)" style="fill: #029e73; stroke: #ffffff; stroke-width: 0.8"/>
    <path d="M 494.607528 248.470331 
C 495.933544 248.470331 497.205428 247.9435 498.143062 247.005865 
C 499.080697 246.068231 499.607528 244.796347 499.607528 243.470331 
C 499.607528 242.144316 499.080697 240.872432 498.143062 239.934798 
C 497.205428 238.997163 495.933544 238.470331 494.607528 238.470331 
C 493.281513 238.470331 492.009629 238.997163 491.071995 239.934798 
C 490.13436 240.872432 489.607528 242.144316 489.607528 243.470331 
C 489.607528 244.796347 490.13436 246.068231 491.071995 247.005865 
C 492.009629 247.9435 493.281513 248.470331 494.607528 248.470331 
z
" clip-path="url(#p3863e529a7)" style="fill: #029e73; stroke: #ffffff; stroke-width: 0.8"/>
    <path d="M 190.243892 237.403653 
C 191.569908 237.403653 192.841791 236.876822 193.779426 235.939187 
C 194.717061 235.001553 195.243892 233.729669 195.243892 232.403653 
C 195.243892 231.077638 194.717061 229.805754 193.779426 228.868119 
C 192.841791 227.930485 191.569908 227.403653 190.243892 227.403653 
C 188.917877 227.403653 187.645993 227.930485 186.708358 228.868119 
C 185.770724 229.805754 185.243892 231.077638 185.243892 232.403653 
C 185.243892 233.729669 185.770724 235.001553 186.708358 235.939187 
C 187.645993 236.876822 188.917877 237.403653 190.243892 237.403653 
z
" clip-path="url(#p3863e529a7)" style="fill: #cc78bc; stroke: #ffffff; stroke-width: 0.8"/>
    <path d="M 291.698438 230.054244 
C 293.024453 230.054244 294.296337 229.527413 295.233971 228.589778 
C 296.171606 227.652143 296.698438 226.38026 296.698438 225.054244 
C 296.698438 223.728229 296.171606 222.456345 295.233971 221.51871 
C 294.296337 220.581076 293.024453 220.054244 291.698438 220.054244 
C 290.372422 220.054244 289.100538 220.581076 288.162904 221.51871 
C 287.225269 222.456345 286.698438 223.728229 286.698438 225.054244 
C 286.698438 226.38026 287.225269 227.652143 288.162904 228.589778 
C 289.100538 229.527413 290.372422 230.054244 291.698438 230.054244 
z
" clip-path="url(#p3863e529a7)" style="fill: #cc78bc; stroke: #ffffff; stroke-width: 0.8"/>
    <path d="M 190.243892 179.856928 
C 191.569908 179.856928 192.841791 179.330096 193.779426 178.392461 
C 194.717061 177.454827 195.243892 176.182943 195.243892 174.856928 
C 195.243892 173.530912 194.717061 172.259028 193.779426 171.321394 
C 192.841791 170.383759 191.569908 169.856928 190.243892 169.856928 
C 188.917877 169.856928 187.645993 170.383759 186.708358 171.321394 
C 185.770724 172.259028 185.243892 173.530912 185.243892 174.856928 
C 185.243892 176.182943 185.770724 177.454827 186.708358 178.392461 
C 187.645993 179.330096 188.917877 179.856928 190.243892 179.856928 
z
" clip-path="url(#p3863e529a7)" style="fill: #cc78bc; stroke: #ffffff; stroke-width: 0.8"/>
    <path d="M 88.789347 230.792023 
C 90.115362 230.792023 91.387246 230.265191 92.32488 229.327557 
C 93.262515 228.389922 93.789347 227.118038 93.789347 225.792023 
C 93.789347 224.466007 93.262515 223.194123 92.32488 222.256489 
C 91.387246 221.318854 90.115362 220.792023 88.789347 220.792023 
C 87.463331 220.792023 86.191447 221.318854 85.253813 222.256489 
C 84.316178 223.194123 83.789347 224.466007 83.789347 225.792023 
C 83.789347 227.118038 84.316178 228.389922 85.253813 229.327557 
C 86.191447 230.265191 87.463331 230.792023 88.789347 230.792023 
z
" clip-path="url(#p3863e529a7)" style="fill: #cc78bc; stroke: #ffffff; stroke-width: 0.8"/>
    <path d="M 190.243892 235.601771 
C 191.569908 235.601771 192.841791 235.07494 193.779426 234.137305 
C 194.717061 233.199671 195.243892 231.927787 195.243892 230.601771 
C 195.243892 229.275756 194.717061 228.003872 193.779426 227.066237 
C 192.841791 226.128603 191.569908 225.601771 190.243892 225.601771 
C 188.917877 225.601771 187.645993 226.128603 186.708358 227.066237 
C 185.770724 228.003872 185.243892 229.275756 185.243892 230.601771 
C 185.243892 231.927787 185.770724 233.199671 186.708358 234.137305 
C 187.645993 235.07494 188.917877 235.601771 190.243892 235.601771 
z
" clip-path="url(#p3863e529a7)" style="fill: #cc78bc; stroke: #ffffff; stroke-width: 0.8"/>
    <path d="M 190.243892 221.626543 
C 191.569908 221.626543 192.841791 221.099712 193.779426 220.162077 
C 194.717061 219.224442 195.243892 217.952559 195.243892 216.626543 
C 195.243892 215.300528 194.717061 214.028644 193.779426 213.091009 
C 192.841791 212.153375 191.569908 211.626543 190.243892 211.626543 
C 188.917877 211.626543 187.645993 212.153375 186.708358 213.091009 
C 185.770724 214.028644 185.243892 215.300528 185.243892 216.626543 
C 185.243892 217.952559 185.770724 219.224442 186.708358 220.162077 
C 187.645993 221.099712 188.917877 221.626543 190.243892 221.626543 
z
" clip-path="url(#p3863e529a7)" style="fill: #cc78bc; stroke: #ffffff; stroke-width: 0.8"/>
    <path d="M 88.789347 244.781439 
C 90.115362 244.781439 91.387246 244.254607 92.32488 243.316973 
C 93.262515 242.379338 93.789347 241.107454 93.789347 239.781439 
C 93.789347 238.455423 93.262515 237.183539 92.32488 236.245905 
C 91.387246 235.30827 90.115362 234.781439 88.789347 234.781439 
C 87.463331 234.781439 86.191447 235.30827 85.253813 236.245905 
C 84.316178 237.183539 83.789347 238.455423 83.789347 239.781439 
C 83.789347 241.107454 84.316178 242.379338 85.253813 243.316973 
C 86.191447 244.254607 87.463331 244.781439 88.789347 244.781439 
z
" clip-path="url(#p3863e529a7)" style="fill: #cc78bc; stroke: #ffffff; stroke-width: 0.8"/>
    <path d="M 291.698438 234.59442 
C 293.024453 234.59442 294.296337 234.067588 295.233971 233.129954 
C 296.171606 232.192319 296.698438 230.920435 296.698438 229.59442 
C 296.698438 228.268404 296.171606 226.99652 295.233971 226.058886 
C 294.296337 225.121251 293.024453 224.59442 291.698438 224.59442 
C 290.372422 224.59442 289.100538 225.121251 288.162904 226.058886 
C 287.225269 226.99652 286.698438 228.268404 286.698438 229.59442 
C 286.698438 230.920435 287.225269 232.192319 288.162904 233.129954 
C 289.100538 234.067588 290.372422 234.59442 291.698438 234.59442 
z
" clip-path="url(#p3863e529a7)" style="fill: #cc78bc; stroke: #ffffff; stroke-width: 0.8"/>
    <path d="M 156.42571 222.165689 
C 157.751726 222.165689 159.02361 221.638857 159.961244 220.701223 
C 160.898879 219.763588 161.42571 218.491704 161.42571 217.165689 
C 161.42571 215.839673 160.898879 214.56779 159.961244 213.630155 
C 159.02361 212.692521 157.751726 212.165689 156.42571 212.165689 
C 155.099695 212.165689 153.827811 212.692521 152.890176 213.630155 
C 151.952542 214.56779 151.42571 215.839673 151.42571 217.165689 
C 151.42571 218.491704 151.952542 219.763588 152.890176 220.701223 
C 153.827811 221.638857 155.099695 222.165689 156.42571 222.165689 
z
" clip-path="url(#p3863e529a7)" style="fill: #cc78bc; stroke: #ffffff; stroke-width: 0.8"/>
    <path d="M 291.698438 24.554545 
C 293.024453 24.554545 294.296337 24.027714 295.233971 23.090079 
C 296.171606 22.152445 296.698438 20.880561 296.698438 19.554545 
C 296.698438 18.22853 296.171606 16.956646 295.233971 16.019012 
C 294.296337 15.081377 293.024453 14.554545 291.698438 14.554545 
C 290.372422 14.554545 289.100538 15.081377 288.162904 16.019012 
C 287.225269 16.956646 286.698438 18.22853 286.698438 19.554545 
C 286.698438 20.880561 287.225269 22.152445 288.162904 23.090079 
C 289.100538 24.027714 290.372422 24.554545 291.698438 24.554545 
z
" clip-path="url(#p3863e529a7)" style="fill: #cc78bc; stroke: #ffffff; stroke-width: 0.8"/>
    <path d="M 291.698438 236.821943 
C 293.024453 236.821943 294.296337 236.295112 295.233971 235.357477 
C 296.171606 234.419843 296.698438 233.147959 296.698438 231.821943 
C 296.698438 230.495928 296.171606 229.224044 295.233971 228.286409 
C 294.296337 227.348775 293.024453 226.821943 291.698438 226.821943 
C 290.372422 226.821943 289.100538 227.348775 288.162904 228.286409 
C 287.225269 229.224044 286.698438 230.495928 286.698438 231.821943 
C 286.698438 233.147959 287.225269 234.419843 288.162904 235.357477 
C 289.100538 236.295112 290.372422 236.821943 291.698438 236.821943 
z
" clip-path="url(#p3863e529a7)" style="fill: #cc78bc; stroke: #ffffff; stroke-width: 0.8"/>
    <path d="M 494.607528 199.124298 
C 495.933544 199.124298 497.205428 198.597466 498.143062 197.659832 
C 499.080697 196.722197 499.607528 195.450313 499.607528 194.124298 
C 499.607528 192.798282 499.080697 191.526398 498.143062 190.588764 
C 497.205428 189.651129 495.933544 189.124298 494.607528 189.124298 
C 493.281513 189.124298 492.009629 189.651129 491.071995 190.588764 
C 490.13436 191.526398 489.607528 192.798282 489.607528 194.124298 
C 489.607528 195.450313 490.13436 196.722197 491.071995 197.659832 
C 492.009629 198.597466 493.281513 199.124298 494.607528 199.124298 
z
" clip-path="url(#p3863e529a7)" style="fill: #cc78bc; stroke: #ffffff; stroke-width: 0.8"/>
    <path d="M 494.607528 203.309772 
C 495.933544 203.309772 497.205428 202.782941 498.143062 201.845306 
C 499.080697 200.907672 499.607528 199.635788 499.607528 198.309772 
C 499.607528 196.983757 499.080697 195.711873 498.143062 194.774238 
C 497.205428 193.836604 495.933544 193.309772 494.607528 193.309772 
C 493.281513 193.309772 492.009629 193.836604 491.071995 194.774238 
C 490.13436 195.711873 489.607528 196.983757 489.607528 198.309772 
C 489.607528 199.635788 490.13436 200.907672 491.071995 201.845306 
C 492.009629 202.782941 493.281513 203.309772 494.607528 203.309772 
z
" clip-path="url(#p3863e529a7)" style="fill: #cc78bc; stroke: #ffffff; stroke-width: 0.8"/>
    <path d="M 494.607528 208.99918 
C 495.933544 208.99918 497.205428 208.472348 498.143062 207.534714 
C 499.080697 206.597079 499.607528 205.325195 499.607528 203.99918 
C 499.607528 202.673164 499.080697 201.40128 498.143062 200.463646 
C 497.205428 199.526011 495.933544 198.99918 494.607528 198.99918 
C 493.281513 198.99918 492.009629 199.526011 491.071995 200.463646 
C 490.13436 201.40128 489.607528 202.673164 489.607528 203.99918 
C 489.607528 205.325195 490.13436 206.597079 491.071995 207.534714 
C 492.009629 208.472348 493.281513 208.99918 494.607528 208.99918 
z
" clip-path="url(#p3863e529a7)" style="fill: #cc78bc; stroke: #ffffff; stroke-width: 0.8"/>
    <path d="M 494.607528 166.449221 
C 495.933544 166.449221 497.205428 165.92239 498.143062 164.984755 
C 499.080697 164.047121 499.607528 162.775237 499.607528 161.449221 
C 499.607528 160.123206 499.080697 158.851322 498.143062 157.913687 
C 497.205428 156.976053 495.933544 156.449221 494.607528 156.449221 
C 493.281513 156.449221 492.009629 156.976053 491.071995 157.913687 
C 490.13436 158.851322 489.607528 160.123206 489.607528 161.449221 
C 489.607528 162.775237 490.13436 164.047121 491.071995 164.984755 
C 492.009629 165.92239 493.281513 166.449221 494.607528 166.449221 
z
" clip-path="url(#p3863e529a7)" style="fill: #cc78bc; stroke: #ffffff; stroke-width: 0.8"/>
    <path d="M 291.698438 178.920516 
C 293.024453 178.920516 294.296337 178.393685 295.233971 177.45605 
C 296.171606 176.518416 296.698438 175.246532 296.698438 173.920516 
C 296.698438 172.594501 296.171606 171.322617 295.233971 170.384982 
C 294.296337 169.447348 293.024453 168.920516 291.698438 168.920516 
C 290.372422 168.920516 289.100538 169.447348 288.162904 170.384982 
C 287.225269 171.322617 286.698438 172.594501 286.698438 173.920516 
C 286.698438 175.246532 287.225269 176.518416 288.162904 177.45605 
C 289.100538 178.393685 290.372422 178.920516 291.698438 178.920516 
z
" clip-path="url(#p3863e529a7)" style="fill: #cc78bc; stroke: #ffffff; stroke-width: 0.8"/>
    <path d="M 190.243892 246.923834 
C 191.569908 246.923834 192.841791 246.397003 193.779426 245.459368 
C 194.717061 244.521733 195.243892 243.24985 195.243892 241.923834 
C 195.243892 240.597819 194.717061 239.325935 193.779426 238.3883 
C 192.841791 237.450666 191.569908 236.923834 190.243892 236.923834 
C 188.917877 236.923834 187.645993 237.450666 186.708358 238.3883 
C 185.770724 239.325935 185.243892 240.597819 185.243892 241.923834 
C 185.243892 243.24985 185.770724 244.521733 186.708358 245.459368 
C 187.645993 246.397003 188.917877 246.923834 190.243892 246.923834 
z
" clip-path="url(#p3863e529a7)" style="fill: #cc78bc; stroke: #ffffff; stroke-width: 0.8"/>
    <path d="M 494.607528 232.33852 
C 495.933544 232.33852 497.205428 231.811688 498.143062 230.874054 
C 499.080697 229.936419 499.607528 228.664535 499.607528 227.33852 
C 499.607528 226.012504 499.080697 224.740621 498.143062 223.802986 
C 497.205428 222.865352 495.933544 222.33852 494.607528 222.33852 
C 493.281513 222.33852 492.009629 222.865352 491.071995 223.802986 
C 490.13436 224.740621 489.607528 226.012504 489.607528 227.33852 
C 489.607528 228.664535 490.13436 229.936419 491.071995 230.874054 
C 492.009629 231.811688 493.281513 232.33852 494.607528 232.33852 
z
" clip-path="url(#p3863e529a7)" style="fill: #cc78bc; stroke: #ffffff; stroke-width: 0.8"/>
    <path d="M 122.607528 247.675801 
C 123.933544 247.675801 125.205428 247.148969 126.143062 246.211335 
C 127.080697 245.2737 127.607528 244.001816 127.607528 242.675801 
C 127.607528 241.349785 127.080697 240.077901 126.143062 239.140267 
C 125.205428 238.202632 123.933544 237.675801 122.607528 237.675801 
C 121.281513 237.675801 120.009629 238.202632 119.071995 239.140267 
C 118.13436 240.077901 117.607528 241.349785 117.607528 242.675801 
C 117.607528 244.001816 118.13436 245.2737 119.071995 246.211335 
C 120.009629 247.148969 121.281513 247.675801 122.607528 247.675801 
z
" clip-path="url(#p3863e529a7)" style="fill: #cc78bc; stroke: #ffffff; stroke-width: 0.8"/>
    <path d="M 122.607528 238.368441 
C 123.933544 238.368441 125.205428 237.841609 126.143062 236.903975 
C 127.080697 235.96634 127.607528 234.694456 127.607528 233.368441 
C 127.607528 232.042425 127.080697 230.770541 126.143062 229.832907 
C 125.205428 228.895272 123.933544 228.368441 122.607528 228.368441 
C 121.281513 228.368441 120.009629 228.895272 119.071995 229.832907 
C 118.13436 230.770541 117.607528 232.042425 117.607528 233.368441 
C 117.607528 234.694456 118.13436 235.96634 119.071995 236.903975 
C 120.009629 237.841609 121.281513 238.368441 122.607528 238.368441 
z
" clip-path="url(#p3863e529a7)" style="fill: #cc78bc; stroke: #ffffff; stroke-width: 0.8"/>
    <path d="M 88.789347 238.836646 
C 90.115362 238.836646 91.387246 238.309815 92.32488 237.37218 
C 93.262515 236.434546 93.789347 235.162662 93.789347 233.836646 
C 93.789347 232.510631 93.262515 231.238747 92.32488 230.301112 
C 91.387246 229.363478 90.115362 228.836646 88.789347 228.836646 
C 87.463331 228.836646 86.191447 229.363478 85.253813 230.301112 
C 84.316178 231.238747 83.789347 232.510631 83.789347 233.836646 
C 83.789347 235.162662 84.316178 236.434546 85.253813 237.37218 
C 86.191447 238.309815 87.463331 238.836646 88.789347 238.836646 
z
" clip-path="url(#p3863e529a7)" style="fill: #cc78bc; stroke: #ffffff; stroke-width: 0.8"/>
    <path d="M 156.42571 185.106506 
C 157.751726 185.106506 159.02361 184.579674 159.961244 183.642039 
C 160.898879 182.704405 161.42571 181.432521 161.42571 180.106506 
C 161.42571 178.78049 160.898879 177.508606 159.961244 176.570972 
C 159.02361 175.633337 157.751726 175.106506 156.42571 175.106506 
C 155.099695 175.106506 153.827811 175.633337 152.890176 176.570972 
C 151.952542 177.508606 151.42571 178.78049 151.42571 180.106506 
C 151.42571 181.432521 151.952542 182.704405 152.890176 183.642039 
C 153.827811 184.579674 155.099695 185.106506 156.42571 185.106506 
z
" clip-path="url(#p3863e529a7)" style="fill: #cc78bc; stroke: #ffffff; stroke-width: 0.8"/>
    <path d="M 88.789347 231.558177 
C 90.115362 231.558177 91.387246 231.031346 92.32488 230.093711 
C 93.262515 229.156077 93.789347 227.884193 93.789347 226.558177 
C 93.789347 225.232162 93.262515 223.960278 92.32488 223.022643 
C 91.387246 222.085009 90.115362 221.558177 88.789347 221.558177 
C 87.463331 221.558177 86.191447 222.085009 85.253813 223.022643 
C 84.316178 223.960278 83.789347 225.232162 83.789347 226.558177 
C 83.789347 227.884193 84.316178 229.156077 85.253813 230.093711 
C 86.191447 231.031346 87.463331 231.558177 88.789347 231.558177 
z
" clip-path="url(#p3863e529a7)" style="fill: #cc78bc; stroke: #ffffff; stroke-width: 0.8"/>
    <path d="M 122.607528 200.472162 
C 123.933544 200.472162 125.205428 199.945331 126.143062 199.007696 
C 127.080697 198.070062 127.607528 196.798178 127.607528 195.472162 
C 127.607528 194.146147 127.080697 192.874263 126.143062 191.936628 
C 125.205428 190.998994 123.933544 190.472162 122.607528 190.472162 
C 121.281513 190.472162 120.009629 190.998994 119.071995 191.936628 
C 118.13436 192.874263 117.607528 194.146147 117.607528 195.472162 
C 117.607528 196.798178 118.13436 198.070062 119.071995 199.007696 
C 120.009629 199.945331 121.281513 200.472162 122.607528 200.472162 
z
" clip-path="url(#p3863e529a7)" style="fill: #cc78bc; stroke: #ffffff; stroke-width: 0.8"/>
    <path d="M 122.607528 228.40843 
C 123.933544 228.40843 125.205428 227.881599 126.143062 226.943964 
C 127.080697 226.00633 127.607528 224.734446 127.607528 223.40843 
C 127.607528 222.082415 127.080697 220.810531 126.143062 219.872897 
C 125.205428 218.935262 123.933544 218.40843 122.607528 218.40843 
C 121.281513 218.40843 120.009629 218.935262 119.071995 219.872897 
C 118.13436 220.810531 117.607528 222.082415 117.607528 223.40843 
C 117.607528 224.734446 118.13436 226.00633 119.071995 226.943964 
C 120.009629 227.881599 121.281513 228.40843 122.607528 228.40843 
z
" clip-path="url(#p3863e529a7)" style="fill: #cc78bc; stroke: #ffffff; stroke-width: 0.8"/>
    <path d="M 122.607528 241.475623 
C 123.933544 241.475623 125.205428 240.948792 126.143062 240.011157 
C 127.080697 239.073523 127.607528 237.801639 127.607528 236.475623 
C 127.607528 235.149608 127.080697 233.877724 126.143062 232.940089 
C 125.205428 232.002455 123.933544 231.475623 122.607528 231.475623 
C 121.281513 231.475623 120.009629 232.002455 119.071995 232.940089 
C 118.13436 233.877724 117.607528 235.149608 117.607528 236.475623 
C 117.607528 237.801639 118.13436 239.073523 119.071995 240.011157 
C 120.009629 240.948792 121.281513 241.475623 122.607528 241.475623 
z
" clip-path="url(#p3863e529a7)" style="fill: #cc78bc; stroke: #ffffff; stroke-width: 0.8"/>
    <path d="M 156.42571 242.241778 
C 157.751726 242.241778 159.02361 241.714946 159.961244 240.777312 
C 160.898879 239.839677 161.42571 238.567794 161.42571 237.241778 
C 161.42571 235.915763 160.898879 234.643879 159.961244 233.706244 
C 159.02361 232.76861 157.751726 232.241778 156.42571 232.241778 
C 155.099695 232.241778 153.827811 232.76861 152.890176 233.706244 
C 151.952542 234.643879 151.42571 235.915763 151.42571 237.241778 
C 151.42571 238.567794 151.952542 239.839677 152.890176 240.777312 
C 153.827811 241.714946 155.099695 242.241778 156.42571 242.241778 
z
" clip-path="url(#p3863e529a7)" style="fill: #cc78bc; stroke: #ffffff; stroke-width: 0.8"/>
    <path d="M 156.42571 228.607063 
C 157.751726 228.607063 159.02361 228.080232 159.961244 227.142597 
C 160.898879 226.204962 161.42571 224.933079 161.42571 223.607063 
C 161.42571 222.281048 160.898879 221.009164 159.961244 220.071529 
C 159.02361 219.133895 157.751726 218.607063 156.42571 218.607063 
C 155.099695 218.607063 153.827811 219.133895 152.890176 220.071529 
C 151.952542 221.009164 151.42571 222.281048 151.42571 223.607063 
C 151.42571 224.933079 151.952542 226.204962 152.890176 227.142597 
C 153.827811 228.080232 155.099695 228.607063 156.42571 228.607063 
z
" clip-path="url(#p3863e529a7)" style="fill: #cc78bc; stroke: #ffffff; stroke-width: 0.8"/>
    <path d="M 156.42571 209.694394 
C 157.751726 209.694394 159.02361 209.167563 159.961244 208.229928 
C 160.898879 207.292293 161.42571 206.02041 161.42571 204.694394 
C 161.42571 203.368379 160.898879 202.096495 159.961244 201.15886 
C 159.02361 200.221226 157.751726 199.694394 156.42571 199.694394 
C 155.099695 199.694394 153.827811 200.221226 152.890176 201.15886 
C 151.952542 202.096495 151.42571 203.368379 151.42571 204.694394 
C 151.42571 206.02041 151.952542 207.292293 152.890176 208.229928 
C 153.827811 209.167563 155.099695 209.694394 156.42571 209.694394 
z
" clip-path="url(#p3863e529a7)" style="fill: #cc78bc; stroke: #ffffff; stroke-width: 0.8"/>
    <path d="M 88.789347 252.55649 
C 90.115362 252.55649 91.387246 252.029658 92.32488 251.092023 
C 93.262515 250.154389 93.789347 248.882505 93.789347 247.55649 
C 93.789347 246.230474 93.262515 244.95859 92.32488 244.020956 
C 91.387246 243.083321 90.115362 242.55649 88.789347 242.55649 
C 87.463331 242.55649 86.191447 243.083321 85.253813 244.020956 
C 84.316178 244.95859 83.789347 246.230474 83.789347 247.55649 
C 83.789347 248.882505 84.316178 250.154389 85.253813 251.092023 
C 86.191447 252.029658 87.463331 252.55649 88.789347 252.55649 
z
" clip-path="url(#p3863e529a7)" style="fill: #cc78bc; stroke: #ffffff; stroke-width: 0.8"/>
    <path d="M 494.607528 246.81033 
C 495.933544 246.81033 497.205428 246.283498 498.143062 245.345864 
C 499.080697 244.408229 499.607528 243.136345 499.607528 241.81033 
C 499.607528 240.484314 499.080697 239.21243 498.143062 238.274796 
C 497.205428 237.337161 495.933544 236.81033 494.607528 236.81033 
C 493.281513 236.81033 492.009629 237.337161 491.071995 238.274796 
C 490.13436 239.21243 489.607528 240.484314 489.607528 241.81033 
C 489.607528 243.136345 490.13436 244.408229 491.071995 245.345864 
C 492.009629 246.283498 493.281513 246.81033 494.607528 246.81033 
z
" clip-path="url(#p3863e529a7)" style="fill: #d55e00; stroke: #ffffff; stroke-width: 0.8"/>
    <path d="M 88.789347 260.090343 
C 90.115362 260.090343 91.387246 259.563512 92.32488 258.625877 
C 93.262515 257.688243 93.789347 256.416359 93.789347 255.090343 
C 93.789347 253.764328 93.262515 252.492444 92.32488 251.55481 
C 91.387246 250.617175 90.115362 250.090343 88.789347 250.090343 
C 87.463331 250.090343 86.191447 250.617175 85.253813 251.55481 
C 84.316178 252.492444 83.789347 253.764328 83.789347 255.090343 
C 83.789347 256.416359 84.316178 257.688243 85.253813 258.625877 
C 86.191447 259.563512 87.463331 260.090343 88.789347 260.090343 
z
" clip-path="url(#p3863e529a7)" style="fill: #d55e00; stroke: #ffffff; stroke-width: 0.8"/>
    <path d="M 88.789347 264.307032 
C 90.115362 264.307032 91.387246 263.7802 92.32488 262.842565 
C 93.262515 261.904931 93.789347 260.633047 93.789347 259.307032 
C 93.789347 257.981016 93.262515 256.709132 92.32488 255.771498 
C 91.387246 254.833863 90.115362 254.307032 88.789347 254.307032 
C 87.463331 254.307032 86.191447 254.833863 85.253813 255.771498 
C 84.316178 256.709132 83.789347 257.981016 83.789347 259.307032 
C 83.789347 260.633047 84.316178 261.904931 85.253813 262.842565 
C 86.191447 263.7802 87.463331 264.307032 88.789347 264.307032 
z
" clip-path="url(#p3863e529a7)" style="fill: #d55e00; stroke: #ffffff; stroke-width: 0.8"/>
    <path d="M 88.789347 238.127244 
C 90.115362 238.127244 91.387246 237.600412 92.32488 236.662778 
C 93.262515 235.725143 93.789347 234.453259 93.789347 233.127244 
C 93.789347 231.801228 93.262515 230.529345 92.32488 229.59171 
C 91.387246 228.654075 90.115362 228.127244 88.789347 228.127244 
C 87.463331 228.127244 86.191447 228.654075 85.253813 229.59171 
C 84.316178 230.529345 83.789347 231.801228 83.789347 233.127244 
C 83.789347 234.453259 84.316178 235.725143 85.253813 236.662778 
C 86.191447 237.600412 87.463331 238.127244 88.789347 238.127244 
z
" clip-path="url(#p3863e529a7)" style="fill: #d55e00; stroke: #ffffff; stroke-width: 0.8"/>
    <path d="M 494.607528 251.009992 
C 495.933544 251.009992 497.205428 250.483161 498.143062 249.545526 
C 499.080697 248.607892 499.607528 247.336008 499.607528 246.009992 
C 499.607528 244.683977 499.080697 243.412093 498.143062 242.474458 
C 497.205428 241.536824 495.933544 241.009992 494.607528 241.009992 
C 493.281513 241.009992 492.009629 241.536824 491.071995 242.474458 
C 490.13436 243.412093 489.607528 244.683977 489.607528 246.009992 
C 489.607528 247.336008 490.13436 248.607892 491.071995 249.545526 
C 492.009629 250.483161 493.281513 251.009992 494.607528 251.009992 
z
" clip-path="url(#p3863e529a7)" style="fill: #d55e00; stroke: #ffffff; stroke-width: 0.8"/>
    <path d="M 494.607528 245.590158 
C 495.933544 245.590158 497.205428 245.063326 498.143062 244.125691 
C 499.080697 243.188057 499.607528 241.916173 499.607528 240.590158 
C 499.607528 239.264142 499.080697 237.992258 498.143062 237.054624 
C 497.205428 236.116989 495.933544 235.590158 494.607528 235.590158 
C 493.281513 235.590158 492.009629 236.116989 491.071995 237.054624 
C 490.13436 237.992258 489.607528 239.264142 489.607528 240.590158 
C 489.607528 241.916173 490.13436 243.188057 491.071995 244.125691 
C 492.009629 245.063326 493.281513 245.590158 494.607528 245.590158 
z
" clip-path="url(#p3863e529a7)" style="fill: #d55e00; stroke: #ffffff; stroke-width: 0.8"/>
    <path d="M 156.42571 257.011537 
C 157.751726 257.011537 159.02361 256.484705 159.961244 255.547071 
C 160.898879 254.609436 161.42571 253.337552 161.42571 252.011537 
C 161.42571 250.685521 160.898879 249.413637 159.961244 248.476003 
C 159.02361 247.538368 157.751726 247.011537 156.42571 247.011537 
C 155.099695 247.011537 153.827811 247.538368 152.890176 248.476003 
C 151.952542 249.413637 151.42571 250.685521 151.42571 252.011537 
C 151.42571 253.337552 151.952542 254.609436 152.890176 255.547071 
C 153.827811 256.484705 155.099695 257.011537 156.42571 257.011537 
z
" clip-path="url(#p3863e529a7)" style="fill: #d55e00; stroke: #ffffff; stroke-width: 0.8"/>
    <path d="M 291.698438 261.920602 
C 293.024453 261.920602 294.296337 261.39377 295.233971 260.456136 
C 296.171606 259.518501 296.698438 258.246617 296.698438 256.920602 
C 296.698438 255.594586 296.171606 254.322702 295.233971 253.385068 
C 294.296337 252.447433 293.024453 251.920602 291.698438 251.920602 
C 290.372422 251.920602 289.100538 252.447433 288.162904 253.385068 
C 287.225269 254.322702 286.698438 255.594586 286.698438 256.920602 
C 286.698438 258.246617 287.225269 259.518501 288.162904 260.456136 
C 289.100538 261.39377 290.372422 261.920602 291.698438 261.920602 
z
" clip-path="url(#p3863e529a7)" style="fill: #d55e00; stroke: #ffffff; stroke-width: 0.8"/>
    <path d="M 122.607528 249.619563 
C 123.933544 249.619563 125.205428 249.092732 126.143062 248.155097 
C 127.080697 247.217463 127.607528 245.945579 127.607528 244.619563 
C 127.607528 243.293548 127.080697 242.021664 126.143062 241.084029 
C 125.205428 240.146395 123.933544 239.619563 122.607528 239.619563 
C 121.281513 239.619563 120.009629 240.146395 119.071995 241.084029 
C 118.13436 242.021664 117.607528 243.293548 117.607528 244.619563 
C 117.607528 245.945579 118.13436 247.217463 119.071995 248.155097 
C 120.009629 249.092732 121.281513 249.619563 122.607528 249.619563 
z
" clip-path="url(#p3863e529a7)" style="fill: #d55e00; stroke: #ffffff; stroke-width: 0.8"/>
    <path d="M 291.698438 248.782469 
C 293.024453 248.782469 294.296337 248.255637 295.233971 247.318002 
C 296.171606 246.380368 296.698438 245.108484 296.698438 243.782469 
C 296.698438 242.456453 296.171606 241.184569 295.233971 240.246935 
C 294.296337 239.3093 293.024453 238.782469 291.698438 238.782469 
C 290.372422 238.782469 289.100538 239.3093 288.162904 240.246935 
C 287.225269 241.184569 286.698438 242.456453 286.698438 243.782469 
C 286.698438 245.108484 287.225269 246.380368 288.162904 247.318002 
C 289.100538 248.255637 290.372422 248.782469 291.698438 248.782469 
z
" clip-path="url(#p3863e529a7)" style="fill: #d55e00; stroke: #ffffff; stroke-width: 0.8"/>
    <path d="M 122.607528 257.763503 
C 123.933544 257.763503 125.205428 257.236672 126.143062 256.299037 
C 127.080697 255.361403 127.607528 254.089519 127.607528 252.763503 
C 127.607528 251.437488 127.080697 250.165604 126.143062 249.227969 
C 125.205428 248.290335 123.933544 247.763503 122.607528 247.763503 
C 121.281513 247.763503 120.009629 248.290335 119.071995 249.227969 
C 118.13436 250.165604 117.607528 251.437488 117.607528 252.763503 
C 117.607528 254.089519 118.13436 255.361403 119.071995 256.299037 
C 120.009629 257.236672 121.281513 257.763503 122.607528 257.763503 
z
" clip-path="url(#p3863e529a7)" style="fill: #d55e00; stroke: #ffffff; stroke-width: 0.8"/>
    <path d="M 122.607528 265.820896 
C 123.933544 265.820896 125.205428 265.294065 126.143062 264.35643 
C 127.080697 263.418796 127.607528 262.146912 127.607528 260.820896 
C 127.607528 259.494881 127.080697 258.222997 126.143062 257.285362 
C 125.205428 256.347728 123.933544 255.820896 122.607528 255.820896 
C 121.281513 255.820896 120.009629 256.347728 119.071995 257.285362 
C 118.13436 258.222997 117.607528 259.494881 117.607528 260.820896 
C 117.607528 262.146912 118.13436 263.418796 119.071995 264.35643 
C 120.009629 265.294065 121.281513 265.820896 122.607528 265.820896 
z
" clip-path="url(#p3863e529a7)" style="fill: #d55e00; stroke: #ffffff; stroke-width: 0.8"/>
    <path d="M 190.243892 266.910538 
C 191.569908 266.910538 192.841791 266.383707 193.779426 265.446072 
C 194.717061 264.508438 195.243892 263.236554 195.243892 261.910538 
C 195.243892 260.584523 194.717061 259.312639 193.779426 258.375005 
C 192.841791 257.43737 191.569908 256.910538 190.243892 256.910538 
C 188.917877 256.910538 187.645993 257.43737 186.708358 258.375005 
C 185.770724 259.312639 185.243892 260.584523 185.243892 261.910538 
C 185.243892 263.236554 185.770724 264.508438 186.708358 265.446072 
C 187.645993 266.383707 188.917877 266.910538 190.243892 266.910538 
z
" clip-path="url(#p3863e529a7)" style="fill: #d55e00; stroke: #ffffff; stroke-width: 0.8"/>
    <path d="M 190.243892 258.401966 
C 191.569908 258.401966 192.841791 257.875134 193.779426 256.9375 
C 194.717061 255.999865 195.243892 254.727981 195.243892 253.401966 
C 195.243892 252.07595 194.717061 250.804066 193.779426 249.866432 
C 192.841791 248.928797 191.569908 248.401966 190.243892 248.401966 
C 188.917877 248.401966 187.645993 248.928797 186.708358 249.866432 
C 185.770724 250.804066 185.243892 252.07595 185.243892 253.401966 
C 185.243892 254.727981 185.770724 255.999865 186.708358 256.9375 
C 187.645993 257.875134 188.917877 258.401966 190.243892 258.401966 
z
" clip-path="url(#p3863e529a7)" style="fill: #d55e00; stroke: #ffffff; stroke-width: 0.8"/>
    <path d="M 190.243892 256.344699 
C 191.569908 256.344699 192.841791 255.817867 193.779426 254.880232 
C 194.717061 253.942598 195.243892 252.670714 195.243892 251.344699 
C 195.243892 250.018683 194.717061 248.746799 193.779426 247.809165 
C 192.841791 246.87153 191.569908 246.344699 190.243892 246.344699 
C 188.917877 246.344699 187.645993 246.87153 186.708358 247.809165 
C 185.770724 248.746799 185.243892 250.018683 185.243892 251.344699 
C 185.243892 252.670714 185.770724 253.942598 186.708358 254.880232 
C 187.645993 255.817867 188.917877 256.344699 190.243892 256.344699 
z
" clip-path="url(#p3863e529a7)" style="fill: #d55e00; stroke: #ffffff; stroke-width: 0.8"/>
    <path d="M 156.42571 259.834959 
C 157.751726 259.834959 159.02361 259.308127 159.961244 258.370492 
C 160.898879 257.432858 161.42571 256.160974 161.42571 254.834959 
C 161.42571 253.508943 160.898879 252.237059 159.961244 251.299425 
C 159.02361 250.36179 157.751726 249.834959 156.42571 249.834959 
C 155.099695 249.834959 153.827811 250.36179 152.890176 251.299425 
C 151.952542 252.237059 151.42571 253.508943 151.42571 254.834959 
C 151.42571 256.160974 151.952542 257.432858 152.890176 258.370492 
C 153.827811 259.308127 155.099695 259.834959 156.42571 259.834959 
z
" clip-path="url(#p3863e529a7)" style="fill: #d55e00; stroke: #ffffff; stroke-width: 0.8"/>
    <path d="M 156.42571 249.548623 
C 157.751726 249.548623 159.02361 249.021792 159.961244 248.084157 
C 160.898879 247.146523 161.42571 245.874639 161.42571 244.548623 
C 161.42571 243.222608 160.898879 241.950724 159.961244 241.013089 
C 159.02361 240.075455 157.751726 239.548623 156.42571 239.548623 
C 155.099695 239.548623 153.827811 240.075455 152.890176 241.013089 
C 151.952542 241.950724 151.42571 243.222608 151.42571 244.548623 
C 151.42571 245.874639 151.952542 247.146523 152.890176 248.084157 
C 153.827811 249.021792 155.099695 249.548623 156.42571 249.548623 
z
" clip-path="url(#p3863e529a7)" style="fill: #d55e00; stroke: #ffffff; stroke-width: 0.8"/>
    <path d="M 291.698438 259.125556 
C 293.024453 259.125556 294.296337 258.598725 295.233971 257.66109 
C 296.171606 256.723455 296.698438 255.451572 296.698438 254.125556 
C 296.698438 252.799541 296.171606 251.527657 295.233971 250.590022 
C 294.296337 249.652388 293.024453 249.125556 291.698438 249.125556 
C 290.372422 249.125556 289.100538 249.652388 288.162904 250.590022 
C 287.225269 251.527657 286.698438 252.799541 286.698438 254.125556 
C 286.698438 255.451572 287.225269 256.723455 288.162904 257.66109 
C 289.100538 258.598725 290.372422 259.125556 291.698438 259.125556 
z
" clip-path="url(#p3863e529a7)" style="fill: #d55e00; stroke: #ffffff; stroke-width: 0.8"/>
   </g>
   <g id="line2d_15">
    <path d="M 88.789347 256.232481 
L 122.607528 203.438752 
L 156.42571 205.169694 
L 190.243892 215.271584 
L 291.698438 171.217693 
L 494.607528 251.933503 
" clip-path="url(#p3863e529a7)" style="fill: none; stroke: #029e73; stroke-width: 1.5; stroke-linecap: round"/>
   </g>
   <g id="line2d_16">
    <path d="M 88.789347 234.704955 
L 122.607528 226.280092 
L 156.42571 212.563086 
L 190.243892 219.282546 
L 291.698438 175.989134 
L 494.607528 197.044198 
" clip-path="url(#p3863e529a7)" style="fill: none; stroke: #cc78bc; stroke-width: 1.5; stroke-linecap: round"/>
   </g>
   <g id="line2d_17">
    <path d="M 88.789347 249.174873 
L 122.607528 252.734654 
L 156.42571 250.46504 
L 190.243892 255.552401 
L 291.698438 251.609542 
L 494.607528 242.803493 
" clip-path="url(#p3863e529a7)" style="fill: none; stroke: #d55e00; stroke-width: 1.5; stroke-linecap: round"/>
   </g>
   <g id="patch_3">
    <path d="M 68.498438 279 
L 68.498438 7.2 
" style="fill: none; stroke: #262626; stroke-width: 1.25; stroke-linejoin: miter; stroke-linecap: square"/>
   </g>
   <g id="patch_4">
    <path d="M 68.498438 279 
L 514.898438 279 
" style="fill: none; stroke: #262626; stroke-width: 1.25; stroke-linejoin: miter; stroke-linecap: square"/>
   </g>
  </g>
 </g>
 <defs>
  <clipPath id="p3863e529a7">
   <rect x="68.498438" y="7.2" width="446.4" height="271.8"/>
  </clipPath>
 </defs>
</svg>
