<?xml version="1.0" encoding="utf-8" standalone="no"?>
<!DOCTYPE svg PUBLIC "-//W3C//DTD SVG 1.1//EN"
  "http://www.w3.org/Graphics/SVG/1.1/DTD/svg11.dtd">
<svg xmlns:xlink="http://www.w3.org/1999/xlink" width="517.097812pt" height="328.930313pt" viewBox="0 0 517.097812 328.930313" xmlns="http://www.w3.org/2000/svg" version="1.1">
 <metadata>
  <rdf:RDF xmlns:dc="http://purl.org/dc/elements/1.1/" xmlns:cc="http://creativecommons.org/ns#" xmlns:rdf="http://www.w3.org/1999/02/22-rdf-syntax-ns#">
   <cc:Work>
    <dc:type rdf:resource="http://purl.org/dc/dcmitype/StillImage"/>
    <dc:date>2022-06-10T18:48:55.408629</dc:date>
    <dc:format>image/svg+xml</dc:format>
    <dc:creator>
     <cc:Agent>
      <dc:title>Matplotlib v3.5.2, https://matplotlib.org/</dc:title>
     </cc:Agent>
    </dc:creator>
   </cc:Work>
  </rdf:RDF>
 </metadata>
 <defs>
  <style type="text/css">*{stroke-linejoin: round; stroke-linecap: butt}</style>
 </defs>
 <g id="figure_1">
  <g id="patch_1">
   <path d="M 0 328.930313 
L 517.097812 328.930313 
L 517.097812 0 
L 0 0 
z
" style="fill: #ffffff"/>
  </g>
  <g id="axes_1">
   <g id="patch_2">
    <path d="M 63.497813 279 
L 509.897812 279 
L 509.897812 7.2 
L 63.497813 7.2 
z
" style="fill: #ffffff"/>
   </g>
   <g id="matplotlib.axis_1">
    <g id="xtick_1">
     <g id="line2d_1"/>
     <g id="text_1">
      <text style="fill: #262626; font: 18px 'sans-serif'; text-anchor: middle" x="286.697812" y="295.384063" transform="rotate(-0, 286.697812, 295.384063)">10</text>
     </g>
    </g>
    <g id="xtick_2">
     <g id="line2d_2"/>
     <g id="text_2">
      <text style="fill: #262626; font: 18px 'sans-serif'; text-anchor: middle" x="83.788722" y="295.384063" transform="rotate(-0, 83.788722, 295.384063)">8</text>
     </g>
    </g>
    <g id="xtick_3">
     <g id="line2d_3"/>
     <g id="text_3">
      <text style="fill: #262626; font: 18px 'sans-serif'; text-anchor: middle" x="185.243267" y="295.384063" transform="rotate(-0, 185.243267, 295.384063)">9</text>
     </g>
    </g>
    <g id="xtick_4">
     <g id="line2d_4"/>
     <g id="text_4">
      <text style="fill: #262626; font: 18px 'sans-serif'; text-anchor: middle" x="388.152358" y="295.384063" transform="rotate(-0, 388.152358, 295.384063)">11</text>
     </g>
    </g>
    <g id="xtick_5">
     <g id="line2d_5"/>
     <g id="text_5">
      <text style="fill: #262626; font: 18px 'sans-serif'; text-anchor: middle" x="489.606903" y="295.384063" transform="rotate(-0, 489.606903, 295.384063)">12</text>
     </g>
    </g>
    <g id="text_6">
     <text style="fill: #262626; font: 20px 'sans-serif'; text-anchor: middle" x="286.697812" y="317.520938" transform="rotate(-0, 286.697812, 317.520938)">Age (weeks)</text>
    </g>
   </g>
   <g id="matplotlib.axis_2">
    <g id="ytick_1">
     <g id="line2d_6"/>
     <g id="text_7">
      <text style="fill: #262626; font: 18px 'sans-serif'; text-anchor: end" x="59.997813" y="238.155715" transform="rotate(-0, 59.997813, 238.155715)">80</text>
     </g>
    </g>
    <g id="ytick_2">
     <g id="line2d_7"/>
     <g id="text_8">
      <text style="fill: #262626; font: 18px 'sans-serif'; text-anchor: end" x="59.997813" y="186.785463" transform="rotate(-0, 59.997813, 186.785463)">90</text>
     </g>
    </g>
    <g id="ytick_3">
     <g id="line2d_8"/>
     <g id="text_9">
      <text style="fill: #262626; font: 18px 'sans-serif'; text-anchor: end" x="59.997813" y="135.415212" transform="rotate(-0, 59.997813, 135.415212)">100</text>
     </g>
    </g>
    <g id="ytick_4">
     <g id="line2d_9"/>
     <g id="text_10">
      <text style="fill: #262626; font: 18px 'sans-serif'; text-anchor: end" x="59.997813" y="84.044961" transform="rotate(-0, 59.997813, 84.044961)">110</text>
     </g>
    </g>
    <g id="ytick_5">
     <g id="line2d_10"/>
     <g id="text_11">
      <text style="fill: #262626; font: 18px 'sans-serif'; text-anchor: end" x="59.997813" y="32.674709" transform="rotate(-0, 59.997813, 32.674709)">120</text>
     </g>
    </g>
    <g id="text_12">
     <text style="fill: #262626; font: 20px 'sans-serif'; text-anchor: middle" x="21.759375" y="143.1" transform="rotate(-90, 21.759375, 143.1)">Weight (g)</text>
    </g>
   </g>
   <g id="PathCollection_1">
    <path d="M 286.697812 204.864128 
C 288.023828 204.864128 289.295712 204.337296 290.233346 203.399662 
C 291.170981 202.462027 291.697812 201.190143 291.697812 199.864128 
C 291.697812 198.538112 291.170981 197.266228 290.233346 196.328594 
C 289.295712 195.390959 288.023828 194.864128 286.697812 194.864128 
C 285.371797 194.864128 284.099913 195.390959 283.162279 196.328594 
C 282.224644 197.266228 281.697812 198.538112 281.697812 199.864128 
C 281.697812 201.190143 282.224644 202.462027 283.162279 203.399662 
C 284.099913 204.337296 285.371797 204.864128 286.697812 204.864128 
z
" clip-path="url(#p088ff195a5)" style="fill: #029e73; stroke: #ffffff; stroke-width: 0.8"/>
    <path d="M 83.788722 259.316594 
C 85.114737 259.316594 86.386621 258.789763 87.324255 257.852128 
C 88.26189 256.914494 88.788722 255.64261 88.788722 254.316594 
C 88.788722 252.990579 88.26189 251.718695 87.324255 250.78106 
C 86.386621 249.843426 85.114737 249.316594 83.788722 249.316594 
C 82.462706 249.316594 81.190822 249.843426 80.253188 250.78106 
C 79.315553 251.718695 78.788722 252.990579 78.788722 254.316594 
C 78.788722 255.64261 79.315553 256.914494 80.253188 257.852128 
C 81.190822 258.789763 82.462706 259.316594 83.788722 259.316594 
z
" clip-path="url(#p088ff195a5)" style="fill: #029e73; stroke: #ffffff; stroke-width: 0.8"/>
    <path d="M 286.697812 207.43264 
C 288.023828 207.43264 289.295712 206.905809 290.233346 205.968174 
C 291.170981 205.03054 291.697812 203.758656 291.697812 202.43264 
C 291.697812 201.106625 291.170981 199.834741 290.233346 198.897106 
C 289.295712 197.959472 288.023828 197.43264 286.697812 197.43264 
C 285.371797 197.43264 284.099913 197.959472 283.162279 198.897106 
C 282.224644 199.834741 281.697812 201.106625 281.697812 202.43264 
C 281.697812 203.758656 282.224644 205.03054 283.162279 205.968174 
C 284.099913 206.905809 285.371797 207.43264 286.697812 207.43264 
z
" clip-path="url(#p088ff195a5)" style="fill: #029e73; stroke: #ffffff; stroke-width: 0.8"/>
    <path d="M 185.243267 231.576658 
C 186.569283 231.576658 187.841166 231.049827 188.778801 230.112192 
C 189.716436 229.174558 190.243267 227.902674 190.243267 226.576658 
C 190.243267 225.250643 189.716436 223.978759 188.778801 223.041125 
C 187.841166 222.10349 186.569283 221.576658 185.243267 221.576658 
C 183.917252 221.576658 182.645368 222.10349 181.707733 223.041125 
C 180.770099 223.978759 180.243267 225.250643 180.243267 226.576658 
C 180.243267 227.902674 180.770099 229.174558 181.707733 230.112192 
C 182.645368 231.049827 183.917252 231.576658 185.243267 231.576658 
z
" clip-path="url(#p088ff195a5)" style="fill: #029e73; stroke: #ffffff; stroke-width: 0.8"/>
    <path d="M 185.243267 230.549253 
C 186.569283 230.549253 187.841166 230.022422 188.778801 229.084787 
C 189.716436 228.147153 190.243267 226.875269 190.243267 225.549253 
C 190.243267 224.223238 189.716436 222.951354 188.778801 222.01372 
C 187.841166 221.076085 186.569283 220.549253 185.243267 220.549253 
C 183.917252 220.549253 182.645368 221.076085 181.707733 222.01372 
C 180.770099 222.951354 180.243267 224.223238 180.243267 225.549253 
C 180.243267 226.875269 180.770099 228.147153 181.707733 229.084787 
C 182.645368 230.022422 183.917252 230.549253 185.243267 230.549253 
z
" clip-path="url(#p088ff195a5)" style="fill: #029e73; stroke: #ffffff; stroke-width: 0.8"/>
    <path d="M 388.152358 190.480457 
C 389.478373 190.480457 390.750257 189.953626 391.687892 189.015991 
C 392.625526 188.078357 393.152358 186.806473 393.152358 185.480457 
C 393.152358 184.154442 392.625526 182.882558 391.687892 181.944923 
C 390.750257 181.007289 389.478373 180.480457 388.152358 180.480457 
C 386.826342 180.480457 385.554459 181.007289 384.616824 181.944923 
C 383.679189 182.882558 383.152358 184.154442 383.152358 185.480457 
C 383.152358 186.806473 383.679189 188.078357 384.616824 189.015991 
C 385.554459 189.953626 386.826342 190.480457 388.152358 190.480457 
z
" clip-path="url(#p088ff195a5)" style="fill: #029e73; stroke: #ffffff; stroke-width: 0.8"/>
    <path d="M 388.152358 183.288622 
C 389.478373 183.288622 390.750257 182.761791 391.687892 181.824156 
C 392.625526 180.886522 393.152358 179.614638 393.152358 178.288622 
C 393.152358 176.962607 392.625526 175.690723 391.687892 174.753088 
C 390.750257 173.815454 389.478373 173.288622 388.152358 173.288622 
C 386.826342 173.288622 385.554459 173.815454 384.616824 174.753088 
C 383.679189 175.690723 383.152358 176.962607 383.152358 178.288622 
C 383.152358 179.614638 383.679189 180.886522 384.616824 181.824156 
C 385.554459 182.761791 386.826342 183.288622 388.152358 183.288622 
z
" clip-path="url(#p088ff195a5)" style="fill: #029e73; stroke: #ffffff; stroke-width: 0.8"/>
    <path d="M 83.788722 256.748082 
C 85.114737 256.748082 86.386621 256.22125 87.324255 255.283616 
C 88.26189 254.345981 88.788722 253.074097 88.788722 251.748082 
C 88.788722 250.422066 88.26189 249.150182 87.324255 248.212548 
C 86.386621 247.274913 85.114737 246.748082 83.788722 246.748082 
C 82.462706 246.748082 81.190822 247.274913 80.253188 248.212548 
C 79.315553 249.150182 78.788722 250.422066 78.788722 251.748082 
C 78.788722 253.074097 79.315553 254.345981 80.253188 255.283616 
C 81.190822 256.22125 82.462706 256.748082 83.788722 256.748082 
z
" clip-path="url(#p088ff195a5)" style="fill: #029e73; stroke: #ffffff; stroke-width: 0.8"/>
    <path d="M 489.606903 173.014572 
C 490.932919 173.014572 492.204803 172.48774 493.142437 171.550106 
C 494.080072 170.612471 494.606903 169.340587 494.606903 168.014572 
C 494.606903 166.688556 494.080072 165.416673 493.142437 164.479038 
C 492.204803 163.541403 490.932919 163.014572 489.606903 163.014572 
C 488.280888 163.014572 487.009004 163.541403 486.07137 164.479038 
C 485.133735 165.416673 484.606903 166.688556 484.606903 168.014572 
C 484.606903 169.340587 485.133735 170.612471 486.07137 171.550106 
C 487.009004 172.48774 488.280888 173.014572 489.606903 173.014572 
z
" clip-path="url(#p088ff195a5)" style="fill: #029e73; stroke: #ffffff; stroke-width: 0.8"/>
    <path d="M 489.606903 162.226819 
C 490.932919 162.226819 492.204803 161.699988 493.142437 160.762353 
C 494.080072 159.824718 494.606903 158.552835 494.606903 157.226819 
C 494.606903 155.900804 494.080072 154.62892 493.142437 153.691285 
C 492.204803 152.753651 490.932919 152.226819 489.606903 152.226819 
C 488.280888 152.226819 487.009004 152.753651 486.07137 153.691285 
C 485.133735 154.62892 484.606903 155.900804 484.606903 157.226819 
C 484.606903 158.552835 485.133735 159.824718 486.07137 160.762353 
C 487.009004 161.699988 488.280888 162.226819 489.606903 162.226819 
z
" clip-path="url(#p088ff195a5)" style="fill: #029e73; stroke: #ffffff; stroke-width: 0.8"/>
    <path d="M 489.606903 80.548119 
C 490.932919 80.548119 492.204803 80.021288 493.142437 79.083653 
C 494.080072 78.146019 494.606903 76.874135 494.606903 75.548119 
C 494.606903 74.222104 494.080072 72.95022 493.142437 72.012586 
C 492.204803 71.074951 490.932919 70.548119 489.606903 70.548119 
C 488.280888 70.548119 487.009004 71.074951 486.07137 72.012586 
C 485.133735 72.95022 484.606903 74.222104 484.606903 75.548119 
C 484.606903 76.874135 485.133735 78.146019 486.07137 79.083653 
C 487.009004 80.021288 488.280888 80.548119 489.606903 80.548119 
z
" clip-path="url(#p088ff195a5)" style="fill: #cc78bc; stroke: #ffffff; stroke-width: 0.8"/>
    <path d="M 489.606903 87.226252 
C 490.932919 87.226252 492.204803 86.699421 493.142437 85.761786 
C 494.080072 84.824151 494.606903 83.552268 494.606903 82.226252 
C 494.606903 80.900237 494.080072 79.628353 493.142437 78.690718 
C 492.204803 77.753084 490.932919 77.226252 489.606903 77.226252 
C 488.280888 77.226252 487.009004 77.753084 486.07137 78.690718 
C 485.133735 79.628353 484.606903 80.900237 484.606903 82.226252 
C 484.606903 83.552268 485.133735 84.824151 486.07137 85.761786 
C 487.009004 86.699421 488.280888 87.226252 489.606903 87.226252 
z
" clip-path="url(#p088ff195a5)" style="fill: #cc78bc; stroke: #ffffff; stroke-width: 0.8"/>
    <path d="M 489.606903 107.774353 
C 490.932919 107.774353 492.204803 107.247521 493.142437 106.309887 
C 494.080072 105.372252 494.606903 104.100368 494.606903 102.774353 
C 494.606903 101.448337 494.080072 100.176453 493.142437 99.238819 
C 492.204803 98.301184 490.932919 97.774353 489.606903 97.774353 
C 488.280888 97.774353 487.009004 98.301184 486.07137 99.238819 
C 485.133735 100.176453 484.606903 101.448337 484.606903 102.774353 
C 484.606903 104.100368 485.133735 105.372252 486.07137 106.309887 
C 487.009004 107.247521 488.280888 107.774353 489.606903 107.774353 
z
" clip-path="url(#p088ff195a5)" style="fill: #cc78bc; stroke: #ffffff; stroke-width: 0.8"/>
    <path d="M 388.152358 43.561538 
C 389.478373 43.561538 390.750257 43.034707 391.687892 42.097072 
C 392.625526 41.159438 393.152358 39.887554 393.152358 38.561538 
C 393.152358 37.235523 392.625526 35.963639 391.687892 35.026005 
C 390.750257 34.08837 389.478373 33.561538 388.152358 33.561538 
C 386.826342 33.561538 385.554459 34.08837 384.616824 35.026005 
C 383.679189 35.963639 383.152358 37.235523 383.152358 38.561538 
C 383.152358 39.887554 383.679189 41.159438 384.616824 42.097072 
C 385.554459 43.034707 386.826342 43.561538 388.152358 43.561538 
z
" clip-path="url(#p088ff195a5)" style="fill: #cc78bc; stroke: #ffffff; stroke-width: 0.8"/>
    <path d="M 83.788722 179.179002 
C 85.114737 179.179002 86.386621 178.652171 87.324255 177.714536 
C 88.26189 176.776901 88.788722 175.505018 88.788722 174.179002 
C 88.788722 172.852987 88.26189 171.581103 87.324255 170.643468 
C 86.386621 169.705834 85.114737 169.179002 83.788722 169.179002 
C 82.462706 169.179002 81.190822 169.705834 80.253188 170.643468 
C 79.315553 171.581103 78.788722 172.852987 78.788722 174.179002 
C 78.788722 175.505018 79.315553 176.776901 80.253188 177.714536 
C 81.190822 178.652171 82.462706 179.179002 83.788722 179.179002 
z
" clip-path="url(#p088ff195a5)" style="fill: #cc78bc; stroke: #ffffff; stroke-width: 0.8"/>
    <path d="M 388.152358 187.911945 
C 389.478373 187.911945 390.750257 187.385113 391.687892 186.447479 
C 392.625526 185.509844 393.152358 184.23796 393.152358 182.911945 
C 393.152358 181.585929 392.625526 180.314045 391.687892 179.376411 
C 390.750257 178.438776 389.478373 177.911945 388.152358 177.911945 
C 386.826342 177.911945 385.554459 178.438776 384.616824 179.376411 
C 383.679189 180.314045 383.152358 181.585929 383.152358 182.911945 
C 383.152358 184.23796 383.679189 185.509844 384.616824 186.447479 
C 385.554459 187.385113 386.826342 187.911945 388.152358 187.911945 
z
" clip-path="url(#p088ff195a5)" style="fill: #cc78bc; stroke: #ffffff; stroke-width: 0.8"/>
    <path d="M 388.152358 82.089227 
C 389.478373 82.089227 390.750257 81.562395 391.687892 80.624761 
C 392.625526 79.687126 393.152358 78.415242 393.152358 77.089227 
C 393.152358 75.763211 392.625526 74.491328 391.687892 73.553693 
C 390.750257 72.616059 389.478373 72.089227 388.152358 72.089227 
C 386.826342 72.089227 385.554459 72.616059 384.616824 73.553693 
C 383.679189 74.491328 383.152358 75.763211 383.152358 77.089227 
C 383.152358 78.415242 383.679189 79.687126 384.616824 80.624761 
C 385.554459 81.562395 386.826342 82.089227 388.152358 82.089227 
z
" clip-path="url(#p088ff195a5)" style="fill: #cc78bc; stroke: #ffffff; stroke-width: 0.8"/>
    <path d="M 388.152358 99.555112 
C 389.478373 99.555112 390.750257 99.028281 391.687892 98.090646 
C 392.625526 97.153012 393.152358 95.881128 393.152358 94.555112 
C 393.152358 93.229097 392.625526 91.957213 391.687892 91.019579 
C 390.750257 90.081944 389.478373 89.555112 388.152358 89.555112 
C 386.826342 89.555112 385.554459 90.081944 384.616824 91.019579 
C 383.679189 91.957213 383.152358 93.229097 383.152358 94.555112 
C 383.152358 95.881128 383.679189 97.153012 384.616824 98.090646 
C 385.554459 99.028281 386.826342 99.555112 388.152358 99.555112 
z
" clip-path="url(#p088ff195a5)" style="fill: #cc78bc; stroke: #ffffff; stroke-width: 0.8"/>
    <path d="M 489.606903 142.706124 
C 490.932919 142.706124 492.204803 142.179292 493.142437 141.241658 
C 494.080072 140.304023 494.606903 139.032139 494.606903 137.706124 
C 494.606903 136.380108 494.080072 135.108224 493.142437 134.17059 
C 492.204803 133.232955 490.932919 132.706124 489.606903 132.706124 
C 488.280888 132.706124 487.009004 133.232955 486.07137 134.17059 
C 485.133735 135.108224 484.606903 136.380108 484.606903 137.706124 
C 484.606903 139.032139 485.133735 140.304023 486.07137 141.241658 
C 487.009004 142.179292 488.280888 142.706124 489.606903 142.706124 
z
" clip-path="url(#p088ff195a5)" style="fill: #cc78bc; stroke: #ffffff; stroke-width: 0.8"/>
    <path d="M 388.152358 110.856568 
C 389.478373 110.856568 390.750257 110.329736 391.687892 109.392102 
C 392.625526 108.454467 393.152358 107.182583 393.152358 105.856568 
C 393.152358 104.530552 392.625526 103.258668 391.687892 102.321034 
C 390.750257 101.383399 389.478373 100.856568 388.152358 100.856568 
C 386.826342 100.856568 385.554459 101.383399 384.616824 102.321034 
C 383.679189 103.258668 383.152358 104.530552 383.152358 105.856568 
C 383.152358 107.182583 383.679189 108.454467 384.616824 109.392102 
C 385.554459 110.329736 386.826342 110.856568 388.152358 110.856568 
z
" clip-path="url(#p088ff195a5)" style="fill: #cc78bc; stroke: #ffffff; stroke-width: 0.8"/>
    <path d="M 286.697812 60.513721 
C 288.023828 60.513721 289.295712 59.98689 290.233346 59.049255 
C 291.170981 58.111621 291.697812 56.839737 291.697812 55.513721 
C 291.697812 54.187706 291.170981 52.915822 290.233346 51.978188 
C 289.295712 51.040553 288.023828 50.513721 286.697812 50.513721 
C 285.371797 50.513721 284.099913 51.040553 283.162279 51.978188 
C 282.224644 52.915822 281.697812 54.187706 281.697812 55.513721 
C 281.697812 56.839737 282.224644 58.111621 283.162279 59.049255 
C 284.099913 59.98689 285.371797 60.513721 286.697812 60.513721 
z
" clip-path="url(#p088ff195a5)" style="fill: #cc78bc; stroke: #ffffff; stroke-width: 0.8"/>
    <path d="M 286.697812 193.04897 
C 288.023828 193.04897 289.295712 192.522138 290.233346 191.584504 
C 291.170981 190.646869 291.697812 189.374985 291.697812 188.04897 
C 291.697812 186.722954 291.170981 185.451071 290.233346 184.513436 
C 289.295712 183.575801 288.023828 183.04897 286.697812 183.04897 
C 285.371797 183.04897 284.099913 183.575801 283.162279 184.513436 
C 282.224644 185.451071 281.697812 186.722954 281.697812 188.04897 
C 281.697812 189.374985 282.224644 190.646869 283.162279 191.584504 
C 284.099913 192.522138 285.371797 193.04897 286.697812 193.04897 
z
" clip-path="url(#p088ff195a5)" style="fill: #cc78bc; stroke: #ffffff; stroke-width: 0.8"/>
    <path d="M 83.788722 184.316027 
C 85.114737 184.316027 86.386621 183.789196 87.324255 182.851561 
C 88.26189 181.913927 88.788722 180.642043 88.788722 179.316027 
C 88.788722 177.990012 88.26189 176.718128 87.324255 175.780493 
C 86.386621 174.842859 85.114737 174.316027 83.788722 174.316027 
C 82.462706 174.316027 81.190822 174.842859 80.253188 175.780493 
C 79.315553 176.718128 78.788722 177.990012 78.788722 179.316027 
C 78.788722 180.642043 79.315553 181.913927 80.253188 182.851561 
C 81.190822 183.789196 82.462706 184.316027 83.788722 184.316027 
z
" clip-path="url(#p088ff195a5)" style="fill: #cc78bc; stroke: #ffffff; stroke-width: 0.8"/>
    <path d="M 185.243267 140.651314 
C 186.569283 140.651314 187.841166 140.124482 188.778801 139.186847 
C 189.716436 138.249213 190.243267 136.977329 190.243267 135.651314 
C 190.243267 134.325298 189.716436 133.053414 188.778801 132.11578 
C 187.841166 131.178145 186.569283 130.651314 185.243267 130.651314 
C 183.917252 130.651314 182.645368 131.178145 181.707733 132.11578 
C 180.770099 133.053414 180.243267 134.325298 180.243267 135.651314 
C 180.243267 136.977329 180.770099 138.249213 181.707733 139.186847 
C 182.645368 140.124482 183.917252 140.651314 185.243267 140.651314 
z
" clip-path="url(#p088ff195a5)" style="fill: #cc78bc; stroke: #ffffff; stroke-width: 0.8"/>
    <path d="M 185.243267 235.686279 
C 186.569283 235.686279 187.841166 235.159447 188.778801 234.221812 
C 189.716436 233.284178 190.243267 232.012294 190.243267 230.686279 
C 190.243267 229.360263 189.716436 228.088379 188.778801 227.150745 
C 187.841166 226.21311 186.569283 225.686279 185.243267 225.686279 
C 183.917252 225.686279 182.645368 226.21311 181.707733 227.150745 
C 180.770099 228.088379 180.243267 229.360263 180.243267 230.686279 
C 180.243267 232.012294 180.770099 233.284178 181.707733 234.221812 
C 182.645368 235.159447 183.917252 235.686279 185.243267 235.686279 
z
" clip-path="url(#p088ff195a5)" style="fill: #cc78bc; stroke: #ffffff; stroke-width: 0.8"/>
    <path d="M 83.788722 150.925364 
C 85.114737 150.925364 86.386621 150.398532 87.324255 149.460898 
C 88.26189 148.523263 88.788722 147.251379 88.788722 145.925364 
C 88.788722 144.599348 88.26189 143.327464 87.324255 142.38983 
C 86.386621 141.452195 85.114737 140.925364 83.788722 140.925364 
C 82.462706 140.925364 81.190822 141.452195 80.253188 142.38983 
C 79.315553 143.327464 78.788722 144.599348 78.788722 145.925364 
C 78.788722 147.251379 79.315553 148.523263 80.253188 149.460898 
C 81.190822 150.398532 82.462706 150.925364 83.788722 150.925364 
z
" clip-path="url(#p088ff195a5)" style="fill: #cc78bc; stroke: #ffffff; stroke-width: 0.8"/>
    <path d="M 83.788722 271.645455 
C 85.114737 271.645455 86.386621 271.118623 87.324255 270.180988 
C 88.26189 269.243354 88.788722 267.97147 88.788722 266.645455 
C 88.788722 265.319439 88.26189 264.047555 87.324255 263.109921 
C 86.386621 262.172286 85.114737 261.645455 83.788722 261.645455 
C 82.462706 261.645455 81.190822 262.172286 80.253188 263.109921 
C 79.315553 264.047555 78.788722 265.319439 78.788722 266.645455 
C 78.788722 267.97147 79.315553 269.243354 80.253188 270.180988 
C 81.190822 271.118623 82.462706 271.645455 83.788722 271.645455 
z
" clip-path="url(#p088ff195a5)" style="fill: #cc78bc; stroke: #ffffff; stroke-width: 0.8"/>
    <path d="M 83.788722 143.219826 
C 85.114737 143.219826 86.386621 142.692995 87.324255 141.75536 
C 88.26189 140.817725 88.788722 139.545842 88.788722 138.219826 
C 88.788722 136.893811 88.26189 135.621927 87.324255 134.684292 
C 86.386621 133.746658 85.114737 133.219826 83.788722 133.219826 
C 82.462706 133.219826 81.190822 133.746658 80.253188 134.684292 
C 79.315553 135.621927 78.788722 136.893811 78.788722 138.219826 
C 78.788722 139.545842 79.315553 140.817725 80.253188 141.75536 
C 81.190822 142.692995 82.462706 143.219826 83.788722 143.219826 
z
" clip-path="url(#p088ff195a5)" style="fill: #cc78bc; stroke: #ffffff; stroke-width: 0.8"/>
    <path d="M 185.243267 154.521281 
C 186.569283 154.521281 187.841166 153.99445 188.778801 153.056815 
C 189.716436 152.119181 190.243267 150.847297 190.243267 149.521281 
C 190.243267 148.195266 189.716436 146.923382 188.778801 145.985748 
C 187.841166 145.048113 186.569283 144.521281 185.243267 144.521281 
C 183.917252 144.521281 182.645368 145.048113 181.707733 145.985748 
C 180.770099 146.923382 180.243267 148.195266 180.243267 149.521281 
C 180.243267 150.847297 180.770099 152.119181 181.707733 153.056815 
C 182.645368 153.99445 183.917252 154.521281 185.243267 154.521281 
z
" clip-path="url(#p088ff195a5)" style="fill: #cc78bc; stroke: #ffffff; stroke-width: 0.8"/>
    <path d="M 185.243267 154.007579 
C 186.569283 154.007579 187.841166 153.480747 188.778801 152.543113 
C 189.716436 151.605478 190.243267 150.333594 190.243267 149.007579 
C 190.243267 147.681563 189.716436 146.40968 188.778801 145.472045 
C 187.841166 144.53441 186.569283 144.007579 185.243267 144.007579 
C 183.917252 144.007579 182.645368 144.53441 181.707733 145.472045 
C 180.770099 146.40968 180.243267 147.681563 180.243267 149.007579 
C 180.243267 150.333594 180.770099 151.605478 181.707733 152.543113 
C 182.645368 153.480747 183.917252 154.007579 185.243267 154.007579 
z
" clip-path="url(#p088ff195a5)" style="fill: #cc78bc; stroke: #ffffff; stroke-width: 0.8"/>
    <path d="M 489.606903 24.554545 
C 490.932919 24.554545 492.204803 24.027714 493.142437 23.090079 
C 494.080072 22.152445 494.606903 20.880561 494.606903 19.554545 
C 494.606903 18.22853 494.080072 16.956646 493.142437 16.019012 
C 492.204803 15.081377 490.932919 14.554545 489.606903 14.554545 
C 488.280888 14.554545 487.009004 15.081377 486.07137 16.019012 
C 485.133735 16.956646 484.606903 18.22853 484.606903 19.554545 
C 484.606903 20.880561 485.133735 22.152445 486.07137 23.090079 
C 487.009004 24.027714 488.280888 24.554545 489.606903 24.554545 
z
" clip-path="url(#p088ff195a5)" style="fill: #cc78bc; stroke: #ffffff; stroke-width: 0.8"/>
    <path d="M 286.697812 127.295048 
C 288.023828 127.295048 289.295712 126.768217 290.233346 125.830582 
C 291.170981 124.892948 291.697812 123.621064 291.697812 122.295048 
C 291.697812 120.969033 291.170981 119.697149 290.233346 118.759514 
C 289.295712 117.82188 288.023828 117.295048 286.697812 117.295048 
C 285.371797 117.295048 284.099913 117.82188 283.162279 118.759514 
C 282.224644 119.697149 281.697812 120.969033 281.697812 122.295048 
C 281.697812 123.621064 282.224644 124.892948 283.162279 125.830582 
C 284.099913 126.768217 285.371797 127.295048 286.697812 127.295048 
z
" clip-path="url(#p088ff195a5)" style="fill: #cc78bc; stroke: #ffffff; stroke-width: 0.8"/>
    <path d="M 286.697812 102.123625 
C 288.023828 102.123625 289.295712 101.596793 290.233346 100.659159 
C 291.170981 99.721524 291.697812 98.449641 291.697812 97.123625 
C 291.697812 95.79761 291.170981 94.525726 290.233346 93.588091 
C 289.295712 92.650457 288.023828 92.123625 286.697812 92.123625 
C 285.371797 92.123625 284.099913 92.650457 283.162279 93.588091 
C 282.224644 94.525726 281.697812 95.79761 281.697812 97.123625 
C 281.697812 98.449641 282.224644 99.721524 283.162279 100.659159 
C 284.099913 101.596793 285.371797 102.123625 286.697812 102.123625 
z
" clip-path="url(#p088ff195a5)" style="fill: #cc78bc; stroke: #ffffff; stroke-width: 0.8"/>
    <path d="M 185.243267 105.719543 
C 186.569283 105.719543 187.841166 105.192711 188.778801 104.255077 
C 189.716436 103.317442 190.243267 102.045558 190.243267 100.719543 
C 190.243267 99.393527 189.716436 98.121643 188.778801 97.184009 
C 187.841166 96.246374 186.569283 95.719543 185.243267 95.719543 
C 183.917252 95.719543 182.645368 96.246374 181.707733 97.184009 
C 180.770099 98.121643 180.243267 99.393527 180.243267 100.719543 
C 180.243267 102.045558 180.770099 103.317442 181.707733 104.255077 
C 182.645368 105.192711 183.917252 105.719543 185.243267 105.719543 
z
" clip-path="url(#p088ff195a5)" style="fill: #cc78bc; stroke: #ffffff; stroke-width: 0.8"/>
    <path d="M 286.697812 127.295048 
C 288.023828 127.295048 289.295712 126.768217 290.233346 125.830582 
C 291.170981 124.892948 291.697812 123.621064 291.697812 122.295048 
C 291.697812 120.969033 291.170981 119.697149 290.233346 118.759514 
C 289.295712 117.82188 288.023828 117.295048 286.697812 117.295048 
C 285.371797 117.295048 284.099913 117.82188 283.162279 118.759514 
C 282.224644 119.697149 281.697812 120.969033 281.697812 122.295048 
C 281.697812 123.621064 282.224644 124.892948 283.162279 125.830582 
C 284.099913 126.768217 285.371797 127.295048 286.697812 127.295048 
z
" clip-path="url(#p088ff195a5)" style="fill: #cc78bc; stroke: #ffffff; stroke-width: 0.8"/>
    <path d="M 83.788722 169.418654 
C 85.114737 169.418654 86.386621 168.891823 87.324255 167.954188 
C 88.26189 167.016554 88.788722 165.74467 88.788722 164.418654 
C 88.788722 163.092639 88.26189 161.820755 87.324255 160.88312 
C 86.386621 159.945486 85.114737 159.418654 83.788722 159.418654 
C 82.462706 159.418654 81.190822 159.945486 80.253188 160.88312 
C 79.315553 161.820755 78.788722 163.092639 78.788722 164.418654 
C 78.788722 165.74467 79.315553 167.016554 80.253188 167.954188 
C 81.190822 168.891823 82.462706 169.418654 83.788722 169.418654 
z
" clip-path="url(#p088ff195a5)" style="fill: #d55e00; stroke: #ffffff; stroke-width: 0.8"/>
    <path d="M 489.606903 80.034417 
C 490.932919 80.034417 492.204803 79.507585 493.142437 78.569951 
C 494.080072 77.632316 494.606903 76.360432 494.606903 75.034417 
C 494.606903 73.708401 494.080072 72.436518 493.142437 71.498883 
C 492.204803 70.561248 490.932919 70.034417 489.606903 70.034417 
C 488.280888 70.034417 487.009004 70.561248 486.07137 71.498883 
C 485.133735 72.436518 484.606903 73.708401 484.606903 75.034417 
C 484.606903 76.360432 485.133735 77.632316 486.07137 78.569951 
C 487.009004 79.507585 488.280888 80.034417 489.606903 80.034417 
z
" clip-path="url(#p088ff195a5)" style="fill: #d55e00; stroke: #ffffff; stroke-width: 0.8"/>
    <path d="M 83.788722 158.630902 
C 85.114737 158.630902 86.386621 158.10407 87.324255 157.166435 
C 88.26189 156.228801 88.788722 154.956917 88.788722 153.630902 
C 88.788722 152.304886 88.26189 151.033002 87.324255 150.095368 
C 86.386621 149.157733 85.114737 148.630902 83.788722 148.630902 
C 82.462706 148.630902 81.190822 149.157733 80.253188 150.095368 
C 79.315553 151.033002 78.788722 152.304886 78.788722 153.630902 
C 78.788722 154.956917 79.315553 156.228801 80.253188 157.166435 
C 81.190822 158.10407 82.462706 158.630902 83.788722 158.630902 
z
" clip-path="url(#p088ff195a5)" style="fill: #d55e00; stroke: #ffffff; stroke-width: 0.8"/>
    <path d="M 83.788722 162.226819 
C 85.114737 162.226819 86.386621 161.699988 87.324255 160.762353 
C 88.26189 159.824718 88.788722 158.552835 88.788722 157.226819 
C 88.788722 155.900804 88.26189 154.62892 87.324255 153.691285 
C 86.386621 152.753651 85.114737 152.226819 83.788722 152.226819 
C 82.462706 152.226819 81.190822 152.753651 80.253188 153.691285 
C 79.315553 154.62892 78.788722 155.900804 78.788722 157.226819 
C 78.788722 158.552835 79.315553 159.824718 80.253188 160.762353 
C 81.190822 161.699988 82.462706 162.226819 83.788722 162.226819 
z
" clip-path="url(#p088ff195a5)" style="fill: #d55e00; stroke: #ffffff; stroke-width: 0.8"/>
    <path d="M 489.606903 88.76736 
C 490.932919 88.76736 492.204803 88.240528 493.142437 87.302894 
C 494.080072 86.365259 494.606903 85.093375 494.606903 83.76736 
C 494.606903 82.441344 494.080072 81.16946 493.142437 80.231826 
C 492.204803 79.294191 490.932919 78.76736 489.606903 78.76736 
C 488.280888 78.76736 487.009004 79.294191 486.07137 80.231826 
C 485.133735 81.16946 484.606903 82.441344 484.606903 83.76736 
C 484.606903 85.093375 485.133735 86.365259 486.07137 87.302894 
C 487.009004 88.240528 488.280888 88.76736 489.606903 88.76736 
z
" clip-path="url(#p088ff195a5)" style="fill: #d55e00; stroke: #ffffff; stroke-width: 0.8"/>
    <path d="M 489.606903 71.815177 
C 490.932919 71.815177 492.204803 71.288345 493.142437 70.350711 
C 494.080072 69.413076 494.606903 68.141192 494.606903 66.815177 
C 494.606903 65.489161 494.080072 64.217277 493.142437 63.279643 
C 492.204803 62.342008 490.932919 61.815177 489.606903 61.815177 
C 488.280888 61.815177 487.009004 62.342008 486.07137 63.279643 
C 485.133735 64.217277 484.606903 65.489161 484.606903 66.815177 
C 484.606903 68.141192 485.133735 69.413076 486.07137 70.350711 
C 487.009004 71.288345 488.280888 71.815177 489.606903 71.815177 
z
" clip-path="url(#p088ff195a5)" style="fill: #d55e00; stroke: #ffffff; stroke-width: 0.8"/>
    <path d="M 185.243267 140.651314 
C 186.569283 140.651314 187.841166 140.124482 188.778801 139.186847 
C 189.716436 138.249213 190.243267 136.977329 190.243267 135.651314 
C 190.243267 134.325298 189.716436 133.053414 188.778801 132.11578 
C 187.841166 131.178145 186.569283 130.651314 185.243267 130.651314 
C 183.917252 130.651314 182.645368 131.178145 181.707733 132.11578 
C 180.770099 133.053414 180.243267 134.325298 180.243267 135.651314 
C 180.243267 136.977329 180.770099 138.249213 181.707733 139.186847 
C 182.645368 140.124482 183.917252 140.651314 185.243267 140.651314 
z
" clip-path="url(#p088ff195a5)" style="fill: #d55e00; stroke: #ffffff; stroke-width: 0.8"/>
    <path d="M 185.243267 135.514288 
C 186.569283 135.514288 187.841166 134.987457 188.778801 134.049822 
C 189.716436 133.112188 190.243267 131.840304 190.243267 130.514288 
C 190.243267 129.188273 189.716436 127.916389 188.778801 126.978755 
C 187.841166 126.04112 186.569283 125.514288 185.243267 125.514288 
C 183.917252 125.514288 182.645368 126.04112 181.707733 126.978755 
C 180.770099 127.916389 180.243267 129.188273 180.243267 130.514288 
C 180.243267 131.840304 180.770099 133.112188 181.707733 134.049822 
C 182.645368 134.987457 183.917252 135.514288 185.243267 135.514288 
z
" clip-path="url(#p088ff195a5)" style="fill: #d55e00; stroke: #ffffff; stroke-width: 0.8"/>
    <path d="M 286.697812 92.87698 
C 288.023828 92.87698 289.295712 92.350148 290.233346 91.412514 
C 291.170981 90.474879 291.697812 89.202995 291.697812 87.87698 
C 291.697812 86.550964 291.170981 85.27908 290.233346 84.341446 
C 289.295712 83.403811 288.023828 82.87698 286.697812 82.87698 
C 285.371797 82.87698 284.099913 83.403811 283.162279 84.341446 
C 282.224644 85.27908 281.697812 86.550964 281.697812 87.87698 
C 281.697812 89.202995 282.224644 90.474879 283.162279 91.412514 
C 284.099913 92.350148 285.371797 92.87698 286.697812 92.87698 
z
" clip-path="url(#p088ff195a5)" style="fill: #d55e00; stroke: #ffffff; stroke-width: 0.8"/>
    <path d="M 388.152358 85.171442 
C 389.478373 85.171442 390.750257 84.644611 391.687892 83.706976 
C 392.625526 82.769341 393.152358 81.497458 393.152358 80.171442 
C 393.152358 78.845427 392.625526 77.573543 391.687892 76.635908 
C 390.750257 75.698274 389.478373 75.171442 388.152358 75.171442 
C 386.826342 75.171442 385.554459 75.698274 384.616824 76.635908 
C 383.679189 77.573543 383.152358 78.845427 383.152358 80.171442 
C 383.152358 81.497458 383.679189 82.769341 384.616824 83.706976 
C 385.554459 84.644611 386.826342 85.171442 388.152358 85.171442 
z
" clip-path="url(#p088ff195a5)" style="fill: #d55e00; stroke: #ffffff; stroke-width: 0.8"/>
    <path d="M 286.697812 113.938783 
C 288.023828 113.938783 289.295712 113.411951 290.233346 112.474317 
C 291.170981 111.536682 291.697812 110.264798 291.697812 108.938783 
C 291.697812 107.612767 291.170981 106.340883 290.233346 105.403249 
C 289.295712 104.465614 288.023828 103.938783 286.697812 103.938783 
C 285.371797 103.938783 284.099913 104.465614 283.162279 105.403249 
C 282.224644 106.340883 281.697812 107.612767 281.697812 108.938783 
C 281.697812 110.264798 282.224644 111.536682 283.162279 112.474317 
C 284.099913 113.411951 285.371797 113.938783 286.697812 113.938783 
z
" clip-path="url(#p088ff195a5)" style="fill: #d55e00; stroke: #ffffff; stroke-width: 0.8"/>
    <path d="M 185.243267 130.377263 
C 186.569283 130.377263 187.841166 129.850432 188.778801 128.912797 
C 189.716436 127.975163 190.243267 126.703279 190.243267 125.377263 
C 190.243267 124.051248 189.716436 122.779364 188.778801 121.841729 
C 187.841166 120.904095 186.569283 120.377263 185.243267 120.377263 
C 183.917252 120.377263 182.645368 120.904095 181.707733 121.841729 
C 180.770099 122.779364 180.243267 124.051248 180.243267 125.377263 
C 180.243267 126.703279 180.770099 127.975163 181.707733 128.912797 
C 182.645368 129.850432 183.917252 130.377263 185.243267 130.377263 
z
" clip-path="url(#p088ff195a5)" style="fill: #d55e00; stroke: #ffffff; stroke-width: 0.8"/>
    <path d="M 388.152358 95.959195 
C 389.478373 95.959195 390.750257 95.432363 391.687892 94.494729 
C 392.625526 93.557094 393.152358 92.28521 393.152358 90.959195 
C 393.152358 89.633179 392.625526 88.361296 391.687892 87.423661 
C 390.750257 86.486026 389.478373 85.959195 388.152358 85.959195 
C 386.826342 85.959195 385.554459 86.486026 384.616824 87.423661 
C 383.679189 88.361296 383.152358 89.633179 383.152358 90.959195 
C 383.152358 92.28521 383.679189 93.557094 384.616824 94.494729 
C 385.554459 95.432363 386.826342 95.959195 388.152358 95.959195 
z
" clip-path="url(#p088ff195a5)" style="fill: #d55e00; stroke: #ffffff; stroke-width: 0.8"/>
    <path d="M 388.152358 81.061822 
C 389.478373 81.061822 390.750257 80.53499 391.687892 79.597356 
C 392.625526 78.659721 393.152358 77.387837 393.152358 76.061822 
C 393.152358 74.735806 392.625526 73.463923 391.687892 72.526288 
C 390.750257 71.588654 389.478373 71.061822 388.152358 71.061822 
C 386.826342 71.061822 385.554459 71.588654 384.616824 72.526288 
C 383.679189 73.463923 383.152358 74.735806 383.152358 76.061822 
C 383.152358 77.387837 383.679189 78.659721 384.616824 79.597356 
C 385.554459 80.53499 386.826342 81.061822 388.152358 81.061822 
z
" clip-path="url(#p088ff195a5)" style="fill: #d55e00; stroke: #ffffff; stroke-width: 0.8"/>
    <path d="M 286.697812 117.5347 
C 288.023828 117.5347 289.295712 117.007869 290.233346 116.070234 
C 291.170981 115.1326 291.697812 113.860716 291.697812 112.5347 
C 291.697812 111.208685 291.170981 109.936801 290.233346 108.999167 
C 289.295712 108.061532 288.023828 107.5347 286.697812 107.5347 
C 285.371797 107.5347 284.099913 108.061532 283.162279 108.999167 
C 282.224644 109.936801 281.697812 111.208685 281.697812 112.5347 
C 281.697812 113.860716 282.224644 115.1326 283.162279 116.070234 
C 284.099913 117.007869 285.371797 117.5347 286.697812 117.5347 
z
" clip-path="url(#p088ff195a5)" style="fill: #d55e00; stroke: #ffffff; stroke-width: 0.8"/>
   </g>
   <g id="line2d_11">
    <path d="M 83.788722 253.032338 
L 185.243267 226.062956 
L 286.697812 201.148384 
L 388.152358 181.88454 
L 489.606903 162.620696 
" clip-path="url(#p088ff195a5)" style="fill: none; stroke: #029e73; stroke-width: 1.5; stroke-linecap: round"/>
   </g>
   <g id="line2d_12">
    <path d="M 83.788722 180.857135 
L 185.243267 153.117199 
L 286.697812 117.055283 
L 388.152358 99.794878 
L 489.606903 83.561879 
" clip-path="url(#p088ff195a5)" style="fill: none; stroke: #cc78bc; stroke-width: 1.5; stroke-linecap: round"/>
   </g>
   <g id="line2d_13">
    <path d="M 83.788722 158.425458 
L 185.243267 130.514288 
L 286.697812 103.116821 
L 388.152358 82.397486 
L 489.606903 75.205651 
" clip-path="url(#p088ff195a5)" style="fill: none; stroke: #d55e00; stroke-width: 1.5; stroke-linecap: round"/>
   </g>
   <g id="patch_3">
    <path d="M 63.497813 279 
L 63.497813 7.2 
" style="fill: none; stroke: #262626; stroke-width: 1.25; stroke-linejoin: miter; stroke-linecap: square"/>
   </g>
   <g id="patch_4">
    <path d="M 63.497813 279 
L 509.897812 279 
" style="fill: none; stroke: #262626; stroke-width: 1.25; stroke-linejoin: miter; stroke-linecap: square"/>
   </g>
  </g>
 </g>
 <defs>
  <clipPath id="p088ff195a5">
   <rect x="63.497813" y="7.2" width="446.4" height="271.8"/>
  </clipPath>
 </defs>
</svg>
