<?xml version="1.0" encoding="utf-8" standalone="no"?>
<!DOCTYPE svg PUBLIC "-//W3C//DTD SVG 1.1//EN"
  "http://www.w3.org/Graphics/SVG/1.1/DTD/svg11.dtd">
<svg height="360pt" version="1.1" viewBox="0 0 576 360" width="576pt" xmlns="http://www.w3.org/2000/svg" xmlns:xlink="http://www.w3.org/1999/xlink">
 <metadata>
  <rdf:RDF xmlns:cc="http://creativecommons.org/ns#" xmlns:dc="http://purl.org/dc/elements/1.1/" xmlns:rdf="http://www.w3.org/1999/02/22-rdf-syntax-ns#">
   <cc:Work>
    <dc:type rdf:resource="http://purl.org/dc/dcmitype/StillImage"/>
    <dc:date>2022-02-01T11:22:04.074834</dc:date>
    <dc:format>image/svg+xml</dc:format>
    <dc:creator>
     <cc:Agent>
      <dc:title>Matplotlib v3.4.2, https://matplotlib.org/</dc:title>
     </cc:Agent>
    </dc:creator>
   </cc:Work>
  </rdf:RDF>
 </metadata>
 <defs>
  <style type="text/css">*{stroke-linecap:butt;stroke-linejoin:round;}</style>
 </defs>
 <g id="figure_1">
  <g id="patch_1">
   <path d="M 0 360 
L 576 360 
L 576 0 
L 0 0 
z
" style="fill:#ffffff;"/>
  </g>
  <g id="axes_1">
   <g id="patch_2">
    <path d="M 72 315 
L 518.4 315 
L 518.4 43.2 
L 72 43.2 
z
" style="fill:#ffffff;"/>
   </g>
   <g id="matplotlib.axis_1">
    <g id="xtick_1">
     <g id="line2d_1">
      <defs>
       <path d="M 0 0 
L 0 6 
" id="m3480794e94" style="stroke:#262626;stroke-width:0.8;"/>
      </defs>
      <g>
       <use style="fill:#262626;stroke:#262626;stroke-width:0.8;" x="90.995745" xlink:href="#m3480794e94" y="315"/>
      </g>
     </g>
     <g id="text_1">
      <text style="fill:#262626;font-family:Arial;font-size:15px;font-stretch:normal;font-style:normal;font-weight:normal;text-anchor:middle;" transform="rotate(-0, 90.995745, 335.236719)" x="90.995745" y="335.236719">10</text>
     </g>
    </g>
    <g id="xtick_2">
     <g id="line2d_2">
      <g>
       <use style="fill:#262626;stroke:#262626;stroke-width:0.8;" x="100.493617" xlink:href="#m3480794e94" y="315"/>
      </g>
     </g>
    </g>
    <g id="xtick_3">
     <g id="line2d_3">
      <g>
       <use style="fill:#262626;stroke:#262626;stroke-width:0.8;" x="109.991489" xlink:href="#m3480794e94" y="315"/>
      </g>
     </g>
     <g id="text_2">
      <text style="fill:#262626;font-family:Arial;font-size:15px;font-stretch:normal;font-style:normal;font-weight:normal;text-anchor:middle;" transform="rotate(-0, 109.991489, 335.236719)" x="109.991489" y="335.236719">30</text>
     </g>
    </g>
    <g id="xtick_4">
     <g id="line2d_4">
      <g>
       <use style="fill:#262626;stroke:#262626;stroke-width:0.8;" x="138.485106" xlink:href="#m3480794e94" y="315"/>
      </g>
     </g>
     <g id="text_3">
      <text style="fill:#262626;font-family:Arial;font-size:15px;font-stretch:normal;font-style:normal;font-weight:normal;text-anchor:middle;" transform="rotate(-0, 138.485106, 335.236719)" x="138.485106" y="335.236719">60</text>
     </g>
    </g>
    <g id="xtick_5">
     <g id="line2d_5">
      <g>
       <use style="fill:#262626;stroke:#262626;stroke-width:0.8;" x="195.47234" xlink:href="#m3480794e94" y="315"/>
      </g>
     </g>
     <g id="text_4">
      <text style="fill:#262626;font-family:Arial;font-size:15px;font-stretch:normal;font-style:normal;font-weight:normal;text-anchor:middle;" transform="rotate(-0, 195.47234, 335.236719)" x="195.47234" y="335.236719">120</text>
     </g>
    </g>
    <g id="xtick_6">
     <g id="line2d_6">
      <g>
       <use style="fill:#262626;stroke:#262626;stroke-width:0.8;" x="242.961702" xlink:href="#m3480794e94" y="315"/>
      </g>
     </g>
     <g id="text_5">
      <text style="fill:#262626;font-family:Arial;font-size:15px;font-stretch:normal;font-style:normal;font-weight:normal;text-anchor:middle;" transform="rotate(-0, 242.961702, 335.236719)" x="242.961702" y="335.236719">10</text>
     </g>
    </g>
    <g id="xtick_7">
     <g id="line2d_7">
      <g>
       <use style="fill:#262626;stroke:#262626;stroke-width:0.8;" x="252.459574" xlink:href="#m3480794e94" y="315"/>
      </g>
     </g>
    </g>
    <g id="xtick_8">
     <g id="line2d_8">
      <g>
       <use style="fill:#262626;stroke:#262626;stroke-width:0.8;" x="261.957447" xlink:href="#m3480794e94" y="315"/>
      </g>
     </g>
     <g id="text_6">
      <text style="fill:#262626;font-family:Arial;font-size:15px;font-stretch:normal;font-style:normal;font-weight:normal;text-anchor:middle;" transform="rotate(-0, 261.957447, 335.236719)" x="261.957447" y="335.236719">30</text>
     </g>
    </g>
    <g id="xtick_9">
     <g id="line2d_9">
      <g>
       <use style="fill:#262626;stroke:#262626;stroke-width:0.8;" x="290.451064" xlink:href="#m3480794e94" y="315"/>
      </g>
     </g>
     <g id="text_7">
      <text style="fill:#262626;font-family:Arial;font-size:15px;font-stretch:normal;font-style:normal;font-weight:normal;text-anchor:middle;" transform="rotate(-0, 290.451064, 335.236719)" x="290.451064" y="335.236719">60</text>
     </g>
    </g>
    <g id="xtick_10">
     <g id="line2d_10">
      <g>
       <use style="fill:#262626;stroke:#262626;stroke-width:0.8;" x="347.438298" xlink:href="#m3480794e94" y="315"/>
      </g>
     </g>
     <g id="text_8">
      <text style="fill:#262626;font-family:Arial;font-size:15px;font-stretch:normal;font-style:normal;font-weight:normal;text-anchor:middle;" transform="rotate(-0, 347.438298, 335.236719)" x="347.438298" y="335.236719">120</text>
     </g>
    </g>
    <g id="xtick_11">
     <g id="line2d_11">
      <g>
       <use style="fill:#262626;stroke:#262626;stroke-width:0.8;" x="394.92766" xlink:href="#m3480794e94" y="315"/>
      </g>
     </g>
     <g id="text_9">
      <text style="fill:#262626;font-family:Arial;font-size:15px;font-stretch:normal;font-style:normal;font-weight:normal;text-anchor:middle;" transform="rotate(-0, 394.92766, 335.236719)" x="394.92766" y="335.236719">10</text>
     </g>
    </g>
    <g id="xtick_12">
     <g id="line2d_12">
      <g>
       <use style="fill:#262626;stroke:#262626;stroke-width:0.8;" x="404.425532" xlink:href="#m3480794e94" y="315"/>
      </g>
     </g>
    </g>
    <g id="xtick_13">
     <g id="line2d_13">
      <g>
       <use style="fill:#262626;stroke:#262626;stroke-width:0.8;" x="413.923404" xlink:href="#m3480794e94" y="315"/>
      </g>
     </g>
     <g id="text_10">
      <text style="fill:#262626;font-family:Arial;font-size:15px;font-stretch:normal;font-style:normal;font-weight:normal;text-anchor:middle;" transform="rotate(-0, 413.923404, 335.236719)" x="413.923404" y="335.236719">30</text>
     </g>
    </g>
    <g id="xtick_14">
     <g id="line2d_14">
      <g>
       <use style="fill:#262626;stroke:#262626;stroke-width:0.8;" x="442.417021" xlink:href="#m3480794e94" y="315"/>
      </g>
     </g>
     <g id="text_11">
      <text style="fill:#262626;font-family:Arial;font-size:15px;font-stretch:normal;font-style:normal;font-weight:normal;text-anchor:middle;" transform="rotate(-0, 442.417021, 335.236719)" x="442.417021" y="335.236719">60</text>
     </g>
    </g>
    <g id="xtick_15">
     <g id="line2d_15">
      <g>
       <use style="fill:#262626;stroke:#262626;stroke-width:0.8;" x="499.404255" xlink:href="#m3480794e94" y="315"/>
      </g>
     </g>
     <g id="text_12">
      <text style="fill:#262626;font-family:Arial;font-size:15px;font-stretch:normal;font-style:normal;font-weight:normal;text-anchor:middle;" transform="rotate(-0, 499.404255, 335.236719)" x="499.404255" y="335.236719">120</text>
     </g>
    </g>
    <g id="text_13">
     <text style="fill:#262626;font-family:Arial;font-size:16px;font-stretch:normal;font-style:normal;font-weight:normal;text-anchor:middle;" transform="rotate(-0, 295.2, 353.865469)" x="295.2" y="353.865469">Time (min)</text>
    </g>
   </g>
   <g id="matplotlib.axis_2">
    <g id="ytick_1">
     <g id="line2d_16">
      <defs>
       <path d="M 0 0 
L -6 0 
" id="mdf51b6f4f1" style="stroke:#262626;stroke-width:0.8;"/>
      </defs>
      <g>
       <use style="fill:#262626;stroke:#262626;stroke-width:0.8;" x="72" xlink:href="#mdf51b6f4f1" y="280.739496"/>
      </g>
     </g>
     <g id="text_14">
      <text style="fill:#262626;font-family:Arial;font-size:15px;font-stretch:normal;font-style:normal;font-weight:normal;text-anchor:end;" transform="rotate(-0, 62.5, 286.107855)" x="62.5" y="286.107855">100</text>
     </g>
    </g>
    <g id="ytick_2">
     <g id="line2d_17">
      <g>
       <use style="fill:#262626;stroke:#262626;stroke-width:0.8;" x="72" xlink:href="#mdf51b6f4f1" y="235.058824"/>
      </g>
     </g>
     <g id="text_15">
      <text style="fill:#262626;font-family:Arial;font-size:15px;font-stretch:normal;font-style:normal;font-weight:normal;text-anchor:end;" transform="rotate(-0, 62.5, 240.427183)" x="62.5" y="240.427183">200</text>
     </g>
    </g>
    <g id="ytick_3">
     <g id="line2d_18">
      <g>
       <use style="fill:#262626;stroke:#262626;stroke-width:0.8;" x="72" xlink:href="#mdf51b6f4f1" y="189.378151"/>
      </g>
     </g>
     <g id="text_16">
      <text style="fill:#262626;font-family:Arial;font-size:15px;font-stretch:normal;font-style:normal;font-weight:normal;text-anchor:end;" transform="rotate(-0, 62.5, 194.746511)" x="62.5" y="194.746511">300</text>
     </g>
    </g>
    <g id="ytick_4">
     <g id="line2d_19">
      <g>
       <use style="fill:#262626;stroke:#262626;stroke-width:0.8;" x="72" xlink:href="#mdf51b6f4f1" y="143.697479"/>
      </g>
     </g>
     <g id="text_17">
      <text style="fill:#262626;font-family:Arial;font-size:15px;font-stretch:normal;font-style:normal;font-weight:normal;text-anchor:end;" transform="rotate(-0, 62.5, 149.065838)" x="62.5" y="149.065838">400</text>
     </g>
    </g>
    <g id="ytick_5">
     <g id="line2d_20">
      <g>
       <use style="fill:#262626;stroke:#262626;stroke-width:0.8;" x="72" xlink:href="#mdf51b6f4f1" y="98.016807"/>
      </g>
     </g>
     <g id="text_18">
      <text style="fill:#262626;font-family:Arial;font-size:15px;font-stretch:normal;font-style:normal;font-weight:normal;text-anchor:end;" transform="rotate(-0, 62.5, 103.385166)" x="62.5" y="103.385166">500</text>
     </g>
    </g>
    <g id="ytick_6">
     <g id="line2d_21">
      <g>
       <use style="fill:#262626;stroke:#262626;stroke-width:0.8;" x="72" xlink:href="#mdf51b6f4f1" y="52.336134"/>
      </g>
     </g>
     <g id="text_19">
      <text style="fill:#262626;font-family:Arial;font-size:15px;font-stretch:normal;font-style:normal;font-weight:normal;text-anchor:end;" transform="rotate(-0, 62.5, 57.704494)" x="62.5" y="57.704494">600</text>
     </g>
    </g>
    <g id="text_20">
     <text style="fill:#262626;font-family:Arial;font-size:16px;font-stretch:normal;font-style:normal;font-weight:normal;text-anchor:middle;" transform="rotate(-90, 30.108281, 179.1)" x="30.108281" y="179.1">Blood glucose (mg/dL)</text>
    </g>
   </g>
   <g id="patch_3">
    <path clip-path="url(#peccaad35b7)" d="M 72 315 
L 72 43.2 
L 223.965957 43.2 
L 223.965957 315 
z
" style="fill:#008000;opacity:0.04;stroke:#008000;stroke-linejoin:miter;"/>
   </g>
   <g id="patch_4">
    <path clip-path="url(#peccaad35b7)" d="M 223.965957 315 
L 223.965957 43.2 
L 366.434043 43.2 
L 366.434043 315 
z
" style="fill:#ffa500;opacity:0.04;stroke:#ffa500;stroke-linejoin:miter;"/>
   </g>
   <g id="patch_5">
    <path clip-path="url(#peccaad35b7)" d="M 366.434043 315 
L 366.434043 43.2 
L 518.4 43.2 
L 518.4 315 
z
" style="fill:#ff0000;opacity:0.04;stroke:#ff0000;stroke-linejoin:miter;"/>
   </g>
   <g id="line2d_22">
    <path clip-path="url(#peccaad35b7)" d="M 90.995745 247.621008 
L 100.493617 234.373613 
L 109.991489 231.40437 
L 138.485106 237.342857 
L 195.47234 295.585714 
" style="fill:none;stroke:#1f77b4;stroke-linecap:round;stroke-opacity:0.6;stroke-width:2.5;"/>
    <defs>
     <path d="M 0 2.5 
C 0.663008 2.5 1.29895 2.236584 1.767767 1.767767 
C 2.236584 1.29895 2.5 0.663008 2.5 0 
C 2.5 -0.663008 2.236584 -1.29895 1.767767 -1.767767 
C 1.29895 -2.236584 0.663008 -2.5 0 -2.5 
C -0.663008 -2.5 -1.29895 -2.236584 -1.767767 -1.767767 
C -2.236584 -1.29895 -2.5 -0.663008 -2.5 0 
C -2.5 0.663008 -2.236584 1.29895 -1.767767 1.767767 
C -1.29895 2.236584 -0.663008 2.5 0 2.5 
z
" id="m50be70d303" style="stroke:#1f77b4;stroke-opacity:0.6;"/>
    </defs>
    <g clip-path="url(#peccaad35b7)">
     <use style="fill:#1f77b4;fill-opacity:0.6;stroke:#1f77b4;stroke-opacity:0.6;" x="90.995745" xlink:href="#m50be70d303" y="247.621008"/>
     <use style="fill:#1f77b4;fill-opacity:0.6;stroke:#1f77b4;stroke-opacity:0.6;" x="100.493617" xlink:href="#m50be70d303" y="234.373613"/>
     <use style="fill:#1f77b4;fill-opacity:0.6;stroke:#1f77b4;stroke-opacity:0.6;" x="109.991489" xlink:href="#m50be70d303" y="231.40437"/>
     <use style="fill:#1f77b4;fill-opacity:0.6;stroke:#1f77b4;stroke-opacity:0.6;" x="138.485106" xlink:href="#m50be70d303" y="237.342857"/>
     <use style="fill:#1f77b4;fill-opacity:0.6;stroke:#1f77b4;stroke-opacity:0.6;" x="195.47234" xlink:href="#m50be70d303" y="295.585714"/>
    </g>
   </g>
   <g id="line2d_23">
    <path clip-path="url(#peccaad35b7)" d="M 90.995745 262.69563 
L 100.493617 225.465882 
L 109.991489 203.767563 
L 138.485106 189.149748 
L 195.47234 291.24605 
" style="fill:none;stroke:#ff7f0e;stroke-linecap:round;stroke-opacity:0.6;stroke-width:2.5;"/>
    <defs>
     <path d="M 0 2.5 
C 0.663008 2.5 1.29895 2.236584 1.767767 1.767767 
C 2.236584 1.29895 2.5 0.663008 2.5 0 
C 2.5 -0.663008 2.236584 -1.29895 1.767767 -1.767767 
C 1.29895 -2.236584 0.663008 -2.5 0 -2.5 
C -0.663008 -2.5 -1.29895 -2.236584 -1.767767 -1.767767 
C -2.236584 -1.29895 -2.5 -0.663008 -2.5 0 
C -2.5 0.663008 -2.236584 1.29895 -1.767767 1.767767 
C -1.29895 2.236584 -0.663008 2.5 0 2.5 
z
" id="m274429336a" style="stroke:#ff7f0e;stroke-opacity:0.6;"/>
    </defs>
    <g clip-path="url(#peccaad35b7)">
     <use style="fill:#ff7f0e;fill-opacity:0.6;stroke:#ff7f0e;stroke-opacity:0.6;" x="90.995745" xlink:href="#m274429336a" y="262.69563"/>
     <use style="fill:#ff7f0e;fill-opacity:0.6;stroke:#ff7f0e;stroke-opacity:0.6;" x="100.493617" xlink:href="#m274429336a" y="225.465882"/>
     <use style="fill:#ff7f0e;fill-opacity:0.6;stroke:#ff7f0e;stroke-opacity:0.6;" x="109.991489" xlink:href="#m274429336a" y="203.767563"/>
     <use style="fill:#ff7f0e;fill-opacity:0.6;stroke:#ff7f0e;stroke-opacity:0.6;" x="138.485106" xlink:href="#m274429336a" y="189.149748"/>
     <use style="fill:#ff7f0e;fill-opacity:0.6;stroke:#ff7f0e;stroke-opacity:0.6;" x="195.47234" xlink:href="#m274429336a" y="291.24605"/>
    </g>
   </g>
   <g id="line2d_24">
    <path clip-path="url(#peccaad35b7)" d="M 242.961702 245.108571 
L 252.459574 182.754454 
L 261.957447 74.719664 
L 290.451064 57.361008 
L 347.438298 235.058824 
" style="fill:none;stroke:#2ca02c;stroke-linecap:round;stroke-opacity:0.6;stroke-width:2.5;"/>
    <defs>
     <path d="M 0 2.5 
C 0.663008 2.5 1.29895 2.236584 1.767767 1.767767 
C 2.236584 1.29895 2.5 0.663008 2.5 0 
C 2.5 -0.663008 2.236584 -1.29895 1.767767 -1.767767 
C 1.29895 -2.236584 0.663008 -2.5 0 -2.5 
C -0.663008 -2.5 -1.29895 -2.236584 -1.767767 -1.767767 
C -2.236584 -1.29895 -2.5 -0.663008 -2.5 0 
C -2.5 0.663008 -2.236584 1.29895 -1.767767 1.767767 
C -1.29895 2.236584 -0.663008 2.5 0 2.5 
z
" id="m8796ea7354" style="stroke:#2ca02c;stroke-opacity:0.6;"/>
    </defs>
    <g clip-path="url(#peccaad35b7)">
     <use style="fill:#2ca02c;fill-opacity:0.6;stroke:#2ca02c;stroke-opacity:0.6;" x="242.961702" xlink:href="#m8796ea7354" y="245.108571"/>
     <use style="fill:#2ca02c;fill-opacity:0.6;stroke:#2ca02c;stroke-opacity:0.6;" x="252.459574" xlink:href="#m8796ea7354" y="182.754454"/>
     <use style="fill:#2ca02c;fill-opacity:0.6;stroke:#2ca02c;stroke-opacity:0.6;" x="261.957447" xlink:href="#m8796ea7354" y="74.719664"/>
     <use style="fill:#2ca02c;fill-opacity:0.6;stroke:#2ca02c;stroke-opacity:0.6;" x="290.451064" xlink:href="#m8796ea7354" y="57.361008"/>
     <use style="fill:#2ca02c;fill-opacity:0.6;stroke:#2ca02c;stroke-opacity:0.6;" x="347.438298" xlink:href="#m8796ea7354" y="235.058824"/>
    </g>
   </g>
   <g id="line2d_25">
    <path clip-path="url(#peccaad35b7)" d="M 242.961702 226.379496 
L 252.459574 173.846723 
L 261.957447 115.375462 
L 290.451064 92.991933 
L 347.438298 240.083697 
" style="fill:none;stroke:#d62728;stroke-linecap:round;stroke-opacity:0.6;stroke-width:2.5;"/>
    <defs>
     <path d="M 0 2.5 
C 0.663008 2.5 1.29895 2.236584 1.767767 1.767767 
C 2.236584 1.29895 2.5 0.663008 2.5 0 
C 2.5 -0.663008 2.236584 -1.29895 1.767767 -1.767767 
C 1.29895 -2.236584 0.663008 -2.5 0 -2.5 
C -0.663008 -2.5 -1.29895 -2.236584 -1.767767 -1.767767 
C -2.236584 -1.29895 -2.5 -0.663008 -2.5 0 
C -2.5 0.663008 -2.236584 1.29895 -1.767767 1.767767 
C -1.29895 2.236584 -0.663008 2.5 0 2.5 
z
" id="me9779e9348" style="stroke:#d62728;stroke-opacity:0.6;"/>
    </defs>
    <g clip-path="url(#peccaad35b7)">
     <use style="fill:#d62728;fill-opacity:0.6;stroke:#d62728;stroke-opacity:0.6;" x="242.961702" xlink:href="#me9779e9348" y="226.379496"/>
     <use style="fill:#d62728;fill-opacity:0.6;stroke:#d62728;stroke-opacity:0.6;" x="252.459574" xlink:href="#me9779e9348" y="173.846723"/>
     <use style="fill:#d62728;fill-opacity:0.6;stroke:#d62728;stroke-opacity:0.6;" x="261.957447" xlink:href="#me9779e9348" y="115.375462"/>
     <use style="fill:#d62728;fill-opacity:0.6;stroke:#d62728;stroke-opacity:0.6;" x="290.451064" xlink:href="#me9779e9348" y="92.991933"/>
     <use style="fill:#d62728;fill-opacity:0.6;stroke:#d62728;stroke-opacity:0.6;" x="347.438298" xlink:href="#me9779e9348" y="240.083697"/>
    </g>
   </g>
   <g id="line2d_26">
    <path clip-path="url(#peccaad35b7)" d="M 242.961702 253.331092 
L 252.459574 185.723697 
L 261.957447 158.315294 
L 290.451064 122.912773 
L 347.438298 281.196303 
" style="fill:none;stroke:#9467bd;stroke-linecap:round;stroke-opacity:0.6;stroke-width:2.5;"/>
    <defs>
     <path d="M 0 2.5 
C 0.663008 2.5 1.29895 2.236584 1.767767 1.767767 
C 2.236584 1.29895 2.5 0.663008 2.5 0 
C 2.5 -0.663008 2.236584 -1.29895 1.767767 -1.767767 
C 1.29895 -2.236584 0.663008 -2.5 0 -2.5 
C -0.663008 -2.5 -1.29895 -2.236584 -1.767767 -1.767767 
C -2.236584 -1.29895 -2.5 -0.663008 -2.5 0 
C -2.5 0.663008 -2.236584 1.29895 -1.767767 1.767767 
C -1.29895 2.236584 -0.663008 2.5 0 2.5 
z
" id="mf91cd8f274" style="stroke:#9467bd;stroke-opacity:0.6;"/>
    </defs>
    <g clip-path="url(#peccaad35b7)">
     <use style="fill:#9467bd;fill-opacity:0.6;stroke:#9467bd;stroke-opacity:0.6;" x="242.961702" xlink:href="#mf91cd8f274" y="253.331092"/>
     <use style="fill:#9467bd;fill-opacity:0.6;stroke:#9467bd;stroke-opacity:0.6;" x="252.459574" xlink:href="#mf91cd8f274" y="185.723697"/>
     <use style="fill:#9467bd;fill-opacity:0.6;stroke:#9467bd;stroke-opacity:0.6;" x="261.957447" xlink:href="#mf91cd8f274" y="158.315294"/>
     <use style="fill:#9467bd;fill-opacity:0.6;stroke:#9467bd;stroke-opacity:0.6;" x="290.451064" xlink:href="#mf91cd8f274" y="122.912773"/>
     <use style="fill:#9467bd;fill-opacity:0.6;stroke:#9467bd;stroke-opacity:0.6;" x="347.438298" xlink:href="#mf91cd8f274" y="281.196303"/>
    </g>
   </g>
   <g id="line2d_27">
    <path clip-path="url(#peccaad35b7)" d="M 242.961702 232.317983 
L 252.459574 187.779328 
L 261.957447 147.351933 
L 290.451064 143.240672 
L 347.438298 284.622353 
" style="fill:none;stroke:#8c564b;stroke-linecap:round;stroke-opacity:0.6;stroke-width:2.5;"/>
    <defs>
     <path d="M 0 2.5 
C 0.663008 2.5 1.29895 2.236584 1.767767 1.767767 
C 2.236584 1.29895 2.5 0.663008 2.5 0 
C 2.5 -0.663008 2.236584 -1.29895 1.767767 -1.767767 
C 1.29895 -2.236584 0.663008 -2.5 0 -2.5 
C -0.663008 -2.5 -1.29895 -2.236584 -1.767767 -1.767767 
C -2.236584 -1.29895 -2.5 -0.663008 -2.5 0 
C -2.5 0.663008 -2.236584 1.29895 -1.767767 1.767767 
C -1.29895 2.236584 -0.663008 2.5 0 2.5 
z
" id="maa21b985b5" style="stroke:#8c564b;stroke-opacity:0.6;"/>
    </defs>
    <g clip-path="url(#peccaad35b7)">
     <use style="fill:#8c564b;fill-opacity:0.6;stroke:#8c564b;stroke-opacity:0.6;" x="242.961702" xlink:href="#maa21b985b5" y="232.317983"/>
     <use style="fill:#8c564b;fill-opacity:0.6;stroke:#8c564b;stroke-opacity:0.6;" x="252.459574" xlink:href="#maa21b985b5" y="187.779328"/>
     <use style="fill:#8c564b;fill-opacity:0.6;stroke:#8c564b;stroke-opacity:0.6;" x="261.957447" xlink:href="#maa21b985b5" y="147.351933"/>
     <use style="fill:#8c564b;fill-opacity:0.6;stroke:#8c564b;stroke-opacity:0.6;" x="290.451064" xlink:href="#maa21b985b5" y="143.240672"/>
     <use style="fill:#8c564b;fill-opacity:0.6;stroke:#8c564b;stroke-opacity:0.6;" x="347.438298" xlink:href="#maa21b985b5" y="284.622353"/>
    </g>
   </g>
   <g id="line2d_28">
    <path clip-path="url(#peccaad35b7)" d="M 242.961702 227.521513 
L 252.459574 108.294958 
L 261.957447 169.507059 
L 290.451064 80.429748 
L 347.438298 200.341513 
" style="fill:none;stroke:#e377c2;stroke-linecap:round;stroke-opacity:0.6;stroke-width:2.5;"/>
    <defs>
     <path d="M 0 2.5 
C 0.663008 2.5 1.29895 2.236584 1.767767 1.767767 
C 2.236584 1.29895 2.5 0.663008 2.5 0 
C 2.5 -0.663008 2.236584 -1.29895 1.767767 -1.767767 
C 1.29895 -2.236584 0.663008 -2.5 0 -2.5 
C -0.663008 -2.5 -1.29895 -2.236584 -1.767767 -1.767767 
C -2.236584 -1.29895 -2.5 -0.663008 -2.5 0 
C -2.5 0.663008 -2.236584 1.29895 -1.767767 1.767767 
C -1.29895 2.236584 -0.663008 2.5 0 2.5 
z
" id="m1894ac1942" style="stroke:#e377c2;stroke-opacity:0.6;"/>
    </defs>
    <g clip-path="url(#peccaad35b7)">
     <use style="fill:#e377c2;fill-opacity:0.6;stroke:#e377c2;stroke-opacity:0.6;" x="242.961702" xlink:href="#m1894ac1942" y="227.521513"/>
     <use style="fill:#e377c2;fill-opacity:0.6;stroke:#e377c2;stroke-opacity:0.6;" x="252.459574" xlink:href="#m1894ac1942" y="108.294958"/>
     <use style="fill:#e377c2;fill-opacity:0.6;stroke:#e377c2;stroke-opacity:0.6;" x="261.957447" xlink:href="#m1894ac1942" y="169.507059"/>
     <use style="fill:#e377c2;fill-opacity:0.6;stroke:#e377c2;stroke-opacity:0.6;" x="290.451064" xlink:href="#m1894ac1942" y="80.429748"/>
     <use style="fill:#e377c2;fill-opacity:0.6;stroke:#e377c2;stroke-opacity:0.6;" x="347.438298" xlink:href="#m1894ac1942" y="200.341513"/>
    </g>
   </g>
   <g id="line2d_29">
    <path clip-path="url(#peccaad35b7)" d="M 394.92766 165.395798 
L 404.425532 91.849916 
L 413.923404 59.188235 
L 442.417021 52.336134 
L 499.404255 140.728235 
" style="fill:none;stroke:#7f7f7f;stroke-linecap:round;stroke-opacity:0.6;stroke-width:2.5;"/>
    <defs>
     <path d="M 0 2.5 
C 0.663008 2.5 1.29895 2.236584 1.767767 1.767767 
C 2.236584 1.29895 2.5 0.663008 2.5 0 
C 2.5 -0.663008 2.236584 -1.29895 1.767767 -1.767767 
C 1.29895 -2.236584 0.663008 -2.5 0 -2.5 
C -0.663008 -2.5 -1.29895 -2.236584 -1.767767 -1.767767 
C -2.236584 -1.29895 -2.5 -0.663008 -2.5 0 
C -2.5 0.663008 -2.236584 1.29895 -1.767767 1.767767 
C -1.29895 2.236584 -0.663008 2.5 0 2.5 
z
" id="me70dd5ca0e" style="stroke:#7f7f7f;stroke-opacity:0.6;"/>
    </defs>
    <g clip-path="url(#peccaad35b7)">
     <use style="fill:#7f7f7f;fill-opacity:0.6;stroke:#7f7f7f;stroke-opacity:0.6;" x="394.92766" xlink:href="#me70dd5ca0e" y="165.395798"/>
     <use style="fill:#7f7f7f;fill-opacity:0.6;stroke:#7f7f7f;stroke-opacity:0.6;" x="404.425532" xlink:href="#me70dd5ca0e" y="91.849916"/>
     <use style="fill:#7f7f7f;fill-opacity:0.6;stroke:#7f7f7f;stroke-opacity:0.6;" x="413.923404" xlink:href="#me70dd5ca0e" y="59.188235"/>
     <use style="fill:#7f7f7f;fill-opacity:0.6;stroke:#7f7f7f;stroke-opacity:0.6;" x="442.417021" xlink:href="#me70dd5ca0e" y="52.336134"/>
     <use style="fill:#7f7f7f;fill-opacity:0.6;stroke:#7f7f7f;stroke-opacity:0.6;" x="499.404255" xlink:href="#me70dd5ca0e" y="140.728235"/>
    </g>
   </g>
   <g id="line2d_30">
    <path clip-path="url(#peccaad35b7)" d="M 394.92766 208.564034 
L 404.425532 52.336134 
L 413.923404 52.336134 
L 442.417021 65.355126 
L 499.404255 176.35916 
" style="fill:none;stroke:#bcbd22;stroke-linecap:round;stroke-opacity:0.6;stroke-width:2.5;"/>
    <defs>
     <path d="M 0 2.5 
C 0.663008 2.5 1.29895 2.236584 1.767767 1.767767 
C 2.236584 1.29895 2.5 0.663008 2.5 0 
C 2.5 -0.663008 2.236584 -1.29895 1.767767 -1.767767 
C 1.29895 -2.236584 0.663008 -2.5 0 -2.5 
C -0.663008 -2.5 -1.29895 -2.236584 -1.767767 -1.767767 
C -2.236584 -1.29895 -2.5 -0.663008 -2.5 0 
C -2.5 0.663008 -2.236584 1.29895 -1.767767 1.767767 
C -1.29895 2.236584 -0.663008 2.5 0 2.5 
z
" id="me0abc56216" style="stroke:#bcbd22;stroke-opacity:0.6;"/>
    </defs>
    <g clip-path="url(#peccaad35b7)">
     <use style="fill:#bcbd22;fill-opacity:0.6;stroke:#bcbd22;stroke-opacity:0.6;" x="394.92766" xlink:href="#me0abc56216" y="208.564034"/>
     <use style="fill:#bcbd22;fill-opacity:0.6;stroke:#bcbd22;stroke-opacity:0.6;" x="404.425532" xlink:href="#me0abc56216" y="52.336134"/>
     <use style="fill:#bcbd22;fill-opacity:0.6;stroke:#bcbd22;stroke-opacity:0.6;" x="413.923404" xlink:href="#me0abc56216" y="52.336134"/>
     <use style="fill:#bcbd22;fill-opacity:0.6;stroke:#bcbd22;stroke-opacity:0.6;" x="442.417021" xlink:href="#me0abc56216" y="65.355126"/>
     <use style="fill:#bcbd22;fill-opacity:0.6;stroke:#bcbd22;stroke-opacity:0.6;" x="499.404255" xlink:href="#me0abc56216" y="176.35916"/>
    </g>
   </g>
   <g id="line2d_31">
    <path clip-path="url(#peccaad35b7)" d="M 394.92766 227.521513 
L 404.425532 89.109076 
L 413.923404 60.558655 
L 442.417021 58.274622 
L 499.404255 185.266891 
" style="fill:none;stroke:#17becf;stroke-linecap:round;stroke-opacity:0.6;stroke-width:2.5;"/>
    <defs>
     <path d="M 0 2.5 
C 0.663008 2.5 1.29895 2.236584 1.767767 1.767767 
C 2.236584 1.29895 2.5 0.663008 2.5 0 
C 2.5 -0.663008 2.236584 -1.29895 1.767767 -1.767767 
C 1.29895 -2.236584 0.663008 -2.5 0 -2.5 
C -0.663008 -2.5 -1.29895 -2.236584 -1.767767 -1.767767 
C -2.236584 -1.29895 -2.5 -0.663008 -2.5 0 
C -2.5 0.663008 -2.236584 1.29895 -1.767767 1.767767 
C -1.29895 2.236584 -0.663008 2.5 0 2.5 
z
" id="mf2d5ab4a96" style="stroke:#17becf;stroke-opacity:0.6;"/>
    </defs>
    <g clip-path="url(#peccaad35b7)">
     <use style="fill:#17becf;fill-opacity:0.6;stroke:#17becf;stroke-opacity:0.6;" x="394.92766" xlink:href="#mf2d5ab4a96" y="227.521513"/>
     <use style="fill:#17becf;fill-opacity:0.6;stroke:#17becf;stroke-opacity:0.6;" x="404.425532" xlink:href="#mf2d5ab4a96" y="89.109076"/>
     <use style="fill:#17becf;fill-opacity:0.6;stroke:#17becf;stroke-opacity:0.6;" x="413.923404" xlink:href="#mf2d5ab4a96" y="60.558655"/>
     <use style="fill:#17becf;fill-opacity:0.6;stroke:#17becf;stroke-opacity:0.6;" x="442.417021" xlink:href="#mf2d5ab4a96" y="58.274622"/>
     <use style="fill:#17becf;fill-opacity:0.6;stroke:#17becf;stroke-opacity:0.6;" x="499.404255" xlink:href="#mf2d5ab4a96" y="185.266891"/>
    </g>
   </g>
   <g id="patch_6">
    <path d="M 72 315 
L 72 43.2 
" style="fill:none;stroke:#262626;stroke-linecap:square;stroke-linejoin:miter;stroke-width:1.25;"/>
   </g>
   <g id="patch_7">
    <path d="M 518.4 315 
L 518.4 43.2 
" style="fill:none;stroke:#262626;stroke-linecap:square;stroke-linejoin:miter;stroke-width:1.25;"/>
   </g>
   <g id="patch_8">
    <path d="M 72 315 
L 518.4 315 
" style="fill:none;stroke:#262626;stroke-linecap:square;stroke-linejoin:miter;stroke-width:1.25;"/>
   </g>
   <g id="patch_9">
    <path d="M 72 43.2 
L 518.4 43.2 
" style="fill:none;stroke:#262626;stroke-linecap:square;stroke-linejoin:miter;stroke-width:1.25;"/>
   </g>
   <g id="text_21">
    <text style="fill:#262626;font-family:Arial;font-size:15px;font-stretch:normal;font-style:normal;font-weight:normal;" transform="translate(114.316356 287.714519)">Normal</text>
    <text style="fill:#262626;font-family:Arial;font-size:15px;font-stretch:normal;font-style:normal;font-weight:normal;" transform="translate(125.763231 303.579832)">n=2</text>
   </g>
   <g id="text_22">
    <text style="fill:#262626;font-family:Arial;font-size:15px;font-stretch:normal;font-style:normal;font-weight:normal;" transform="translate(266.022656 287.714519)">Impaired</text>
    <text style="fill:#262626;font-family:Arial;font-size:15px;font-stretch:normal;font-style:normal;font-weight:normal;" transform="translate(282.478125 303.579832)">n=5</text>
   </g>
   <g id="text_23">
    <text style="fill:#262626;font-family:Arial;font-size:15px;font-stretch:normal;font-style:normal;font-weight:normal;" transform="translate(415.322099 287.714519)">Diabetic</text>
    <text style="fill:#262626;font-family:Arial;font-size:15px;font-stretch:normal;font-style:normal;font-weight:normal;" transform="translate(429.695146 303.579832)">n=3</text>
   </g>
   <g id="text_24">
    <text style="fill:#262626;font-family:Arial;font-size:20px;font-stretch:normal;font-style:normal;font-weight:normal;text-anchor:middle;" transform="rotate(-0, 295.2, 37.2)" x="295.2" y="37.2">OGTT Test Results</text>
   </g>
  </g>
 </g>
 <defs>
  <clipPath id="peccaad35b7">
   <rect height="271.8" width="446.4" x="72" y="43.2"/>
  </clipPath>
 </defs>
</svg>
