<?xml version="1.0" encoding="utf-8" standalone="no"?>
<!DOCTYPE svg PUBLIC "-//W3C//DTD SVG 1.1//EN"
  "http://www.w3.org/Graphics/SVG/1.1/DTD/svg11.dtd">
<svg xmlns:xlink="http://www.w3.org/1999/xlink" width="621.846188pt" height="367.116pt" viewBox="0 0 621.846188 367.116" xmlns="http://www.w3.org/2000/svg" version="1.1">
 <metadata>
  <rdf:RDF xmlns:dc="http://purl.org/dc/elements/1.1/" xmlns:cc="http://creativecommons.org/ns#" xmlns:rdf="http://www.w3.org/1999/02/22-rdf-syntax-ns#">
   <cc:Work>
    <dc:type rdf:resource="http://purl.org/dc/dcmitype/StillImage"/>
    <dc:date>2022-06-10T18:48:56.194614</dc:date>
    <dc:format>image/svg+xml</dc:format>
    <dc:creator>
     <cc:Agent>
      <dc:title>Matplotlib v3.5.2, https://matplotlib.org/</dc:title>
     </cc:Agent>
    </dc:creator>
   </cc:Work>
  </rdf:RDF>
 </metadata>
 <defs>
  <style type="text/css">*{stroke-linejoin: round; stroke-linecap: butt}</style>
 </defs>
 <g id="figure_1">
  <g id="patch_1">
   <path d="M 0 367.116 
L 621.846188 367.116 
L 621.846188 0 
L 0 0 
z
" style="fill: #ffffff"/>
  </g>
  <g id="axes_1">
   <g id="patch_2">
    <path d="M 37.3925 317.185687 
L 483.7925 317.185687 
L 483.7925 45.385687 
L 37.3925 45.385687 
z
" style="fill: #ffffff"/>
   </g>
   <g id="matplotlib.axis_1">
    <g id="xtick_1">
     <g id="line2d_1"/>
     <g id="text_1">
      <text style="fill: #262626; font: 18px 'sans-serif'; text-anchor: middle" x="61.009788" y="333.56975" transform="rotate(-0, 61.009788, 333.56975)">0</text>
     </g>
    </g>
    <g id="xtick_2">
     <g id="line2d_2"/>
     <g id="text_2">
      <text style="fill: #262626; font: 18px 'sans-serif'; text-anchor: middle" x="94.273573" y="333.56975" transform="rotate(-0, 94.273573, 333.56975)">10</text>
     </g>
    </g>
    <g id="xtick_3">
     <g id="line2d_3"/>
     <g id="text_3">
      <text style="fill: #262626; font: 18px 'sans-serif'; text-anchor: middle" x="127.537358" y="333.56975" transform="rotate(-0, 127.537358, 333.56975)">20</text>
     </g>
    </g>
    <g id="xtick_4">
     <g id="line2d_4"/>
     <g id="text_4">
      <text style="fill: #262626; font: 18px 'sans-serif'; text-anchor: middle" x="160.801144" y="333.56975" transform="rotate(-0, 160.801144, 333.56975)">30</text>
     </g>
    </g>
    <g id="xtick_5">
     <g id="line2d_5"/>
     <g id="text_5">
      <text style="fill: #262626; font: 18px 'sans-serif'; text-anchor: middle" x="260.5925" y="333.56975" transform="rotate(-0, 260.5925, 333.56975)">60</text>
     </g>
    </g>
    <g id="xtick_6">
     <g id="line2d_6"/>
     <g id="text_6">
      <text style="fill: #262626; font: 18px 'sans-serif'; text-anchor: middle" x="460.175212" y="333.56975" transform="rotate(-0, 460.175212, 333.56975)">120</text>
     </g>
    </g>
    <g id="text_7">
     <text style="fill: #262626; font: 20px 'sans-serif'; text-anchor: middle" x="260.5925" y="355.706625" transform="rotate(-0, 260.5925, 355.706625)">Time (min)</text>
    </g>
   </g>
   <g id="matplotlib.axis_2">
    <g id="ytick_1">
     <g id="line2d_7"/>
     <g id="text_8">
      <text style="fill: #262626; font: 16px 'sans-serif'; text-anchor: end" x="33.8925" y="283.514953" transform="rotate(-0, 33.8925, 283.514953)">100</text>
     </g>
    </g>
    <g id="ytick_2">
     <g id="line2d_8"/>
     <g id="text_9">
      <text style="fill: #262626; font: 16px 'sans-serif'; text-anchor: end" x="33.8925" y="239.543508" transform="rotate(-0, 33.8925, 239.543508)">200</text>
     </g>
    </g>
    <g id="ytick_3">
     <g id="line2d_9"/>
     <g id="text_10">
      <text style="fill: #262626; font: 16px 'sans-serif'; text-anchor: end" x="33.8925" y="195.572063" transform="rotate(-0, 33.8925, 195.572063)">300</text>
     </g>
    </g>
    <g id="ytick_4">
     <g id="line2d_10"/>
     <g id="text_11">
      <text style="fill: #262626; font: 16px 'sans-serif'; text-anchor: end" x="33.8925" y="151.600618" transform="rotate(-0, 33.8925, 151.600618)">400</text>
     </g>
    </g>
    <g id="ytick_5">
     <g id="line2d_11"/>
     <g id="text_12">
      <text style="fill: #262626; font: 16px 'sans-serif'; text-anchor: end" x="33.8925" y="107.629173" transform="rotate(-0, 33.8925, 107.629173)">500</text>
     </g>
    </g>
    <g id="ytick_6">
     <g id="line2d_12"/>
     <g id="text_13">
      <text style="fill: #262626; font: 16px 'sans-serif'; text-anchor: end" x="33.8925" y="63.657728" transform="rotate(-0, 33.8925, 63.657728)">600</text>
     </g>
    </g>
   </g>
   <g id="PathCollection_1">
    <defs>
     <path id="m4682be60f7" d="M 0 3 
C 0.795609 3 1.55874 2.683901 2.12132 2.12132 
C 2.683901 1.55874 3 0.795609 3 0 
C 3 -0.795609 2.683901 -1.55874 2.12132 -2.12132 
C 1.55874 -2.683901 0.795609 -3 0 -3 
C -0.795609 -3 -1.55874 -2.683901 -2.12132 -2.12132 
C -2.683901 -1.55874 -3 -0.795609 -3 0 
C -3 0.795609 -2.683901 1.55874 -2.12132 2.12132 
C -1.55874 2.683901 -0.795609 3 0 3 
z
" style="stroke: #029e73"/>
    </defs>
    <g clip-path="url(#p36cdad3098)">
     <use xlink:href="#m4682be60f7" x="57.683409" y="290.100708" style="fill: #029e73; stroke: #029e73"/>
     <use xlink:href="#m4682be60f7" x="90.947194" y="245.909406" style="fill: #029e73; stroke: #029e73"/>
     <use xlink:href="#m4682be60f7" x="124.21098" y="233.157687" style="fill: #029e73; stroke: #029e73"/>
     <use xlink:href="#m4682be60f7" x="157.474765" y="230.299543" style="fill: #029e73; stroke: #029e73"/>
     <use xlink:href="#m4682be60f7" x="257.266121" y="236.01583" style="fill: #029e73; stroke: #029e73"/>
     <use xlink:href="#m4682be60f7" x="456.848834" y="292.079423" style="fill: #029e73; stroke: #029e73"/>
    </g>
   </g>
   <g id="PathCollection_2">
    <g clip-path="url(#p36cdad3098)">
     <use xlink:href="#m4682be60f7" x="57.683409" y="299.774426" style="fill: #029e73; stroke: #029e73"/>
     <use xlink:href="#m4682be60f7" x="90.947194" y="260.419983" style="fill: #029e73; stroke: #029e73"/>
     <use xlink:href="#m4682be60f7" x="124.21098" y="224.583255" style="fill: #029e73; stroke: #029e73"/>
     <use xlink:href="#m4682be60f7" x="157.474765" y="203.696818" style="fill: #029e73; stroke: #029e73"/>
     <use xlink:href="#m4682be60f7" x="257.266121" y="189.625956" style="fill: #029e73; stroke: #029e73"/>
     <use xlink:href="#m4682be60f7" x="456.848834" y="287.902136" style="fill: #029e73; stroke: #029e73"/>
    </g>
   </g>
   <g id="PathCollection_3">
    <defs>
     <path id="mf34f5fa309" d="M 0 3 
C 0.795609 3 1.55874 2.683901 2.12132 2.12132 
C 2.683901 1.55874 3 0.795609 3 0 
C 3 -0.795609 2.683901 -1.55874 2.12132 -2.12132 
C 1.55874 -2.683901 0.795609 -3 0 -3 
C -0.795609 -3 -1.55874 -2.683901 -2.12132 -2.12132 
C -2.683901 -1.55874 -3 -0.795609 -3 0 
C -3 0.795609 -2.683901 1.55874 -2.12132 2.12132 
C -1.55874 2.683901 -0.795609 3 0 3 
z
" style="stroke: #cc78bc"/>
    </defs>
    <g clip-path="url(#p36cdad3098)">
     <use xlink:href="#mf34f5fa309" x="61.009788" y="296.036853" style="fill: #cc78bc; stroke: #cc78bc"/>
     <use xlink:href="#mf34f5fa309" x="94.273573" y="243.490976" style="fill: #cc78bc; stroke: #cc78bc"/>
     <use xlink:href="#mf34f5fa309" x="127.537358" y="183.469954" style="fill: #cc78bc; stroke: #cc78bc"/>
     <use xlink:href="#mf34f5fa309" x="160.801144" y="79.477486" style="fill: #cc78bc; stroke: #cc78bc"/>
     <use xlink:href="#mf34f5fa309" x="260.5925" y="62.768337" style="fill: #cc78bc; stroke: #cc78bc"/>
     <use xlink:href="#mf34f5fa309" x="460.175212" y="233.817258" style="fill: #cc78bc; stroke: #cc78bc"/>
    </g>
   </g>
   <g id="PathCollection_4">
    <g clip-path="url(#p36cdad3098)">
     <use xlink:href="#mf34f5fa309" x="61.009788" y="296.916282" style="fill: #cc78bc; stroke: #cc78bc"/>
     <use xlink:href="#mf34f5fa309" x="94.273573" y="225.462684" style="fill: #cc78bc; stroke: #cc78bc"/>
     <use xlink:href="#mf34f5fa309" x="127.537358" y="174.895522" style="fill: #cc78bc; stroke: #cc78bc"/>
     <use xlink:href="#mf34f5fa309" x="160.801144" y="118.612072" style="fill: #cc78bc; stroke: #cc78bc"/>
     <use xlink:href="#mf34f5fa309" x="260.5925" y="97.066064" style="fill: #cc78bc; stroke: #cc78bc"/>
     <use xlink:href="#mf34f5fa309" x="460.175212" y="238.654117" style="fill: #cc78bc; stroke: #cc78bc"/>
    </g>
   </g>
   <g id="PathCollection_5">
    <g clip-path="url(#p36cdad3098)">
     <use xlink:href="#mf34f5fa309" x="61.009788" y="304.831142" style="fill: #cc78bc; stroke: #cc78bc"/>
     <use xlink:href="#mf34f5fa309" x="94.273573" y="251.405836" style="fill: #cc78bc; stroke: #cc78bc"/>
     <use xlink:href="#mf34f5fa309" x="127.537358" y="186.328098" style="fill: #cc78bc; stroke: #cc78bc"/>
     <use xlink:href="#mf34f5fa309" x="160.801144" y="159.94523" style="fill: #cc78bc; stroke: #cc78bc"/>
     <use xlink:href="#mf34f5fa309" x="260.5925" y="125.867361" style="fill: #cc78bc; stroke: #cc78bc"/>
     <use xlink:href="#mf34f5fa309" x="460.175212" y="278.228418" style="fill: #cc78bc; stroke: #cc78bc"/>
    </g>
   </g>
   <g id="PathCollection_6">
    <g clip-path="url(#p36cdad3098)">
     <use xlink:href="#mf34f5fa309" x="61.009788" y="295.597139" style="fill: #cc78bc; stroke: #cc78bc"/>
     <use xlink:href="#mf34f5fa309" x="94.273573" y="231.178972" style="fill: #cc78bc; stroke: #cc78bc"/>
     <use xlink:href="#mf34f5fa309" x="127.537358" y="188.306813" style="fill: #cc78bc; stroke: #cc78bc"/>
     <use xlink:href="#mf34f5fa309" x="160.801144" y="149.392084" style="fill: #cc78bc; stroke: #cc78bc"/>
     <use xlink:href="#mf34f5fa309" x="260.5925" y="145.434654" style="fill: #cc78bc; stroke: #cc78bc"/>
     <use xlink:href="#mf34f5fa309" x="460.175212" y="281.526276" style="fill: #cc78bc; stroke: #cc78bc"/>
    </g>
   </g>
   <g id="PathCollection_7">
    <g clip-path="url(#p36cdad3098)">
     <use xlink:href="#mf34f5fa309" x="61.009788" y="300.433998" style="fill: #cc78bc; stroke: #cc78bc"/>
     <use xlink:href="#mf34f5fa309" x="94.273573" y="226.56197" style="fill: #cc78bc; stroke: #cc78bc"/>
     <use xlink:href="#mf34f5fa309" x="127.537358" y="111.796498" style="fill: #cc78bc; stroke: #cc78bc"/>
     <use xlink:href="#mf34f5fa309" x="160.801144" y="170.718235" style="fill: #cc78bc; stroke: #cc78bc"/>
     <use xlink:href="#mf34f5fa309" x="260.5925" y="84.973917" style="fill: #cc78bc; stroke: #cc78bc"/>
     <use xlink:href="#mf34f5fa309" x="460.175212" y="200.39896" style="fill: #cc78bc; stroke: #cc78bc"/>
    </g>
   </g>
   <g id="PathCollection_8">
    <defs>
     <path id="me67afca55a" d="M 0 3 
C 0.795609 3 1.55874 2.683901 2.12132 2.12132 
C 2.683901 1.55874 3 0.795609 3 0 
C 3 -0.795609 2.683901 -1.55874 2.12132 -2.12132 
C 1.55874 -2.683901 0.795609 -3 0 -3 
C -0.795609 -3 -1.55874 -2.683901 -2.12132 -2.12132 
C -2.683901 -1.55874 -3 -0.795609 -3 0 
C -3 0.795609 -2.683901 1.55874 -2.12132 2.12132 
C -1.55874 2.683901 -0.795609 3 0 3 
z
" style="stroke: #d55e00"/>
    </defs>
    <g clip-path="url(#p36cdad3098)">
     <use xlink:href="#me67afca55a" x="64.336166" y="261.079554" style="fill: #d55e00; stroke: #d55e00"/>
     <use xlink:href="#me67afca55a" x="97.599952" y="166.760804" style="fill: #d55e00; stroke: #d55e00"/>
     <use xlink:href="#me67afca55a" x="130.863737" y="95.966778" style="fill: #d55e00; stroke: #d55e00"/>
     <use xlink:href="#me67afca55a" x="164.127522" y="64.527195" style="fill: #d55e00; stroke: #d55e00"/>
     <use xlink:href="#me67afca55a" x="263.918879" y="57.931478" style="fill: #d55e00; stroke: #d55e00"/>
     <use xlink:href="#me67afca55a" x="463.501591" y="143.016224" style="fill: #d55e00; stroke: #d55e00"/>
    </g>
   </g>
   <g id="PathCollection_9">
    <g clip-path="url(#p36cdad3098)">
     <use xlink:href="#me67afca55a" x="64.336166" y="294.497852" style="fill: #d55e00; stroke: #d55e00"/>
     <use xlink:href="#me67afca55a" x="97.599952" y="208.31382" style="fill: #d55e00; stroke: #d55e00"/>
     <use xlink:href="#me67afca55a" x="130.863737" y="57.931478" style="fill: #d55e00; stroke: #d55e00"/>
     <use xlink:href="#me67afca55a" x="164.127522" y="57.931478" style="fill: #d55e00; stroke: #d55e00"/>
     <use xlink:href="#me67afca55a" x="263.918879" y="70.46334" style="fill: #d55e00; stroke: #d55e00"/>
     <use xlink:href="#me67afca55a" x="463.501591" y="177.313951" style="fill: #d55e00; stroke: #d55e00"/>
    </g>
   </g>
   <g id="PathCollection_10">
    <g clip-path="url(#p36cdad3098)">
     <use xlink:href="#me67afca55a" x="64.336166" y="293.398566" style="fill: #d55e00; stroke: #d55e00"/>
     <use xlink:href="#me67afca55a" x="97.599952" y="226.56197" style="fill: #d55e00; stroke: #d55e00"/>
     <use xlink:href="#me67afca55a" x="130.863737" y="93.328491" style="fill: #d55e00; stroke: #d55e00"/>
     <use xlink:href="#me67afca55a" x="164.127522" y="65.846338" style="fill: #d55e00; stroke: #d55e00"/>
     <use xlink:href="#me67afca55a" x="263.918879" y="63.647766" style="fill: #d55e00; stroke: #d55e00"/>
     <use xlink:href="#me67afca55a" x="463.501591" y="185.888383" style="fill: #d55e00; stroke: #d55e00"/>
    </g>
   </g>
   <g id="LineCollection_1">
    <path d="M 57.683409 301.777918 
L 57.683409 288.097215 
" clip-path="url(#p36cdad3098)" style="fill: none; stroke: #029e73; stroke-opacity: 0.8; stroke-width: 2"/>
    <path d="M 90.947194 263.425221 
L 90.947194 242.904167 
" clip-path="url(#p36cdad3098)" style="fill: none; stroke: #029e73; stroke-opacity: 0.8; stroke-width: 2"/>
    <path d="M 124.21098 234.93351 
L 124.21098 222.807432 
" clip-path="url(#p36cdad3098)" style="fill: none; stroke: #029e73; stroke-opacity: 0.8; stroke-width: 2"/>
    <path d="M 157.474765 235.809147 
L 157.474765 198.187214 
" clip-path="url(#p36cdad3098)" style="fill: none; stroke: #029e73; stroke-opacity: 0.8; stroke-width: 2"/>
    <path d="M 257.266121 245.623488 
L 257.266121 180.018298 
" clip-path="url(#p36cdad3098)" style="fill: none; stroke: #029e73; stroke-opacity: 0.8; stroke-width: 2"/>
    <path d="M 456.848834 292.944567 
L 456.848834 287.036991 
" clip-path="url(#p36cdad3098)" style="fill: none; stroke: #029e73; stroke-opacity: 0.8; stroke-width: 2"/>
   </g>
   <g id="LineCollection_2">
    <path d="M 61.009788 302.651511 
L 61.009788 294.874654 
" clip-path="url(#p36cdad3098)" style="fill: none; stroke: #cc78bc; stroke-opacity: 0.8; stroke-width: 2"/>
    <path d="M 94.273573 246.978857 
L 94.273573 224.261318 
" clip-path="url(#p36cdad3098)" style="fill: none; stroke: #cc78bc; stroke-opacity: 0.8; stroke-width: 2"/>
    <path d="M 127.537358 201.322106 
L 127.537358 136.596647 
" clip-path="url(#p36cdad3098)" style="fill: none; stroke: #cc78bc; stroke-opacity: 0.8; stroke-width: 2"/>
    <path d="M 160.801144 172.556397 
L 160.801144 98.701646 
" clip-path="url(#p36cdad3098)" style="fill: none; stroke: #cc78bc; stroke-opacity: 0.8; stroke-width: 2"/>
    <path d="M 260.5925 136.017292 
L 260.5925 70.42684 
" clip-path="url(#p36cdad3098)" style="fill: none; stroke: #cc78bc; stroke-opacity: 0.8; stroke-width: 2"/>
    <path d="M 460.175212 280.367454 
L 460.175212 212.682558 
" clip-path="url(#p36cdad3098)" style="fill: none; stroke: #cc78bc; stroke-opacity: 0.8; stroke-width: 2"/>
   </g>
   <g id="LineCollection_3">
    <path d="M 64.336166 301.976676 
L 64.336166 264.007306 
" clip-path="url(#p36cdad3098)" style="fill: none; stroke: #d55e00; stroke-opacity: 0.8; stroke-width: 2"/>
    <path d="M 97.599952 231.193608 
L 97.599952 169.897455 
" clip-path="url(#p36cdad3098)" style="fill: none; stroke: #d55e00; stroke-opacity: 0.8; stroke-width: 2"/>
    <path d="M 130.863737 103.648004 
L 130.863737 61.169828 
" clip-path="url(#p36cdad3098)" style="fill: none; stroke: #d55e00; stroke-opacity: 0.8; stroke-width: 2"/>
    <path d="M 164.127522 67.008789 
L 164.127522 58.527884 
" clip-path="url(#p36cdad3098)" style="fill: none; stroke: #d55e00; stroke-opacity: 0.8; stroke-width: 2"/>
    <path d="M 263.918879 70.288156 
L 263.918879 57.740233 
" clip-path="url(#p36cdad3098)" style="fill: none; stroke: #d55e00; stroke-opacity: 0.8; stroke-width: 2"/>
    <path d="M 463.501591 191.425334 
L 463.501591 146.053705 
" clip-path="url(#p36cdad3098)" style="fill: none; stroke: #d55e00; stroke-opacity: 0.8; stroke-width: 2"/>
   </g>
   <g id="line2d_13">
    <path d="M 57.683409 294.937567 
L 90.947194 253.164694 
L 124.21098 228.870471 
L 157.474765 216.99818 
L 257.266121 212.820893 
L 456.848834 289.990779 
" clip-path="url(#p36cdad3098)" style="fill: none; stroke: #029e73; stroke-opacity: 0.8; stroke-width: 2; stroke-linecap: round"/>
   </g>
   <g id="line2d_14">
    <path d="M 61.009788 298.763083 
L 94.273573 235.620087 
L 127.537358 168.959377 
L 160.801144 135.629021 
L 260.5925 103.222066 
L 460.175212 246.525006 
" clip-path="url(#p36cdad3098)" style="fill: none; stroke: #cc78bc; stroke-opacity: 0.8; stroke-width: 2; stroke-linecap: round"/>
   </g>
   <g id="line2d_15">
    <path d="M 64.336166 282.991991 
L 97.599952 200.545531 
L 130.863737 82.408916 
L 164.127522 62.768337 
L 263.918879 64.014194 
L 463.501591 168.73952 
" clip-path="url(#p36cdad3098)" style="fill: none; stroke: #d55e00; stroke-opacity: 0.8; stroke-width: 2; stroke-linecap: round"/>
   </g>
   <g id="patch_3">
    <path d="M 37.3925 317.185688 
L 37.3925 45.385687 
" style="fill: none; stroke: #262626; stroke-width: 1.25; stroke-linejoin: miter; stroke-linecap: square"/>
   </g>
   <g id="patch_4">
    <path d="M 37.3925 317.185687 
L 483.7925 317.185687 
" style="fill: none; stroke: #262626; stroke-width: 1.25; stroke-linejoin: miter; stroke-linecap: square"/>
   </g>
   <g id="text_14">
    <text style="fill: #262626; font: 18px 'sans-serif'" transform="translate(37.3925 20.084062)">Week 12</text>
    <text style="fill: #262626; font: 18px 'sans-serif'" transform="translate(37.3925 39.385687)">Glucose (mg/dL)</text>
   </g>
   <g id="legend_1">
    <g id="LineCollection_4">
     <path d="M 512.0565 125.562875 
L 512.0565 108.562875 
" style="fill: none; stroke: #029e73; stroke-opacity: 0.8; stroke-width: 2"/>
    </g>
    <g id="line2d_16">
     <path d="M 495.0565 117.062875 
L 529.0565 117.062875 
" style="fill: none; stroke: #029e73; stroke-opacity: 0.8; stroke-width: 2; stroke-linecap: round"/>
    </g>
    <g id="line2d_17"/>
    <g id="text_15">
     <text style="fill: #262626; font: 17px 'sans-serif'; text-anchor: start" x="542.6565" y="123.012875" transform="rotate(-0, 542.6565, 123.012875)">normal</text>
    </g>
    <g id="LineCollection_5">
     <path d="M 512.0565 149.609906 
L 512.0565 132.609906 
" style="fill: none; stroke: #cc78bc; stroke-opacity: 0.8; stroke-width: 2"/>
    </g>
    <g id="line2d_18">
     <path d="M 495.0565 141.109906 
L 529.0565 141.109906 
" style="fill: none; stroke: #cc78bc; stroke-opacity: 0.8; stroke-width: 2; stroke-linecap: round"/>
    </g>
    <g id="line2d_19"/>
    <g id="text_16">
     <text style="fill: #262626; font: 17px 'sans-serif'; text-anchor: start" x="542.6565" y="147.059906" transform="rotate(-0, 542.6565, 147.059906)">impaired</text>
    </g>
    <g id="LineCollection_6">
     <path d="M 512.0565 173.656937 
L 512.0565 156.656937 
" style="fill: none; stroke: #d55e00; stroke-opacity: 0.8; stroke-width: 2"/>
    </g>
    <g id="line2d_20">
     <path d="M 495.0565 165.156937 
L 529.0565 165.156937 
" style="fill: none; stroke: #d55e00; stroke-opacity: 0.8; stroke-width: 2; stroke-linecap: round"/>
    </g>
    <g id="line2d_21"/>
    <g id="text_17">
     <text style="fill: #262626; font: 17px 'sans-serif'; text-anchor: start" x="542.6565" y="171.106937" transform="rotate(-0, 542.6565, 171.106937)">diabetic</text>
    </g>
   </g>
  </g>
 </g>
 <defs>
  <clipPath id="p36cdad3098">
   <rect x="37.3925" y="45.385687" width="446.4" height="271.8"/>
  </clipPath>
 </defs>
</svg>
