<?xml version="1.0" encoding="utf-8" standalone="no"?>
<!DOCTYPE svg PUBLIC "-//W3C//DTD SVG 1.1//EN"
  "http://www.w3.org/Graphics/SVG/1.1/DTD/svg11.dtd">
<svg xmlns:xlink="http://www.w3.org/1999/xlink" width="612.948688pt" height="367.116pt" viewBox="0 0 612.948688 367.116" xmlns="http://www.w3.org/2000/svg" version="1.1">
 <metadata>
  <rdf:RDF xmlns:dc="http://purl.org/dc/elements/1.1/" xmlns:cc="http://creativecommons.org/ns#" xmlns:rdf="http://www.w3.org/1999/02/22-rdf-syntax-ns#">
   <cc:Work>
    <dc:type rdf:resource="http://purl.org/dc/dcmitype/StillImage"/>
    <dc:date>2022-06-10T15:52:32.930804</dc:date>
    <dc:format>image/svg+xml</dc:format>
    <dc:creator>
     <cc:Agent>
      <dc:title>Matplotlib v3.5.2, https://matplotlib.org/</dc:title>
     </cc:Agent>
    </dc:creator>
   </cc:Work>
  </rdf:RDF>
 </metadata>
 <defs>
  <style type="text/css">*{stroke-linejoin: round; stroke-linecap: butt}</style>
 </defs>
 <g id="figure_1">
  <g id="patch_1">
   <path d="M 0 367.116 
L 612.948688 367.116 
L 612.948688 0 
L 0 0 
z
" style="fill: #ffffff"/>
  </g>
  <g id="axes_1">
   <g id="patch_2">
    <path d="M 28.495 317.185687 
L 474.895 317.185687 
L 474.895 45.385687 
L 28.495 45.385687 
z
" style="fill: #ffffff"/>
   </g>
   <g id="matplotlib.axis_1">
    <g id="xtick_1">
     <g id="line2d_1"/>
     <g id="text_1">
      <text style="fill: #262626; font: 18px 'sans-serif'; text-anchor: middle" x="63.816212" y="333.56975" transform="rotate(-0, 63.816212, 333.56975)">8</text>
     </g>
    </g>
    <g id="xtick_2">
     <g id="line2d_2"/>
     <g id="text_2">
      <text style="fill: #262626; font: 18px 'sans-serif'; text-anchor: middle" x="189.068737" y="333.56975" transform="rotate(-0, 189.068737, 333.56975)">9</text>
     </g>
    </g>
    <g id="xtick_3">
     <g id="line2d_3"/>
     <g id="text_3">
      <text style="fill: #262626; font: 18px 'sans-serif'; text-anchor: middle" x="314.321263" y="333.56975" transform="rotate(-0, 314.321263, 333.56975)">10</text>
     </g>
    </g>
    <g id="xtick_4">
     <g id="line2d_4"/>
     <g id="text_4">
      <text style="fill: #262626; font: 18px 'sans-serif'; text-anchor: middle" x="439.573788" y="333.56975" transform="rotate(-0, 439.573788, 333.56975)">11</text>
     </g>
    </g>
    <g id="text_5">
     <text style="fill: #262626; font: 20px 'sans-serif'; text-anchor: middle" x="251.695" y="355.706625" transform="rotate(-0, 251.695, 355.706625)">Age (weeks)</text>
    </g>
   </g>
   <g id="matplotlib.axis_2">
    <g id="ytick_1">
     <g id="line2d_5"/>
     <g id="text_6">
      <text style="fill: #262626; font: 16px 'sans-serif'; text-anchor: end" x="24.995" y="316.554655" transform="rotate(-0, 24.995, 316.554655)">0</text>
     </g>
    </g>
    <g id="ytick_2">
     <g id="line2d_6"/>
     <g id="text_7">
      <text style="fill: #262626; font: 16px 'sans-serif'; text-anchor: end" x="24.995" y="266.368352" transform="rotate(-0, 24.995, 266.368352)">5</text>
     </g>
    </g>
    <g id="ytick_3">
     <g id="line2d_7"/>
     <g id="text_8">
      <text style="fill: #262626; font: 16px 'sans-serif'; text-anchor: end" x="24.995" y="216.182049" transform="rotate(-0, 24.995, 216.182049)">10</text>
     </g>
    </g>
    <g id="ytick_4">
     <g id="line2d_8"/>
     <g id="text_9">
      <text style="fill: #262626; font: 16px 'sans-serif'; text-anchor: end" x="24.995" y="165.995746" transform="rotate(-0, 24.995, 165.995746)">15</text>
     </g>
    </g>
    <g id="ytick_5">
     <g id="line2d_9"/>
     <g id="text_10">
      <text style="fill: #262626; font: 16px 'sans-serif'; text-anchor: end" x="24.995" y="115.809443" transform="rotate(-0, 24.995, 115.809443)">20</text>
     </g>
    </g>
    <g id="ytick_6">
     <g id="line2d_10"/>
     <g id="text_11">
      <text style="fill: #262626; font: 16px 'sans-serif'; text-anchor: end" x="24.995" y="65.62314" transform="rotate(-0, 24.995, 65.62314)">25</text>
     </g>
    </g>
   </g>
   <g id="PathCollection_1">
    <defs>
     <path id="mf3313b347c" d="M 0 3 
C 0.795609 3 1.55874 2.683901 2.12132 2.12132 
C 2.683901 1.55874 3 0.795609 3 0 
C 3 -0.795609 2.683901 -1.55874 2.12132 -2.12132 
C 1.55874 -2.683901 0.795609 -3 0 -3 
C -0.795609 -3 -1.55874 -2.683901 -2.12132 -2.12132 
C -2.683901 -1.55874 -3 -0.795609 -3 0 
C -3 0.795609 -2.683901 1.55874 -2.12132 2.12132 
C -1.55874 2.683901 -0.795609 3 0 3 
z
" style="stroke: #029e73"/>
    </defs>
    <g clip-path="url(#p72e5b96d5b)">
     <use xlink:href="#mf3313b347c" x="48.785909" y="174.221288" style="fill: #029e73; stroke: #029e73"/>
     <use xlink:href="#mf3313b347c" x="174.038434" y="81.978863" style="fill: #029e73; stroke: #029e73"/>
     <use xlink:href="#mf3313b347c" x="299.29096" y="93.320968" style="fill: #029e73; stroke: #029e73"/>
     <use xlink:href="#mf3313b347c" x="424.543485" y="134.674481" style="fill: #029e73; stroke: #029e73"/>
    </g>
   </g>
   <g id="PathCollection_2">
    <g clip-path="url(#p72e5b96d5b)">
     <use xlink:href="#mf3313b347c" x="48.785909" y="199.816303" style="fill: #029e73; stroke: #029e73"/>
     <use xlink:href="#mf3313b347c" x="174.038434" y="199.013322" style="fill: #029e73; stroke: #029e73"/>
     <use xlink:href="#mf3313b347c" x="299.29096" y="181.247371" style="fill: #029e73; stroke: #029e73"/>
     <use xlink:href="#mf3313b347c" x="424.543485" y="217.421658" style="fill: #029e73; stroke: #029e73"/>
    </g>
   </g>
   <g id="PathCollection_3">
    <defs>
     <path id="mdd27878abc" d="M 0 3 
C 0.795609 3 1.55874 2.683901 2.12132 2.12132 
C 2.683901 1.55874 3 0.795609 3 0 
C 3 -0.795609 2.683901 -1.55874 2.12132 -2.12132 
C 1.55874 -2.683901 0.795609 -3 0 -3 
C -0.795609 -3 -1.55874 -2.683901 -2.12132 -2.12132 
C -2.683901 -1.55874 -3 -0.795609 -3 0 
C -3 0.795609 -2.683901 1.55874 -2.12132 2.12132 
C -1.55874 2.683901 -0.795609 3 0 3 
z
" style="stroke: #cc78bc"/>
    </defs>
    <g clip-path="url(#p72e5b96d5b)">
     <use xlink:href="#mdd27878abc" x="63.816212" y="196.202889" style="fill: #cc78bc; stroke: #cc78bc"/>
     <use xlink:href="#mdd27878abc" x="189.068737" y="187.871963" style="fill: #cc78bc; stroke: #cc78bc"/>
     <use xlink:href="#mdd27878abc" x="314.321263" y="178.53731" style="fill: #cc78bc; stroke: #cc78bc"/>
     <use xlink:href="#mdd27878abc" x="439.573788" y="197.608105" style="fill: #cc78bc; stroke: #cc78bc"/>
    </g>
   </g>
   <g id="PathCollection_4">
    <g clip-path="url(#p72e5b96d5b)">
     <use xlink:href="#mdd27878abc" x="63.816212" y="206.742013" style="fill: #cc78bc; stroke: #cc78bc"/>
     <use xlink:href="#mdd27878abc" x="189.068737" y="182.75296" style="fill: #cc78bc; stroke: #cc78bc"/>
     <use xlink:href="#mdd27878abc" x="314.321263" y="194.797672" style="fill: #cc78bc; stroke: #cc78bc"/>
     <use xlink:href="#mdd27878abc" x="439.573788" y="215.976292" style="fill: #cc78bc; stroke: #cc78bc"/>
    </g>
   </g>
   <g id="PathCollection_5">
    <g clip-path="url(#p72e5b96d5b)">
     <use xlink:href="#mdd27878abc" x="63.816212" y="228.653353" style="fill: #cc78bc; stroke: #cc78bc"/>
     <use xlink:href="#mdd27878abc" x="189.068737" y="169.202658" style="fill: #cc78bc; stroke: #cc78bc"/>
     <use xlink:href="#mdd27878abc" x="314.321263" y="174.020543" style="fill: #cc78bc; stroke: #cc78bc"/>
     <use xlink:href="#mdd27878abc" x="439.573788" y="166.894088" style="fill: #cc78bc; stroke: #cc78bc"/>
    </g>
   </g>
   <g id="PathCollection_6">
    <g clip-path="url(#p72e5b96d5b)">
     <use xlink:href="#mdd27878abc" x="63.816212" y="225.140311" style="fill: #cc78bc; stroke: #cc78bc"/>
     <use xlink:href="#mdd27878abc" x="189.068737" y="143.306525" style="fill: #cc78bc; stroke: #cc78bc"/>
     <use xlink:href="#mdd27878abc" x="314.321263" y="116.808157" style="fill: #cc78bc; stroke: #cc78bc"/>
     <use xlink:href="#mdd27878abc" x="439.573788" y="158.763907" style="fill: #cc78bc; stroke: #cc78bc"/>
    </g>
   </g>
   <g id="PathCollection_7">
    <g clip-path="url(#p72e5b96d5b)">
     <use xlink:href="#mdd27878abc" x="63.816212" y="224.768933" style="fill: #cc78bc; stroke: #cc78bc"/>
     <use xlink:href="#mdd27878abc" x="189.068737" y="256.295968" style="fill: #cc78bc; stroke: #cc78bc"/>
     <use xlink:href="#mdd27878abc" x="314.321263" y="218.977433" style="fill: #cc78bc; stroke: #cc78bc"/>
     <use xlink:href="#mdd27878abc" x="439.573788" y="241.480972" style="fill: #cc78bc; stroke: #cc78bc"/>
    </g>
   </g>
   <g id="PathCollection_8">
    <defs>
     <path id="mc435f403bd" d="M 0 3 
C 0.795609 3 1.55874 2.683901 2.12132 2.12132 
C 2.683901 1.55874 3 0.795609 3 0 
C 3 -0.795609 2.683901 -1.55874 2.12132 -2.12132 
C 1.55874 -2.683901 0.795609 -3 0 -3 
C -0.795609 -3 -1.55874 -2.683901 -2.12132 -2.12132 
C -2.683901 -1.55874 -3 -0.795609 -3 0 
C -3 0.795609 -2.683901 1.55874 -2.12132 2.12132 
C -1.55874 2.683901 -0.795609 3 0 3 
z
" style="stroke: #d55e00"/>
    </defs>
    <g clip-path="url(#p72e5b96d5b)">
     <use xlink:href="#mc435f403bd" x="78.846515" y="282.272399" style="fill: #d55e00; stroke: #d55e00"/>
     <use xlink:href="#mc435f403bd" x="204.09904" y="273.720653" style="fill: #d55e00; stroke: #d55e00"/>
     <use xlink:href="#mc435f403bd" x="329.351566" y="274.322888" style="fill: #d55e00; stroke: #d55e00"/>
     <use xlink:href="#mc435f403bd" x="454.604091" y="281.348971" style="fill: #d55e00; stroke: #d55e00"/>
    </g>
   </g>
   <g id="PathCollection_9">
    <g clip-path="url(#p72e5b96d5b)">
     <use xlink:href="#mc435f403bd" x="78.846515" y="264.777454" style="fill: #d55e00; stroke: #d55e00"/>
     <use xlink:href="#mc435f403bd" x="204.09904" y="281.007704" style="fill: #d55e00; stroke: #d55e00"/>
     <use xlink:href="#mc435f403bd" x="329.351566" y="276.049297" style="fill: #d55e00; stroke: #d55e00"/>
     <use xlink:href="#mc435f403bd" x="454.604091" y="289.298481" style="fill: #d55e00; stroke: #d55e00"/>
    </g>
   </g>
   <g id="PathCollection_10">
    <g clip-path="url(#p72e5b96d5b)">
     <use xlink:href="#mc435f403bd" x="78.846515" y="279.492078" style="fill: #d55e00; stroke: #d55e00"/>
     <use xlink:href="#mc435f403bd" x="204.09904" y="269.474891" style="fill: #d55e00; stroke: #d55e00"/>
     <use xlink:href="#mc435f403bd" x="329.351566" y="275.567509" style="fill: #d55e00; stroke: #d55e00"/>
     <use xlink:href="#mc435f403bd" x="454.604091" y="304.831142" style="fill: #d55e00; stroke: #d55e00"/>
    </g>
   </g>
   <g id="LineCollection_1">
    <path d="M 48.785909 205.117204 
L 48.785909 168.920387 
" clip-path="url(#p72e5b96d5b)" style="fill: none; stroke: #029e73; stroke-opacity: 0.8; stroke-width: 2"/>
    <path d="M 174.038434 223.251952 
L 174.038434 57.740233 
" clip-path="url(#p72e5b96d5b)" style="fill: none; stroke: #029e73; stroke-opacity: 0.8; stroke-width: 2"/>
    <path d="M 299.29096 199.457525 
L 299.29096 75.110813 
" clip-path="url(#p72e5b96d5b)" style="fill: none; stroke: #029e73; stroke-opacity: 0.8; stroke-width: 2"/>
    <path d="M 424.543485 234.559159 
L 424.543485 117.53698 
" clip-path="url(#p72e5b96d5b)" style="fill: none; stroke: #029e73; stroke-opacity: 0.8; stroke-width: 2"/>
   </g>
   <g id="LineCollection_2">
    <path d="M 63.816212 230.423541 
L 63.816212 202.179458 
" clip-path="url(#p72e5b96d5b)" style="fill: none; stroke: #cc78bc; stroke-opacity: 0.8; stroke-width: 2"/>
    <path d="M 189.068737 229.84632 
L 189.068737 145.925709 
" clip-path="url(#p72e5b96d5b)" style="fill: none; stroke: #cc78bc; stroke-opacity: 0.8; stroke-width: 2"/>
    <path d="M 314.321263 214.418663 
L 314.321263 138.837783 
" clip-path="url(#p72e5b96d5b)" style="fill: none; stroke: #cc78bc; stroke-opacity: 0.8; stroke-width: 2"/>
    <path d="M 439.573788 230.436556 
L 439.573788 161.852789 
" clip-path="url(#p72e5b96d5b)" style="fill: none; stroke: #cc78bc; stroke-opacity: 0.8; stroke-width: 2"/>
   </g>
   <g id="LineCollection_3">
    <path d="M 78.846515 284.915426 
L 78.846515 266.112528 
" clip-path="url(#p72e5b96d5b)" style="fill: none; stroke: #d55e00; stroke-opacity: 0.8; stroke-width: 2"/>
    <path d="M 204.09904 280.567274 
L 204.09904 268.901558 
" clip-path="url(#p72e5b96d5b)" style="fill: none; stroke: #d55e00; stroke-opacity: 0.8; stroke-width: 2"/>
    <path d="M 329.351566 276.204082 
L 329.351566 274.422381 
" clip-path="url(#p72e5b96d5b)" style="fill: none; stroke: #d55e00; stroke-opacity: 0.8; stroke-width: 2"/>
    <path d="M 454.604091 303.769611 
L 454.604091 279.882785 
" clip-path="url(#p72e5b96d5b)" style="fill: none; stroke: #d55e00; stroke-opacity: 0.8; stroke-width: 2"/>
   </g>
   <g id="line2d_11">
    <path d="M 48.785909 187.018795 
L 174.038434 140.496092 
L 299.29096 137.284169 
L 424.543485 176.04807 
" clip-path="url(#p72e5b96d5b)" style="fill: none; stroke: #029e73; stroke-opacity: 0.8; stroke-width: 2; stroke-linecap: round"/>
   </g>
   <g id="line2d_12">
    <path d="M 63.816212 216.3015 
L 189.068737 187.886015 
L 314.321263 176.628223 
L 439.573788 196.144673 
" clip-path="url(#p72e5b96d5b)" style="fill: none; stroke: #cc78bc; stroke-opacity: 0.8; stroke-width: 2; stroke-linecap: round"/>
   </g>
   <g id="line2d_13">
    <path d="M 78.846515 275.513977 
L 204.09904 274.734416 
L 329.351566 275.313231 
L 454.604091 291.826198 
" clip-path="url(#p72e5b96d5b)" style="fill: none; stroke: #d55e00; stroke-opacity: 0.8; stroke-width: 2; stroke-linecap: round"/>
   </g>
   <g id="patch_3">
    <path d="M 28.495 317.185688 
L 28.495 45.385688 
" style="fill: none; stroke: #262626; stroke-width: 1.25; stroke-linejoin: miter; stroke-linecap: square"/>
   </g>
   <g id="patch_4">
    <path d="M 28.495 317.185687 
L 474.895 317.185687 
" style="fill: none; stroke: #262626; stroke-width: 1.25; stroke-linejoin: miter; stroke-linecap: square"/>
   </g>
   <g id="text_12">
    <text style="fill: #262626; font: 18px 'sans-serif'" transform="translate(28.495 20.084062)">Random-fed</text>
    <text style="fill: #262626; font: 18px 'sans-serif'" transform="translate(28.495 39.385687)">Insulin (ng/dL)</text>
   </g>
   <g id="legend_1">
    <g id="LineCollection_4">
     <path d="M 503.159 125.562875 
L 503.159 108.562875 
" style="fill: none; stroke: #029e73; stroke-opacity: 0.8; stroke-width: 2"/>
    </g>
    <g id="line2d_14">
     <path d="M 486.159 117.062875 
L 520.159 117.062875 
" style="fill: none; stroke: #029e73; stroke-opacity: 0.8; stroke-width: 2; stroke-linecap: round"/>
    </g>
    <g id="line2d_15"/>
    <g id="text_13">
     <text style="fill: #262626; font: 17px 'sans-serif'; text-anchor: start" x="533.759" y="123.012875" transform="rotate(-0, 533.759, 123.012875)">normal</text>
    </g>
    <g id="LineCollection_5">
     <path d="M 503.159 149.609906 
L 503.159 132.609906 
" style="fill: none; stroke: #cc78bc; stroke-opacity: 0.8; stroke-width: 2"/>
    </g>
    <g id="line2d_16">
     <path d="M 486.159 141.109906 
L 520.159 141.109906 
" style="fill: none; stroke: #cc78bc; stroke-opacity: 0.8; stroke-width: 2; stroke-linecap: round"/>
    </g>
    <g id="line2d_17"/>
    <g id="text_14">
     <text style="fill: #262626; font: 17px 'sans-serif'; text-anchor: start" x="533.759" y="147.059906" transform="rotate(-0, 533.759, 147.059906)">impaired</text>
    </g>
    <g id="LineCollection_6">
     <path d="M 503.159 173.656937 
L 503.159 156.656937 
" style="fill: none; stroke: #d55e00; stroke-opacity: 0.8; stroke-width: 2"/>
    </g>
    <g id="line2d_18">
     <path d="M 486.159 165.156937 
L 520.159 165.156937 
" style="fill: none; stroke: #d55e00; stroke-opacity: 0.8; stroke-width: 2; stroke-linecap: round"/>
    </g>
    <g id="line2d_19"/>
    <g id="text_15">
     <text style="fill: #262626; font: 17px 'sans-serif'; text-anchor: start" x="533.759" y="171.106937" transform="rotate(-0, 533.759, 171.106937)">diabetic</text>
    </g>
   </g>
  </g>
 </g>
 <defs>
  <clipPath id="p72e5b96d5b">
   <rect x="28.495" y="45.385687" width="446.4" height="271.8"/>
  </clipPath>
 </defs>
</svg>
