<?xml version="1.0" encoding="utf-8" standalone="no"?>
<!DOCTYPE svg PUBLIC "-//W3C//DTD SVG 1.1//EN"
  "http://www.w3.org/Graphics/SVG/1.1/DTD/svg11.dtd">
<svg xmlns:xlink="http://www.w3.org/1999/xlink" width="621.846188pt" height="348.03375pt" viewBox="0 0 621.846188 348.03375" xmlns="http://www.w3.org/2000/svg" version="1.1">
 <metadata>
  <rdf:RDF xmlns:dc="http://purl.org/dc/elements/1.1/" xmlns:cc="http://creativecommons.org/ns#" xmlns:rdf="http://www.w3.org/1999/02/22-rdf-syntax-ns#">
   <cc:Work>
    <dc:type rdf:resource="http://purl.org/dc/dcmitype/StillImage"/>
    <dc:date>2022-06-10T18:48:54.732399</dc:date>
    <dc:format>image/svg+xml</dc:format>
    <dc:creator>
     <cc:Agent>
      <dc:title>Matplotlib v3.5.2, https://matplotlib.org/</dc:title>
     </cc:Agent>
    </dc:creator>
   </cc:Work>
  </rdf:RDF>
 </metadata>
 <defs>
  <style type="text/css">*{stroke-linejoin: round; stroke-linecap: butt}</style>
 </defs>
 <g id="figure_1">
  <g id="patch_1">
   <path d="M 0 348.03375 
L 621.846188 348.03375 
L 621.846188 0 
L 0 0 
z
" style="fill: #ffffff"/>
  </g>
  <g id="axes_1">
   <g id="patch_2">
    <path d="M 37.3925 298.103437 
L 483.7925 298.103437 
L 483.7925 26.303437 
L 37.3925 26.303437 
z
" style="fill: #ffffff"/>
   </g>
   <g id="matplotlib.axis_1">
    <g id="xtick_1">
     <g id="line2d_1"/>
     <g id="text_1">
      <text style="fill: #262626; font: 18px 'sans-serif'; text-anchor: middle" x="69.168829" y="314.4875" transform="rotate(-0, 69.168829, 314.4875)">8</text>
     </g>
    </g>
    <g id="xtick_2">
     <g id="line2d_2"/>
     <g id="text_2">
      <text style="fill: #262626; font: 18px 'sans-serif'; text-anchor: middle" x="164.880665" y="314.4875" transform="rotate(-0, 164.880665, 314.4875)">9</text>
     </g>
    </g>
    <g id="xtick_3">
     <g id="line2d_3"/>
     <g id="text_3">
      <text style="fill: #262626; font: 18px 'sans-serif'; text-anchor: middle" x="260.5925" y="314.4875" transform="rotate(-0, 260.5925, 314.4875)">10</text>
     </g>
    </g>
    <g id="xtick_4">
     <g id="line2d_4"/>
     <g id="text_4">
      <text style="fill: #262626; font: 18px 'sans-serif'; text-anchor: middle" x="356.304335" y="314.4875" transform="rotate(-0, 356.304335, 314.4875)">11</text>
     </g>
    </g>
    <g id="xtick_5">
     <g id="line2d_5"/>
     <g id="text_5">
      <text style="fill: #262626; font: 18px 'sans-serif'; text-anchor: middle" x="452.016171" y="314.4875" transform="rotate(-0, 452.016171, 314.4875)">12</text>
     </g>
    </g>
    <g id="text_6">
     <text style="fill: #262626; font: 20px 'sans-serif'; text-anchor: middle" x="260.5925" y="336.624375" transform="rotate(-0, 260.5925, 336.624375)">Age (weeks)</text>
    </g>
   </g>
   <g id="matplotlib.axis_2">
    <g id="ytick_1">
     <g id="line2d_6"/>
     <g id="text_7">
      <text style="fill: #262626; font: 16px 'sans-serif'; text-anchor: end" x="33.8925" y="256.543371" transform="rotate(-0, 33.8925, 256.543371)">80</text>
     </g>
    </g>
    <g id="ytick_2">
     <g id="line2d_7"/>
     <g id="text_8">
      <text style="fill: #262626; font: 16px 'sans-serif'; text-anchor: end" x="33.8925" y="205.17312" transform="rotate(-0, 33.8925, 205.17312)">90</text>
     </g>
    </g>
    <g id="ytick_3">
     <g id="line2d_8"/>
     <g id="text_9">
      <text style="fill: #262626; font: 16px 'sans-serif'; text-anchor: end" x="33.8925" y="153.802868" transform="rotate(-0, 33.8925, 153.802868)">100</text>
     </g>
    </g>
    <g id="ytick_4">
     <g id="line2d_9"/>
     <g id="text_10">
      <text style="fill: #262626; font: 16px 'sans-serif'; text-anchor: end" x="33.8925" y="102.432617" transform="rotate(-0, 33.8925, 102.432617)">110</text>
     </g>
    </g>
    <g id="ytick_5">
     <g id="line2d_10"/>
     <g id="text_11">
      <text style="fill: #262626; font: 16px 'sans-serif'; text-anchor: end" x="33.8925" y="51.062366" transform="rotate(-0, 33.8925, 51.062366)">120</text>
     </g>
    </g>
   </g>
   <g id="PathCollection_1">
    <defs>
     <path id="meb7ea95f37" d="M 0 3 
C 0.795609 3 1.55874 2.683901 2.12132 2.12132 
C 2.683901 1.55874 3 0.795609 3 0 
C 3 -0.795609 2.683901 -1.55874 2.12132 -2.12132 
C 1.55874 -2.683901 0.795609 -3 0 -3 
C -0.795609 -3 -1.55874 -2.683901 -2.12132 -2.12132 
C -2.683901 -1.55874 -3 -0.795609 -3 0 
C -3 0.795609 -2.683901 1.55874 -2.12132 2.12132 
C -1.55874 2.683901 -0.795609 3 0 3 
z
" style="stroke: #029e73"/>
    </defs>
    <g clip-path="url(#p404603d036)">
     <use xlink:href="#meb7ea95f37" x="57.683409" y="270.851519" style="fill: #029e73; stroke: #029e73"/>
     <use xlink:href="#meb7ea95f37" x="153.395244" y="244.652691" style="fill: #029e73; stroke: #029e73"/>
     <use xlink:href="#meb7ea95f37" x="249.10708" y="218.967565" style="fill: #029e73; stroke: #029e73"/>
     <use xlink:href="#meb7ea95f37" x="344.818915" y="204.583895" style="fill: #029e73; stroke: #029e73"/>
     <use xlink:href="#meb7ea95f37" x="440.53075" y="187.118009" style="fill: #029e73; stroke: #029e73"/>
    </g>
   </g>
   <g id="PathCollection_2">
    <g clip-path="url(#p404603d036)">
     <use xlink:href="#meb7ea95f37" x="57.683409" y="273.420032" style="fill: #029e73; stroke: #029e73"/>
     <use xlink:href="#meb7ea95f37" x="153.395244" y="245.680096" style="fill: #029e73; stroke: #029e73"/>
     <use xlink:href="#meb7ea95f37" x="249.10708" y="221.536078" style="fill: #029e73; stroke: #029e73"/>
     <use xlink:href="#meb7ea95f37" x="344.818915" y="197.39206" style="fill: #029e73; stroke: #029e73"/>
     <use xlink:href="#meb7ea95f37" x="440.53075" y="176.330257" style="fill: #029e73; stroke: #029e73"/>
    </g>
   </g>
   <g id="PathCollection_3">
    <defs>
     <path id="m33dfb62350" d="M 0 3 
C 0.795609 3 1.55874 2.683901 2.12132 2.12132 
C 2.683901 1.55874 3 0.795609 3 0 
C 3 -0.795609 2.683901 -1.55874 2.12132 -2.12132 
C 1.55874 -2.683901 0.795609 -3 0 -3 
C -0.795609 -3 -1.55874 -2.683901 -2.12132 -2.12132 
C -2.683901 -1.55874 -3 -0.795609 -3 0 
C -3 0.795609 -2.683901 1.55874 -2.12132 2.12132 
C -1.55874 2.683901 -0.795609 3 0 3 
z
" style="stroke: #cc78bc"/>
    </defs>
    <g clip-path="url(#p404603d036)">
     <use xlink:href="#m33dfb62350" x="69.168829" y="198.419465" style="fill: #cc78bc; stroke: #cc78bc"/>
     <use xlink:href="#m33dfb62350" x="164.880665" y="168.624719" style="fill: #cc78bc; stroke: #cc78bc"/>
     <use xlink:href="#m33dfb62350" x="260.5925" y="141.398486" style="fill: #cc78bc; stroke: #cc78bc"/>
     <use xlink:href="#m33dfb62350" x="356.304335" y="124.960005" style="fill: #cc78bc; stroke: #cc78bc"/>
     <use xlink:href="#m33dfb62350" x="452.016171" y="121.87779" style="fill: #cc78bc; stroke: #cc78bc"/>
    </g>
   </g>
   <g id="PathCollection_4">
    <g clip-path="url(#p404603d036)">
     <use xlink:href="#m33dfb62350" x="69.168829" y="193.28244" style="fill: #cc78bc; stroke: #cc78bc"/>
     <use xlink:href="#m33dfb62350" x="164.880665" y="168.111016" style="fill: #cc78bc; stroke: #cc78bc"/>
     <use xlink:href="#m33dfb62350" x="260.5925" y="141.398486" style="fill: #cc78bc; stroke: #cc78bc"/>
     <use xlink:href="#m33dfb62350" x="356.304335" y="113.65855" style="fill: #cc78bc; stroke: #cc78bc"/>
     <use xlink:href="#m33dfb62350" x="452.016171" y="101.32969" style="fill: #cc78bc; stroke: #cc78bc"/>
    </g>
   </g>
   <g id="PathCollection_5">
    <g clip-path="url(#p404603d036)">
     <use xlink:href="#m33dfb62350" x="69.168829" y="165.028801" style="fill: #cc78bc; stroke: #cc78bc"/>
     <use xlink:href="#m33dfb62350" x="164.880665" y="154.754751" style="fill: #cc78bc; stroke: #cc78bc"/>
     <use xlink:href="#m33dfb62350" x="260.5925" y="116.227063" style="fill: #cc78bc; stroke: #cc78bc"/>
     <use xlink:href="#m33dfb62350" x="356.304335" y="96.192664" style="fill: #cc78bc; stroke: #cc78bc"/>
     <use xlink:href="#m33dfb62350" x="452.016171" y="94.651557" style="fill: #cc78bc; stroke: #cc78bc"/>
    </g>
   </g>
   <g id="PathCollection_6">
    <g clip-path="url(#p404603d036)">
     <use xlink:href="#m33dfb62350" x="69.168829" y="285.748892" style="fill: #cc78bc; stroke: #cc78bc"/>
     <use xlink:href="#m33dfb62350" x="164.880665" y="249.789716" style="fill: #cc78bc; stroke: #cc78bc"/>
     <use xlink:href="#m33dfb62350" x="260.5925" y="207.152407" style="fill: #cc78bc; stroke: #cc78bc"/>
     <use xlink:href="#m33dfb62350" x="356.304335" y="202.015382" style="fill: #cc78bc; stroke: #cc78bc"/>
     <use xlink:href="#m33dfb62350" x="452.016171" y="156.809561" style="fill: #cc78bc; stroke: #cc78bc"/>
    </g>
   </g>
   <g id="PathCollection_7">
    <g clip-path="url(#p404603d036)">
     <use xlink:href="#m33dfb62350" x="69.168829" y="157.323264" style="fill: #cc78bc; stroke: #cc78bc"/>
     <use xlink:href="#m33dfb62350" x="164.880665" y="119.82298" style="fill: #cc78bc; stroke: #cc78bc"/>
     <use xlink:href="#m33dfb62350" x="260.5925" y="74.617159" style="fill: #cc78bc; stroke: #cc78bc"/>
     <use xlink:href="#m33dfb62350" x="356.304335" y="57.664976" style="fill: #cc78bc; stroke: #cc78bc"/>
     <use xlink:href="#m33dfb62350" x="452.016171" y="38.657983" style="fill: #cc78bc; stroke: #cc78bc"/>
    </g>
   </g>
   <g id="PathCollection_8">
    <defs>
     <path id="mb5a57b59bd" d="M 0 3 
C 0.795609 3 1.55874 2.683901 2.12132 2.12132 
C 2.683901 1.55874 3 0.795609 3 0 
C 3 -0.795609 2.683901 -1.55874 2.12132 -2.12132 
C 1.55874 -2.683901 0.795609 -3 0 -3 
C -0.795609 -3 -1.55874 -2.683901 -2.12132 -2.12132 
C -2.683901 -1.55874 -3 -0.795609 -3 0 
C -3 0.795609 -2.683901 1.55874 -2.12132 2.12132 
C -1.55874 2.683901 -0.795609 3 0 3 
z
" style="stroke: #d55e00"/>
    </defs>
    <g clip-path="url(#p404603d036)">
     <use xlink:href="#mb5a57b59bd" x="80.65425" y="172.734339" style="fill: #d55e00; stroke: #d55e00"/>
     <use xlink:href="#mb5a57b59bd" x="176.366085" y="144.480701" style="fill: #d55e00; stroke: #d55e00"/>
     <use xlink:href="#mb5a57b59bd" x="272.07792" y="131.638138" style="fill: #d55e00; stroke: #d55e00"/>
     <use xlink:href="#mb5a57b59bd" x="367.789756" y="95.165259" style="fill: #d55e00; stroke: #d55e00"/>
     <use xlink:href="#mb5a57b59bd" x="463.501591" y="85.918614" style="fill: #d55e00; stroke: #d55e00"/>
    </g>
   </g>
   <g id="PathCollection_9">
    <g clip-path="url(#p404603d036)">
     <use xlink:href="#mb5a57b59bd" x="80.65425" y="176.330257" style="fill: #d55e00; stroke: #d55e00"/>
     <use xlink:href="#mb5a57b59bd" x="176.366085" y="149.617726" style="fill: #d55e00; stroke: #d55e00"/>
     <use xlink:href="#mb5a57b59bd" x="272.07792" y="128.04222" style="fill: #d55e00; stroke: #d55e00"/>
     <use xlink:href="#mb5a57b59bd" x="367.789756" y="110.062632" style="fill: #d55e00; stroke: #d55e00"/>
     <use xlink:href="#mb5a57b59bd" x="463.501591" y="102.870797" style="fill: #d55e00; stroke: #d55e00"/>
    </g>
   </g>
   <g id="PathCollection_10">
    <g clip-path="url(#p404603d036)">
     <use xlink:href="#mb5a57b59bd" x="80.65425" y="183.522092" style="fill: #d55e00; stroke: #d55e00"/>
     <use xlink:href="#mb5a57b59bd" x="176.366085" y="154.754751" style="fill: #d55e00; stroke: #d55e00"/>
     <use xlink:href="#mb5a57b59bd" x="272.07792" y="106.980417" style="fill: #d55e00; stroke: #d55e00"/>
     <use xlink:href="#mb5a57b59bd" x="367.789756" y="99.27488" style="fill: #d55e00; stroke: #d55e00"/>
     <use xlink:href="#mb5a57b59bd" x="463.501591" y="94.137854" style="fill: #d55e00; stroke: #d55e00"/>
    </g>
   </g>
   <g id="LineCollection_1">
    <path d="M 57.683409 273.951988 
L 57.683409 270.319563 
" clip-path="url(#p404603d036)" style="fill: none; stroke: #029e73; stroke-opacity: 0.8; stroke-width: 2"/>
    <path d="M 153.395244 245.892879 
L 153.395244 244.439908 
" clip-path="url(#p404603d036)" style="fill: none; stroke: #029e73; stroke-opacity: 0.8; stroke-width: 2"/>
    <path d="M 249.10708 222.068034 
L 249.10708 218.435609 
" clip-path="url(#p404603d036)" style="fill: none; stroke: #029e73; stroke-opacity: 0.8; stroke-width: 2"/>
    <path d="M 344.818915 206.073373 
L 344.818915 195.902582 
" clip-path="url(#p404603d036)" style="fill: none; stroke: #029e73; stroke-opacity: 0.8; stroke-width: 2"/>
    <path d="M 440.53075 189.352226 
L 440.53075 174.09604 
" clip-path="url(#p404603d036)" style="fill: none; stroke: #029e73; stroke-opacity: 0.8; stroke-width: 2"/>
   </g>
   <g id="LineCollection_2">
    <path d="M 69.168829 251.060418 
L 69.168829 148.860726 
" clip-path="url(#p404603d036)" style="fill: none; stroke: #cc78bc; stroke-opacity: 0.8; stroke-width: 2"/>
    <path d="M 164.880665 219.91066 
L 164.880665 124.530613 
" clip-path="url(#p404603d036)" style="fill: none; stroke: #cc78bc; stroke-opacity: 0.8; stroke-width: 2"/>
    <path d="M 260.5925 184.324187 
L 260.5925 87.993254 
" clip-path="url(#p404603d036)" style="fill: none; stroke: #cc78bc; stroke-opacity: 0.8; stroke-width: 2"/>
    <path d="M 356.304335 171.902359 
L 356.304335 65.894272 
" clip-path="url(#p404603d036)" style="fill: none; stroke: #cc78bc; stroke-opacity: 0.8; stroke-width: 2"/>
    <path d="M 452.016171 145.861558 
L 452.016171 59.469074 
" clip-path="url(#p404603d036)" style="fill: none; stroke: #cc78bc; stroke-opacity: 0.8; stroke-width: 2"/>
   </g>
   <g id="LineCollection_3">
    <path d="M 80.65425 183.021751 
L 80.65425 172.036041 
" clip-path="url(#p404603d036)" style="fill: none; stroke: #d55e00; stroke-opacity: 0.8; stroke-width: 2"/>
    <path d="M 176.366085 154.754751 
L 176.366085 144.480701 
" clip-path="url(#p404603d036)" style="fill: none; stroke: #d55e00; stroke-opacity: 0.8; stroke-width: 2"/>
    <path d="M 272.07792 135.540252 
L 272.07792 108.900265 
" clip-path="url(#p404603d036)" style="fill: none; stroke: #d55e00; stroke-opacity: 0.8; stroke-width: 2"/>
    <path d="M 367.789756 109.195037 
L 367.789756 93.80681 
" clip-path="url(#p404603d036)" style="fill: none; stroke: #d55e00; stroke-opacity: 0.8; stroke-width: 2"/>
    <path d="M 463.501591 102.786477 
L 463.501591 85.8317 
" clip-path="url(#p404603d036)" style="fill: none; stroke: #d55e00; stroke-opacity: 0.8; stroke-width: 2"/>
   </g>
   <g id="line2d_11">
    <path d="M 57.683409 272.135775 
L 153.395244 245.166393 
L 249.10708 220.251822 
L 344.818915 200.987977 
L 440.53075 181.724133 
" clip-path="url(#p404603d036)" style="fill: none; stroke: #029e73; stroke-opacity: 0.8; stroke-width: 2; stroke-linecap: round"/>
   </g>
   <g id="line2d_12">
    <path d="M 69.168829 199.960572 
L 164.880665 172.220637 
L 260.5925 136.15872 
L 356.304335 118.898316 
L 452.016171 102.665316 
" clip-path="url(#p404603d036)" style="fill: none; stroke: #cc78bc; stroke-opacity: 0.8; stroke-width: 2; stroke-linecap: round"/>
   </g>
   <g id="line2d_13">
    <path d="M 80.65425 177.528896 
L 176.366085 149.617726 
L 272.07792 122.220259 
L 367.789756 101.500924 
L 463.501591 94.309089 
" clip-path="url(#p404603d036)" style="fill: none; stroke: #d55e00; stroke-opacity: 0.8; stroke-width: 2; stroke-linecap: round"/>
   </g>
   <g id="patch_3">
    <path d="M 37.3925 298.103437 
L 37.3925 26.303437 
" style="fill: none; stroke: #262626; stroke-width: 1.25; stroke-linejoin: miter; stroke-linecap: square"/>
   </g>
   <g id="patch_4">
    <path d="M 37.3925 298.103437 
L 483.7925 298.103437 
" style="fill: none; stroke: #262626; stroke-width: 1.25; stroke-linejoin: miter; stroke-linecap: square"/>
   </g>
   <g id="text_12">
    <text style="fill: #262626; font: 18px 'sans-serif'; text-anchor: start" x="37.3925" y="20.303437" transform="rotate(-0, 37.3925, 20.303437)">Weight (g)</text>
   </g>
   <g id="legend_1">
    <g id="LineCollection_4">
     <path d="M 512.0565 106.480625 
L 512.0565 89.480625 
" style="fill: none; stroke: #029e73; stroke-opacity: 0.8; stroke-width: 2"/>
    </g>
    <g id="line2d_14">
     <path d="M 495.0565 97.980625 
L 529.0565 97.980625 
" style="fill: none; stroke: #029e73; stroke-opacity: 0.8; stroke-width: 2; stroke-linecap: round"/>
    </g>
    <g id="line2d_15"/>
    <g id="text_13">
     <text style="fill: #262626; font: 17px 'sans-serif'; text-anchor: start" x="542.6565" y="103.930625" transform="rotate(-0, 542.6565, 103.930625)">normal</text>
    </g>
    <g id="LineCollection_5">
     <path d="M 512.0565 130.527656 
L 512.0565 113.527656 
" style="fill: none; stroke: #cc78bc; stroke-opacity: 0.8; stroke-width: 2"/>
    </g>
    <g id="line2d_16">
     <path d="M 495.0565 122.027656 
L 529.0565 122.027656 
" style="fill: none; stroke: #cc78bc; stroke-opacity: 0.8; stroke-width: 2; stroke-linecap: round"/>
    </g>
    <g id="line2d_17"/>
    <g id="text_14">
     <text style="fill: #262626; font: 17px 'sans-serif'; text-anchor: start" x="542.6565" y="127.977656" transform="rotate(-0, 542.6565, 127.977656)">impaired</text>
    </g>
    <g id="LineCollection_6">
     <path d="M 512.0565 154.574687 
L 512.0565 137.574687 
" style="fill: none; stroke: #d55e00; stroke-opacity: 0.8; stroke-width: 2"/>
    </g>
    <g id="line2d_18">
     <path d="M 495.0565 146.074687 
L 529.0565 146.074687 
" style="fill: none; stroke: #d55e00; stroke-opacity: 0.8; stroke-width: 2; stroke-linecap: round"/>
    </g>
    <g id="line2d_19"/>
    <g id="text_15">
     <text style="fill: #262626; font: 17px 'sans-serif'; text-anchor: start" x="542.6565" y="152.024687" transform="rotate(-0, 542.6565, 152.024687)">diabetic</text>
    </g>
   </g>
  </g>
 </g>
 <defs>
  <clipPath id="p404603d036">
   <rect x="37.3925" y="26.303437" width="446.4" height="271.8"/>
  </clipPath>
 </defs>
</svg>
